<svg viewBox="0 0 628.739990234375 628.739990234375" class="roots-wrapper"><g transform="rotate(0 0 0)"><svg viewBoxSize="628.739990234375" data-root-id="0113197783731" xmlns="http://www.w3.org/2000/svg" xmlns:xlink="http://www.w3.org/1999/xlink" version="1.1" id="Layer_1" x="25" y="279.2487797241211" viewBox="316.3650207519531 159.67300415039062 327.2699890136719 241.99697875976562" enable-background="new 0 0 960 560" xml:space="preserve" height="70.24242161873826" width="94.993896484375" preserveAspectRatio="xMinYMin" zoom="0.91" editorType="buyer" data-layer-role="icon" style="position: absolute; height: 70.2424px; width: 94.9939px; top: 279.249px; left: 25px;"><path fill="#0050A8" d="M419.31,241.491h55.973l-11.472,48.462c19.539,4.5,41.419,7.386,64.659,8.247l13.317-56.709h52.061    l11.736-45.434h-174.54L419.31,241.491z" name="Layer %{number}" zoom="0.91" data-layer-id="0251533683811" style="fill: rgb(13, 106, 168);"></path><path fill="#2C2729" d="M495.085,322.805c-13.243,0-26.146-0.708-38.567-2.039l-19.152,80.904h66.806l18.769-79.921    C513.863,322.441,504.562,322.805,495.085,322.805z" name="Layer %{number}" zoom="0.91" data-layer-id="0243983283853" style="fill: rgb(0, 28, 84);"></path><path fill="#161515" d="M517.213,346.139l5.68-24.184c-23.301-1.2-45.122-4.444-64.456-9.299l-7.451,31.475  c14.106,1.744,28.879,2.674,44.099,2.674C502.578,346.805,509.961,346.575,517.213,346.139z" name="Layer %{number}" zoom="0.91" data-layer-id="5870805983897" style="fill: rgb(0, 7, 46);"></path><path opacity="0.3" fill="#2C2729" enable-background="new    " d="M528.471,298.2l4.662-19.854  c-23.197-0.584-45.12-3.185-64.823-7.397l-4.499,19.005C483.351,294.453,505.23,297.339,528.471,298.2z" name="Layer %{number}" zoom="0.91" data-layer-id="6880983583935" style="fill: rgb(0, 28, 84);"></path><path fill="#2C2729" d="M543.14,309.477c-92.343,0-167.197-31.926-167.197-71.313c0-39.384,74.854-71.311,167.197-71.311   c9.369,0,18.563,0.334,27.503,0.966c-22.942-5.224-48.552-8.146-75.558-8.146c-98.704,0-178.72,38.981-178.72,87.066   c0,48.088,80.016,87.065,178.72,87.065c61.92,0,116.479-15.342,148.55-38.646C615.659,304.148,580.86,309.477,543.14,309.477z" name="Layer %{number}" zoom="0.91" data-layer-id="3082225583968" style="fill: rgb(0, 28, 84);"></path><path fill="#444042" d="M423.276,292.068c-33.105-14.119-51.337-33.263-51.337-53.902s18.229-39.782,51.337-53.901    c25.354-10.815,57.265-17.789,91.849-20.238c0,0-170.625,2.778-170.625,77.076c0,79.836,192.579,97.362,272.956,64.874    c-22.971,4.814-48.188,7.314-74.316,7.314C497.928,313.287,455.358,305.75,423.276,292.068z" name="Layer %{number}" zoom="0.91" data-layer-id="4488874884002" style="fill: rgb(10, 36, 115);"></path></svg></g><g transform="rotate(0 0 0)"><svg viewBoxSize="628.739990234375" data-root-id="7200761384040" xmlns="http://www.w3.org/2000/svg" x="132" y="332.6507797241211" viewBox="9.649999618530273 6.190000057220459 471.7400207519531 12.84000015258789" height="12.84000015258789" width="471.7400207519531" fontUrl="https://fonts.gstatic.com/s/poppins/v21/pxiEyp8kv8JHgFVrFJDUc1NECPY.ttf" zoom="0.91" editorType="buyer" data-layer-role="slogan" style="position: absolute; top: 332.651px; left: 132px; width: 471.74px; height: 12.84px;"><g data-horizontal-grow="left" data-vertical-center="false" zoom="0.91" root="[object Object]" style="fill: rgb(13, 106, 168); fill-opacity: 1;"><path d="M17.66 6.35L19.48 6.35L15.39 14.17L15.39 18.90L13.75 18.90L13.75 14.17L9.65 6.35L11.47 6.35L14.56 12.71L17.66 6.35ZM31.39 19.03Q29.65 19.03 28.21 18.21Q26.77 17.39 25.93 15.92Q25.09 14.45 25.09 12.62L25.09 12.62Q25.09 10.78 25.93 9.32Q26.77 7.85 28.21 7.03Q29.65 6.21 31.39 6.21L31.39 6.21Q33.16 6.21 34.60 7.03Q36.04 7.85 36.86 9.31Q37.69 10.76 37.69 12.62L37.69 12.62Q37.69 14.47 36.86 15.93Q36.04 17.39 34.60 18.21Q33.16 19.03 31.39 19.03L31.39 19.03ZM31.39 17.60Q32.71 17.60 33.76 16.99Q34.81 16.38 35.42 15.25Q36.02 14.11 36.02 12.62L36.02 12.62Q36.02 11.11 35.42 9.98Q34.81 8.86 33.77 8.24Q32.72 7.63 31.39 7.63L31.39 7.63Q30.06 7.63 29.02 8.24Q27.97 8.86 27.37 9.98Q26.77 11.11 26.77 12.62L26.77 12.62Q26.77 14.11 27.37 15.25Q27.97 16.38 29.03 16.99Q30.08 17.60 31.39 17.60L31.39 17.60ZM44.32 6.35L45.95 6.35L45.95 14.29Q45.95 15.97 46.77 16.78Q47.59 17.59 49.05 17.59L49.05 17.59Q50.49 17.59 51.31 16.78Q52.13 15.97 52.13 14.29L52.13 14.29L52.13 6.35L53.77 6.35L53.77 14.27Q53.77 15.84 53.14 16.91Q52.51 17.98 51.44 18.50Q50.36 19.03 49.03 19.03L49.03 19.03Q47.70 19.03 46.63 18.50Q45.56 17.98 44.94 16.91Q44.32 15.84 44.32 14.27L44.32 14.27L44.32 6.35ZM69.57 18.90L67.61 18.90L64.62 13.77L62.64 13.77L62.64 18.90L61.00 18.90L61.00 6.35L65.05 6.35Q66.47 6.35 67.45 6.84Q68.44 7.33 68.92 8.15Q69.41 8.98 69.41 10.04L69.41 10.04Q69.41 11.34 68.66 12.33Q67.91 13.32 66.42 13.64L66.42 13.64L69.57 18.90ZM62.64 7.70L62.64 12.46L65.05 12.46Q66.38 12.46 67.05 11.80Q67.72 11.14 67.72 10.04L67.72 10.04Q67.72 8.93 67.06 8.32Q66.40 7.70 65.05 7.70L65.05 7.70L62.64 7.70ZM85.14 12.62Q85.14 10.78 85.97 9.32Q86.80 7.85 88.23 7.02Q89.66 6.19 91.40 6.19L91.40 6.19Q93.46 6.19 94.99 7.18Q96.52 8.17 97.22 9.99L97.22 9.99L95.26 9.99Q94.73 8.86 93.75 8.24Q92.77 7.63 91.40 7.63L91.40 7.63Q90.09 7.63 89.05 8.24Q88.00 8.86 87.41 9.98Q86.81 11.11 86.81 12.62L86.81 12.62Q86.81 14.11 87.41 15.24Q88.00 16.36 89.05 16.97Q90.09 17.59 91.40 17.59L91.40 17.59Q92.77 17.59 93.75 16.98Q94.73 16.38 95.26 15.25L95.26 15.25L97.22 15.25Q96.52 17.05 94.99 18.03Q93.46 19.01 91.40 19.01L91.40 19.01Q89.66 19.01 88.23 18.19Q86.80 17.37 85.97 15.91Q85.14 14.45 85.14 12.62L85.14 12.62ZM109.84 19.03Q108.09 19.03 106.65 18.21Q105.21 17.39 104.37 15.92Q103.54 14.45 103.54 12.62L103.54 12.62Q103.54 10.78 104.37 9.32Q105.21 7.85 106.65 7.03Q108.09 6.21 109.84 6.21L109.84 6.21Q111.60 6.21 113.04 7.03Q114.48 7.85 115.31 9.31Q116.14 10.76 116.14 12.62L116.14 12.62Q116.14 14.47 115.31 15.93Q114.48 17.39 113.04 18.21Q111.60 19.03 109.84 19.03L109.84 19.03ZM109.84 17.60Q111.15 17.60 112.20 16.99Q113.26 16.38 113.86 15.25Q114.46 14.11 114.46 12.62L114.46 12.62Q114.46 11.11 113.86 9.98Q113.26 8.86 112.21 8.24Q111.17 7.63 109.84 7.63L109.84 7.63Q108.50 7.63 107.46 8.24Q106.42 8.86 105.81 9.98Q105.21 11.11 105.21 12.62L105.21 12.62Q105.21 14.11 105.81 15.25Q106.42 16.38 107.47 16.99Q108.52 17.60 109.84 17.60L109.84 17.60ZM133.78 6.44L135.52 6.44L135.52 18.90L133.88 18.90L133.88 9.61L129.74 18.90L128.59 18.90L124.43 9.59L124.43 18.90L122.80 18.90L122.80 6.44L124.56 6.44L129.17 16.74L133.78 6.44ZM151.18 10.03Q151.18 11.59 150.11 12.63Q149.04 13.66 146.84 13.66L146.84 13.66L144.43 13.66L144.43 18.90L142.79 18.90L142.79 6.35L146.84 6.35Q148.97 6.35 150.07 7.38Q151.18 8.41 151.18 10.03L151.18 10.03ZM146.84 12.31Q148.21 12.31 148.86 11.72Q149.51 11.12 149.51 10.03L149.51 10.03Q149.51 7.70 146.84 7.70L146.84 7.70L144.43 7.70L144.43 12.31L146.84 12.31ZM159.35 6.35L159.35 17.57L163.75 17.57L163.75 18.90L157.72 18.90L157.72 6.35L159.35 6.35ZM176.74 7.69L171.63 7.69L171.63 11.88L176.20 11.88L176.20 13.23L171.63 13.23L171.63 17.55L176.74 17.55L176.74 18.90L169.99 18.90L169.99 6.34L176.74 6.34L176.74 7.69ZM182.95 6.35L191.45 6.35L191.45 7.69L188.03 7.69L188.03 18.90L186.39 18.90L186.39 7.69L182.95 7.69L182.95 6.35ZM204.71 7.69L199.60 7.69L199.60 11.88L204.17 11.88L204.17 13.23L199.60 13.23L199.60 17.55L204.71 17.55L204.71 18.90L197.96 18.90L197.96 6.34L204.71 6.34L204.71 7.69ZM229.03 6.35L230.67 6.35L230.67 18.90L229.03 18.90L229.03 13.21L222.64 13.21L222.64 18.90L221.00 18.90L221.00 6.35L222.64 6.35L222.64 11.86L229.03 11.86L229.03 6.35ZM246.38 18.90L245.38 16.11L239.90 16.11L238.90 18.90L237.17 18.90L241.70 6.43L243.59 6.43L248.11 18.90L246.38 18.90ZM240.37 14.78L244.91 14.78L242.64 8.44L240.37 14.78ZM264.46 6.34L264.46 18.90L262.82 18.90L256.23 8.91L256.23 18.90L254.59 18.90L254.59 6.34L256.23 6.34L262.82 16.31L262.82 6.34L264.46 6.34ZM275.65 6.35Q277.70 6.35 279.21 7.12Q280.71 7.88 281.51 9.31Q282.31 10.73 282.31 12.65L282.31 12.65Q282.31 14.58 281.51 15.99Q280.71 17.41 279.21 18.15Q277.70 18.90 275.65 18.90L275.65 18.90L271.75 18.90L271.75 6.35L275.65 6.35ZM275.65 17.55Q278.08 17.55 279.36 16.26Q280.64 14.98 280.64 12.65L280.64 12.65Q280.64 10.31 279.35 9.00Q278.06 7.69 275.65 7.69L275.65 7.69L273.38 7.69L273.38 17.55L275.65 17.55ZM295.94 6.35L297.76 6.35L293.67 14.17L293.67 18.90L292.03 18.90L292.03 14.17L287.93 6.35L289.75 6.35L292.84 12.71L295.94 6.35ZM314.96 6.44L316.71 6.44L316.71 18.90L315.07 18.90L315.07 9.61L310.93 18.90L309.78 18.90L305.62 9.59L305.62 18.90L303.98 18.90L303.98 6.44L305.75 6.44L310.36 16.74L314.96 6.44ZM332.41 18.90L331.40 16.11L325.93 16.11L324.92 18.90L323.19 18.90L327.73 6.43L329.62 6.43L334.13 18.90L332.41 18.90ZM326.39 14.78L330.93 14.78L328.66 8.44L326.39 14.78ZM350.48 6.34L350.48 18.90L348.84 18.90L342.25 8.91L342.25 18.90L340.61 18.90L340.61 6.34L342.25 6.34L348.84 16.31L348.84 6.34L350.48 6.34ZM371.05 19.03Q369.81 19.03 368.83 18.59Q367.85 18.14 367.29 17.36Q366.73 16.58 366.71 15.55L366.71 15.55L368.46 15.55Q368.55 16.43 369.19 17.04Q369.83 17.64 371.05 17.64L371.05 17.64Q372.22 17.64 372.90 17.06Q373.57 16.47 373.57 15.55L373.57 15.55Q373.57 14.83 373.18 14.38Q372.78 13.93 372.19 13.70Q371.59 13.46 370.58 13.19L370.58 13.19Q369.34 12.87 368.59 12.55Q367.85 12.22 367.32 11.53Q366.79 10.84 366.79 9.67L366.79 9.67Q366.79 8.64 367.31 7.85Q367.83 7.06 368.77 6.62Q369.72 6.19 370.94 6.19L370.94 6.19Q372.71 6.19 373.83 7.07Q374.96 7.96 375.10 9.41L375.10 9.41L373.30 9.41Q373.21 8.69 372.55 8.15Q371.88 7.60 370.78 7.60L370.78 7.60Q369.76 7.60 369.11 8.13Q368.46 8.66 368.46 9.61L368.46 9.61Q368.46 10.30 368.85 10.73Q369.23 11.16 369.80 11.39Q370.37 11.61 371.39 11.90L371.39 11.90Q372.64 12.24 373.39 12.57Q374.15 12.91 374.69 13.60Q375.23 14.29 375.23 15.48L375.23 15.48Q375.23 16.40 374.74 17.21Q374.26 18.02 373.30 18.52Q372.35 19.03 371.05 19.03L371.05 19.03ZM387.83 19.03Q386.08 19.03 384.64 18.21Q383.20 17.39 382.36 15.92Q381.53 14.45 381.53 12.62L381.53 12.62Q381.53 10.78 382.36 9.32Q383.20 7.85 384.64 7.03Q386.08 6.21 387.83 6.21L387.83 6.21Q389.59 6.21 391.03 7.03Q392.47 7.85 393.30 9.31Q394.13 10.76 394.13 12.62L394.13 12.62Q394.13 14.47 393.30 15.93Q392.47 17.39 391.03 18.21Q389.59 19.03 387.83 19.03L387.83 19.03ZM387.83 17.60Q389.14 17.60 390.19 16.99Q391.25 16.38 391.85 15.25Q392.45 14.11 392.45 12.62L392.45 12.62Q392.45 11.11 391.85 9.98Q391.25 8.86 390.20 8.24Q389.16 7.63 387.83 7.63L387.83 7.63Q386.50 7.63 385.45 8.24Q384.41 8.86 383.80 9.98Q383.20 11.11 383.20 12.62L383.20 12.62Q383.20 14.11 383.80 15.25Q384.41 16.38 385.46 16.99Q386.51 17.60 387.83 17.60L387.83 17.60ZM402.43 6.35L402.43 17.57L406.82 17.57L406.82 18.90L400.79 18.90L400.79 6.35L402.43 6.35ZM413.03 6.35L414.67 6.35L414.67 14.29Q414.67 15.97 415.49 16.78Q416.30 17.59 417.76 17.59L417.76 17.59Q419.20 17.59 420.02 16.78Q420.84 15.97 420.84 14.29L420.84 14.29L420.84 6.35L422.48 6.35L422.48 14.27Q422.48 15.84 421.85 16.91Q421.22 17.98 420.15 18.50Q419.08 19.03 417.74 19.03L417.74 19.03Q416.41 19.03 415.34 18.50Q414.27 17.98 413.65 16.91Q413.03 15.84 413.03 14.27L413.03 14.27L413.03 6.35ZM428.94 6.35L437.44 6.35L437.44 7.69L434.02 7.69L434.02 18.90L432.38 18.90L432.38 7.69L428.94 7.69L428.94 6.35ZM443.95 6.35L445.59 6.35L445.59 18.90L443.95 18.90L443.95 6.35ZM458.57 19.03Q456.82 19.03 455.38 18.21Q453.94 17.39 453.10 15.92Q452.27 14.45 452.27 12.62L452.27 12.62Q452.27 10.78 453.10 9.32Q453.94 7.85 455.38 7.03Q456.82 6.21 458.57 6.21L458.57 6.21Q460.33 6.21 461.77 7.03Q463.21 7.85 464.04 9.31Q464.87 10.76 464.87 12.62L464.87 12.62Q464.87 14.47 464.04 15.93Q463.21 17.39 461.77 18.21Q460.33 19.03 458.57 19.03L458.57 19.03ZM458.57 17.60Q459.88 17.60 460.93 16.99Q461.99 16.38 462.59 15.25Q463.19 14.11 463.19 12.62L463.19 12.62Q463.19 11.11 462.59 9.98Q461.99 8.86 460.94 8.24Q459.90 7.63 458.57 7.63L458.57 7.63Q457.24 7.63 456.19 8.24Q455.15 8.86 454.54 9.98Q453.94 11.11 453.94 12.62L453.94 12.62Q453.94 14.11 454.54 15.25Q455.15 16.38 456.20 16.99Q457.25 17.60 458.57 17.60L458.57 17.60ZM481.39 6.34L481.39 18.90L479.75 18.90L473.17 8.91L473.17 18.90L471.53 18.90L471.53 6.34L473.17 6.34L479.75 16.31L479.75 6.34L481.39 6.34Z" transform="translate(0, 0)"></path></g></svg></g><g transform="rotate(0 0 0)"><svg viewBoxSize="628.739990234375" data-root-id="2789946784144" xmlns="http://www.w3.org/2000/svg" x="132" y="295.7907797241211" viewBox="0.8600000143051147 12.170000076293945 334.1600036621094 25.8799991607666" height="25.8799991607666" width="334.1600036621094" fontUrl="https://fonts.gstatic.com/s/poppins/v21/pxiByp8kv8JHgFVrLCz7V1tvFP-KUEg.ttf" zoom="0.91" editorType="buyer" data-layer-role="brandName" style="position: absolute; top: 295.791px; left: 132px; width: 334.16px; height: 25.88px;"><g data-horizontal-grow="left" data-vertical-center="false" zoom="0.91" root="[object Object]" style="fill: rgb(0, 28, 84); fill-opacity: 1;"><path d="M0.86 12.53L20.41 12.53L20.41 17.46L13.72 17.46L13.72 37.80L7.56 37.80L7.56 17.46L0.86 17.46L0.86 12.53ZM35.46 38.05Q31.90 38.05 28.93 36.40Q25.96 34.74 24.21 31.77Q22.46 28.80 22.46 25.09L22.46 25.09Q22.46 21.38 24.21 18.43Q25.96 15.48 28.93 13.82Q31.90 12.17 35.46 12.17L35.46 12.17Q39.02 12.17 41.99 13.82Q44.96 15.48 46.67 18.43Q48.38 21.38 48.38 25.09L48.38 25.09Q48.38 28.80 46.66 31.77Q44.93 34.74 41.98 36.40Q39.02 38.05 35.46 38.05L35.46 38.05ZM35.46 32.44Q38.48 32.44 40.30 30.42Q42.12 28.40 42.12 25.09L42.12 25.09Q42.12 21.74 40.30 19.75Q38.48 17.75 35.46 17.75L35.46 17.75Q32.40 17.75 30.58 19.73Q28.76 21.71 28.76 25.09L28.76 25.09Q28.76 28.44 30.58 30.44Q32.40 32.44 35.46 32.44L35.46 32.44ZM50.44 12.53L69.98 12.53L69.98 17.46L63.29 17.46L63.29 37.80L57.13 37.80L57.13 17.46L50.44 17.46L50.44 12.53ZM90.32 37.80L88.81 33.34L79.38 33.34L77.87 37.80L71.42 37.80L80.57 12.53L87.70 12.53L96.84 37.80L90.32 37.80ZM81.00 28.58L87.23 28.58L84.10 19.33L81.00 28.58ZM105.77 12.53L105.77 33.05L113.83 33.05L113.83 37.80L99.61 37.80L99.61 12.53L105.77 12.53ZM125.93 38.05Q123.16 38.05 120.96 37.15Q118.76 36.25 117.45 34.49Q116.14 32.72 116.06 30.24L116.06 30.24L122.62 30.24Q122.76 31.64 123.59 32.38Q124.42 33.12 125.75 33.12L125.75 33.12Q127.12 33.12 127.91 32.49Q128.70 31.86 128.70 30.74L128.70 30.74Q128.70 29.81 128.07 29.20Q127.44 28.58 126.52 28.19Q125.60 27.79 123.91 27.29L123.91 27.29Q121.46 26.53 119.92 25.78Q118.37 25.02 117.25 23.54Q116.14 22.07 116.14 19.69L116.14 19.69Q116.14 16.16 118.69 14.17Q121.25 12.17 125.35 12.17L125.35 12.17Q129.53 12.17 132.08 14.17Q134.64 16.16 134.82 19.73L134.82 19.73L128.16 19.73Q128.09 18.50 127.26 17.80Q126.43 17.10 125.14 17.10L125.14 17.10Q124.02 17.10 123.34 17.69Q122.65 18.29 122.65 19.40L122.65 19.40Q122.65 20.63 123.80 21.31Q124.96 22.00 127.40 22.79L127.40 22.79Q129.85 23.62 131.38 24.37Q132.91 25.13 134.03 26.57Q135.14 28.01 135.14 30.28L135.14 30.28Q135.14 32.44 134.05 34.20Q132.95 35.96 130.86 37.01Q128.77 38.05 125.93 38.05L125.93 38.05ZM158.18 20.66Q158.18 22.86 157.18 24.68Q156.17 26.50 154.08 27.61Q151.99 28.73 148.90 28.73L148.90 28.73L145.08 28.73L145.08 37.80L138.92 37.80L138.92 12.53L148.90 12.53Q151.92 12.53 154.01 13.57Q156.10 14.62 157.14 16.45Q158.18 18.29 158.18 20.66L158.18 20.66ZM148.43 23.83Q150.19 23.83 151.06 23.00Q151.92 22.18 151.92 20.66L151.92 20.66Q151.92 19.15 151.06 18.32Q150.19 17.50 148.43 17.50L148.43 17.50L145.08 17.50L145.08 23.83L148.43 23.83ZM176.87 17.46L167.54 17.46L167.54 22.57L175.79 22.57L175.79 27.32L167.54 27.32L167.54 32.87L176.87 32.87L176.87 37.80L161.39 37.80L161.39 12.53L176.87 12.53L176.87 17.46ZM179.82 25.13Q179.82 21.38 181.44 18.45Q183.06 15.52 185.96 13.88Q188.86 12.24 192.53 12.24L192.53 12.24Q197.03 12.24 200.23 14.62Q203.44 16.99 204.52 21.10L204.52 21.10L197.75 21.10Q196.99 19.51 195.61 18.68Q194.22 17.86 192.46 17.86L192.46 17.86Q189.61 17.86 187.85 19.84Q186.08 21.82 186.08 25.13L186.08 25.13Q186.08 28.44 187.85 30.42Q189.61 32.40 192.46 32.40L192.46 32.40Q194.22 32.40 195.61 31.57Q196.99 30.74 197.75 29.16L197.75 29.16L204.52 29.16Q203.44 33.26 200.23 35.62Q197.03 37.98 192.53 37.98L192.53 37.98Q188.86 37.98 185.96 36.34Q183.06 34.70 181.44 31.79Q179.82 28.87 179.82 25.13L179.82 25.13ZM208.30 12.53L214.45 12.53L214.45 37.80L208.30 37.80L208.30 12.53ZM236.16 37.80L234.65 33.34L225.22 33.34L223.70 37.80L217.26 37.80L226.40 12.53L233.53 12.53L242.68 37.80L236.16 37.80ZM226.84 28.58L233.06 28.58L229.93 19.33L226.84 28.58ZM251.60 12.53L251.60 33.05L259.67 33.05L259.67 37.80L245.45 37.80L245.45 12.53L251.60 12.53ZM262.62 12.53L268.78 12.53L268.78 37.80L262.62 37.80L262.62 12.53ZM282.38 38.05Q279.61 38.05 277.42 37.15Q275.22 36.25 273.91 34.49Q272.59 32.72 272.52 30.24L272.52 30.24L279.07 30.24Q279.22 31.64 280.04 32.38Q280.87 33.12 282.20 33.12L282.20 33.12Q283.57 33.12 284.36 32.49Q285.16 31.86 285.16 30.74L285.16 30.74Q285.16 29.81 284.53 29.20Q283.90 28.58 282.98 28.19Q282.06 27.79 280.37 27.29L280.37 27.29Q277.92 26.53 276.37 25.78Q274.82 25.02 273.71 23.54Q272.59 22.07 272.59 19.69L272.59 19.69Q272.59 16.16 275.15 14.17Q277.70 12.17 281.81 12.17L281.81 12.17Q285.98 12.17 288.54 14.17Q291.10 16.16 291.28 19.73L291.28 19.73L284.62 19.73Q284.54 18.50 283.72 17.80Q282.89 17.10 281.59 17.10L281.59 17.10Q280.48 17.10 279.79 17.69Q279.11 18.29 279.11 19.40L279.11 19.40Q279.11 20.63 280.26 21.31Q281.41 22.00 283.86 22.79L283.86 22.79Q286.31 23.62 287.84 24.37Q289.37 25.13 290.48 26.57Q291.60 28.01 291.60 30.28L291.60 30.28Q291.60 32.44 290.50 34.20Q289.40 35.96 287.32 37.01Q285.23 38.05 282.38 38.05L282.38 38.05ZM294.01 12.53L313.56 12.53L313.56 17.46L306.86 17.46L306.86 37.80L300.71 37.80L300.71 17.46L294.01 17.46L294.01 12.53ZM325.80 38.05Q323.03 38.05 320.83 37.15Q318.64 36.25 317.32 34.49Q316.01 32.72 315.94 30.24L315.94 30.24L322.49 30.24Q322.63 31.64 323.46 32.38Q324.29 33.12 325.62 33.12L325.62 33.12Q326.99 33.12 327.78 32.49Q328.57 31.86 328.57 30.74L328.57 30.74Q328.57 29.81 327.94 29.20Q327.31 28.58 326.39 28.19Q325.48 27.79 323.78 27.29L323.78 27.29Q321.34 26.53 319.79 25.78Q318.24 25.02 317.12 23.54Q316.01 22.07 316.01 19.69L316.01 19.69Q316.01 16.16 318.56 14.17Q321.12 12.17 325.22 12.17L325.22 12.17Q329.40 12.17 331.96 14.17Q334.51 16.16 334.69 19.73L334.69 19.73L328.03 19.73Q327.96 18.50 327.13 17.80Q326.30 17.10 325.01 17.10L325.01 17.10Q323.89 17.10 323.21 17.69Q322.52 18.29 322.52 19.40L322.52 19.40Q322.52 20.63 323.68 21.31Q324.83 22.00 327.28 22.79L327.28 22.79Q329.72 23.62 331.25 24.37Q332.78 25.13 333.90 26.57Q335.02 28.01 335.02 30.28L335.02 30.28Q335.02 32.44 333.92 34.20Q332.82 35.96 330.73 37.01Q328.64 38.05 325.80 38.05L325.80 38.05Z" transform="translate(0, 0)"></path></g></svg></g></svg>