<svg viewBox="0 0 575 575" class="roots-wrapper"><g transform="rotate(0 0 0)"><svg viewBoxSize="575" data-root-id="6892337994360" xmlns="http://www.w3.org/2000/svg" xmlns:xlink="http://www.w3.org/1999/xlink" version="1.1" id="Layer_1" x="172.50601525878906" y="215.23500061035156" viewBox="251.8000030517578 709 1496.39990234375 582" xml:space="preserve" height="89.453125" width="230" preserveAspectRatio="xMinYMin" zoom="1" editorType="buyer" data-layer-role="icon" style="position: absolute; height: 89.4531px; width: 230px; top: 215.235px; left: 172.506px;"><polygon id="XMLID_129_" points="685.1,1286.4 668.1,1286.4 668.1,1011.7 948.9,762 1225.5,1018.2 1225.5,1285.1 1208.5,1285.1    1208.5,1025.7 948.7,784.9 685.1,1019.4  " name="Layer %{number}" zoom="1" data-layer-id="5739782494361"></polygon><polygon id="XMLID_128_" points="1120.8,1286.4 1103.9,1286.4 1103.9,1012.6 1294,873.1 1597.4,1072.5 1502.9,1072.5    1502.9,1285.1 1486,1285.1 1486,1055.5 1540.7,1055.5 1294.5,893.7 1120.8,1021.2  " name="Layer %{number}" zoom="1" data-layer-id="2762983394361"></polygon><polygon id="XMLID_127_" points="409,1285.1 392,1285.1 392,1073.8 298,1074.3 416.2,1002.6 416.2,928.4 500.6,928.4 500.6,952.2    633.1,872.9 791.1,1013 791.1,1283.8 774.1,1283.8 774.1,1020.7 631.1,893.9 483.6,982.1 483.6,945.4 433.2,945.4 433.2,1012.2    358.3,1057 409,1056.7  " name="Layer %{number}" zoom="1" data-layer-id="9821078494361"></polygon><path id="XMLID_124_" d="M1007.3,1064.6H889.1V946.3h118.3V1064.6z M902.6,1051h91.1v-91.1h-91.1V1051z" name="Layer %{number}" zoom="1" data-layer-id="1132245694361"></path><rect id="XMLID_123_" x="893.6" y="998.3" width="105.7" height="13.6" name="Layer %{number}" zoom="1" data-layer-id="5875106794361"></rect><rect id="XMLID_122_" x="941.9" y="953" width="13.6" height="103.3" name="Layer %{number}" zoom="1" data-layer-id="2816330394361"></rect><rect id="XMLID_121_" x="251.8" y="1274" width="1484.4" height="17" name="Layer %{number}" zoom="1" data-layer-id="3330730394361"></rect><path id="XMLID_118_" d="M1163.6,832.4c-20.5,0-37.1-16.7-37.1-37.1s16.7-37.1,37.1-37.1c20.5,0,37.1,16.7,37.1,37.1    S1184,832.4,1163.6,832.4z M1163.6,771.7c-13,0-23.6,10.6-23.6,23.6c0,13,10.6,23.6,23.6,23.6c13,0,23.6-10.6,23.6-23.6    C1187.1,782.3,1176.6,771.7,1163.6,771.7z" name="Layer %{number}" zoom="1" data-layer-id="8573265994361"></path><path id="XMLID_117_" d="M1163.6,752.3c-3.7,0-6.8-3-6.8-6.8v-29.7c0-3.7,3-6.8,6.8-6.8s6.8,3,6.8,6.8v29.7      C1170.4,749.3,1167.3,752.3,1163.6,752.3z" name="Layer %{number}" zoom="1" data-layer-id="7603595294361"></path><path id="XMLID_116_" d="M1163.6,882.9c-3.7,0-6.8-3-6.8-6.8v-29.7c0-3.7,3-6.8,6.8-6.8s6.8,3,6.8,6.8v29.7      C1170.4,879.9,1167.3,882.9,1163.6,882.9z" name="Layer %{number}" zoom="1" data-layer-id="8037934594361"></path><path id="XMLID_115_" d="M1199.2,767.1c-1.7,0-3.5-0.7-4.8-2c-2.7-2.7-2.7-6.9,0-9.6l21-21c2.6-2.7,6.9-2.7,9.6,0      c2.7,2.7,2.7,6.9,0,9.6l-21,21C1202.7,766.4,1201,767.1,1199.2,767.1z" name="Layer %{number}" zoom="1" data-layer-id="7669043694361"></path><path id="XMLID_114_" d="M1106.9,859.4c-1.7,0-3.5-0.7-4.8-2c-2.7-2.7-2.7-6.9,0-9.6l21-21c2.7-2.7,7-2.7,9.6,0      c2.7,2.7,2.7,6.9,0,9.6l-21,21C1110.4,858.8,1108.6,859.4,1106.9,859.4z" name="Layer %{number}" zoom="1" data-layer-id="6827131594361"></path><path id="XMLID_113_" d="M1113.1,802.7h-29.7c-3.7,0-6.8-3-6.8-6.8c0-3.7,3-6.8,6.8-6.8h29.7c3.7,0,6.8,3,6.8,6.8      C1119.9,799.7,1116.9,802.7,1113.1,802.7z" name="Layer %{number}" zoom="1" data-layer-id="0264102894361"></path><path id="XMLID_112_" d="M1243.7,802.7H1214c-3.7,0-6.8-3-6.8-6.8c0-3.7,3-6.8,6.8-6.8h29.7c3.7,0,6.8,3,6.8,6.8      C1250.5,799.7,1247.5,802.7,1243.7,802.7z" name="Layer %{number}" zoom="1" data-layer-id="7397798294361"></path><path id="XMLID_111_" d="M1220.2,859.4c-1.7,0-3.5-0.7-4.8-2l-21-21c-2.7-2.7-2.7-6.9,0-9.6c2.6-2.7,7-2.7,9.6,0l21,21      c2.7,2.7,2.7,6.9,0,9.6C1223.7,858.8,1222,859.4,1220.2,859.4z" name="Layer %{number}" zoom="1" data-layer-id="5761284494361"></path><path id="XMLID_110_" d="M1127.9,767.1c-1.7,0-3.5-0.7-4.8-2l-21-21c-2.7-2.7-2.7-6.9,0-9.6c2.6-2.7,6.9-2.7,9.6,0l21,21      c2.7,2.7,2.7,6.9,0,9.6C1131.4,766.4,1129.6,767.1,1127.9,767.1z" name="Layer %{number}" zoom="1" data-layer-id="1570829694361"></path><path id="XMLID_109_" d="M1652,1287.6c-3.7,0-6.8-3-6.8-6.8v-223.1c0-3.7,3-6.8,6.8-6.8s6.8,3,6.8,6.8v223.1   C1658.7,1284.6,1655.7,1287.6,1652,1287.6z" name="Layer %{number}" zoom="1" data-layer-id="1064686694361"></path><path id="XMLID_108_" d="M1654.1,1183.9c-1.7,0-3.4-0.6-4.7-1.9c-2.7-2.6-2.8-6.9-0.2-9.6l54.4-56.5c2.6-2.7,6.9-2.8,9.6-0.2   c2.7,2.6,2.8,6.9,0.2,9.6l-54.4,56.5C1657.6,1183.2,1655.8,1183.9,1654.1,1183.9z" name="Layer %{number}" zoom="1" data-layer-id="0738986394361"></path><path id="XMLID_107_" d="M1650.4,1208.6c-1.7,0-3.4-0.6-4.7-1.9l-54-51.7c-2.7-2.6-2.8-6.9-0.2-9.6c2.6-2.7,6.9-2.8,9.6-0.2   l54,51.7c2.7,2.6,2.8,6.9,0.2,9.6C1654,1207.9,1652.2,1208.6,1650.4,1208.6z" name="Layer %{number}" zoom="1" data-layer-id="9912249494361"></path><path id="XMLID_104_" d="M1711.2,1154.7c-20.4,0-37-16.6-37-37c0-20.4,16.6-37,37-37c20.4,0,37,16.6,37,37   C1748.2,1138.1,1731.6,1154.7,1711.2,1154.7z M1711.2,1094.3c-12.9,0-23.4,10.5-23.4,23.4s10.5,23.4,23.4,23.4   c12.9,0,23.4-10.5,23.4-23.4S1724.1,1094.3,1711.2,1094.3z" name="Layer %{number}" zoom="1" data-layer-id="4310628794361"></path><path id="XMLID_101_" d="M1652,1089.8c-20.4,0-37-16.6-37-37c0-20.4,16.6-37,37-37c20.4,0,37,16.6,37,37   C1689,1073.2,1672.4,1089.8,1652,1089.8z M1652,1029.4c-12.9,0-23.4,10.5-23.4,23.4s10.5,23.4,23.4,23.4   c12.9,0,23.4-10.5,23.4-23.4S1664.9,1029.4,1652,1029.4z" name="Layer %{number}" zoom="1" data-layer-id="5002027494361"></path><path id="XMLID_97_" d="M1596.5,1185.6c-20.4,0-37-16.6-37-37s16.6-37,37-37c20.4,0,37,16.6,37,37S1616.9,1185.6,1596.5,1185.6z    M1596.5,1125.2c-12.9,0-23.4,10.5-23.4,23.4s10.5,23.4,23.4,23.4c12.9,0,23.4-10.5,23.4-23.4S1609.4,1125.2,1596.5,1125.2z" name="Layer %{number}" zoom="1" data-layer-id="6078655994361"></path></svg></g><g transform="rotate(0 0 0)"><svg viewBoxSize="575" data-root-id="3553683994361" xmlns="http://www.w3.org/2000/svg" y="350.23500061035156" viewBox="4.559999942779541 3.4100000858306885 312.7300109863281 9.530000686645508" x="131.13500701904297" height="9.530000686645508" width="312.7300109863281" fontUrl="https://fonts.gstatic.com/s/lato/v24/S6uyw4BMUTPHvxk6XweuBCY.ttf" zoom="1" editorType="buyer" data-layer-role="slogan" style="position: absolute; top: 350.235px; width: 312.73px; height: 9.53px; left: 131.135px;"><g data-horizontal-grow="center" zoom="1" root="[object Object]" style="fill: rgb(0, 0, 0);"><path d="M12.65 3.52L9.23 9.13L9.23 12.83L7.97 12.83L7.97 9.13L4.56 3.52L5.67 3.52Q5.84 3.52 5.93 3.60Q6.03 3.69 6.10 3.81L6.10 3.81L8.23 7.43Q8.36 7.66 8.45 7.86Q8.54 8.06 8.61 8.26L8.61 8.26Q8.68 8.05 8.77 7.85Q8.85 7.65 8.98 7.43L8.98 7.43L11.11 3.81Q11.17 3.71 11.27 3.61Q11.37 3.52 11.53 3.52L11.53 3.52L12.65 3.52ZM23.95 8.18L23.95 8.18Q23.95 9.22 23.62 10.10Q23.29 10.97 22.68 11.60Q22.08 12.23 21.23 12.58Q20.38 12.93 19.35 12.93L19.35 12.93Q18.33 12.93 17.48 12.58Q16.64 12.23 16.03 11.60Q15.43 10.97 15.10 10.10Q14.76 9.22 14.76 8.18L14.76 8.18Q14.76 7.13 15.10 6.26Q15.43 5.38 16.03 4.75Q16.64 4.11 17.48 3.76Q18.33 3.41 19.35 3.41L19.35 3.41Q20.38 3.41 21.23 3.76Q22.08 4.11 22.68 4.75Q23.29 5.38 23.62 6.26Q23.95 7.13 23.95 8.18ZM22.66 8.18L22.66 8.18Q22.66 7.32 22.42 6.64Q22.19 5.95 21.76 5.48Q21.33 5.01 20.72 4.76Q20.11 4.50 19.35 4.50L19.35 4.50Q18.61 4.50 17.99 4.76Q17.38 5.01 16.95 5.48Q16.52 5.95 16.29 6.64Q16.05 7.32 16.05 8.18L16.05 8.18Q16.05 9.04 16.29 9.71Q16.52 10.39 16.95 10.86Q17.38 11.34 17.99 11.59Q18.61 11.84 19.35 11.84L19.35 11.84Q20.11 11.84 20.72 11.59Q21.33 11.34 21.76 10.86Q22.19 10.39 22.42 9.71Q22.66 9.04 22.66 8.18ZM31.29 11.83L31.29 11.83Q31.87 11.83 32.33 11.64Q32.78 11.44 33.10 11.09Q33.41 10.74 33.58 10.25Q33.74 9.76 33.74 9.18L33.74 9.18L33.74 3.52L35.00 3.52L35.00 9.18Q35.00 9.98 34.74 10.67Q34.48 11.36 34.01 11.87Q33.53 12.37 32.84 12.66Q32.15 12.94 31.29 12.94L31.29 12.94Q30.43 12.94 29.74 12.66Q29.06 12.37 28.57 11.87Q28.09 11.36 27.84 10.67Q27.58 9.98 27.58 9.18L27.58 9.18L27.58 3.52L28.83 3.52L28.83 9.17Q28.83 9.76 29.00 10.24Q29.17 10.73 29.48 11.08Q29.80 11.43 30.25 11.63Q30.71 11.83 31.29 11.83ZM41.50 8.94L40.55 8.94L40.55 12.83L39.29 12.83L39.29 3.52L41.92 3.52Q42.81 3.52 43.45 3.70Q44.09 3.87 44.51 4.21Q44.93 4.55 45.13 5.03Q45.34 5.51 45.34 6.10L45.34 6.10Q45.34 6.59 45.18 7.02Q45.02 7.45 44.73 7.79Q44.43 8.13 44.01 8.37Q43.58 8.61 43.04 8.74L43.04 8.74Q43.28 8.87 43.46 9.13L43.46 9.13L46.17 12.83L45.06 12.83Q44.71 12.83 44.55 12.56L44.55 12.56L42.13 9.24Q42.02 9.08 41.89 9.01Q41.76 8.94 41.50 8.94L41.50 8.94ZM40.55 4.51L40.55 8.03L41.87 8.03Q42.42 8.03 42.84 7.89Q43.26 7.76 43.54 7.52Q43.82 7.27 43.96 6.94Q44.11 6.60 44.11 6.19L44.11 6.19Q44.11 5.36 43.56 4.93Q43.01 4.51 41.92 4.51L41.92 4.51L40.55 4.51ZM60.61 10.91L60.61 10.91Q60.71 10.91 60.80 10.99L60.80 10.99L61.29 11.53Q60.72 12.19 59.90 12.56Q59.09 12.94 57.94 12.94L57.94 12.94Q56.93 12.94 56.11 12.59Q55.29 12.24 54.71 11.61Q54.13 10.99 53.81 10.11Q53.50 9.23 53.50 8.18L53.50 8.18Q53.50 7.12 53.84 6.25Q54.18 5.37 54.80 4.74Q55.41 4.11 56.27 3.76Q57.14 3.41 58.18 3.41L58.18 3.41Q59.20 3.41 59.95 3.73Q60.69 4.05 61.27 4.60L61.27 4.60L60.86 5.17Q60.82 5.24 60.76 5.28Q60.70 5.32 60.59 5.32L60.59 5.32Q60.50 5.32 60.41 5.26Q60.31 5.20 60.18 5.11Q60.05 5.02 59.88 4.91Q59.70 4.81 59.46 4.72Q59.22 4.63 58.90 4.57Q58.59 4.50 58.17 4.50L58.17 4.50Q57.42 4.50 56.80 4.76Q56.18 5.02 55.73 5.49Q55.28 5.97 55.03 6.65Q54.78 7.33 54.78 8.18L54.78 8.18Q54.78 9.05 55.03 9.73Q55.28 10.41 55.72 10.88Q56.15 11.36 56.74 11.60Q57.33 11.85 58.01 11.85L58.01 11.85Q58.43 11.85 58.76 11.80Q59.09 11.75 59.38 11.65Q59.66 11.54 59.90 11.38Q60.15 11.23 60.39 11.00L60.39 11.00Q60.50 10.91 60.61 10.91ZM73.60 8.18L73.60 8.18Q73.60 9.22 73.27 10.10Q72.94 10.97 72.33 11.60Q71.73 12.23 70.88 12.58Q70.03 12.93 69.00 12.93L69.00 12.93Q67.98 12.93 67.13 12.58Q66.29 12.23 65.68 11.60Q65.08 10.97 64.75 10.10Q64.41 9.22 64.41 8.18L64.41 8.18Q64.41 7.13 64.75 6.26Q65.08 5.38 65.68 4.75Q66.29 4.11 67.13 3.76Q67.98 3.41 69.00 3.41L69.00 3.41Q70.03 3.41 70.88 3.76Q71.73 4.11 72.33 4.75Q72.94 5.38 73.27 6.26Q73.60 7.13 73.60 8.18ZM72.31 8.18L72.31 8.18Q72.31 7.32 72.07 6.64Q71.84 5.95 71.41 5.48Q70.98 5.01 70.37 4.76Q69.76 4.50 69.00 4.50L69.00 4.50Q68.26 4.50 67.64 4.76Q67.03 5.01 66.60 5.48Q66.17 5.95 65.94 6.64Q65.70 7.32 65.70 8.18L65.70 8.18Q65.70 9.04 65.94 9.71Q66.17 10.39 66.60 10.86Q67.03 11.34 67.64 11.59Q68.26 11.84 69.00 11.84L69.00 11.84Q69.76 11.84 70.37 11.59Q70.98 11.34 71.41 10.86Q71.84 10.39 72.07 9.71Q72.31 9.04 72.31 8.18ZM81.90 9.46L81.90 9.46Q81.99 9.62 82.06 9.79Q82.13 9.96 82.20 10.14L82.20 10.14Q82.26 9.96 82.33 9.79Q82.40 9.63 82.50 9.46L82.50 9.46L85.65 3.73Q85.73 3.58 85.82 3.55Q85.91 3.52 86.08 3.52L86.08 3.52L87.01 3.52L87.01 12.83L85.91 12.83L85.91 5.99Q85.91 5.85 85.91 5.69Q85.92 5.54 85.93 5.38L85.93 5.38L82.74 11.20Q82.58 11.49 82.29 11.49L82.29 11.49L82.11 11.49Q81.81 11.49 81.65 11.20L81.65 11.20L78.39 5.36Q78.41 5.53 78.42 5.69Q78.43 5.85 78.43 5.99L78.43 5.99L78.43 12.83L77.32 12.83L77.32 3.52L78.25 3.52Q78.42 3.52 78.51 3.55Q78.60 3.58 78.69 3.73L78.69 3.73L81.90 9.46ZM94.16 9.35L92.67 9.35L92.67 12.83L91.41 12.83L91.41 3.52L94.16 3.52Q95.04 3.52 95.70 3.72Q96.35 3.93 96.78 4.30Q97.21 4.68 97.42 5.21Q97.63 5.75 97.63 6.40L97.63 6.40Q97.63 7.05 97.40 7.59Q97.18 8.13 96.74 8.52Q96.30 8.91 95.65 9.13Q95.00 9.35 94.16 9.35L94.16 9.35ZM92.67 4.51L92.67 8.35L94.16 8.35Q94.70 8.35 95.11 8.20Q95.53 8.06 95.81 7.80Q96.08 7.55 96.23 7.19Q96.37 6.83 96.37 6.40L96.37 6.40Q96.37 5.51 95.82 5.01Q95.27 4.51 94.16 4.51L94.16 4.51L92.67 4.51ZM102.48 3.52L102.48 11.77L106.52 11.77L106.52 12.83L101.22 12.83L101.22 3.52L102.48 3.52ZM109.91 3.52L115.65 3.52L115.65 4.54L111.17 4.54L111.17 7.64L114.79 7.64L114.79 8.63L111.17 8.63L111.17 11.80L115.65 11.80L115.65 12.83L109.91 12.83L109.91 3.52ZM118.51 3.52L125.80 3.52L125.80 4.58L122.79 4.58L122.79 12.83L121.53 12.83L121.53 4.58L118.51 4.58L118.51 3.52ZM129.13 3.52L134.87 3.52L134.87 4.54L130.40 4.54L130.40 7.64L134.02 7.64L134.02 8.63L130.40 8.63L130.40 11.80L134.87 11.80L134.87 12.83L129.13 12.83L129.13 3.52ZM150.74 3.52L150.74 12.83L149.48 12.83L149.48 8.59L144.46 8.59L144.46 12.83L143.19 12.83L143.19 3.52L144.46 3.52L144.46 7.67L149.48 7.67L149.48 3.52L150.74 3.52ZM158.96 3.52L162.68 12.83L161.71 12.83Q161.54 12.83 161.43 12.75Q161.33 12.66 161.28 12.53L161.28 12.53L160.41 10.28L156.23 10.28L155.36 12.53Q155.31 12.65 155.20 12.74Q155.09 12.83 154.93 12.83L154.93 12.83L153.95 12.83L157.68 3.52L158.96 3.52ZM158.04 5.59L156.58 9.37L160.06 9.37L158.59 5.58Q158.45 5.23 158.31 4.71L158.31 4.71Q158.24 4.97 158.17 5.20Q158.11 5.42 158.04 5.59L158.04 5.59ZM166.51 3.52L166.51 3.52Q166.68 3.52 166.76 3.56Q166.84 3.60 166.94 3.73L166.94 3.73L172.34 10.75Q172.32 10.58 172.31 10.42Q172.31 10.26 172.31 10.11L172.31 10.11L172.31 3.52L173.41 3.52L173.41 12.83L172.78 12.83Q172.63 12.83 172.52 12.78Q172.42 12.73 172.33 12.60L172.33 12.60L166.94 5.59Q166.95 5.75 166.96 5.91Q166.96 6.06 166.96 6.19L166.96 6.19L166.96 12.83L165.86 12.83L165.86 3.52L166.51 3.52ZM185.76 8.18L185.76 8.18Q185.76 9.22 185.43 10.08Q185.10 10.94 184.49 11.55Q183.89 12.16 183.04 12.50Q182.20 12.83 181.17 12.83L181.17 12.83L177.69 12.83L177.69 3.52L181.17 3.52Q182.20 3.52 183.04 3.85Q183.89 4.19 184.49 4.80Q185.10 5.41 185.43 6.27Q185.76 7.13 185.76 8.18ZM184.47 8.18L184.47 8.18Q184.47 7.32 184.23 6.64Q184.00 5.97 183.57 5.50Q183.14 5.03 182.53 4.78Q181.92 4.54 181.17 4.54L181.17 4.54L178.95 4.54L178.95 11.81L181.17 11.81Q181.92 11.81 182.53 11.56Q183.14 11.32 183.57 10.85Q184.00 10.39 184.23 9.71Q184.47 9.04 184.47 8.18ZM195.96 3.52L192.54 9.13L192.54 12.83L191.29 12.83L191.29 9.13L187.88 3.52L188.98 3.52Q189.15 3.52 189.25 3.60Q189.35 3.69 189.42 3.81L189.42 3.81L191.55 7.43Q191.68 7.66 191.77 7.86Q191.86 8.06 191.93 8.26L191.93 8.26Q192.00 8.05 192.08 7.85Q192.17 7.65 192.30 7.43L192.30 7.43L194.42 3.81Q194.48 3.71 194.58 3.61Q194.68 3.52 194.85 3.52L194.85 3.52L195.96 3.52ZM203.72 9.46L203.72 9.46Q203.81 9.62 203.87 9.79Q203.94 9.96 204.01 10.14L204.01 10.14Q204.07 9.96 204.14 9.79Q204.22 9.63 204.31 9.46L204.31 9.46L207.46 3.73Q207.54 3.58 207.64 3.55Q207.73 3.52 207.90 3.52L207.90 3.52L208.82 3.52L208.82 12.83L207.72 12.83L207.72 5.99Q207.72 5.85 207.73 5.69Q207.73 5.54 207.75 5.38L207.75 5.38L204.55 11.20Q204.39 11.49 204.10 11.49L204.10 11.49L203.92 11.49Q203.62 11.49 203.46 11.20L203.46 11.20L200.20 5.36Q200.22 5.53 200.23 5.69Q200.24 5.85 200.24 5.99L200.24 5.99L200.24 12.83L199.13 12.83L199.13 3.52L200.06 3.52Q200.23 3.52 200.32 3.55Q200.41 3.58 200.50 3.73L200.50 3.73L203.72 9.46ZM217.03 3.52L220.76 12.83L219.78 12.83Q219.61 12.83 219.51 12.75Q219.40 12.66 219.35 12.53L219.35 12.53L218.48 10.28L214.30 10.28L213.43 12.53Q213.39 12.65 213.28 12.74Q213.16 12.83 213.00 12.83L213.00 12.83L212.03 12.83L215.75 3.52L217.03 3.52ZM216.12 5.59L214.65 9.37L218.13 9.37L216.67 5.58Q216.53 5.23 216.39 4.71L216.39 4.71Q216.32 4.97 216.25 5.20Q216.18 5.42 216.12 5.59L216.12 5.59ZM224.58 3.52L224.58 3.52Q224.75 3.52 224.83 3.56Q224.91 3.60 225.02 3.73L225.02 3.73L230.41 10.75Q230.39 10.58 230.39 10.42Q230.38 10.26 230.38 10.11L230.38 10.11L230.38 3.52L231.49 3.52L231.49 12.83L230.85 12.83Q230.70 12.83 230.60 12.78Q230.50 12.73 230.40 12.60L230.40 12.60L225.01 5.59Q225.03 5.75 225.03 5.91Q225.04 6.06 225.04 6.19L225.04 6.19L225.04 12.83L223.93 12.83L223.93 3.52L224.58 3.52ZM245.35 4.37L245.04 4.97Q244.98 5.07 244.92 5.12Q244.85 5.17 244.75 5.17L244.75 5.17Q244.64 5.17 244.49 5.06Q244.35 4.95 244.12 4.81Q243.90 4.68 243.58 4.57Q243.27 4.46 242.82 4.46L242.82 4.46Q242.40 4.46 242.07 4.57Q241.75 4.69 241.53 4.88Q241.31 5.08 241.20 5.34Q241.09 5.60 241.09 5.91L241.09 5.91Q241.09 6.30 241.28 6.56Q241.47 6.81 241.79 6.99Q242.10 7.18 242.50 7.31Q242.90 7.44 243.32 7.59Q243.74 7.73 244.14 7.91Q244.54 8.09 244.86 8.36Q245.17 8.63 245.36 9.03Q245.55 9.43 245.55 10.00L245.55 10.00Q245.55 10.61 245.35 11.15Q245.14 11.69 244.74 12.08Q244.34 12.48 243.76 12.71Q243.18 12.94 242.43 12.94L242.43 12.94Q241.53 12.94 240.79 12.61Q240.04 12.28 239.52 11.72L239.52 11.72L239.88 11.12Q239.93 11.05 240.01 11.00Q240.08 10.95 240.17 10.95L240.17 10.95Q240.31 10.95 240.48 11.10Q240.66 11.25 240.92 11.42Q241.19 11.60 241.56 11.74Q241.93 11.89 242.47 11.89L242.47 11.89Q242.92 11.89 243.27 11.77Q243.62 11.64 243.87 11.42Q244.11 11.19 244.24 10.88Q244.37 10.57 244.37 10.19L244.37 10.19Q244.37 9.76 244.18 9.49Q243.99 9.22 243.68 9.04Q243.36 8.86 242.96 8.73Q242.56 8.61 242.15 8.47Q241.73 8.34 241.33 8.16Q240.93 7.99 240.61 7.71Q240.30 7.43 240.11 7.01Q239.92 6.59 239.92 5.97L239.92 5.97Q239.92 5.48 240.11 5.02Q240.30 4.56 240.67 4.20Q241.03 3.84 241.57 3.63Q242.10 3.41 242.80 3.41L242.80 3.41Q243.58 3.41 244.22 3.66Q244.87 3.91 245.35 4.37L245.35 4.37ZM257.81 8.18L257.81 8.18Q257.81 9.22 257.48 10.10Q257.15 10.97 256.54 11.60Q255.94 12.23 255.09 12.58Q254.24 12.93 253.22 12.93L253.22 12.93Q252.19 12.93 251.34 12.58Q250.50 12.23 249.89 11.60Q249.29 10.97 248.96 10.10Q248.63 9.22 248.63 8.18L248.63 8.18Q248.63 7.13 248.96 6.26Q249.29 5.38 249.89 4.75Q250.50 4.11 251.34 3.76Q252.19 3.41 253.22 3.41L253.22 3.41Q254.24 3.41 255.09 3.76Q255.94 4.11 256.54 4.75Q257.15 5.38 257.48 6.26Q257.81 7.13 257.81 8.18ZM256.52 8.18L256.52 8.18Q256.52 7.32 256.28 6.64Q256.05 5.95 255.62 5.48Q255.19 5.01 254.58 4.76Q253.97 4.50 253.22 4.50L253.22 4.50Q252.47 4.50 251.86 4.76Q251.25 5.01 250.81 5.48Q250.38 5.95 250.15 6.64Q249.91 7.32 249.91 8.18L249.91 8.18Q249.91 9.04 250.15 9.71Q250.38 10.39 250.81 10.86Q251.25 11.34 251.86 11.59Q252.47 11.84 253.22 11.84L253.22 11.84Q253.97 11.84 254.58 11.59Q255.19 11.34 255.62 10.86Q256.05 10.39 256.28 9.71Q256.52 9.04 256.52 8.18ZM262.80 3.52L262.80 11.77L266.83 11.77L266.83 12.83L261.53 12.83L261.53 3.52L262.80 3.52ZM273.84 11.83L273.84 11.83Q274.42 11.83 274.87 11.64Q275.33 11.44 275.64 11.09Q275.96 10.74 276.12 10.25Q276.29 9.76 276.29 9.18L276.29 9.18L276.29 3.52L277.54 3.52L277.54 9.18Q277.54 9.98 277.28 10.67Q277.03 11.36 276.55 11.87Q276.07 12.37 275.38 12.66Q274.69 12.94 273.84 12.94L273.84 12.94Q272.98 12.94 272.29 12.66Q271.60 12.37 271.12 11.87Q270.64 11.36 270.38 10.67Q270.13 9.98 270.13 9.18L270.13 9.18L270.13 3.52L271.38 3.52L271.38 9.17Q271.38 9.76 271.55 10.24Q271.71 10.73 272.03 11.08Q272.34 11.43 272.80 11.63Q273.26 11.83 273.84 11.83ZM280.76 3.52L288.05 3.52L288.05 4.58L285.04 4.58L285.04 12.83L283.78 12.83L283.78 4.58L280.76 4.58L280.76 3.52ZM292.87 3.52L292.87 12.83L291.61 12.83L291.61 3.52L292.87 3.52ZM306.02 8.18L306.02 8.18Q306.02 9.22 305.69 10.10Q305.36 10.97 304.75 11.60Q304.15 12.23 303.30 12.58Q302.45 12.93 301.42 12.93L301.42 12.93Q300.40 12.93 299.55 12.58Q298.71 12.23 298.10 11.60Q297.50 10.97 297.17 10.10Q296.83 9.22 296.83 8.18L296.83 8.18Q296.83 7.13 297.17 6.26Q297.50 5.38 298.10 4.75Q298.71 4.11 299.55 3.76Q300.40 3.41 301.42 3.41L301.42 3.41Q302.45 3.41 303.30 3.76Q304.15 4.11 304.75 4.75Q305.36 5.38 305.69 6.26Q306.02 7.13 306.02 8.18ZM304.73 8.18L304.73 8.18Q304.73 7.32 304.49 6.64Q304.26 5.95 303.83 5.48Q303.40 5.01 302.79 4.76Q302.18 4.50 301.42 4.50L301.42 4.50Q300.68 4.50 300.06 4.76Q299.45 5.01 299.02 5.48Q298.59 5.95 298.36 6.64Q298.12 7.32 298.12 8.18L298.12 8.18Q298.12 9.04 298.36 9.71Q298.59 10.39 299.02 10.86Q299.45 11.34 300.06 11.59Q300.68 11.84 301.42 11.84L301.42 11.84Q302.18 11.84 302.79 11.59Q303.40 11.34 303.83 10.86Q304.26 10.39 304.49 9.71Q304.73 9.04 304.73 8.18ZM310.39 3.52L310.39 3.52Q310.56 3.52 310.64 3.56Q310.72 3.60 310.83 3.73L310.83 3.73L316.22 10.75Q316.20 10.58 316.20 10.42Q316.19 10.26 316.19 10.11L316.19 10.11L316.19 3.52L317.29 3.52L317.29 12.83L316.66 12.83Q316.51 12.83 316.41 12.78Q316.31 12.73 316.21 12.60L316.21 12.60L310.82 5.59Q310.83 5.75 310.84 5.91Q310.85 6.06 310.85 6.19L310.85 6.19L310.85 12.83L309.74 12.83L309.74 3.52L310.39 3.52Z" transform="translate(0, 0)"></path></g></svg></g><g transform="rotate(0 0 0)"><svg viewBoxSize="575" data-root-id="6591809894361" xmlns="http://www.w3.org/2000/svg" y="317.23500061035156" viewBox="0.21000000834465027 8.979999542236328 296.96002197265625 24.279998779296875" x="139.0200048828125" height="24.279998779296875" width="296.96002197265625" fontUrl="https://fonts.gstatic.com/s/encodesans/v19/LDIcapOFNxEwR-Bd1O9uYNmnUQomAgE25imKSbHhROjLsZBWTSrQGIbkZtWP7FJCt2c.ttf" zoom="1" editorType="buyer" data-layer-role="brandName" style="position: absolute; top: 317.235px; width: 296.96px; height: 24.28px; left: 139.02px;"><g data-horizontal-grow="center" zoom="1" root="[object Object]" style="fill: rgb(0, 0, 0);"><path d="M12.90 32.96L7.68 32.96L7.68 13.60L0.21 13.60L0.21 9.28L20.35 9.28L20.35 13.60L12.90 13.60L12.90 32.96ZM31.74 33.26L31.74 33.26Q28.37 33.26 25.86 31.95Q23.36 30.64 21.98 27.94Q20.59 25.25 20.59 21.12L20.59 21.12Q20.59 16.99 21.98 14.30Q23.36 11.60 25.86 10.29Q28.37 8.98 31.74 8.98L31.74 8.98Q35.12 8.98 37.62 10.30Q40.13 11.62 41.51 14.31Q42.90 17.01 42.90 21.12L42.90 21.12Q42.90 25.23 41.51 27.93Q40.13 30.62 37.62 31.94Q35.10 33.26 31.74 33.26ZM31.74 29.07L31.74 29.07Q33.57 29.07 34.87 28.28Q36.18 27.49 36.87 25.76Q37.57 24.03 37.57 21.23L37.57 21.23Q37.57 18.32 36.86 16.55Q36.16 14.78 34.86 13.98Q33.55 13.17 31.74 13.17L31.74 13.17Q29.94 13.17 28.63 13.95Q27.33 14.74 26.62 16.46Q25.92 18.19 25.92 21.01L25.92 21.01Q25.92 23.94 26.62 25.70Q27.31 27.47 28.62 28.27Q29.92 29.07 31.74 29.07ZM55.82 32.96L50.61 32.96L50.61 13.60L43.14 13.60L43.14 9.28L63.28 9.28L63.28 13.60L55.82 13.60L55.82 32.96ZM66 32.96L60.94 32.96L68.59 9.28L76.16 9.28L83.81 32.96L78.69 32.96L72.06 11.55L72.61 11.55L66 32.96ZM78.46 26.64L66.26 26.64L67.38 22.50L77.36 22.50L78.46 26.64ZM102.24 32.96L86.16 32.96L86.16 9.28L91.36 9.28L91.36 28.64L102.24 28.64L102.24 32.96ZM110.45 33.26L110.45 33.26Q108.74 33.26 107.02 33Q105.30 32.74 103.84 32.26L103.84 32.26L103.84 28.03Q104.85 28.37 105.98 28.60Q107.12 28.83 108.26 28.96Q109.41 29.09 110.43 29.09L110.43 29.09Q112.82 29.09 113.81 28.36Q114.80 27.63 114.80 26.32L114.80 26.32Q114.80 25.22 114.07 24.59Q113.34 23.97 111.36 23.46L111.36 23.46L109.57 22.99Q106.46 22.21 104.87 20.55Q103.28 18.90 103.28 16.18L103.28 16.18Q103.28 12.78 105.74 10.88Q108.19 8.98 113.14 8.98L113.14 8.98Q114.74 8.98 116.18 9.16Q117.63 9.34 118.75 9.66L118.75 9.66L118.75 13.89Q117.62 13.54 116.22 13.34Q114.83 13.15 113.42 13.15L113.42 13.15Q111.57 13.15 110.48 13.50Q109.39 13.84 108.92 14.46Q108.45 15.09 108.45 15.90L108.45 15.90Q108.45 16.94 109.09 17.54Q109.73 18.13 111.49 18.61L111.49 18.61L113.26 19.07Q115.57 19.63 117.06 20.55Q118.54 21.47 119.26 22.81Q119.97 24.14 119.97 25.97L119.97 25.97Q119.97 28.24 118.84 29.88Q117.71 31.52 115.58 32.39Q113.46 33.26 110.45 33.26ZM128.18 32.96L122.98 32.96L122.98 9.71Q124.64 9.38 126.41 9.18Q128.18 8.99 130.14 8.99L130.14 8.99Q135.42 8.99 138.09 11.05Q140.75 13.10 140.75 17.55L140.75 17.55Q140.75 21.74 138.17 23.92Q135.58 26.10 130.46 26.10L130.46 26.10Q129.86 26.10 129.31 26.07Q128.77 26.05 128.18 26L128.18 26L128.18 32.96ZM130.53 22.19L130.53 22.19Q133.20 22.19 134.45 21.11Q135.70 20.03 135.70 17.58L135.70 17.58Q135.70 15.12 134.46 14.01Q133.22 12.90 130.62 12.90L130.62 12.90Q129.90 12.90 129.33 12.94Q128.75 12.98 128.18 13.09L128.18 13.09L128.18 22.05Q128.77 22.11 129.31 22.15Q129.86 22.19 130.53 22.19ZM160.83 32.96L144.05 32.96L144.05 9.28L160.67 9.28L160.67 13.44L149.18 13.44L149.18 28.80L160.83 28.80L160.83 32.96ZM159.04 22.93L147.14 22.93L147.14 18.77L159.04 18.77L159.04 22.93ZM175.20 33.26L175.20 33.26Q172.26 33.26 169.97 32.57Q167.68 31.87 166.09 30.41Q164.50 28.94 163.68 26.66Q162.86 24.37 162.86 21.17L162.86 21.17Q162.86 17.10 164.34 14.39Q165.81 11.68 168.62 10.33Q171.44 8.98 175.46 8.98L175.46 8.98Q176.82 8.98 178.08 9.11Q179.34 9.25 180.54 9.54L180.54 9.54L180.54 13.82Q179.42 13.55 178.26 13.41Q177.10 13.26 175.87 13.26L175.87 13.26Q173.31 13.26 171.64 14.06Q169.97 14.85 169.14 16.58Q168.30 18.30 168.30 21.10L168.30 21.10Q168.30 24 169.13 25.72Q169.95 27.44 171.59 28.21Q173.23 28.98 175.70 28.98L175.70 28.98Q176.91 28.98 178.11 28.78Q179.31 28.58 180.54 28.22L180.54 28.22L180.54 32.50Q179.41 32.85 178.02 33.06Q176.64 33.26 175.20 33.26ZM188.64 32.96L183.44 32.96L183.44 9.28L188.64 9.28L188.64 32.96ZM196.05 32.96L190.99 32.96L198.64 9.28L206.21 9.28L213.86 32.96L208.74 32.96L202.11 11.55L202.66 11.55L196.05 32.96ZM208.51 26.64L196.30 26.64L197.42 22.50L207.41 22.50L208.51 26.64ZM232.29 32.96L216.21 32.96L216.21 9.28L221.41 9.28L221.41 28.64L232.29 28.64L232.29 32.96ZM239.78 32.96L234.58 32.96L234.58 9.28L239.78 9.28L239.78 32.96ZM249.95 33.26L249.95 33.26Q248.24 33.26 246.52 33Q244.80 32.74 243.34 32.26L243.34 32.26L243.34 28.03Q244.35 28.37 245.49 28.60Q246.62 28.83 247.77 28.96Q248.91 29.09 249.94 29.09L249.94 29.09Q252.32 29.09 253.31 28.36Q254.30 27.63 254.30 26.32L254.30 26.32Q254.30 25.22 253.58 24.59Q252.85 23.97 250.86 23.46L250.86 23.46L249.07 22.99Q245.97 22.21 244.38 20.55Q242.78 18.90 242.78 16.18L242.78 16.18Q242.78 12.78 245.24 10.88Q247.70 8.98 252.64 8.98L252.64 8.98Q254.24 8.98 255.69 9.16Q257.14 9.34 258.26 9.66L258.26 9.66L258.26 13.89Q257.12 13.54 255.73 13.34Q254.34 13.15 252.93 13.15L252.93 13.15Q251.07 13.15 249.98 13.50Q248.90 13.84 248.42 14.46Q247.95 15.09 247.95 15.90L247.95 15.90Q247.95 16.94 248.59 17.54Q249.23 18.13 250.99 18.61L250.99 18.61L252.77 19.07Q255.07 19.63 256.56 20.55Q258.05 21.47 258.76 22.81Q259.47 24.14 259.47 25.97L259.47 25.97Q259.47 28.24 258.34 29.88Q257.22 31.52 255.09 32.39Q252.96 33.26 249.95 33.26ZM272.19 32.96L266.98 32.96L266.98 13.60L259.50 13.60L259.50 9.28L279.65 9.28L279.65 13.60L272.19 13.60L272.19 32.96ZM287.65 33.26L287.65 33.26Q285.94 33.26 284.22 33Q282.50 32.74 281.04 32.26L281.04 32.26L281.04 28.03Q282.05 28.37 283.18 28.60Q284.32 28.83 285.46 28.96Q286.61 29.09 287.63 29.09L287.63 29.09Q290.02 29.09 291.01 28.36Q292 27.63 292 26.32L292 26.32Q292 25.22 291.27 24.59Q290.54 23.97 288.56 23.46L288.56 23.46L286.77 22.99Q283.66 22.21 282.07 20.55Q280.48 18.90 280.48 16.18L280.48 16.18Q280.48 12.78 282.94 10.88Q285.39 8.98 290.34 8.98L290.34 8.98Q291.94 8.98 293.38 9.16Q294.83 9.34 295.95 9.66L295.95 9.66L295.95 13.89Q294.82 13.54 293.42 13.34Q292.03 13.15 290.62 13.15L290.62 13.15Q288.77 13.15 287.68 13.50Q286.59 13.84 286.12 14.46Q285.65 15.09 285.65 15.90L285.65 15.90Q285.65 16.94 286.29 17.54Q286.93 18.13 288.69 18.61L288.69 18.61L290.46 19.07Q292.77 19.63 294.26 20.55Q295.74 21.47 296.46 22.81Q297.17 24.14 297.17 25.97L297.17 25.97Q297.17 28.24 296.04 29.88Q294.91 31.52 292.78 32.39Q290.66 33.26 287.65 33.26Z" transform="translate(0, 0)"></path></g></svg></g></svg>