<svg viewBox="0 0 648.5829467773438 648.5829467773438" class="roots-wrapper"><g transform="rotate(180 129.99999618530273 324.29149627685547)"><svg viewBoxSize="648.5829467773438" data-root-id="5583998402277" xmlns="http://www.w3.org/2000/svg" viewBox="0.15612800419330597 0 206.8438720703125 204.875" fill="none" height="208.00110396951345" width="210" y="220.29094429209874" x="24.999996185302734" preserveAspectRatio="xMinYMin" zoom="0.88" editorType="buyer" data-layer-role="icon" style="position: absolute; height: 208.001px; width: 210px; top: 220.291px; left: 25px; transform: rotate(180deg);"><path fill-rule="evenodd" clip-rule="evenodd" d="M0.156128 0H108.408V36.4792L207 36.5785V204.875L104.408 166.815V135.16H108.408V164.032L203 199.125V40.5744L108.408 40.4792V64.6033H104.408V40.4751L40.7498 40.411L0.156128 0ZM104.408 36.4751V4H9.84386L42.4031 36.4127L104.408 36.4751Z" fill="url(#paint0_linear_24837_1868)" name="Layer %{number}" zoom="0.88" data-layer-id="3553628702277" style="fill: url(&quot;#paint0_linear_24837_1868&quot;);"></path><linearGradient id="paint0_linear_24837_1868" x1="5" y1="-107.043" x2="205" y2="223.277" gradientUnits="userSpaceOnUse" name="Layer %{number}" zoom="0.88" data-layer-id="6225123502277"><stop stop-color="#E7D7BC"></stop><stop offset="1" stop-color="#9B7E62"></stop></linearGradient></svg></g><g transform="rotate(0 0 0)"><svg viewBoxSize="648.5829467773438" data-root-id="1886245202277" xmlns="http://www.w3.org/2000/svg" y="364.79113006591797" viewBox="8.399999618530273 -0.05000000447034836 430.83001708984375 13.190000534057617" x="144.71804794311524" height="13.190000534057617" width="430.83001708984375" fontUrl="https://fonts.gstatic.com/s/josefinsans/v32/Qw3PZQNVED7rKGKxtqIqX5E-AVSJrOCfjY46_DjQXMFrLgTsQV0.ttf" zoom="0.88" editorType="buyer" data-layer-role="slogan" style="position: absolute; top: 364.791px; width: 430.83px; height: 13.19px; left: 144.718px;"><g data-horizontal-grow="left" zoom="0.88" root="[object Object]" style="fill: rgb(0, 0, 0); fill-opacity: 0.7;"><path d="M12.95 12.75L12.95 8.65L8.40 0.46L10.42 0.46L14.08 7.24L13.57 7.28L17.19 0.46L19.19 0.46L14.60 8.65L14.60 12.75L12.95 12.75ZM22.24 6.61L22.24 6.61Q22.24 5.34 22.72 4.21Q23.21 3.08 24.07 2.20Q24.94 1.33 26.07 0.82Q27.20 0.32 28.51 0.32L28.51 0.32Q29.80 0.32 30.93 0.82Q32.06 1.33 32.94 2.20Q33.81 3.08 34.31 4.21Q34.80 5.34 34.80 6.61L34.80 6.61Q34.80 7.92 34.31 9.06Q33.81 10.20 32.95 11.06Q32.08 11.92 30.94 12.40Q29.80 12.89 28.51 12.89L28.51 12.89Q27.20 12.89 26.07 12.41Q24.94 11.93 24.07 11.08Q23.21 10.23 22.72 9.10Q22.24 7.96 22.24 6.61ZM23.94 6.63L23.94 6.63Q23.94 7.60 24.29 8.44Q24.65 9.28 25.28 9.93Q25.91 10.57 26.74 10.94Q27.57 11.31 28.54 11.31L28.54 11.31Q29.50 11.31 30.33 10.94Q31.16 10.57 31.77 9.93Q32.39 9.28 32.74 8.44Q33.10 7.60 33.10 6.61L33.10 6.61Q33.10 5.64 32.74 4.79Q32.39 3.93 31.76 3.28Q31.13 2.64 30.29 2.27Q29.46 1.90 28.51 1.90L28.51 1.90Q27.54 1.90 26.71 2.28Q25.87 2.65 25.25 3.30Q24.62 3.94 24.28 4.80Q23.94 5.66 23.94 6.63ZM41.60 0.46L41.60 8.40Q41.60 9.23 42.00 9.89Q42.40 10.54 43.06 10.91Q43.72 11.29 44.56 11.29L44.56 11.29Q45.42 11.29 46.10 10.91Q46.78 10.54 47.18 9.89Q47.57 9.23 47.57 8.40L47.57 8.40L47.57 0.46L49.18 0.46L49.18 8.45Q49.18 9.79 48.56 10.80Q47.94 11.80 46.89 12.34Q45.85 12.89 44.56 12.89L44.56 12.89L44.56 12.89Q43.27 12.89 42.23 12.34Q41.19 11.80 40.58 10.80Q39.97 9.79 39.97 8.45L39.97 8.45L39.97 0.46L41.60 0.46ZM55.10 0.46L58.36 0.46Q59.30 0.46 60.09 0.71Q60.88 0.95 61.46 1.44Q62.05 1.92 62.38 2.63Q62.71 3.33 62.71 4.27L62.71 4.27Q62.71 5.00 62.50 5.70Q62.29 6.39 61.80 6.96Q61.30 7.53 60.51 7.88Q59.72 8.23 58.56 8.23L58.56 8.23L56.75 8.23L56.75 12.75L55.10 12.75L55.10 0.46ZM56.75 6.65L58.53 6.65Q59.26 6.65 59.75 6.43Q60.23 6.21 60.50 5.86Q60.77 5.51 60.89 5.10Q61.01 4.69 61.01 4.34L61.01 4.34Q61.01 3.96 60.89 3.56Q60.76 3.16 60.48 2.82Q60.20 2.48 59.75 2.26Q59.30 2.04 58.65 2.04L58.65 2.04L56.75 2.04L56.75 6.65ZM58.60 7.63L60.55 7.58L63.77 12.75L61.86 12.75L58.60 7.63ZM85.10 10.37L85.80 11.83Q85.49 12.04 84.97 12.29Q84.44 12.55 83.73 12.72Q83.03 12.89 82.19 12.89L82.19 12.89Q80.77 12.87 79.62 12.38Q78.47 11.88 77.67 11.03Q76.87 10.18 76.44 9.07Q76.01 7.96 76.01 6.70L76.01 6.70Q76.01 5.32 76.46 4.16Q76.91 2.99 77.72 2.13Q78.54 1.28 79.65 0.80Q80.77 0.32 82.09 0.32L82.09 0.32Q83.20 0.32 84.10 0.62Q85.00 0.92 85.65 1.33L85.65 1.33L84.98 2.86Q84.47 2.52 83.75 2.21Q83.03 1.90 82.14 1.90L82.14 1.90Q81.24 1.90 80.44 2.26Q79.64 2.62 79.03 3.26Q78.42 3.91 78.07 4.77Q77.72 5.63 77.72 6.61L77.72 6.61Q77.72 7.62 78.04 8.47Q78.35 9.33 78.94 9.96Q79.53 10.59 80.36 10.95Q81.19 11.31 82.23 11.31L82.23 11.31Q83.16 11.31 83.89 11.02Q84.63 10.73 85.10 10.37L85.10 10.37ZM90.35 6.61L90.35 6.61Q90.35 5.34 90.84 4.21Q91.32 3.08 92.19 2.20Q93.06 1.33 94.19 0.82Q95.32 0.32 96.63 0.32L96.63 0.32Q97.92 0.32 99.05 0.82Q100.18 1.33 101.06 2.20Q101.93 3.08 102.42 4.21Q102.92 5.34 102.92 6.61L102.92 6.61Q102.92 7.92 102.42 9.06Q101.93 10.20 101.06 11.06Q100.20 11.92 99.06 12.40Q97.92 12.89 96.63 12.89L96.63 12.89Q95.32 12.89 94.19 12.41Q93.06 11.93 92.19 11.08Q91.32 10.23 90.84 9.10Q90.35 7.96 90.35 6.61ZM92.05 6.63L92.05 6.63Q92.05 7.60 92.41 8.44Q92.77 9.28 93.40 9.93Q94.03 10.57 94.86 10.94Q95.69 11.31 96.66 11.31L96.66 11.31Q97.61 11.31 98.45 10.94Q99.28 10.57 99.89 9.93Q100.50 9.28 100.86 8.44Q101.22 7.60 101.22 6.61L101.22 6.61Q101.22 5.64 100.86 4.79Q100.50 3.93 99.87 3.28Q99.25 2.64 98.41 2.27Q97.58 1.90 96.63 1.90L96.63 1.90Q95.66 1.90 94.83 2.28Q93.99 2.65 93.36 3.30Q92.73 3.94 92.39 4.80Q92.05 5.66 92.05 6.63ZM109.84 12.75L108.24 12.75L108.24 0.07L108.26 0.07L114.70 9.21L114.00 9.08L120.43 0.07L120.46 0.07L120.46 12.75L118.83 12.75L118.83 3.81L118.93 4.64L114.29 11.20L114.26 11.20L109.55 4.64L109.84 3.88L109.84 12.75ZM126.55 0.46L129.83 0.46Q131.17 0.46 132.12 0.91Q133.08 1.36 133.59 2.21Q134.11 3.06 134.11 4.27L134.11 4.27Q134.11 5.00 133.89 5.70Q133.67 6.41 133.19 6.98Q132.70 7.55 131.92 7.89Q131.14 8.23 130.02 8.23L130.02 8.23L128.20 8.23L128.20 12.75L126.55 12.75L126.55 0.46ZM128.20 6.65L130.00 6.65Q130.73 6.65 131.21 6.41Q131.68 6.17 131.95 5.81Q132.23 5.44 132.34 5.03Q132.46 4.62 132.46 4.30L132.46 4.30Q132.46 3.93 132.34 3.53Q132.23 3.13 131.95 2.80Q131.66 2.47 131.21 2.25Q130.76 2.04 130.10 2.04L130.10 2.04L128.20 2.04L128.20 6.65ZM139.21 12.75L139.21 0.46L140.86 0.46L140.86 11.17L147.10 11.17L147.10 12.75L139.21 12.75ZM152.34 12.75L152.34 0.46L160.33 0.46L160.33 2.04L153.99 2.04L153.99 5.78L159.65 5.78L159.65 7.36L153.99 7.36L153.99 11.17L160.57 11.17L160.57 12.75L152.34 12.75ZM165.07 2.04L165.07 0.46L173.23 0.46L173.23 2.04L169.93 2.04L169.93 12.75L168.28 12.75L168.28 2.04L165.07 2.04ZM178.40 12.75L178.40 0.46L186.39 0.46L186.39 2.04L180.05 2.04L180.05 5.78L185.71 5.78L185.71 7.36L180.05 7.36L180.05 11.17L186.63 11.17L186.63 12.75L178.40 12.75ZM208.05 0.46L209.68 0.46L209.68 12.75L208.05 12.75L208.05 7.36L201.60 7.36L201.60 12.75L199.95 12.75L199.95 0.46L201.60 0.46L201.60 5.80L208.05 5.80L208.05 0.46ZM216.16 12.75L214.54 12.75L219.91-0.05L220.01-0.05L225.37 12.75L223.48 12.75L219.47 2.53L220.64 1.77L216.16 12.75ZM217.21 9.52L217.69 8.09L222.26 8.09L222.80 9.52L217.21 9.52ZM240.92 13.14L240.87 13.14L231.37 3.50L231.85 3.62L231.88 12.75L230.23 12.75L230.23 0.09L230.32 0.09L239.72 9.76L239.33 9.67L239.29 0.46L240.92 0.46L240.92 13.14ZM250.95 12.75L247.01 12.75L247.01 0.46L250.36 0.46Q252.18 0.46 253.46 1.02Q254.75 1.58 255.53 2.50Q256.31 3.42 256.67 4.53Q257.04 5.64 257.04 6.75L257.04 6.75Q257.04 8.14 256.56 9.25Q256.07 10.35 255.22 11.14Q254.37 11.92 253.27 12.33Q252.18 12.75 250.95 12.75L250.95 12.75ZM248.66 2.04L248.66 11.17L250.63 11.17Q251.65 11.17 252.51 10.86Q253.37 10.56 254.01 9.98Q254.64 9.40 255.00 8.56Q255.36 7.72 255.36 6.65L255.36 6.65Q255.36 5.51 254.98 4.65Q254.61 3.79 253.96 3.21Q253.32 2.64 252.50 2.34Q251.69 2.04 250.78 2.04L250.78 2.04L248.66 2.04ZM265.08 12.75L265.08 8.65L260.53 0.46L262.55 0.46L266.20 7.24L265.69 7.28L269.31 0.46L271.32 0.46L266.73 8.65L266.73 12.75L265.08 12.75ZM277.71 12.75L276.11 12.75L276.11 0.07L276.13 0.07L282.57 9.21L281.88 9.08L288.30 0.07L288.34 0.07L288.34 12.75L286.71 12.75L286.71 3.81L286.81 4.64L282.17 11.20L282.13 11.20L277.42 4.64L277.71 3.88L277.71 12.75ZM294.81 12.75L293.20 12.75L298.57-0.05L298.67-0.05L304.03 12.75L302.14 12.75L298.13 2.53L299.30 1.77L294.81 12.75ZM295.87 9.52L296.34 8.09L300.92 8.09L301.46 9.52L295.87 9.52ZM319.58 13.14L319.53 13.14L310.03 3.50L310.51 3.62L310.54 12.75L308.89 12.75L308.89 0.09L308.98 0.09L318.38 9.76L317.99 9.67L317.95 0.46L319.58 0.46L319.58 13.14ZM340.58 1.38L339.95 2.65Q339.32 2.33 338.57 2.09Q337.82 1.85 337.11 1.85L337.11 1.85Q336.12 1.85 335.54 2.31Q334.95 2.77 334.95 3.54L334.95 3.54Q334.95 4.11 335.33 4.51Q335.70 4.91 336.31 5.20Q336.92 5.49 337.59 5.75L337.59 5.75Q338.16 5.97 338.73 6.24Q339.29 6.51 339.74 6.92Q340.19 7.33 340.45 7.92Q340.71 8.52 340.71 9.40L340.71 9.40Q340.71 10.37 340.23 11.17Q339.75 11.97 338.84 12.43Q337.94 12.89 336.70 12.89L336.70 12.89Q335.89 12.89 335.15 12.70Q334.41 12.51 333.78 12.21Q333.15 11.92 332.66 11.59L332.66 11.59L333.39 10.30Q333.80 10.59 334.32 10.85Q334.85 11.12 335.43 11.28Q336.01 11.44 336.55 11.44L336.55 11.44Q337.13 11.44 337.70 11.23Q338.27 11.02 338.64 10.57Q339.01 10.13 339.01 9.40L339.01 9.40Q339.01 8.77 338.68 8.36Q338.35 7.94 337.81 7.64Q337.26 7.34 336.65 7.11L336.65 7.11Q336.07 6.89 335.48 6.62Q334.88 6.36 334.37 5.98Q333.86 5.59 333.56 5.03Q333.25 4.47 333.25 3.67L333.25 3.67Q333.25 2.70 333.72 1.98Q334.19 1.26 335.00 0.84Q335.82 0.43 336.87 0.39L336.87 0.39Q338.06 0.39 338.97 0.68Q339.88 0.97 340.58 1.38L340.58 1.38ZM345.27 6.61L345.27 6.61Q345.27 5.34 345.75 4.21Q346.24 3.08 347.11 2.20Q347.97 1.33 349.10 0.82Q350.23 0.32 351.54 0.32L351.54 0.32Q352.84 0.32 353.97 0.82Q355.10 1.33 355.97 2.20Q356.85 3.08 357.34 4.21Q357.83 5.34 357.83 6.61L357.83 6.61Q357.83 7.92 357.34 9.06Q356.85 10.20 355.98 11.06Q355.11 11.92 353.97 12.40Q352.84 12.89 351.54 12.89L351.54 12.89Q350.23 12.89 349.10 12.41Q347.97 11.93 347.11 11.08Q346.24 10.23 345.75 9.10Q345.27 7.96 345.27 6.61ZM346.97 6.63L346.97 6.63Q346.97 7.60 347.33 8.44Q347.68 9.28 348.31 9.93Q348.94 10.57 349.78 10.94Q350.61 11.31 351.58 11.31L351.58 11.31Q352.53 11.31 353.36 10.94Q354.20 10.57 354.81 9.93Q355.42 9.28 355.78 8.44Q356.13 7.60 356.13 6.61L356.13 6.61Q356.13 5.64 355.78 4.79Q355.42 3.93 354.79 3.28Q354.16 2.64 353.33 2.27Q352.50 1.90 351.54 1.90L351.54 1.90Q350.57 1.90 349.74 2.28Q348.91 2.65 348.28 3.30Q347.65 3.94 347.31 4.80Q346.97 5.66 346.97 6.63ZM363.15 12.75L363.15 0.46L364.80 0.46L364.80 11.17L371.04 11.17L371.04 12.75L363.15 12.75ZM377.76 0.46L377.76 8.40Q377.76 9.23 378.16 9.89Q378.56 10.54 379.22 10.91Q379.88 11.29 380.72 11.29L380.72 11.29Q381.58 11.29 382.26 10.91Q382.94 10.54 383.33 9.89Q383.72 9.23 383.72 8.40L383.72 8.40L383.72 0.46L385.34 0.46L385.34 8.45Q385.34 9.79 384.72 10.80Q384.10 11.80 383.05 12.34Q382.01 12.89 380.72 12.89L380.72 12.89L380.72 12.89Q379.42 12.89 378.39 12.34Q377.35 11.80 376.74 10.80Q376.13 9.79 376.13 8.45L376.13 8.45L376.13 0.46L377.76 0.46ZM390.35 2.04L390.35 0.46L398.51 0.46L398.51 2.04L395.22 2.04L395.22 12.75L393.57 12.75L393.57 2.04L390.35 2.04ZM403.68 12.75L403.68 0.46L405.33 0.46L405.33 12.75L403.68 12.75ZM410.65 6.61L410.65 6.61Q410.65 5.34 411.14 4.21Q411.62 3.08 412.49 2.20Q413.36 1.33 414.49 0.82Q415.62 0.32 416.93 0.32L416.93 0.32Q418.22 0.32 419.35 0.82Q420.48 1.33 421.35 2.20Q422.23 3.08 422.72 4.21Q423.22 5.34 423.22 6.61L423.22 6.61Q423.22 7.92 422.72 9.06Q422.23 10.20 421.36 11.06Q420.50 11.92 419.36 12.40Q418.22 12.89 416.93 12.89L416.93 12.89Q415.62 12.89 414.49 12.41Q413.36 11.93 412.49 11.08Q411.62 10.23 411.14 9.10Q410.65 7.96 410.65 6.61ZM412.35 6.63L412.35 6.63Q412.35 7.60 412.71 8.44Q413.07 9.28 413.70 9.93Q414.32 10.57 415.16 10.94Q415.99 11.31 416.96 11.31L416.96 11.31Q417.91 11.31 418.74 10.94Q419.58 10.57 420.19 9.93Q420.80 9.28 421.16 8.44Q421.52 7.60 421.52 6.61L421.52 6.61Q421.52 5.64 421.16 4.79Q420.80 3.93 420.17 3.28Q419.54 2.64 418.71 2.27Q417.88 1.90 416.93 1.90L416.93 1.90Q415.96 1.90 415.12 2.28Q414.29 2.65 413.66 3.30Q413.03 3.94 412.69 4.80Q412.35 5.66 412.35 6.63ZM439.23 13.14L439.18 13.14L429.68 3.50L430.15 3.62L430.19 12.75L428.54 12.75L428.54 0.09L428.62 0.09L438.02 9.76L437.63 9.67L437.60 0.46L439.23 0.46L439.23 13.14Z" transform="translate(0, 0)"></path></g></svg></g><g transform="rotate(0 0 0)"><svg viewBoxSize="648.5829467773438" data-root-id="0568741502277" xmlns="http://www.w3.org/2000/svg" y="305.94613006591794" viewBox="0.3800000250339508 14.010000228881836 555.719970703125 33.839996337890625" x="67.86300277709961" height="33.839996337890625" width="555.719970703125" fontUrl="https://fonts.gstatic.com/s/fahkwang/v16/Noa26Uj3zpmBOgbNpOJ7m5lRFipxkwjx.ttf" zoom="0.88" editorType="buyer" data-layer-role="brandName" style="position: absolute; top: 305.946px; width: 555.72px; height: 33.84px; left: 67.863px;"><g data-horizontal-grow="left" zoom="0.88" root="[object Object]" style="fill: rgb(0, 0, 0);"><path d="M14.19 47.38L14.19 16.97L0.38 16.97L0.38 14.48L33.89 14.48L33.89 16.97L20.12 16.97L20.12 47.38L14.19 47.38ZM57.39 47.85Q51.75 47.85 47.66 45.82Q43.57 43.80 41.41 39.97Q39.25 36.14 39.25 30.78L39.25 30.78Q39.25 25.52 41.41 21.74Q43.57 17.95 47.66 15.98Q51.75 14.01 57.39 14.01L57.39 14.01Q63.03 14.01 67.12 15.98Q71.21 17.95 73.37 21.74Q75.53 25.52 75.53 30.78L75.53 30.78Q75.53 36.14 73.37 39.97Q71.21 43.80 67.12 45.82Q63.03 47.85 57.39 47.85L57.39 47.85ZM57.39 45.35Q63.26 45.35 66.41 41.57Q69.56 37.79 69.56 30.78L69.56 30.78Q69.56 23.88 66.41 20.19Q63.26 16.50 57.39 16.50L57.39 16.50Q51.51 16.50 48.36 20.19Q45.21 23.88 45.21 30.78L45.21 30.78Q45.21 37.79 48.36 41.57Q51.51 45.35 57.39 45.35L57.39 45.35ZM94.66 47.38L94.66 16.97L80.84 16.97L80.84 14.48L114.35 14.48L114.35 16.97L100.58 16.97L100.58 47.38L94.66 47.38ZM143.30 47.38L139.35 38.92L121.12 38.92L116.94 47.38L112.89 47.38L130.00 14.01L133.43 14.01L149.55 47.38L143.30 47.38ZM122.39 36.42L138.18 36.42L130.52 19.97L122.39 36.42ZM155.81 47.38L155.81 14.48L161.73 14.48L161.73 44.88L182.27 44.88L182.27 47.38L155.81 47.38ZM204.22 47.85Q196.93 47.85 192.70 45.03Q188.47 42.21 188.09 37.04L188.09 37.04L193.03 37.04Q193.36 41.36 196.08 43.36Q198.81 45.35 204.12 45.35L204.12 45.35Q208.73 45.35 211.10 43.76Q213.47 42.16 213.47 39.10L213.47 39.10Q213.47 37.32 212.58 36.10Q211.69 34.87 209.43 33.91Q207.18 32.95 202.99 32.10L202.99 32.10Q196.41 30.78 192.68 28.67Q188.94 26.55 188.94 22.56L188.94 22.56Q188.94 18.14 193.05 16.07Q197.16 14.01 203.70 14.01L203.70 14.01Q210.56 14.01 214.30 16.38Q218.03 18.75 218.55 22.94L218.55 22.94L213.66 22.94Q212.96 19.50 210.42 18.00Q207.88 16.50 203.37 16.50L203.37 16.50Q199.19 16.50 197.02 17.91Q194.86 19.32 194.86 21.67L194.86 21.67Q194.86 23.08 195.66 24.09Q196.46 25.10 198.62 25.94Q200.78 26.79 204.78 27.64L204.78 27.64Q209.90 28.72 213.00 29.94Q216.11 31.16 217.75 33.18Q219.40 35.20 219.40 38.40L219.40 38.40Q219.40 42.86 215.31 45.35Q211.22 47.85 204.22 47.85L204.22 47.85ZM227.90 47.38L227.90 14.48L240.83 14.48Q247.78 14.48 251.61 16.92Q255.44 19.36 255.44 24.63L255.44 24.63Q255.44 34.73 240.83 34.73L240.83 34.73L233.82 34.73L233.82 47.38L227.90 47.38ZM233.82 32.24L240.87 32.24Q245.15 32.24 247.34 30.46Q249.52 28.67 249.52 24.63L249.52 24.63Q249.52 20.59 247.34 18.78Q245.15 16.97 240.87 16.97L240.87 16.97L233.82 16.97L233.82 32.24ZM262.26 47.38L262.26 14.48L290.98 14.48L290.98 16.97L268.18 16.97L268.18 28.53L288.35 28.53L288.35 30.97L268.18 30.97L268.18 44.88L290.98 44.88L290.98 47.38L262.26 47.38ZM315.09 47.85Q306.44 47.85 301.83 43.45Q297.23 39.06 297.23 30.78L297.23 30.78Q297.23 22.70 301.81 18.35Q306.39 14.01 314.99 14.01L314.99 14.01Q322.14 14.01 326.46 16.87Q330.79 19.74 331.59 25.00L331.59 25.00L326.65 25.00Q325.90 20.96 322.89 18.73Q319.88 16.50 315.23 16.50L315.23 16.50Q309.40 16.50 306.30 20.16Q303.20 23.83 303.20 30.78L303.20 30.78Q303.20 37.83 306.32 41.59Q309.45 45.35 315.28 45.35L315.28 45.35Q319.93 45.35 322.91 43.15Q325.90 40.94 326.65 36.85L326.65 36.85L331.59 36.85Q330.83 42.11 326.49 44.98Q322.14 47.85 315.09 47.85L315.09 47.85ZM340.99 47.38L340.99 14.48L346.91 14.48L346.91 47.38L340.99 47.38ZM385.45 47.38L381.50 38.92L363.26 38.92L359.08 47.38L355.04 47.38L372.15 14.01L375.58 14.01L391.70 47.38L385.45 47.38ZM364.53 36.42L380.32 36.42L372.66 19.97L364.53 36.42ZM397.95 47.38L397.95 14.48L403.87 14.48L403.87 44.88L424.41 44.88L424.41 47.38L397.95 47.38ZM432.82 47.38L432.82 14.48L438.75 14.48L438.75 47.38L432.82 47.38ZM465.21 47.85Q457.92 47.85 453.69 45.03Q449.46 42.21 449.09 37.04L449.09 37.04L454.02 37.04Q454.35 41.36 457.08 43.36Q459.80 45.35 465.11 45.35L465.11 45.35Q469.72 45.35 472.09 43.76Q474.47 42.16 474.47 39.10L474.47 39.10Q474.47 37.32 473.57 36.10Q472.68 34.87 470.42 33.91Q468.17 32.95 463.98 32.10L463.98 32.10Q457.40 30.78 453.67 28.67Q449.93 26.55 449.93 22.56L449.93 22.56Q449.93 18.14 454.04 16.07Q458.16 14.01 464.69 14.01L464.69 14.01Q471.55 14.01 475.29 16.38Q479.02 18.75 479.54 22.94L479.54 22.94L474.65 22.94Q473.95 19.50 471.41 18.00Q468.87 16.50 464.36 16.50L464.36 16.50Q460.18 16.50 458.02 17.91Q455.85 19.32 455.85 21.67L455.85 21.67Q455.85 23.08 456.65 24.09Q457.45 25.10 459.61 25.94Q461.78 26.79 465.77 27.64L465.77 27.64Q470.89 28.72 474.00 29.94Q477.10 31.16 478.74 33.18Q480.39 35.20 480.39 38.40L480.39 38.40Q480.39 42.86 476.30 45.35Q472.21 47.85 465.21 47.85L465.21 47.85ZM499.66 47.38L499.66 16.97L485.84 16.97L485.84 14.48L519.35 14.48L519.35 16.97L505.58 16.97L505.58 47.38L499.66 47.38ZM540.92 47.85Q533.64 47.85 529.41 45.03Q525.18 42.21 524.80 37.04L524.80 37.04L529.74 37.04Q530.07 41.36 532.79 43.36Q535.52 45.35 540.83 45.35L540.83 45.35Q545.44 45.35 547.81 43.76Q550.18 42.16 550.18 39.10L550.18 39.10Q550.18 37.32 549.29 36.10Q548.40 34.87 546.14 33.91Q543.88 32.95 539.70 32.10L539.70 32.10Q533.12 30.78 529.38 28.67Q525.65 26.55 525.65 22.56L525.65 22.56Q525.65 18.14 529.76 16.07Q533.87 14.01 540.41 14.01L540.41 14.01Q547.27 14.01 551.00 16.38Q554.74 18.75 555.26 22.94L555.26 22.94L550.37 22.94Q549.67 19.50 547.13 18.00Q544.59 16.50 540.08 16.50L540.08 16.50Q535.89 16.50 533.73 17.91Q531.57 19.32 531.57 21.67L531.57 21.67Q531.57 23.08 532.37 24.09Q533.17 25.10 535.33 25.94Q537.49 26.79 541.49 27.64L541.49 27.64Q546.61 28.72 549.71 29.94Q552.81 31.16 554.46 33.18Q556.10 35.20 556.10 38.40L556.10 38.40Q556.10 42.86 552.02 45.35Q547.93 47.85 540.92 47.85L540.92 47.85Z" transform="translate(0, 0)"></path></g></svg></g></svg>