<svg viewBox="0 0 575 575" class="roots-wrapper"><g transform="rotate(0 0 0)"><svg viewBoxSize="575" data-root-id="4368627401051" xmlns="http://www.w3.org/2000/svg" xmlns:xlink="http://www.w3.org/1999/xlink" version="1.1" id="Layer_1" x="36.07967795410157" y="222.6236792602539" viewBox="372 424.83001708984375 1256 1144.35009765625" xml:space="preserve" height="129.7526397705078" width="142.41211544746358" preserveAspectRatio="xMinYMin" zoom="1" editorType="buyer" data-layer-role="icon" style="position: absolute; height: 129.753px; width: 142.412px; top: 222.624px; left: 36.0797px;"><polygon points="1180.95,701.22 1084.12,607.5 858.83,607.5 955.62,701.22  " name="Layer %{number}" zoom="1" data-layer-id="6309698101127" style="fill: rgb(234, 189, 35); fill-opacity: 1;"></polygon><polygon points="981.53,726.3 1065.54,807.66 1089.02,784.95 1290,784.95 1217.67,714.95 1195.14,714.95 969.81,714.95  " name="Layer %{number}" zoom="1" data-layer-id="8275700501165" style="fill: rgb(234, 189, 35); fill-opacity: 1;"></polygon><polygon points="1569.54,1060.87 1595.08,1085.59 1628,1085.59 1569.54,1029.01  " name="Layer %{number}" zoom="1" data-layer-id="3987500901203" style="fill: rgb(234, 189, 35); fill-opacity: 1;"></polygon><path d="M1605.25,1532.09v-222.27h-13.92v251.2C1599.8,1554.25,1605.25,1543.81,1605.25,1532.09z" name="Layer %{number}" zoom="1" data-layer-id="9591673501241" style="fill: rgb(234, 189, 35); fill-opacity: 1;"></path><path d="M1605.25,1293.62v-54.98h-49.45V956.63l9.66-22.3l4.63-10.62l-7.15-48.34h-34.06l-7.18,48.34l4.62,10.62l9.71,22.3v282.01   h-42.86v54.98h28.55v16.2h-28.55v222.27c0,5.03,1.01,9.84,2.84,14.19l0.01,0.01h-94.05v-236.17h-132.51v236.17h-37.42   l-162.52-467.15l2-5.76l255.47-247.32l195.3,189.08v-31.87l-195.3-189.07l-300.96,291.39h16.99l-12.02,34.57H919.48l12.03-34.57   h74.56l182.62-176.8l12.81-12.41h-13.19l0.01-0.01h-17.95l0.01,0.01H973.15l-195.44,189.21h129.58l-159.77,459.18H582.87V1412.1   c0-12.68-10.3-22.99-22.98-22.99h-0.97v-238.33l194.98-87.95V959.46h-44.13v-11.49c0-21.06-17.17-38.23-38.27-38.23H547.82   l283.91-274.86l216.04,209.13l-39.87,38.64h207.8l84.87-82.18l1.88-1.79h-207.89l-19.14,18.55l-11.17,10.85h-0.01L831.73,603.02   l-70.03,67.8l-0.01-0.01l-65.42-63.31h-6.95l-248.87,243l-4.9-5l243.75-238h-99.15l-13.97-28.81l18.56-12.58l10.08,15.34   l159.04-104.29l-34.34-52.33L560.48,529.12l11.71,17.84l-35.26,23.89l17.78,36.65H441.68l-66.43,325.13   c-2.11,4.72-3.25,9.89-3.25,15.34v41.61c0,3.07,0.37,6.05,1.05,8.93v496.18l154.15,72.97h212.35l-0.52,1.52h24.21l22.39-64.34   h111.52l-22.38,64.34h24.21l90.56-260.22l90.51,260.22h24.22l-102.64-295.01l55.76-160.24l158.4,455.25h352.35v-0.01h0.02   c4.95,0,9.71-0.96,14.01-2.75v-256.6h-5.47v-16.2H1605.25z M659.95,1004.99c8.17-2,15.99-5.02,20.37-10.89   c2.23-2.9,3.59-6.53,4.38-10.51l0.26-1.51c0.08-0.51,0.14-1.03,0.2-1.54c0.09-0.5,0.09-1.07,0.13-1.62l0.09-1.67l0.38-6.65   c0.55-8.87,1.21-17.73,2.24-26.6c1.03,8.87,1.69,17.73,2.24,26.6l0.38,6.65l0.19,3.37c0.09,1.18,0.13,2.38,0.1,3.59   c-0.1,4.81-1.36,9.95-4.28,14.32c-2.88,4.39-7.22,7.63-11.69,9.63c-4.5,2.04-9.17,3.11-13.79,3.64c-4.62,0.53-9.21,0.52-13.73,0.17   c-4.53-0.36-9-1.06-13.39-2.24C642.94,1008.04,651.69,1007.01,659.95,1004.99z M691.64,634.87l53.57,51.87l0.02,0.02L514.9,909.74   H410.23c-0.87,0-1.74,0.05-2.61,0.09L691.64,634.87z M404.71,948.82c0.12-1.32,0.31-2.64,0.63-3.96c0.6-2.62,1.64-5.24,3.19-7.57   c1.53-2.34,3.53-4.4,5.82-5.94c4.59-3.14,9.98-4.46,15.2-4.41c4.79,0.04,9.43,0.14,14.16,0.29c9.42,0.3,18.84,0.79,28.29,1.77   c-9.39,1.43-18.8,2.37-28.21,3.12c-4.69,0.37-9.46,0.71-14.09,0.96c-4.17,0.27-8.25,1.56-11.4,3.86c-1.56,1.16-2.9,2.54-3.94,4.15   c-1.02,1.62-1.79,3.42-2.26,5.38c-0.48,1.97-0.67,3.98-0.71,6.21c-0.04,2.35-0.15,4.71-0.25,7.06c-0.49,9.42-1.27,18.84-3.14,28.26   c-1.87-9.42-2.65-18.84-3.14-28.26c-0.1-2.35-0.21-4.71-0.25-7.06C404.58,951.49,404.61,950.11,404.71,948.82z M536.03,1389.11   h-1.32c-12.69,0-22.99,10.31-22.99,22.99v122.23l-115.78-49.76v-459.51c4.44,1.79,9.25,2.8,14.29,2.8H671.5   c21.1,0,38.27-17.17,38.27-38.28v-7.23h21.24v65.7l-194.98,87.94V1389.11z M568.08,1544.77h-9.16v-152.86h9.16V1544.77z    M905.12,1481.95H793.59l17.22-49.47h111.52L905.12,1481.95z M930.29,1409.59H818.77l17.21-49.47H947.5L930.29,1409.59z    M955.47,1337.23H843.95l17.21-49.46h111.52L955.47,1337.23z M980.64,1264.87H869.13l17.21-49.46h111.52L980.64,1264.87z    M1005.82,1192.52H894.3l17.21-49.47h111.52L1005.82,1192.52z" name="Layer %{number}" zoom="1" data-layer-id="8180761301278" style="fill: rgb(234, 189, 35); fill-opacity: 1;"></path><path d="M824.73,765.58h-7.99c-21.8,0-39.47,17.67-39.47,39.47v7.99h47.46V765.58z" name="Layer %{number}" zoom="1" data-layer-id="0339881601315" style="fill: rgb(234, 189, 35); fill-opacity: 1;"></path><path d="M882.57,805.05c0-21.8-17.67-39.47-39.47-39.47h-7.99v47.46h47.46V805.05z" name="Layer %{number}" zoom="1" data-layer-id="6546039301353" style="fill: rgb(234, 189, 35); fill-opacity: 1;"></path><rect x="777.27" y="820.82" width="47.46" height="47.46" name="Layer %{number}" zoom="1" data-layer-id="6144992401392" style="fill: rgb(234, 189, 35); fill-opacity: 1;"></rect><rect x="835.1" y="820.82" width="47.46" height="47.46" name="Layer %{number}" zoom="1" data-layer-id="2181451101429" style="fill: rgb(234, 189, 35); fill-opacity: 1;"></rect><rect x="1277.46" y="1013.17" width="47.46" height="47.46" name="Layer %{number}" zoom="1" data-layer-id="8151132701466" style="fill: rgb(234, 189, 35); fill-opacity: 1;"></rect><rect x="1335.29" y="1013.17" width="47.46" height="47.46" name="Layer %{number}" zoom="1" data-layer-id="5948380901503" style="fill: rgb(234, 189, 35); fill-opacity: 1;"></rect><rect x="1277.46" y="1068.41" width="47.46" height="47.46" name="Layer %{number}" zoom="1" data-layer-id="0395962801541" style="fill: rgb(234, 189, 35); fill-opacity: 1;"></rect><rect x="1335.29" y="1068.41" width="47.46" height="47.46" name="Layer %{number}" zoom="1" data-layer-id="8766649301579" style="fill: rgb(234, 189, 35); fill-opacity: 1;"></rect></svg></g><g transform="rotate(0 0 0)"><svg viewBoxSize="575" data-root-id="7437486501616" xmlns="http://www.w3.org/2000/svg" x="198.17027795410155" y="334.2156792602539" viewBox="4.269999980926514 3.9100000858306885 340.75 11.279999732971191" height="11.279999732971191" width="340.75" fontUrl="https://fonts.gstatic.com/s/lato/v24/S6u9w4BMUTPHh6UVew-FGC_p9dw.ttf" zoom="1" editorType="buyer" data-layer-role="slogan" style="position: absolute; top: 334.216px; left: 198.17px; width: 340.75px; height: 11.28px;"><g data-horizontal-grow="left" data-vertical-center="false" zoom="1" root="[object Object]" style="fill: rgb(255, 255, 255); fill-opacity: 1;"><path d="M14.36 4.03L10.35 10.78L10.35 15.07L8.29 15.07L8.29 10.78L4.27 4.03L6.08 4.03Q6.34 4.03 6.50 4.16Q6.66 4.29 6.76 4.49L6.76 4.49L8.79 8.18Q8.96 8.51 9.09 8.80Q9.22 9.09 9.33 9.38L9.33 9.38Q9.43 9.09 9.56 8.79Q9.68 8.50 9.86 8.18L9.86 8.18L11.87 4.49Q11.95 4.32 12.12 4.18Q12.29 4.03 12.54 4.03L12.54 4.03L14.36 4.03ZM26.78 9.55L26.78 9.55Q26.78 10.77 26.38 11.80Q25.98 12.83 25.24 13.59Q24.51 14.35 23.48 14.77Q22.45 15.19 21.20 15.19L21.20 15.19Q19.94 15.19 18.91 14.77Q17.87 14.35 17.14 13.59Q16.40 12.83 16.00 11.80Q15.59 10.77 15.59 9.55L15.59 9.55Q15.59 8.34 16.00 7.30Q16.40 6.27 17.14 5.51Q17.87 4.76 18.91 4.33Q19.94 3.91 21.20 3.91L21.20 3.91Q22.45 3.91 23.48 4.34Q24.51 4.76 25.24 5.52Q25.98 6.27 26.38 7.30Q26.78 8.34 26.78 9.55ZM24.68 9.55L24.68 9.55Q24.68 8.64 24.44 7.92Q24.20 7.20 23.75 6.70Q23.30 6.19 22.65 5.93Q22.01 5.66 21.20 5.66L21.20 5.66Q20.39 5.66 19.74 5.93Q19.09 6.19 18.63 6.70Q18.18 7.20 17.94 7.92Q17.69 8.64 17.69 9.55L17.69 9.55Q17.69 10.46 17.94 11.18Q18.18 11.90 18.63 12.40Q19.09 12.90 19.74 13.17Q20.39 13.44 21.20 13.44L21.20 13.44Q22.01 13.44 22.65 13.17Q23.30 12.90 23.75 12.40Q24.20 11.90 24.44 11.18Q24.68 10.46 24.68 9.55ZM34.22 13.42L34.22 13.42Q34.82 13.42 35.29 13.22Q35.76 13.02 36.08 12.66Q36.41 12.30 36.58 11.79Q36.75 11.28 36.75 10.64L36.75 10.64L36.75 4.03L38.80 4.03L38.80 10.64Q38.80 11.63 38.49 12.46Q38.17 13.30 37.57 13.91Q36.98 14.51 36.13 14.85Q35.28 15.19 34.22 15.19L34.22 15.19Q33.16 15.19 32.31 14.85Q31.47 14.51 30.87 13.91Q30.28 13.30 29.96 12.46Q29.65 11.63 29.65 10.64L29.65 10.64L29.65 4.03L31.70 4.03L31.70 10.64Q31.70 11.27 31.87 11.78Q32.05 12.29 32.37 12.66Q32.69 13.02 33.16 13.22Q33.63 13.42 34.22 13.42ZM45.27 10.76L44.39 10.76L44.39 15.07L42.34 15.07L42.34 4.03L45.71 4.03Q46.84 4.03 47.64 4.26Q48.45 4.50 48.96 4.92Q49.48 5.34 49.72 5.92Q49.96 6.51 49.96 7.21L49.96 7.21Q49.96 7.77 49.79 8.26Q49.63 8.76 49.32 9.16Q49.01 9.57 48.56 9.87Q48.10 10.18 47.52 10.36L47.52 10.36Q47.91 10.58 48.19 10.99L48.19 10.99L50.96 15.07L49.11 15.07Q48.84 15.07 48.66 14.97Q48.47 14.86 48.34 14.66L48.34 14.66L46.02 11.12Q45.89 10.93 45.73 10.84Q45.58 10.76 45.27 10.76L45.27 10.76ZM44.39 5.62L44.39 9.28L45.67 9.28Q46.25 9.28 46.69 9.14Q47.12 8.99 47.40 8.74Q47.67 8.48 47.81 8.13Q47.95 7.78 47.95 7.36L47.95 7.36Q47.95 6.52 47.40 6.07Q46.84 5.62 45.71 5.62L45.71 5.62L44.39 5.62ZM65.56 12.47L65.56 12.47Q65.72 12.47 65.85 12.60L65.85 12.60L66.66 13.48Q65.98 14.31 65.00 14.75Q64.02 15.19 62.65 15.19L62.65 15.19Q61.42 15.19 60.44 14.77Q59.46 14.35 58.76 13.61Q58.07 12.86 57.70 11.82Q57.33 10.78 57.33 9.55L57.33 9.55Q57.33 8.31 57.74 7.27Q58.15 6.24 58.90 5.49Q59.65 4.74 60.69 4.33Q61.73 3.91 62.99 3.91L62.99 3.91Q64.22 3.91 65.14 4.30Q66.06 4.70 66.72 5.34L66.72 5.34L66.03 6.30Q65.97 6.39 65.87 6.46Q65.78 6.53 65.61 6.53L65.61 6.53Q65.43 6.53 65.25 6.39Q65.07 6.25 64.79 6.09Q64.50 5.93 64.07 5.80Q63.64 5.66 62.98 5.66L62.98 5.66Q62.20 5.66 61.54 5.93Q60.89 6.20 60.42 6.70Q59.95 7.21 59.69 7.93Q59.43 8.65 59.43 9.55L59.43 9.55Q59.43 10.48 59.69 11.21Q59.95 11.93 60.40 12.43Q60.85 12.93 61.46 13.19Q62.08 13.45 62.78 13.45L62.78 13.45Q63.20 13.45 63.54 13.41Q63.88 13.36 64.16 13.26Q64.45 13.16 64.71 13.01Q64.96 12.85 65.21 12.62L65.21 12.62Q65.29 12.55 65.37 12.51Q65.46 12.47 65.56 12.47ZM80.17 9.55L80.17 9.55Q80.17 10.77 79.77 11.80Q79.36 12.83 78.63 13.59Q77.90 14.35 76.86 14.77Q75.83 15.19 74.58 15.19L74.58 15.19Q73.33 15.19 72.30 14.77Q71.26 14.35 70.52 13.59Q69.79 12.83 69.38 11.80Q68.98 10.77 68.98 9.55L68.98 9.55Q68.98 8.34 69.38 7.30Q69.79 6.27 70.52 5.51Q71.26 4.76 72.30 4.33Q73.33 3.91 74.58 3.91L74.58 3.91Q75.83 3.91 76.86 4.34Q77.90 4.76 78.63 5.52Q79.36 6.27 79.77 7.30Q80.17 8.34 80.17 9.55ZM78.06 9.55L78.06 9.55Q78.06 8.64 77.82 7.92Q77.58 7.20 77.13 6.70Q76.68 6.19 76.04 5.93Q75.39 5.66 74.58 5.66L74.58 5.66Q73.77 5.66 73.12 5.93Q72.47 6.19 72.02 6.70Q71.57 7.20 71.32 7.92Q71.08 8.64 71.08 9.55L71.08 9.55Q71.08 10.46 71.32 11.18Q71.57 11.90 72.02 12.40Q72.47 12.90 73.12 13.17Q73.77 13.44 74.58 13.44L74.58 13.44Q75.39 13.44 76.04 13.17Q76.68 12.90 77.13 12.40Q77.58 11.90 77.82 11.18Q78.06 10.46 78.06 9.55ZM88.71 10.49L88.71 10.49Q88.84 10.74 88.95 11.00Q89.06 11.26 89.17 11.53L89.17 11.53Q89.27 11.25 89.39 10.99Q89.50 10.72 89.63 10.48L89.63 10.48L92.90 4.36Q92.96 4.25 93.03 4.18Q93.09 4.11 93.17 4.08Q93.25 4.05 93.35 4.04Q93.45 4.03 93.59 4.03L93.59 4.03L95.14 4.03L95.14 15.07L93.33 15.07L93.33 7.94Q93.33 7.74 93.34 7.51Q93.35 7.27 93.37 7.02L93.37 7.02L90.04 13.29Q89.92 13.50 89.74 13.62Q89.55 13.74 89.31 13.74L89.31 13.74L89.03 13.74Q88.78 13.74 88.60 13.62Q88.42 13.50 88.30 13.29L88.30 13.29L84.92 7.00Q84.95 7.25 84.96 7.49Q84.97 7.73 84.97 7.94L84.97 7.94L84.97 15.07L83.16 15.07L83.16 4.03L84.71 4.03Q84.85 4.03 84.95 4.04Q85.05 4.05 85.13 4.08Q85.21 4.11 85.28 4.18Q85.35 4.25 85.41 4.36L85.41 4.36L88.71 10.49ZM102.41 11.19L100.86 11.19L100.86 15.07L98.81 15.07L98.81 4.03L102.41 4.03Q103.51 4.03 104.32 4.29Q105.13 4.55 105.66 5.02Q106.18 5.48 106.44 6.13Q106.69 6.78 106.69 7.55L106.69 7.55Q106.69 8.35 106.42 9.02Q106.15 9.69 105.62 10.17Q105.09 10.65 104.28 10.92Q103.48 11.19 102.41 11.19L102.41 11.19ZM100.86 5.62L100.86 9.58L102.41 9.58Q102.97 9.58 103.39 9.44Q103.81 9.30 104.08 9.04Q104.36 8.77 104.50 8.40Q104.63 8.02 104.63 7.55L104.63 7.55Q104.63 7.11 104.50 6.75Q104.36 6.39 104.08 6.14Q103.81 5.89 103.39 5.75Q102.97 5.62 102.41 5.62L102.41 5.62L100.86 5.62ZM111.71 4.03L111.71 13.38L116.13 13.38L116.13 15.07L109.66 15.07L109.66 4.03L111.71 4.03ZM118.93 4.03L125.89 4.03L125.89 5.67L121.00 5.67L121.00 8.73L124.85 8.73L124.85 10.31L121.00 10.31L121.00 13.43L125.89 13.43L125.89 15.07L118.93 15.07L118.93 4.03ZM128.11 4.03L136.83 4.03L136.83 5.72L133.50 5.72L133.50 15.07L131.45 15.07L131.45 5.72L128.11 5.72L128.11 4.03ZM139.51 4.03L146.47 4.03L146.47 5.67L141.57 5.67L141.57 8.73L145.43 8.73L145.43 10.31L141.57 10.31L141.57 13.43L146.47 13.43L146.47 15.07L139.51 15.07L139.51 4.03ZM163.26 4.03L163.26 15.07L161.19 15.07L161.19 10.25L156.01 10.25L156.01 15.07L153.94 15.07L153.94 4.03L156.01 4.03L156.01 8.78L161.19 8.78L161.19 4.03L163.26 4.03ZM172.23 4.03L176.57 15.07L174.98 15.07Q174.71 15.07 174.54 14.94Q174.37 14.80 174.29 14.61L174.29 14.61L173.47 12.35L168.89 12.35L168.07 14.61Q168.01 14.78 167.83 14.93Q167.65 15.07 167.39 15.07L167.39 15.07L165.79 15.07L170.13 4.03L172.23 4.03ZM170.76 7.25L169.42 10.90L172.94 10.90L171.60 7.23Q171.50 6.99 171.39 6.65Q171.28 6.32 171.18 5.93L171.18 5.93Q171.07 6.32 170.97 6.66Q170.86 6.99 170.76 7.25L170.76 7.25ZM180.16 4.03L180.16 4.03Q180.29 4.03 180.38 4.04Q180.48 4.05 180.55 4.09Q180.62 4.12 180.69 4.19Q180.76 4.25 180.84 4.36L180.84 4.36L186.64 11.74Q186.61 11.48 186.60 11.22Q186.58 10.96 186.58 10.74L186.58 10.74L186.58 4.03L188.39 4.03L188.39 15.07L187.33 15.07Q187.09 15.07 186.93 15.00Q186.77 14.92 186.62 14.72L186.62 14.72L180.84 7.37Q180.87 7.61 180.88 7.85Q180.89 8.09 180.89 8.29L180.89 8.29L180.89 15.07L179.08 15.07L179.08 4.03L180.16 4.03ZM201.80 9.55L201.80 9.55Q201.80 10.77 201.40 11.78Q200.99 12.80 200.26 13.53Q199.53 14.26 198.50 14.67Q197.46 15.07 196.21 15.07L196.21 15.07L192.00 15.07L192.00 4.03L196.21 4.03Q197.46 4.03 198.50 4.44Q199.53 4.85 200.26 5.58Q200.99 6.31 201.40 7.32Q201.80 8.34 201.80 9.55ZM199.70 9.55L199.70 9.55Q199.70 8.64 199.46 7.92Q199.21 7.20 198.76 6.70Q198.31 6.20 197.67 5.93Q197.02 5.67 196.21 5.67L196.21 5.67L194.07 5.67L194.07 13.44L196.21 13.44Q197.02 13.44 197.67 13.17Q198.31 12.90 198.76 12.40Q199.21 11.90 199.46 11.18Q199.70 10.46 199.70 9.55ZM213.10 4.03L209.09 10.78L209.09 15.07L207.03 15.07L207.03 10.78L203.01 4.03L204.82 4.03Q205.08 4.03 205.24 4.16Q205.40 4.29 205.50 4.49L205.50 4.49L207.53 8.18Q207.70 8.51 207.83 8.80Q207.96 9.09 208.07 9.38L208.07 9.38Q208.17 9.09 208.30 8.79Q208.42 8.50 208.60 8.18L208.60 8.18L210.61 4.49Q210.69 4.32 210.86 4.18Q211.03 4.03 211.28 4.03L211.28 4.03L213.10 4.03ZM221.09 10.49L221.09 10.49Q221.22 10.74 221.33 11.00Q221.44 11.26 221.55 11.53L221.55 11.53Q221.65 11.25 221.77 10.99Q221.88 10.72 222.01 10.48L222.01 10.48L225.28 4.36Q225.34 4.25 225.41 4.18Q225.47 4.11 225.55 4.08Q225.63 4.05 225.73 4.04Q225.83 4.03 225.97 4.03L225.97 4.03L227.52 4.03L227.52 15.07L225.71 15.07L225.71 7.94Q225.71 7.74 225.72 7.51Q225.73 7.27 225.75 7.02L225.75 7.02L222.42 13.29Q222.30 13.50 222.12 13.62Q221.94 13.74 221.69 13.74L221.69 13.74L221.41 13.74Q221.16 13.74 220.98 13.62Q220.80 13.50 220.68 13.29L220.68 13.29L217.30 7.00Q217.33 7.25 217.34 7.49Q217.35 7.73 217.35 7.94L217.35 7.94L217.35 15.07L215.55 15.07L215.55 4.03L217.10 4.03Q217.23 4.03 217.33 4.04Q217.43 4.05 217.51 4.08Q217.59 4.11 217.66 4.18Q217.73 4.25 217.79 4.36L217.79 4.36L221.09 10.49ZM236.49 4.03L240.83 15.07L239.24 15.07Q238.97 15.07 238.80 14.94Q238.63 14.80 238.55 14.61L238.55 14.61L237.73 12.35L233.15 12.35L232.33 14.61Q232.27 14.78 232.09 14.93Q231.91 15.07 231.65 15.07L231.65 15.07L230.05 15.07L234.39 4.03L236.49 4.03ZM235.02 7.25L233.68 10.90L237.20 10.90L235.86 7.23Q235.76 6.99 235.65 6.65Q235.54 6.32 235.44 5.93L235.44 5.93Q235.33 6.32 235.23 6.66Q235.12 6.99 235.02 7.25L235.02 7.25ZM244.41 4.03L244.41 4.03Q244.55 4.03 244.64 4.04Q244.74 4.05 244.81 4.09Q244.88 4.12 244.95 4.19Q245.02 4.25 245.10 4.36L245.10 4.36L250.90 11.74Q250.87 11.48 250.85 11.22Q250.84 10.96 250.84 10.74L250.84 10.74L250.84 4.03L252.65 4.03L252.65 15.07L251.59 15.07Q251.35 15.07 251.19 15.00Q251.03 14.92 250.87 14.72L250.87 14.72L245.10 7.37Q245.12 7.61 245.14 7.85Q245.15 8.09 245.15 8.29L245.15 8.29L245.15 15.07L243.34 15.07L243.34 4.03L244.41 4.03ZM267.00 5.07L266.50 6.04Q266.41 6.21 266.30 6.28Q266.19 6.34 266.04 6.34L266.04 6.34Q265.89 6.34 265.69 6.23Q265.50 6.11 265.24 5.96Q264.98 5.82 264.64 5.70Q264.29 5.58 263.82 5.58L263.82 5.58Q263.39 5.58 263.07 5.68Q262.75 5.79 262.54 5.97Q262.32 6.15 262.21 6.41Q262.11 6.67 262.11 6.97L262.11 6.97Q262.11 7.36 262.32 7.62Q262.54 7.88 262.90 8.06Q263.26 8.25 263.72 8.39Q264.17 8.54 264.65 8.70Q265.13 8.86 265.59 9.08Q266.05 9.30 266.40 9.63Q266.76 9.96 266.98 10.45Q267.20 10.93 267.20 11.61L267.20 11.61Q267.20 12.36 266.94 13.01Q266.69 13.67 266.19 14.15Q265.70 14.64 264.99 14.92Q264.28 15.19 263.37 15.19L263.37 15.19Q262.84 15.19 262.33 15.09Q261.82 14.99 261.35 14.80Q260.88 14.61 260.47 14.34Q260.06 14.07 259.74 13.74L259.74 13.74L260.33 12.76Q260.42 12.65 260.54 12.58Q260.65 12.51 260.80 12.51L260.80 12.51Q260.99 12.51 261.21 12.66Q261.43 12.82 261.74 13.01Q262.04 13.20 262.45 13.36Q262.85 13.51 263.43 13.51L263.43 13.51Q264.30 13.51 264.79 13.10Q265.27 12.68 265.27 11.90L265.27 11.90Q265.27 11.47 265.05 11.19Q264.83 10.92 264.47 10.73Q264.11 10.54 263.66 10.41Q263.20 10.28 262.72 10.13Q262.25 9.98 261.79 9.77Q261.33 9.55 260.98 9.21Q260.62 8.86 260.40 8.35Q260.18 7.83 260.18 7.08L260.18 7.08Q260.18 6.47 260.42 5.90Q260.66 5.33 261.12 4.89Q261.59 4.44 262.26 4.18Q262.93 3.91 263.79 3.91L263.79 3.91Q264.77 3.91 265.59 4.21Q266.42 4.52 267.00 5.07L267.00 5.07ZM280.74 9.55L280.74 9.55Q280.74 10.77 280.33 11.80Q279.93 12.83 279.19 13.59Q278.46 14.35 277.43 14.77Q276.40 15.19 275.15 15.19L275.15 15.19Q273.89 15.19 272.86 14.77Q271.83 14.35 271.09 13.59Q270.35 12.83 269.95 11.80Q269.54 10.77 269.54 9.55L269.54 9.55Q269.54 8.34 269.95 7.30Q270.35 6.27 271.09 5.51Q271.83 4.76 272.86 4.33Q273.89 3.91 275.15 3.91L275.15 3.91Q276.40 3.91 277.43 4.34Q278.46 4.76 279.19 5.52Q279.93 6.27 280.33 7.30Q280.74 8.34 280.74 9.55ZM278.63 9.55L278.63 9.55Q278.63 8.64 278.39 7.92Q278.15 7.20 277.70 6.70Q277.25 6.19 276.60 5.93Q275.96 5.66 275.15 5.66L275.15 5.66Q274.34 5.66 273.69 5.93Q273.04 6.19 272.59 6.70Q272.13 7.20 271.89 7.92Q271.64 8.64 271.64 9.55L271.64 9.55Q271.64 10.46 271.89 11.18Q272.13 11.90 272.59 12.40Q273.04 12.90 273.69 13.17Q274.34 13.44 275.15 13.44L275.15 13.44Q275.96 13.44 276.60 13.17Q277.25 12.90 277.70 12.40Q278.15 11.90 278.39 11.18Q278.63 10.46 278.63 9.55ZM285.78 4.03L285.78 13.38L290.20 13.38L290.20 15.07L283.73 15.07L283.73 4.03L285.78 4.03ZM297.44 13.42L297.44 13.42Q298.04 13.42 298.51 13.22Q298.98 13.02 299.30 12.66Q299.63 12.30 299.80 11.79Q299.97 11.28 299.97 10.64L299.97 10.64L299.97 4.03L302.02 4.03L302.02 10.64Q302.02 11.63 301.71 12.46Q301.39 13.30 300.79 13.91Q300.20 14.51 299.35 14.85Q298.50 15.19 297.44 15.19L297.44 15.19Q296.38 15.19 295.53 14.85Q294.69 14.51 294.09 13.91Q293.50 13.30 293.19 12.46Q292.87 11.63 292.87 10.64L292.87 10.64L292.87 4.03L294.92 4.03L294.92 10.64Q294.92 11.27 295.09 11.78Q295.27 12.29 295.59 12.66Q295.91 13.02 296.38 13.22Q296.85 13.42 297.44 13.42ZM304.56 4.03L313.27 4.03L313.27 5.72L309.95 5.72L309.95 15.07L307.89 15.07L307.89 5.72L304.56 5.72L304.56 4.03ZM318.26 4.03L318.26 15.07L316.20 15.07L316.20 4.03L318.26 4.03ZM332.71 9.55L332.71 9.55Q332.71 10.77 332.30 11.80Q331.90 12.83 331.17 13.59Q330.43 14.35 329.40 14.77Q328.37 15.19 327.12 15.19L327.12 15.19Q325.87 15.19 324.83 14.77Q323.80 14.35 323.06 13.59Q322.33 12.83 321.92 11.80Q321.52 10.77 321.52 9.55L321.52 9.55Q321.52 8.34 321.92 7.30Q322.33 6.27 323.06 5.51Q323.80 4.76 324.83 4.33Q325.87 3.91 327.12 3.91L327.12 3.91Q328.37 3.91 329.40 4.34Q330.43 4.76 331.17 5.52Q331.90 6.27 332.30 7.30Q332.71 8.34 332.71 9.55ZM330.60 9.55L330.60 9.55Q330.60 8.64 330.36 7.92Q330.12 7.20 329.67 6.70Q329.22 6.19 328.57 5.93Q327.93 5.66 327.12 5.66L327.12 5.66Q326.31 5.66 325.66 5.93Q325.01 6.19 324.56 6.70Q324.10 7.20 323.86 7.92Q323.62 8.64 323.62 9.55L323.62 9.55Q323.62 10.46 323.86 11.18Q324.10 11.90 324.56 12.40Q325.01 12.90 325.66 13.17Q326.31 13.44 327.12 13.44L327.12 13.44Q327.93 13.44 328.57 13.17Q329.22 12.90 329.67 12.40Q330.12 11.90 330.36 11.18Q330.60 10.46 330.60 9.55ZM336.78 4.03L336.78 4.03Q336.92 4.03 337.01 4.04Q337.10 4.05 337.17 4.09Q337.24 4.12 337.31 4.19Q337.38 4.25 337.47 4.36L337.47 4.36L343.26 11.74Q343.23 11.48 343.22 11.22Q343.21 10.96 343.21 10.74L343.21 10.74L343.21 4.03L345.02 4.03L345.02 15.07L343.96 15.07Q343.71 15.07 343.55 15.00Q343.39 14.92 343.24 14.72L343.24 14.72L337.47 7.37Q337.49 7.61 337.50 7.85Q337.51 8.09 337.51 8.29L337.51 8.29L337.51 15.07L335.70 15.07L335.70 4.03L336.78 4.03Z" transform="translate(0, 0)"></path></g></svg></g><g transform="rotate(0 0 0)"><svg viewBoxSize="575" data-root-id="1095034701727" xmlns="http://www.w3.org/2000/svg" x="198.17027795410155" y="298.4446792602539" viewBox="0.64000004529953 11.039999961853027 334.53997802734375 26.81999969482422" height="26.81999969482422" width="334.53997802734375" fontUrl="https://fonts.gstatic.com/s/exo2/v21/7cH1v4okm5zmbvwkAx_sfcEuiD8jWfWcPtq-rpvLpQ.ttf" zoom="1" editorType="buyer" data-layer-role="brandName" style="position: absolute; top: 298.445px; left: 198.17px; width: 334.54px; height: 26.82px;"><g data-horizontal-grow="left" data-vertical-center="false" zoom="1" root="[object Object]" style="fill: rgb(255, 255, 255); fill-opacity: 1;"><path d="M8.42 11.56L14.10 11.56L14.10 37.37L8.42 37.37L8.42 11.56ZM0.64 11.56L21.88 11.56L21.88 16.05L0.64 16.05L0.64 11.56ZM35.39 11.04L35.39 11.04Q38.46 11.04 40.59 11.69Q42.72 12.34 44.01 13.86Q45.30 15.37 45.90 17.97Q46.50 20.57 46.50 24.47L46.50 24.47Q46.50 28.32 45.90 30.92Q45.30 33.52 44.01 35.05Q42.72 36.59 40.59 37.22Q38.46 37.86 35.39 37.86L35.39 37.86Q32.32 37.86 30.19 37.22Q28.06 36.59 26.75 35.05Q25.44 33.52 24.86 30.92Q24.28 28.32 24.28 24.47L24.28 24.47Q24.28 20.57 24.86 17.97Q25.44 15.37 26.75 13.86Q28.06 12.34 30.19 11.69Q32.32 11.04 35.39 11.04ZM35.39 15.52L35.39 15.52Q33.41 15.52 32.30 16.31Q31.20 17.10 30.73 19.04Q30.26 20.99 30.26 24.47L30.26 24.47Q30.26 27.91 30.73 29.85Q31.20 31.80 32.30 32.58Q33.41 33.37 35.39 33.37L35.39 33.37Q37.33 33.37 38.46 32.58Q39.58 31.80 40.03 29.85Q40.48 27.91 40.48 24.47L40.48 24.47Q40.48 20.99 40.03 19.04Q39.58 17.10 38.46 16.31Q37.33 15.52 35.39 15.52ZM56.67 11.56L62.36 11.56L62.36 37.37L56.67 37.37L56.67 11.56ZM48.89 11.56L70.14 11.56L70.14 16.05L48.89 16.05L48.89 11.56ZM80.28 11.56L85.70 11.56Q86.41 11.56 86.96 11.95Q87.50 12.34 87.69 13.06L87.69 13.06L95.17 37.37L89.33 37.37L84.06 18.37Q83.91 17.77 83.76 17.11Q83.61 16.46 83.50 15.86L83.50 15.86L82.49 15.86Q82.37 16.46 82.24 17.11Q82.11 17.77 81.92 18.37L81.92 18.37L76.65 37.37L70.81 37.37L78.30 13.06Q78.48 12.34 79.03 11.95Q79.57 11.56 80.28 11.56L80.28 11.56ZM76.28 26.26L89.67 26.26L89.67 30.53L76.28 30.53L76.28 26.26ZM97.75 11.56L103.43 11.56L103.43 30.86Q103.43 31.80 103.96 32.28Q104.48 32.77 105.45 32.77L105.45 32.77L114.47 32.77L114.73 37.07Q112.08 37.33 109.18 37.39Q106.28 37.45 103.43 37.45L103.43 37.45Q100.59 37.45 99.17 35.95Q97.75 34.45 97.75 32.10L97.75 32.10L97.75 11.56ZM126.37 11.07L126.37 11.07Q128.27 11.07 130.52 11.28Q132.76 11.48 134.89 12.08L134.89 12.08L134.52 15.90Q132.87 15.82 130.67 15.79Q128.46 15.75 126.33 15.75L126.33 15.75Q125.28 15.75 124.55 15.82Q123.82 15.90 123.37 16.12Q122.92 16.35 122.74 16.85Q122.55 17.36 122.55 18.22L122.55 18.22Q122.55 19.53 123.17 20.13Q123.78 20.72 125.28 21.21L125.28 21.21L130.26 22.82Q133.36 23.87 134.56 25.66Q135.76 27.46 135.76 30.38L135.76 30.38Q135.76 32.58 135.23 34.04Q134.71 35.50 133.59 36.32Q132.46 37.15 130.63 37.50Q128.80 37.86 126.14 37.86L126.14 37.86Q124.87 37.86 122.51 37.69Q120.16 37.52 117.16 36.85L117.16 36.85L117.50 32.81Q119.74 32.84 121.35 32.90Q122.96 32.96 124.12 32.98Q125.28 32.99 126.14 32.99L126.14 32.99Q127.68 32.99 128.52 32.81Q129.36 32.62 129.70 32.06Q130.03 31.50 130.03 30.45L130.03 30.45Q130.03 29.52 129.79 28.99Q129.55 28.47 128.98 28.13Q128.42 27.79 127.53 27.53L127.53 27.53L122.29 25.74Q119.30 24.69 118.08 22.93Q116.86 21.17 116.86 18.26L116.86 18.26Q116.86 16.05 117.41 14.63Q117.95 13.21 119.07 12.44Q120.19 11.67 122.01 11.37Q123.82 11.07 126.37 11.07ZM149.67 11.19L149.67 11.19Q153.30 11.19 155.36 11.93Q157.41 12.68 158.29 14.50Q159.17 16.31 159.17 19.64L159.17 19.64Q159.17 22.93 158.33 24.75Q157.49 26.56 155.58 27.29Q153.67 28.02 150.42 28.02L150.42 28.02Q148.70 28.02 147.05 27.89Q145.41 27.76 143.99 27.53Q142.56 27.31 141.57 27.05Q140.58 26.78 140.17 26.60L140.17 26.60L140.28 23.75Q142.49 23.75 144.86 23.75Q147.24 23.75 149.56 23.75L149.56 23.75Q151.06 23.72 151.92 23.38Q152.78 23.04 153.11 22.15Q153.45 21.25 153.45 19.64L153.45 19.64Q153.45 17.96 153.11 17.06Q152.78 16.16 151.92 15.82Q151.06 15.49 149.56 15.49L149.56 15.49Q146.12 15.49 143.67 15.52Q141.22 15.56 140.32 15.64L140.32 15.64L139.80 11.56Q141.37 11.37 142.73 11.30Q144.10 11.22 145.72 11.20Q147.35 11.19 149.67 11.19ZM139.80 11.56L145.48 11.56L145.48 37.37L139.80 37.37L139.80 11.56ZM168.23 11.45L168.23 11.45Q170.28 11.45 172.42 11.47Q174.55 11.48 176.61 11.56Q178.66 11.63 180.46 11.82L180.46 11.82L180.20 15.97L170.28 15.97Q169.35 15.97 168.88 16.44Q168.41 16.91 168.41 17.88L168.41 17.88L168.41 31.05Q168.41 31.98 168.88 32.47Q169.35 32.96 170.28 32.96L170.28 32.96L180.20 32.96L180.46 37.11Q178.66 37.26 176.61 37.33Q174.55 37.41 172.42 37.43Q170.28 37.45 168.23 37.45L168.23 37.45Q165.76 37.45 164.24 36.02Q162.73 34.60 162.69 32.28L162.69 32.28L162.69 16.65Q162.73 14.29 164.24 12.87Q165.76 11.45 168.23 11.45ZM163.36 25.96L163.36 21.92L178.81 21.92L178.81 25.96L163.36 25.96ZM194.60 11.11L194.60 11.11Q196.43 11.11 197.72 11.20Q199.01 11.30 200.10 11.48Q201.18 11.67 202.34 11.97L202.34 11.97L201.89 16.20Q200.66 16.12 199.63 16.09Q198.60 16.05 197.42 16.01Q196.24 15.97 194.60 15.97L194.60 15.97Q192.69 15.97 191.62 16.74Q190.56 17.51 190.11 19.34Q189.66 21.17 189.66 24.47L189.66 24.47Q189.66 27.72 190.11 29.57Q190.56 31.42 191.62 32.17Q192.69 32.92 194.60 32.92L194.60 32.92Q197.18 32.92 198.94 32.84Q200.70 32.77 202.42 32.58L202.42 32.58L202.90 36.77Q201.11 37.33 199.24 37.58Q197.37 37.82 194.60 37.82L194.60 37.82Q190.60 37.82 188.20 36.53Q185.81 35.24 184.74 32.32Q183.68 29.40 183.68 24.47L183.68 24.47Q183.68 19.53 184.74 16.61Q185.81 13.69 188.20 12.40Q190.60 11.11 194.60 11.11ZM206.53 11.56L212.22 11.56L212.22 37.37L206.53 37.37L206.53 11.56ZM224.34 11.56L229.76 11.56Q230.47 11.56 231.02 11.95Q231.56 12.34 231.75 13.06L231.75 13.06L239.23 37.37L233.39 37.37L228.12 18.37Q227.97 17.77 227.82 17.11Q227.67 16.46 227.56 15.86L227.56 15.86L226.55 15.86Q226.43 16.46 226.30 17.11Q226.17 17.77 225.98 18.37L225.98 18.37L220.71 37.37L214.87 37.37L222.36 13.06Q222.54 12.34 223.09 11.95Q223.63 11.56 224.34 11.56L224.34 11.56ZM220.34 26.26L233.73 26.26L233.73 30.53L220.34 30.53L220.34 26.26ZM241.81 11.56L247.49 11.56L247.49 30.86Q247.49 31.80 248.02 32.28Q248.54 32.77 249.51 32.77L249.51 32.77L258.53 32.77L258.79 37.07Q256.14 37.33 253.24 37.39Q250.34 37.45 247.49 37.45L247.49 37.45Q244.65 37.45 243.23 35.95Q241.81 34.45 241.81 32.10L241.81 32.10L241.81 11.56ZM261.93 11.56L267.62 11.56L267.62 37.37L261.93 37.37L261.93 11.56ZM281.35 11.07L281.35 11.07Q283.26 11.07 285.50 11.28Q287.75 11.48 289.88 12.08L289.88 12.08L289.50 15.90Q287.86 15.82 285.65 15.79Q283.44 15.75 281.31 15.75L281.31 15.75Q280.26 15.75 279.53 15.82Q278.81 15.90 278.36 16.12Q277.91 16.35 277.72 16.85Q277.53 17.36 277.53 18.22L277.53 18.22Q277.53 19.53 278.15 20.13Q278.77 20.72 280.26 21.21L280.26 21.21L285.24 22.82Q288.34 23.87 289.54 25.66Q290.74 27.46 290.74 30.38L290.74 30.38Q290.74 32.58 290.21 34.04Q289.69 35.50 288.57 36.32Q287.45 37.15 285.61 37.50Q283.78 37.86 281.12 37.86L281.12 37.86Q279.85 37.86 277.50 37.69Q275.14 37.52 272.15 36.85L272.15 36.85L272.48 32.81Q274.73 32.84 276.34 32.90Q277.94 32.96 279.10 32.98Q280.26 32.99 281.12 32.99L281.12 32.99Q282.66 32.99 283.50 32.81Q284.34 32.62 284.68 32.06Q285.01 31.50 285.01 30.45L285.01 30.45Q285.01 29.52 284.77 28.99Q284.53 28.47 283.97 28.13Q283.41 27.79 282.51 27.53L282.51 27.53L277.27 25.74Q274.28 24.69 273.06 22.93Q271.85 21.17 271.85 18.26L271.85 18.26Q271.85 16.05 272.39 14.63Q272.93 13.21 274.05 12.44Q275.18 11.67 276.99 11.37Q278.81 11.07 281.35 11.07ZM300.58 11.56L306.26 11.56L306.26 37.37L300.58 37.37L300.58 11.56ZM292.80 11.56L314.04 11.56L314.04 16.05L292.80 16.05L292.80 11.56ZM325.79 11.07L325.79 11.07Q327.70 11.07 329.94 11.28Q332.19 11.48 334.32 12.08L334.32 12.08L333.95 15.90Q332.30 15.82 330.09 15.79Q327.89 15.75 325.75 15.75L325.75 15.75Q324.71 15.75 323.98 15.82Q323.25 15.90 322.80 16.12Q322.35 16.35 322.16 16.85Q321.97 17.36 321.97 18.22L321.97 18.22Q321.97 19.53 322.59 20.13Q323.21 20.72 324.71 21.21L324.71 21.21L329.68 22.82Q332.79 23.87 333.98 25.66Q335.18 27.46 335.18 30.38L335.18 30.38Q335.18 32.58 334.66 34.04Q334.13 35.50 333.01 36.32Q331.89 37.15 330.05 37.50Q328.22 37.86 325.57 37.86L325.57 37.86Q324.29 37.86 321.94 37.69Q319.58 37.52 316.59 36.85L316.59 36.85L316.92 32.81Q319.17 32.84 320.78 32.90Q322.39 32.96 323.55 32.98Q324.71 32.99 325.57 32.99L325.57 32.99Q327.10 32.99 327.94 32.81Q328.78 32.62 329.12 32.06Q329.46 31.50 329.46 30.45L329.46 30.45Q329.46 29.52 329.21 28.99Q328.97 28.47 328.41 28.13Q327.85 27.79 326.95 27.53L326.95 27.53L321.71 25.74Q318.72 24.69 317.50 22.93Q316.29 21.17 316.29 18.26L316.29 18.26Q316.29 16.05 316.83 14.63Q317.37 13.21 318.50 12.44Q319.62 11.67 321.43 11.37Q323.25 11.07 325.79 11.07Z" transform="translate(0, 0)"></path></g></svg></g></svg>