<svg viewBox="0 0 575 575" class="roots-wrapper"><g transform="rotate(0 0 0)"><svg viewBoxSize="575" data-root-id="5705211700978" xmlns="http://www.w3.org/2000/svg" xmlns:xlink="http://www.w3.org/1999/xlink" version="1.1" id="Layer_1" x="36.579986572265625" y="254.80800897216798" viewBox="251.8000030517578 709 1496.39990234375 582" xml:space="preserve" height="65.38354590058215" width="168.10986328125" preserveAspectRatio="xMinYMin" zoom="1" editorType="buyer" data-layer-role="icon" style="position: absolute; height: 65.3835px; width: 168.11px; top: 254.808px; left: 36.58px;"><polygon id="XMLID_129_" points="685.1,1286.4 668.1,1286.4 668.1,1011.7 948.9,762 1225.5,1018.2 1225.5,1285.1 1208.5,1285.1    1208.5,1025.7 948.7,784.9 685.1,1019.4  " name="Layer %{number}" zoom="1" data-layer-id="7529790300978" style="fill: rgb(236, 231, 54); fill-opacity: 1;"></polygon><polygon id="XMLID_128_" points="1120.8,1286.4 1103.9,1286.4 1103.9,1012.6 1294,873.1 1597.4,1072.5 1502.9,1072.5    1502.9,1285.1 1486,1285.1 1486,1055.5 1540.7,1055.5 1294.5,893.7 1120.8,1021.2  " name="Layer %{number}" zoom="1" data-layer-id="5955223800978" style="fill: rgb(236, 231, 54); fill-opacity: 1;"></polygon><polygon id="XMLID_127_" points="409,1285.1 392,1285.1 392,1073.8 298,1074.3 416.2,1002.6 416.2,928.4 500.6,928.4 500.6,952.2    633.1,872.9 791.1,1013 791.1,1283.8 774.1,1283.8 774.1,1020.7 631.1,893.9 483.6,982.1 483.6,945.4 433.2,945.4 433.2,1012.2    358.3,1057 409,1056.7  " name="Layer %{number}" zoom="1" data-layer-id="8656986400978" style="fill: rgb(236, 231, 54); fill-opacity: 1;"></polygon><path id="XMLID_124_" d="M1007.3,1064.6H889.1V946.3h118.3V1064.6z M902.6,1051h91.1v-91.1h-91.1V1051z" name="Layer %{number}" zoom="1" data-layer-id="1602801600978" style="fill: rgb(236, 231, 54); fill-opacity: 1;"></path><rect id="XMLID_123_" x="893.6" y="998.3" width="105.7" height="13.6" name="Layer %{number}" zoom="1" data-layer-id="4443085600978" style="fill: rgb(236, 231, 54); fill-opacity: 1;"></rect><rect id="XMLID_122_" x="941.9" y="953" width="13.6" height="103.3" name="Layer %{number}" zoom="1" data-layer-id="8258962200978" style="fill: rgb(236, 231, 54); fill-opacity: 1;"></rect><rect id="XMLID_121_" x="251.8" y="1274" width="1484.4" height="17" name="Layer %{number}" zoom="1" data-layer-id="1555687400978" style="fill: rgb(236, 231, 54); fill-opacity: 1;"></rect><path id="XMLID_118_" d="M1163.6,832.4c-20.5,0-37.1-16.7-37.1-37.1s16.7-37.1,37.1-37.1c20.5,0,37.1,16.7,37.1,37.1    S1184,832.4,1163.6,832.4z M1163.6,771.7c-13,0-23.6,10.6-23.6,23.6c0,13,10.6,23.6,23.6,23.6c13,0,23.6-10.6,23.6-23.6    C1187.1,782.3,1176.6,771.7,1163.6,771.7z" name="Layer %{number}" zoom="1" data-layer-id="6743740600978" style="fill: rgb(236, 231, 54); fill-opacity: 1;"></path><path id="XMLID_117_" d="M1163.6,752.3c-3.7,0-6.8-3-6.8-6.8v-29.7c0-3.7,3-6.8,6.8-6.8s6.8,3,6.8,6.8v29.7      C1170.4,749.3,1167.3,752.3,1163.6,752.3z" name="Layer %{number}" zoom="1" data-layer-id="8362712600978" style="fill: rgb(236, 231, 54); fill-opacity: 1;"></path><path id="XMLID_116_" d="M1163.6,882.9c-3.7,0-6.8-3-6.8-6.8v-29.7c0-3.7,3-6.8,6.8-6.8s6.8,3,6.8,6.8v29.7      C1170.4,879.9,1167.3,882.9,1163.6,882.9z" name="Layer %{number}" zoom="1" data-layer-id="4222200600978" style="fill: rgb(236, 231, 54); fill-opacity: 1;"></path><path id="XMLID_115_" d="M1199.2,767.1c-1.7,0-3.5-0.7-4.8-2c-2.7-2.7-2.7-6.9,0-9.6l21-21c2.6-2.7,6.9-2.7,9.6,0      c2.7,2.7,2.7,6.9,0,9.6l-21,21C1202.7,766.4,1201,767.1,1199.2,767.1z" name="Layer %{number}" zoom="1" data-layer-id="6131922900978" style="fill: rgb(236, 231, 54); fill-opacity: 1;"></path><path id="XMLID_114_" d="M1106.9,859.4c-1.7,0-3.5-0.7-4.8-2c-2.7-2.7-2.7-6.9,0-9.6l21-21c2.7-2.7,7-2.7,9.6,0      c2.7,2.7,2.7,6.9,0,9.6l-21,21C1110.4,858.8,1108.6,859.4,1106.9,859.4z" name="Layer %{number}" zoom="1" data-layer-id="6509656600978" style="fill: rgb(236, 231, 54); fill-opacity: 1;"></path><path id="XMLID_113_" d="M1113.1,802.7h-29.7c-3.7,0-6.8-3-6.8-6.8c0-3.7,3-6.8,6.8-6.8h29.7c3.7,0,6.8,3,6.8,6.8      C1119.9,799.7,1116.9,802.7,1113.1,802.7z" name="Layer %{number}" zoom="1" data-layer-id="6269833900978" style="fill: rgb(236, 231, 54); fill-opacity: 1;"></path><path id="XMLID_112_" d="M1243.7,802.7H1214c-3.7,0-6.8-3-6.8-6.8c0-3.7,3-6.8,6.8-6.8h29.7c3.7,0,6.8,3,6.8,6.8      C1250.5,799.7,1247.5,802.7,1243.7,802.7z" name="Layer %{number}" zoom="1" data-layer-id="9143257800978" style="fill: rgb(236, 231, 54); fill-opacity: 1;"></path><path id="XMLID_111_" d="M1220.2,859.4c-1.7,0-3.5-0.7-4.8-2l-21-21c-2.7-2.7-2.7-6.9,0-9.6c2.6-2.7,7-2.7,9.6,0l21,21      c2.7,2.7,2.7,6.9,0,9.6C1223.7,858.8,1222,859.4,1220.2,859.4z" name="Layer %{number}" zoom="1" data-layer-id="0819283900978" style="fill: rgb(236, 231, 54); fill-opacity: 1;"></path><path id="XMLID_110_" d="M1127.9,767.1c-1.7,0-3.5-0.7-4.8-2l-21-21c-2.7-2.7-2.7-6.9,0-9.6c2.6-2.7,6.9-2.7,9.6,0l21,21      c2.7,2.7,2.7,6.9,0,9.6C1131.4,766.4,1129.6,767.1,1127.9,767.1z" name="Layer %{number}" zoom="1" data-layer-id="0512159600978" style="fill: rgb(236, 231, 54); fill-opacity: 1;"></path><path id="XMLID_109_" d="M1652,1287.6c-3.7,0-6.8-3-6.8-6.8v-223.1c0-3.7,3-6.8,6.8-6.8s6.8,3,6.8,6.8v223.1   C1658.7,1284.6,1655.7,1287.6,1652,1287.6z" name="Layer %{number}" zoom="1" data-layer-id="8162984300978" style="fill: rgb(236, 231, 54); fill-opacity: 1;"></path><path id="XMLID_108_" d="M1654.1,1183.9c-1.7,0-3.4-0.6-4.7-1.9c-2.7-2.6-2.8-6.9-0.2-9.6l54.4-56.5c2.6-2.7,6.9-2.8,9.6-0.2   c2.7,2.6,2.8,6.9,0.2,9.6l-54.4,56.5C1657.6,1183.2,1655.8,1183.9,1654.1,1183.9z" name="Layer %{number}" zoom="1" data-layer-id="0587732700978" style="fill: rgb(236, 231, 54); fill-opacity: 1;"></path><path id="XMLID_107_" d="M1650.4,1208.6c-1.7,0-3.4-0.6-4.7-1.9l-54-51.7c-2.7-2.6-2.8-6.9-0.2-9.6c2.6-2.7,6.9-2.8,9.6-0.2   l54,51.7c2.7,2.6,2.8,6.9,0.2,9.6C1654,1207.9,1652.2,1208.6,1650.4,1208.6z" name="Layer %{number}" zoom="1" data-layer-id="1003749500978" style="fill: rgb(236, 231, 54); fill-opacity: 1;"></path><path id="XMLID_104_" d="M1711.2,1154.7c-20.4,0-37-16.6-37-37c0-20.4,16.6-37,37-37c20.4,0,37,16.6,37,37   C1748.2,1138.1,1731.6,1154.7,1711.2,1154.7z M1711.2,1094.3c-12.9,0-23.4,10.5-23.4,23.4s10.5,23.4,23.4,23.4   c12.9,0,23.4-10.5,23.4-23.4S1724.1,1094.3,1711.2,1094.3z" name="Layer %{number}" zoom="1" data-layer-id="6654197700978" style="fill: rgb(236, 231, 54); fill-opacity: 1;"></path><path id="XMLID_101_" d="M1652,1089.8c-20.4,0-37-16.6-37-37c0-20.4,16.6-37,37-37c20.4,0,37,16.6,37,37   C1689,1073.2,1672.4,1089.8,1652,1089.8z M1652,1029.4c-12.9,0-23.4,10.5-23.4,23.4s10.5,23.4,23.4,23.4   c12.9,0,23.4-10.5,23.4-23.4S1664.9,1029.4,1652,1029.4z" name="Layer %{number}" zoom="1" data-layer-id="2863862500978" style="fill: rgb(236, 231, 54); fill-opacity: 1;"></path><path id="XMLID_97_" d="M1596.5,1185.6c-20.4,0-37-16.6-37-37s16.6-37,37-37c20.4,0,37,16.6,37,37S1616.9,1185.6,1596.5,1185.6z    M1596.5,1125.2c-12.9,0-23.4,10.5-23.4,23.4s10.5,23.4,23.4,23.4c12.9,0,23.4-10.5,23.4-23.4S1609.4,1125.2,1596.5,1125.2z" name="Layer %{number}" zoom="1" data-layer-id="0549236900978" style="fill: rgb(236, 231, 54); fill-opacity: 1;"></path></svg></g><g transform="rotate(0 0 0)"><svg viewBoxSize="575" data-root-id="5634447800978" xmlns="http://www.w3.org/2000/svg" x="222.07998657226562" y="310.64200897216796" viewBox="4.159999847412109 4.470000267028809 274.7099914550781 9.550000190734863" height="9.550000190734863" width="274.7099914550781" fontUrl="https://fonts.gstatic.com/s/opensans/v40/memSYaGs126MiZpBA-UvWbX2vVnXBbObj2OVZyOOSr4dVJWUgsjr0C4nY1M2xLER.ttf" zoom="1" editorType="buyer" data-layer-role="slogan" style="position: absolute; top: 310.642px; left: 222.08px; width: 274.71px; height: 9.55px;"><g data-horizontal-grow="left" data-vertical-center="false" zoom="1" root="[object Object]" style="fill: rgb(255, 255, 255); fill-opacity: 1;"><path d="M5.58 4.61L7.90 9.06L10.24 4.61L11.63 4.61L8.55 10.29L8.55 13.90L7.25 13.90L7.25 10.35L4.16 4.61L5.58 4.61ZM21.80 9.24L21.80 9.24Q21.80 10.31 21.53 11.19Q21.26 12.07 20.72 12.70Q20.18 13.34 19.38 13.68Q18.58 14.02 17.51 14.02L17.51 14.02Q16.41 14.02 15.60 13.68Q14.79 13.34 14.26 12.70Q13.73 12.07 13.47 11.18Q13.20 10.30 13.20 9.23L13.20 9.23Q13.20 7.80 13.67 6.73Q14.14 5.66 15.10 5.06Q16.06 4.47 17.52 4.47L17.52 4.47Q18.93 4.47 19.89 5.06Q20.84 5.65 21.32 6.72Q21.80 7.79 21.80 9.24ZM14.57 9.24L14.57 9.24Q14.57 10.37 14.88 11.19Q15.19 12.02 15.85 12.46Q16.50 12.91 17.51 12.91L17.51 12.91Q18.53 12.91 19.17 12.46Q19.82 12.02 20.13 11.19Q20.43 10.37 20.43 9.24L20.43 9.24Q20.43 7.53 19.73 6.56Q19.04 5.59 17.52 5.59L17.52 5.59Q16.51 5.59 15.85 6.03Q15.20 6.47 14.88 7.29Q14.57 8.11 14.57 9.24ZM30.47 4.61L31.76 4.61L31.76 10.62Q31.76 11.60 31.36 12.37Q30.96 13.13 30.14 13.58Q29.33 14.02 28.10 14.02L28.10 14.02Q26.35 14.02 25.44 13.09Q24.52 12.15 24.52 10.59L24.52 10.59L24.52 4.61L25.83 4.61L25.83 10.54Q25.83 11.72 26.41 12.31Q27.00 12.91 28.16 12.91L28.16 12.91Q28.96 12.91 29.47 12.62Q29.98 12.33 30.22 11.80Q30.47 11.27 30.47 10.54L30.47 10.54L30.47 4.61ZM34.95 4.61L37.51 4.61Q38.69 4.61 39.45 4.90Q40.22 5.19 40.59 5.78Q40.96 6.37 40.96 7.27L40.96 7.27Q40.96 7.98 40.70 8.47Q40.44 8.96 40.02 9.27Q39.60 9.58 39.12 9.76L39.12 9.76L41.71 13.90L40.22 13.90L37.96 10.10L36.25 10.10L36.25 13.90L34.95 13.90L34.95 4.61ZM37.43 5.72L37.43 5.72L36.25 5.72L36.25 9.01L37.52 9.01Q38.62 9.01 39.12 8.59Q39.63 8.16 39.63 7.32L39.63 7.32Q39.63 6.45 39.09 6.08Q38.55 5.72 37.43 5.72ZM52.01 5.60L52.01 5.60Q51.30 5.60 50.73 5.86Q50.16 6.11 49.77 6.59Q49.37 7.06 49.16 7.74Q48.95 8.41 48.95 9.25L48.95 9.25Q48.95 10.38 49.29 11.20Q49.62 12.02 50.29 12.46Q50.97 12.90 51.99 12.90L51.99 12.90Q52.60 12.90 53.15 12.79Q53.71 12.68 54.26 12.50L54.26 12.50L54.26 13.62Q53.73 13.83 53.16 13.92Q52.59 14.02 51.83 14.02L51.83 14.02Q50.41 14.02 49.47 13.43Q48.52 12.84 48.06 11.77Q47.60 10.70 47.60 9.25L47.60 9.25Q47.60 8.19 47.89 7.32Q48.18 6.45 48.75 5.81Q49.31 5.17 50.13 4.83Q50.95 4.48 52.03 4.48L52.03 4.48Q52.73 4.48 53.39 4.63Q54.05 4.78 54.61 5.05L54.61 5.05L54.13 6.13Q53.66 5.92 53.13 5.76Q52.60 5.60 52.01 5.60ZM65.19 9.24L65.19 9.24Q65.19 10.31 64.92 11.19Q64.65 12.07 64.11 12.70Q63.57 13.34 62.77 13.68Q61.97 14.02 60.89 14.02L60.89 14.02Q59.80 14.02 58.99 13.68Q58.18 13.34 57.65 12.70Q57.12 12.07 56.85 11.18Q56.59 10.30 56.59 9.23L56.59 9.23Q56.59 7.80 57.06 6.73Q57.53 5.66 58.49 5.06Q59.45 4.47 60.91 4.47L60.91 4.47Q62.32 4.47 63.27 5.06Q64.23 5.65 64.71 6.72Q65.19 7.79 65.19 9.24ZM57.96 9.24L57.96 9.24Q57.96 10.37 58.27 11.19Q58.58 12.02 59.23 12.46Q59.88 12.91 60.89 12.91L60.89 12.91Q61.92 12.91 62.56 12.46Q63.21 12.02 63.52 11.19Q63.82 10.37 63.82 9.24L63.82 9.24Q63.82 7.53 63.12 6.56Q62.42 5.59 60.91 5.59L60.91 5.59Q59.90 5.59 59.24 6.03Q58.59 6.47 58.27 7.29Q57.96 8.11 57.96 9.24ZM73.15 13.90L72.04 13.90L69.15 5.92L69.09 5.92Q69.11 6.18 69.14 6.59Q69.16 7.00 69.17 7.47Q69.19 7.95 69.19 8.42L69.19 8.42L69.19 13.90L68.00 13.90L68.00 4.61L69.87 4.61L72.62 12.17L72.66 12.17L75.48 4.61L77.34 4.61L77.34 13.90L76.08 13.90L76.08 8.34Q76.08 7.92 76.10 7.47Q76.11 7.01 76.13 6.60Q76.15 6.20 76.17 5.93L76.17 5.93L76.12 5.93L73.15 13.90ZM80.61 4.61L83.17 4.61Q84.96 4.61 85.79 5.33Q86.62 6.05 86.62 7.37L86.62 7.37Q86.62 7.97 86.43 8.50Q86.24 9.04 85.81 9.45Q85.38 9.86 84.68 10.10Q83.99 10.33 82.97 10.33L82.97 10.33L81.91 10.33L81.91 13.90L80.61 13.90L80.61 4.61ZM83.06 5.71L83.06 5.71L81.91 5.71L81.91 9.24L82.83 9.24Q83.64 9.24 84.18 9.05Q84.73 8.87 85.01 8.47Q85.29 8.07 85.29 7.42L85.29 7.42Q85.29 6.56 84.75 6.13Q84.21 5.71 83.06 5.71ZM94.63 13.90L89.30 13.90L89.30 4.61L90.60 4.61L90.60 12.77L94.63 12.77L94.63 13.90ZM102.21 12.77L102.21 13.90L97.00 13.90L97.00 4.61L102.21 4.61L102.21 5.73L98.30 5.73L98.30 8.49L101.98 8.49L101.98 9.60L98.30 9.60L98.30 12.77L102.21 12.77ZM108.05 5.74L108.05 13.90L106.75 13.90L106.75 5.74L103.93 5.74L103.93 4.61L110.87 4.61L110.87 5.74L108.05 5.74ZM118.27 12.77L118.27 13.90L113.05 13.90L113.05 4.61L118.27 4.61L118.27 5.73L114.36 5.73L114.36 8.49L118.03 8.49L118.03 9.60L114.36 9.60L114.36 12.77L118.27 12.77ZM132.41 4.61L132.41 13.90L131.11 13.90L131.11 9.61L126.53 9.61L126.53 13.90L125.23 13.90L125.23 4.61L126.53 4.61L126.53 8.49L131.11 8.49L131.11 4.61L132.41 4.61ZM142.84 13.90L141.47 13.90L140.44 11.13L136.81 11.13L135.79 13.90L134.44 13.90L137.98 4.58L139.31 4.58L142.84 13.90ZM137.21 10.00L140.08 10.00L139.10 7.27Q139.06 7.13 138.97 6.85Q138.87 6.57 138.78 6.27Q138.69 5.97 138.63 5.78L138.63 5.78Q138.57 6.04 138.49 6.33Q138.40 6.61 138.33 6.86Q138.25 7.12 138.20 7.27L138.20 7.27L137.21 10.00ZM152.38 4.61L152.38 13.90L150.81 13.90L146.01 6.29L145.96 6.29Q145.98 6.63 146.00 7.04Q146.03 7.45 146.04 7.90Q146.06 8.35 146.07 8.80L146.07 8.80L146.07 13.90L144.87 13.90L144.87 4.61L146.42 4.61L151.21 12.18L151.25 12.18Q151.24 11.90 151.22 11.49Q151.20 11.08 151.19 10.62Q151.17 10.16 151.17 9.74L151.17 9.74L151.17 4.61L152.38 4.61ZM163.09 9.17L163.09 9.17Q163.09 10.73 162.51 11.78Q161.93 12.83 160.84 13.36Q159.74 13.90 158.18 13.90L158.18 13.90L155.64 13.90L155.64 4.61L158.47 4.61Q159.89 4.61 160.92 5.13Q161.96 5.65 162.52 6.66Q163.09 7.67 163.09 9.17ZM161.72 9.20L161.72 9.20Q161.72 8.01 161.34 7.24Q160.95 6.46 160.20 6.08Q159.45 5.71 158.37 5.71L158.37 5.71L156.94 5.71L156.94 12.79L158.14 12.79Q159.93 12.79 160.83 11.89Q161.72 10.99 161.72 9.20ZM166.08 4.61L168.40 9.06L170.74 4.61L172.13 4.61L169.05 10.29L169.05 13.90L167.75 13.90L167.75 10.35L164.66 4.61L166.08 4.61ZM179.31 13.90L178.20 13.90L175.31 5.92L175.26 5.92Q175.28 6.18 175.30 6.59Q175.32 7.00 175.34 7.47Q175.35 7.95 175.35 8.42L175.35 8.42L175.35 13.90L174.16 13.90L174.16 4.61L176.03 4.61L178.78 12.17L178.82 12.17L181.64 4.61L183.50 4.61L183.50 13.90L182.25 13.90L182.25 8.34Q182.25 7.92 182.26 7.47Q182.27 7.01 182.29 6.60Q182.31 6.20 182.33 5.93L182.33 5.93L182.28 5.93L179.31 13.90ZM193.92 13.90L192.56 13.90L191.53 11.13L187.89 11.13L186.88 13.90L185.53 13.90L189.07 4.58L190.40 4.58L193.92 13.90ZM188.29 10.00L191.17 10.00L190.19 7.27Q190.15 7.13 190.06 6.85Q189.96 6.57 189.87 6.27Q189.78 5.97 189.72 5.78L189.72 5.78Q189.66 6.04 189.58 6.33Q189.49 6.61 189.41 6.86Q189.33 7.12 189.28 7.27L189.28 7.27L188.29 10.00ZM203.46 4.61L203.46 13.90L201.90 13.90L197.10 6.29L197.05 6.29Q197.07 6.63 197.09 7.04Q197.12 7.45 197.13 7.90Q197.15 8.35 197.15 8.80L197.15 8.80L197.15 13.90L195.96 13.90L195.96 4.61L197.51 4.61L202.30 12.18L202.34 12.18Q202.33 11.90 202.31 11.49Q202.29 11.08 202.27 10.62Q202.26 10.16 202.26 9.74L202.26 9.74L202.26 4.61L203.46 4.61ZM216.18 11.40L216.18 11.40Q216.18 12.23 215.77 12.81Q215.36 13.40 214.62 13.71Q213.88 14.02 212.86 14.02L212.86 14.02Q212.34 14.02 211.88 13.97Q211.41 13.91 211.01 13.81Q210.61 13.71 210.29 13.56L210.29 13.56L210.29 12.33Q210.81 12.54 211.50 12.73Q212.20 12.92 212.93 12.92L212.93 12.92Q213.57 12.92 214.01 12.74Q214.44 12.57 214.67 12.25Q214.89 11.93 214.89 11.49L214.89 11.49Q214.89 11.04 214.67 10.74Q214.46 10.44 213.99 10.19Q213.52 9.93 212.77 9.65L212.77 9.65Q212.24 9.46 211.81 9.21Q211.38 8.97 211.06 8.65Q210.75 8.33 210.58 7.91Q210.41 7.48 210.41 6.92L210.41 6.92Q210.41 6.15 210.78 5.60Q211.16 5.06 211.84 4.77Q212.52 4.48 213.42 4.48L213.42 4.48Q214.15 4.48 214.79 4.63Q215.43 4.77 216.01 5.03L216.01 5.03L215.59 6.11Q215.05 5.88 214.51 5.74Q213.96 5.60 213.38 5.60L213.38 5.60Q212.84 5.60 212.47 5.76Q212.10 5.92 211.90 6.21Q211.71 6.51 211.71 6.91L211.71 6.91Q211.71 7.36 211.91 7.66Q212.11 7.95 212.55 8.19Q212.99 8.44 213.69 8.71L213.69 8.71Q214.49 9.01 215.04 9.36Q215.60 9.70 215.89 10.18Q216.18 10.66 216.18 11.40ZM226.94 9.24L226.94 9.24Q226.94 10.31 226.67 11.19Q226.40 12.07 225.86 12.70Q225.32 13.34 224.52 13.68Q223.72 14.02 222.64 14.02L222.64 14.02Q221.55 14.02 220.74 13.68Q219.93 13.34 219.40 12.70Q218.87 12.07 218.60 11.18Q218.34 10.30 218.34 9.23L218.34 9.23Q218.34 7.80 218.81 6.73Q219.28 5.66 220.24 5.06Q221.20 4.47 222.66 4.47L222.66 4.47Q224.07 4.47 225.02 5.06Q225.98 5.65 226.46 6.72Q226.94 7.79 226.94 9.24ZM219.71 9.24L219.71 9.24Q219.71 10.37 220.02 11.19Q220.33 12.02 220.98 12.46Q221.63 12.91 222.64 12.91L222.64 12.91Q223.67 12.91 224.31 12.46Q224.96 12.02 225.27 11.19Q225.57 10.37 225.57 9.24L225.57 9.24Q225.57 7.53 224.87 6.56Q224.17 5.59 222.66 5.59L222.66 5.59Q221.65 5.59 220.99 6.03Q220.34 6.47 220.02 7.29Q219.71 8.11 219.71 9.24ZM235.08 13.90L229.75 13.90L229.75 4.61L231.05 4.61L231.05 12.77L235.08 12.77L235.08 13.90ZM243.31 4.61L244.61 4.61L244.61 10.62Q244.61 11.60 244.20 12.37Q243.80 13.13 242.99 13.58Q242.17 14.02 240.94 14.02L240.94 14.02Q239.20 14.02 238.28 13.09Q237.36 12.15 237.36 10.59L237.36 10.59L237.36 4.61L238.67 4.61L238.67 10.54Q238.67 11.72 239.26 12.31Q239.84 12.91 241.01 12.91L241.01 12.91Q241.81 12.91 242.31 12.62Q242.82 12.33 243.07 11.80Q243.31 11.27 243.31 10.54L243.31 10.54L243.31 4.61ZM250.83 5.74L250.83 13.90L249.52 13.90L249.52 5.74L246.71 5.74L246.71 4.61L253.64 4.61L253.64 5.74L250.83 5.74ZM257.13 13.90L255.83 13.90L255.83 4.61L257.13 4.61L257.13 13.90ZM268.56 9.24L268.56 9.24Q268.56 10.31 268.29 11.19Q268.01 12.07 267.48 12.70Q266.94 13.34 266.14 13.68Q265.33 14.02 264.26 14.02L264.26 14.02Q263.17 14.02 262.36 13.68Q261.55 13.34 261.02 12.70Q260.48 12.07 260.22 11.18Q259.96 10.30 259.96 9.23L259.96 9.23Q259.96 7.80 260.43 6.73Q260.90 5.66 261.86 5.06Q262.82 4.47 264.28 4.47L264.28 4.47Q265.69 4.47 266.64 5.06Q267.59 5.65 268.08 6.72Q268.56 7.79 268.56 9.24ZM261.32 9.24L261.32 9.24Q261.32 10.37 261.64 11.19Q261.95 12.02 262.60 12.46Q263.25 12.91 264.26 12.91L264.26 12.91Q265.28 12.91 265.93 12.46Q266.58 12.02 266.88 11.19Q267.19 10.37 267.19 9.24L267.19 9.24Q267.19 7.53 266.49 6.56Q265.79 5.59 264.28 5.59L264.28 5.59Q263.27 5.59 262.61 6.03Q261.96 6.47 261.64 7.29Q261.32 8.11 261.32 9.24ZM278.87 4.61L278.87 13.90L277.31 13.90L272.50 6.29L272.45 6.29Q272.47 6.63 272.49 7.04Q272.52 7.45 272.54 7.90Q272.55 8.35 272.56 8.80L272.56 8.80L272.56 13.90L271.36 13.90L271.36 4.61L272.91 4.61L277.70 12.18L277.74 12.18Q277.73 11.90 277.71 11.49Q277.69 11.08 277.68 10.62Q277.66 10.16 277.66 9.74L277.66 9.74L277.66 4.61L278.87 4.61Z" transform="translate(0, 0)"></path></g></svg></g><g transform="rotate(0 0 0)"><svg viewBoxSize="575" data-root-id="8748798700978" xmlns="http://www.w3.org/2000/svg" x="222.07998657226562" y="274.595008972168" viewBox="0.42000001668930054 12.380000114440918 316.3399963378906 26.450000762939453" height="26.450000762939453" width="316.3399963378906" fontUrl="https://fonts.gstatic.com/s/opensans/v40/memSYaGs126MiZpBA-UvWbX2vVnXBbObj2OVZyOOSr4dVJWUgsjr0C4nY1M2xLER.ttf" zoom="1" editorType="buyer" data-layer-role="brandName" style="position: absolute; top: 274.595px; left: 222.08px; width: 316.34px; height: 26.45px;"><g data-horizontal-grow="left" data-vertical-center="false" zoom="1" root="[object Object]" style="fill: rgb(255, 255, 255); fill-opacity: 1;"><path d="M11.85 15.89L11.85 38.48L8.23 38.48L8.23 15.89L0.42 15.89L0.42 12.78L19.63 12.78L19.63 15.89L11.85 15.89ZM46.09 25.59L46.09 25.59Q46.09 28.56 45.33 31.00Q44.58 33.43 43.09 35.18Q41.61 36.93 39.38 37.88Q37.16 38.83 34.19 38.83L34.19 38.83Q31.17 38.83 28.92 37.88Q26.68 36.93 25.21 35.17Q23.73 33.42 23.00 30.97Q22.27 28.53 22.27 25.56L22.27 25.56Q22.27 21.60 23.57 18.63Q24.87 15.66 27.54 14.02Q30.20 12.38 34.24 12.38L34.24 12.38Q38.14 12.38 40.78 14.01Q43.42 15.64 44.75 18.61Q46.09 21.57 46.09 25.59ZM26.05 25.59L26.05 25.59Q26.05 28.72 26.92 31.00Q27.79 33.28 29.59 34.51Q31.39 35.75 34.19 35.75L34.19 35.75Q37.02 35.75 38.81 34.51Q40.61 33.28 41.45 31.00Q42.29 28.72 42.29 25.59L42.29 25.59Q42.29 20.85 40.36 18.17Q38.43 15.49 34.24 15.49L34.24 15.49Q31.43 15.49 29.62 16.71Q27.81 17.93 26.93 20.19Q26.05 22.45 26.05 25.59ZM60.10 15.89L60.10 38.48L56.48 38.48L56.48 15.89L48.67 15.89L48.67 12.78L67.89 12.78L67.89 15.89L60.10 15.89ZM91.60 38.48L87.82 38.48L84.97 30.83L74.90 30.83L72.09 38.48L68.34 38.48L78.15 12.67L81.84 12.67L91.60 38.48ZM76.01 27.70L83.97 27.70L81.26 20.13Q81.14 19.74 80.89 18.97Q80.63 18.19 80.38 17.37Q80.12 16.54 79.96 16.00L79.96 16.00Q79.79 16.72 79.56 17.52Q79.33 18.32 79.11 19.01Q78.89 19.71 78.75 20.13L78.75 20.13L76.01 27.70ZM109.85 38.48L95.08 38.48L95.08 12.78L98.68 12.78L98.68 35.35L109.85 35.35L109.85 38.48ZM128.94 31.57L128.94 31.57Q128.94 33.86 127.80 35.48Q126.67 37.11 124.61 37.97Q122.55 38.83 119.72 38.83L119.72 38.83Q118.30 38.83 117.01 38.68Q115.72 38.53 114.61 38.25Q113.50 37.97 112.61 37.55L112.61 37.55L112.61 34.14Q114.06 34.73 115.98 35.25Q117.90 35.77 119.94 35.77L119.94 35.77Q121.71 35.77 122.92 35.29Q124.12 34.80 124.73 33.93Q125.35 33.05 125.35 31.82L125.35 31.82Q125.35 30.59 124.75 29.75Q124.15 28.92 122.86 28.21Q121.57 27.51 119.48 26.72L119.48 26.72Q118.02 26.19 116.82 25.51Q115.63 24.84 114.76 23.96Q113.89 23.08 113.41 21.89Q112.94 20.71 112.94 19.16L112.94 19.16Q112.94 17.03 113.99 15.52Q115.03 14.01 116.91 13.21Q118.79 12.41 121.27 12.41L121.27 12.41Q123.31 12.41 125.08 12.81Q126.84 13.22 128.44 13.92L128.44 13.92L127.30 16.91Q125.81 16.29 124.29 15.91Q122.78 15.52 121.17 15.52L121.17 15.52Q119.67 15.52 118.64 15.96Q117.62 16.40 117.08 17.21Q116.54 18.02 116.54 19.13L116.54 19.13Q116.54 20.37 117.11 21.20Q117.67 22.03 118.88 22.69Q120.09 23.36 122.04 24.12L122.04 24.12Q124.24 24.96 125.78 25.91Q127.32 26.86 128.13 28.20Q128.94 29.53 128.94 31.57ZM134.02 12.78L141.10 12.78Q146.07 12.78 148.37 14.77Q150.66 16.75 150.66 20.41L150.66 20.41Q150.66 22.06 150.13 23.55Q149.61 25.03 148.42 26.17Q147.23 27.30 145.30 27.96Q143.37 28.62 140.55 28.62L140.55 28.62L137.62 28.62L137.62 38.48L134.02 38.48L134.02 12.78ZM140.82 15.80L140.82 15.80L137.62 15.80L137.62 25.58L140.17 25.58Q142.40 25.58 143.91 25.08Q145.42 24.57 146.20 23.47Q146.97 22.36 146.97 20.55L146.97 20.55Q146.97 18.16 145.48 16.98Q143.98 15.80 140.82 15.80ZM170.35 35.37L170.35 38.48L155.92 38.48L155.92 12.78L170.35 12.78L170.35 15.87L159.52 15.87L159.52 23.52L169.70 23.52L169.70 26.58L159.52 26.58L159.52 35.37L170.35 35.37ZM186.93 15.52L186.93 15.52Q184.94 15.52 183.37 16.22Q181.79 16.91 180.70 18.24Q179.61 19.56 179.03 21.43Q178.45 23.29 178.45 25.63L178.45 25.63Q178.45 28.74 179.38 31.01Q180.30 33.28 182.16 34.51Q184.03 35.74 186.86 35.74L186.86 35.74Q188.54 35.74 190.08 35.43Q191.62 35.12 193.15 34.63L193.15 34.63L193.15 37.72Q191.67 38.29 190.10 38.56Q188.53 38.83 186.42 38.83L186.42 38.83Q182.48 38.83 179.87 37.20Q177.26 35.56 175.97 32.60Q174.69 29.64 174.69 25.61L174.69 25.61Q174.69 22.69 175.50 20.28Q176.31 17.86 177.87 16.09Q179.44 14.33 181.71 13.37Q183.99 12.41 186.96 12.41L186.96 12.41Q188.89 12.41 190.73 12.82Q192.57 13.24 194.12 13.97L194.12 13.97L192.78 16.98Q191.50 16.40 190.03 15.96Q188.56 15.52 186.93 15.52ZM202.31 38.48L198.70 38.48L198.70 12.78L202.31 12.78L202.31 38.48ZM229.04 38.48L225.26 38.48L222.42 30.83L212.34 30.83L209.53 38.48L205.79 38.48L215.60 12.67L219.29 12.67L229.04 38.48ZM213.45 27.70L221.41 27.70L218.71 20.13Q218.58 19.74 218.33 18.97Q218.07 18.19 217.82 17.37Q217.56 16.54 217.41 16.00L217.41 16.00Q217.23 16.72 217.00 17.52Q216.77 18.32 216.55 19.01Q216.33 19.71 216.19 20.13L216.19 20.13L213.45 27.70ZM247.29 38.48L232.52 38.48L232.52 12.78L236.13 12.78L236.13 35.35L247.29 35.35L247.29 38.48ZM255.30 38.48L251.70 38.48L251.70 12.78L255.30 12.78L255.30 38.48ZM276.91 31.57L276.91 31.57Q276.91 33.86 275.77 35.48Q274.64 37.11 272.58 37.97Q270.53 38.83 267.70 38.83L267.70 38.83Q266.27 38.83 264.98 38.68Q263.69 38.53 262.58 38.25Q261.47 37.97 260.58 37.55L260.58 37.55L260.58 34.14Q262.04 34.73 263.95 35.25Q265.87 35.77 267.91 35.77L267.91 35.77Q269.68 35.77 270.89 35.29Q272.09 34.80 272.71 33.93Q273.32 33.05 273.32 31.82L273.32 31.82Q273.32 30.59 272.72 29.75Q272.13 28.92 270.83 28.21Q269.54 27.51 267.45 26.72L267.45 26.72Q265.99 26.19 264.80 25.51Q263.60 24.84 262.73 23.96Q261.86 23.08 261.39 21.89Q260.91 20.71 260.91 19.16L260.91 19.16Q260.91 17.03 261.96 15.52Q263.00 14.01 264.88 13.21Q266.77 12.41 269.24 12.41L269.24 12.41Q271.28 12.41 273.05 12.81Q274.82 13.22 276.42 13.92L276.42 13.92L275.27 16.91Q273.78 16.29 272.27 15.91Q270.76 15.52 269.14 15.52L269.14 15.52Q267.64 15.52 266.62 15.96Q265.59 16.40 265.05 17.21Q264.52 18.02 264.52 19.13L264.52 19.13Q264.52 20.37 265.08 21.20Q265.64 22.03 266.85 22.69Q268.07 23.36 270.02 24.12L270.02 24.12Q272.21 24.96 273.75 25.91Q275.29 26.86 276.10 28.20Q276.91 29.53 276.91 31.57ZM290.39 15.89L290.39 38.48L286.77 38.48L286.77 15.89L278.96 15.89L278.96 12.78L298.18 12.78L298.18 15.89L290.39 15.89ZM316.76 31.57L316.76 31.57Q316.76 33.86 315.62 35.48Q314.49 37.11 312.43 37.97Q310.38 38.83 307.55 38.83L307.55 38.83Q306.12 38.83 304.83 38.68Q303.54 38.53 302.43 38.25Q301.32 37.97 300.43 37.55L300.43 37.55L300.43 34.14Q301.89 34.73 303.80 35.25Q305.72 35.77 307.76 35.77L307.76 35.77Q309.53 35.77 310.74 35.29Q311.94 34.80 312.56 33.93Q313.17 33.05 313.17 31.82L313.17 31.82Q313.17 30.59 312.57 29.75Q311.98 28.92 310.68 28.21Q309.39 27.51 307.30 26.72L307.30 26.72Q305.84 26.19 304.65 25.51Q303.45 24.84 302.58 23.96Q301.71 23.08 301.24 21.89Q300.76 20.71 300.76 19.16L300.76 19.16Q300.76 17.03 301.81 15.52Q302.85 14.01 304.73 13.21Q306.62 12.41 309.09 12.41L309.09 12.41Q311.13 12.41 312.90 12.81Q314.67 13.22 316.27 13.92L316.27 13.92L315.12 16.91Q313.63 16.29 312.12 15.91Q310.61 15.52 308.99 15.52L308.99 15.52Q307.49 15.52 306.47 15.96Q305.44 16.40 304.90 17.21Q304.37 18.02 304.37 19.13L304.37 19.13Q304.37 20.37 304.93 21.20Q305.49 22.03 306.70 22.69Q307.92 23.36 309.87 24.12L309.87 24.12Q312.06 24.96 313.60 25.91Q315.14 26.86 315.95 28.20Q316.76 29.53 316.76 31.57Z" transform="translate(0, 0)"></path></g></svg></g></svg>