<svg viewBox="0 0 575 575" class="roots-wrapper"><g transform="rotate(0 0 0)"><svg viewBoxSize="575" data-root-id="8338980305912" xmlns="http://www.w3.org/2000/svg" xmlns:xlink="http://www.w3.org/1999/xlink" xmlnsSerif="http://www.serif.com/" viewBox="-0.00000762939453125 0 161.791015625 211.71600341796875" version="1.1" xml:space="preserve" height="107.11488227349444" width="81.8560562133789" y="233.943" x="44.3617" preserveAspectRatio="xMinYMin" zoom="1" editorType="buyer" data-layer-role="icon" style="fill-rule: evenodd; clip-rule: evenodd; stroke-linejoin: round; stroke-miterlimit: 2; position: absolute; height: 107.115px; width: 81.8561px; top: 233.943px; left: 44.3617px;"><path d="M48.537,195.537l0,-68.738c-9.421,-3.334 -16.179,-12.327 -16.179,-22.886c0,-9.432 5.393,-17.615 13.26,-21.63l-0,23.364l11.009,6.356l11.009,-6.356l-0,-23.364c7.867,4.015 13.259,12.198 13.259,21.63c0,10.559 -6.757,19.552 -16.179,22.886l0,84.917l-64.716,-0l0,-80.896l16.179,0l0,64.717l32.358,-0Zm48.537,9.151l-0.081,0l0,-65.58l-3.166,-0.198c0.008,-0.05 0.012,-0.101 0.012,-0.152c-0,-1.116 -1.813,-2.022 -4.045,-2.022c-2.233,0 -4.045,0.906 -4.045,2.022c0,0.051 0.004,0.102 0.011,0.152l-7.294,-0l0,-16.179l7.294,-0c0.156,1.045 1.903,1.871 4.034,1.871c2.13,-0 3.878,-0.826 4.033,-1.871l16.997,-0l0.147,0c24.833,0.097 24.122,24.268 24.122,24.268c0,4.133 -2.451,1.07 -3.234,-2.173c-1.298,-5.38 -4.334,-7.926 -14.561,-8.899c-1.35,-0.128 -2.702,1.474 -4.045,2.699l0,56.911l32.359,-0l-0,-64.717l16.179,0l-0,80.896l-64.717,-0l0,-7.028Z" name="Layer %{number}" zoom="1" data-layer-id="9695256305912" style="fill: url(&quot;#_Linear1&quot;);"></path><path d="M80.895,0l80.896,80.895l-1.388,1.388l1.388,0l-0,32.358l-16.179,0l-0,-27.044l-64.717,-64.716l-64.716,64.716l0,27.044l-16.179,0l-0,-32.358l1.388,0l-1.388,-1.388l80.895,-80.895Z" name="Layer %{number}" zoom="1" data-layer-id="6883435705912" style="fill: url(&quot;#_Linear2&quot;);"></path><linearGradient id="_Linear1" x1="0" y1="0" x2="1" y2="0" gradientUnits="userSpaceOnUse" gradientTransform="matrix(-8.08953,137.522,-137.522,-8.08953,76.8505,98.4623)" name="Layer %{number}" zoom="1" data-layer-id="1364259505912"><stop offset="0" style="stop-color: rgb(174, 174, 174); stop-opacity: 1;"></stop><stop offset="1" style="stop-color: rgb(114, 114, 114); stop-opacity: 1;"></stop></linearGradient><linearGradient id="_Linear2" x1="0" y1="0" x2="1" y2="0" gradientUnits="userSpaceOnUse" gradientTransform="matrix(7.76277e-15,126.776,-126.776,7.76277e-15,84.9401,4.04477)" name="Layer %{number}" zoom="1" data-layer-id="5975852505912"><stop offset="0" style="stop-color: rgb(237, 199, 19); stop-opacity: 1;"></stop><stop offset="1" style="stop-color: rgb(154, 127, 0); stop-opacity: 1;"></stop></linearGradient></svg></g><g transform="rotate(0 0 0)"><svg viewBoxSize="575" data-root-id="1422124305912" xmlns="http://www.w3.org/2000/svg" y="328.0779838920928" viewBox="9.399999618530273 3.6500000953674316 346.510009765625 11.489999771118164" x="135.54703893921467" height="11.489999771118164" width="346.510009765625" fontUrl="https://fonts.gstatic.com/s/firasanscondensed/v10/wEOsEADFm8hSaQTFG18FErVhsC9x-tarWQXOiMN-cxZblY4.ttf" zoom="1" editorType="buyer" data-layer-role="slogan" style="position: absolute; top: 328.078px; width: 346.51px; height: 11.49px; left: 135.547px;"><g data-horizontal-grow="center" zoom="1" root="[object Object]" style="fill: rgb(156, 156, 156); fill-opacity: 1;"><path d="M13.78 3.65Q14.69 3.65 15.39 3.94Q16.08 4.22 16.75 4.80L16.75 4.80L15.73 5.99Q14.84 5.24 13.90 5.24L13.90 5.24Q12.81 5.24 12.19 6.21Q11.57 7.19 11.57 9.37L11.57 9.37Q11.57 11.50 12.19 12.49Q12.81 13.48 13.91 13.48L13.91 13.48Q14.48 13.48 14.92 13.27Q15.35 13.05 15.87 12.64L15.87 12.64L16.86 13.82Q16.30 14.39 15.54 14.76Q14.77 15.14 13.82 15.14L13.82 15.14Q12.49 15.14 11.50 14.49Q10.50 13.85 9.95 12.55Q9.40 11.25 9.40 9.37L9.40 9.37Q9.40 7.52 9.98 6.23Q10.55 4.94 11.54 4.29Q12.52 3.65 13.78 3.65L13.78 3.65ZM27.28 3.65Q29.35 3.65 30.52 5.11Q31.68 6.57 31.68 9.39L31.68 9.39Q31.68 12.17 30.52 13.66Q29.35 15.14 27.28 15.14L27.28 15.14Q25.22 15.14 24.06 13.67Q22.90 12.21 22.90 9.40L22.90 9.40Q22.90 6.63 24.06 5.14Q25.22 3.65 27.28 3.65L27.28 3.65ZM27.28 5.23Q26.18 5.23 25.62 6.20Q25.07 7.17 25.07 9.40L25.07 9.40Q25.07 11.62 25.63 12.59Q26.20 13.56 27.28 13.56L27.28 13.56Q28.41 13.56 28.96 12.60Q29.51 11.63 29.51 9.39L29.51 9.39Q29.51 7.17 28.96 6.20Q28.41 5.23 27.28 5.23L27.28 5.23ZM47.52 3.89L48.28 14.90L46.31 14.90L46.07 10.26Q45.94 7.59 45.94 6.45L45.94 6.45L45.96 5.78L44.22 13.70L42.29 13.70L40.46 5.77Q40.47 6.26 40.47 7.25L40.47 7.25Q40.47 8.92 40.41 10.33L40.41 10.33L40.19 14.90L38.23 14.90L38.99 3.89L41.62 3.89L43.30 11.63L44.86 3.89L47.52 3.89ZM58.18 3.89Q60.23 3.89 61.33 4.77Q62.42 5.66 62.42 7.39L62.42 7.39Q62.42 9.21 61.33 10.13Q60.23 11.04 58.32 11.04L58.32 11.04L57.40 11.04L57.40 14.90L55.33 14.90L55.33 3.89L58.18 3.89ZM58.19 9.50Q59.26 9.50 59.77 9.03Q60.28 8.56 60.28 7.39L60.28 7.39Q60.28 6.36 59.77 5.88Q59.26 5.40 58.19 5.40L58.19 5.40L57.40 5.40L57.40 9.50L58.19 9.50ZM69.09 3.89L71.17 3.89L71.17 13.21L75.09 13.21L74.86 14.90L69.09 14.90L69.09 3.89ZM81.62 3.89L87.50 3.89L87.28 5.42L83.69 5.42L83.69 8.54L86.83 8.54L86.83 10.05L83.69 10.05L83.69 13.35L87.53 13.35L87.53 14.90L81.62 14.90L81.62 3.89ZM93.51 3.89L100.96 3.89L100.74 5.51L98.21 5.51L98.21 14.90L96.15 14.90L96.15 5.51L93.51 5.51L93.51 3.89ZM107.37 3.89L113.25 3.89L113.03 5.42L109.44 5.42L109.44 8.54L112.58 8.54L112.58 10.05L109.44 10.05L109.44 13.35L113.28 13.35L113.28 14.90L107.37 14.90L107.37 3.89ZM136.45 14.90L134.38 14.90L134.38 9.96L131.06 9.96L131.06 14.90L128.99 14.90L128.99 3.89L131.06 3.89L131.06 8.32L134.38 8.32L134.38 3.89L136.45 3.89L136.45 14.90ZM151.38 14.90L149.25 14.90L148.64 12.33L145.45 12.33L144.85 14.90L142.76 14.90L145.82 3.89L148.34 3.89L151.38 14.90ZM147.05 5.47L145.80 10.77L148.29 10.77L147.05 5.47ZM165.13 3.89L165.13 14.90L162.49 14.90L159.27 5.93L159.32 6.36Q159.54 8.59 159.54 10.33L159.54 10.33L159.54 14.90L157.69 14.90L157.69 3.89L160.30 3.89L163.56 12.86Q163.46 12.24 163.37 11.19Q163.28 10.15 163.28 9.11L163.28 9.11L163.28 3.89L165.13 3.89ZM175.16 3.89Q176.65 3.89 177.76 4.32Q178.87 4.75 179.56 5.95Q180.26 7.15 180.26 9.34L180.26 9.34Q180.26 12.43 178.89 13.66Q177.53 14.90 175.40 14.90L175.40 14.90L172.59 14.90L172.59 3.89L175.16 3.89ZM175.49 5.43L174.66 5.43L174.66 13.35L175.54 13.35Q176.77 13.35 177.44 12.49Q178.12 11.63 178.12 9.34L178.12 9.34Q178.12 7.74 177.78 6.88Q177.43 6.02 176.87 5.73Q176.30 5.43 175.49 5.43L175.49 5.43ZM192.38 3.89L194.52 3.89L191.33 10.72L191.33 14.90L189.26 14.90L189.26 10.74L186.09 3.89L188.30 3.89L190.34 9.04L192.38 3.89ZM209.70 3.89L210.47 14.90L208.49 14.90L208.25 10.26Q208.13 7.59 208.13 6.45L208.13 6.45L208.14 5.78L206.40 13.70L204.48 13.70L202.64 5.77Q202.66 6.26 202.66 7.25L202.66 7.25Q202.66 8.92 202.60 10.33L202.60 10.33L202.37 14.90L200.41 14.90L201.18 3.89L203.81 3.89L205.48 11.63L207.04 3.89L209.70 3.89ZM224.98 14.90L222.85 14.90L222.24 12.33L219.06 12.33L218.45 14.90L216.36 14.90L219.42 3.89L221.94 3.89L224.98 14.90ZM220.65 5.47L219.41 10.77L221.89 10.77L220.65 5.47ZM238.74 3.89L238.74 14.90L236.09 14.90L232.87 5.93L232.92 6.36Q233.14 8.59 233.14 10.33L233.14 10.33L233.14 14.90L231.29 14.90L231.29 3.89L233.91 3.89L237.16 12.86Q237.06 12.24 236.98 11.19Q236.89 10.15 236.89 9.11L236.89 9.11L236.89 3.89L238.74 3.89ZM257.94 3.65Q258.99 3.65 259.78 3.98Q260.57 4.32 261.24 5.00L261.24 5.00L260.25 6.13Q259.72 5.67 259.20 5.45Q258.67 5.23 258.07 5.23L258.07 5.23Q257.40 5.23 256.99 5.58Q256.58 5.93 256.58 6.55L256.58 6.55Q256.58 6.96 256.75 7.25Q256.92 7.54 257.35 7.78Q257.78 8.03 258.59 8.32L258.59 8.32Q260.07 8.86 260.80 9.61Q261.52 10.36 261.52 11.76L261.52 11.76Q261.52 12.73 261.06 13.50Q260.60 14.26 259.73 14.70Q258.86 15.14 257.70 15.14L257.70 15.14Q255.52 15.14 254.05 13.64L254.05 13.64L255.10 12.48Q255.71 13.00 256.30 13.27Q256.90 13.54 257.62 13.54L257.62 13.54Q258.43 13.54 258.90 13.10Q259.37 12.65 259.37 11.87L259.37 11.87Q259.37 11.17 258.97 10.76Q258.58 10.36 257.46 9.98L257.46 9.98Q255.87 9.42 255.17 8.65Q254.46 7.89 254.46 6.69L254.46 6.69Q254.46 5.82 254.91 5.12Q255.36 4.43 256.15 4.04Q256.95 3.65 257.94 3.65L257.94 3.65ZM272.22 3.65Q274.29 3.65 275.45 5.11Q276.61 6.57 276.61 9.39L276.61 9.39Q276.61 12.17 275.45 13.66Q274.29 15.14 272.22 15.14L272.22 15.14Q270.16 15.14 269.00 13.67Q267.83 12.21 267.83 9.40L267.83 9.40Q267.83 6.63 269.00 5.14Q270.16 3.65 272.22 3.65L272.22 3.65ZM272.22 5.23Q271.12 5.23 270.56 6.20Q270.00 7.17 270.00 9.40L270.00 9.40Q270.00 11.62 270.57 12.59Q271.13 13.56 272.22 13.56L272.22 13.56Q273.35 13.56 273.90 12.60Q274.45 11.63 274.45 9.39L274.45 9.39Q274.45 7.17 273.90 6.20Q273.35 5.23 272.22 5.23L272.22 5.23ZM283.58 3.89L285.65 3.89L285.65 13.21L289.57 13.21L289.35 14.90L283.58 14.90L283.58 3.89ZM303.46 3.89L303.46 11.58Q303.46 12.60 303.03 13.41Q302.60 14.21 301.76 14.68Q300.91 15.14 299.70 15.14L299.70 15.14Q297.87 15.14 296.91 14.17Q295.94 13.19 295.94 11.58L295.94 11.58L295.94 3.89L298.01 3.89L298.01 11.49Q298.01 12.52 298.42 13.03Q298.83 13.53 299.70 13.53L299.70 13.53Q300.56 13.53 300.98 13.02Q301.39 12.51 301.39 11.49L301.39 11.49L301.39 3.89L303.46 3.89ZM309.81 3.89L317.26 3.89L317.04 5.51L314.51 5.51L314.51 14.90L312.45 14.90L312.45 5.51L309.81 5.51L309.81 3.89ZM323.67 3.89L325.74 3.89L325.74 14.90L323.67 14.90L323.67 3.89ZM337.10 3.65Q339.17 3.65 340.34 5.11Q341.50 6.57 341.50 9.39L341.50 9.39Q341.50 12.17 340.34 13.66Q339.17 15.14 337.10 15.14L337.10 15.14Q335.05 15.14 333.88 13.67Q332.72 12.21 332.72 9.40L332.72 9.40Q332.72 6.63 333.88 5.14Q335.05 3.65 337.10 3.65L337.10 3.65ZM337.10 5.23Q336.00 5.23 335.45 6.20Q334.89 7.17 334.89 9.40L334.89 9.40Q334.89 11.62 335.45 12.59Q336.02 13.56 337.10 13.56L337.10 13.56Q338.23 13.56 338.78 12.60Q339.33 11.63 339.33 9.39L339.33 9.39Q339.33 7.17 338.78 6.20Q338.23 5.23 337.10 5.23L337.10 5.23ZM355.91 3.89L355.91 14.90L353.26 14.90L350.04 5.93L350.09 6.36Q350.31 8.59 350.31 10.33L350.31 10.33L350.31 14.90L348.46 14.90L348.46 3.89L351.08 3.89L354.33 12.86Q354.23 12.24 354.14 11.19Q354.06 10.15 354.06 9.11L354.06 9.11L354.06 3.89L355.91 3.89Z" transform="translate(0, 0)"></path></g></svg></g><g transform="rotate(0 0 0)"><svg viewBoxSize="575" data-root-id="0487371505912" xmlns="http://www.w3.org/2000/svg" y="281.858" viewBox="1.0399999618530273 10.789999961853027 350.239990234375 46.21999740600586" x="135.547" height="46.21999740600586" width="350.239990234375" fontUrl="https://fonts.gstatic.com/s/poppins/v21/pxiByp8kv8JHgFVrLCz7V1tvFP-KUEg.ttf" zoom="1" editorType="buyer" data-layer-role="brandName" style="position: absolute; top: 281.858px; width: 350.24px; height: 46.22px; left: 135.547px;"><g data-horizontal-grow="center" zoom="1" root="[object Object]" style="fill: rgb(166, 141, 38); fill-opacity: 1;"><path d="M1.04 15.08L24.56 15.08L24.56 21.01L16.50 21.01L16.50 45.49L9.10 45.49L9.10 21.01L1.04 21.01L1.04 15.08ZM39.29 45.83Q35.74 45.83 32.90 44.32Q30.06 42.80 28.44 39.98Q26.81 37.17 26.81 33.40L26.81 33.40Q26.81 29.67 28.46 26.84Q30.11 24.00 32.97 22.48Q35.83 20.97 39.38 20.97L39.38 20.97Q42.93 20.97 45.79 22.48Q48.65 24.00 50.29 26.84Q51.94 29.67 51.94 33.40L51.94 33.40Q51.94 37.12 50.27 39.96Q48.60 42.80 45.72 44.32Q42.84 45.83 39.29 45.83L39.29 45.83ZM39.29 39.42Q41.41 39.42 42.91 37.86Q44.40 36.30 44.40 33.40L44.40 33.40Q44.40 30.50 42.95 28.94Q41.50 27.38 39.38 27.38L39.38 27.38Q37.21 27.38 35.78 28.92Q34.35 30.45 34.35 33.40L34.35 33.40Q34.35 36.30 35.76 37.86Q37.17 39.42 39.29 39.42L39.29 39.42ZM66.71 39.20L69.35 39.20L69.35 45.49L65.59 45.49Q61.56 45.49 59.30 43.51Q57.05 41.54 57.05 37.08L57.05 37.08L57.05 27.46L54.11 27.46L54.11 21.31L57.05 21.31L57.05 15.42L64.46 15.42L64.46 21.31L69.31 21.31L69.31 27.46L64.46 27.46L64.46 37.17Q64.46 38.25 64.98 38.73Q65.50 39.20 66.71 39.20L66.71 39.20ZM72.00 33.36Q72.00 29.63 73.40 26.81Q74.81 24.00 77.24 22.48Q79.66 20.97 82.65 20.97L82.65 20.97Q85.21 20.97 87.14 22.01Q89.06 23.05 90.10 24.74L90.10 24.74L90.10 21.31L97.51 21.31L97.51 45.49L90.10 45.49L90.10 42.06Q89.02 43.75 87.09 44.79Q85.17 45.83 82.61 45.83L82.61 45.83Q79.66 45.83 77.24 44.29Q74.81 42.76 73.40 39.92Q72.00 37.08 72.00 33.36L72.00 33.36ZM90.10 33.40Q90.10 30.63 88.57 29.02Q87.03 27.42 84.82 27.42L84.82 27.42Q82.61 27.42 81.07 29.00Q79.53 30.58 79.53 33.36L79.53 33.36Q79.53 36.13 81.07 37.75Q82.61 39.38 84.82 39.38L84.82 39.38Q87.03 39.38 88.57 37.77Q90.10 36.17 90.10 33.40L90.10 33.40ZM102.88 13.43L110.29 13.43L110.29 45.49L102.88 45.49L102.88 13.43ZM125.50 45.83Q122.33 45.83 119.86 44.75Q117.40 43.67 115.97 41.78Q114.54 39.90 114.36 37.56L114.36 37.56L121.68 37.56Q121.81 38.81 122.85 39.59Q123.89 40.37 125.41 40.37L125.41 40.37Q126.80 40.37 127.55 39.83Q128.31 39.29 128.31 38.42L128.31 38.42Q128.31 37.38 127.23 36.89Q126.15 36.39 123.72 35.78L123.72 35.78Q121.12 35.18 119.39 34.50Q117.66 33.83 116.40 32.38Q115.14 30.93 115.14 28.46L115.14 28.46Q115.14 26.38 116.29 24.67Q117.44 22.96 119.67 21.96Q121.90 20.97 124.98 20.97L124.98 20.97Q129.52 20.97 132.15 23.22Q134.77 25.47 135.16 29.20L135.16 29.20L128.31 29.20Q128.14 27.94 127.21 27.20Q126.28 26.47 124.76 26.47L124.76 26.47Q123.46 26.47 122.77 26.97Q122.07 27.46 122.07 28.33L122.07 28.33Q122.07 29.37 123.18 29.89Q124.28 30.41 126.62 30.93L126.62 30.93Q129.31 31.62 131.00 32.29Q132.69 32.97 133.97 34.46Q135.24 35.96 135.29 38.47L135.29 38.47Q135.29 40.59 134.10 42.26Q132.90 43.93 130.67 44.88Q128.44 45.83 125.50 45.83L125.50 45.83ZM147.24 24.74Q148.33 23.05 150.23 22.01Q152.14 20.97 154.69 20.97L154.69 20.97Q157.68 20.97 160.11 22.48Q162.53 24.00 163.94 26.81Q165.35 29.63 165.35 33.36L165.35 33.36Q165.35 37.08 163.94 39.92Q162.53 42.76 160.11 44.29Q157.68 45.83 154.69 45.83L154.69 45.83Q152.18 45.83 150.25 44.79Q148.33 43.75 147.24 42.11L147.24 42.11L147.24 57.01L139.83 57.01L139.83 21.31L147.24 21.31L147.24 24.74ZM157.81 33.36Q157.81 30.58 156.27 29.00Q154.74 27.42 152.48 27.42L152.48 27.42Q150.27 27.42 148.74 29.02Q147.20 30.63 147.20 33.40L147.20 33.40Q147.20 36.17 148.74 37.77Q150.27 39.38 152.48 39.38L152.48 39.38Q154.69 39.38 156.25 37.75Q157.81 36.13 157.81 33.36L157.81 33.36ZM192.03 33.01Q192.03 34.05 191.90 35.18L191.90 35.18L175.14 35.18Q175.31 37.43 176.59 38.62Q177.87 39.81 179.73 39.81L179.73 39.81Q182.50 39.81 183.59 37.47L183.59 37.47L191.47 37.47Q190.87 39.85 189.28 41.76Q187.70 43.67 185.32 44.75Q182.94 45.83 179.99 45.83L179.99 45.83Q176.44 45.83 173.67 44.32Q170.89 42.80 169.34 39.98Q167.78 37.17 167.78 33.40L167.78 33.40Q167.78 29.63 169.31 26.81Q170.85 24.00 173.62 22.48Q176.40 20.97 179.99 20.97L179.99 20.97Q183.50 20.97 186.23 22.44Q188.96 23.91 190.50 26.64Q192.03 29.37 192.03 33.01L192.03 33.01ZM175.18 31.06L184.45 31.06Q184.45 29.15 183.15 28.03Q181.85 26.90 179.91 26.90L179.91 26.90Q178.04 26.90 176.76 27.98Q175.49 29.07 175.18 31.06L175.18 31.06ZM194.46 33.40Q194.46 29.63 196.00 26.81Q197.54 24.00 200.29 22.48Q203.04 20.97 206.59 20.97L206.59 20.97Q211.14 20.97 214.19 23.35Q217.25 25.73 218.20 30.06L218.20 30.06L210.32 30.06Q209.32 27.29 206.46 27.29L206.46 27.29Q204.42 27.29 203.21 28.87Q202.00 30.45 202.00 33.40L202.00 33.40Q202.00 36.34 203.21 37.93Q204.42 39.51 206.46 39.51L206.46 39.51Q209.32 39.51 210.32 36.73L210.32 36.73L218.20 36.73Q217.25 40.98 214.17 43.41Q211.10 45.83 206.59 45.83L206.59 45.83Q203.04 45.83 200.29 44.32Q197.54 42.80 196.00 39.98Q194.46 37.17 194.46 33.40L194.46 33.40ZM225.87 18.80Q223.92 18.80 222.68 17.65Q221.45 16.50 221.45 14.82L221.45 14.82Q221.45 13.08 222.68 11.93Q223.92 10.79 225.87 10.79L225.87 10.79Q227.77 10.79 229.01 11.93Q230.24 13.08 230.24 14.82L230.24 14.82Q230.24 16.50 229.01 17.65Q227.77 18.80 225.87 18.80L225.87 18.80ZM222.14 21.31L229.55 21.31L229.55 45.49L222.14 45.49L222.14 21.31ZM233.45 33.36Q233.45 29.63 234.86 26.81Q236.26 24.00 238.69 22.48Q241.12 20.97 244.10 20.97L244.10 20.97Q246.66 20.97 248.59 22.01Q250.52 23.05 251.56 24.74L251.56 24.74L251.56 21.31L258.96 21.31L258.96 45.49L251.56 45.49L251.56 42.06Q250.47 43.75 248.54 44.79Q246.62 45.83 244.06 45.83L244.06 45.83Q241.12 45.83 238.69 44.29Q236.26 42.76 234.86 39.92Q233.45 37.08 233.45 33.36L233.45 33.36ZM251.56 33.40Q251.56 30.63 250.02 29.02Q248.48 27.42 246.27 27.42L246.27 27.42Q244.06 27.42 242.52 29.00Q240.99 30.58 240.99 33.36L240.99 33.36Q240.99 36.13 242.52 37.75Q244.06 39.38 246.27 39.38L246.27 39.38Q248.48 39.38 250.02 37.77Q251.56 36.17 251.56 33.40L251.56 33.40ZM264.33 13.43L271.74 13.43L271.74 45.49L264.33 45.49L264.33 13.43ZM280.84 18.80Q278.89 18.80 277.66 17.65Q276.42 16.50 276.42 14.82L276.42 14.82Q276.42 13.08 277.66 11.93Q278.89 10.79 280.84 10.79L280.84 10.79Q282.75 10.79 283.98 11.93Q285.21 13.08 285.21 14.82L285.21 14.82Q285.21 16.50 283.98 17.65Q282.75 18.80 280.84 18.80L280.84 18.80ZM277.11 21.31L284.52 21.31L284.52 45.49L277.11 45.49L277.11 21.31ZM299.73 45.83Q296.56 45.83 294.10 44.75Q291.63 43.67 290.20 41.78Q288.77 39.90 288.59 37.56L288.59 37.56L295.91 37.56Q296.04 38.81 297.08 39.59Q298.12 40.37 299.64 40.37L299.64 40.37Q301.03 40.37 301.78 39.83Q302.54 39.29 302.54 38.42L302.54 38.42Q302.54 37.38 301.46 36.89Q300.38 36.39 297.95 35.78L297.95 35.78Q295.35 35.18 293.62 34.50Q291.89 33.83 290.63 32.38Q289.37 30.93 289.37 28.46L289.37 28.46Q289.37 26.38 290.52 24.67Q291.67 22.96 293.90 21.96Q296.13 20.97 299.21 20.97L299.21 20.97Q303.76 20.97 306.38 23.22Q309.00 25.47 309.39 29.20L309.39 29.20L302.54 29.20Q302.37 27.94 301.44 27.20Q300.51 26.47 298.99 26.47L298.99 26.47Q297.69 26.47 297.00 26.97Q296.30 27.46 296.30 28.33L296.30 28.33Q296.30 29.37 297.41 29.89Q298.51 30.41 300.85 30.93L300.85 30.93Q303.54 31.62 305.23 32.29Q306.92 32.97 308.20 34.46Q309.47 35.96 309.52 38.47L309.52 38.47Q309.52 40.59 308.33 42.26Q307.13 43.93 304.90 44.88Q302.67 45.83 299.73 45.83L299.73 45.83ZM324.90 39.20L327.54 39.20L327.54 45.49L323.77 45.49Q319.74 45.49 317.49 43.51Q315.23 41.54 315.23 37.08L315.23 37.08L315.23 27.46L312.29 27.46L312.29 21.31L315.23 21.31L315.23 15.42L322.64 15.42L322.64 21.31L327.49 21.31L327.49 27.46L322.64 27.46L322.64 37.17Q322.64 38.25 323.16 38.73Q323.68 39.20 324.90 39.20L324.90 39.20ZM341.49 45.83Q338.32 45.83 335.85 44.75Q333.39 43.67 331.96 41.78Q330.53 39.90 330.35 37.56L330.35 37.56L337.67 37.56Q337.80 38.81 338.84 39.59Q339.88 40.37 341.40 40.37L341.40 40.37Q342.79 40.37 343.54 39.83Q344.30 39.29 344.30 38.42L344.30 38.42Q344.30 37.38 343.22 36.89Q342.14 36.39 339.71 35.78L339.71 35.78Q337.11 35.18 335.38 34.50Q333.65 33.83 332.39 32.38Q331.13 30.93 331.13 28.46L331.13 28.46Q331.13 26.38 332.28 24.67Q333.43 22.96 335.66 21.96Q337.89 20.97 340.97 20.97L340.97 20.97Q345.52 20.97 348.14 23.22Q350.76 25.47 351.15 29.20L351.15 29.20L344.30 29.20Q344.13 27.94 343.20 27.20Q342.27 26.47 340.75 26.47L340.75 26.47Q339.45 26.47 338.76 26.97Q338.06 27.46 338.06 28.33L338.06 28.33Q338.06 29.37 339.17 29.89Q340.27 30.41 342.61 30.93L342.61 30.93Q345.30 31.62 346.99 32.29Q348.68 32.97 349.96 34.46Q351.23 35.96 351.28 38.47L351.28 38.47Q351.28 40.59 350.09 42.26Q348.89 43.93 346.66 44.88Q344.43 45.83 341.49 45.83L341.49 45.83Z" transform="translate(0, 0)"></path></g></svg></g></svg>