<svg viewBox="0 0 575 575" class="roots-wrapper"><g transform="rotate(0 0 0)"><svg viewBoxSize="575" data-root-id="5094637507314" xmlns="http://www.w3.org/2000/svg" xmlns:xlink="http://www.w3.org/1999/xlink" version="1.1" id="Layer_1" x="205.74369613851297" y="169.67958068847656" viewBox="37.709320068359375 148.5 531.620361328125 546.3423461914062" xml:space="preserve" height="168.00000000000003" width="163.47300353596236" preserveAspectRatio="xMinYMin" zoom="1" editorType="buyer" data-layer-role="icon" style="position: absolute; height: 168px; width: 163.473px; top: 169.68px; left: 205.744px;"><path id="XMLID_3654_" class="st0" d="M293.5,288.3c7.9-5.4,15.1-11.3,23.6-15.4c-39,43.5-81.6,83.8-120.6,127.2  c-1.3,20.2,0,40.6-0.6,61.1c-7.2,3.8-14.2,7.6-21.7,11c-0.3-17.6,0-35.3-0.3-52.9c-21.1-0.6-42.5,0.6-63.6-0.6  c10.1-9.8,22.4-16.7,33.7-24.9C193.7,358.5,243.4,323.2,293.5,288.3L293.5,288.3z" name="Layer %{number}" zoom="1" data-layer-id="1968723807315" style="fill: rgb(28, 117, 188);"></path><path id="XMLID_3653_" class="st0" d="M115.2,516.3c54.2-33.7,107.4-69.3,161.9-102.3c13.9,10.4,27.7,20.2,41.6,30.5  c-0.9,2.8-1.9,6-2.8,8.8c-3.8-0.9-6.9-3.1-9.4-6.3c-9.8-10.4-19.5-21.4-30.2-31.5c-39.4,33.4-79,66.8-118.4,100.5  c-0.6,27.4,0,54.8-0.3,82.2c-4.7-3.1-9.4-6.9-13.9-10.4c-0.6-20.5,0-41.3-0.6-61.7c-13.2,0-26.8,0.6-40.3-0.3  C106.1,521.6,110.5,518.8,115.2,516.3L115.2,516.3z" name="Layer %{number}" zoom="1" data-layer-id="9735407607315" style="fill: rgb(28, 117, 188);"></path><path id="XMLID_3640_" class="st0" d="M383.2,148.5v237.1c-5.4,4.5-10.6,9.2-15.8,14c-16.9,14.9-32.5,31.9-43.7,51.5V148.5H383.2z" name="Layer %{number}" zoom="1" data-layer-id="0232798707315" style="fill: rgb(28, 117, 188);"></path><path id="XMLID_3639_" class="st0" d="M469.2,216v104.2c-2,1.7-4,3.4-6,5.1c-22.1,16.7-45.1,32.4-66.9,49.7V153.9L469.2,216z" name="Layer %{number}" zoom="1" data-layer-id="9335738207315" style="fill: rgb(28, 117, 188);"></path><rect id="XMLID_1_" x="222.6" y="506.2" class="st0" width="34.4" height="34.4" name="Layer %{number}" zoom="1" data-layer-id="8787465807315" style="fill: rgb(28, 117, 188);"></rect><rect id="XMLID_4_" x="263.2" y="506.2" class="st0" width="34.4" height="34.4" name="Layer %{number}" zoom="1" data-layer-id="0891599507315" style="fill: rgb(28, 117, 188);"></rect><rect id="XMLID_6_" x="222.6" y="546.2" class="st0" width="34.4" height="34.4" name="Layer %{number}" zoom="1" data-layer-id="2987873507315" style="fill: rgb(28, 117, 188);"></rect><rect id="XMLID_5_" x="263.2" y="546.2" class="st0" width="34.4" height="34.4" name="Layer %{number}" zoom="1" data-layer-id="1191398807315" style="fill: rgb(28, 117, 188);"></rect><path id="XMLID_8_" class="st1" d="M538.8,290.2c-7.2-14.5-14.2-29.9-25.2-42.5c-1.9,12.9-2.5,26.1-8.2,38.1  c-7.6,17.6-22,30.5-36.5,42.5c-32.1,24.2-66.1,46.6-95.7,74.3c-23.3,20.5-44.1,45-54.5,75c-18,49.4-9.5,104.5,11.7,151.8  c32.8-4.7,63.6-18.6,91.3-36.2c46.6-30.2,80-78.4,95.4-131c5.7-15.4,6.9-31.8,11.7-47.2c1.9,39-6.9,78.1-23.9,113.4  c-24.6,48.5-66.4,88.5-116.8,109.9c-51.3,23-111.5,25.8-165.3,9.1c-29.7-9.2-57.6-24.4-81.5-44.3l0,0c0,0-139.9-130.6-38.5-314.3  c45.7-68.1,123.3-112.8,211.4-112.8c1,0,2,0,3,0v-3.4c-7.8-0.7-15.6-1.1-23.6-1.1c-101.5,0-189.2,59.6-229.7,145.8  c-1.2,2.5-2.3,5-3.4,7.6l0,0c0,0-0.6,1.4-1.7,4c-0.4,0.9-0.8,1.8-1.1,2.7c-4,10-7.3,20.2-10,30.8c-2.2,8.4-3.9,17.1-5.2,25.8  c0,0,0,0,0,0c0,0.1,0,0.2,0,0.3C31.3,452,33.2,551.1,122,628.2l0,0c11.7,10.6,24.5,20.2,38,28.5c40.3,24.6,87.2,38.4,134.5,38.1  c70.2,1.3,140.4-27.4,188.9-78.1c33.7-35.6,62.7-77.5,76.2-125.3C578.8,425,568.4,352.2,538.8,290.2z" name="Layer %{number}" zoom="1" data-layer-id="6547721607315" style="fill: rgb(109, 110, 113); fill-opacity: 1;"></path></svg></g><g transform="rotate(0 0 0)"><svg viewBoxSize="575" data-root-id="4449781407315" xmlns="http://www.w3.org/2000/svg" y="388.6799774169922" viewBox="8.180000305175781 3.1795456409454346 453.1300048828125 16.640453338623047" x="60.934981903076164" height="16.640453338623047" width="453.1300048828125" fontUrl="https://fonts.gstatic.com/s/balsamiqsans/v14/P5sazZiAbNrN8SB3lQQX7PncwdsXJaVIDzvcXA.ttf" zoom="1" editorType="buyer" data-layer-role="slogan" style="position: absolute; top: 388.68px; width: 453.13px; height: 16.6405px; left: 60.935px;"><g data-horizontal-grow="center" zoom="1" root="[object Object]" style="fill: rgb(109, 110, 113); fill-opacity: 1;"><path d="M9.08 19.82L9.08 19.82L9.08 19.82L9.08 19.82Q10.30 19.82 11.42 19.13L11.42 19.13Q12.41 18.50 13.06 17.33L13.06 17.33Q13.42 16.69 13.78 15.97L13.78 15.97Q14.12 15.23 14.23 15.03L14.23 15.03L14.48 14.53L15.02 13.55Q15.52 12.67 16.01 11.84Q16.49 11.00 17.02 10.15L17.02 10.15L17.54 9.27Q18.08 8.32 18.37 7.92L18.37 7.92Q18.56 7.61 18.56 7.29L18.56 7.29Q18.55 6.98 18.32 6.79Q18.10 6.59 17.79 6.61L17.79 6.61Q17.27 6.64 16.94 7.11L16.94 7.11Q16.08 8.44 14.19 11.81L14.19 11.81L13.42 13.18L13.15 11.16Q12.73 8.15 12.70 7.54L12.70 7.54Q12.68 7.13 12.46 6.90Q12.25 6.68 11.90 6.68L11.90 6.68Q11.44 6.68 11.16 7.00Q10.88 7.33 10.91 7.78L10.91 7.78Q11.06 9.34 11.42 11.61L11.42 11.61Q11.87 14.40 11.89 15.71L11.89 15.71Q11.92 15.93 12.01 16.06L12.01 16.06Q11.89 16.18 11.62 16.67L11.62 16.67Q11.22 17.39 10.72 17.68L10.72 17.68Q10.48 17.82 10.16 17.89Q9.83 17.96 9.19 18.02L9.19 18.02Q8.75 18.05 8.47 18.35Q8.18 18.65 8.18 19.03L8.18 19.03Q8.18 19.39 8.41 19.60Q8.65 19.82 9.08 19.82ZM28.00 16.20L28.00 16.20L28.00 16.20L28.00 16.20Q29.51 16.20 30.76 15.35Q32.00 14.51 32.70 13.18L32.70 13.18Q33.40 11.84 33.40 10.42L33.40 10.42Q33.40 9.40 32.97 8.55Q32.54 7.70 31.80 7.22L31.80 7.22Q31.04 6.73 30.16 6.73L30.16 6.73L29.62 6.73Q29.48 6.66 29.26 6.66L29.26 6.66Q29.17 6.66 29.06 6.68L29.06 6.68Q28.94 6.71 28.69 6.73L28.69 6.73Q27.57 6.84 26.55 7.65Q25.54 8.46 24.91 9.74L24.91 9.74Q24.26 11.03 24.26 12.51L24.26 12.51Q24.26 14.20 25.28 15.20Q26.31 16.20 28.00 16.20ZM28.33 14.45L28.33 14.45L28.33 14.45L28.33 14.45Q27.21 14.45 26.64 13.88Q26.08 13.30 26.08 12.24L26.08 12.24Q26.08 11.39 26.36 10.68Q26.63 9.97 27.07 9.45Q27.52 8.93 28.00 8.64L28.00 8.64Q28.47 8.37 28.81 8.37L28.81 8.37Q28.92 8.37 29.03 8.39L29.03 8.39Q29.14 8.42 29.26 8.44L29.26 8.44Q29.55 8.48 29.95 8.48L29.95 8.48Q30.59 8.48 31.09 9.09Q31.58 9.70 31.58 10.62L31.58 10.62Q31.58 11.68 31.11 12.56Q30.63 13.45 29.87 13.95L29.87 13.95Q29.12 14.45 28.33 14.45ZM46.91 16.20L46.91 16.20L46.91 16.20L46.91 16.20Q47.27 16.22 47.60 15.97Q47.93 15.71 48.02 15.35L48.02 15.35Q48.96 11.77 49.72 7.52L49.72 7.52Q49.77 7.11 49.55 6.89Q49.32 6.68 48.96 6.67Q48.60 6.66 48.29 6.89Q47.99 7.13 47.90 7.60L47.90 7.60Q47.47 10.06 46.93 12.46L46.93 12.46Q46.48 13.23 46.10 13.61Q45.72 13.99 45.31 14.14Q44.89 14.29 44.37 14.38L44.37 14.38Q43.79 14.38 43.58 14.22L43.58 14.22Q43.06 13.82 42.89 12.73L42.89 12.73Q42.80 11.97 42.92 11.26Q43.04 10.55 43.24 9.74L43.24 9.74Q43.33 9.38 43.58 8.62L43.58 8.62Q43.81 7.87 43.88 7.60L43.88 7.60Q44.01 7.16 43.81 6.92Q43.61 6.68 43.26 6.65Q42.91 6.62 42.58 6.81Q42.25 7.00 42.12 7.45L42.12 7.45Q42.07 7.58 41.94 7.99Q41.81 8.41 41.68 8.87Q41.54 9.32 41.47 9.61L41.47 9.61Q41.36 10.06 41.20 10.77Q41.04 11.48 41.02 12.11L41.02 12.11Q41.00 12.73 41.08 13.30L41.08 13.30Q41.29 14.96 42.16 15.68L42.16 15.68Q43.04 16.42 44.37 16.09L44.37 16.09Q45.29 15.88 46.28 15.16L46.28 15.16Q46.19 15.71 46.39 15.95Q46.58 16.18 46.91 16.20ZM57.28 16.20L57.28 16.20L57.28 16.20L57.28 16.20Q57.64 16.20 57.95 15.97Q58.25 15.73 58.33 15.30L58.33 15.30L58.90 12.47L59.37 10.19Q59.80 9.58 60.54 9.14L60.54 9.14Q60.94 8.89 61.47 8.73Q62.00 8.57 62.57 8.57L62.57 8.57Q63.02 8.57 63.33 8.27Q63.64 7.97 63.64 7.56L63.64 7.56Q63.64 7.24 63.38 7.01Q63.13 6.79 62.68 6.77L62.68 6.77Q61.66 6.73 60.63 7.29L60.63 7.29Q60.14 7.58 59.82 7.94L59.82 7.94L59.93 7.51Q60 7.18 59.78 6.92Q59.57 6.66 59.17 6.66L59.17 6.66Q58.81 6.66 58.52 6.90Q58.22 7.15 58.11 7.63L58.11 7.63L57.28 11.63L56.53 15.26Q56.45 15.66 56.67 15.93Q56.89 16.20 57.28 16.20ZM83.88 16.24L83.88 16.24L83.88 16.24L83.88 16.24Q85.00 16.22 86.06 15.70Q87.12 15.17 87.75 14.13L87.75 14.13Q87.97 13.79 88.04 13.34L88.04 13.34L88.09 13.09L88.13 12.94Q88.24 12.51 88.03 12.27Q87.82 12.02 87.48 11.99Q87.14 11.95 86.81 12.16Q86.47 12.37 86.35 12.83L86.35 12.83L86.27 13.16L86.27 13.21L86.24 13.36L86.24 13.45Q85.64 14.40 84.24 14.44L84.24 14.44Q83.56 14.44 83.00 14.20Q82.44 13.97 82.19 13.59L82.19 13.59Q81.79 13.00 82.00 11.99Q82.21 10.98 82.96 9.97L82.96 9.97Q83.70 9.04 84.51 8.67Q85.32 8.30 86.06 8.66L86.06 8.66Q86.24 8.73 86.44 8.98L86.44 8.98L86.65 9.29Q86.81 9.50 86.96 9.63L86.96 9.63Q87.23 9.94 87.58 9.87Q87.93 9.81 88.22 9.53Q88.51 9.25 88.59 8.89Q88.67 8.53 88.40 8.26L88.40 8.26L88.20 8.01L87.93 7.69Q87.55 7.22 87.14 7.00L87.14 7.00Q86.09 6.53 85.07 6.73Q84.04 6.93 83.13 7.58Q82.22 8.23 81.54 9.13L81.54 9.13Q80.91 10.01 80.51 10.96Q80.12 11.92 80.10 12.96L80.10 12.96Q80.08 14.02 80.57 14.78L80.57 14.78Q81.05 15.50 81.95 15.88Q82.85 16.25 83.88 16.24ZM99.49 16.20L99.49 16.20L99.49 16.20L99.49 16.20Q101.00 16.20 102.25 15.35Q103.49 14.51 104.19 13.18L104.19 13.18Q104.89 11.84 104.89 10.42L104.89 10.42Q104.89 9.40 104.46 8.55Q104.03 7.70 103.29 7.22L103.29 7.22Q102.53 6.73 101.65 6.73L101.65 6.73L101.11 6.73Q100.97 6.66 100.75 6.66L100.75 6.66Q100.66 6.66 100.55 6.68L100.55 6.68Q100.43 6.71 100.18 6.73L100.18 6.73Q99.06 6.84 98.04 7.65Q97.03 8.46 96.40 9.74L96.40 9.74Q95.75 11.03 95.75 12.51L95.75 12.51Q95.75 14.20 96.77 15.20Q97.80 16.20 99.49 16.20ZM99.82 14.45L99.82 14.45L99.82 14.45L99.82 14.45Q98.70 14.45 98.13 13.88Q97.57 13.30 97.57 12.24L97.57 12.24Q97.57 11.39 97.84 10.68Q98.12 9.97 98.57 9.45Q99.01 8.93 99.49 8.64L99.49 8.64Q99.96 8.37 100.30 8.37L100.30 8.37Q100.41 8.37 100.52 8.39L100.52 8.39Q100.63 8.42 100.75 8.44L100.75 8.44Q101.04 8.48 101.44 8.48L101.44 8.48Q102.08 8.48 102.58 9.09Q103.07 9.70 103.07 10.62L103.07 10.62Q103.07 11.68 102.60 12.56Q102.12 13.45 101.36 13.95L101.36 13.95Q100.61 14.45 99.82 14.45ZM122.84 15.41L122.84 15.41L122.84 15.41L122.84 15.41Q122.81 15.82 123.04 16.03Q123.28 16.24 123.63 16.22Q123.98 16.20 124.28 15.97Q124.59 15.73 124.68 15.26L124.68 15.26Q124.68 15.12 124.73 14.81Q124.77 14.49 124.82 14.21Q124.86 13.93 124.86 13.90L124.86 13.90L124.90 13.72L124.97 13.39L125.06 12.91Q125.15 12.65 125.26 12.20Q125.36 11.75 125.47 11.23Q125.58 10.71 125.65 10.22Q125.72 9.72 125.74 9.38L125.74 9.38Q125.78 8.23 125.29 7.49L125.29 7.49Q124.66 6.64 123.33 6.66L123.33 6.66Q121.67 6.68 120.00 8.01L120.00 8.01Q119.84 7.54 119.51 7.22L119.51 7.22Q118.81 6.55 117.55 6.66L117.55 6.66Q116.40 6.77 115.43 7.36L115.43 7.36Q115.45 7.02 115.20 6.85Q114.96 6.68 114.62 6.69Q114.28 6.70 113.98 6.89Q113.68 7.09 113.61 7.47L113.61 7.47Q113.45 8.23 113.27 9.16Q113.09 10.10 112.92 11.03Q112.75 11.95 112.58 12.69L112.58 12.69Q112.46 13.27 112.01 15.26L112.01 15.26Q111.88 15.70 112.09 15.93Q112.30 16.16 112.65 16.19Q113.00 16.22 113.33 16.01Q113.66 15.80 113.79 15.34L113.79 15.34Q114.26 13.45 114.96 9.85L114.96 9.85Q115.09 9.76 115.19 9.65L115.19 9.65Q115.75 9.05 116.22 8.78L116.22 8.78Q116.71 8.51 117.32 8.46L117.32 8.46Q117.88 8.41 118.09 8.62L118.09 8.62Q118.31 8.82 118.34 9.32L118.34 9.32Q118.36 9.49 118.34 9.85Q118.31 10.21 118.27 10.40L118.27 10.40Q118.25 10.55 118.20 10.84Q118.15 11.12 118.13 11.21L118.13 11.21L118.04 11.65L117.95 12.11Q117.70 13.28 117.32 15.32L117.32 15.32Q117.23 15.75 117.47 15.97Q117.71 16.18 118.07 16.19Q118.43 16.20 118.74 15.98Q119.05 15.75 119.12 15.28L119.12 15.28Q119.50 13.25 119.75 12.11L119.75 12.11Q120.07 10.57 120.13 10.03L120.13 10.03Q121.69 8.53 122.93 8.51L122.93 8.51Q123.49 8.51 123.71 8.79Q123.92 9.07 123.89 9.70L123.89 9.70Q123.89 10.08 123.77 10.67Q123.65 11.27 123.51 11.88Q123.37 12.49 123.26 12.91L123.26 12.91L123.17 13.39L123.08 13.75L123.04 13.93Q123.04 13.93 123.02 14.15Q122.99 14.36 122.95 14.64Q122.92 14.92 122.88 15.15Q122.84 15.37 122.84 15.41ZM133.85 18.92L133.85 18.92L133.85 18.92L133.85 18.92Q134.24 17.24 134.62 15.57L134.62 15.57Q135.67 16.45 137.39 16.15L137.39 16.15Q138.40 15.97 139.26 15.48Q140.11 14.99 140.67 14.35L140.67 14.35Q141.21 13.70 141.57 13.03L141.57 13.03Q141.93 12.37 142.07 11.59Q142.22 10.82 142.16 10.13L142.16 10.13Q142.11 9.18 141.74 8.37Q141.37 7.56 140.67 7.11L140.67 7.11Q139.93 6.59 138.86 6.64Q137.79 6.70 136.57 7.34L136.57 7.34L136.28 7.51Q136.24 7.15 136.07 6.90Q135.90 6.66 135.63 6.66L135.63 6.66Q135.25 6.66 134.94 6.92Q134.62 7.18 134.55 7.56L134.55 7.56Q132.89 15.34 132.07 18.88L132.07 18.88Q131.96 19.30 132.18 19.54Q132.41 19.78 132.77 19.80Q133.13 19.82 133.44 19.60Q133.76 19.39 133.85 18.92ZM137.45 14.38L137.45 14.38L137.45 14.38L137.45 14.38Q136.62 14.53 136.13 14.22Q135.63 13.91 135.31 13.12L135.31 13.12Q135.27 13.01 135.20 12.92L135.20 12.92L135.83 9.97L136.13 9.65Q136.26 9.49 136.31 9.43L136.31 9.43Q136.33 9.41 136.36 9.39Q136.39 9.36 136.40 9.34L136.40 9.34Q136.53 9.23 137.18 8.89L137.18 8.89Q138.60 8.12 139.43 8.68L139.43 8.68Q140.26 9.20 140.35 10.60L140.35 10.60Q140.42 12.02 139.64 13.08Q138.87 14.13 137.45 14.38ZM150.99 15.34L150.99 15.34L150.99 15.34L150.99 15.34Q151.37 13.75 151.77 11.89Q152.18 10.03 152.63 7.74L152.63 7.74Q153.08 5.45 153.35 4.21L153.35 4.21Q153.46 3.78 153.23 3.56Q153.01 3.33 152.65 3.32Q152.30 3.31 151.98 3.54Q151.66 3.76 151.55 4.21L151.55 4.21Q151.31 5.29 151.05 6.60Q150.79 7.90 150.53 9.23Q150.27 10.55 150.05 11.63L150.05 11.63Q149.78 12.87 149.21 15.26L149.21 15.26Q149.08 15.70 149.29 15.93Q149.50 16.16 149.85 16.19Q150.20 16.22 150.53 16.01Q150.86 15.80 150.99 15.34ZM164.12 16.18L164.12 16.18L164.12 16.18L164.12 16.18Q165.76 16.18 166.94 15.59L166.94 15.59Q167.74 15.19 167.74 14.54L167.74 14.54Q167.74 14.26 167.53 14.06Q167.32 13.86 167.03 13.86L167.03 13.86Q166.84 13.86 166.59 13.96Q166.35 14.06 166.06 14.18L166.06 14.18Q165.38 14.47 164.41 14.47L164.41 14.47Q163.09 14.47 162.35 13.88Q161.62 13.28 161.62 12.24L161.62 12.24L167.66 12.28Q168.17 12.28 168.58 11.95Q169.00 11.63 169.00 11.12L169.00 11.12Q169.00 9.83 168.54 8.81Q168.08 7.79 167.20 7.22L167.20 7.22Q166.31 6.66 165.09 6.66L165.09 6.66Q163.78 6.66 162.55 7.35Q161.33 8.05 160.57 9.31L160.57 9.31Q159.82 10.57 159.82 12.19L159.82 12.19Q159.82 13.43 160.36 14.33Q160.90 15.23 161.87 15.70L161.87 15.70Q162.84 16.18 164.12 16.18ZM161.78 10.51L161.78 10.51Q161.94 9.90 162.41 9.41Q162.88 8.93 163.52 8.64Q164.17 8.35 164.89 8.35L164.89 8.35Q165.92 8.35 166.51 8.91Q167.11 9.47 167.18 10.51L167.18 10.51Q166.06 10.49 164.69 10.49L164.69 10.49Q163.31 10.51 162.25 10.51L162.25 10.51L161.78 10.51L161.78 10.51ZM178.69 16.15L178.69 16.15L178.69 16.15L178.69 16.15Q179.10 16.29 179.43 16.10Q179.77 15.91 179.95 15.57Q180.13 15.23 180.06 14.90Q180.00 14.58 179.62 14.45L179.62 14.45Q179.51 14.40 179.23 14.32Q178.96 14.24 178.72 14.17Q178.49 14.09 178.45 14.06L178.45 14.06Q178.25 13.91 178.29 13.49Q178.33 13.07 178.43 12.47L178.43 12.47Q178.61 11.41 179.01 9.72L179.01 9.72Q179.10 9.34 179.30 8.46L179.30 8.46L180.27 8.42Q180.74 8.39 181.00 8.10Q181.26 7.81 181.30 7.46Q181.33 7.11 181.13 6.86Q180.94 6.61 180.52 6.62L180.52 6.62L179.73 6.66L180.14 4.95Q180.27 4.52 180.06 4.28Q179.86 4.05 179.50 4.02Q179.15 4.00 178.82 4.20Q178.49 4.41 178.36 4.88L178.36 4.88Q178.13 5.85 177.89 6.80L177.89 6.80L177.48 6.84Q177.03 6.91 176.78 7.20Q176.53 7.49 176.50 7.84Q176.47 8.19 176.67 8.43Q176.87 8.68 177.32 8.64L177.32 8.64L177.46 8.62Q177.28 9.38 177.21 9.70L177.21 9.70Q176.81 11.43 176.63 12.53L176.63 12.53Q176.38 13.95 176.47 14.44L176.47 14.44Q176.60 15.05 176.93 15.37Q177.26 15.70 177.73 15.88L177.73 15.88Q177.95 15.97 178.27 16.04L178.27 16.04Q178.60 16.11 178.69 16.15ZM191.76 16.18L191.76 16.18L191.76 16.18L191.76 16.18Q193.40 16.18 194.59 15.59L194.59 15.59Q195.38 15.19 195.38 14.54L195.38 14.54Q195.38 14.26 195.17 14.06Q194.96 13.86 194.68 13.86L194.68 13.86Q194.48 13.86 194.23 13.96Q193.99 14.06 193.70 14.18L193.70 14.18Q193.02 14.47 192.05 14.47L192.05 14.47Q190.73 14.47 190.00 13.88Q189.26 13.28 189.26 12.24L189.26 12.24L195.31 12.28Q195.81 12.28 196.22 11.95Q196.64 11.63 196.64 11.12L196.64 11.12Q196.64 9.83 196.18 8.81Q195.72 7.79 194.84 7.22L194.84 7.22Q193.96 6.66 192.73 6.66L192.73 6.66Q191.42 6.66 190.19 7.35Q188.97 8.05 188.21 9.31L188.21 9.31Q187.46 10.57 187.46 12.19L187.46 12.19Q187.46 13.43 188.00 14.33Q188.54 15.23 189.51 15.70L189.51 15.70Q190.48 16.18 191.76 16.18ZM189.42 10.51L189.42 10.51Q189.58 9.90 190.05 9.41Q190.52 8.93 191.17 8.64Q191.81 8.35 192.53 8.35L192.53 8.35Q193.56 8.35 194.15 8.91Q194.75 9.47 194.82 10.51L194.82 10.51Q193.70 10.49 192.34 10.49L192.34 10.49Q190.95 10.51 189.89 10.51L189.89 10.51L189.42 10.51L189.42 10.51ZM221.83 15.34L221.83 15.34L221.83 15.34L221.83 15.34Q221.94 14.92 222.17 14.12Q222.41 13.32 222.62 12.49L222.62 12.49Q222.80 11.72 222.97 10.67L222.97 10.67Q223.49 6.91 220.64 6.66L220.64 6.66Q219.20 6.53 217.78 7.87L217.78 7.87Q218.47 4.59 218.59 4.10L218.59 4.10Q218.70 3.65 218.48 3.42Q218.27 3.19 217.92 3.18Q217.57 3.17 217.24 3.38Q216.92 3.58 216.81 4.03L216.81 4.03Q216.29 6.14 215.64 9.72L215.64 9.72Q214.76 14.49 214.60 15.32L214.60 15.32Q214.49 15.75 214.71 15.98Q214.94 16.20 215.29 16.21Q215.64 16.22 215.96 15.99Q216.29 15.77 216.40 15.32L216.40 15.32Q216.70 13.88 217.39 9.99L217.39 9.99Q217.55 9.79 217.58 9.74L217.58 9.74Q218.23 9.00 218.81 8.70Q219.38 8.41 220.09 8.46L220.09 8.46Q221.45 8.57 221.15 10.82L221.15 10.82Q221.00 11.77 220.52 13.61L220.52 13.61Q220.05 15.28 220.05 15.30L220.05 15.30Q219.96 15.71 220.18 15.95Q220.41 16.18 220.75 16.21Q221.09 16.24 221.41 16.02Q221.72 15.80 221.83 15.34ZM233.30 16.22L233.30 16.22L233.30 16.22L233.30 16.22Q234.13 16.22 234.99 15.78Q235.84 15.34 236.42 14.76L236.42 14.76L236.35 15.25Q236.27 15.70 236.51 15.96Q236.74 16.22 237.10 16.22L237.10 16.22Q237.46 16.22 237.77 15.98Q238.07 15.73 238.15 15.30L238.15 15.30Q238.29 14.47 238.54 13.32L238.54 13.32Q238.83 12.02 239.03 10.85L239.03 10.85Q239.19 9.79 239.19 8.59L239.19 8.59Q239.19 8.14 238.92 7.75Q238.65 7.36 238.25 7.11L238.25 7.11Q237.39 6.64 236.49 6.64L236.49 6.64Q235.27 6.64 234.04 7.43Q232.82 8.21 231.76 9.52L231.76 9.52Q230.98 10.49 230.58 11.37Q230.17 12.24 230.17 13.28L230.17 13.28Q230.17 14.15 230.59 14.81Q231.00 15.48 231.72 15.84L231.72 15.84Q232.42 16.22 233.30 16.22ZM233.75 14.42L233.75 14.42L233.75 14.42L233.75 14.42Q232.98 14.42 232.49 14.02Q232.01 13.63 232.01 12.96L232.01 12.96Q232.01 11.84 233.21 10.31L233.21 10.31Q233.93 9.41 234.71 8.94Q235.48 8.46 236.18 8.46L236.18 8.46Q237.07 8.46 237.35 9.05L237.35 9.05Q237.34 10.37 236.83 12.67L236.83 12.67Q236.69 12.85 236.49 13.09Q236.29 13.32 236.06 13.50L236.06 13.50Q235.48 13.93 234.94 14.18Q234.40 14.42 233.75 14.42ZM247.17 16.20L247.17 16.20L247.17 16.20L247.17 16.20Q247.53 16.20 247.85 15.96Q248.18 15.71 248.27 15.30L248.27 15.30L248.56 13.82L249.20 10.62Q249.80 9.65 250.57 9.02Q251.35 8.39 252.07 8.39L252.07 8.39Q252.70 8.39 253.04 8.79Q253.38 9.20 253.38 9.95L253.38 9.95Q253.38 10.37 253.31 10.95Q253.24 11.54 253.11 12.16Q252.98 12.78 252.82 13.30L252.82 13.30Q252.37 14.78 252.28 15.30L252.28 15.30Q252.19 15.64 252.39 15.92Q252.59 16.20 252.98 16.20L252.98 16.20Q253.33 16.20 253.62 15.98Q253.92 15.77 254.03 15.41L254.03 15.41Q254.48 13.82 254.60 13.43L254.60 13.43Q254.77 12.89 254.91 12.17Q255.05 11.45 255.15 10.71Q255.25 9.97 255.25 9.38L255.25 9.38Q255.25 8.14 254.59 7.41Q253.92 6.68 252.68 6.68L252.68 6.68Q251.81 6.68 251.09 7.08Q250.37 7.49 249.67 8.30L249.67 8.30L249.85 7.58Q249.94 7.22 249.73 6.94Q249.53 6.66 249.11 6.66L249.11 6.66Q248.75 6.66 248.45 6.89Q248.14 7.13 248.05 7.54L248.05 7.54Q246.77 13.90 246.47 15.30L246.47 15.30Q246.38 15.64 246.57 15.92Q246.76 16.20 247.17 16.20ZM266.00 16.24L266.00 16.24L266.00 16.24L266.00 16.24Q266.65 16.24 267.34 16.02Q268.04 15.80 268.65 15.43L268.65 15.43Q268.61 15.75 268.79 15.98Q268.97 16.20 269.33 16.20L269.33 16.20Q269.75 16.20 270.04 15.94Q270.34 15.68 270.41 15.30L270.41 15.30Q271.03 12.40 272.65 4.19L272.65 4.19Q272.72 3.82 272.53 3.57Q272.34 3.33 271.93 3.33L271.93 3.33Q271.53 3.33 271.22 3.58Q270.92 3.83 270.85 4.23L270.85 4.23L270.27 7.11Q270.05 6.98 269.68 6.88Q269.30 6.77 268.88 6.71Q268.47 6.64 268.15 6.64L268.15 6.64Q266.74 6.64 265.50 7.50Q264.26 8.35 263.52 9.76L263.52 9.76Q262.76 11.16 262.76 12.71L262.76 12.71Q262.76 14.26 263.62 15.25Q264.47 16.24 266.00 16.24ZM266.40 14.44L266.40 14.44L266.40 14.44L266.40 14.44Q265.55 14.44 265.08 13.87Q264.60 13.30 264.60 12.35L264.60 12.35Q264.60 11.36 265.02 10.46Q265.45 9.56 266.18 9.00L266.18 9.00Q266.92 8.44 267.80 8.44L267.80 8.44Q268.18 8.44 268.59 8.52Q268.99 8.60 269.17 8.73L269.17 8.73Q269.15 8.75 269.78 9.40L269.78 9.40L269.82 9.41Q269.57 10.76 269.08 13.05L269.08 13.05Q268.87 13.43 268.42 13.74Q267.97 14.06 267.43 14.25Q266.89 14.44 266.40 14.44ZM277.42 19.82L277.42 19.82L277.42 19.82L277.42 19.82Q278.65 19.82 279.76 19.13L279.76 19.13Q280.75 18.50 281.40 17.33L281.40 17.33Q281.76 16.69 282.12 15.97L282.12 15.97Q282.46 15.23 282.57 15.03L282.57 15.03L282.82 14.53L283.36 13.55Q283.87 12.67 284.35 11.84Q284.84 11.00 285.36 10.15L285.36 10.15L285.88 9.27Q286.42 8.32 286.71 7.92L286.71 7.92Q286.91 7.61 286.91 7.29L286.91 7.29Q286.89 6.98 286.67 6.79Q286.44 6.59 286.13 6.61L286.13 6.61Q285.61 6.64 285.29 7.11L285.29 7.11Q284.42 8.44 282.53 11.81L282.53 11.81L281.76 13.18L281.49 11.16Q281.08 8.15 281.04 7.54L281.04 7.54Q281.02 7.13 280.81 6.90Q280.59 6.68 280.25 6.68L280.25 6.68Q279.78 6.68 279.50 7.00Q279.22 7.33 279.26 7.78L279.26 7.78Q279.40 9.34 279.76 11.61L279.76 11.61Q280.21 14.40 280.23 15.71L280.23 15.71Q280.27 15.93 280.36 16.06L280.36 16.06Q280.23 16.18 279.96 16.67L279.96 16.67Q279.56 17.39 279.06 17.68L279.06 17.68Q278.83 17.82 278.50 17.89Q278.18 17.96 277.53 18.02L277.53 18.02Q277.10 18.05 276.81 18.35Q276.52 18.65 276.52 19.03L276.52 19.03Q276.52 19.39 276.76 19.60Q276.99 19.82 277.42 19.82ZM303.64 15.41L303.64 15.41L303.64 15.41L303.64 15.41Q303.60 15.82 303.83 16.03Q304.07 16.24 304.42 16.22Q304.77 16.20 305.08 15.97Q305.38 15.73 305.47 15.26L305.47 15.26Q305.47 15.12 305.52 14.81Q305.56 14.49 305.61 14.21Q305.65 13.93 305.65 13.90L305.65 13.90L305.69 13.72L305.76 13.39L305.85 12.91Q305.94 12.65 306.05 12.20Q306.16 11.75 306.26 11.23Q306.37 10.71 306.44 10.22Q306.52 9.72 306.53 9.38L306.53 9.38Q306.57 8.23 306.08 7.49L306.08 7.49Q305.45 6.64 304.12 6.66L304.12 6.66Q302.47 6.68 300.79 8.01L300.79 8.01Q300.63 7.54 300.31 7.22L300.31 7.22Q299.60 6.55 298.34 6.66L298.34 6.66Q297.19 6.77 296.22 7.36L296.22 7.36Q296.24 7.02 296.00 6.85Q295.75 6.68 295.41 6.69Q295.07 6.70 294.77 6.89Q294.47 7.09 294.40 7.47L294.40 7.47Q294.24 8.23 294.06 9.16Q293.88 10.10 293.71 11.03Q293.54 11.95 293.38 12.69L293.38 12.69Q293.25 13.27 292.80 15.26L292.80 15.26Q292.67 15.70 292.88 15.93Q293.09 16.16 293.44 16.19Q293.79 16.22 294.12 16.01Q294.46 15.80 294.58 15.34L294.58 15.34Q295.05 13.45 295.75 9.85L295.75 9.85Q295.88 9.76 295.99 9.65L295.99 9.65Q296.54 9.05 297.01 8.78L297.01 8.78Q297.50 8.51 298.11 8.46L298.11 8.46Q298.67 8.41 298.88 8.62L298.88 8.62Q299.10 8.82 299.14 9.32L299.14 9.32Q299.15 9.49 299.13 9.85Q299.10 10.21 299.06 10.40L299.06 10.40Q299.05 10.55 298.99 10.84Q298.94 11.12 298.92 11.21L298.92 11.21L298.83 11.65L298.74 12.11Q298.49 13.28 298.11 15.32L298.11 15.32Q298.02 15.75 298.26 15.97Q298.51 16.18 298.87 16.19Q299.23 16.20 299.53 15.98Q299.84 15.75 299.91 15.28L299.91 15.28Q300.29 13.25 300.54 12.11L300.54 12.11Q300.86 10.57 300.92 10.03L300.92 10.03Q302.48 8.53 303.73 8.51L303.73 8.51Q304.28 8.51 304.50 8.79Q304.72 9.07 304.68 9.70L304.68 9.70Q304.68 10.08 304.56 10.67Q304.45 11.27 304.30 11.88Q304.16 12.49 304.05 12.91L304.05 12.91L303.96 13.39L303.87 13.75L303.83 13.93Q303.83 13.93 303.81 14.15Q303.78 14.36 303.74 14.64Q303.71 14.92 303.67 15.15Q303.64 15.37 303.64 15.41ZM316.71 16.22L316.71 16.22L316.71 16.22L316.71 16.22Q317.54 16.22 318.39 15.78Q319.25 15.34 319.82 14.76L319.82 14.76L319.75 15.25Q319.68 15.70 319.91 15.96Q320.15 16.22 320.51 16.22L320.51 16.22Q320.87 16.22 321.17 15.98Q321.48 15.73 321.55 15.30L321.55 15.30Q321.70 14.47 321.95 13.32L321.95 13.32Q322.24 12.02 322.43 10.85L322.43 10.85Q322.60 9.79 322.60 8.59L322.60 8.59Q322.60 8.14 322.33 7.75Q322.06 7.36 321.66 7.11L321.66 7.11Q320.80 6.64 319.90 6.64L319.90 6.64Q318.67 6.64 317.45 7.43Q316.22 8.21 315.16 9.52L315.16 9.52Q314.39 10.49 313.98 11.37Q313.58 12.24 313.58 13.28L313.58 13.28Q313.58 14.15 313.99 14.81Q314.41 15.48 315.13 15.84L315.13 15.84Q315.83 16.22 316.71 16.22ZM317.16 14.42L317.16 14.42L317.16 14.42L317.16 14.42Q316.39 14.42 315.90 14.02Q315.41 13.63 315.41 12.96L315.41 12.96Q315.41 11.84 316.62 10.31L316.62 10.31Q317.34 9.41 318.11 8.94Q318.89 8.46 319.59 8.46L319.59 8.46Q320.47 8.46 320.76 9.05L320.76 9.05Q320.74 10.37 320.24 12.67L320.24 12.67Q320.09 12.85 319.90 13.09Q319.70 13.32 319.46 13.50L319.46 13.50Q318.89 13.93 318.35 14.18Q317.81 14.42 317.16 14.42ZM330.58 16.20L330.58 16.20L330.58 16.20L330.58 16.20Q330.94 16.20 331.26 15.96Q331.58 15.71 331.67 15.30L331.67 15.30L331.96 13.82L332.61 10.62Q333.20 9.65 333.98 9.02Q334.75 8.39 335.47 8.39L335.47 8.39Q336.10 8.39 336.44 8.79Q336.79 9.20 336.79 9.95L336.79 9.95Q336.79 10.37 336.71 10.95Q336.64 11.54 336.52 12.16Q336.39 12.78 336.23 13.30L336.23 13.30Q335.78 14.78 335.69 15.30L335.69 15.30Q335.60 15.64 335.80 15.92Q335.99 16.20 336.39 16.20L336.39 16.20Q336.73 16.20 337.03 15.98Q337.33 15.77 337.43 15.41L337.43 15.41Q337.88 13.82 338.01 13.43L338.01 13.43Q338.17 12.89 338.32 12.17Q338.46 11.45 338.56 10.71Q338.66 9.97 338.66 9.38L338.66 9.38Q338.66 8.14 337.99 7.41Q337.33 6.68 336.08 6.68L336.08 6.68Q335.22 6.68 334.50 7.08Q333.78 7.49 333.08 8.30L333.08 8.30L333.26 7.58Q333.35 7.22 333.14 6.94Q332.93 6.66 332.52 6.66L332.52 6.66Q332.16 6.66 331.85 6.89Q331.55 7.13 331.46 7.54L331.46 7.54Q330.18 13.90 329.87 15.30L329.87 15.30Q329.78 15.64 329.97 15.92Q330.16 16.20 330.58 16.20ZM360.07 16.20L360.07 16.20L360.07 16.20L360.07 16.20Q361.10 16.20 362.09 15.79Q363.08 15.37 363.71 14.62L363.71 14.62Q364.34 13.88 364.34 12.92L364.34 12.92Q364.34 12.02 363.84 11.50Q363.35 10.98 362.34 10.71L362.34 10.71Q361.94 10.60 360.65 10.30L360.65 10.30Q360 10.13 359.75 9.92Q359.50 9.70 359.50 9.36L359.50 9.36Q359.50 8.98 359.93 8.69Q360.36 8.39 361.08 8.39L361.08 8.39Q361.85 8.39 362.34 8.60Q362.83 8.80 363.22 9.20L363.22 9.20Q363.73 9.70 364.25 9.70L364.25 9.70Q364.63 9.70 364.90 9.41Q365.17 9.13 365.13 8.77L365.13 8.77Q365.08 8.03 364.00 7.33L364.00 7.33Q363.51 7.00 362.93 6.83Q362.34 6.66 361.49 6.66L361.49 6.66Q360.45 6.66 359.57 7.07Q358.69 7.49 358.16 8.17L358.16 8.17Q357.64 8.87 357.64 9.65L357.64 9.65Q357.64 10.58 358.25 11.17Q358.85 11.75 359.96 11.99L359.96 11.99Q360.72 12.15 361.15 12.26L361.15 12.26Q361.94 12.44 362.23 12.62L362.23 12.62Q362.50 12.82 362.50 13.14L362.50 13.14Q362.50 13.70 361.90 14.09Q361.30 14.47 360.38 14.47L360.38 14.47Q359.33 14.47 358.83 14.24L358.83 14.24Q358.33 14.02 358.33 13.68L358.33 13.68Q358.33 13.57 358.34 13.46Q358.36 13.36 358.38 13.27L358.38 13.27Q358.43 13.07 358.43 12.85L358.43 12.85Q358.43 12.56 358.21 12.40Q357.98 12.24 357.70 12.22L357.70 12.22Q357.16 12.22 356.82 12.65Q356.49 13.09 356.51 13.77L356.51 13.77Q356.54 14.76 357.30 15.41L357.30 15.41Q357.70 15.73 358.40 15.97Q359.10 16.20 360.07 16.20ZM375.77 16.20L375.77 16.20L375.77 16.20L375.77 16.20Q377.29 16.20 378.53 15.35Q379.77 14.51 380.47 13.18L380.47 13.18Q381.17 11.84 381.17 10.42L381.17 10.42Q381.17 9.40 380.74 8.55Q380.31 7.70 379.57 7.22L379.57 7.22Q378.82 6.73 377.93 6.73L377.93 6.73L377.39 6.73Q377.25 6.66 377.03 6.66L377.03 6.66Q376.94 6.66 376.84 6.68L376.84 6.68Q376.71 6.71 376.46 6.73L376.46 6.73Q375.34 6.84 374.33 7.65Q373.31 8.46 372.68 9.74L372.68 9.74Q372.03 11.03 372.03 12.51L372.03 12.51Q372.03 14.20 373.06 15.20Q374.08 16.20 375.77 16.20ZM376.10 14.45L376.10 14.45L376.10 14.45L376.10 14.45Q374.98 14.45 374.42 13.88Q373.85 13.30 373.85 12.24L373.85 12.24Q373.85 11.39 374.13 10.68Q374.41 9.97 374.85 9.45Q375.29 8.93 375.77 8.64L375.77 8.64Q376.24 8.37 376.58 8.37L376.58 8.37Q376.69 8.37 376.80 8.39L376.80 8.39Q376.91 8.42 377.03 8.44L377.03 8.44Q377.32 8.48 377.72 8.48L377.72 8.48Q378.37 8.48 378.86 9.09Q379.36 9.70 379.36 10.62L379.36 10.62Q379.36 11.68 378.88 12.56Q378.40 13.45 377.65 13.95L377.65 13.95Q376.89 14.45 376.10 14.45ZM389.96 15.34L389.96 15.34L389.96 15.34L389.96 15.34Q390.34 13.75 390.75 11.89Q391.15 10.03 391.60 7.74L391.60 7.74Q392.05 5.45 392.32 4.21L392.32 4.21Q392.43 3.78 392.20 3.56Q391.98 3.33 391.63 3.32Q391.28 3.31 390.95 3.54Q390.63 3.76 390.52 4.21L390.52 4.21Q390.29 5.29 390.03 6.60Q389.77 7.90 389.50 9.23Q389.24 10.55 389.03 11.63L389.03 11.63Q388.76 12.87 388.18 15.26L388.18 15.26Q388.06 15.70 388.26 15.93Q388.47 16.16 388.82 16.19Q389.17 16.22 389.50 16.01Q389.84 15.80 389.96 15.34ZM404.84 16.20L404.84 16.20L404.84 16.20L404.84 16.20Q405.20 16.22 405.53 15.97Q405.86 15.71 405.95 15.35L405.95 15.35Q406.89 11.77 407.65 7.52L407.65 7.52Q407.70 7.11 407.48 6.89Q407.25 6.68 406.89 6.67Q406.53 6.66 406.22 6.89Q405.92 7.13 405.83 7.60L405.83 7.60Q405.40 10.06 404.86 12.46L404.86 12.46Q404.41 13.23 404.03 13.61Q403.65 13.99 403.24 14.14Q402.82 14.29 402.30 14.38L402.30 14.38Q401.72 14.38 401.51 14.22L401.51 14.22Q400.99 13.82 400.82 12.73L400.82 12.73Q400.73 11.97 400.85 11.26Q400.97 10.55 401.17 9.74L401.17 9.74Q401.26 9.38 401.51 8.62L401.51 8.62Q401.74 7.87 401.81 7.60L401.81 7.60Q401.94 7.16 401.74 6.92Q401.54 6.68 401.19 6.65Q400.84 6.62 400.51 6.81Q400.18 7.00 400.05 7.45L400.05 7.45Q400.00 7.58 399.87 7.99Q399.74 8.41 399.61 8.87Q399.47 9.32 399.40 9.61L399.40 9.61Q399.29 10.06 399.13 10.77Q398.97 11.48 398.95 12.11L398.95 12.11Q398.93 12.73 399.01 13.30L399.01 13.30Q399.22 14.96 400.09 15.68L400.09 15.68Q400.97 16.42 402.30 16.09L402.30 16.09Q403.22 15.88 404.21 15.16L404.21 15.16Q404.12 15.71 404.32 15.95Q404.51 16.18 404.84 16.20ZM417.21 16.15L417.21 16.15L417.21 16.15L417.21 16.15Q417.62 16.29 417.96 16.10Q418.29 15.91 418.47 15.57Q418.65 15.23 418.59 14.90Q418.52 14.58 418.15 14.45L418.15 14.45Q418.04 14.40 417.76 14.32Q417.48 14.24 417.25 14.17Q417.01 14.09 416.98 14.06L416.98 14.06Q416.78 13.91 416.81 13.49Q416.85 13.07 416.96 12.47L416.96 12.47Q417.14 11.41 417.53 9.72L417.53 9.72Q417.62 9.34 417.82 8.46L417.82 8.46L418.79 8.42Q419.26 8.39 419.52 8.10Q419.78 7.81 419.82 7.46Q419.86 7.11 419.66 6.86Q419.46 6.61 419.05 6.62L419.05 6.62L418.25 6.66L418.67 4.95Q418.79 4.52 418.59 4.28Q418.38 4.05 418.03 4.02Q417.68 4.00 417.35 4.20Q417.01 4.41 416.89 4.88L416.89 4.88Q416.65 5.85 416.42 6.80L416.42 6.80L416.00 6.84Q415.55 6.91 415.30 7.20Q415.05 7.49 415.02 7.84Q415.00 8.19 415.19 8.43Q415.39 8.68 415.84 8.64L415.84 8.64L415.99 8.62Q415.81 9.38 415.73 9.70L415.73 9.70Q415.34 11.43 415.16 12.53L415.16 12.53Q414.91 13.95 415.00 14.44L415.00 14.44Q415.12 15.05 415.46 15.37Q415.79 15.70 416.26 15.88L416.26 15.88Q416.47 15.97 416.80 16.04L416.80 16.04Q417.12 16.11 417.21 16.15ZM425.82 15.34L425.82 15.34L425.82 15.34L425.82 15.34Q425.71 15.77 425.94 15.98Q426.16 16.20 426.52 16.21Q426.88 16.22 427.21 15.99Q427.53 15.77 427.62 15.30L427.62 15.30Q427.87 13.95 428.52 11.18L428.52 11.18Q429.15 8.41 429.33 7.54L429.33 7.54Q429.42 7.11 429.19 6.89Q428.95 6.66 428.60 6.65Q428.25 6.64 427.94 6.86Q427.62 7.07 427.53 7.54L427.53 7.54Q427.35 8.41 426.72 11.20L426.72 11.20Q426.07 13.99 425.82 15.34ZM429.83 3.60L429.83 3.60L429.83 3.60L429.83 3.60Q429.60 3.28 429.24 3.31Q428.88 3.35 428.57 3.60Q428.27 3.85 428.16 4.20Q428.05 4.55 428.30 4.86L428.30 4.86Q428.54 5.18 428.90 5.15Q429.26 5.11 429.57 4.85Q429.89 4.59 429.99 4.25Q430.09 3.91 429.83 3.60ZM440.01 16.20L440.01 16.20L440.01 16.20L440.01 16.20Q441.52 16.20 442.76 15.35Q444.01 14.51 444.71 13.18L444.71 13.18Q445.41 11.84 445.41 10.42L445.41 10.42Q445.41 9.40 444.98 8.55Q444.55 7.70 443.81 7.22L443.81 7.22Q443.05 6.73 442.17 6.73L442.17 6.73L441.63 6.73Q441.49 6.66 441.27 6.66L441.27 6.66Q441.18 6.66 441.07 6.68L441.07 6.68Q440.95 6.71 440.69 6.73L440.69 6.73Q439.58 6.84 438.56 7.65Q437.54 8.46 436.91 9.74L436.91 9.74Q436.27 11.03 436.27 12.51L436.27 12.51Q436.27 14.20 437.29 15.20Q438.32 16.20 440.01 16.20ZM440.33 14.45L440.33 14.45L440.33 14.45L440.33 14.45Q439.22 14.45 438.65 13.88Q438.08 13.30 438.08 12.24L438.08 12.24Q438.08 11.39 438.36 10.68Q438.64 9.97 439.08 9.45Q439.52 8.93 440.01 8.64L440.01 8.64Q440.48 8.37 440.82 8.37L440.82 8.37Q440.93 8.37 441.04 8.39L441.04 8.39Q441.14 8.42 441.27 8.44L441.27 8.44Q441.56 8.48 441.95 8.48L441.95 8.48Q442.60 8.48 443.10 9.09Q443.59 9.70 443.59 10.62L443.59 10.62Q443.59 11.68 443.12 12.56Q442.64 13.45 441.88 13.95L441.88 13.95Q441.13 14.45 440.33 14.45ZM453.23 16.20L453.23 16.20L453.23 16.20L453.23 16.20Q453.59 16.20 453.91 15.96Q454.24 15.71 454.33 15.30L454.33 15.30L454.61 13.82L455.26 10.62Q455.86 9.65 456.63 9.02Q457.40 8.39 458.12 8.39L458.12 8.39Q458.75 8.39 459.10 8.79Q459.44 9.20 459.44 9.95L459.44 9.95Q459.44 10.37 459.37 10.95Q459.29 11.54 459.17 12.16Q459.04 12.78 458.88 13.30L458.88 13.30Q458.43 14.78 458.34 15.30L458.34 15.30Q458.25 15.64 458.45 15.92Q458.65 16.20 459.04 16.20L459.04 16.20Q459.38 16.20 459.68 15.98Q459.98 15.77 460.09 15.41L460.09 15.41Q460.54 13.82 460.66 13.43L460.66 13.43Q460.82 12.89 460.97 12.17Q461.11 11.45 461.21 10.71Q461.31 9.97 461.31 9.38L461.31 9.38Q461.31 8.14 460.64 7.41Q459.98 6.68 458.74 6.68L458.74 6.68Q457.87 6.68 457.15 7.08Q456.43 7.49 455.73 8.30L455.73 8.30L455.91 7.58Q456 7.22 455.79 6.94Q455.59 6.66 455.17 6.66L455.17 6.66Q454.81 6.66 454.51 6.89Q454.20 7.13 454.11 7.54L454.11 7.54Q452.83 13.90 452.53 15.30L452.53 15.30Q452.44 15.64 452.63 15.92Q452.81 16.20 453.23 16.20Z" transform="translate(0, 0)"></path></g></svg></g><g transform="rotate(0 0 0)"><svg viewBoxSize="575" data-root-id="2825701907315" xmlns="http://www.w3.org/2000/svg" y="353.6799774169922" viewBox="0.7099999785423279 12.449999809265137 404.3699951171875 31.540000915527344" x="85.30518386840819" height="31.540000915527344" width="404.3699951171875" fontUrl="https://fonts.gstatic.com/s/istokweb/v24/3qTqojGmgSyUukBzKslhvU5a_mkUYBfcMw.ttf" zoom="1" editorType="buyer" data-layer-role="brandName" style="position: absolute; top: 353.68px; width: 404.37px; height: 31.54px; left: 85.3052px;"><g data-horizontal-grow="center" zoom="1" root="[object Object]" style="fill: rgb(28, 117, 188); fill-opacity: 1;"><path d="M10.02 18.54L2.29 18.54Q0.71 18.54 0.71 17.17L0.71 17.17L0.71 14.53Q0.71 13.16 2.29 13.16L2.29 13.16L23.87 13.16Q25.45 13.16 25.45 14.53L25.45 14.53L25.45 17.17Q25.45 18.54 23.87 18.54L23.87 18.54L16.15 18.54L16.15 42.12Q16.15 43.27 15.10 43.27L15.10 43.27L11.06 43.27Q10.02 43.27 10.02 42.12L10.02 42.12L10.02 18.54ZM27.97 28.22L27.97 28.22Q27.97 20.98 31.70 16.71Q35.44 12.45 42.37 12.45L42.37 12.45Q49.30 12.45 53.04 16.71Q56.77 20.98 56.77 28.22L56.77 28.22Q56.77 35.46 53.04 39.72Q49.30 43.99 42.37 43.99L42.37 43.99Q35.44 43.99 31.70 39.72Q27.97 35.46 27.97 28.22ZM34.52 28.22L34.52 28.22Q34.52 33.47 36.40 36.25Q38.28 39.03 42.37 39.03L42.37 39.03Q46.46 39.03 48.34 36.25Q50.22 33.47 50.22 28.22L50.22 28.22Q50.22 22.97 48.34 20.19Q46.46 17.41 42.37 17.41L42.37 17.41Q38.28 17.41 36.40 20.19Q34.52 22.97 34.52 28.22ZM68.59 18.54L60.87 18.54Q59.29 18.54 59.29 17.17L59.29 17.17L59.29 14.53Q59.29 13.16 60.87 13.16L60.87 13.16L82.45 13.16Q84.03 13.16 84.03 14.53L84.03 14.53L84.03 17.17Q84.03 18.54 82.45 18.54L82.45 18.54L74.73 18.54L74.73 42.12Q74.73 43.27 73.68 43.27L73.68 43.27L69.64 43.27Q68.59 43.27 68.59 42.12L68.59 42.12L68.59 18.54ZM86.34 43.27L83.00 43.27Q81.49 43.27 82.01 41.89L82.01 41.89L92.30 14.87Q92.95 13.16 94.27 13.16L94.27 13.16L97.21 13.16Q98.53 13.16 99.19 14.87L99.19 14.87L109.47 41.89Q110.00 43.27 108.49 43.27L108.49 43.27L105.15 43.27Q103.76 43.27 103.22 41.82L103.22 41.82L101.08 36.18L90.41 36.18L88.27 41.82Q87.72 43.27 86.34 43.27L86.34 43.27ZM94.94 24.29L92.36 30.97L99.12 30.97L96.54 24.29Q96.08 23.12 95.98 22.58Q95.89 22.05 95.78 21.00L95.78 21.00L95.70 21.00Q95.60 22.05 95.50 22.58Q95.41 23.12 94.94 24.29L94.94 24.29ZM132.11 43.27L115.21 43.27Q113.74 43.27 113.74 41.70L113.74 41.70L113.74 14.74Q113.74 13.16 115.21 13.16L115.21 13.16L118.61 13.16Q119.87 13.16 119.87 14.74L119.87 14.74L119.87 38.07L132.11 38.07Q133.68 38.07 133.68 39.43L133.68 39.43L133.68 41.91Q133.68 43.27 132.11 43.27L132.11 43.27ZM137.82 41.03L137.82 41.03Q136.52 40.04 137.19 39.03L137.19 39.03L138.81 36.60Q139.60 35.40 141.14 36.47L141.14 36.47Q142.31 37.29 144.21 38.16Q146.11 39.03 148.21 39.03L148.21 39.03Q149.68 39.03 151.05 38.70Q152.41 38.36 153.12 37.39Q153.84 36.43 153.84 35.11L153.84 35.11Q153.84 34.16 153.52 33.45Q153.21 32.73 152.49 32.27Q151.78 31.81 151.02 31.49L151.02 31.49Q149.70 30.95 147.70 30.41Q145.69 29.88 143.74 29.12L143.74 29.12Q142.00 28.45 140.55 27.27Q139.10 26.10 138.30 24.63Q137.50 23.16 137.50 20.70L137.50 20.70Q137.50 17.78 139.39 15.71Q141.28 13.63 143.74 13.04Q146.20 12.45 148.69 12.45L148.69 12.45Q151.17 12.45 153.81 13.21Q156.44 13.96 157.79 15.10L157.79 15.10Q159.11 16.21 158.44 17.11L158.44 17.11L156.74 19.40Q155.88 20.58 154.43 19.59L154.43 19.59Q153.50 18.96 151.90 18.18Q150.29 17.41 148.55 17.41L148.55 17.41Q147.31 17.41 146.27 17.62Q145.23 17.83 144.43 18.62Q143.63 19.42 143.63 20.60L143.63 20.60Q143.63 21.73 144.22 22.43Q144.81 23.14 145.52 23.48Q146.24 23.83 146.97 24.06L146.97 24.06Q149.24 24.80 151.02 25.35Q152.81 25.91 154.32 26.58L154.32 26.58Q156.42 27.53 157.53 28.47Q158.65 29.42 159.37 31.05Q160.10 32.69 160.10 34.96L160.10 34.96Q160.10 38.32 157.95 40.51Q155.81 42.71 153.20 43.35Q150.58 43.99 148.11 43.99L148.11 43.99Q144.45 43.99 142.16 43.28Q139.88 42.58 137.82 41.03ZM170.26 43.27L167.07 43.27Q165.60 43.27 165.60 41.70L165.60 41.70L165.60 14.74Q165.60 13.16 167.07 13.16L167.07 13.16L174.92 13.16Q182.48 13.16 185.41 15.62Q188.33 18.08 188.33 22.59L188.33 22.59Q188.33 27.11 185.41 29.56Q182.48 32.02 174.92 32.02L174.92 32.02L171.73 32.02L171.73 41.70Q171.73 43.27 170.26 43.27L170.26 43.27ZM171.73 18.29L171.73 26.90L174.90 26.90Q179.10 26.90 180.61 25.90Q182.12 24.90 182.12 22.59L182.12 22.59Q182.12 20.28 180.61 19.28Q179.10 18.29 174.90 18.29L174.90 18.29L171.73 18.29ZM213.64 43.27L194.95 43.27Q193.48 43.27 193.48 41.70L193.48 41.70L193.48 14.74Q193.48 13.16 194.95 13.16L194.95 13.16L212.96 13.16Q214.54 13.16 214.54 14.53L214.54 14.53L214.54 17.01Q214.54 18.37 212.96 18.37L212.96 18.37L199.61 18.37L199.61 25.05L211.85 25.05Q213.43 25.05 213.43 26.41L213.43 26.41L213.43 28.89Q213.43 30.26 211.85 30.26L211.85 30.26L199.61 30.26L199.61 38.07L213.64 38.07Q215.21 38.07 215.21 39.43L215.21 39.43L215.21 41.91Q215.21 43.27 213.64 43.27L213.64 43.27ZM218.80 28.22L218.80 28.22Q218.80 20.98 222.47 16.71Q226.15 12.45 233.08 12.45L233.08 12.45Q237.07 12.45 239.84 13.69Q242.61 14.93 243.74 17.28L243.74 17.28Q244.50 18.83 243.49 19.38L243.49 19.38L240.97 20.72Q239.65 21.44 238.79 19.93L238.79 19.93Q238.24 18.96 236.76 18.18Q235.28 17.41 233.29 17.41L233.29 17.41Q228.88 17.41 227.11 20.19Q225.35 22.97 225.35 28.22L225.35 28.22Q225.35 33.47 227.11 36.25Q228.88 39.03 233.29 39.03L233.29 39.03Q235.66 39.03 237.29 37.96Q238.91 36.89 239.54 35.92L239.54 35.92Q240.57 34.35 241.73 35.13L241.73 35.13L244.25 36.81Q245.28 37.50 244.46 38.91L244.46 38.91Q243.24 41.01 240.28 42.50Q237.32 43.99 233.08 43.99L233.08 43.99Q226.25 43.99 222.53 39.72Q218.80 35.46 218.80 28.22ZM254.79 43.27L251.60 43.27Q250.13 43.27 250.13 41.70L250.13 41.70L250.13 14.74Q250.13 13.16 251.60 13.16L251.60 13.16L254.79 13.16Q256.26 13.16 256.26 14.74L256.26 14.74L256.26 41.70Q256.26 43.27 254.79 43.27L254.79 43.27ZM264.84 43.27L261.51 43.27Q259.99 43.27 260.52 41.89L260.52 41.89L270.81 14.87Q271.46 13.16 272.78 13.16L272.78 13.16L275.72 13.16Q277.04 13.16 277.69 14.87L277.69 14.87L287.98 41.89Q288.51 43.27 287.00 43.27L287.00 43.27L283.66 43.27Q282.27 43.27 281.73 41.82L281.73 41.82L279.58 36.18L268.92 36.18L266.78 41.82Q266.23 43.27 264.84 43.27L264.84 43.27ZM273.45 24.29L270.87 30.97L277.63 30.97L275.05 24.29Q274.59 23.12 274.49 22.58Q274.40 22.05 274.29 21.00L274.29 21.00L274.21 21.00Q274.10 22.05 274.01 22.58Q273.92 23.12 273.45 24.29L273.45 24.29ZM310.62 43.27L293.71 43.27Q292.24 43.27 292.24 41.70L292.24 41.70L292.24 14.74Q292.24 13.16 293.71 13.16L293.71 13.16L297.12 13.16Q298.38 13.16 298.38 14.74L298.38 14.74L298.38 38.07L310.62 38.07Q312.19 38.07 312.19 39.43L312.19 39.43L312.19 41.91Q312.19 43.27 310.62 43.27L310.62 43.27ZM321.30 43.27L318.11 43.27Q316.64 43.27 316.64 41.70L316.64 41.70L316.64 14.74Q316.64 13.16 318.11 13.16L318.11 13.16L321.30 13.16Q322.77 13.16 322.77 14.74L322.77 14.74L322.77 41.70Q322.77 43.27 321.30 43.27L321.30 43.27ZM329.18 41.03L329.18 41.03Q327.88 40.04 328.55 39.03L328.55 39.03L330.16 36.60Q330.96 35.40 332.49 36.47L332.49 36.47Q333.67 37.29 335.57 38.16Q337.47 39.03 339.57 39.03L339.57 39.03Q341.04 39.03 342.40 38.70Q343.77 38.36 344.48 37.39Q345.20 36.43 345.20 35.11L345.20 35.11Q345.20 34.16 344.88 33.45Q344.57 32.73 343.85 32.27Q343.14 31.81 342.38 31.49L342.38 31.49Q341.06 30.95 339.06 30.41Q337.05 29.88 335.10 29.12L335.10 29.12Q333.35 28.45 331.91 27.27Q330.46 26.10 329.66 24.63Q328.86 23.16 328.86 20.70L328.86 20.70Q328.86 17.78 330.75 15.71Q332.64 13.63 335.10 13.04Q337.55 12.45 340.05 12.45L340.05 12.45Q342.53 12.45 345.17 13.21Q347.80 13.96 349.14 15.10L349.14 15.10Q350.47 16.21 349.79 17.11L349.79 17.11L348.09 19.40Q347.23 20.58 345.78 19.59L345.78 19.59Q344.86 18.96 343.25 18.18Q341.65 17.41 339.91 17.41L339.91 17.41Q338.67 17.41 337.63 17.62Q336.59 17.83 335.79 18.62Q334.99 19.42 334.99 20.60L334.99 20.60Q334.99 21.73 335.58 22.43Q336.17 23.14 336.88 23.48Q337.60 23.83 338.33 24.06L338.33 24.06Q340.60 24.80 342.38 25.35Q344.17 25.91 345.68 26.58L345.68 26.58Q347.78 27.53 348.89 28.47Q350.00 29.42 350.73 31.05Q351.45 32.69 351.45 34.96L351.45 34.96Q351.45 38.32 349.31 40.51Q347.17 42.71 344.56 43.35Q341.94 43.99 339.46 43.99L339.46 43.99Q335.81 43.99 333.52 43.28Q331.23 42.58 329.18 41.03ZM363.61 18.54L355.88 18.54Q354.31 18.54 354.31 17.17L354.31 17.17L354.31 14.53Q354.31 13.16 355.88 13.16L355.88 13.16L377.47 13.16Q379.04 13.16 379.04 14.53L379.04 14.53L379.04 17.17Q379.04 18.54 377.47 18.54L377.47 18.54L369.74 18.54L369.74 42.12Q369.74 43.27 368.69 43.27L368.69 43.27L364.66 43.27Q363.61 43.27 363.61 42.12L363.61 42.12L363.61 18.54ZM382.80 41.03L382.80 41.03Q381.50 40.04 382.17 39.03L382.17 39.03L383.79 36.60Q384.59 35.40 386.12 36.47L386.12 36.47Q387.29 37.29 389.19 38.16Q391.09 39.03 393.19 39.03L393.19 39.03Q394.66 39.03 396.03 38.70Q397.39 38.36 398.11 37.39Q398.82 36.43 398.82 35.11L398.82 35.11Q398.82 34.16 398.51 33.45Q398.19 32.73 397.48 32.27Q396.76 31.81 396.01 31.49L396.01 31.49Q394.68 30.95 392.68 30.41Q390.67 29.88 388.72 29.12L388.72 29.12Q386.98 28.45 385.53 27.27Q384.08 26.10 383.28 24.63Q382.49 23.16 382.49 20.70L382.49 20.70Q382.49 17.78 384.38 15.71Q386.27 13.63 388.72 13.04Q391.18 12.45 393.68 12.45L393.68 12.45Q396.15 12.45 398.79 13.21Q401.42 13.96 402.77 15.10L402.77 15.10Q404.09 16.21 403.42 17.11L403.42 17.11L401.72 19.40Q400.86 20.58 399.41 19.59L399.41 19.59Q398.48 18.96 396.88 18.18Q395.27 17.41 393.53 17.41L393.53 17.41Q392.29 17.41 391.25 17.62Q390.21 17.83 389.41 18.62Q388.62 19.42 388.62 20.60L388.62 20.60Q388.62 21.73 389.20 22.43Q389.79 23.14 390.51 23.48Q391.22 23.83 391.96 24.06L391.96 24.06Q394.22 24.80 396.01 25.35Q397.79 25.91 399.30 26.58L399.30 26.58Q401.40 27.53 402.52 28.47Q403.63 29.42 404.35 31.05Q405.08 32.69 405.08 34.96L405.08 34.96Q405.08 38.32 402.94 40.51Q400.79 42.71 398.18 43.35Q395.57 43.99 393.09 43.99L393.09 43.99Q389.44 43.99 387.15 43.28Q384.86 42.58 382.80 41.03Z" transform="translate(0, 0)"></path></g></svg></g></svg>