<svg viewBox="0 0 575 575" class="roots-wrapper"><g transform="rotate(0 0 0)"><svg viewBoxSize="575" data-root-id="3351939490584" xmlns="http://www.w3.org/2000/svg" xmlns:xlink="http://www.w3.org/1999/xlink" version="1.1" id="Calque_1" x="173.49801635742188" y="135.87472429954073" viewBox="0 0 863.400146484375 814.1000366210938" xml:space="preserve" height="214.98108118607476" width="228" preserveAspectRatio="xMinYMin" zoom="1" editorType="buyer" data-layer-role="icon" style="position: absolute; height: 214.981px; width: 228px; top: 135.875px; left: 173.498px;"><path class="st0" d="M204.8,546.2c4.1,16.9,12.8,32,26.1,43.6l147,129c32,27.3,79,27.3,110.4-0.6l144.7-129  c12.8-11.6,21.5-26.7,25.6-43.6L733,223.1c9.9-43.6-16.3-87.2-59.3-98.8l-240-65.7l-243.5,66.2c-43,11.6-69.1,55.2-59.3,98.8  L204.8,546.2z" name="Layer %{number}" zoom="1" data-layer-id="5607674390584" style="fill: rgb(9, 19, 33);"></path><path class="st1" d="M433.8,58.7l240,65.7c43,11.6,69.1,55.2,59.3,98.8l-74.4,322.5c-4.1,16.9-12.8,32-25.6,43.6l-144.7,129   C457,746.1,410,746.1,378,718.8l-147-129c-13.4-11.6-22.1-26.7-26.1-43.6L131,223.7c-9.9-43.6,16.3-87.2,59.3-98.8L433.8,58.7    M434.4,0L122.9,84.3c-43,11.6-69.1,55.2-59.3,98.8l90.6,392.2c4.1,16.9,12.8,32.5,26.1,43.6l198.1,174.3   c31.4,27.9,79,27.3,110.4-0.6L684,618.3c12.8-11.6,22.1-26.7,25.6-43.6l90.6-392.8c9.9-43.6-16.3-87.2-59.3-98.8L434.4,0L434.4,0z" name="Layer %{number}" zoom="1" data-layer-id="9599875190584" style="fill: rgb(37, 161, 176); fill-opacity: 1;"></path><path class="st2" d="M434.9,0h-0.6L122.9,84.3c-43,11.6-69.1,55.2-59.3,98.8l90.6,392.2c4.1,16.9,12.8,32.5,26.1,43.6l198.1,174.3  c16.3,13.9,36,20.9,55.8,20.9V0H434.9z" name="Layer %{number}" zoom="1" data-layer-id="1143414590584" style="opacity: 0.2;"></path><path class="st3" d="M269.9,181.3l56.9,34.9l-1.2,65.7l-58.1,30.8l-56.9-34.9l1.2-65.7L269.9,181.3 M271.1,154.6l-81.9,43.6   l-1.7,92.4l79.6,49.4l81.9-43.6l1.7-93L271.1,154.6L271.1,154.6z" name="Layer %{number}" zoom="1" data-layer-id="2372848590584" style="fill: rgb(255, 255, 255);"></path><path class="st3" d="M626.7,377.1c15.7-37.2,13.4-73.8-2.9-108.7c-20.9-44.7-58.1-73.8-105.8-92.4c-15.7-2.9-75.5-26.7-142.9,13.4  c-10.5,8.1-10.5,10.5,0,18.6c26.1,18.6,52.9,34.3,81.9,52.9c20.9,13.4,32,34.3,26.1,61c-5.2,29.1-20.9,52.9-42.4,71.5  c-23.8,20.9-47.6,23.8-73.8,8.1c-26.1-15.7-55.8-34.3-81.9-50c-8.1-5.2-13.4-2.9-15.7,5.2c-5.2,23.8-8.1,47.6,0,68.6  c13.4,63.3,76.7,111,145.3,113.9c20.9,0,42.4-2.9,63.3-10.5c10.5-5.2,18.6-2.9,26.1,5.2c10.5,13.4,23.8,23.8,34.3,34.3  c15.7,15.7,34.9,34.3,56.4,55.2l37.8-33.7c3.5-3.5,7-7,9.9-10.5c-26.7-26.7-51.1-51.1-72.1-72.1c-5.2-5.2-10.5-10.5-10.5-18.6  c0-10.5,5.2-18.6,13.4-23.8c8.1-5.2,15.7-2.9,23.8,2.9c2.9,2.9,5.2,5.2,8.1,8.1c15.7,15.7,34.9,34.9,56.4,56.4l16.9-73.2  c-17.4-17.4-33.7-33.7-47.1-47.1C619.1,395.7,619.1,395.7,626.7,377.1z" name="Layer %{number}" zoom="1" data-layer-id="4931313390584" style="fill: rgb(255, 255, 255);"></path><path class="st0" d="M841.9,506.7h-1.2c-9.3,0-16.9-5.8-19.8-14.5c-3.5-10.5-7.6-20.9-12.8-30.2c-4.1-8.1-2.3-18,4.1-24.4l0.6-0.6  c8.1-8.1,8.1-21.5,0-29.6L788.4,383c-8.1-8.1-21.5-8.1-29.6,0l-0.6,0.6c-1.7,1.7-3.5,2.8-5.2,3.7l-16.2,70.1  c22.5,22,37.1,53.5,37.1,87.7c0,67.4-54.6,122.6-122.6,122.6c-7,0-13.9-0.6-20.3-1.7l-48.2,43c5.2,2.3,10.5,4.1,16.3,5.8  c8.7,2.9,14.5,11,14.5,19.8v1.2c0,11.6,9.3,20.9,20.9,20.9h34.3c11.6,0,20.9-9.3,20.9-20.9v-1.2c0-9.3,5.8-16.9,14.5-19.8  c10.5-3.5,20.9-7.6,30.2-12.8c8.1-4.1,18-2.3,24.4,4.1l0.6,0.6c8.1,8.1,21.5,8.1,29.6,0l24.4-24.4c8.1-8.1,8.1-21.5,0-29.6l-0.6-0.6  c-6.4-6.4-8.1-16.3-4.1-24.4c5.2-9.9,9.3-19.8,12.8-30.2c2.9-8.7,11-14.5,19.8-14.5h1.2c11.6,0,20.9-9.3,20.9-20.9v-34.3  C862.9,516,853.6,506.7,841.9,506.7z" name="Layer %{number}" zoom="1" data-layer-id="0818294390584" style="fill: rgb(9, 19, 33);"></path><path class="st0" d="M104.6,383.5l-0.6-0.6c-8.1-8.1-21.5-8.1-29.6,0L50,407.3c-8.1,8.1-8.1,21.5,0,29.6l0.6,0.6  c6.4,6.4,8.1,16.3,4.1,24.4c-5.2,9.9-9.3,19.8-12.8,30.2c-2.9,8.7-11,14.5-19.8,14.5h-1.2C9.3,506.7,0,516,0,527.6v34.3  c0,11.6,9.3,20.9,20.9,20.9h1.2c9.3,0,16.9,5.8,19.8,14.5c3.5,10.5,7.6,20.9,12.8,30.2c4.1,8.1,2.3,18-4.1,24.4l-0.6,0.6  c-8.1,8.1-8.1,21.5,0,29.6l24.4,24.4c8.1,8.1,21.5,8.1,29.6,0l0.6-0.6c6.4-6.4,16.3-8.1,24.4-4.1c9.9,5.2,19.8,9.3,30.2,12.8  c8.7,2.9,14.5,11,14.5,19.8v1.2c0,11.6,9.3,20.9,20.9,20.9h34.3c11.6,0,20.9-9.3,20.9-20.9v-1.2c0-9.3,5.8-16.9,14.5-19.8  c5.8-1.7,11.6-4.1,17.4-6.4l-48.2-42.4c-8.1,0-15.1,1.2-22.1,1.2C144,667,88.8,612.4,88.8,544.4c0-34.6,14.3-65.8,37.8-88.4  L111,387.9C108.8,386.8,106.2,385.6,104.6,383.5z" name="Layer %{number}" zoom="1" data-layer-id="9546982390584" style="fill: rgb(9, 19, 33);"></path><path class="st2" d="M709.8,574.7l82.7-358.5l-66.7-49.7c8.7,16.9,11.7,36.8,7.2,56.7l-74.4,322.5c-4.1,16.9-12.8,32-25.6,43.6  l-144.7,129c-0.9,0.8-1.9,1.6-2.8,2.4l32.8,45.7l165.8-148C697,606.7,706.3,591.5,709.8,574.7z" name="Layer %{number}" zoom="1" data-layer-id="4479612990584" style="opacity: 0.2;"></path></svg></g><g transform="rotate(0 0 0)"><svg viewBoxSize="575" data-root-id="5885465790584" xmlns="http://www.w3.org/2000/svg" y="417.9352722167969" viewBox="7.320000171661377 6 543.4299926757812 21.190000534057617" x="15.7850341796875" height="21.190000534057617" width="543.4299926757812" fontUrl="https://fonts.gstatic.com/s/roboto/v32/KFOlCnqEu92Fr1MmEU9vAx05IsDqlA.ttf" zoom="1" editorType="buyer" data-layer-role="slogan" style="position: absolute; top: 417.935px; width: 543.43px; height: 21.19px; left: 15.785px;"><g data-horizontal-grow="center" zoom="1" root="[object Object]" style="fill: rgb(37, 161, 176); fill-opacity: 1;"><path d="M11.30 6.29L16.04 16.06L20.79 6.29L24.75 6.29L17.84 19.31L17.84 26.90L14.25 26.90L14.25 19.31L7.32 6.29L11.30 6.29ZM43.03 15.99L43.03 17.13Q43.03 20.16 41.98 22.45Q40.94 24.74 38.99 25.96Q37.04 27.19 34.51 27.19L34.51 27.19Q32.00 27.19 30.04 25.96Q28.08 24.74 27.01 22.47Q25.94 20.21 25.93 17.25L25.93 17.25L25.93 16.09Q25.93 13.07 27.00 10.76Q28.07 8.45 30.01 7.23Q31.96 6.00 34.48 6.00Q37.00 6.00 38.95 7.21Q40.89 8.43 41.96 10.70Q43.02 12.97 43.03 15.99L43.03 15.99ZM39.45 17.13L39.45 16.06Q39.45 12.63 38.15 10.80Q36.86 8.98 34.48 8.98L34.48 8.98Q32.16 8.98 30.85 10.80Q29.54 12.62 29.51 15.94L29.51 15.94L29.51 17.13Q29.51 20.53 30.83 22.39Q32.16 24.24 34.51 24.24L34.51 24.24Q36.89 24.24 38.17 22.43Q39.45 20.62 39.45 17.13L39.45 17.13ZM58.11 6.29L61.68 6.29L61.68 20.06Q61.68 23.35 59.58 25.27Q57.48 27.19 53.98 27.19L53.98 27.19Q50.44 27.19 48.36 25.30Q46.28 23.41 46.28 20.05L46.28 20.05L46.28 6.29L49.84 6.29L49.84 20.08Q49.84 22.15 50.89 23.24Q51.94 24.33 53.98 24.33L53.98 24.33Q58.11 24.33 58.11 19.97L58.11 19.97L58.11 6.29ZM77.22 26.90L73.08 18.96L69.09 18.96L69.09 26.90L65.50 26.90L65.50 6.29L72.75 6.29Q76.32 6.29 78.26 7.89Q80.20 9.49 80.20 12.52L80.20 12.52Q80.20 14.58 79.20 15.98Q78.21 17.37 76.42 18.13L76.42 18.13L81.05 26.72L81.05 26.90L77.22 26.90ZM69.09 9.18L69.09 16.09L72.77 16.09Q74.58 16.09 75.60 15.17Q76.62 14.26 76.62 12.67L76.62 12.67Q76.62 11.02 75.68 10.11Q74.74 9.20 72.87 9.18L72.87 9.18L69.09 9.18ZM102.99 20.19L106.56 20.19Q106.24 23.49 104.12 25.34Q102.00 27.19 98.47 27.19L98.47 27.19Q96.01 27.19 94.13 26.02Q92.25 24.85 91.23 22.70Q90.21 20.55 90.17 17.70L90.17 17.70L90.17 15.77Q90.17 12.86 91.21 10.63Q92.24 8.41 94.17 7.21Q96.10 6.00 98.64 6.00L98.64 6.00Q102.05 6.00 104.13 7.86Q106.22 9.71 106.56 13.10L106.56 13.10L102.99 13.10Q102.73 10.88 101.69 9.89Q100.65 8.91 98.64 8.91L98.64 8.91Q96.30 8.91 95.05 10.61Q93.80 12.32 93.77 15.62L93.77 15.62L93.77 17.45Q93.77 20.79 94.97 22.54Q96.16 24.30 98.47 24.30L98.47 24.30Q100.58 24.30 101.64 23.35Q102.70 22.40 102.99 20.19L102.99 20.19ZM126.21 15.99L126.21 17.13Q126.21 20.16 125.16 22.45Q124.11 24.74 122.17 25.96Q120.22 27.19 117.69 27.19L117.69 27.19Q115.18 27.19 113.22 25.96Q111.26 24.74 110.19 22.47Q109.12 20.21 109.10 17.25L109.10 17.25L109.10 16.09Q109.10 13.07 110.17 10.76Q111.24 8.45 113.19 7.23Q115.14 6.00 117.66 6.00Q120.18 6.00 122.12 7.21Q124.07 8.43 125.13 10.70Q126.20 12.97 126.21 15.99L126.21 15.99ZM122.63 17.13L122.63 16.06Q122.63 12.63 121.33 10.80Q120.04 8.98 117.66 8.98L117.66 8.98Q115.33 8.98 114.02 10.80Q112.71 12.62 112.69 15.94L112.69 15.94L112.69 17.13Q112.69 20.53 114.01 22.39Q115.33 24.24 117.69 24.24L117.69 24.24Q120.06 24.24 121.35 22.43Q122.63 20.62 122.63 17.13L122.63 17.13ZM129.78 6.29L134.42 6.29L140.37 22.09L146.30 6.29L150.93 6.29L150.93 26.90L147.36 26.90L147.36 20.11L147.72 11.02L141.63 26.90L139.07 26.90L132.99 11.03L133.35 20.11L133.35 26.90L129.78 26.90L129.78 6.29ZM163.01 19.24L158.75 19.24L158.75 26.90L155.17 26.90L155.17 6.29L163.05 6.29Q166.51 6.29 168.54 8.09Q170.57 9.88 170.57 12.84L170.57 12.84Q170.57 15.87 168.58 17.56Q166.59 19.24 163.01 19.24L163.01 19.24ZM158.75 9.18L158.75 16.37L163.05 16.37Q164.97 16.37 165.97 15.47Q166.98 14.57 166.98 12.87L166.98 12.87Q166.98 11.20 165.96 10.20Q164.94 9.20 163.15 9.18L163.15 9.18L158.75 9.18ZM177.29 6.29L177.29 24.04L186.65 24.04L186.65 26.90L173.70 26.90L173.70 6.29L177.29 6.29ZM201.44 14.87L201.44 17.70L192.97 17.70L192.97 24.04L202.87 24.04L202.87 26.90L189.39 26.90L189.39 6.29L202.77 6.29L202.77 9.18L192.97 9.18L192.97 14.87L201.44 14.87ZM220.97 6.29L220.97 9.18L214.54 9.18L214.54 26.90L210.99 26.90L210.99 9.18L204.61 9.18L204.61 6.29L220.97 6.29ZM235.72 14.87L235.72 17.70L227.26 17.70L227.26 24.04L237.15 24.04L237.15 26.90L223.67 26.90L223.67 6.29L237.06 6.29L237.06 9.18L227.26 9.18L227.26 14.87L235.72 14.87ZM263.66 6.29L263.66 26.90L260.09 26.90L260.09 17.74L250.88 17.74L250.88 26.90L247.29 26.90L247.29 6.29L250.88 6.29L250.88 14.87L260.09 14.87L260.09 6.29L263.66 6.29ZM281.38 26.90L279.69 22.10L271.71 22.10L270.03 26.90L266.31 26.90L274.10 6.29L277.31 6.29L285.11 26.90L281.38 26.90ZM275.70 10.66L272.71 19.22L278.69 19.22L275.70 10.66ZM303.81 6.29L303.81 26.90L300.22 26.90L291.03 12.28L291.03 26.90L287.45 26.90L287.45 6.29L291.03 6.29L300.25 20.97L300.25 6.29L303.81 6.29ZM313.97 26.90L308.04 26.90L308.04 6.29L314.13 6.29Q316.86 6.29 318.98 7.50Q321.10 8.72 322.26 10.96Q323.42 13.20 323.42 16.09L323.42 16.09L323.42 17.12Q323.42 20.05 322.25 22.27Q321.08 24.50 318.92 25.70Q316.76 26.90 313.97 26.90L313.97 26.90ZM314.13 9.18L311.62 9.18L311.62 24.04L313.96 24.04Q316.78 24.04 318.28 22.28Q319.79 20.52 319.82 17.22L319.82 17.22L319.82 16.07Q319.82 12.72 318.36 10.95Q316.90 9.18 314.13 9.18L314.13 9.18ZM328.36 6.29L333.10 16.06L337.85 6.29L341.81 6.29L334.90 19.31L334.90 26.90L331.31 26.90L331.31 19.31L324.38 6.29L328.36 6.29ZM344.05 6.29L348.69 6.29L354.64 22.09L360.57 6.29L365.20 6.29L365.20 26.90L361.64 26.90L361.64 20.11L361.99 11.02L355.90 26.90L353.34 26.90L347.26 11.03L347.62 20.11L347.62 26.90L344.05 26.90L344.05 6.29ZM382.92 26.90L381.23 22.10L373.25 22.10L371.58 26.90L367.85 26.90L375.64 6.29L378.85 6.29L386.66 26.90L382.92 26.90ZM377.24 10.66L374.25 19.22L380.23 19.22L377.24 10.66ZM405.35 6.29L405.35 26.90L401.77 26.90L392.58 12.28L392.58 26.90L388.99 26.90L388.99 6.29L392.58 6.29L401.79 20.97L401.79 6.29L405.35 6.29ZM427.58 21.59L427.58 21.59Q427.58 20.23 426.62 19.50Q425.67 18.76 423.18 18.01Q420.68 17.26 419.21 16.34L419.21 16.34Q416.39 14.57 416.39 11.72L416.39 11.72Q416.39 9.23 418.43 7.62Q420.46 6.00 423.70 6.00L423.70 6.00Q425.85 6.00 427.54 6.80Q429.22 7.59 430.19 9.06Q431.15 10.52 431.15 12.31L431.15 12.31L427.58 12.31Q427.58 10.69 426.57 9.78Q425.56 8.86 423.67 8.86L423.67 8.86Q421.92 8.86 420.95 9.61Q419.98 10.37 419.98 11.71L419.98 11.71Q419.98 12.84 421.02 13.60Q422.07 14.36 424.48 15.07Q426.89 15.79 428.34 16.70Q429.80 17.62 430.48 18.80Q431.16 19.98 431.16 21.57L431.16 21.57Q431.16 24.14 429.19 25.67Q427.21 27.19 423.83 27.19L423.83 27.19Q421.59 27.19 419.71 26.36Q417.84 25.53 416.80 24.07Q415.76 22.61 415.76 20.67L415.76 20.67L419.34 20.67Q419.34 22.43 420.50 23.39Q421.66 24.36 423.83 24.36L423.83 24.36Q425.70 24.36 426.64 23.60Q427.58 22.84 427.58 21.59ZM450.76 15.99L450.76 17.13Q450.76 20.16 449.71 22.45Q448.66 24.74 446.72 25.96Q444.77 27.19 442.24 27.19L442.24 27.19Q439.73 27.19 437.77 25.96Q435.81 24.74 434.74 22.47Q433.67 20.21 433.65 17.25L433.65 17.25L433.65 16.09Q433.65 13.07 434.72 10.76Q435.79 8.45 437.74 7.23Q439.69 6.00 442.21 6.00Q444.73 6.00 446.68 7.21Q448.62 8.43 449.68 10.70Q450.75 12.97 450.76 15.99L450.76 15.99ZM447.18 17.13L447.18 16.06Q447.18 12.63 445.88 10.80Q444.59 8.98 442.21 8.98L442.21 8.98Q439.89 8.98 438.58 10.80Q437.27 12.62 437.24 15.94L437.24 15.94L437.24 17.13Q437.24 20.53 438.56 22.39Q439.89 24.24 442.24 24.24L442.24 24.24Q444.61 24.24 445.90 22.43Q447.18 20.62 447.18 17.13L447.18 17.13ZM457.91 6.29L457.91 24.04L467.27 24.04L467.27 26.90L454.33 26.90L454.33 6.29L457.91 6.29ZM481.19 6.29L484.76 6.29L484.76 20.06Q484.76 23.35 482.66 25.27Q480.55 27.19 477.06 27.19L477.06 27.19Q473.52 27.19 471.43 25.30Q469.35 23.41 469.35 20.05L469.35 20.05L469.35 6.29L472.92 6.29L472.92 20.08Q472.92 22.15 473.97 23.24Q475.02 24.33 477.06 24.33L477.06 24.33Q481.19 24.33 481.19 19.97L481.19 19.97L481.19 6.29ZM503.48 6.29L503.48 9.18L497.05 9.18L497.05 26.90L493.50 26.90L493.50 9.18L487.12 9.18L487.12 6.29L503.48 6.29ZM509.96 6.29L509.96 26.90L506.40 26.90L506.40 6.29L509.96 6.29ZM530.82 15.99L530.82 17.13Q530.82 20.16 529.77 22.45Q528.73 24.74 526.78 25.96Q524.83 27.19 522.30 27.19L522.30 27.19Q519.79 27.19 517.83 25.96Q515.87 24.74 514.80 22.47Q513.73 20.21 513.72 17.25L513.72 17.25L513.72 16.09Q513.72 13.07 514.79 10.76Q515.85 8.45 517.80 7.23Q519.75 6.00 522.27 6.00Q524.79 6.00 526.74 7.21Q528.68 8.43 529.75 10.70Q530.81 12.97 530.82 15.99L530.82 15.99ZM527.24 17.13L527.24 16.06Q527.24 12.63 525.94 10.80Q524.65 8.98 522.27 8.98L522.27 8.98Q519.95 8.98 518.64 10.80Q517.33 12.62 517.30 15.94L517.30 15.94L517.30 17.13Q517.30 20.53 518.62 22.39Q519.95 24.24 522.30 24.24L522.30 24.24Q524.68 24.24 525.96 22.43Q527.24 20.62 527.24 17.13L527.24 17.13ZM550.75 6.29L550.75 26.90L547.16 26.90L537.97 12.28L537.97 26.90L534.39 26.90L534.39 6.29L537.97 6.29L547.19 20.97L547.19 6.29L550.75 6.29Z" transform="translate(0, 0)"></path></g></svg></g><g transform="rotate(0 0 0)"><svg viewBoxSize="575" data-root-id="6481604390585" xmlns="http://www.w3.org/2000/svg" y="360.9352722167969" viewBox="0.8400000333786011 13.300000190734863 386.82000732421875 50.400001525878906" x="94.09002807617188" height="50.400001525878906" width="386.82000732421875" fontUrl="https://fonts.gstatic.com/s/bebasneue/v14/JTUSjIg69CK48gW7PXooxW5rygbi49c.ttf" zoom="1" editorType="buyer" data-layer-role="brandName" style="position: absolute; top: 360.935px; width: 386.82px; height: 50.4px; left: 94.09px;"><g data-horizontal-grow="center" zoom="1" root="[object Object]" style="fill: rgb(0, 0, 0);"><path d="M8.89 63.00L8.89 21L0.84 21L0.84 14L24.64 14L24.64 21L16.59 21L16.59 63.00L8.89 63.00ZM39.20 63.70Q33.53 63.70 30.52 60.48Q27.51 57.26 27.51 51.38L27.51 51.38L27.51 25.62Q27.51 19.74 30.52 16.52Q33.53 13.30 39.20 13.30L39.20 13.30Q44.87 13.30 47.88 16.52Q50.89 19.74 50.89 25.62L50.89 25.62L50.89 51.38Q50.89 57.26 47.88 60.48Q44.87 63.70 39.20 63.70L39.20 63.70ZM39.20 56.70Q43.19 56.70 43.19 51.87L43.19 51.87L43.19 25.13Q43.19 20.30 39.20 20.30L39.20 20.30Q35.21 20.30 35.21 25.13L35.21 25.13L35.21 51.87Q35.21 56.70 39.20 56.70L39.20 56.70ZM61.81 63.00L61.81 21L53.76 21L53.76 14L77.56 14L77.56 21L69.51 21L69.51 63.00L61.81 63.00ZM76.02 63.00L84 14L94.43 14L102.41 63.00L94.71 63.00L93.31 53.27L93.31 53.41L84.56 53.41L83.16 63.00L76.02 63.00ZM85.47 46.76L92.40 46.76L88.97 22.54L88.83 22.54L85.47 46.76ZM106.12 63.00L106.12 14L113.82 14L113.82 56.00L126.49 56.00L126.49 63.00L106.12 63.00ZM140.21 63.70Q134.61 63.70 131.74 60.52Q128.87 57.33 128.87 51.38L128.87 51.38L128.87 48.58L136.15 48.58L136.15 51.94Q136.15 56.70 140.14 56.70L140.14 56.70Q142.10 56.70 143.12 55.55Q144.13 54.39 144.13 51.80L144.13 51.80Q144.13 48.72 142.73 46.38Q141.33 44.03 137.55 40.74L137.55 40.74Q132.79 36.54 130.90 33.15Q129.01 29.75 129.01 25.48L129.01 25.48Q129.01 19.67 131.95 16.48Q134.89 13.30 140.49 13.30L140.49 13.30Q146.02 13.30 148.86 16.48Q151.69 19.67 151.69 25.62L151.69 25.62L151.69 27.65L144.41 27.65L144.41 25.13Q144.41 22.61 143.43 21.46Q142.45 20.30 140.56 20.30L140.56 20.30Q136.71 20.30 136.71 24.99L136.71 24.99Q136.71 27.65 138.15 29.96Q139.58 32.27 143.36 35.56L143.36 35.56Q148.19 39.76 150.01 43.19Q151.83 46.62 151.83 51.24L151.83 51.24Q151.83 57.26 148.86 60.48Q145.88 63.70 140.21 63.70L140.21 63.70ZM156.24 63.00L156.24 14L167.58 14Q173.32 14 176.19 17.08Q179.06 20.16 179.06 26.11L179.06 26.11L179.06 30.94Q179.06 36.89 176.19 39.97Q173.32 43.05 167.58 43.05L167.58 43.05L163.94 43.05L163.94 63.00L156.24 63.00ZM163.94 36.05L167.58 36.05Q169.47 36.05 170.42 35Q171.36 33.95 171.36 31.43L171.36 31.43L171.36 25.62Q171.36 23.10 170.42 22.05Q169.47 21 167.58 21L167.58 21L163.94 21L163.94 36.05ZM183.26 63.00L183.26 14L204.26 14L204.26 21L190.96 21L190.96 33.95L201.53 33.95L201.53 40.95L190.96 40.95L190.96 56.00L204.26 56.00L204.26 63.00L183.26 63.00ZM219.52 63.70Q213.99 63.70 211.09 60.55Q208.18 57.40 208.18 51.66L208.18 51.66L208.18 25.34Q208.18 19.60 211.09 16.45Q213.99 13.30 219.52 13.30L219.52 13.30Q225.05 13.30 227.96 16.45Q230.86 19.60 230.86 25.34L230.86 25.34L230.86 30.52L223.58 30.52L223.58 24.85Q223.58 20.30 219.73 20.30L219.73 20.30Q215.88 20.30 215.88 24.85L215.88 24.85L215.88 52.22Q215.88 56.70 219.73 56.70L219.73 56.70Q223.58 56.70 223.58 52.22L223.58 52.22L223.58 44.73L230.86 44.73L230.86 51.66Q230.86 57.40 227.96 60.55Q225.05 63.70 219.52 63.70L219.52 63.70ZM235.48 63.00L235.48 14L243.18 14L243.18 63.00L235.48 63.00ZM246.89 63.00L254.87 14L265.30 14L273.28 63.00L265.58 63.00L264.18 53.27L264.18 53.41L255.43 53.41L254.03 63.00L246.89 63.00ZM256.34 46.76L263.27 46.76L259.84 22.54L259.70 22.54L256.34 46.76ZM276.99 63.00L276.99 14L284.69 14L284.69 56.00L297.36 56.00L297.36 63.00L276.99 63.00ZM301.07 63.00L301.07 14L308.77 14L308.77 63.00L301.07 63.00ZM324.52 63.70Q318.92 63.70 316.05 60.52Q313.18 57.33 313.18 51.38L313.18 51.38L313.18 48.58L320.46 48.58L320.46 51.94Q320.46 56.70 324.45 56.70L324.45 56.70Q326.41 56.70 327.43 55.55Q328.44 54.39 328.44 51.80L328.44 51.80Q328.44 48.72 327.04 46.38Q325.64 44.03 321.86 40.74L321.86 40.74Q317.10 36.54 315.21 33.15Q313.32 29.75 313.32 25.48L313.32 25.48Q313.32 19.67 316.26 16.48Q319.20 13.30 324.80 13.30L324.80 13.30Q330.33 13.30 333.16 16.48Q336 19.67 336 25.62L336 25.62L336 27.65L328.72 27.65L328.72 25.13Q328.72 22.61 327.74 21.46Q326.76 20.30 324.87 20.30L324.87 20.30Q321.02 20.30 321.02 24.99L321.02 24.99Q321.02 27.65 322.45 29.96Q323.89 32.27 327.67 35.56L327.67 35.56Q332.50 39.76 334.32 43.19Q336.14 46.62 336.14 51.24L336.14 51.24Q336.14 57.26 333.16 60.48Q330.19 63.70 324.52 63.70L324.52 63.70ZM346.57 63.00L346.57 21L338.52 21L338.52 14L362.32 14L362.32 21L354.27 21L354.27 63.00L346.57 63.00ZM376.04 63.70Q370.44 63.70 367.57 60.52Q364.70 57.33 364.70 51.38L364.70 51.38L364.70 48.58L371.98 48.58L371.98 51.94Q371.98 56.70 375.97 56.70L375.97 56.70Q377.93 56.70 378.95 55.55Q379.96 54.39 379.96 51.80L379.96 51.80Q379.96 48.72 378.56 46.38Q377.16 44.03 373.38 40.74L373.38 40.74Q368.62 36.54 366.73 33.15Q364.84 29.75 364.84 25.48L364.84 25.48Q364.84 19.67 367.78 16.48Q370.72 13.30 376.32 13.30L376.32 13.30Q381.85 13.30 384.69 16.48Q387.52 19.67 387.52 25.62L387.52 25.62L387.52 27.65L380.24 27.65L380.24 25.13Q380.24 22.61 379.26 21.46Q378.28 20.30 376.39 20.30L376.39 20.30Q372.54 20.30 372.54 24.99L372.54 24.99Q372.54 27.65 373.98 29.96Q375.41 32.27 379.19 35.56L379.19 35.56Q384.02 39.76 385.84 43.19Q387.66 46.62 387.66 51.24L387.66 51.24Q387.66 57.26 384.69 60.48Q381.71 63.70 376.04 63.70L376.04 63.70Z" transform="translate(0, 0)"></path></g></svg></g></svg>