<svg viewBox="0 0 575 575" class="roots-wrapper"><g transform="rotate(0 0 0)"><svg viewBoxSize="575" data-root-id="3278755602455" xmlns="http://www.w3.org/2000/svg" xmlns:xlink="http://www.w3.org/1999/xlink" version="1.1" id="Layer_1" x="19.290008544921875" y="225.47741961669922" viewBox="129 51 242 398" xml:space="preserve" height="124.04515075683594" width="75.42454291290957" preserveAspectRatio="xMinYMin" zoom="1" editorType="buyer" data-layer-role="icon" style="position: absolute; height: 124.045px; width: 75.4245px; top: 225.477px; left: 19.29px;"><polygon class="st0" points="371,51 371,239.4 371,239.4 371,239.4 250,169.5 129,239.4 129,51  " name="Layer %{number}" zoom="1" data-layer-id="0299809302461" style="fill: rgb(22, 67, 34); fill-opacity: 1;"></polygon><polygon class="st0" points="129,379.1 129,239.4 250,309.3 250,449  " name="Layer %{number}" zoom="1" data-layer-id="3008866902463" style="fill: rgb(22, 67, 34); fill-opacity: 1;"></polygon></svg></g><g transform="rotate(0 0 0)"><svg viewBoxSize="575" data-root-id="9952335602469" xmlns="http://www.w3.org/2000/svg" x="128.29000854492188" y="304.5004196166992" viewBox="1.0099999904632568 4.340000152587891 283.72998046875 18" height="18" width="283.72998046875" fontUrl="https://fonts.gstatic.com/s/orbitron/v31/yMJMMIlzdpvBhQQL_SC3X9yhF25-T1nyGy6xpmIyXjU1pg.ttf" zoom="1" editorType="buyer" data-layer-role="slogan" style="position: absolute; top: 304.5px; left: 128.29px; width: 283.73px; height: 18px;"><g data-horizontal-grow="left" data-vertical-center="false" zoom="1" root="[object Object]" style="fill: rgb(22, 67, 34); fill-opacity: 1;"><path d="M13.93 18.20L3.17 18.20Q2.57 18.20 2.08 17.91Q1.58 17.62 1.30 17.13Q1.01 16.63 1.01 16.04L1.01 16.04L1.01 7.40Q1.01 6.80 1.30 6.31Q1.58 5.81 2.08 5.53Q2.57 5.24 3.17 5.24L3.17 5.24L13.93 5.24L13.93 6.70L3.17 6.70Q2.88 6.70 2.67 6.90Q2.47 7.11 2.47 7.40L2.47 7.40L2.47 16.04Q2.47 16.33 2.67 16.53Q2.88 16.74 3.17 16.74L3.17 16.74L13.93 16.74L13.93 18.20ZM17.89 18.20L17.89 18.20Q17.30 18.20 16.80 17.90Q16.31 17.60 16.01 17.11Q15.71 16.61 15.71 16.02L15.71 16.02L15.71 9.94Q15.71 9.34 16.01 8.85Q16.31 8.35 16.80 8.05Q17.30 7.76 17.89 7.76L17.89 7.76L24.16 7.76Q24.77 7.76 25.26 8.05Q25.76 8.35 26.06 8.85Q26.35 9.34 26.35 9.94L26.35 9.94L26.35 16.02Q26.35 16.61 26.06 17.11Q25.76 17.60 25.26 17.90Q24.77 18.20 24.16 18.20L24.16 18.20L17.89 18.20ZM17.89 16.72L17.89 16.72L24.16 16.72Q24.44 16.72 24.65 16.52Q24.86 16.31 24.86 16.02L24.86 16.02L24.86 9.94Q24.86 9.65 24.65 9.44Q24.44 9.23 24.16 9.23L24.16 9.23L17.89 9.23Q17.60 9.23 17.40 9.44Q17.19 9.65 17.19 9.94L17.19 9.94L17.19 16.02Q17.19 16.31 17.40 16.52Q17.60 16.72 17.89 16.72ZM29.72 18.20L28.22 18.20L28.22 18.20L28.22 7.76L42.01 7.76Q42.62 7.76 43.12 8.05Q43.61 8.35 43.90 8.85Q44.19 9.34 44.19 9.94L44.19 9.94L44.19 18.20L42.73 18.20L42.73 9.94Q42.73 9.65 42.52 9.44Q42.30 9.23 42.01 9.23L42.01 9.23L37.67 9.23Q37.39 9.23 37.18 9.44Q36.97 9.65 36.97 9.94L36.97 9.94L36.97 18.20L35.48 18.20L35.48 9.94Q35.48 9.65 35.27 9.44Q35.06 9.23 34.78 9.23L34.78 9.23L30.42 9.23Q30.13 9.23 29.93 9.44Q29.72 9.65 29.72 9.94L29.72 9.94L29.72 18.20ZM47.30 22.34L45.83 22.34L45.83 22.34L45.83 7.76L54.29 7.76Q54.88 7.76 55.38 8.05Q55.87 8.35 56.17 8.85Q56.47 9.34 56.47 9.94L56.47 9.94L56.47 16.02Q56.47 16.61 56.17 17.11Q55.87 17.60 55.38 17.90Q54.88 18.20 54.29 18.20L54.29 18.20L47.30 18.20L47.30 22.34ZM48.02 16.72L48.02 16.72L54.29 16.72Q54.58 16.72 54.78 16.52Q54.99 16.31 54.99 16.02L54.99 16.02L54.99 9.94Q54.99 9.65 54.78 9.44Q54.58 9.23 54.29 9.23L54.29 9.23L48.02 9.23Q47.74 9.23 47.52 9.44Q47.30 9.65 47.30 9.94L47.30 9.94L47.30 16.02Q47.30 16.31 47.52 16.52Q47.74 16.72 48.02 16.72ZM59.92 18.20L59.92 18.20Q59.33 18.20 58.83 17.90Q58.34 17.60 58.04 17.11Q57.74 16.61 57.74 16.02L57.74 16.02L57.74 4.34L59.22 4.34L59.22 16.02Q59.22 16.31 59.43 16.52Q59.63 16.72 59.92 16.72L59.92 16.72L61.69 16.72L61.69 18.20L59.92 18.20ZM65.07 18.20L65.07 18.20Q64.48 18.20 63.98 17.90Q63.49 17.60 63.19 17.11Q62.89 16.61 62.89 16.02L62.89 16.02L62.89 9.94Q62.89 9.34 63.19 8.85Q63.49 8.35 63.98 8.05Q64.48 7.76 65.07 7.76L65.07 7.76L71.33 7.76Q71.95 7.76 72.44 8.05Q72.94 8.35 73.23 8.85Q73.53 9.34 73.53 9.94L73.53 9.94L73.53 13.72L64.37 13.72L64.37 16.02Q64.37 16.31 64.58 16.52Q64.78 16.72 65.07 16.72L65.07 16.72L73.53 16.72L73.53 18.20L65.07 18.20ZM64.37 9.94L64.37 12.24L72.04 12.24L72.04 9.94Q72.04 9.65 71.83 9.44Q71.62 9.23 71.33 9.23L71.33 9.23L65.07 9.23Q64.78 9.23 64.58 9.44Q64.37 9.65 64.37 9.94L64.37 9.94ZM77.56 18.20L77.56 18.20Q76.95 18.20 76.46 17.90Q75.96 17.60 75.67 17.11Q75.38 16.61 75.38 16.02L75.38 16.02L75.38 4.34L76.86 4.34L76.86 7.76L81.38 7.76L81.38 9.23L76.86 9.23L76.86 16.02Q76.86 16.31 77.07 16.52Q77.27 16.72 77.56 16.72L77.56 16.72L81.38 16.72L81.38 18.20L77.56 18.20ZM84.91 18.20L84.91 18.20Q84.31 18.20 83.82 17.90Q83.32 17.60 83.03 17.11Q82.73 16.61 82.73 16.02L82.73 16.02L82.73 9.94Q82.73 9.34 83.03 8.85Q83.32 8.35 83.82 8.05Q84.31 7.76 84.91 7.76L84.91 7.76L91.17 7.76Q91.78 7.76 92.28 8.05Q92.77 8.35 93.07 8.85Q93.37 9.34 93.37 9.94L93.37 9.94L93.37 13.72L84.20 13.72L84.20 16.02Q84.20 16.31 84.41 16.52Q84.62 16.72 84.91 16.72L84.91 16.72L93.37 16.72L93.37 18.20L84.91 18.20ZM84.20 9.94L84.20 12.24L91.87 12.24L91.87 9.94Q91.87 9.65 91.67 9.44Q91.46 9.23 91.17 9.23L91.17 9.23L84.91 9.23Q84.62 9.23 84.41 9.44Q84.20 9.65 84.20 9.94L84.20 9.94ZM101.61 18.20L100.13 18.20L100.13 18.20L100.13 4.34L101.61 4.34L101.61 7.76L108.59 7.76Q109.19 7.76 109.68 8.05Q110.18 8.35 110.48 8.85Q110.77 9.34 110.77 9.94L110.77 9.94L110.77 18.20L109.30 18.20L109.30 9.94Q109.30 9.65 109.09 9.44Q108.88 9.23 108.59 9.23L108.59 9.23L102.33 9.23Q102.04 9.23 101.83 9.44Q101.61 9.65 101.61 9.94L101.61 9.94L101.61 18.20ZM122.85 18.20L114.39 18.20Q113.80 18.20 113.30 17.90Q112.81 17.60 112.51 17.11Q112.21 16.61 112.21 16.02L112.21 16.02L112.21 12.24L121.36 12.24L121.36 9.94Q121.36 9.65 121.15 9.44Q120.94 9.23 120.65 9.23L120.65 9.23L112.21 9.23L112.21 7.76L120.65 7.76Q121.27 7.76 121.76 8.05Q122.26 8.35 122.55 8.85Q122.85 9.34 122.85 9.94L122.85 9.94L122.85 18.20ZM114.39 16.72L114.39 16.72L121.36 16.72L121.36 13.72L113.69 13.72L113.69 16.02Q113.69 16.31 113.90 16.52Q114.10 16.72 114.39 16.72ZM125.95 18.20L124.47 18.20L124.47 18.20L124.47 7.76L132.93 7.76Q133.52 7.76 134.02 8.05Q134.51 8.35 134.81 8.85Q135.11 9.34 135.11 9.94L135.11 9.94L135.11 18.20L133.63 18.20L133.63 9.94Q133.63 9.65 133.43 9.44Q133.22 9.23 132.93 9.23L132.93 9.23L126.67 9.23Q126.38 9.23 126.16 9.44Q125.95 9.65 125.95 9.94L125.95 9.94L125.95 18.20ZM138.64 18.20L138.64 18.20Q138.02 18.20 137.53 17.90Q137.03 17.60 136.74 17.11Q136.44 16.61 136.44 16.02L136.44 16.02L136.44 9.94Q136.44 9.34 136.74 8.85Q137.03 8.35 137.53 8.05Q138.02 7.76 138.64 7.76L138.64 7.76L145.60 7.76L145.60 4.34L147.08 4.34L147.08 18.20L138.64 18.20ZM138.64 16.72L138.64 16.72L144.90 16.72Q145.19 16.72 145.40 16.52Q145.60 16.31 145.60 16.02L145.60 16.02L145.60 9.94Q145.60 9.65 145.40 9.44Q145.19 9.23 144.90 9.23L144.90 9.23L138.64 9.23Q138.35 9.23 138.14 9.44Q137.93 9.65 137.93 9.94L137.93 9.94L137.93 16.02Q137.93 16.31 138.14 16.52Q138.35 16.72 138.64 16.72ZM157.23 22.34L150.71 22.34L150.71 22.34L150.71 20.84L157.23 20.84Q157.52 20.84 157.73 20.64Q157.93 20.43 157.93 20.14L157.93 20.14L157.93 18.20L150.97 18.20Q150.37 18.20 149.88 17.90Q149.38 17.60 149.09 17.11Q148.79 16.61 148.79 16.02L148.79 16.02L148.79 7.79L150.26 7.79L150.26 16.02Q150.26 16.31 150.47 16.52Q150.68 16.72 150.97 16.72L150.97 16.72L157.23 16.72Q157.52 16.72 157.73 16.52Q157.93 16.31 157.93 16.02L157.93 16.02L157.93 7.79L159.41 7.79L159.41 20.14Q159.41 20.75 159.12 21.25Q158.83 21.74 158.34 22.04Q157.84 22.34 157.23 22.34L157.23 22.34ZM162.83 18.20L161.33 18.20L161.33 18.20L161.33 7.76L175.12 7.76Q175.73 7.76 176.23 8.05Q176.72 8.35 177.01 8.85Q177.30 9.34 177.30 9.94L177.30 9.94L177.30 18.20L175.84 18.20L175.84 9.94Q175.84 9.65 175.63 9.44Q175.41 9.23 175.12 9.23L175.12 9.23L170.78 9.23Q170.50 9.23 170.29 9.44Q170.08 9.65 170.08 9.94L170.08 9.94L170.08 18.20L168.59 18.20L168.59 9.94Q168.59 9.65 168.38 9.44Q168.17 9.23 167.89 9.23L167.89 9.23L163.53 9.23Q163.24 9.23 163.04 9.44Q162.83 9.65 162.83 9.94L162.83 9.94L162.83 18.20ZM189.54 18.20L181.08 18.20Q180.49 18.20 179.99 17.90Q179.50 17.60 179.20 17.11Q178.90 16.61 178.90 16.02L178.90 16.02L178.90 12.24L188.05 12.24L188.05 9.94Q188.05 9.65 187.84 9.44Q187.63 9.23 187.34 9.23L187.34 9.23L178.90 9.23L178.90 7.76L187.34 7.76Q187.96 7.76 188.45 8.05Q188.95 8.35 189.24 8.85Q189.54 9.34 189.54 9.94L189.54 9.94L189.54 18.20ZM181.08 16.72L181.08 16.72L188.05 16.72L188.05 13.72L180.38 13.72L180.38 16.02Q180.38 16.31 180.59 16.52Q180.79 16.72 181.08 16.72ZM192.64 18.20L191.16 18.20L191.16 18.20L191.16 7.76L199.62 7.76Q200.21 7.76 200.71 8.05Q201.20 8.35 201.50 8.85Q201.80 9.34 201.80 9.94L201.80 9.94L201.80 18.20L200.32 18.20L200.32 9.94Q200.32 9.65 200.12 9.44Q199.91 9.23 199.62 9.23L199.62 9.23L193.36 9.23Q193.07 9.23 192.85 9.44Q192.64 9.65 192.64 9.94L192.64 9.94L192.64 18.20ZM210.65 18.20L210.65 18.20Q210.06 18.20 209.57 17.90Q209.07 17.60 208.77 17.11Q208.48 16.61 208.48 16.02L208.48 16.02L208.48 15.88L209.95 15.88L209.95 16.02Q209.95 16.31 210.16 16.52Q210.37 16.72 210.65 16.72L210.65 16.72L216.92 16.72Q217.21 16.72 217.41 16.52Q217.62 16.31 217.62 16.02L217.62 16.02L217.62 14.42Q217.62 14.13 217.41 13.92Q217.21 13.72 216.92 13.72L216.92 13.72L210.65 13.72Q210.06 13.72 209.57 13.42Q209.07 13.12 208.77 12.63Q208.48 12.13 208.48 11.54L208.48 11.54L208.48 9.94Q208.48 9.34 208.77 8.85Q209.07 8.35 209.57 8.05Q210.06 7.76 210.65 7.76L210.65 7.76L216.92 7.76Q217.53 7.76 218.03 8.05Q218.52 8.35 218.82 8.85Q219.11 9.34 219.11 9.94L219.11 9.94L219.11 10.08L217.62 10.08L217.62 9.94Q217.62 9.65 217.41 9.44Q217.21 9.23 216.92 9.23L216.92 9.23L210.65 9.23Q210.37 9.23 210.16 9.44Q209.95 9.65 209.95 9.94L209.95 9.94L209.95 11.54Q209.95 11.83 210.16 12.03Q210.37 12.24 210.65 12.24L210.65 12.24L216.92 12.24Q217.53 12.24 218.03 12.54Q218.52 12.83 218.82 13.33Q219.11 13.82 219.11 14.42L219.11 14.42L219.11 16.02Q219.11 16.61 218.82 17.11Q218.52 17.60 218.03 17.90Q217.53 18.20 216.92 18.20L216.92 18.20L210.65 18.20ZM223.06 18.20L223.06 18.20Q222.46 18.20 221.97 17.90Q221.47 17.60 221.18 17.11Q220.88 16.61 220.88 16.02L220.88 16.02L220.88 9.94Q220.88 9.34 221.18 8.85Q221.47 8.35 221.97 8.05Q222.46 7.76 223.06 7.76L223.06 7.76L229.32 7.76Q229.93 7.76 230.43 8.05Q230.92 8.35 231.22 8.85Q231.52 9.34 231.52 9.94L231.52 9.94L231.52 16.02Q231.52 16.61 231.22 17.11Q230.92 17.60 230.43 17.90Q229.93 18.20 229.32 18.20L229.32 18.20L223.06 18.20ZM223.06 16.72L223.06 16.72L229.32 16.72Q229.61 16.72 229.82 16.52Q230.02 16.31 230.02 16.02L230.02 16.02L230.02 9.94Q230.02 9.65 229.82 9.44Q229.61 9.23 229.32 9.23L229.32 9.23L223.06 9.23Q222.77 9.23 222.56 9.44Q222.35 9.65 222.35 9.94L222.35 9.94L222.35 16.02Q222.35 16.31 222.56 16.52Q222.77 16.72 223.06 16.72ZM235.17 18.20L235.17 18.20Q234.58 18.20 234.08 17.90Q233.59 17.60 233.29 17.11Q232.99 16.61 232.99 16.02L232.99 16.02L232.99 4.34L234.47 4.34L234.47 16.02Q234.47 16.31 234.68 16.52Q234.88 16.72 235.17 16.72L235.17 16.72L236.93 16.72L236.93 18.20L235.17 18.20ZM240.62 18.20L240.62 18.20Q240.03 18.20 239.54 17.90Q239.04 17.60 238.74 17.11Q238.45 16.61 238.45 16.02L238.45 16.02L238.45 7.76L239.92 7.76L239.92 16.02Q239.92 16.31 240.13 16.52Q240.34 16.72 240.62 16.72L240.62 16.72L246.89 16.72Q247.18 16.72 247.39 16.52Q247.61 16.31 247.61 16.02L247.61 16.02L247.61 7.76L249.08 7.76L249.08 16.02Q249.08 16.61 248.79 17.11Q248.49 17.60 248.00 17.90Q247.50 18.20 246.89 18.20L246.89 18.20L240.62 18.20ZM252.86 18.20L252.86 18.20Q252.25 18.20 251.76 17.90Q251.26 17.60 250.97 17.11Q250.69 16.61 250.69 16.02L250.69 16.02L250.69 4.34L252.16 4.34L252.16 7.76L256.68 7.76L256.68 9.23L252.16 9.23L252.16 16.02Q252.16 16.31 252.37 16.52Q252.58 16.72 252.86 16.72L252.86 16.72L256.68 16.72L256.68 18.20L252.86 18.20ZM259.61 18.20L258.14 18.20L258.14 18.20L258.14 7.76L259.61 7.76L259.61 18.20ZM259.61 5.81L258.14 5.81L258.14 5.81L258.14 4.34L259.61 4.34L259.61 5.81ZM264.04 18.20L264.04 18.20Q263.45 18.20 262.95 17.90Q262.46 17.60 262.16 17.11Q261.86 16.61 261.86 16.02L261.86 16.02L261.86 9.94Q261.86 9.34 262.16 8.85Q262.46 8.35 262.95 8.05Q263.45 7.76 264.04 7.76L264.04 7.76L270.31 7.76Q270.92 7.76 271.41 8.05Q271.91 8.35 272.21 8.85Q272.50 9.34 272.50 9.94L272.50 9.94L272.50 16.02Q272.50 16.61 272.21 17.11Q271.91 17.60 271.41 17.90Q270.92 18.20 270.31 18.20L270.31 18.20L264.04 18.20ZM264.04 16.72L264.04 16.72L270.31 16.72Q270.59 16.72 270.80 16.52Q271.01 16.31 271.01 16.02L271.01 16.02L271.01 9.94Q271.01 9.65 270.80 9.44Q270.59 9.23 270.31 9.23L270.31 9.23L264.04 9.23Q263.75 9.23 263.55 9.44Q263.34 9.65 263.34 9.94L263.34 9.94L263.34 16.02Q263.34 16.31 263.55 16.52Q263.75 16.72 264.04 16.72ZM275.58 18.20L274.10 18.20L274.10 18.20L274.10 7.76L282.56 7.76Q283.16 7.76 283.65 8.05Q284.15 8.35 284.45 8.85Q284.74 9.34 284.74 9.94L284.74 9.94L284.74 18.20L283.27 18.20L283.27 9.94Q283.27 9.65 283.06 9.44Q282.85 9.23 282.56 9.23L282.56 9.23L276.30 9.23Q276.01 9.23 275.80 9.44Q275.58 9.65 275.58 9.94L275.58 9.94L275.58 18.20Z" transform="translate(0, 0)"></path></g></svg></g><g transform="rotate(0 0 0)"><svg viewBoxSize="575" data-root-id="9709365402465" xmlns="http://www.w3.org/2000/svg" x="128.29000854492188" y="248.78041961669922" viewBox="1.0099999904632568 12.119999885559082 427.41998291015625 50.28000259399414" height="50.28000259399414" width="427.41998291015625" fontUrl="https://fonts.gstatic.com/s/orbitron/v31/yMJMMIlzdpvBhQQL_SC3X9yhF25-T1nyGy6xpmIyXjU1pg.ttf" zoom="1" editorType="buyer" data-layer-role="brandName" style="position: absolute; top: 248.78px; left: 128.29px; width: 427.42px; height: 50.28px;"><g data-horizontal-grow="left" data-vertical-center="false" zoom="1" root="[object Object]" style="fill: rgb(22, 67, 34); fill-opacity: 1;"><path d="M21.17 50.84L17.10 50.84L17.10 50.84L17.10 18.71L1.01 18.71L1.01 14.63L37.21 14.63L37.21 18.71L21.17 18.71L21.17 50.84ZM40.63 50.84L40.63 50.84Q38.97 50.84 37.59 50.01Q36.21 49.18 35.38 47.80Q34.55 46.41 34.55 44.75L34.55 44.75L34.55 27.76Q34.55 26.10 35.38 24.72Q36.21 23.33 37.59 22.50Q38.97 21.67 40.63 21.67L40.63 21.67L58.13 21.67Q59.84 21.67 61.22 22.50Q62.61 23.33 63.44 24.72Q64.27 26.10 64.27 27.76L64.27 27.76L64.27 44.75Q64.27 46.41 63.44 47.80Q62.61 49.18 61.22 50.01Q59.84 50.84 58.13 50.84L58.13 50.84L40.63 50.84ZM40.63 46.72L40.63 46.72L58.13 46.72Q58.93 46.72 59.51 46.14Q60.09 45.56 60.09 44.75L60.09 44.75L60.09 27.76Q60.09 26.95 59.51 26.37Q58.93 25.80 58.13 25.80L58.13 25.80L40.63 25.80Q39.83 25.80 39.25 26.37Q38.67 26.95 38.67 27.76L38.67 27.76L38.67 44.75Q38.67 45.56 39.25 46.14Q39.83 46.72 40.63 46.72ZM74.37 50.84L74.37 50.84Q72.66 50.84 71.28 50.01Q69.90 49.18 69.09 47.80Q68.29 46.41 68.29 44.75L68.29 44.75L68.29 12.12L72.41 12.12L72.41 21.67L85.03 21.67L85.03 25.80L72.41 25.80L72.41 44.75Q72.41 45.56 72.99 46.14Q73.57 46.72 74.37 46.72L74.37 46.72L85.03 46.72L85.03 50.84L74.37 50.84ZM118.57 50.84L94.94 50.84Q93.28 50.84 91.90 50.01Q90.51 49.18 89.68 47.80Q88.85 46.41 88.85 44.75L88.85 44.75L88.85 34.19L114.40 34.19L114.40 27.76Q114.40 26.95 113.82 26.37Q113.24 25.80 112.44 25.80L112.44 25.80L88.85 25.80L88.85 21.67L112.44 21.67Q114.15 21.67 115.53 22.50Q116.91 23.33 117.74 24.72Q118.57 26.10 118.57 27.76L118.57 27.76L118.57 50.84ZM94.94 46.72L94.94 46.72L114.40 46.72L114.40 38.32L92.98 38.32L92.98 44.75Q92.98 45.56 93.56 46.14Q94.13 46.72 94.94 46.72ZM129.33 50.84L129.33 50.84Q127.68 50.84 126.29 50.01Q124.91 49.18 124.08 47.80Q123.25 46.41 123.25 44.75L123.25 44.75L123.25 12.12L127.37 12.12L127.37 44.75Q127.37 45.56 127.95 46.14Q128.53 46.72 129.33 46.72L129.33 46.72L134.26 46.72L134.26 50.84L129.33 50.84ZM144.32 50.84L144.32 50.84Q142.66 50.84 141.28 50.01Q139.89 49.18 139.07 47.80Q138.24 46.41 138.24 44.75L138.24 44.75L138.24 44.35L142.36 44.35L142.36 44.75Q142.36 45.56 142.94 46.14Q143.52 46.72 144.32 46.72L144.32 46.72L161.82 46.72Q162.62 46.72 163.20 46.14Q163.78 45.56 163.78 44.75L163.78 44.75L163.78 40.28Q163.78 39.47 163.20 38.90Q162.62 38.32 161.82 38.32L161.82 38.32L144.32 38.32Q142.66 38.32 141.28 37.49Q139.89 36.66 139.07 35.28Q138.24 33.89 138.24 32.23L138.24 32.23L138.24 27.76Q138.24 26.10 139.07 24.72Q139.89 23.33 141.28 22.50Q142.66 21.67 144.32 21.67L144.32 21.67L161.82 21.67Q163.53 21.67 164.91 22.50Q166.29 23.33 167.12 24.72Q167.95 26.10 167.95 27.76L167.95 27.76L167.95 28.16L163.78 28.16L163.78 27.76Q163.78 26.95 163.20 26.37Q162.62 25.80 161.82 25.80L161.82 25.80L144.32 25.80Q143.52 25.80 142.94 26.37Q142.36 26.95 142.36 27.76L142.36 27.76L142.36 32.23Q142.36 33.04 142.94 33.62Q143.52 34.19 144.32 34.19L144.32 34.19L161.82 34.19Q163.53 34.19 164.91 35.02Q166.29 35.85 167.12 37.24Q167.95 38.62 167.95 40.28L167.95 40.28L167.95 44.75Q167.95 46.41 167.12 47.80Q166.29 49.18 164.91 50.01Q163.53 50.84 161.82 50.84L161.82 50.84L144.32 50.84ZM177.16 62.40L173.03 62.40L173.03 62.40L173.03 21.67L196.67 21.67Q198.33 21.67 199.71 22.50Q201.09 23.33 201.92 24.72Q202.75 26.10 202.75 27.76L202.75 27.76L202.75 44.75Q202.75 46.41 201.92 47.80Q201.09 49.18 199.71 50.01Q198.33 50.84 196.67 50.84L196.67 50.84L177.16 50.84L177.16 62.40ZM179.17 46.72L179.17 46.72L196.67 46.72Q197.47 46.72 198.05 46.14Q198.63 45.56 198.63 44.75L198.63 44.75L198.63 27.76Q198.63 26.95 198.05 26.37Q197.47 25.80 196.67 25.80L196.67 25.80L179.17 25.80Q178.36 25.80 177.76 26.37Q177.16 26.95 177.16 27.76L177.16 27.76L177.16 44.75Q177.16 45.56 177.76 46.14Q178.36 46.72 179.17 46.72ZM212.36 50.84L212.36 50.84Q210.70 50.84 209.31 50.01Q207.93 49.18 207.10 47.80Q206.27 46.41 206.27 44.75L206.27 44.75L206.27 27.76Q206.27 26.10 207.10 24.72Q207.93 23.33 209.31 22.50Q210.70 21.67 212.36 21.67L212.36 21.67L229.86 21.67Q231.57 21.67 232.95 22.50Q234.33 23.33 235.16 24.72Q235.99 26.10 235.99 27.76L235.99 27.76L235.99 38.32L210.40 38.32L210.40 44.75Q210.40 45.56 210.97 46.14Q211.55 46.72 212.36 46.72L212.36 46.72L235.99 46.72L235.99 50.84L212.36 50.84ZM210.40 27.76L210.40 34.19L231.82 34.19L231.82 27.76Q231.82 26.95 231.24 26.37Q230.66 25.80 229.86 25.80L229.86 25.80L212.36 25.80Q211.55 25.80 210.97 26.37Q210.40 26.95 210.40 27.76L210.40 27.76ZM246.15 50.84L246.15 50.84Q244.49 50.84 243.11 50.01Q241.72 49.18 240.89 47.80Q240.06 46.41 240.06 44.75L240.06 44.75L240.06 27.76Q240.06 26.10 240.89 24.72Q241.72 23.33 243.11 22.50Q244.49 21.67 246.15 21.67L246.15 21.67L269.68 21.67L269.68 25.80L246.15 25.80Q245.34 25.80 244.77 26.37Q244.19 26.95 244.19 27.76L244.19 27.76L244.19 44.75Q244.19 45.56 244.77 46.14Q245.34 46.72 246.15 46.72L246.15 46.72L269.78 46.72L269.78 50.84L246.15 50.84ZM279.19 50.84L275.06 50.84L275.06 50.84L275.06 21.67L279.19 21.67L279.19 50.84ZM279.19 16.24L275.06 16.24L275.06 16.24L275.06 12.12L279.19 12.12L279.19 16.24ZM313.48 50.84L289.85 50.84Q288.19 50.84 286.80 50.01Q285.42 49.18 284.59 47.80Q283.76 46.41 283.76 44.75L283.76 44.75L283.76 34.19L309.31 34.19L309.31 27.76Q309.31 26.95 308.73 26.37Q308.15 25.80 307.35 25.80L307.35 25.80L283.76 25.80L283.76 21.67L307.35 21.67Q309.06 21.67 310.44 22.50Q311.82 23.33 312.65 24.72Q313.48 26.10 313.48 27.76L313.48 27.76L313.48 50.84ZM289.85 46.72L289.85 46.72L309.31 46.72L309.31 38.32L287.89 38.32L287.89 44.75Q287.89 45.56 288.46 46.14Q289.04 46.72 289.85 46.72ZM324.24 50.84L324.24 50.84Q322.58 50.84 321.20 50.01Q319.82 49.18 318.99 47.80Q318.16 46.41 318.16 44.75L318.16 44.75L318.16 12.12L322.28 12.12L322.28 44.75Q322.28 45.56 322.86 46.14Q323.44 46.72 324.24 46.72L324.24 46.72L329.17 46.72L329.17 50.84L324.24 50.84ZM337.47 50.84L333.34 50.84L333.34 50.84L333.34 21.67L337.47 21.67L337.47 50.84ZM337.47 16.24L333.34 16.24L333.34 16.24L333.34 12.12L337.47 12.12L337.47 16.24ZM349.69 50.84L349.69 50.84Q348.03 50.84 346.64 50.01Q345.26 49.18 344.43 47.80Q343.60 46.41 343.60 44.75L343.60 44.75L343.60 44.35L347.73 44.35L347.73 44.75Q347.73 45.56 348.30 46.14Q348.88 46.72 349.69 46.72L349.69 46.72L367.19 46.72Q367.99 46.72 368.57 46.14Q369.15 45.56 369.15 44.75L369.15 44.75L369.15 40.28Q369.15 39.47 368.57 38.90Q367.99 38.32 367.19 38.32L367.19 38.32L349.69 38.32Q348.03 38.32 346.64 37.49Q345.26 36.66 344.43 35.28Q343.60 33.89 343.60 32.23L343.60 32.23L343.60 27.76Q343.60 26.10 344.43 24.72Q345.26 23.33 346.64 22.50Q348.03 21.67 349.69 21.67L349.69 21.67L367.19 21.67Q368.90 21.67 370.28 22.50Q371.66 23.33 372.49 24.72Q373.32 26.10 373.32 27.76L373.32 27.76L373.32 28.16L369.15 28.16L369.15 27.76Q369.15 26.95 368.57 26.37Q367.99 25.80 367.19 25.80L367.19 25.80L349.69 25.80Q348.88 25.80 348.30 26.37Q347.73 26.95 347.73 27.76L347.73 27.76L347.73 32.23Q347.73 33.04 348.30 33.62Q348.88 34.19 349.69 34.19L349.69 34.19L367.19 34.19Q368.90 34.19 370.28 35.02Q371.66 35.85 372.49 37.24Q373.32 38.62 373.32 40.28L373.32 40.28L373.32 44.75Q373.32 46.41 372.49 47.80Q371.66 49.18 370.28 50.01Q368.90 50.84 367.19 50.84L367.19 50.84L349.69 50.84ZM384.43 50.84L384.43 50.84Q382.72 50.84 381.34 50.01Q379.96 49.18 379.15 47.80Q378.35 46.41 378.35 44.75L378.35 44.75L378.35 12.12L382.47 12.12L382.47 21.67L395.09 21.67L395.09 25.80L382.47 25.80L382.47 44.75Q382.47 45.56 383.05 46.14Q383.63 46.72 384.43 46.72L384.43 46.72L395.09 46.72L395.09 50.84L384.43 50.84ZM404.80 50.84L404.80 50.84Q403.14 50.84 401.76 50.01Q400.37 49.18 399.55 47.80Q398.72 46.41 398.72 44.75L398.72 44.75L398.72 44.35L402.84 44.35L402.84 44.75Q402.84 45.56 403.42 46.14Q404.00 46.72 404.80 46.72L404.80 46.72L422.30 46.72Q423.10 46.72 423.68 46.14Q424.26 45.56 424.26 44.75L424.26 44.75L424.26 40.28Q424.26 39.47 423.68 38.90Q423.10 38.32 422.30 38.32L422.30 38.32L404.80 38.32Q403.14 38.32 401.76 37.49Q400.37 36.66 399.55 35.28Q398.72 33.89 398.72 32.23L398.72 32.23L398.72 27.76Q398.72 26.10 399.55 24.72Q400.37 23.33 401.76 22.50Q403.14 21.67 404.80 21.67L404.80 21.67L422.30 21.67Q424.01 21.67 425.39 22.50Q426.77 23.33 427.60 24.72Q428.43 26.10 428.43 27.76L428.43 27.76L428.43 28.16L424.26 28.16L424.26 27.76Q424.26 26.95 423.68 26.37Q423.10 25.80 422.30 25.80L422.30 25.80L404.80 25.80Q404.00 25.80 403.42 26.37Q402.84 26.95 402.84 27.76L402.84 27.76L402.84 32.23Q402.84 33.04 403.42 33.62Q404.00 34.19 404.80 34.19L404.80 34.19L422.30 34.19Q424.01 34.19 425.39 35.02Q426.77 35.85 427.60 37.24Q428.43 38.62 428.43 40.28L428.43 40.28L428.43 44.75Q428.43 46.41 427.60 47.80Q426.77 49.18 425.39 50.01Q424.01 50.84 422.30 50.84L422.30 50.84L404.80 50.84Z" transform="translate(0, 0)"></path></g></svg></g></svg>