<svg viewBox="0 0 575 575" class="roots-wrapper"><g transform="rotate(0 0 0)"><svg viewBoxSize="575" data-root-id="7692599604012" xmlns="http://www.w3.org/2000/svg" xmlns:xlink="http://www.w3.org/1999/xlink" xmlnsSerif="http://www.serif.com/" viewBox="-0.00000762939453125 0 161.791015625 211.71600341796875" version="1.1" xml:space="preserve" height="131.97789001464844" width="100.85601100351722" y="182.00999450683594" x="237.072" preserveAspectRatio="xMinYMin" zoom="1" editorType="buyer" data-layer-role="icon" style="fill-rule: evenodd; clip-rule: evenodd; stroke-linejoin: round; stroke-miterlimit: 2; position: absolute; height: 131.978px; width: 100.856px; top: 182.01px; left: 237.072px;"><path d="M48.537,195.537l0,-68.738c-9.421,-3.334 -16.179,-12.327 -16.179,-22.886c0,-9.432 5.393,-17.615 13.26,-21.63l-0,23.364l11.009,6.356l11.009,-6.356l-0,-23.364c7.867,4.015 13.259,12.198 13.259,21.63c0,10.559 -6.757,19.552 -16.179,22.886l0,84.917l-64.716,-0l0,-80.896l16.179,0l0,64.717l32.358,-0Zm48.537,9.151l-0.081,0l0,-65.58l-3.166,-0.198c0.008,-0.05 0.012,-0.101 0.012,-0.152c-0,-1.116 -1.813,-2.022 -4.045,-2.022c-2.233,0 -4.045,0.906 -4.045,2.022c0,0.051 0.004,0.102 0.011,0.152l-7.294,-0l0,-16.179l7.294,-0c0.156,1.045 1.903,1.871 4.034,1.871c2.13,-0 3.878,-0.826 4.033,-1.871l16.997,-0l0.147,0c24.833,0.097 24.122,24.268 24.122,24.268c0,4.133 -2.451,1.07 -3.234,-2.173c-1.298,-5.38 -4.334,-7.926 -14.561,-8.899c-1.35,-0.128 -2.702,1.474 -4.045,2.699l0,56.911l32.359,-0l-0,-64.717l16.179,0l-0,80.896l-64.717,-0l0,-7.028Z" name="Layer %{number}" zoom="1" data-layer-id="6245477704115" style="fill: rgb(101, 99, 115); fill-opacity: 1;"></path><path d="M80.895,0l80.896,80.895l-1.388,1.388l1.388,0l-0,32.358l-16.179,0l-0,-27.044l-64.717,-64.716l-64.716,64.716l0,27.044l-16.179,0l-0,-32.358l1.388,0l-1.388,-1.388l80.895,-80.895Z" name="Layer %{number}" zoom="1" data-layer-id="7738567804165" style="fill: rgb(242, 106, 75); fill-opacity: 1;"></path><linearGradient id="_Linear1" x1="0" y1="0" x2="1" y2="0" gradientUnits="userSpaceOnUse" gradientTransform="matrix(-8.08953,137.522,-137.522,-8.08953,76.8505,98.4623)" name="Layer %{number}" zoom="1" data-layer-id="3350531704218"><stop offset="0" style="stop-color: rgb(174, 174, 174); stop-opacity: 1;"></stop><stop offset="1" style="stop-color: rgb(114, 114, 114); stop-opacity: 1;"></stop></linearGradient><linearGradient id="_Linear2" x1="0" y1="0" x2="1" y2="0" gradientUnits="userSpaceOnUse" gradientTransform="matrix(7.76277e-15,126.776,-126.776,7.76277e-15,84.9401,4.04477)" name="Layer %{number}" zoom="1" data-layer-id="2916528504269"><stop offset="0" style="stop-color: rgb(237, 199, 19); stop-opacity: 1;"></stop><stop offset="1" style="stop-color: rgb(154, 127, 0); stop-opacity: 1;"></stop></linearGradient></svg></g><g transform="rotate(0 0 0)"><svg viewBoxSize="575" data-root-id="6359329604317" xmlns="http://www.w3.org/2000/svg" y="380.00999450683594" viewBox="0.699999988079071 4.119999885559082 391.40997314453125 12.980000495910645" x="91.79501647949218" height="12.980000495910645" width="391.40997314453125" fontUrl="https://fonts.gstatic.com/s/firasanscondensed/v10/wEOsEADFm8hSaQTFG18FErVhsC9x-tarWQXOiMN-cxZblY4.ttf" zoom="1" editorType="buyer" data-layer-role="slogan" style="position: absolute; top: 380.01px; width: 391.41px; height: 12.98px; left: 91.795px;"><g data-horizontal-grow="center" zoom="1" root="[object Object]" style="fill: rgb(242, 106, 75); fill-opacity: 1;"><path d="M5.65 4.12Q6.68 4.12 7.46 4.45Q8.24 4.77 9.00 5.42L9.00 5.42L7.85 6.77Q6.84 5.92 5.78 5.92L5.78 5.92Q4.55 5.92 3.85 7.02Q3.15 8.12 3.15 10.58L3.15 10.58Q3.15 13.00 3.85 14.11Q4.55 15.23 5.80 15.23L5.80 15.23Q6.44 15.23 6.93 14.99Q7.42 14.74 8.01 14.27L8.01 14.27L9.13 15.61Q8.50 16.25 7.63 16.68Q6.77 17.10 5.69 17.10L5.69 17.10Q4.19 17.10 3.07 16.37Q1.94 15.64 1.32 14.18Q0.70 12.71 0.70 10.58L0.70 10.58Q0.70 8.50 1.35 7.04Q2.00 5.58 3.11 4.85Q4.23 4.12 5.65 4.12L5.65 4.12ZM20.90 4.12Q23.24 4.12 24.55 5.77Q25.87 7.42 25.87 10.60L25.87 10.60Q25.87 13.75 24.55 15.43Q23.24 17.10 20.90 17.10L20.90 17.10Q18.58 17.10 17.26 15.44Q15.95 13.79 15.95 10.62L15.95 10.62Q15.95 7.49 17.26 5.80Q18.58 4.12 20.90 4.12L20.90 4.12ZM20.90 5.90Q19.66 5.90 19.03 7.00Q18.40 8.10 18.40 10.62L18.40 10.62Q18.40 13.12 19.04 14.22Q19.67 15.32 20.90 15.32L20.90 15.32Q22.18 15.32 22.80 14.23Q23.42 13.14 23.42 10.60L23.42 10.60Q23.42 8.10 22.80 7.00Q22.18 5.90 20.90 5.90L20.90 5.90ZM43.76 4.39L44.62 16.83L42.39 16.83L42.12 11.59Q41.98 8.57 41.98 7.29L41.98 7.29L41.99 6.53L40.03 15.48L37.85 15.48L35.78 6.52Q35.80 7.07 35.80 8.19L35.80 8.19Q35.80 10.08 35.73 11.66L35.73 11.66L35.48 16.83L33.26 16.83L34.13 4.39L37.10 4.39L38.99 13.14L40.75 4.39L43.76 4.39ZM55.80 4.39Q58.12 4.39 59.35 5.39Q60.59 6.39 60.59 8.35L60.59 8.35Q60.59 10.40 59.35 11.44Q58.12 12.47 55.96 12.47L55.96 12.47L54.92 12.47L54.92 16.83L52.58 16.83L52.58 4.39L55.80 4.39ZM55.82 10.73Q57.02 10.73 57.60 10.20Q58.18 9.67 58.18 8.35L58.18 8.35Q58.18 7.18 57.60 6.64Q57.02 6.10 55.82 6.10L55.82 6.10L54.92 6.10L54.92 10.73L55.82 10.73ZM68.13 4.39L70.47 4.39L70.47 14.92L74.90 14.92L74.65 16.83L68.13 16.83L68.13 4.39ZM82.28 4.39L88.92 4.39L88.67 6.12L84.62 6.12L84.62 9.65L88.16 9.65L88.16 11.36L84.62 11.36L84.62 15.08L88.96 15.08L88.96 16.83L82.28 16.83L82.28 4.39ZM95.71 4.39L104.13 4.39L103.88 6.23L101.02 6.23L101.02 16.83L98.69 16.83L98.69 6.23L95.71 6.23L95.71 4.39ZM111.37 4.39L118.01 4.39L117.76 6.12L113.71 6.12L113.71 9.65L117.25 9.65L117.25 11.36L113.71 11.36L113.71 15.08L118.04 15.08L118.04 16.83L111.37 16.83L111.37 4.39ZM144.22 16.83L141.88 16.83L141.88 11.25L138.13 11.25L138.13 16.83L135.79 16.83L135.79 4.39L138.13 4.39L138.13 9.40L141.88 9.40L141.88 4.39L144.22 4.39L144.22 16.83ZM161.08 16.83L158.67 16.83L157.99 13.93L154.39 13.93L153.70 16.83L151.34 16.83L154.80 4.39L157.64 4.39L161.08 16.83ZM156.19 6.17L154.78 12.17L157.59 12.17L156.19 6.17ZM176.62 4.39L176.62 16.83L173.63 16.83L169.99 6.70L170.05 7.18Q170.30 9.70 170.30 11.66L170.30 11.66L170.30 16.83L168.21 16.83L168.21 4.39L171.16 4.39L174.83 14.53Q174.73 13.82 174.63 12.65Q174.53 11.47 174.53 10.30L174.53 10.30L174.53 4.39L176.62 4.39ZM187.94 4.39Q189.63 4.39 190.88 4.88Q192.13 5.36 192.91 6.72Q193.70 8.08 193.70 10.55L193.70 10.55Q193.70 14.04 192.16 15.44Q190.62 16.83 188.21 16.83L188.21 16.83L185.04 16.83L185.04 4.39L187.94 4.39ZM188.32 6.14L187.38 6.14L187.38 15.08L188.37 15.08Q189.76 15.08 190.52 14.11Q191.29 13.14 191.29 10.55L191.29 10.55Q191.29 8.75 190.90 7.78Q190.51 6.80 189.87 6.47Q189.23 6.14 188.32 6.14L188.32 6.14ZM207.40 4.39L209.81 4.39L206.21 12.11L206.21 16.83L203.87 16.83L203.87 12.13L200.29 4.39L202.79 4.39L205.09 10.21L207.40 4.39ZM226.96 4.39L227.83 16.83L225.59 16.83L225.32 11.59Q225.18 8.57 225.18 7.29L225.18 7.29L225.20 6.53L223.24 15.48L221.06 15.48L218.99 6.52Q219.01 7.07 219.01 8.19L219.01 8.19Q219.01 10.08 218.93 11.66L218.93 11.66L218.68 16.83L216.47 16.83L217.33 4.39L220.30 4.39L222.19 13.14L223.96 4.39L226.96 4.39ZM244.22 16.83L241.81 16.83L241.13 13.93L237.53 13.93L236.84 16.83L234.49 16.83L237.94 4.39L240.79 4.39L244.22 16.83ZM239.33 6.17L237.92 12.17L240.73 12.17L239.33 6.17ZM259.76 4.39L259.76 16.83L256.77 16.83L253.13 6.70L253.19 7.18Q253.44 9.70 253.44 11.66L253.44 11.66L253.44 16.83L251.35 16.83L251.35 4.39L254.30 4.39L257.98 14.53Q257.87 13.82 257.77 12.65Q257.67 11.47 257.67 10.30L257.67 10.30L257.67 4.39L259.76 4.39ZM281.45 4.12Q282.64 4.12 283.53 4.50Q284.42 4.88 285.17 5.65L285.17 5.65L284.06 6.93Q283.46 6.41 282.87 6.16Q282.28 5.90 281.59 5.90L281.59 5.90Q280.84 5.90 280.38 6.30Q279.92 6.70 279.92 7.40L279.92 7.40Q279.92 7.87 280.11 8.19Q280.30 8.51 280.78 8.79Q281.27 9.07 282.19 9.40L282.19 9.40Q283.86 10.01 284.68 10.85Q285.50 11.70 285.50 13.28L285.50 13.28Q285.50 14.38 284.98 15.25Q284.45 16.11 283.47 16.61Q282.49 17.10 281.18 17.10L281.18 17.10Q278.71 17.10 277.06 15.41L277.06 15.41L278.24 14.09Q278.93 14.69 279.60 14.99Q280.28 15.30 281.09 15.30L281.09 15.30Q282.01 15.30 282.54 14.80Q283.07 14.29 283.07 13.41L283.07 13.41Q283.07 12.62 282.62 12.16Q282.17 11.70 280.91 11.27L280.91 11.27Q279.11 10.64 278.32 9.77Q277.52 8.91 277.52 7.56L277.52 7.56Q277.52 6.57 278.03 5.79Q278.53 5.00 279.43 4.56Q280.33 4.12 281.45 4.12L281.45 4.12ZM297.58 4.12Q299.92 4.12 301.23 5.77Q302.54 7.42 302.54 10.60L302.54 10.60Q302.54 13.75 301.23 15.43Q299.92 17.10 297.58 17.10L297.58 17.10Q295.25 17.10 293.94 15.44Q292.63 13.79 292.63 10.62L292.63 10.62Q292.63 7.49 293.94 5.80Q295.25 4.12 297.58 4.12L297.58 4.12ZM297.58 5.90Q296.33 5.90 295.70 7.00Q295.07 8.10 295.07 10.62L295.07 10.62Q295.07 13.12 295.71 14.22Q296.35 15.32 297.58 15.32L297.58 15.32Q298.85 15.32 299.47 14.23Q300.10 13.14 300.10 10.60L300.10 10.60Q300.10 8.10 299.47 7.00Q298.85 5.90 297.58 5.90L297.58 5.90ZM310.41 4.39L312.75 4.39L312.75 14.92L317.18 14.92L316.93 16.83L310.41 16.83L310.41 4.39ZM332.87 4.39L332.87 13.09Q332.87 14.24 332.39 15.15Q331.90 16.06 330.95 16.58Q329.99 17.10 328.63 17.10L328.63 17.10Q326.56 17.10 325.47 16.00Q324.38 14.90 324.38 13.09L324.38 13.09L324.38 4.39L326.72 4.39L326.72 12.98Q326.72 14.15 327.18 14.72Q327.64 15.28 328.63 15.28L328.63 15.28Q329.60 15.28 330.07 14.71Q330.53 14.13 330.53 12.98L330.53 12.98L330.53 4.39L332.87 4.39ZM340.04 4.39L348.46 4.39L348.21 6.23L345.35 6.23L345.35 16.83L343.03 16.83L343.03 6.23L340.04 6.23L340.04 4.39ZM355.70 4.39L358.04 4.39L358.04 16.83L355.70 16.83L355.70 4.39ZM370.87 4.12Q373.21 4.12 374.53 5.77Q375.84 7.42 375.84 10.60L375.84 10.60Q375.84 13.75 374.53 15.43Q373.21 17.10 370.87 17.10L370.87 17.10Q368.55 17.10 367.24 15.44Q365.92 13.79 365.92 10.62L365.92 10.62Q365.92 7.49 367.24 5.80Q368.55 4.12 370.87 4.12L370.87 4.12ZM370.87 5.90Q369.63 5.90 369.00 7.00Q368.37 8.10 368.37 10.62L368.37 10.62Q368.37 13.12 369.01 14.22Q369.65 15.32 370.87 15.32L370.87 15.32Q372.15 15.32 372.77 14.23Q373.39 13.14 373.39 10.60L373.39 10.60Q373.39 8.10 372.77 7.00Q372.15 5.90 370.87 5.90L370.87 5.90ZM392.11 4.39L392.11 16.83L389.12 16.83L385.49 6.70L385.54 7.18Q385.79 9.70 385.79 11.66L385.79 11.66L385.79 16.83L383.71 16.83L383.71 4.39L386.66 4.39L390.33 14.53Q390.22 13.82 390.12 12.65Q390.02 11.47 390.02 10.30L390.02 10.30L390.02 4.39L392.11 4.39Z" transform="translate(0, 0)"></path></g></svg></g><g transform="rotate(0 0 0)"><svg viewBoxSize="575" data-root-id="9247111604461" xmlns="http://www.w3.org/2000/svg" y="333.00999450683594" viewBox="1.1200000047683716 11.600000381469727 376.77001953125 49.730003356933594" x="99.11498962402345" height="49.730003356933594" width="376.77001953125" fontUrl="https://fonts.gstatic.com/s/poppins/v21/pxiByp8kv8JHgFVrLCz7V1tvFP-KUEg.ttf" zoom="1" editorType="buyer" data-layer-role="brandName" style="position: absolute; top: 333.01px; width: 376.77px; height: 49.73px; left: 99.115px;"><g data-horizontal-grow="center" zoom="1" root="[object Object]" style="fill: rgb(101, 99, 115); fill-opacity: 1;"><path d="M1.12 16.22L26.42 16.22L26.42 22.60L17.76 22.60L17.76 48.93L9.79 48.93L9.79 22.60L1.12 22.60L1.12 16.22ZM42.27 49.30Q38.45 49.30 35.39 47.67Q32.34 46.04 30.59 43.01Q28.85 39.98 28.85 35.93L28.85 35.93Q28.85 31.92 30.62 28.87Q32.39 25.82 35.46 24.19Q38.54 22.56 42.36 22.56L42.36 22.56Q46.18 22.56 49.26 24.19Q52.33 25.82 54.10 28.87Q55.88 31.92 55.88 35.93L55.88 35.93Q55.88 39.94 54.08 42.99Q52.29 46.04 49.19 47.67Q46.09 49.30 42.27 49.30L42.27 49.30ZM42.27 42.41Q44.55 42.41 46.16 40.73Q47.77 39.05 47.77 35.93L47.77 35.93Q47.77 32.81 46.21 31.13Q44.64 29.45 42.36 29.45L42.36 29.45Q40.03 29.45 38.49 31.11Q36.95 32.76 36.95 35.93L36.95 35.93Q36.95 39.05 38.47 40.73Q39.98 42.41 42.27 42.41L42.27 42.41ZM71.77 42.17L74.61 42.17L74.61 48.93L70.55 48.93Q66.22 48.93 63.80 46.81Q61.37 44.69 61.37 39.89L61.37 39.89L61.37 29.55L58.21 29.55L58.21 22.93L61.37 22.93L61.37 16.59L69.34 16.59L69.34 22.93L74.56 22.93L74.56 29.55L69.34 29.55L69.34 39.98Q69.34 41.15 69.90 41.66Q70.46 42.17 71.77 42.17L71.77 42.17ZM77.45 35.88Q77.45 31.88 78.97 28.85Q80.48 25.82 83.09 24.19Q85.70 22.56 88.92 22.56L88.92 22.56Q91.66 22.56 93.74 23.67Q95.81 24.79 96.93 26.61L96.93 26.61L96.93 22.93L104.90 22.93L104.90 48.93L96.93 48.93L96.93 45.25Q95.77 47.07 93.69 48.19Q91.62 49.30 88.87 49.30L88.87 49.30Q85.70 49.30 83.09 47.65Q80.48 46.00 78.97 42.94Q77.45 39.89 77.45 35.88L77.45 35.88ZM96.93 35.93Q96.93 32.95 95.28 31.22Q93.62 29.50 91.25 29.50L91.25 29.50Q88.87 29.50 87.21 31.20Q85.56 32.90 85.56 35.88L85.56 35.88Q85.56 38.87 87.21 40.61Q88.87 42.36 91.25 42.36L91.25 42.36Q93.62 42.36 95.28 40.64Q96.93 38.91 96.93 35.93L96.93 35.93ZM110.68 14.45L118.65 14.45L118.65 48.93L110.68 48.93L110.68 14.45ZM135.00 49.30Q131.60 49.30 128.95 48.14Q126.29 46.97 124.75 44.95Q123.21 42.92 123.03 40.40L123.03 40.40L130.90 40.40Q131.04 41.75 132.16 42.59Q133.28 43.43 134.91 43.43L134.91 43.43Q136.40 43.43 137.22 42.85Q138.03 42.27 138.03 41.34L138.03 41.34Q138.03 40.22 136.87 39.68Q135.70 39.15 133.09 38.49L133.09 38.49Q130.30 37.84 128.43 37.12Q126.57 36.40 125.22 34.83Q123.87 33.27 123.87 30.62L123.87 30.62Q123.87 28.38 125.10 26.54Q126.34 24.70 128.74 23.63Q131.14 22.56 134.45 22.56L134.45 22.56Q139.34 22.56 142.16 24.98Q144.98 27.40 145.40 31.41L145.40 31.41L138.03 31.41Q137.85 30.06 136.85 29.27Q135.84 28.47 134.21 28.47L134.21 28.47Q132.81 28.47 132.07 29.01Q131.32 29.55 131.32 30.48L131.32 30.48Q131.32 31.60 132.51 32.15Q133.70 32.71 136.22 33.27L136.22 33.27Q139.11 34.02 140.92 34.74Q142.74 35.46 144.11 37.07Q145.49 38.68 145.54 41.38L145.54 41.38Q145.54 43.67 144.25 45.46Q142.97 47.25 140.57 48.28Q138.17 49.30 135.00 49.30L135.00 49.30ZM158.40 26.61Q159.56 24.79 161.61 23.67Q163.66 22.56 166.41 22.56L166.41 22.56Q169.63 22.56 172.24 24.19Q174.85 25.82 176.36 28.85Q177.88 31.88 177.88 35.88L177.88 35.88Q177.88 39.89 176.36 42.94Q174.85 46.00 172.24 47.65Q169.63 49.30 166.41 49.30L166.41 49.30Q163.71 49.30 161.64 48.19Q159.56 47.07 158.40 45.30L158.40 45.30L158.40 61.33L150.43 61.33L150.43 22.93L158.40 22.93L158.40 26.61ZM169.77 35.88Q169.77 32.90 168.11 31.20Q166.46 29.50 164.04 29.50L164.04 29.50Q161.66 29.50 160.01 31.22Q158.35 32.95 158.35 35.93L158.35 35.93Q158.35 38.91 160.01 40.64Q161.66 42.36 164.04 42.36L164.04 42.36Q166.41 42.36 168.09 40.61Q169.77 38.87 169.77 35.88L169.77 35.88ZM206.58 35.51Q206.58 36.63 206.44 37.84L206.44 37.84L188.41 37.84Q188.60 40.26 189.97 41.55Q191.35 42.83 193.35 42.83L193.35 42.83Q196.33 42.83 197.50 40.31L197.50 40.31L205.98 40.31Q205.33 42.87 203.62 44.92Q201.92 46.97 199.36 48.14Q196.80 49.30 193.63 49.30L193.63 49.30Q189.81 49.30 186.83 47.67Q183.84 46.04 182.16 43.01Q180.49 39.98 180.49 35.93L180.49 35.93Q180.49 31.88 182.14 28.85Q183.80 25.82 186.78 24.19Q189.76 22.56 193.63 22.56L193.63 22.56Q197.40 22.56 200.34 24.14Q203.28 25.72 204.93 28.66Q206.58 31.60 206.58 35.51L206.58 35.51ZM188.46 33.41L198.43 33.41Q198.43 31.36 197.03 30.15Q195.63 28.94 193.54 28.94L193.54 28.94Q191.53 28.94 190.16 30.10Q188.78 31.27 188.46 33.41L188.46 33.41ZM209.19 35.93Q209.19 31.88 210.85 28.85Q212.50 25.82 215.46 24.19Q218.42 22.56 222.24 22.56L222.24 22.56Q227.14 22.56 230.42 25.12Q233.71 27.68 234.73 32.34L234.73 32.34L226.25 32.34Q225.18 29.36 222.10 29.36L222.10 29.36Q219.91 29.36 218.61 31.06Q217.30 32.76 217.30 35.93L217.30 35.93Q217.30 39.10 218.61 40.80Q219.91 42.50 222.10 42.50L222.10 42.50Q225.18 42.50 226.25 39.52L226.25 39.52L234.73 39.52Q233.71 44.08 230.40 46.69Q227.09 49.30 222.24 49.30L222.24 49.30Q218.42 49.30 215.46 47.67Q212.50 46.04 210.85 43.01Q209.19 39.98 209.19 35.93L209.19 35.93ZM242.98 20.23Q240.88 20.23 239.55 18.99Q238.23 17.76 238.23 15.94L238.23 15.94Q238.23 14.07 239.55 12.84Q240.88 11.60 242.98 11.60L242.98 11.60Q245.03 11.60 246.36 12.84Q247.69 14.07 247.69 15.94L247.69 15.94Q247.69 17.76 246.36 18.99Q245.03 20.23 242.98 20.23L242.98 20.23ZM238.97 22.93L246.94 22.93L246.94 48.93L238.97 48.93L238.97 22.93ZM251.14 35.88Q251.14 31.88 252.65 28.85Q254.16 25.82 256.77 24.19Q259.38 22.56 262.60 22.56L262.60 22.56Q265.35 22.56 267.42 23.67Q269.50 24.79 270.61 26.61L270.61 26.61L270.61 22.93L278.58 22.93L278.58 48.93L270.61 48.93L270.61 45.25Q269.45 47.07 267.38 48.19Q265.30 49.30 262.55 49.30L262.55 49.30Q259.38 49.30 256.77 47.65Q254.16 46.00 252.65 42.94Q251.14 39.89 251.14 35.88L251.14 35.88ZM270.61 35.93Q270.61 32.95 268.96 31.22Q267.31 29.50 264.93 29.50L264.93 29.50Q262.55 29.50 260.90 31.20Q259.24 32.90 259.24 35.88L259.24 35.88Q259.24 38.87 260.90 40.61Q262.55 42.36 264.93 42.36L264.93 42.36Q267.31 42.36 268.96 40.64Q270.61 38.91 270.61 35.93L270.61 35.93ZM284.36 14.45L292.33 14.45L292.33 48.93L284.36 48.93L284.36 14.45ZM302.12 20.23Q300.02 20.23 298.69 18.99Q297.36 17.76 297.36 15.94L297.36 15.94Q297.36 14.07 298.69 12.84Q300.02 11.60 302.12 11.60L302.12 11.60Q304.17 11.60 305.50 12.84Q306.82 14.07 306.82 15.94L306.82 15.94Q306.82 17.76 305.50 18.99Q304.17 20.23 302.12 20.23L302.12 20.23ZM298.11 22.93L306.08 22.93L306.08 48.93L298.11 48.93L298.11 22.93ZM322.44 49.30Q319.03 49.30 316.38 48.14Q313.72 46.97 312.18 44.95Q310.65 42.92 310.46 40.40L310.46 40.40L318.33 40.40Q318.47 41.75 319.59 42.59Q320.71 43.43 322.34 43.43L322.34 43.43Q323.83 43.43 324.65 42.85Q325.46 42.27 325.46 41.34L325.46 41.34Q325.46 40.22 324.30 39.68Q323.13 39.15 320.52 38.49L320.52 38.49Q317.73 37.84 315.86 37.12Q314.00 36.40 312.65 34.83Q311.30 33.27 311.30 30.62L311.30 30.62Q311.30 28.38 312.53 26.54Q313.77 24.70 316.17 23.63Q318.57 22.56 321.88 22.56L321.88 22.56Q326.77 22.56 329.59 24.98Q332.41 27.40 332.83 31.41L332.83 31.41L325.46 31.41Q325.28 30.06 324.28 29.27Q323.27 28.47 321.64 28.47L321.64 28.47Q320.24 28.47 319.50 29.01Q318.75 29.55 318.75 30.48L318.75 30.48Q318.75 31.60 319.94 32.15Q321.13 32.71 323.65 33.27L323.65 33.27Q326.54 34.02 328.35 34.74Q330.17 35.46 331.55 37.07Q332.92 38.68 332.97 41.38L332.97 41.38Q332.97 43.67 331.69 45.46Q330.40 47.25 328.00 48.28Q325.60 49.30 322.44 49.30L322.44 49.30ZM349.51 42.17L352.35 42.17L352.35 48.93L348.30 48.93Q343.97 48.93 341.54 46.81Q339.12 44.69 339.12 39.89L339.12 39.89L339.12 29.55L335.95 29.55L335.95 22.93L339.12 22.93L339.12 16.59L347.09 16.59L347.09 22.93L352.31 22.93L352.31 29.55L347.09 29.55L347.09 39.98Q347.09 41.15 347.65 41.66Q348.21 42.17 349.51 42.17L349.51 42.17ZM367.36 49.30Q363.96 49.30 361.30 48.14Q358.64 46.97 357.11 44.95Q355.57 42.92 355.38 40.40L355.38 40.40L363.26 40.40Q363.40 41.75 364.52 42.59Q365.63 43.43 367.27 43.43L367.27 43.43Q368.76 43.43 369.57 42.85Q370.39 42.27 370.39 41.34L370.39 41.34Q370.39 40.22 369.22 39.68Q368.06 39.15 365.45 38.49L365.45 38.49Q362.65 37.84 360.79 37.12Q358.92 36.40 357.57 34.83Q356.22 33.27 356.22 30.62L356.22 30.62Q356.22 28.38 357.46 26.54Q358.69 24.70 361.09 23.63Q363.49 22.56 366.80 22.56L366.80 22.56Q371.69 22.56 374.51 24.98Q377.33 27.40 377.75 31.41L377.75 31.41L370.39 31.41Q370.20 30.06 369.20 29.27Q368.20 28.47 366.57 28.47L366.57 28.47Q365.17 28.47 364.42 29.01Q363.68 29.55 363.68 30.48L363.68 30.48Q363.68 31.60 364.87 32.15Q366.05 32.71 368.57 33.27L368.57 33.27Q371.46 34.02 373.28 34.74Q375.09 35.46 376.47 37.07Q377.84 38.68 377.89 41.38L377.89 41.38Q377.89 43.67 376.61 45.46Q375.33 47.25 372.93 48.28Q370.53 49.30 367.36 49.30L367.36 49.30Z" transform="translate(0, 0)"></path></g></svg></g></svg>