<svg viewBox="0 0 575 575" class="roots-wrapper"><g transform="rotate(0 0 0)"><svg viewBoxSize="575" data-root-id="9614613409251" xmlns="http://www.w3.org/2000/svg" viewBox="0.5 0.75 128.5 128.5" fill="none" height="132" width="132" y="221.5" x="34.91015565185546" preserveAspectRatio="xMinYMin" zoom="1" editorType="buyer" data-layer-role="icon" style="position: absolute; height: 132px; width: 132px; top: 221.5px; left: 34.9102px;"><path fill-rule="evenodd" clip-rule="evenodd" d="M1.75 0.75H0.5V2V128V129.25H1.75H127.75H129V128V111H126.5V126.75H3V3.25H126.5V19H129V2V0.75H127.75H1.75ZM33.75 34H95.75V96H33.75V34ZM56.298 55.44H63.138V79H66.368V55.44H73.208V52.4H56.298V55.44Z" fill="url(#paint0_linear_23565_19358)" name="Layer %{number}" zoom="1" data-layer-id="8347036409254" style="fill: url(&quot;#paint0_linear_23565_19358&quot;);"></path><linearGradient id="paint0_linear_23565_19358" x1="150.25" y1="41.5" x2="0.74999" y2="129" gradientUnits="userSpaceOnUse" name="Layer %{number}" zoom="1" data-layer-id="8280801509255"><stop stop-color="#D0AB71"></stop><stop offset="1" stop-color="#9F8148"></stop></linearGradient></svg></g><g transform="rotate(0 0 0)"><svg viewBoxSize="575" data-root-id="5879120509258" xmlns="http://www.w3.org/2000/svg" y="325" viewBox="1 -0.05000000447034836 341.9700012207031 13.190000534057617" x="185.60985565185547" height="13.190000534057617" width="341.9700012207031" fontUrl="https://fonts.gstatic.com/s/josefinsans/v32/Qw3PZQNVED7rKGKxtqIqX5E-AVSJrOCfjY46_DjQXMFrLgTsQV0.ttf" zoom="1" editorType="buyer" data-layer-role="slogan" style="position: absolute; top: 325px; width: 341.97px; height: 13.19px; left: 185.61px;"><g data-horizontal-grow="left" zoom="1" root="[object Object]" style="fill: rgb(0, 0, 0); fill-opacity: 0.8;"><path d="M10.10 10.37L10.79 11.83Q10.49 12.04 9.96 12.29Q9.44 12.55 8.73 12.72Q8.02 12.89 7.19 12.89L7.19 12.89Q5.76 12.87 4.62 12.38Q3.47 11.88 2.67 11.03Q1.87 10.18 1.44 9.07Q1.00 7.96 1.00 6.70L1.00 6.70Q1.00 5.32 1.45 4.16Q1.90 2.99 2.72 2.13Q3.54 1.28 4.65 0.80Q5.76 0.32 7.09 0.32L7.09 0.32Q8.19 0.32 9.10 0.62Q10.00 0.92 10.64 1.33L10.64 1.33L9.98 2.86Q9.47 2.52 8.75 2.21Q8.02 1.90 7.14 1.90L7.14 1.90Q6.24 1.90 5.44 2.26Q4.64 2.62 4.03 3.26Q3.42 3.91 3.07 4.77Q2.72 5.63 2.72 6.61L2.72 6.61Q2.72 7.62 3.03 8.47Q3.35 9.33 3.94 9.96Q4.52 10.59 5.36 10.95Q6.19 11.31 7.23 11.31L7.23 11.31Q8.16 11.31 8.89 11.02Q9.62 10.73 10.10 10.37L10.10 10.37ZM14.50 6.61L14.50 6.61Q14.50 5.34 14.99 4.21Q15.47 3.08 16.34 2.20Q17.20 1.33 18.33 0.82Q19.47 0.32 20.77 0.32L20.77 0.32Q22.07 0.32 23.20 0.82Q24.33 1.33 25.20 2.20Q26.08 3.08 26.57 4.21Q27.06 5.34 27.06 6.61L27.06 6.61Q27.06 7.92 26.57 9.06Q26.08 10.20 25.21 11.06Q24.34 11.92 23.21 12.40Q22.07 12.89 20.77 12.89L20.77 12.89Q19.47 12.89 18.33 12.41Q17.20 11.93 16.34 11.08Q15.47 10.23 14.99 9.10Q14.50 7.96 14.50 6.61ZM16.20 6.63L16.20 6.63Q16.20 7.60 16.56 8.44Q16.92 9.28 17.54 9.93Q18.17 10.57 19.01 10.94Q19.84 11.31 20.81 11.31L20.81 11.31Q21.76 11.31 22.59 10.94Q23.43 10.57 24.04 9.93Q24.65 9.28 25.01 8.44Q25.36 7.60 25.36 6.61L25.36 6.61Q25.36 5.64 25.01 4.79Q24.65 3.93 24.02 3.28Q23.39 2.64 22.56 2.27Q21.73 1.90 20.77 1.90L20.77 1.90Q19.80 1.90 18.97 2.28Q18.14 2.65 17.51 3.30Q16.88 3.94 16.54 4.80Q16.20 5.66 16.20 6.63ZM33.13 12.75L31.54 12.75L31.54 0.07L31.55 0.07L37.99 9.21L37.30 9.08L43.72 0.07L43.76 0.07L43.76 12.75L42.13 12.75L42.13 3.81L42.23 4.64L37.59 11.20L37.55 11.20L32.84 4.64L33.13 3.88L33.13 12.75ZM48.99 0.46L52.27 0.46Q53.62 0.46 54.57 0.91Q55.52 1.36 56.04 2.21Q56.56 3.06 56.56 4.27L56.56 4.27Q56.56 5.00 56.34 5.70Q56.12 6.41 55.63 6.98Q55.15 7.55 54.37 7.89Q53.58 8.23 52.46 8.23L52.46 8.23L50.64 8.23L50.64 12.75L48.99 12.75L48.99 0.46ZM50.64 6.65L52.45 6.65Q53.18 6.65 53.65 6.41Q54.13 6.17 54.40 5.81Q54.67 5.44 54.79 5.03Q54.91 4.62 54.91 4.30L54.91 4.30Q54.91 3.93 54.79 3.53Q54.67 3.13 54.39 2.80Q54.11 2.47 53.66 2.25Q53.21 2.04 52.55 2.04L52.55 2.04L50.64 2.04L50.64 6.65ZM60.81 12.75L60.81 0.46L62.46 0.46L62.46 11.17L68.70 11.17L68.70 12.75L60.81 12.75ZM73.08 12.75L73.08 0.46L81.07 0.46L81.07 2.04L74.73 2.04L74.73 5.78L80.39 5.78L80.39 7.36L74.73 7.36L74.73 11.17L81.31 11.17L81.31 12.75L73.08 12.75ZM84.97 2.04L84.97 0.46L93.13 0.46L93.13 2.04L89.83 2.04L89.83 12.75L88.18 12.75L88.18 2.04L84.97 2.04ZM97.44 12.75L97.44 0.46L105.43 0.46L105.43 2.04L99.09 2.04L99.09 5.78L104.75 5.78L104.75 7.36L99.09 7.36L99.09 11.17L105.67 11.17L105.67 12.75L97.44 12.75ZM125.39 0.46L127.02 0.46L127.02 12.75L125.39 12.75L125.39 7.36L118.95 7.36L118.95 12.75L117.30 12.75L117.30 0.46L118.95 0.46L118.95 5.80L125.39 5.80L125.39 0.46ZM132.65 12.75L131.04 12.75L136.41-0.05L136.51-0.05L141.87 12.75L139.98 12.75L135.97 2.53L137.14 1.77L132.65 12.75ZM133.71 9.52L134.18 8.09L138.75 8.09L139.30 9.52L133.71 9.52ZM156.57 13.14L156.52 13.14L147.02 3.50L147.49 3.62L147.53 12.75L145.88 12.75L145.88 0.09L145.96 0.09L155.36 9.76L154.97 9.67L154.94 0.46L156.57 0.46L156.57 13.14ZM165.75 12.75L161.81 12.75L161.81 0.46L165.16 0.46Q166.97 0.46 168.26 1.02Q169.54 1.58 170.32 2.50Q171.11 3.42 171.47 4.53Q171.84 5.64 171.84 6.75L171.84 6.75Q171.84 8.14 171.35 9.25Q170.87 10.35 170.02 11.14Q169.17 11.92 168.07 12.33Q166.97 12.75 165.75 12.75L165.75 12.75ZM163.46 2.04L163.46 11.17L165.43 11.17Q166.45 11.17 167.31 10.86Q168.16 10.56 168.80 9.98Q169.44 9.40 169.80 8.56Q170.15 7.72 170.15 6.65L170.15 6.65Q170.15 5.51 169.78 4.65Q169.41 3.79 168.76 3.21Q168.11 2.64 167.30 2.34Q166.48 2.04 165.58 2.04L165.58 2.04L163.46 2.04ZM179.03 12.75L179.03 8.65L174.47 0.46L176.49 0.46L180.15 7.24L179.64 7.28L183.26 0.46L185.27 0.46L180.68 8.65L180.68 12.75L179.03 12.75ZM190.81 12.75L189.21 12.75L189.21 0.07L189.23 0.07L195.67 9.21L194.97 9.08L201.40 0.07L201.43 0.07L201.43 12.75L199.80 12.75L199.80 3.81L199.90 4.64L195.26 11.20L195.23 11.20L190.52 4.64L190.81 3.88L190.81 12.75ZM207.06 12.75L205.44 12.75L210.82-0.05L210.92-0.05L216.27 12.75L214.39 12.75L210.37 2.53L211.55 1.77L207.06 12.75ZM208.11 9.52L208.59 8.09L213.16 8.09L213.71 9.52L208.11 9.52ZM230.98 13.14L230.93 13.14L221.42 3.50L221.90 3.62L221.93 12.75L220.29 12.75L220.29 0.09L220.37 0.09L229.77 9.76L229.38 9.67L229.35 0.46L230.98 0.46L230.98 13.14ZM250.27 1.38L249.64 2.65Q249.02 2.33 248.27 2.09Q247.52 1.85 246.81 1.85L246.81 1.85Q245.82 1.85 245.23 2.31Q244.65 2.77 244.65 3.54L244.65 3.54Q244.65 4.11 245.02 4.51Q245.39 4.91 246.01 5.20Q246.62 5.49 247.28 5.75L247.28 5.75Q247.86 5.97 248.42 6.24Q248.98 6.51 249.43 6.92Q249.88 7.33 250.15 7.92Q250.41 8.52 250.41 9.40L250.41 9.40Q250.41 10.37 249.93 11.17Q249.44 11.97 248.54 12.43Q247.64 12.89 246.40 12.89L246.40 12.89Q245.58 12.89 244.84 12.70Q244.10 12.51 243.47 12.21Q242.84 11.92 242.35 11.59L242.35 11.59L243.08 10.30Q243.49 10.59 244.02 10.85Q244.54 11.12 245.12 11.28Q245.70 11.44 246.24 11.44L246.24 11.44Q246.82 11.44 247.39 11.23Q247.96 11.02 248.34 10.57Q248.71 10.13 248.71 9.40L248.71 9.40Q248.71 8.77 248.38 8.36Q248.05 7.94 247.50 7.64Q246.96 7.34 246.35 7.11L246.35 7.11Q245.77 6.89 245.17 6.62Q244.58 6.36 244.07 5.98Q243.56 5.59 243.25 5.03Q242.95 4.47 242.95 3.67L242.95 3.67Q242.95 2.70 243.41 1.98Q243.88 1.26 244.70 0.84Q245.51 0.43 246.57 0.39L246.57 0.39Q247.76 0.39 248.67 0.68Q249.58 0.97 250.27 1.38L250.27 1.38ZM254.12 6.61L254.12 6.61Q254.12 5.34 254.60 4.21Q255.08 3.08 255.95 2.20Q256.82 1.33 257.95 0.82Q259.08 0.32 260.39 0.32L260.39 0.32Q261.68 0.32 262.81 0.82Q263.94 1.33 264.82 2.20Q265.69 3.08 266.19 4.21Q266.68 5.34 266.68 6.61L266.68 6.61Q266.68 7.92 266.19 9.06Q265.69 10.20 264.83 11.06Q263.96 11.92 262.82 12.40Q261.68 12.89 260.39 12.89L260.39 12.89Q259.08 12.89 257.95 12.41Q256.82 11.93 255.95 11.08Q255.08 10.23 254.60 9.10Q254.12 7.96 254.12 6.61ZM255.82 6.63L255.82 6.63Q255.82 7.60 256.17 8.44Q256.53 9.28 257.16 9.93Q257.79 10.57 258.62 10.94Q259.45 11.31 260.42 11.31L260.42 11.31Q261.37 11.31 262.21 10.94Q263.04 10.57 263.65 9.93Q264.26 9.28 264.62 8.44Q264.98 7.60 264.98 6.61L264.98 6.61Q264.98 5.64 264.62 4.79Q264.26 3.93 263.64 3.28Q263.01 2.64 262.17 2.27Q261.34 1.90 260.39 1.90L260.39 1.90Q259.42 1.90 258.59 2.28Q257.75 2.65 257.12 3.30Q256.50 3.94 256.16 4.80Q255.82 5.66 255.82 6.63ZM271.15 12.75L271.15 0.46L272.80 0.46L272.80 11.17L279.04 11.17L279.04 12.75L271.15 12.75ZM284.90 0.46L284.90 8.40Q284.90 9.23 285.30 9.89Q285.70 10.54 286.36 10.91Q287.03 11.29 287.86 11.29L287.86 11.29Q288.73 11.29 289.41 10.91Q290.09 10.54 290.48 9.89Q290.87 9.23 290.87 8.40L290.87 8.40L290.87 0.46L292.48 0.46L292.48 8.45Q292.48 9.79 291.86 10.80Q291.24 11.80 290.20 12.34Q289.15 12.89 287.86 12.89L287.86 12.89L287.86 12.89Q286.57 12.89 285.53 12.34Q284.49 11.80 283.88 10.80Q283.27 9.79 283.27 8.45L283.27 8.45L283.27 0.46L284.90 0.46ZM296.65 2.04L296.65 0.46L304.81 0.46L304.81 2.04L301.51 2.04L301.51 12.75L299.86 12.75L299.86 2.04L296.65 2.04ZM309.13 12.75L309.13 0.46L310.78 0.46L310.78 12.75L309.13 12.75ZM315.25 6.61L315.25 6.61Q315.25 5.34 315.73 4.21Q316.22 3.08 317.08 2.20Q317.95 1.33 319.08 0.82Q320.21 0.32 321.52 0.32L321.52 0.32Q322.81 0.32 323.94 0.82Q325.07 1.33 325.95 2.20Q326.82 3.08 327.32 4.21Q327.81 5.34 327.81 6.61L327.81 6.61Q327.81 7.92 327.32 9.06Q326.82 10.20 325.96 11.06Q325.09 11.92 323.95 12.40Q322.81 12.89 321.52 12.89L321.52 12.89Q320.21 12.89 319.08 12.41Q317.95 11.93 317.08 11.08Q316.22 10.23 315.73 9.10Q315.25 7.96 315.25 6.61ZM316.95 6.63L316.95 6.63Q316.95 7.60 317.30 8.44Q317.66 9.28 318.29 9.93Q318.92 10.57 319.75 10.94Q320.59 11.31 321.55 11.31L321.55 11.31Q322.51 11.31 323.34 10.94Q324.17 10.57 324.78 9.93Q325.40 9.28 325.75 8.44Q326.11 7.60 326.11 6.61L326.11 6.61Q326.11 5.64 325.75 4.79Q325.40 3.93 324.77 3.28Q324.14 2.64 323.31 2.27Q322.47 1.90 321.52 1.90L321.52 1.90Q320.55 1.90 319.72 2.28Q318.89 2.65 318.26 3.30Q317.63 3.94 317.29 4.80Q316.95 5.66 316.95 6.63ZM342.97 13.14L342.92 13.14L333.42 3.50L333.90 3.62L333.93 12.75L332.28 12.75L332.28 0.09L332.37 0.09L341.77 9.76L341.38 9.67L341.34 0.46L342.97 0.46L342.97 13.14Z" transform="translate(0, 0)"></path></g></svg></g><g transform="rotate(0 0 0)"><svg viewBoxSize="575" data-root-id="6215129609255" xmlns="http://www.w3.org/2000/svg" y="272.1" viewBox="0.4000000059604645 13.399999618530273 383.4800109863281 29.80000114440918" x="156.60985565185547" height="29.80000114440918" width="383.4800109863281" fontUrl="https://fonts.gstatic.com/s/jost/v15/92zPtBhPNqw79Ij1E865zBUv7myjJQVGPokMmuHL.ttf" zoom="1" editorType="buyer" data-layer-role="brandName" style="position: absolute; top: 272.1px; width: 383.48px; height: 29.8px; left: 156.61px;"><g data-horizontal-grow="left" zoom="1" root="[object Object]" style="fill: rgb(0, 0, 0);"><path d="M0.40 14.80L0.40 18.00L7.60 18.00L7.60 42.80L11 42.80L11 18.00L18.20 18.00L18.20 14.80L0.40 14.80ZM25.80 28.80L25.80 28.80Q25.80 25.64 27.18 23.16Q28.56 20.68 30.96 19.24Q33.36 17.80 36.40 17.80L36.40 17.80Q39.48 17.80 41.86 19.24Q44.24 20.68 45.62 23.16Q47 25.64 47 28.80L47 28.80Q47 31.96 45.62 34.44Q44.24 36.92 41.86 38.36Q39.48 39.80 36.40 39.80L36.40 39.80Q33.36 39.80 30.96 38.36Q28.56 36.92 27.18 34.44Q25.80 31.96 25.80 28.80ZM22.20 28.80L22.20 28.80Q22.20 31.84 23.26 34.48Q24.32 37.12 26.24 39.06Q28.16 41.00 30.76 42.10Q33.36 43.20 36.40 43.20L36.40 43.20Q39.48 43.20 42.06 42.10Q44.64 41.00 46.56 39.06Q48.48 37.12 49.54 34.48Q50.60 31.84 50.60 28.80L50.60 28.80Q50.60 25.72 49.54 23.10Q48.48 20.48 46.56 18.54Q44.64 16.60 42.06 15.50Q39.48 14.40 36.40 14.40L36.40 14.40Q33.36 14.40 30.76 15.50Q28.16 16.60 26.24 18.54Q24.32 20.48 23.26 23.10Q22.20 25.72 22.20 28.80ZM55.40 14.80L55.40 18.00L62.60 18.00L62.60 42.80L66 42.80L66 18.00L73.20 18.00L73.20 14.80L55.40 14.80ZM80.68 31.20L79.48 34.40L94.28 34.40L93.08 31.20L80.68 31.20ZM82.08 32.24L86.80 21.12L91.60 32.40L91.92 33.20L96 42.80L99.80 42.80L86.80 13.40L73.80 42.80L77.60 42.80L81.76 32.96L82.08 32.24ZM110.60 14.80L107.20 14.80L107.20 42.80L121.60 42.80L121.60 39.60L110.60 39.60L110.60 14.80ZM130.24 34.32L130.24 34.32L127.52 36.16Q128.44 38.00 129.90 39.62Q131.36 41.24 133.30 42.22Q135.24 43.20 137.52 43.20L137.52 43.20Q139.20 43.20 140.74 42.64Q142.28 42.08 143.50 41.04Q144.72 40.00 145.42 38.52Q146.12 37.04 146.12 35.20L146.12 35.20Q146.12 33.28 145.44 31.90Q144.76 30.52 143.70 29.54Q142.64 28.56 141.40 27.92Q140.16 27.28 139.04 26.88L139.04 26.88Q136.60 26.04 135.18 25.18Q133.76 24.32 133.16 23.34Q132.56 22.36 132.56 21.20L132.56 21.20Q132.56 19.84 133.60 18.74Q134.64 17.64 136.92 17.64L136.92 17.64Q138.56 17.64 139.70 18.28Q140.84 18.92 141.64 19.92Q142.44 20.92 142.96 21.96L142.96 21.96L145.88 20.28Q145.20 18.80 144 17.46Q142.80 16.12 141.10 15.26Q139.40 14.40 137.12 14.40L137.12 14.40Q134.76 14.40 132.92 15.34Q131.08 16.28 130.04 17.92Q129 19.56 129 21.64L129 21.64Q129 23.56 129.74 24.88Q130.48 26.20 131.64 27.10Q132.80 28.00 134.08 28.58Q135.36 29.16 136.40 29.52L136.40 29.52Q138 30.08 139.42 30.78Q140.84 31.48 141.72 32.60Q142.60 33.72 142.60 35.60L142.60 35.60Q142.60 37.52 141.24 38.76Q139.88 40.00 137.64 40.00L137.64 40.00Q135.96 40.00 134.64 39.28Q133.32 38.56 132.26 37.28Q131.20 36.00 130.24 34.32ZM158.52 14.80L155.12 14.80L155.12 42.80L158.52 42.80L158.52 14.80ZM157.00 14.80L157.00 18.00L162.72 18.00Q165.44 18.00 167.14 19.30Q168.84 20.60 168.84 23.20L168.84 23.20Q168.84 25.76 167.14 27.08Q165.44 28.40 162.72 28.40L162.72 28.40L157.00 28.40L157.00 31.60L162.72 31.60Q165.44 31.60 167.58 30.58Q169.72 29.56 170.98 27.66Q172.24 25.76 172.24 23.20L172.24 23.20Q172.24 20.60 170.98 18.72Q169.72 16.84 167.58 15.82Q165.44 14.80 162.72 14.80L162.72 14.80L157.00 14.80ZM182.92 39.60L182.92 42.80L197.04 42.80L197.04 39.60L182.92 39.60ZM182.92 14.80L182.92 18.00L197.04 18.00L197.04 14.80L182.92 14.80ZM182.92 26.00L182.92 29.20L196.24 29.20L196.24 26.00L182.92 26.00ZM184.44 14.80L181.04 14.80L181.04 42.80L184.44 42.80L184.44 14.80ZM209.04 28.80L209.04 28.80Q209.04 25.52 210.50 23.06Q211.96 20.60 214.32 19.20Q216.68 17.80 219.44 17.80L219.44 17.80Q221.44 17.80 223.10 18.32Q224.76 18.84 226.12 19.78Q227.48 20.72 228.44 21.96L228.44 21.96L228.44 17.48Q226.68 15.92 224.60 15.16Q222.52 14.40 219.44 14.40L219.44 14.40Q216.52 14.40 213.98 15.46Q211.44 16.52 209.52 18.46Q207.60 20.40 206.52 23.04Q205.44 25.68 205.44 28.80L205.44 28.80Q205.44 31.92 206.52 34.56Q207.60 37.20 209.52 39.14Q211.44 41.08 213.98 42.14Q216.52 43.20 219.44 43.20L219.44 43.20Q222.52 43.20 224.60 42.44Q226.68 41.68 228.44 40.12L228.44 40.12L228.44 35.64Q227.48 36.88 226.12 37.82Q224.76 38.76 223.10 39.28Q221.44 39.80 219.44 39.80L219.44 39.80Q216.68 39.80 214.32 38.40Q211.96 37.00 210.50 34.52Q209.04 32.04 209.04 28.80ZM241.84 14.80L238.44 14.80L238.44 42.80L241.84 42.80L241.84 14.80ZM256.12 31.20L254.92 34.40L269.72 34.40L268.52 31.20L256.12 31.20ZM257.52 32.24L262.24 21.12L267.04 32.40L267.36 33.20L271.44 42.80L275.24 42.80L262.24 13.40L249.24 42.80L253.04 42.80L257.20 32.96L257.52 32.24ZM286.04 14.80L282.64 14.80L282.64 42.80L297.04 42.80L297.04 39.60L286.04 39.60L286.04 14.80ZM308.04 14.80L304.64 14.80L304.64 42.80L308.04 42.80L308.04 14.80ZM319.48 34.32L319.48 34.32L316.76 36.16Q317.68 38.00 319.14 39.62Q320.60 41.24 322.54 42.22Q324.48 43.20 326.76 43.20L326.76 43.20Q328.44 43.20 329.98 42.64Q331.52 42.08 332.74 41.04Q333.96 40.00 334.66 38.52Q335.36 37.04 335.36 35.20L335.36 35.20Q335.36 33.28 334.68 31.90Q334.00 30.52 332.94 29.54Q331.88 28.56 330.64 27.92Q329.40 27.28 328.28 26.88L328.28 26.88Q325.84 26.04 324.42 25.18Q323.00 24.32 322.40 23.34Q321.80 22.36 321.80 21.20L321.80 21.20Q321.80 19.84 322.84 18.74Q323.88 17.64 326.16 17.64L326.16 17.64Q327.80 17.64 328.94 18.28Q330.08 18.92 330.88 19.92Q331.68 20.92 332.20 21.96L332.20 21.96L335.12 20.28Q334.44 18.80 333.24 17.46Q332.04 16.12 330.34 15.26Q328.64 14.40 326.36 14.40L326.36 14.40Q324.00 14.40 322.16 15.34Q320.32 16.28 319.28 17.92Q318.24 19.56 318.24 21.64L318.24 21.64Q318.24 23.56 318.98 24.88Q319.72 26.20 320.88 27.10Q322.04 28.00 323.32 28.58Q324.60 29.16 325.64 29.52L325.64 29.52Q327.24 30.08 328.66 30.78Q330.08 31.48 330.96 32.60Q331.84 33.72 331.84 35.60L331.84 35.60Q331.84 37.52 330.48 38.76Q329.12 40.00 326.88 40.00L326.88 40.00Q325.20 40.00 323.88 39.28Q322.56 38.56 321.50 37.28Q320.44 36.00 319.48 34.32ZM341.56 14.80L341.56 18.00L348.76 18.00L348.76 42.80L352.16 42.80L352.16 18.00L359.36 18.00L359.36 14.80L341.56 14.80ZM368.00 34.32L368.00 34.32L365.28 36.16Q366.20 38.00 367.66 39.62Q369.12 41.24 371.06 42.22Q373.00 43.20 375.28 43.20L375.28 43.20Q376.96 43.20 378.50 42.64Q380.04 42.08 381.26 41.04Q382.48 40.00 383.18 38.52Q383.88 37.04 383.88 35.20L383.88 35.20Q383.88 33.28 383.20 31.90Q382.52 30.52 381.46 29.54Q380.40 28.56 379.16 27.92Q377.92 27.28 376.80 26.88L376.80 26.88Q374.36 26.04 372.94 25.18Q371.52 24.32 370.92 23.34Q370.32 22.36 370.32 21.20L370.32 21.20Q370.32 19.84 371.36 18.74Q372.40 17.64 374.68 17.64L374.68 17.64Q376.32 17.64 377.46 18.28Q378.60 18.92 379.40 19.92Q380.20 20.92 380.72 21.96L380.72 21.96L383.64 20.28Q382.96 18.80 381.76 17.46Q380.56 16.12 378.86 15.26Q377.16 14.40 374.88 14.40L374.88 14.40Q372.52 14.40 370.68 15.34Q368.84 16.28 367.80 17.92Q366.76 19.56 366.76 21.64L366.76 21.64Q366.76 23.56 367.50 24.88Q368.24 26.20 369.40 27.10Q370.56 28.00 371.84 28.58Q373.12 29.16 374.16 29.52L374.16 29.52Q375.76 30.08 377.18 30.78Q378.60 31.48 379.48 32.60Q380.36 33.72 380.36 35.60L380.36 35.60Q380.36 37.52 379.00 38.76Q377.64 40.00 375.40 40.00L375.40 40.00Q373.72 40.00 372.40 39.28Q371.08 38.56 370.02 37.28Q368.96 36.00 368.00 34.32Z" transform="translate(0, 0)"></path></g></svg></g></svg>