<svg viewBox="0 0 575 575" class="roots-wrapper"><g transform="rotate(0 0 0)"><svg viewBoxSize="575" data-root-id="4051396657913" xmlns="http://www.w3.org/2000/svg" xmlns:xlink="http://www.w3.org/1999/xlink" version="1.1" id="Layer_1" x="386.1226043701172" y="230.00288555908202" viewBox="122.00997924804688 215.88571166992188 350.8000183105469 411.6542663574219" xml:space="preserve" height="115" width="97.99478912353516" preserveAspectRatio="xMinYMin" zoom="1" editorType="buyer" data-layer-role="icon" style="position: absolute; height: 115px; width: 97.9948px; top: 230.003px; left: 386.123px;"><path class="st0" d="M297.4,353.18c54.65,0,98.96,44.31,98.96,98.96c0,54.66-44.31,98.96-98.96,98.96   c-54.65,0-98.96-44.31-98.96-98.96C198.44,397.49,242.75,353.18,297.4,353.18L297.4,353.18z M465,422.4l-41.04-10.07   c-2.26-7.19-5.14-14.18-8.63-20.97l20.97-34.94c2.47-4.11,1.85-9.25-1.44-12.54l-29.19-29.19c-3.29-3.29-8.43-3.91-12.54-1.44   l-34.94,20.97c-6.78-3.49-13.77-6.37-20.97-8.63l-9.87-41.04c-1.23-4.52-5.34-7.81-10.07-7.81h-41.11c-4.73,0-8.84,3.29-10.07,7.81   l-9.87,41.04c-7.19,2.26-14.18,5.14-20.97,8.63l-34.94-20.97c-4.11-2.47-9.25-1.85-12.54,1.44l-29.19,29.19   c-3.29,3.29-3.91,8.43-1.44,12.54l20.97,34.94c-3.49,6.78-6.37,13.77-8.63,20.97l-39.67,10.07c-4.52,1.03-7.81,5.14-7.81,9.87   v41.11c0,4.73,3.29,8.84,7.81,9.87l39.67,10.07c2.26,7.19,5.14,14.18,8.63,20.97l-20.97,34.94c-2.47,4.11-1.85,9.25,1.44,12.54   l29.19,29.19c3.29,3.29,8.43,3.91,12.54,1.44l34.94-20.97c6.78,3.49,13.77,6.37,20.97,8.63l9.87,39.67   c1.23,4.52,5.34,7.81,10.07,7.81h41.11c4.73,0,8.84-3.29,10.07-7.81l9.87-39.67c7.19-2.26,14.18-5.14,20.97-8.63l34.94,20.97   c4.11,2.47,9.25,1.85,12.54-1.44l29.19-29.19c3.29-3.29,3.91-8.43,1.44-12.54l-20.97-34.94c3.49-6.78,6.37-13.77,8.63-20.97   L465,483.25c4.52-1.03,7.81-5.14,7.81-9.87v-41.11C472.81,427.54,469.52,423.43,465,422.4L465,422.4z" name="Layer %{number}" zoom="1" data-layer-id="1583645757957" style="fill: rgb(11, 5, 12);"></path><path class="st1" d="M263.27,283.56c-0.51-0.2-1.01-0.42-1.51-0.66c-5.17,3.32-7.65,10.31-4.52,15.85l5,8.85   c2.72,4.82,2.22,10.63-0.86,14.86l75.51,118.92l-40.58,25.77l-75.4-118.74c-5.16,1.23-10.77-0.61-14.14-5.06l-6.08-8   c-5.14-6.77-15.15-7.49-21.21-1.53l-33.16,32.64c-7.62,7.5-20.33,0.38-18.05-9.91l0.02-0.08c0.24-1.08,0.29-1.14,0.62-1.9   l17.44-40.62c8.69-20.24,23.29-37.39,41.88-49.2c9.09-5.77,18.18-11.54,27.27-17.31c5.04-3.2,11.61-2.74,16.17,1.09   c0.51,0.43,1.23,0.47,1.79,0.12l4.67-2.96c-0.06-6.4,2.58-12.56,7.37-16.91c0.95-0.86,1.98-1.65,3.09-2.35l13.29-8.44   c3.03-1.92,6.69-2.56,10.2-1.78c3.43,0.77,6.42,2.83,8.35,5.76c0.04,0.06,0.08,0.13,0.13,0.19l20.55,32.36   c0.28,0.44,0.54,0.9,0.76,1.36c2.94,6.08,0.91,13.6-4.93,17.31l-13.29,8.44C277.41,285.59,269.85,286.15,263.27,283.56   L263.27,283.56z M407.63,575.75l-23.26,14.77c-4.25,2.7-9.38,3.59-14.29,2.5c-4.91-1.1-9.17-4.09-11.87-8.34l-59.41-93.55   c-5.58-8.79-2.95-20.57,5.84-26.16l23.26-14.77c8.79-5.58,20.57-2.95,26.16,5.84l59.41,93.55c2.7,4.25,3.59,9.38,2.5,14.29   C414.87,568.8,411.88,573.05,407.63,575.75L407.63,575.75z" name="Layer %{number}" zoom="1" data-layer-id="0481166657977" style="fill-rule: evenodd; clip-rule: evenodd; fill: rgb(255, 255, 255);"></path><polygon points="217.89,328.28 244.56,311.34 325.53,438.85 298.86,455.78 217.89,328.28  " name="Layer %{number}" zoom="1" data-layer-id="2511171757996"></polygon><path d="M403.21,568.8l-23.26,14.77c-2.5,1.59-5.4,2.01-8.08,1.41c-2.68-0.6-5.12-2.22-6.71-4.71l-59.41-93.55   c-3.17-4.99-1.69-11.61,3.3-14.79l23.26-14.77c4.99-3.17,11.62-1.69,14.79,3.3l59.41,93.55c1.59,2.5,2.01,5.4,1.41,8.08   C407.33,564.76,405.71,567.21,403.21,568.8L403.21,568.8z" name="Layer %{number}" zoom="1" data-layer-id="9594394358018"></path><path d="M253.01,233.39c-5.29,3.36-7.97,9.92-5.99,16.43l-9.14,5.8c-3.71,2.36-8.36,1.88-11.51-0.76   c-1.83-1.54-4.44-1.73-6.46-0.45c-5.74,3.65-16.73,10.62-27.27,17.31c-17.2,10.92-30.69,26.77-38.73,45.49l-17.44,40.61   c-0.06,0.15-0.11,0.3-0.15,0.44l-0.02,0.08c-0.48,2.28,2.41,4.04,4.23,2.25l33.16-32.64c9.63-9.47,25.38-8.34,33.55,2.42l6.08,8   c1.73,2.28,4.92,2.85,7.34,1.32l32.57-20.68c2.47-1.57,3.28-4.81,1.84-7.36l-5-8.85c-4.87-9.51-1.7-21.17,7.33-26.9l4.41-2.8l0,0   c5.04,4.56,12.12,4.92,17.41,1.56l13.29-8.44c2.47-1.57,3.19-4.83,1.63-7.3l-20.55-32.36c-1.57-2.47-4.83-3.19-7.3-1.63   L253.01,233.39L253.01,233.39z" name="Layer %{number}" zoom="1" data-layer-id="1126619358037"></path><path d="M266.31,224.95l-13.29,8.44c-5.29,3.36-7.97,9.92-5.99,16.43l0,0l14.79,23.3l0,0l0,0c5.04,4.56,12.12,4.92,17.41,1.56   l13.29-8.44c2.47-1.57,3.19-4.83,1.63-7.3l-20.55-32.36c-0.78-1.23-1.99-2.03-3.31-2.33C268.97,223.96,267.54,224.17,266.31,224.95   L266.31,224.95z" name="Layer %{number}" zoom="1" data-layer-id="9991861258059"></path><path d="M254.42,261.47l7.4,11.65l0,0l0,0c5.04,4.56,12.12,4.92,17.41,1.56l13.29-8.44c2.47-1.57,3.19-4.83,1.63-7.3l-10.27-16.18   L254.42,261.47L254.42,261.47z" name="Layer %{number}" zoom="1" data-layer-id="7917651658086"></path><path class="st2" d="M309.05,416.34c21.6,0,39.1,21.55,39.1,48.13c0,26.58-17.51,48.13-39.1,48.13c-21.6,0-39.1-21.55-39.1-48.13   C269.94,437.88,287.45,416.34,309.05,416.34L309.05,416.34z" name="Layer %{number}" zoom="1" data-layer-id="3861656858113" style="fill-rule: evenodd; clip-rule: evenodd;"></path><path class="st1" d="M338.43,515.72c0.22,0.8,0.44,1.61,0.65,2.41c0.71,2.72,1.37,5.46,1.84,8.23l0.83,4.93l-2.69,4.21   c-2.14,3.36-4.99,6.55-7.85,9.32c-6.3,6.11-13.84,10.92-22.24,13.54c-7.54,2.36-14.9,3.07-22.71,3.71   c-1.05,0.09-2.68,0.18-4.01,0.4c-0.68,1.03-1.33,2.1-1.99,3.09c-2.06,3.07-4.25,6.03-6.77,8.74c-7.53,8.1-16.97,12.88-28.17,12.77   c-10.2-0.09-20.91-4.79-29.52-10.02c-10.18-6.18-19.54-14.3-27.21-23.4c-4.93-5.85-9.26-12.26-12.62-19.15   c-6.09-12.48-8.71-26.24-2.65-39.3c3.98-8.58,10.06-13.86,17.04-19.88c5.67-4.89,11.36-9.75,17.09-14.56l1-0.84l0.66-0.36   c0.09-1.17,0.19-2.34,0.3-3.51c1.02-11.39,2.6-22.72,4.02-34.07c1.52-12.19,9.22-23.42,17.4-32.23   c7.73-8.32,18.68-17.52,28.9-22.49c12.1-5.89,26.68-4.25,37.44,3.37c1.19-0.85,2.42-1.65,3.65-2.47c4.31-2.88,8.74-5.59,13.25-8.14   c15.27-8.64,32.36-6.42,42.3,8.84c2.42,3.71,3.83,7.65,4.26,11.67c3.78,0.01,7.5,0.89,10.85,3.07c5.4,3.5,10.37,9.31,13.25,15.05   c3.41,6.8,4.23,14.14,2.06,20.85c0.73,0.53,1.45,1.1,2.15,1.69c3.76,3.16,6.12,8.2,7.48,12.84c1.54,5.24,0.98,10.95-1.16,15.97   c6.45,5.01,10.01,12.49,8.76,21.85c-0.73,5.5-3.16,11.01-6.33,15.54l-0.93,1.32l-1.22,1.06c-4.13,3.57-8.52,6.83-12.88,10.12   c-11.17,8.42-29.05,20.24-43.58,16.01C338.88,515.87,338.66,515.8,338.43,515.72L338.43,515.72z" name="Layer %{number}" zoom="1" data-layer-id="7767382358145" style="fill-rule: evenodd; clip-rule: evenodd; fill: rgb(255, 255, 255);"></path><path class="st2" d="M383.14,452.87c8.11,2.68,14.02,8.39,12.75,17.92c-0.56,4.17-2.5,8.47-4.91,11.9l-0.34,0.48l-0.45,0.39   c-3.93,3.39-8.31,6.65-12.45,9.78c-8.64,6.52-25.2,17.91-36.32,14.68c-3.11-0.9-5.81-2.72-7.78-5.29   c-2.69-3.51-3.67-7.96-3.04-12.31c0.25-1.75,0.75-3.42,1.46-4.99c-5.35,0.94-11.3,0.51-15.3-3.53c-1.11-1.12-1.97-2.44-2.57-3.89   c-1.66-4-2.19-8.18-0.62-12.3c0.18-0.47,0.38-0.93,0.61-1.38c-4.47,0.61-8.99,0.06-12.82-2.26c0.09,1.59,0.12,3.19,0.08,4.8   l2.64,3.08c1.63,1.9,3.24,4.13,4.74,6.14c3.32,4.45,6.52,9.02,9.47,13.71c2.57,4.09,5.1,8.47,6.97,12.94   c2.36,5.66,4.32,11.54,5.87,17.47c0.64,2.44,1.27,5.02,1.69,7.52l0.3,1.8l-0.98,1.54c-1.74,2.72-4.35,5.61-6.64,7.84   c-5.37,5.21-11.79,9.35-18.96,11.59c-7.05,2.2-13.66,2.76-20.94,3.37c-1.56,0.13-7.56,0.54-8.61,1.86   c-1.27,1.59-2.41,3.56-3.56,5.26c-1.81,2.71-3.74,5.32-5.96,7.71c-5.94,6.38-13.18,10.23-22.06,10.15   c-8.59-0.08-18.1-4.44-25.32-8.83c-9.38-5.69-18.12-13.28-25.18-21.67c-4.49-5.33-8.46-11.18-11.52-17.45   c-4.96-10.17-7.54-21.53-2.58-32.22c3.39-7.31,9.01-11.99,14.95-17.11c5.64-4.86,11.31-9.7,17.01-14.49l0.37-0.31l3.89-2.11   c0.17-2.63,0.38-5.25,0.62-7.86c1.02-11.32,2.58-22.52,3.99-33.78c1.29-10.31,8.36-20.21,15.26-27.65   c6.89-7.42,17.3-16.23,26.47-20.69c11.27-5.48,25.28-2.44,33.58,6.66l3.57-2.88c1.47-1.19,3.33-2.38,4.9-3.43   c4.14-2.77,8.41-5.37,12.74-7.82c11.46-6.49,23.79-5.41,31.34,6.17c3.95,6.06,3.76,12.11,1.38,17.64c1.21-0.49,2.44-0.92,3.68-1.28   c4.06-1.17,8.76-1.61,12.48,0.8c4.16,2.69,8.16,7.43,10.37,11.84c3.57,7.11,3.36,14.67-1.92,20.75c3.31,0.69,6.12,2.43,8.2,4.4   c2.59,1.93,4.07,6.11,4.88,8.85c1.54,5.25-0.34,11.4-4,15.36l-0.33,0.36l-0.4,0.28C383.59,452.55,383.36,452.71,383.14,452.87   L383.14,452.87z" name="Layer %{number}" zoom="1" data-layer-id="3021095958178" style="fill-rule: evenodd; clip-rule: evenodd;"></path><path class="st3" d="M216.58,470.29c0,0-1.24,12.67,3.71,29.06c4.95,16.38,22.41,24.27,22.41,24.27s-16.38-12.36-20.09-30.14   c-3.71-17.77,1.39-51.31,3.71-69.86c2.32-18.55,27.67-39.1,39.1-44.67c11.44-5.56,24.34-0.31,30.06,8.19   c5.72,8.5,13.1,23.92,16.46,28.13c3.36,4.21,8.69,11.24,4.98,15.34c-3.71,4.1-12.21,5.49-22.26-0.15   c-10.05-5.64-13.99-7.57-17-11.98c-3.01-4.41-4.79-7.03-4.79-7.03s-1.62,5.56,4.64,12.29c6.26,6.72,18.01,21.1,19.09,38.41   c1.08,17.31-6.96,38.56-12.21,46.14c0,0,10.82-8.81,13.45-19.94c2.63-11.13,2.63-15.3,2.63-15.3s14.99,18.55,20.4,31.53   c5.41,12.98,7.26,23.96,7.26,23.96s-8.19,12.83-23.03,17.47c-14.84,4.64-27.67,1.55-31.84,6.8c-4.17,5.25-11.28,21.48-27.82,21.33   c-16.54-0.15-45.6-20.25-57.81-45.29c-12.21-25.04,1.7-35.47,11.21-43.66c9.51-8.19,16.96-14.45,16.96-14.45L216.58,470.29   L216.58,470.29z" name="Layer %{number}" zoom="1" data-layer-id="3528161558201" style="fill-rule: evenodd; clip-rule: evenodd; fill: rgb(255, 207, 0);"></path><path class="st3" d="M299.08,385.7c0,0,12.83,22.95,15.92,26.51c3.09,3.55,3.09,3.55,3.09,3.55s15.53-11.05,21.56-17.08   c6.03-6.03,11.36-14.3,5.87-22.72c-5.49-8.42-14.53-10.59-25.04-4.64c-10.51,5.95-17,10.82-17,10.82L299.08,385.7L299.08,385.7z" name="Layer %{number}" zoom="1" data-layer-id="9580259358224" style="fill-rule: evenodd; clip-rule: evenodd; fill: rgb(255, 207, 0);"></path><path class="st3" d="M320.41,418.93l26.66-20.79c0,0,11.9-7.19,17.39-3.63c5.49,3.55,16.23,16.15,7.03,25.97   c-9.2,9.81-38.56,29.37-46.68,34.78c-8.11,5.41-17.85,6.34-23.18,1.08c-5.33-5.26-5.33-12.83-4.1-16.54   c1.24-3.71,1.24-3.79,1.24-3.79s9.43,2.94,16,0.15c6.57-2.78,7.26-8.96,7.26-8.96S322.72,421.72,320.41,418.93L320.41,418.93z" name="Layer %{number}" zoom="1" data-layer-id="5739641358243" style="fill-rule: evenodd; clip-rule: evenodd; fill: rgb(255, 207, 0);"></path><path class="st3" d="M370.79,427.67c0,0-39.72,26.12-45.52,31.14c-5.8,5.02-10.12,9.2-6.72,17.39c3.4,8.19,18.32,6.18,33.93-6.1   c15.61-12.29,28.59-21.56,28.59-21.56s4.64-5.02,2.94-10.82c-1.7-5.8-3.32-6.49-3.32-6.49S376.74,426.74,370.79,427.67   L370.79,427.67z" name="Layer %{number}" zoom="1" data-layer-id="1120220558262" style="fill-rule: evenodd; clip-rule: evenodd; fill: rgb(255, 207, 0);"></path><path class="st3" d="M379.06,456.65c0,0-29.52,17-38.33,24.88c-8.81,7.88-6.49,19.47,2.01,21.95c8.5,2.47,23.34-7.26,32.15-13.91   s12.21-9.58,12.21-9.58S400.7,461.59,379.06,456.65L379.06,456.65z" name="Layer %{number}" zoom="1" data-layer-id="7477961258290" style="fill-rule: evenodd; clip-rule: evenodd; fill: rgb(255, 207, 0);"></path></svg></g><g transform="rotate(0 0 0)"><svg viewBoxSize="575" data-root-id="9826398558380" xmlns="http://www.w3.org/2000/svg" y="296.49988555908203" viewBox="4.210000038146973 6.570000171661377 277.1499938964844 18.630001068115234" x="90.88261352539064" height="18.630001068115234" width="277.1499938964844" fontUrl="https://fonts.gstatic.com/s/notosanskr/v36/PbyxFmXiEBPT4ITbgNA5Cgms3VYcOA-vvnIzzrQyeLTq8H4hfeE.ttf" zoom="1" editorType="buyer" data-layer-role="slogan" style="position: absolute; top: 296.5px; right: 251.5px; width: 277.15px; height: 18.63px; left: 90.8826px;"><g data-horizontal-grow="right" data-vertical-center="false" zoom="1" root="[object Object]" style="fill: rgb(0, 0, 0);"><path d="M5.51 25.20L5.51 25.20Q5.24 25.20 4.97 25.15Q4.70 25.09 4.50 25.00L4.50 25.00L4.72 24.12Q4.86 24.17 5.08 24.22Q5.29 24.26 5.49 24.26L5.49 24.26Q6.37 24.26 6.95 23.57Q7.52 22.88 7.88 21.83L7.88 21.83L8.14 21.01L4.21 11.27L5.33 11.27L7.56 17.15Q7.79 17.78 8.06 18.50Q8.33 19.21 8.59 19.85L8.59 19.85L8.68 19.85Q8.89 19.21 9.12 18.50Q9.34 17.78 9.54 17.15L9.54 17.15L11.50 11.27L12.56 11.27L8.82 22.00Q8.55 22.82 8.11 23.55Q7.67 24.28 7.04 24.74Q6.41 25.20 5.51 25.20ZM18.09 21.11L18.09 21.11Q16.94 21.11 15.94 20.52Q14.94 19.93 14.35 18.80Q13.75 17.68 13.75 16.09L13.75 16.09Q13.75 14.49 14.35 13.36Q14.94 12.22 15.94 11.63Q16.94 11.03 18.09 11.03L18.09 11.03Q18.95 11.03 19.75 11.38Q20.54 11.72 21.14 12.37Q21.74 13.01 22.09 13.96Q22.43 14.90 22.43 16.09L22.43 16.09Q22.43 17.68 21.83 18.80Q21.22 19.93 20.24 20.52Q19.26 21.11 18.09 21.11ZM18.09 20.20L18.09 20.20Q19.03 20.20 19.76 19.68Q20.50 19.17 20.93 18.24Q21.35 17.32 21.35 16.09L21.35 16.09Q21.35 14.85 20.93 13.92Q20.50 13.00 19.76 12.47Q19.03 11.95 18.09 11.95L18.09 11.95Q17.15 11.95 16.42 12.47Q15.68 13.00 15.26 13.92Q14.85 14.85 14.85 16.09L14.85 16.09Q14.85 17.32 15.26 18.24Q15.68 19.17 16.42 19.68Q17.15 20.20 18.09 20.20ZM27.99 21.11L27.99 21.11Q26.50 21.11 25.79 20.20Q25.07 19.28 25.07 17.41L25.07 17.41L25.07 11.27L26.14 11.27L26.14 17.28Q26.14 18.77 26.63 19.48Q27.13 20.18 28.22 20.18L28.22 20.18Q29.05 20.18 29.73 19.73Q30.40 19.28 31.21 18.31L31.21 18.31L31.21 11.27L32.27 11.27L32.27 20.88L31.37 20.88L31.28 19.30L31.25 19.30Q30.53 20.11 29.76 20.61Q29.00 21.11 27.99 21.11ZM36.88 20.88L35.84 20.88L35.84 11.27L36.70 11.27L36.83 13.05L36.86 13.05Q37.35 12.17 38.05 11.60Q38.75 11.03 39.58 11.03L39.58 11.03Q39.87 11.03 40.10 11.08Q40.34 11.12 40.55 11.23L40.55 11.23L40.34 12.17Q40.10 12.10 39.92 12.05Q39.74 12.01 39.46 12.01L39.46 12.01Q38.83 12.01 38.12 12.56Q37.42 13.10 36.88 14.44L36.88 14.44L36.88 20.88ZM49.86 21.11L49.86 21.11Q48.62 21.11 47.63 20.52Q46.64 19.93 46.06 18.80Q45.49 17.68 45.49 16.09L45.49 16.09Q45.49 14.49 46.11 13.36Q46.73 12.22 47.74 11.63Q48.74 11.03 49.93 11.03L49.93 11.03Q50.90 11.03 51.58 11.39Q52.25 11.75 52.74 12.20L52.74 12.20L52.15 12.92Q51.70 12.51 51.17 12.23Q50.63 11.95 49.97 11.95L49.97 11.95Q49.00 11.95 48.23 12.47Q47.47 13.00 47.03 13.92Q46.58 14.85 46.58 16.09L46.58 16.09Q46.58 17.32 47.01 18.24Q47.43 19.17 48.19 19.68Q48.94 20.20 49.95 20.20L49.95 20.20Q50.69 20.20 51.32 19.89Q51.95 19.58 52.43 19.13L52.43 19.13L52.96 19.87Q52.33 20.41 51.55 20.76Q50.78 21.11 49.86 21.11ZM58.41 21.11L58.41 21.11Q57.26 21.11 56.26 20.52Q55.26 19.93 54.67 18.80Q54.07 17.68 54.07 16.09L54.07 16.09Q54.07 14.49 54.67 13.36Q55.26 12.22 56.26 11.63Q57.26 11.03 58.41 11.03L58.41 11.03Q59.27 11.03 60.07 11.38Q60.86 11.72 61.46 12.37Q62.06 13.01 62.41 13.96Q62.75 14.90 62.75 16.09L62.75 16.09Q62.75 17.68 62.15 18.80Q61.54 19.93 60.56 20.52Q59.58 21.11 58.41 21.11ZM58.41 20.20L58.41 20.20Q59.35 20.20 60.08 19.68Q60.82 19.17 61.25 18.24Q61.67 17.32 61.67 16.09L61.67 16.09Q61.67 14.85 61.25 13.92Q60.82 13.00 60.08 12.47Q59.35 11.95 58.41 11.95L58.41 11.95Q57.47 11.95 56.74 12.47Q56.00 13.00 55.58 13.92Q55.17 14.85 55.17 16.09L55.17 16.09Q55.17 17.32 55.58 18.24Q56.00 19.17 56.74 19.68Q57.47 20.20 58.41 20.20ZM66.60 20.88L65.56 20.88L65.56 11.27L66.42 11.27L66.55 12.74L66.58 12.74Q67.23 12.02 68.01 11.53Q68.80 11.03 69.61 11.03L69.61 11.03Q70.76 11.03 71.38 11.56Q72.00 12.08 72.25 12.98L72.25 12.98Q73.08 12.10 73.87 11.57Q74.66 11.03 75.51 11.03L75.51 11.03Q76.93 11.03 77.65 11.96Q78.37 12.89 78.37 14.74L78.37 14.74L78.37 20.88L77.33 20.88L77.33 14.89Q77.33 13.39 76.82 12.68Q76.32 11.97 75.26 11.97L75.26 11.97Q74.61 11.97 73.94 12.40Q73.28 12.83 72.49 13.70L72.49 13.70L72.49 20.88L71.44 20.88L71.44 14.89Q71.44 13.39 70.94 12.68Q70.43 11.97 69.37 11.97L69.37 11.97Q68.74 11.97 68.05 12.40Q67.36 12.83 66.60 13.70L66.60 13.70L66.60 20.88ZM82.87 25.15L81.83 25.15L81.83 11.27L82.69 11.27L82.82 12.46L82.85 12.46Q83.56 11.90 84.38 11.47Q85.19 11.03 86.06 11.03L86.06 11.03Q87.34 11.03 88.19 11.65Q89.05 12.26 89.48 13.35Q89.91 14.44 89.91 15.93L89.91 15.93Q89.91 17.57 89.32 18.73Q88.72 19.89 87.77 20.50Q86.81 21.11 85.68 21.11L85.68 21.11Q85.01 21.11 84.29 20.81Q83.57 20.50 82.85 19.94L82.85 19.94L82.87 21.71L82.87 25.15ZM85.61 20.20L85.61 20.20Q86.53 20.20 87.25 19.67Q87.97 19.13 88.38 18.17Q88.79 17.21 88.79 15.95L88.79 15.95Q88.79 14.80 88.51 13.89Q88.22 12.98 87.58 12.47Q86.94 11.95 85.86 11.95L85.86 11.95Q85.18 11.95 84.44 12.34Q83.70 12.73 82.87 13.46L82.87 13.46L82.87 19.03Q83.65 19.67 84.36 19.94Q85.07 20.20 85.61 20.20ZM94.00 21.11L94.00 21.11Q93.56 21.11 93.28 20.93Q92.99 20.75 92.85 20.38Q92.72 20.00 92.72 19.46L92.72 19.46L92.72 6.57L93.76 6.57L93.76 19.57Q93.76 19.89 93.89 20.04Q94.01 20.20 94.19 20.20L94.19 20.20Q94.25 20.20 94.32 20.19Q94.39 20.18 94.54 20.16L94.54 20.16L94.70 21.01Q94.55 21.04 94.40 21.08Q94.25 21.11 94.00 21.11ZM101.20 21.11L101.20 21.11Q99.95 21.11 98.94 20.51Q97.92 19.91 97.32 18.79Q96.71 17.68 96.71 16.09L96.71 16.09Q96.71 14.92 97.06 13.99Q97.40 13.05 98.00 12.39Q98.60 11.74 99.36 11.39Q100.12 11.03 100.93 11.03L100.93 11.03Q102.08 11.03 102.91 11.57Q103.73 12.10 104.18 13.10Q104.63 14.09 104.63 15.50L104.63 15.50Q104.63 15.70 104.63 15.89Q104.62 16.07 104.58 16.27L104.58 16.27L97.78 16.27Q97.81 17.42 98.25 18.32Q98.69 19.21 99.47 19.72Q100.24 20.23 101.29 20.23L101.29 20.23Q102.06 20.23 102.67 20.01Q103.28 19.78 103.82 19.40L103.82 19.40L104.24 20.18Q103.66 20.54 102.94 20.83Q102.22 21.11 101.20 21.11ZM97.78 15.43L97.78 15.43L103.66 15.43Q103.66 13.70 102.92 12.82Q102.19 11.93 100.93 11.93L100.93 11.93Q100.15 11.93 99.47 12.35Q98.78 12.76 98.33 13.54Q97.88 14.31 97.78 15.43ZM109.67 21.11L109.67 21.11Q108.72 21.11 108.19 20.75Q107.66 20.38 107.43 19.71Q107.21 19.04 107.21 18.16L107.21 18.16L107.21 12.17L105.73 12.17L105.73 11.38L107.24 11.27L107.37 8.51L108.25 8.51L108.25 11.27L111.01 11.27L111.01 12.17L108.25 12.17L108.25 18.23Q108.25 19.13 108.57 19.67Q108.88 20.21 109.85 20.21L109.85 20.21Q110.12 20.21 110.45 20.13Q110.77 20.05 111.02 19.93L111.02 19.93L111.28 20.75Q110.86 20.90 110.44 21.01Q110.02 21.11 109.67 21.11ZM116.75 21.11L116.75 21.11Q115.51 21.11 114.49 20.51Q113.47 19.91 112.87 18.79Q112.27 17.68 112.27 16.09L112.27 16.09Q112.27 14.92 112.61 13.99Q112.95 13.05 113.55 12.39Q114.16 11.74 114.91 11.39Q115.67 11.03 116.48 11.03L116.48 11.03Q117.63 11.03 118.46 11.57Q119.29 12.10 119.74 13.10Q120.19 14.09 120.19 15.50L120.19 15.50Q120.19 15.70 120.18 15.89Q120.17 16.07 120.13 16.27L120.13 16.27L113.33 16.27Q113.36 17.42 113.81 18.32Q114.25 19.21 115.02 19.72Q115.79 20.23 116.84 20.23L116.84 20.23Q117.61 20.23 118.22 20.01Q118.84 19.78 119.38 19.40L119.38 19.40L119.79 20.18Q119.21 20.54 118.49 20.83Q117.77 21.11 116.75 21.11ZM113.33 15.43L113.33 15.43L119.21 15.43Q119.21 13.70 118.48 12.82Q117.74 11.93 116.48 11.93L116.48 11.93Q115.70 11.93 115.02 12.35Q114.34 12.76 113.89 13.54Q113.44 14.31 113.33 15.43ZM127.76 20.88L126.72 20.88L126.72 6.57L127.76 6.57L127.76 10.66L127.75 12.76Q128.47 12.02 129.25 11.53Q130.03 11.03 131.02 11.03L131.02 11.03Q132.52 11.03 133.23 11.96Q133.94 12.89 133.94 14.74L133.94 14.74L133.94 20.88L132.89 20.88L132.89 14.89Q132.89 13.39 132.40 12.68Q131.90 11.97 130.77 11.97L130.77 11.97Q129.94 11.97 129.28 12.40Q128.61 12.83 127.76 13.70L127.76 13.70L127.76 20.88ZM139.43 21.11L139.43 21.11Q138.65 21.11 138.02 20.82Q137.39 20.52 137.02 19.94Q136.64 19.35 136.64 18.45L136.64 18.45Q136.64 16.87 138.10 16.03Q139.57 15.19 142.74 14.85L142.74 14.85Q142.78 14.13 142.60 13.47Q142.43 12.82 141.96 12.38Q141.48 11.95 140.56 11.95L140.56 11.95Q139.63 11.95 138.84 12.32Q138.06 12.69 137.54 13.05L137.54 13.05L137.09 12.28Q137.45 12.02 138.00 11.74Q138.55 11.45 139.23 11.24Q139.91 11.03 140.69 11.03L140.69 11.03Q141.84 11.03 142.52 11.53Q143.21 12.02 143.50 12.87Q143.80 13.72 143.80 14.80L143.80 14.80L143.80 20.88L142.94 20.88L142.83 19.66L142.76 19.66Q142.06 20.25 141.21 20.68Q140.36 21.11 139.43 21.11ZM139.64 20.21L139.64 20.21Q140.44 20.21 141.17 19.85Q141.91 19.48 142.74 18.74L142.74 18.74L142.74 15.62Q140.87 15.82 139.75 16.20Q138.64 16.58 138.16 17.12Q137.68 17.66 137.68 18.40L137.68 18.40Q137.68 19.40 138.26 19.81Q138.83 20.21 139.64 20.21ZM148.19 20.88L147.15 20.88L147.15 11.27L148.01 11.27L148.14 12.74L148.18 12.74Q148.90 12.02 149.68 11.53Q150.46 11.03 151.45 11.03L151.45 11.03Q152.95 11.03 153.66 11.96Q154.37 12.89 154.37 14.74L154.37 14.74L154.37 20.88L153.32 20.88L153.32 14.89Q153.32 13.39 152.83 12.68Q152.33 11.97 151.20 11.97L151.20 11.97Q150.37 11.97 149.71 12.40Q149.04 12.83 148.19 13.70L148.19 13.70L148.19 20.88ZM160.99 21.11L160.99 21.11Q159.79 21.11 158.90 20.54Q158.00 19.96 157.51 18.84Q157.01 17.71 157.01 16.09L157.01 16.09Q157.01 14.54 157.61 13.41Q158.20 12.28 159.16 11.66Q160.13 11.03 161.26 11.03L161.26 11.03Q162.13 11.03 162.77 11.34Q163.42 11.65 164.11 12.20L164.11 12.20L164.05 10.46L164.05 6.57L165.11 6.57L165.11 20.88L164.23 20.88L164.12 19.66L164.09 19.66Q163.49 20.25 162.72 20.68Q161.95 21.11 160.99 21.11ZM161.17 20.20L161.17 20.20Q161.95 20.20 162.65 19.81Q163.35 19.42 164.05 18.68L164.05 18.68L164.05 13.14Q163.33 12.49 162.68 12.22Q162.04 11.95 161.35 11.95L161.35 11.95Q160.45 11.95 159.72 12.50Q158.99 13.05 158.56 13.98Q158.13 14.90 158.13 16.09L158.13 16.09Q158.13 17.33 158.48 18.26Q158.83 19.19 159.52 19.69Q160.20 20.20 161.17 20.20ZM168.43 25.20L168.43 25.20Q168.16 25.20 167.89 25.15Q167.62 25.09 167.42 25.00L167.42 25.00L167.63 24.12Q167.78 24.17 167.99 24.22Q168.21 24.26 168.41 24.26L168.41 24.26Q169.29 24.26 169.87 23.57Q170.44 22.88 170.80 21.83L170.80 21.83L171.05 21.01L167.13 11.27L168.25 11.27L170.48 17.15Q170.71 17.78 170.98 18.50Q171.25 19.21 171.50 19.85L171.50 19.85L171.59 19.85Q171.81 19.21 172.04 18.50Q172.26 17.78 172.46 17.15L172.46 17.15L174.42 11.27L175.48 11.27L171.74 22.00Q171.47 22.82 171.03 23.55Q170.59 24.28 169.96 24.74Q169.33 25.20 168.43 25.20ZM178.56 20.88L177.52 20.88L177.52 11.27L178.38 11.27L178.51 12.74L178.54 12.74Q179.19 12.02 179.97 11.53Q180.76 11.03 181.57 11.03L181.57 11.03Q182.72 11.03 183.34 11.56Q183.96 12.08 184.21 12.98L184.21 12.98Q185.04 12.10 185.83 11.57Q186.62 11.03 187.47 11.03L187.47 11.03Q188.89 11.03 189.61 11.96Q190.33 12.89 190.33 14.74L190.33 14.74L190.33 20.88L189.29 20.88L189.29 14.89Q189.29 13.39 188.78 12.68Q188.28 11.97 187.22 11.97L187.22 11.97Q186.57 11.97 185.90 12.40Q185.24 12.83 184.45 13.70L184.45 13.70L184.45 20.88L183.40 20.88L183.40 14.89Q183.40 13.39 182.90 12.68Q182.39 11.97 181.33 11.97L181.33 11.97Q180.70 11.97 180.01 12.40Q179.32 12.83 178.56 13.70L178.56 13.70L178.56 20.88ZM195.91 21.11L195.91 21.11Q195.14 21.11 194.51 20.82Q193.88 20.52 193.50 19.94Q193.12 19.35 193.12 18.45L193.12 18.45Q193.12 16.87 194.59 16.03Q196.06 15.19 199.22 14.85L199.22 14.85Q199.26 14.13 199.09 13.47Q198.92 12.82 198.44 12.38Q197.96 11.95 197.05 11.95L197.05 11.95Q196.11 11.95 195.33 12.32Q194.54 12.69 194.02 13.05L194.02 13.05L193.57 12.28Q193.93 12.02 194.48 11.74Q195.03 11.45 195.71 11.24Q196.40 11.03 197.17 11.03L197.17 11.03Q198.32 11.03 199.01 11.53Q199.69 12.02 199.99 12.87Q200.29 13.72 200.29 14.80L200.29 14.80L200.29 20.88L199.42 20.88L199.31 19.66L199.24 19.66Q198.54 20.25 197.69 20.68Q196.85 21.11 195.91 21.11ZM196.13 20.21L196.13 20.21Q196.92 20.21 197.66 19.85Q198.40 19.48 199.22 18.74L199.22 18.74L199.22 15.62Q197.35 15.82 196.24 16.20Q195.12 16.58 194.64 17.12Q194.17 17.66 194.17 18.40L194.17 18.40Q194.17 19.40 194.74 19.81Q195.32 20.21 196.13 20.21ZM204.68 20.88L203.63 20.88L203.63 11.27L204.50 11.27L204.62 12.74L204.66 12.74Q205.38 12.02 206.16 11.53Q206.95 11.03 207.94 11.03L207.94 11.03Q209.43 11.03 210.14 11.96Q210.85 12.89 210.85 14.74L210.85 14.74L210.85 20.88L209.81 20.88L209.81 14.89Q209.81 13.39 209.31 12.68Q208.82 11.97 207.68 11.97L207.68 11.97Q206.86 11.97 206.19 12.40Q205.52 12.83 204.68 13.70L204.68 13.70L204.68 20.88ZM220.63 21.11L220.63 21.11Q219.58 21.11 218.66 20.73Q217.75 20.34 217.10 19.80L217.10 19.80L217.67 19.04Q218.29 19.55 218.99 19.89Q219.69 20.23 220.66 20.23L220.66 20.23Q221.76 20.23 222.32 19.70Q222.88 19.17 222.88 18.43L222.88 18.43Q222.88 17.86 222.53 17.47Q222.17 17.08 221.64 16.83Q221.11 16.58 220.55 16.38L220.55 16.38Q219.85 16.11 219.18 15.80Q218.50 15.48 218.06 14.96Q217.62 14.44 217.62 13.63L217.62 13.63Q217.62 12.91 217.99 12.32Q218.36 11.74 219.06 11.39Q219.76 11.03 220.77 11.03L220.77 11.03Q221.56 11.03 222.30 11.33Q223.04 11.63 223.56 12.06L223.56 12.06L223.02 12.78Q222.53 12.40 221.99 12.16Q221.45 11.92 220.75 11.92L220.75 11.92Q219.69 11.92 219.18 12.42Q218.66 12.92 218.66 13.57L218.66 13.57Q218.66 14.09 218.97 14.44Q219.28 14.78 219.78 15.00Q220.28 15.23 220.82 15.44L220.82 15.44Q221.40 15.66 221.94 15.89Q222.48 16.11 222.92 16.43Q223.36 16.74 223.63 17.21Q223.90 17.68 223.90 18.38L223.90 18.38Q223.90 19.12 223.52 19.75Q223.15 20.38 222.43 20.75Q221.71 21.11 220.63 21.11ZM229.95 21.11L229.95 21.11Q228.80 21.11 227.80 20.52Q226.80 19.93 226.21 18.80Q225.61 17.68 225.61 16.09L225.61 16.09Q225.61 14.49 226.21 13.36Q226.80 12.22 227.80 11.63Q228.80 11.03 229.95 11.03L229.95 11.03Q230.81 11.03 231.61 11.38Q232.40 11.72 233.00 12.37Q233.60 13.01 233.95 13.96Q234.29 14.90 234.29 16.09L234.29 16.09Q234.29 17.68 233.69 18.80Q233.08 19.93 232.10 20.52Q231.12 21.11 229.95 21.11ZM229.95 20.20L229.95 20.20Q230.89 20.20 231.62 19.68Q232.36 19.17 232.79 18.24Q233.21 17.32 233.21 16.09L233.21 16.09Q233.21 14.85 232.79 13.92Q232.36 13.00 231.62 12.47Q230.89 11.95 229.95 11.95L229.95 11.95Q229.01 11.95 228.28 12.47Q227.54 13.00 227.12 13.92Q226.71 14.85 226.71 16.09L226.71 16.09Q226.71 17.32 227.12 18.24Q227.54 19.17 228.28 19.68Q229.01 20.20 229.95 20.20ZM238.37 21.11L238.37 21.11Q237.94 21.11 237.65 20.93Q237.37 20.75 237.23 20.38Q237.10 20.00 237.10 19.46L237.10 19.46L237.10 6.57L238.14 6.57L238.14 19.57Q238.14 19.89 238.27 20.04Q238.39 20.20 238.57 20.20L238.57 20.20Q238.63 20.20 238.70 20.19Q238.77 20.18 238.91 20.16L238.91 20.16L239.08 21.01Q238.93 21.04 238.78 21.08Q238.63 21.11 238.37 21.11ZM244.64 21.11L244.64 21.11Q243.14 21.11 242.43 20.20Q241.72 19.28 241.72 17.41L241.72 17.41L241.72 11.27L242.78 11.27L242.78 17.28Q242.78 18.77 243.28 19.48Q243.77 20.18 244.87 20.18L244.87 20.18Q245.70 20.18 246.38 19.73Q247.05 19.28 247.86 18.31L247.86 18.31L247.86 11.27L248.92 11.27L248.92 20.88L248.02 20.88L247.93 19.30L247.90 19.30Q247.18 20.11 246.41 20.61Q245.65 21.11 244.64 21.11ZM255.19 21.11L255.19 21.11Q254.23 21.11 253.70 20.75Q253.17 20.38 252.95 19.71Q252.72 19.04 252.72 18.16L252.72 18.16L252.72 12.17L251.24 12.17L251.24 11.38L252.76 11.27L252.88 8.51L253.76 8.51L253.76 11.27L256.52 11.27L256.52 12.17L253.76 12.17L253.76 18.23Q253.76 19.13 254.08 19.67Q254.39 20.21 255.37 20.21L255.37 20.21Q255.64 20.21 255.96 20.13Q256.28 20.05 256.54 19.93L256.54 19.93L256.79 20.75Q256.37 20.90 255.95 21.01Q255.53 21.11 255.19 21.11ZM259.87 20.88L258.82 20.88L258.82 11.27L259.87 11.27L259.87 20.88ZM259.36 9.04L259.36 9.04Q258.98 9.04 258.76 8.79Q258.53 8.55 258.53 8.15L258.53 8.15Q258.53 7.78 258.76 7.54Q258.98 7.31 259.36 7.31L259.36 7.31Q259.72 7.31 259.96 7.54Q260.19 7.78 260.19 8.15L260.19 8.15Q260.19 8.55 259.96 8.79Q259.72 9.04 259.36 9.04ZM266.99 21.11L266.99 21.11Q265.84 21.11 264.84 20.52Q263.84 19.93 263.25 18.80Q262.66 17.68 262.66 16.09L262.66 16.09Q262.66 14.49 263.25 13.36Q263.84 12.22 264.84 11.63Q265.84 11.03 266.99 11.03L266.99 11.03Q267.86 11.03 268.65 11.38Q269.44 11.72 270.05 12.37Q270.65 13.01 270.99 13.96Q271.33 14.90 271.33 16.09L271.33 16.09Q271.33 17.68 270.73 18.80Q270.13 19.93 269.15 20.52Q268.16 21.11 266.99 21.11ZM266.99 20.20L266.99 20.20Q267.93 20.20 268.67 19.68Q269.41 19.17 269.83 18.24Q270.25 17.32 270.25 16.09L270.25 16.09Q270.25 14.85 269.83 13.92Q269.41 13.00 268.67 12.47Q267.93 11.95 266.99 11.95L266.99 11.95Q266.06 11.95 265.32 12.47Q264.58 13.00 264.17 13.92Q263.75 14.85 263.75 16.09L263.75 16.09Q263.75 17.32 264.17 18.24Q264.58 19.17 265.32 19.68Q266.06 20.20 266.99 20.20ZM275.18 20.88L274.14 20.88L274.14 11.27L275.00 11.27L275.13 12.74L275.17 12.74Q275.89 12.02 276.67 11.53Q277.45 11.03 278.44 11.03L278.44 11.03Q279.94 11.03 280.65 11.96Q281.36 12.89 281.36 14.74L281.36 14.74L281.36 20.88L280.31 20.88L280.31 14.89Q280.31 13.39 279.82 12.68Q279.32 11.97 278.19 11.97L278.19 11.97Q277.36 11.97 276.70 12.40Q276.03 12.83 275.18 13.70L275.18 13.70L275.18 20.88Z" transform="translate(0, 0)"></path></g></svg></g><g transform="rotate(0 0 0)"><svg viewBoxSize="575" data-root-id="0722531658314" xmlns="http://www.w3.org/2000/svg" y="261.93988555908203" viewBox="0.7199999690055847 10.050000190734863 215.9499969482422 32.42000198364258" x="152.0825958251953" height="32.42000198364258" width="215.9499969482422" fontUrl="https://fonts.gstatic.com/s/abel/v18/MwQ5bhbm2POE6VhLPJp6qGI.ttf" zoom="1" editorType="buyer" data-layer-role="brandName" style="position: absolute; top: 261.94px; right: 251.5px; width: 215.95px; height: 32.42px; left: 152.083px;"><g data-horizontal-grow="right" data-vertical-center="false" zoom="1" root="[object Object]" style="fill: rgb(0, 0, 0);"><path d="M15.01 12.22L9 12.22L9 35.26L6.73 35.26L6.73 12.22L0.72 12.22L0.72 10.05L15.01 10.05L15.01 12.22ZM28.48 30.32L28.48 30.32Q28.48 31.41 28.06 32.38Q27.65 33.35 26.93 34.07Q26.21 34.79 25.24 35.20Q24.28 35.61 23.19 35.61L23.19 35.61L21.74 35.61Q20.65 35.61 19.69 35.20Q18.72 34.79 18 34.07Q17.28 33.35 16.87 32.38Q16.45 31.41 16.45 30.32L16.45 30.32L16.45 22.20Q16.45 21.11 16.87 20.14Q17.28 19.18 18 18.46Q18.72 17.74 19.69 17.32Q20.65 16.91 21.74 16.91L21.74 16.91L23.19 16.91Q24.28 16.91 25.24 17.32Q26.21 17.74 26.93 18.46Q27.65 19.18 28.06 20.14Q28.48 21.11 28.48 22.20L28.48 22.20L28.48 30.32ZM26.31 30.45L26.31 22.08Q26.31 21.43 26.07 20.86Q25.82 20.29 25.40 19.86Q24.98 19.44 24.41 19.20Q23.84 18.95 23.19 18.95L23.19 18.95L21.74 18.95Q21.09 18.95 20.52 19.20Q19.95 19.44 19.53 19.86Q19.11 20.29 18.86 20.86Q18.62 21.43 18.62 22.08L18.62 22.08L18.62 30.45Q18.62 31.10 18.86 31.67Q19.11 32.24 19.53 32.66Q19.95 33.08 20.52 33.33Q21.09 33.57 21.74 33.57L21.74 33.57L23.19 33.57Q23.84 33.57 24.41 33.33Q24.98 33.08 25.40 32.66Q25.82 32.24 26.07 31.67Q26.31 31.10 26.31 30.45L26.31 30.45ZM41.33 35.26L39.36 35.26Q38.37 35.26 37.50 34.89Q36.63 34.52 35.99 33.87Q35.35 33.22 34.97 32.36Q34.59 31.50 34.59 30.52L34.59 30.52L34.59 19.32L31.36 19.32L31.36 17.26L34.59 17.26L34.59 12.94L36.76 12.59L36.76 17.26L41.33 17.26L41.33 19.32L36.76 19.32L36.76 30.62Q36.76 31.17 36.96 31.63Q37.16 32.10 37.51 32.45Q37.86 32.80 38.34 33.00Q38.81 33.21 39.36 33.21L39.36 33.21L41.33 33.21L41.33 35.26ZM57.32 35.26L56.60 35.26L55.41 33.47Q54.67 34.44 53.56 35.02Q52.45 35.61 51.13 35.61L51.13 35.61L50.59 35.61Q49.50 35.61 48.53 35.20Q47.57 34.79 46.85 34.07Q46.13 33.35 45.71 32.38Q45.30 31.41 45.30 30.32L45.30 30.32L45.30 30.15Q45.30 29.06 45.71 28.09Q46.13 27.12 46.85 26.40Q47.57 25.68 48.53 25.27Q49.50 24.86 50.59 24.86L50.59 24.86L55.16 24.86L55.16 22.08Q55.16 21.43 54.91 20.86Q54.67 20.29 54.25 19.86Q53.82 19.44 53.25 19.20Q52.68 18.95 52.03 18.95L52.03 18.95L50.77 18.95Q50.12 18.95 49.54 19.20Q48.97 19.44 48.55 19.86Q48.13 20.29 47.88 20.86Q47.64 21.43 47.64 22.08L47.64 22.08L47.64 22.73L45.47 22.38L45.47 22.20Q45.47 21.11 45.89 20.14Q46.30 19.18 47.02 18.46Q47.74 17.74 48.71 17.32Q49.68 16.91 50.77 16.91L50.77 16.91L52.03 16.91Q53.12 16.91 54.09 17.32Q55.05 17.74 55.78 18.46Q56.50 19.18 56.91 20.14Q57.32 21.11 57.32 22.20L57.32 22.20L57.32 35.26ZM55.16 30.45L55.16 26.54L50.59 26.54Q49.94 26.54 49.37 26.79Q48.80 27.04 48.38 27.47Q47.95 27.90 47.71 28.47Q47.46 29.04 47.46 29.69L47.46 29.69L47.46 30.45Q47.46 31.10 47.71 31.67Q47.95 32.24 48.38 32.66Q48.80 33.08 49.37 33.33Q49.94 33.57 50.59 33.57L50.59 33.57L52.03 33.57Q52.68 33.57 53.25 33.33Q53.82 33.08 54.25 32.66Q54.67 32.24 54.91 31.67Q55.16 31.10 55.16 30.45L55.16 30.45ZM64.53 35.26L62.37 35.26L62.37 10.05L64.53 10.05L64.53 35.26ZM81.95 30.69L81.95 30.69Q81.95 31.78 81.51 32.69Q81.07 33.59 80.31 34.24Q79.56 34.89 78.57 35.25Q77.57 35.61 76.48 35.61L76.48 35.61L75.04 35.61Q73.95 35.61 72.96 35.20Q71.96 34.79 71.22 34.07Q70.47 33.35 70.02 32.38Q69.57 31.41 69.57 30.32L69.57 30.32L69.57 29.60L71.74 29.25L71.74 30.45Q71.74 31.10 72.01 31.67Q72.28 32.24 72.74 32.66Q73.20 33.08 73.79 33.33Q74.39 33.57 75.04 33.57L75.04 33.57L76.48 33.57Q77.13 33.57 77.73 33.38Q78.33 33.19 78.79 32.83Q79.26 32.47 79.53 31.96Q79.80 31.45 79.80 30.80L79.80 30.80Q79.80 29.83 79.38 29.21Q78.96 28.60 78.27 28.19Q77.57 27.77 76.68 27.50Q75.80 27.23 74.87 26.96Q73.93 26.68 73.05 26.33Q72.16 25.98 71.46 25.41Q70.77 24.84 70.35 23.98Q69.93 23.12 69.93 21.83L69.93 21.83Q69.93 20.74 70.35 19.84Q70.77 18.93 71.49 18.28Q72.21 17.63 73.17 17.27Q74.13 16.91 75.22 16.91L75.22 16.91L76.48 16.91Q77.57 16.91 78.54 17.32Q79.51 17.74 80.23 18.46Q80.95 19.18 81.36 20.14Q81.77 21.11 81.77 22.20L81.77 22.20L81.77 22.27L79.61 22.62L79.61 22.08Q79.61 21.43 79.37 20.86Q79.12 20.29 78.70 19.86Q78.28 19.44 77.70 19.20Q77.13 18.95 76.48 18.95L76.48 18.95L75.22 18.95Q74.57 18.95 74.00 19.14Q73.42 19.34 73.00 19.70Q72.58 20.06 72.33 20.57Q72.09 21.08 72.09 21.73L72.09 21.73Q72.09 22.66 72.51 23.25Q72.93 23.84 73.63 24.24Q74.32 24.64 75.21 24.92Q76.10 25.19 77.02 25.48Q77.94 25.77 78.83 26.14Q79.72 26.51 80.41 27.09Q81.11 27.67 81.53 28.54Q81.95 29.41 81.95 30.69ZM98.12 30.32L98.12 30.32Q98.12 31.41 97.71 32.38Q97.29 33.35 96.57 34.07Q95.85 34.79 94.89 35.20Q93.92 35.61 92.83 35.61L92.83 35.61L92.29 35.61Q91.07 35.61 90.04 35.12Q89.00 34.63 88.26 33.75L88.26 33.75L88.26 42.47L86.10 42.47L86.10 17.26L86.82 17.26L88.00 19.09Q88.73 18.09 89.85 17.50Q90.97 16.91 92.29 16.91L92.29 16.91L92.83 16.91Q93.92 16.91 94.89 17.32Q95.85 17.74 96.57 18.46Q97.29 19.18 97.71 20.14Q98.12 21.11 98.12 22.20L98.12 22.20L98.12 30.32ZM95.96 30.45L95.96 22.08Q95.96 21.43 95.71 20.86Q95.47 20.29 95.04 19.86Q94.62 19.44 94.05 19.20Q93.48 18.95 92.83 18.95L92.83 18.95L91.39 18.95Q90.74 18.95 90.17 19.20Q89.60 19.44 89.17 19.86Q88.75 20.29 88.51 20.86Q88.26 21.43 88.26 22.08L88.26 22.08L88.26 30.45Q88.26 31.10 88.51 31.67Q88.75 32.24 89.17 32.66Q89.60 33.08 90.17 33.33Q90.74 33.57 91.39 33.57L91.39 33.57L92.83 33.57Q93.48 33.57 94.05 33.33Q94.62 33.08 95.04 32.66Q95.47 32.24 95.71 31.67Q95.96 31.10 95.96 30.45L95.96 30.45ZM114.47 30.32L114.47 30.32Q114.47 31.41 114.06 32.38Q113.64 33.35 112.92 34.07Q112.20 34.79 111.23 35.20Q110.27 35.61 109.18 35.61L109.18 35.61L107.74 35.61Q106.65 35.61 105.68 35.20Q104.71 34.79 103.99 34.07Q103.27 33.35 102.86 32.38Q102.45 31.41 102.45 30.32L102.45 30.32L102.45 22.20Q102.45 21.11 102.86 20.14Q103.27 19.18 103.99 18.46Q104.71 17.74 105.68 17.32Q106.65 16.91 107.74 16.91L107.74 16.91L109.18 16.91Q110.27 16.91 111.23 17.32Q112.20 17.74 112.92 18.46Q113.64 19.18 114.06 20.14Q114.47 21.11 114.47 22.20L114.47 22.20L114.47 26.44L104.61 26.44L104.61 30.45Q104.61 31.10 104.85 31.67Q105.10 32.24 105.52 32.66Q105.94 33.08 106.51 33.33Q107.09 33.57 107.74 33.57L107.74 33.57L109.18 33.57Q109.83 33.57 110.40 33.33Q110.97 33.08 111.39 32.66Q111.81 32.24 112.06 31.67Q112.31 31.10 112.31 30.45L112.31 30.45L112.31 29.25L114.47 29.60L114.47 30.32ZM112.31 24.75L112.31 22.08Q112.31 21.43 112.06 20.86Q111.81 20.29 111.39 19.86Q110.97 19.44 110.40 19.20Q109.83 18.95 109.18 18.95L109.18 18.95L107.74 18.95Q107.09 18.95 106.51 19.20Q105.94 19.44 105.52 19.86Q105.10 20.29 104.85 20.86Q104.61 21.43 104.61 22.08L104.61 22.08L104.61 24.75L112.31 24.75ZM130.82 30.32L130.82 30.32Q130.82 31.41 130.40 32.38Q129.99 33.35 129.27 34.07Q128.55 34.79 127.58 35.20Q126.62 35.61 125.53 35.61L125.53 35.61L124.08 35.61Q122.99 35.61 122.03 35.20Q121.06 34.79 120.34 34.07Q119.62 33.35 119.21 32.38Q118.79 31.41 118.79 30.32L118.79 30.32L118.79 22.20Q118.79 21.11 119.21 20.14Q119.62 19.18 120.34 18.46Q121.06 17.74 122.03 17.32Q122.99 16.91 124.08 16.91L124.08 16.91L125.53 16.91Q126.62 16.91 127.58 17.32Q128.55 17.74 129.27 18.46Q129.99 19.18 130.40 20.14Q130.82 21.11 130.82 22.20L130.82 22.20L130.82 22.92L128.65 23.27L128.65 22.08Q128.65 21.43 128.41 20.86Q128.16 20.29 127.74 19.86Q127.32 19.44 126.75 19.20Q126.18 18.95 125.53 18.95L125.53 18.95L124.08 18.95Q123.43 18.95 122.86 19.20Q122.29 19.44 121.87 19.86Q121.45 20.29 121.20 20.86Q120.96 21.43 120.96 22.08L120.96 22.08L120.96 30.45Q120.96 31.10 121.20 31.67Q121.45 32.24 121.87 32.66Q122.29 33.08 122.86 33.33Q123.43 33.57 124.08 33.57L124.08 33.57L125.53 33.57Q126.18 33.57 126.75 33.33Q127.32 33.08 127.74 32.66Q128.16 32.24 128.41 31.67Q128.65 31.10 128.65 30.45L128.65 30.45L128.65 29.25L130.82 29.60L130.82 30.32ZM138.20 12.94L135.69 12.94L135.69 10.05L138.20 10.05L138.20 12.94ZM138.02 35.26L135.86 35.26L135.86 17.26L138.02 17.26L138.02 35.26ZM155.09 35.26L154.37 35.26L153.18 33.47Q152.44 34.44 151.33 35.02Q150.22 35.61 148.90 35.61L148.90 35.61L148.36 35.61Q147.27 35.61 146.30 35.20Q145.34 34.79 144.62 34.07Q143.89 33.35 143.48 32.38Q143.07 31.41 143.07 30.32L143.07 30.32L143.07 30.15Q143.07 29.06 143.48 28.09Q143.89 27.12 144.62 26.40Q145.34 25.68 146.30 25.27Q147.27 24.86 148.36 24.86L148.36 24.86L152.93 24.86L152.93 22.08Q152.93 21.43 152.68 20.86Q152.44 20.29 152.02 19.86Q151.59 19.44 151.02 19.20Q150.45 18.95 149.80 18.95L149.80 18.95L148.54 18.95Q147.88 18.95 147.31 19.20Q146.74 19.44 146.32 19.86Q145.90 20.29 145.65 20.86Q145.41 21.43 145.41 22.08L145.41 22.08L145.41 22.73L143.24 22.38L143.24 22.20Q143.24 21.11 143.66 20.14Q144.07 19.18 144.79 18.46Q145.51 17.74 146.48 17.32Q147.45 16.91 148.54 16.91L148.54 16.91L149.80 16.91Q150.89 16.91 151.86 17.32Q152.82 17.74 153.54 18.46Q154.27 19.18 154.68 20.14Q155.09 21.11 155.09 22.20L155.09 22.20L155.09 35.26ZM152.93 30.45L152.93 26.54L148.36 26.54Q147.71 26.54 147.14 26.79Q146.57 27.04 146.14 27.47Q145.72 27.90 145.48 28.47Q145.23 29.04 145.23 29.69L145.23 29.69L145.23 30.45Q145.23 31.10 145.48 31.67Q145.72 32.24 146.14 32.66Q146.57 33.08 147.14 33.33Q147.71 33.57 148.36 33.57L148.36 33.57L149.80 33.57Q150.45 33.57 151.02 33.33Q151.59 33.08 152.02 32.66Q152.44 32.24 152.68 31.67Q152.93 31.10 152.93 30.45L152.93 30.45ZM162.30 35.26L160.14 35.26L160.14 10.05L162.30 10.05L162.30 35.26ZM170.40 12.94L167.89 12.94L167.89 10.05L170.40 10.05L170.40 12.94ZM170.23 35.26L168.06 35.26L168.06 17.26L170.23 17.26L170.23 35.26ZM187.65 30.69L187.65 30.69Q187.65 31.78 187.21 32.69Q186.77 33.59 186.01 34.24Q185.26 34.89 184.26 35.25Q183.27 35.61 182.18 35.61L182.18 35.61L180.74 35.61Q179.65 35.61 178.66 35.20Q177.66 34.79 176.92 34.07Q176.17 33.35 175.72 32.38Q175.27 31.41 175.27 30.32L175.27 30.32L175.27 29.60L177.43 29.25L177.43 30.45Q177.43 31.10 177.71 31.67Q177.98 32.24 178.44 32.66Q178.89 33.08 179.49 33.33Q180.09 33.57 180.74 33.57L180.74 33.57L182.18 33.57Q182.83 33.57 183.43 33.38Q184.03 33.19 184.49 32.83Q184.96 32.47 185.23 31.96Q185.50 31.45 185.50 30.80L185.50 30.80Q185.50 29.83 185.08 29.21Q184.66 28.60 183.96 28.19Q183.27 27.77 182.38 27.50Q181.49 27.23 180.56 26.96Q179.63 26.68 178.74 26.33Q177.86 25.98 177.16 25.41Q176.47 24.84 176.04 23.98Q175.62 23.12 175.62 21.83L175.62 21.83Q175.62 20.74 176.04 19.84Q176.47 18.93 177.19 18.28Q177.91 17.63 178.87 17.27Q179.82 16.91 180.91 16.91L180.91 16.91L182.18 16.91Q183.27 16.91 184.24 17.32Q185.20 17.74 185.92 18.46Q186.64 19.18 187.06 20.14Q187.47 21.11 187.47 22.20L187.47 22.20L187.47 22.27L185.31 22.62L185.31 22.08Q185.31 21.43 185.06 20.86Q184.82 20.29 184.39 19.86Q183.97 19.44 183.40 19.20Q182.83 18.95 182.18 18.95L182.18 18.95L180.91 18.95Q180.26 18.95 179.69 19.14Q179.12 19.34 178.70 19.70Q178.28 20.06 178.03 20.57Q177.79 21.08 177.79 21.73L177.79 21.73Q177.79 22.66 178.21 23.25Q178.63 23.84 179.32 24.24Q180.02 24.64 180.91 24.92Q181.79 25.19 182.72 25.48Q183.64 25.77 184.53 26.14Q185.41 26.51 186.11 27.09Q186.80 27.67 187.22 28.54Q187.65 29.41 187.65 30.69ZM200.32 35.26L198.35 35.26Q197.37 35.26 196.50 34.89Q195.63 34.52 194.99 33.87Q194.34 33.22 193.97 32.36Q193.59 31.50 193.59 30.52L193.59 30.52L193.59 19.32L190.35 19.32L190.35 17.26L193.59 17.26L193.59 12.94L195.75 12.59L195.75 17.26L200.32 17.26L200.32 19.32L195.75 19.32L195.75 30.62Q195.75 31.17 195.95 31.63Q196.15 32.10 196.51 32.45Q196.86 32.80 197.33 33.00Q197.81 33.21 198.35 33.21L198.35 33.21L200.32 33.21L200.32 35.26ZM216.67 30.69L216.67 30.69Q216.67 31.78 216.23 32.69Q215.79 33.59 215.03 34.24Q214.28 34.89 213.28 35.25Q212.29 35.61 211.20 35.61L211.20 35.61L209.76 35.61Q208.67 35.61 207.68 35.20Q206.68 34.79 205.94 34.07Q205.19 33.35 204.74 32.38Q204.29 31.41 204.29 30.32L204.29 30.32L204.29 29.60L206.46 29.25L206.46 30.45Q206.46 31.10 206.73 31.67Q207 32.24 207.46 32.66Q207.91 33.08 208.51 33.33Q209.11 33.57 209.76 33.57L209.76 33.57L211.20 33.57Q211.85 33.57 212.45 33.38Q213.05 33.19 213.51 32.83Q213.98 32.47 214.25 31.96Q214.52 31.45 214.52 30.80L214.52 30.80Q214.52 29.83 214.10 29.21Q213.68 28.60 212.99 28.19Q212.29 27.77 211.40 27.50Q210.52 27.23 209.58 26.96Q208.65 26.68 207.76 26.33Q206.88 25.98 206.18 25.41Q205.49 24.84 205.07 23.98Q204.64 23.12 204.64 21.83L204.64 21.83Q204.64 20.74 205.07 19.84Q205.49 18.93 206.21 18.28Q206.93 17.63 207.89 17.27Q208.85 16.91 209.94 16.91L209.94 16.91L211.20 16.91Q212.29 16.91 213.26 17.32Q214.22 17.74 214.95 18.46Q215.67 19.18 216.08 20.14Q216.49 21.11 216.49 22.20L216.49 22.20L216.49 22.27L214.33 22.62L214.33 22.08Q214.33 21.43 214.08 20.86Q213.84 20.29 213.42 19.86Q212.99 19.44 212.42 19.20Q211.85 18.95 211.20 18.95L211.20 18.95L209.94 18.95Q209.29 18.95 208.71 19.14Q208.14 19.34 207.72 19.70Q207.30 20.06 207.05 20.57Q206.81 21.08 206.81 21.73L206.81 21.73Q206.81 22.66 207.23 23.25Q207.65 23.84 208.34 24.24Q209.04 24.64 209.93 24.92Q210.81 25.19 211.74 25.48Q212.66 25.77 213.55 26.14Q214.44 26.51 215.13 27.09Q215.82 27.67 216.25 28.54Q216.67 29.41 216.67 30.69Z" transform="translate(0, 0)"></path></g></svg></g></svg>