<?xml version="1.0" encoding="UTF-8" standalone="no"?>
<svg
   viewBox="0 0 330625 330625"
   class="roots-wrapper"
   version="1.1"
   id="svg10"
   sodipodi:docname="logotot.svg"
   inkscape:export-filename="logotot-mod.png"
   inkscape:export-xdpi="192"
   inkscape:export-ydpi="192"
   width="330625"
   height="330625"
   xmlns:inkscape="http://www.inkscape.org/namespaces/inkscape"
   xmlns:sodipodi="http://sodipodi.sourceforge.net/DTD/sodipodi-0.dtd"
   xmlns="http://www.w3.org/2000/svg"
   xmlns:svg="http://www.w3.org/2000/svg">
  <defs
     id="defs10" />
  <sodipodi:namedview
     id="namedview10"
     pagecolor="#ffffff"
     bordercolor="#000000"
     borderopacity="0.25"
     inkscape:showpageshadow="2"
     inkscape:pageopacity="0.0"
     inkscape:pagecheckerboard="0"
     inkscape:deskcolor="#d1d1d1" />
  <g
     id="g6">
    <svg
       viewBoxSize="575"
       data-root-id="2208628503985"
       version="1.1"
       id="Layer_1"
       x="172.5"
       y="157.52399"
       viewBox="316.36502 159.673 327.26999 241.99698"
       enable-background="new 0 0 960 560"
       xml:space="preserve"
       height="170.0625"
       width="230"
       preserveAspectRatio="xMinYMin"
       zoom="1"
       editorType="buyer"
       data-layer-role="icon"><path
         fill="#0050A8"
         d="m 419.31,241.491 h 55.973 l -11.472,48.462 c 19.539,4.5 41.419,7.386 64.659,8.247 l 13.317,-56.709 h 52.061 l 11.736,-45.434 h -174.54 z"
         name="Layer %{number}"
         zoom="1"
         data-layer-id="1306204304009"
         style="fill:#0050a8"
         id="path1" /><path
         fill="#2C2729"
         d="m 495.085,322.805 c -13.243,0 -26.146,-0.708 -38.567,-2.039 l -19.152,80.904 h 66.806 l 18.769,-79.921 c -9.078,0.692 -18.379,1.056 -27.856,1.056 z"
         name="Layer %{number}"
         zoom="1"
         data-layer-id="2919415204022"
         style="fill:#2c2729"
         id="path2" /><path
         fill="#161515"
         d="m 517.213,346.139 5.68,-24.184 c -23.301,-1.2 -45.122,-4.444 -64.456,-9.299 l -7.451,31.475 c 14.106,1.744 28.879,2.674 44.099,2.674 7.493,0 14.876,-0.23 22.128,-0.666 z"
         name="Layer %{number}"
         zoom="1"
         data-layer-id="7131937604034"
         style="fill:#161515"
         id="path3" /><path
         opacity="0.3"
         fill="#2C2729"
         enable-background="new    "
         d="m 528.471,298.2 4.662,-19.854 c -23.197,-0.584 -45.12,-3.185 -64.823,-7.397 l -4.499,19.005 c 19.54,4.499 41.419,7.385 64.66,8.246 z"
         name="Layer %{number}"
         zoom="1"
         data-layer-id="5621469504045"
         style="fill:#2c2729"
         id="path4" /><path
         fill="#2C2729"
         d="m 543.14,309.477 c -92.343,0 -167.197,-31.926 -167.197,-71.313 0,-39.384 74.854,-71.311 167.197,-71.311 9.369,0 18.563,0.334 27.503,0.966 -22.942,-5.224 -48.552,-8.146 -75.558,-8.146 -98.704,0 -178.72,38.981 -178.72,87.066 0,48.088 80.016,87.065 178.72,87.065 61.92,0 116.479,-15.342 148.55,-38.646 -27.976,8.99 -62.775,14.319 -100.495,14.319 z"
         name="Layer %{number}"
         zoom="1"
         data-layer-id="8107164804056"
         style="fill:#2c2729"
         id="path5" /><path
         fill="#444042"
         d="m 423.276,292.068 c -33.105,-14.119 -51.337,-33.263 -51.337,-53.902 0,-20.639 18.229,-39.782 51.337,-53.901 25.354,-10.815 57.265,-17.789 91.849,-20.238 0,0 -170.625,2.778 -170.625,77.076 0,79.836 192.579,97.362 272.956,64.874 -22.971,4.814 -48.188,7.314 -74.316,7.314 -45.212,-0.004 -87.782,-7.541 -119.864,-21.223 z"
         name="Layer %{number}"
         zoom="1"
         data-layer-id="6160452604068"
         style="fill:#444042"
         id="path6" /></svg>
  </g>
  <g
     id="g8">
    <svg
       viewBoxSize="575"
       data-root-id="0235114104112"
       y="404.586"
       viewBox="4.77 4.6799998 381.51001 12.889999"
       x="96.744995"
       height="12.889999"
       width="381.51001"
       fontUrl="https://fonts.gstatic.com/s/montserrat/v26/JTUHjIg1_i6t8kCHKm4532VJOt5-QNFgpCtZ6Ew-Y3tcoqK5.ttf"
       zoom="1"
       editorType="buyer"
       data-layer-role="slogan"
       version="1.1"
       id="svg7">
      <g
         data-horizontal-grow="center"
         zoom="1"
         root="[object Object]"
         style="fill:#0050a8;fill-opacity:1"
         id="g7">
        <path
           d="M 11.56,17.42 H 9.77 V 12.6 l 0.42,1.12 -5.42,-8.9 H 6.7 l 4.55,7.51 h -1.04 l 4.57,-7.51 h 1.78 l -5.4,8.9 0.4,-1.12 z m 12.51,0.15 v 0 q -1.44,0 -2.68,-0.49 -1.23,-0.48 -2.13,-1.36 -0.9,-0.87 -1.4,-2.04 -0.51,-1.17 -0.51,-2.56 v 0 q 0,-1.38 0.51,-2.55 0.5,-1.17 1.4,-2.04 0.9,-0.88 2.12,-1.36 1.23,-0.49 2.69,-0.49 v 0 q 1.44,0 2.65,0.48 1.22,0.47 2.12,1.35 0.91,0.87 1.41,2.04 0.49,1.17 0.49,2.57 v 0 q 0,1.41 -0.49,2.58 -0.5,1.17 -1.41,2.04 -0.9,0.87 -2.12,1.35 -1.21,0.48 -2.65,0.48 z m 0,-1.6 v 0 q 1.04,0 1.93,-0.36 0.89,-0.36 1.55,-1.02 0.66,-0.66 1.03,-1.54 0.36,-0.88 0.36,-1.93 v 0 Q 28.94,10.08 28.58,9.2 28.21,8.32 27.55,7.66 26.89,7 26,6.64 25.11,6.28 24.07,6.28 v 0 Q 23,6.28 22.11,6.64 21.22,7 20.56,7.66 19.89,8.32 19.52,9.2 q -0.37,0.88 -0.37,1.92 v 0 q 0,1.05 0.37,1.93 0.37,0.88 1.04,1.54 0.66,0.66 1.55,1.02 0.89,0.36 1.96,0.36 z m 14.65,1.6 v 0 q -2.49,0 -3.91,-1.42 -1.42,-1.43 -1.42,-4.16 v 0 -7.17 h 1.8 v 7.1 q 0,2.1 0.93,3.07 0.92,0.98 2.62,0.98 v 0 q 1.71,0 2.63,-0.98 0.93,-0.97 0.93,-3.07 v 0 -7.1 h 1.75 v 7.17 q 0,2.73 -1.42,4.16 -1.41,1.42 -3.91,1.42 z m 10.82,-0.15 h -1.8 V 4.82 h 4.91 q 1.66,0 2.83,0.53 1.17,0.52 1.8,1.51 0.63,0.99 0.63,2.36 v 0 q 0,1.36 -0.63,2.35 -0.63,0.98 -1.8,1.5 -1.17,0.52 -2.83,0.52 v 0 h -3.92 l 0.81,-0.83 z m 8.58,0 h -1.96 l -3.2,-4.57 h 1.92 z M 49.54,5.49 v 7.45 l -0.81,-0.88 h 3.87 q 1.72,0 2.62,-0.75 0.89,-0.74 0.89,-2.09 v 0 q 0,-1.35 -0.89,-2.09 -0.9,-0.74 -2.62,-0.74 v 0 H 48.73 Z M 71.3,17.57 v 0 q -1.44,0 -2.66,-0.48 -1.21,-0.48 -2.1,-1.35 -0.89,-0.87 -1.4,-2.04 -0.5,-1.17 -0.5,-2.58 v 0 q 0,-1.4 0.5,-2.57 0.51,-1.17 1.41,-2.04 0.9,-0.88 2.11,-1.35 1.22,-0.48 2.66,-0.48 v 0 q 1.45,0 2.69,0.5 1.23,0.49 2.09,1.46 v 0 L 74.93,7.78 Q 74.21,7.02 73.31,6.65 72.41,6.28 71.39,6.28 v 0 q -1.06,0 -1.97,0.36 -0.91,0.36 -1.58,1.01 -0.66,0.65 -1.03,1.54 -0.37,0.89 -0.37,1.93 v 0 q 0,1.05 0.37,1.94 0.37,0.89 1.03,1.54 0.67,0.65 1.58,1.01 0.91,0.36 1.97,0.36 v 0 q 1.02,0 1.92,-0.37 0.9,-0.37 1.62,-1.15 v 0 l 1.17,1.14 q -0.86,0.97 -2.09,1.47 -1.24,0.51 -2.71,0.51 z m 13.07,0 v 0 q -1.44,0 -2.68,-0.49 -1.23,-0.48 -2.13,-1.36 -0.9,-0.87 -1.4,-2.04 -0.51,-1.17 -0.51,-2.56 v 0 q 0,-1.38 0.51,-2.55 0.5,-1.17 1.4,-2.04 0.9,-0.88 2.12,-1.36 1.23,-0.49 2.69,-0.49 v 0 q 1.44,0 2.65,0.48 1.22,0.47 2.12,1.35 0.91,0.87 1.41,2.04 0.49,1.17 0.49,2.57 v 0 q 0,1.41 -0.49,2.58 -0.5,1.17 -1.41,2.04 -0.9,0.87 -2.12,1.35 -1.21,0.48 -2.65,0.48 z m 0,-1.6 v 0 q 1.04,0 1.93,-0.36 0.89,-0.36 1.55,-1.02 0.66,-0.66 1.03,-1.54 0.36,-0.88 0.36,-1.93 v 0 Q 89.24,10.08 88.88,9.2 88.51,8.32 87.85,7.66 87.19,7 86.3,6.64 85.41,6.28 84.37,6.28 v 0 q -1.07,0 -1.96,0.36 -0.89,0.36 -1.55,1.02 -0.67,0.66 -1.04,1.54 -0.37,0.88 -0.37,1.92 v 0 q 0,1.05 0.37,1.93 0.37,0.88 1.04,1.54 0.66,0.66 1.55,1.02 0.89,0.36 1.96,0.36 z m 11.16,1.45 H 93.8 V 4.82 h 1.47 l 5.66,9.53 h -0.8 l 5.58,-9.53 h 1.48 l 0.02,12.6 h -1.73 l -0.02,-9.88 h 0.42 l -4.97,8.35 h -0.83 l -5,-8.35 h 0.45 z m 17.26,0 h -1.8 V 4.82 h 4.91 q 1.66,0 2.83,0.53 1.17,0.52 1.8,1.51 0.63,0.99 0.63,2.36 v 0 q 0,1.36 -0.63,2.35 -0.63,0.98 -1.8,1.51 -1.17,0.53 -2.83,0.53 v 0 h -3.92 l 0.81,-0.85 z m 0,-11.93 v 7.45 l -0.81,-0.9 h 3.87 q 1.73,0 2.62,-0.74 0.89,-0.73 0.89,-2.08 v 0 q 0,-1.35 -0.89,-2.09 -0.89,-0.74 -2.62,-0.74 v 0 h -3.87 z m 19.82,11.93 h -8.63 V 4.82 h 1.8 v 11.04 h 6.83 z m 3.7,-5.63 v -1.53 h 6.48 v 1.53 z m 0.17,-5.4 v 9.47 h 7.34 v 1.56 h -9.14 V 4.82 h 8.89 v 1.57 z m 14.54,11.03 h -1.78 V 6.39 h -4.32 V 4.82 h 10.42 v 1.57 h -4.32 z m 7.92,-5.63 v -1.53 h 6.48 v 1.53 z m 0.16,-5.4 v 9.47 h 7.35 v 1.56 H 157.3 V 4.82 h 8.89 v 1.57 z m 24.14,11.03 V 4.82 h 1.8 v 12.6 z M 176,4.82 v 12.6 h -1.8 V 4.82 Z m 7.4,5.42 v 1.57 h -7.58 v -1.57 z m 5.37,7.18 h -1.86 l 5.71,-12.6 h 1.78 l 5.72,12.6 h -1.89 L 193.14,5.83 h 0.72 z m 8.67,-3.15 h -8.1 l 0.49,-1.44 h 7.09 z m 6.36,3.15 H 202 V 4.82 h 1.47 l 8.34,10.35 h -0.78 V 4.82 h 1.8 v 12.6 h -1.47 L 203.02,7.07 h 0.78 z m 18.12,0 h -5.31 V 4.82 h 5.31 q 2.02,0 3.56,0.8 1.54,0.79 2.39,2.21 0.86,1.42 0.86,3.29 v 0 q 0,1.88 -0.86,3.3 -0.85,1.42 -2.39,2.21 -1.54,0.79 -3.56,0.79 z M 218.41,6.39 v 9.47 h 3.4 q 1.57,0 2.71,-0.6 1.15,-0.59 1.78,-1.66 0.63,-1.07 0.63,-2.48 v 0 q 0,-1.42 -0.63,-2.48 -0.63,-1.06 -1.78,-1.66 -1.14,-0.59 -2.71,-0.59 v 0 z m 17.89,11.03 h -1.78 V 12.6 l 0.42,1.12 -5.42,-8.9 h 1.92 l 4.56,7.51 h -1.05 l 4.58,-7.51 h 1.78 l -5.4,8.9 0.39,-1.12 z m 8.55,0 h -1.72 V 4.82 h 1.47 l 5.65,9.53 h -0.79 l 5.58,-9.53 h 1.48 l 0.02,12.6 h -1.73 l -0.02,-9.88 h 0.41 l -4.96,8.35 h -0.83 L 244.4,7.54 h 0.45 z m 15.41,0 h -1.85 l 5.7,-12.6 h 1.79 l 5.72,12.6 h -1.89 L 264.64,5.83 h 0.72 z m 8.68,-3.15 h -8.1 l 0.48,-1.44 h 7.1 z m 6.35,3.15 h -1.8 V 4.82 h 1.48 l 8.33,10.35 h -0.77 V 4.82 h 1.8 v 12.6 h -1.48 L 274.52,7.07 h 0.77 z m 21.33,0.15 v 0 q -1.44,0 -2.75,-0.44 -1.32,-0.44 -2.07,-1.15 v 0 l 0.66,-1.4 q 0.72,0.63 1.84,1.04 1.12,0.42 2.32,0.42 v 0 q 1.1,0 1.78,-0.25 0.69,-0.26 1.01,-0.7 0.33,-0.44 0.33,-1 v 0 q 0,-0.64 -0.43,-1.04 -0.42,-0.4 -1.09,-0.64 -0.68,-0.24 -1.49,-0.42 -0.81,-0.18 -1.63,-0.42 -0.82,-0.25 -1.49,-0.63 -0.68,-0.37 -1.09,-1.01 -0.42,-0.64 -0.42,-1.65 v 0 q 0,-0.97 0.52,-1.79 0.51,-0.82 1.58,-1.31 1.07,-0.5 2.73,-0.5 v 0 q 1.1,0 2.18,0.29 1.08,0.29 1.87,0.83 v 0 l -0.6,1.44 q -0.81,-0.54 -1.71,-0.79 -0.9,-0.24 -1.74,-0.24 v 0 q -1.06,0 -1.75,0.27 -0.68,0.27 -1,0.72 -0.31,0.45 -0.31,1.01 v 0 q 0,0.66 0.42,1.06 0.42,0.4 1.1,0.63 0.67,0.23 1.48,0.42 0.81,0.19 1.63,0.43 0.82,0.23 1.5,0.61 0.67,0.38 1.09,1.01 0.41,0.63 0.41,1.62 v 0 q 0,0.95 -0.52,1.77 -0.52,0.82 -1.61,1.31 -1.09,0.5 -2.75,0.5 z m 13.2,0 v 0 q -1.44,0 -2.68,-0.49 -1.23,-0.48 -2.13,-1.36 -0.9,-0.87 -1.4,-2.04 -0.51,-1.17 -0.51,-2.56 v 0 q 0,-1.38 0.51,-2.55 0.5,-1.17 1.4,-2.04 0.9,-0.88 2.12,-1.36 1.23,-0.49 2.69,-0.49 v 0 q 1.44,0 2.65,0.48 1.22,0.47 2.13,1.35 0.9,0.87 1.4,2.04 0.49,1.17 0.49,2.57 v 0 q 0,1.41 -0.49,2.58 -0.5,1.17 -1.4,2.04 -0.91,0.87 -2.13,1.35 -1.21,0.48 -2.65,0.48 z m 0,-1.6 v 0 q 1.04,0 1.93,-0.36 0.89,-0.36 1.55,-1.02 0.66,-0.66 1.02,-1.54 0.37,-0.88 0.37,-1.93 v 0 q 0,-1.04 -0.37,-1.92 Q 313.96,8.32 313.3,7.66 312.64,7 311.75,6.64 310.86,6.28 309.82,6.28 v 0 q -1.07,0 -1.96,0.36 -0.89,0.36 -1.55,1.02 -0.67,0.66 -1.04,1.54 -0.37,0.88 -0.37,1.92 v 0 q 0,1.05 0.37,1.93 0.37,0.88 1.04,1.54 0.66,0.66 1.55,1.02 0.89,0.36 1.96,0.36 z m 18.05,1.45 h -8.62 V 4.82 h 1.8 v 11.04 h 6.82 z m 7.29,0.15 v 0 q -2.48,0 -3.91,-1.42 -1.42,-1.43 -1.42,-4.16 v 0 -7.17 h 1.8 v 7.1 q 0,2.1 0.93,3.07 0.93,0.98 2.62,0.98 v 0 q 1.71,0 2.63,-0.98 0.93,-0.97 0.93,-3.07 v 0 -7.1 h 1.75 v 7.17 q 0,2.73 -1.42,4.16 -1.41,1.42 -3.91,1.42 z m 13.3,-0.15 h -1.78 V 6.39 h -4.32 V 4.82 h 10.42 v 1.57 h -4.32 z m 8.08,0 h -1.8 V 4.82 h 1.8 z m 9.47,0.15 v 0 q -1.44,0 -2.67,-0.49 -1.23,-0.48 -2.13,-1.36 -0.9,-0.87 -1.41,-2.04 -0.5,-1.17 -0.5,-2.56 v 0 q 0,-1.38 0.5,-2.55 0.51,-1.17 1.41,-2.04 0.9,-0.88 2.12,-1.36 1.22,-0.49 2.68,-0.49 v 0 q 1.44,0 2.66,0.48 1.21,0.47 2.12,1.35 0.91,0.87 1.4,2.04 0.5,1.17 0.5,2.57 v 0 q 0,1.41 -0.5,2.58 -0.49,1.17 -1.4,2.04 -0.91,0.87 -2.12,1.35 -1.22,0.48 -2.66,0.48 z m 0,-1.6 v 0 q 1.05,0 1.94,-0.36 0.89,-0.36 1.54,-1.02 0.66,-0.66 1.03,-1.54 0.37,-0.88 0.37,-1.93 v 0 q 0,-1.04 -0.37,-1.92 Q 370.15,8.32 369.49,7.66 368.84,7 367.95,6.64 367.06,6.28 366.01,6.28 v 0 q -1.06,0 -1.95,0.36 -0.89,0.36 -1.56,1.02 -0.66,0.66 -1.03,1.54 -0.37,0.88 -0.37,1.92 v 0 q 0,1.05 0.37,1.93 0.37,0.88 1.03,1.54 0.67,0.66 1.56,1.02 0.89,0.36 1.95,0.36 z m 11.23,1.45 h -1.8 V 4.82 h 1.48 l 8.33,10.35 h -0.77 V 4.82 h 1.8 v 12.6 H 384.8 L 376.47,7.07 h 0.77 z"
           id="path7" />
      </g>
    </svg>
  </g>
  <g
     id="g10">
    <svg
       viewBoxSize="575"
       data-root-id="4365398904079"
       y="354.52399"
       viewBox="0.2 12.54 495.47998 35.48"
       x="39.76001"
       height="35.48"
       width="495.47998"
       fontUrl="https://fonts.gstatic.com/s/montserrat/v26/JTUHjIg1_i6t8kCHKm4532VJOt5-QNFgpCuM70w-Y3tcoqK5.ttf"
       zoom="1"
       editorType="buyer"
       data-layer-role="brandName"
       version="1.1"
       id="svg9">
      <g
         data-horizontal-grow="center"
         zoom="1"
         root="[object Object]"
         style="fill:#2c2729;fill-opacity:1"
         id="g9">
        <path
           d="M 19.11,47.43 H 11.17 V 19.6 H 0.2 V 13.13 H 30.09 V 19.6 H 19.11 Z m 31.9,0.59 v 0 q -4.07,0 -7.52,-1.32 -3.46,-1.33 -5.98,-3.73 -2.52,-2.4 -3.92,-5.63 -1.4,-3.24 -1.4,-7.06 v 0 q 0,-3.82 1.4,-7.05 1.4,-3.24 3.94,-5.64 2.55,-2.4 5.98,-3.72 3.43,-1.33 7.45,-1.33 v 0 q 4.07,0 7.47,1.33 3.41,1.32 5.93,3.72 2.53,2.4 3.95,5.61 1.42,3.21 1.42,7.08 v 0 q 0,3.82 -1.42,7.08 -1.42,3.26 -3.95,5.64 -2.52,2.37 -5.93,3.7 -3.4,1.32 -7.42,1.32 z m -0.05,-6.76 v 0 q 2.3,0 4.24,-0.79 1.93,-0.78 3.4,-2.25 1.47,-1.47 2.28,-3.48 0.81,-2.01 0.81,-4.46 v 0 q 0,-2.45 -0.81,-4.46 -0.81,-2.01 -2.25,-3.48 -1.45,-1.47 -3.41,-2.25 -1.96,-0.78 -4.26,-0.78 v 0 q -2.3,0 -4.24,0.78 -1.93,0.78 -3.4,2.25 -1.47,1.47 -2.28,3.48 -0.81,2.01 -0.81,4.46 v 0 q 0,2.4 0.81,4.44 0.81,2.03 2.25,3.5 1.45,1.47 3.41,2.25 1.96,0.79 4.26,0.79 z m 39.79,6.17 H 82.81 V 19.6 H 71.83 v -6.47 h 29.89 V 19.6 H 90.75 Z m 18.86,0 h -8.13 l 15.29,-34.3 h 7.84 l 15.33,34.3 h -8.33 L 119.07,17.15 h 3.14 z m 21.42,-7.35 h -21.91 l 2.11,-6.03 h 17.64 z m 37.63,7.35 h -25.14 v -34.3 h 7.94 v 27.83 h 17.2 z m 15.73,0.59 v 0 q -4.12,0 -7.89,-1.1 -3.77,-1.1 -6.08,-2.87 v 0 l 2.7,-5.98 q 2.2,1.57 5.22,2.58 3.01,1 6.1,1 v 0 q 2.35,0 3.79,-0.47 1.45,-0.46 2.14,-1.29 0.68,-0.84 0.68,-1.91 v 0 q 0,-1.38 -1.08,-2.19 -1.07,-0.8 -2.84,-1.32 -1.76,-0.51 -3.89,-0.98 -2.14,-0.46 -4.27,-1.15 -2.13,-0.69 -3.89,-1.76 -1.77,-1.08 -2.87,-2.85 -1.1,-1.76 -1.1,-4.5 v 0 q 0,-2.94 1.59,-5.37 1.59,-2.42 4.8,-3.87 3.21,-1.45 8.06,-1.45 v 0 q 3.24,0 6.37,0.76 3.14,0.76 5.54,2.28 v 0 l -2.45,6.03 q -2.4,-1.37 -4.8,-2.03 -2.4,-0.67 -4.71,-0.67 v 0 q -2.3,0 -3.77,0.54 -1.47,0.54 -2.11,1.4 -0.63,0.86 -0.63,1.98 v 0 q 0,1.33 1.08,2.14 1.07,0.8 2.84,1.29 1.76,0.49 3.89,0.98 2.13,0.49 4.27,1.13 2.13,0.64 3.89,1.72 1.77,1.07 2.87,2.84 1.1,1.76 1.1,4.46 v 0 q 0,2.89 -1.62,5.29 -1.61,2.4 -4.82,3.87 -3.21,1.47 -8.11,1.47 z m 27.93,-0.59 h -7.94 v -34.3 h 14.85 q 4.6,0 7.93,1.5 3.34,1.49 5.15,4.28 1.81,2.8 1.81,6.67 v 0 q 0,3.82 -1.81,6.61 -1.81,2.8 -5.15,4.29 -3.33,1.5 -7.93,1.5 v 0 h -10.44 l 3.53,-3.58 z m 0,-31.6 v 19.45 l -3.53,-3.77 h 10 q 3.67,0 5.48,-1.57 1.82,-1.57 1.82,-4.36 v 0 q 0,-2.84 -1.82,-4.41 -1.81,-1.57 -5.48,-1.57 v 0 h -10 z m 35.23,17.29 v -6.17 h 16.51 v 6.17 z m 0.59,-13.62 v 21.56 h 18.67 v 6.37 h -26.56 v -34.3 h 25.92 v 6.37 z m 41.4,28.52 v 0 q -3.97,0 -7.37,-1.3 -3.41,-1.3 -5.91,-3.7 -2.5,-2.4 -3.89,-5.63 -1.4,-3.24 -1.4,-7.11 v 0 q 0,-3.87 1.4,-7.1 1.39,-3.24 3.92,-5.64 2.52,-2.4 5.9,-3.7 3.38,-1.3 7.4,-1.3 v 0 q 4.46,0 8.06,1.55 3.6,1.54 6.05,4.53 v 0 l -5.09,4.7 q -1.77,-2 -3.92,-3.01 -2.16,-1 -4.71,-1 v 0 q -2.4,0 -4.41,0.78 -2.01,0.78 -3.48,2.25 -1.47,1.47 -2.28,3.48 -0.8,2.01 -0.8,4.46 v 0 q 0,2.45 0.8,4.46 0.81,2.01 2.28,3.48 1.47,1.47 3.48,2.25 2.01,0.79 4.41,0.79 v 0 q 2.55,0 4.71,-1.01 2.15,-1 3.92,-3.06 v 0 l 5.09,4.71 q -2.45,2.98 -6.05,4.55 -3.6,1.57 -8.11,1.57 z m 27.44,-0.59 h -7.94 v -34.3 h 7.94 z m 11.76,0 h -8.13 l 15.28,-34.3 h 7.85 l 15.33,34.3 h -8.33 L 338.2,17.15 h 3.13 z m 21.41,-7.35 h -21.9 l 2.11,-6.03 H 348 Z m 37.64,7.35 h -25.14 v -34.3 h 7.94 v 27.83 h 17.2 z m 12.39,0 h -7.93 v -34.3 h 7.93 z m 19.41,0.59 v 0 q -4.12,0 -7.89,-1.1 -3.77,-1.1 -6.08,-2.87 v 0 l 2.7,-5.98 q 2.2,1.57 5.22,2.58 3.01,1 6.1,1 v 0 q 2.35,0 3.79,-0.47 1.45,-0.46 2.13,-1.29 0.69,-0.84 0.69,-1.91 v 0 q 0,-1.38 -1.08,-2.19 -1.07,-0.8 -2.84,-1.32 -1.76,-0.51 -3.89,-0.98 -2.14,-0.46 -4.27,-1.15 -2.13,-0.69 -3.89,-1.76 -1.77,-1.08 -2.87,-2.85 -1.1,-1.76 -1.1,-4.5 v 0 q 0,-2.94 1.59,-5.37 1.59,-2.42 4.8,-3.87 3.21,-1.45 8.06,-1.45 v 0 q 3.24,0 6.37,0.76 3.14,0.76 5.54,2.28 v 0 l -2.45,6.03 q -2.4,-1.37 -4.8,-2.03 -2.4,-0.67 -4.71,-0.67 v 0 q -2.3,0 -3.77,0.54 -1.47,0.54 -2.11,1.4 -0.63,0.86 -0.63,1.98 v 0 q 0,1.33 1.07,2.14 1.08,0.8 2.85,1.29 1.76,0.49 3.89,0.98 2.13,0.49 4.27,1.13 2.13,0.64 3.89,1.72 1.77,1.07 2.87,2.84 1.1,1.76 1.1,4.46 v 0 q 0,2.89 -1.62,5.29 -1.61,2.4 -4.82,3.87 -3.21,1.47 -8.11,1.47 z m 35.03,-0.59 h -7.94 V 19.6 h -10.97 v -6.47 h 29.89 v 6.47 h -10.98 z m 26.51,0.59 v 0 q -4.12,0 -7.89,-1.1 -3.77,-1.1 -6.07,-2.87 v 0 l 2.69,-5.98 q 2.21,1.57 5.22,2.58 3.01,1 6.1,1 v 0 q 2.35,0 3.8,-0.47 1.44,-0.46 2.13,-1.29 0.68,-0.84 0.68,-1.91 v 0 q 0,-1.38 -1.07,-2.19 -1.08,-0.8 -2.84,-1.32 -1.77,-0.51 -3.9,-0.98 -2.13,-0.46 -4.26,-1.15 -2.14,-0.69 -3.9,-1.76 -1.76,-1.08 -2.87,-2.85 -1.1,-1.76 -1.1,-4.5 v 0 q 0,-2.94 1.59,-5.37 1.6,-2.42 4.81,-3.87 3.21,-1.45 8.06,-1.45 v 0 q 3.23,0 6.37,0.76 3.13,0.76 5.53,2.28 v 0 l -2.45,6.03 q -2.4,-1.37 -4.8,-2.03 -2.4,-0.67 -4.7,-0.67 v 0 q -2.31,0 -3.78,0.54 -1.47,0.54 -2.1,1.4 -0.64,0.86 -0.64,1.98 v 0 q 0,1.33 1.08,2.14 1.08,0.8 2.84,1.29 1.76,0.49 3.9,0.98 2.13,0.49 4.26,1.13 2.13,0.64 3.89,1.72 1.77,1.07 2.87,2.84 1.1,1.76 1.1,4.46 v 0 q 0,2.89 -1.61,5.29 -1.62,2.4 -4.83,3.87 -3.21,1.47 -8.11,1.47 z"
           id="path8" />
      </g>
    </svg>
  </g>
</svg>
