<svg viewBox="0 0 575 575" class="roots-wrapper"><g transform="rotate(0 0 0)"><svg viewBoxSize="575" data-root-id="4657453986309" xmlns="http://www.w3.org/2000/svg" xmlns:xlink="http://www.w3.org/1999/xlink" version="1.1" id="Layer_1" x="143.75000762939453" y="135.83599853515625" viewBox="316.3650207519531 159.67300415039062 327.2699890136719 241.99697875976562" enable-background="new 0 0 960 560" xml:space="preserve" height="212.578125" width="287.5" preserveAspectRatio="xMinYMin" zoom="1" editorType="buyer" data-layer-role="icon" style="position: absolute; height: 212.578px; width: 287.5px; top: 135.836px; left: 143.75px;"><path fill="#0050A8" d="M419.31,241.491h55.973l-11.472,48.462c19.539,4.5,41.419,7.386,64.659,8.247l13.317-56.709h52.061    l11.736-45.434h-174.54L419.31,241.491z" name="Layer %{number}" zoom="1" data-layer-id="3807665686353" style="fill: rgb(0, 80, 168);"></path><path fill="#2C2729" d="M495.085,322.805c-13.243,0-26.146-0.708-38.567-2.039l-19.152,80.904h66.806l18.769-79.921    C513.863,322.441,504.562,322.805,495.085,322.805z" name="Layer %{number}" zoom="1" data-layer-id="8349647486369" style="fill: rgb(44, 39, 41);"></path><path fill="#161515" d="M517.213,346.139l5.68-24.184c-23.301-1.2-45.122-4.444-64.456-9.299l-7.451,31.475  c14.106,1.744,28.879,2.674,44.099,2.674C502.578,346.805,509.961,346.575,517.213,346.139z" name="Layer %{number}" zoom="1" data-layer-id="5197699486388" style="fill: rgb(22, 21, 21);"></path><path opacity="0.3" fill="#2C2729" enable-background="new    " d="M528.471,298.2l4.662-19.854  c-23.197-0.584-45.12-3.185-64.823-7.397l-4.499,19.005C483.351,294.453,505.23,297.339,528.471,298.2z" name="Layer %{number}" zoom="1" data-layer-id="0776097386406" style="fill: rgb(44, 39, 41);"></path><path fill="#2C2729" d="M543.14,309.477c-92.343,0-167.197-31.926-167.197-71.313c0-39.384,74.854-71.311,167.197-71.311   c9.369,0,18.563,0.334,27.503,0.966c-22.942-5.224-48.552-8.146-75.558-8.146c-98.704,0-178.72,38.981-178.72,87.066   c0,48.088,80.016,87.065,178.72,87.065c61.92,0,116.479-15.342,148.55-38.646C615.659,304.148,580.86,309.477,543.14,309.477z" name="Layer %{number}" zoom="1" data-layer-id="0300049486429" style="fill: rgb(44, 39, 41);"></path><path fill="#444042" d="M423.276,292.068c-33.105-14.119-51.337-33.263-51.337-53.902s18.229-39.782,51.337-53.901    c25.354-10.815,57.265-17.789,91.849-20.238c0,0-170.625,2.778-170.625,77.076c0,79.836,192.579,97.362,272.956,64.874    c-22.971,4.814-48.188,7.314-74.316,7.314C497.928,313.287,455.358,305.75,423.276,292.068z" name="Layer %{number}" zoom="1" data-layer-id="4559926786450" style="fill: rgb(68, 64, 66);"></path></svg></g><g transform="rotate(0 0 0)"><svg viewBoxSize="575" data-root-id="9061485486526" xmlns="http://www.w3.org/2000/svg" y="425.4139985351562" viewBox="6.5 4.119999885559082 396.8599853515625 13.750000953674316" x="89.07001647949218" height="13.750000953674316" width="396.8599853515625" fontUrl="https://fonts.gstatic.com/s/merriweathersans/v26/2-cM9IRs1JiJN1FRAMjTN5zd9vgsFHXwWDvLBsPDdpWMaq3NzesCzRRXnaur.ttf" zoom="1" editorType="buyer" data-layer-role="slogan" style="position: absolute; top: 425.414px; width: 396.86px; height: 13.75px; left: 89.07px;"><g data-horizontal-grow="center" zoom="1" root="[object Object]" style="fill: rgb(0, 80, 168); fill-opacity: 1;"><path d="M10.90 17.71L9.02 17.71L9.69 12.53L6.50 4.27L8.58 4.27L10.60 10.11L10.88 10.85L11.23 10.11L14.67 4.27L16.80 4.27L11.57 12.53L10.90 17.71ZM23.28 17.86L23.28 17.86Q21.82 17.86 20.84 17.09Q19.85 16.33 19.36 15.05Q18.87 13.77 18.87 12.22L18.87 12.22Q18.87 10.60 19.31 9.14Q19.75 7.69 20.57 6.55Q21.39 5.42 22.55 4.77Q23.71 4.12 25.16 4.12L25.16 4.12Q26.27 4.12 27.09 4.57Q27.92 5.01 28.46 5.80Q29.01 6.58 29.28 7.60Q29.55 8.61 29.55 9.76L29.55 9.76Q29.55 11.39 29.12 12.85Q28.69 14.31 27.88 15.44Q27.06 16.57 25.90 17.21Q24.74 17.86 23.28 17.86ZM23.55 16.36L23.55 16.36Q24.52 16.36 25.26 15.79Q26.01 15.22 26.51 14.27Q27.02 13.33 27.27 12.19Q27.53 11.04 27.51 9.90L27.51 9.90Q27.50 8.49 27.22 7.54Q26.95 6.60 26.37 6.12Q25.79 5.65 24.87 5.65L24.87 5.65Q23.91 5.65 23.17 6.22Q22.43 6.80 21.92 7.74Q21.41 8.69 21.15 9.82Q20.90 10.95 20.91 12.08L20.91 12.08Q20.95 14.30 21.59 15.33Q22.23 16.36 23.55 16.36ZM37.89 17.86L37.89 17.86Q35.88 17.86 34.84 16.80Q33.80 15.75 33.80 13.87L33.80 13.87Q33.80 13.66 33.84 13.36Q33.87 13.05 33.93 12.48L33.93 12.48L34.97 4.27L36.95 4.27L35.93 12.17Q35.87 12.65 35.85 13.05Q35.82 13.46 35.82 13.78L35.82 13.78Q35.82 15.04 36.42 15.66Q37.03 16.27 38.18 16.27L38.18 16.27Q39.15 16.27 39.80 15.81Q40.46 15.35 40.85 14.41Q41.25 13.48 41.44 12.07L41.44 12.07L42.44 4.27L44.36 4.27L43.34 12.25Q43.20 13.26 42.97 14.08Q42.73 14.90 42.39 15.51L42.39 15.51Q41.71 16.74 40.59 17.30Q39.47 17.86 37.89 17.86ZM50.05 17.71L48.09 17.71L49.82 4.27L50.86 4.27Q51.10 4.27 51.64 4.23Q52.17 4.19 52.72 4.16Q53.27 4.12 53.55 4.12L53.55 4.12Q55.63 4.12 56.70 4.96Q57.78 5.80 57.78 7.40L57.78 7.40Q57.78 8.99 56.99 10.17Q56.20 11.34 54.70 11.81L54.70 11.81Q54.93 12.02 55.16 12.40Q55.39 12.79 55.59 13.24Q55.80 13.70 55.94 14.11L55.94 14.11Q56.22 14.83 56.52 15.55Q56.82 16.27 57.09 16.85Q57.36 17.42 57.56 17.71L57.56 17.71L55.33 17.71Q55.23 17.55 55.12 17.29Q55.00 17.03 54.86 16.69Q54.73 16.34 54.58 15.93Q54.42 15.51 54.26 15.03L54.26 15.03Q54.11 14.52 53.92 14.01Q53.74 13.50 53.52 13.08Q53.30 12.65 53.05 12.39Q52.79 12.12 52.50 12.10L52.50 12.10L50.77 12.09L50.05 17.71ZM52.89 10.55L52.89 10.55Q53.86 10.55 54.49 10.14Q55.13 9.74 55.43 9.03Q55.74 8.32 55.71 7.40L55.71 7.40Q55.70 6.51 55.10 6.05Q54.50 5.59 53.33 5.59L53.33 5.59Q53.10 5.59 52.75 5.61Q52.41 5.63 52.09 5.67Q51.78 5.70 51.61 5.72L51.61 5.72L50.97 10.53Q51.20 10.54 51.68 10.54Q52.16 10.55 52.89 10.55ZM72.13 17.86L72.13 17.86Q70.50 17.86 69.51 17.02L69.51 17.02Q68.51 16.18 68.07 14.86Q67.64 13.55 67.64 12.02L67.64 12.02Q67.64 9.73 68.48 7.93L68.48 7.93Q69.32 6.13 70.78 5.13Q72.23 4.12 74.03 4.12L74.03 4.12Q74.48 4.12 74.93 4.19Q75.38 4.25 75.87 4.39Q76.35 4.53 76.91 4.75L76.91 4.75L76.26 6.40Q75.79 6.14 75.32 5.95Q74.85 5.77 73.93 5.77L73.93 5.77Q72.41 5.77 71.46 6.72L71.46 6.72Q70.50 7.68 70.07 9.09Q69.64 10.49 69.64 11.92L69.64 11.92Q69.64 13.14 69.94 14.13Q70.24 15.12 70.87 15.70Q71.51 16.28 72.51 16.28L72.51 16.28Q73.07 16.28 73.69 16.13Q74.31 15.98 74.83 15.77Q75.35 15.55 75.60 15.35L75.60 15.35L75.89 16.93Q75.68 17.09 75.33 17.25Q74.97 17.42 74.48 17.55Q74.00 17.69 73.40 17.77Q72.81 17.86 72.13 17.86ZM84.72 17.86L84.72 17.86Q83.25 17.86 82.27 17.09Q81.29 16.33 80.80 15.05Q80.31 13.77 80.31 12.22L80.31 12.22Q80.31 10.60 80.74 9.14Q81.18 7.69 82.00 6.55Q82.83 5.42 83.99 4.77Q85.15 4.12 86.59 4.12L86.59 4.12Q87.71 4.12 88.53 4.57Q89.35 5.01 89.90 5.80Q90.44 6.58 90.71 7.60Q90.98 8.61 90.98 9.76L90.98 9.76Q90.98 11.39 90.55 12.85Q90.13 14.31 89.31 15.44Q88.50 16.57 87.34 17.21Q86.18 17.86 84.72 17.86ZM84.99 16.36L84.99 16.36Q85.95 16.36 86.70 15.79Q87.44 15.22 87.95 14.27Q88.45 13.33 88.71 12.19Q88.97 11.04 88.95 9.90L88.95 9.90Q88.93 8.49 88.65 7.54Q88.38 6.60 87.80 6.12Q87.23 5.65 86.30 5.65L86.30 5.65Q85.35 5.65 84.60 6.22Q83.86 6.80 83.35 7.74Q82.85 8.69 82.59 9.82Q82.33 10.95 82.34 12.08L82.34 12.08Q82.39 14.30 83.03 15.33Q83.66 16.36 84.99 16.36ZM102.14 17.73L100.55 17.87L99.20 8.41L98.92 5.43L98.39 8.49L96.28 17.71L94.31 17.71L97.71 4.27L100.31 4.27L101.60 13.58L101.72 15.14L102.15 13.58L105.80 4.27L108.66 4.27L108.35 17.71L106.36 17.71L106.87 8.58L107.08 5.43L105.98 8.23L102.14 17.73ZM115.43 17.71L113.47 17.71L115.20 4.27L116.28 4.27Q116.46 4.27 116.80 4.24Q117.14 4.22 117.54 4.19Q117.95 4.17 118.31 4.14Q118.68 4.12 118.93 4.12L118.93 4.12Q120.93 4.12 121.99 5.01Q123.05 5.90 123.05 7.71L123.05 7.71Q123.06 9.33 122.37 10.58L122.37 10.58Q121.69 11.84 120.45 12.51Q119.21 13.19 117.59 13.19L117.59 13.19Q117.05 13.19 116.65 13.16Q116.26 13.14 116.03 13.10L116.03 13.10L115.43 17.71ZM117.59 11.66L117.59 11.66Q119.34 11.66 120.19 10.68Q121.03 9.70 121.08 7.79L121.08 7.79Q121.10 6.67 120.49 6.12Q119.88 5.56 118.59 5.56L118.59 5.56Q118.26 5.56 117.79 5.61Q117.32 5.66 116.97 5.74L116.97 5.74L116.23 11.54Q116.45 11.59 116.85 11.63Q117.25 11.66 117.59 11.66ZM133.38 17.71L126.53 17.71L128.26 4.27L130.23 4.27L128.70 16.09L133.61 16.05L133.38 17.71ZM145.83 17.71L137.78 17.71L139.51 4.27L146.46 4.27L146.36 5.81L141.27 5.75L140.72 10.12L144.55 10.06L144.41 11.67L140.54 11.54L139.92 16.22L145.99 16.09L145.83 17.71ZM154.71 17.71L152.74 17.71L154.28 5.72L150.62 5.81L150.86 4.27L160.05 4.27L159.85 5.81L156.25 5.72L154.71 17.71ZM170.87 17.71L162.83 17.71L164.56 4.27L171.50 4.27L171.41 5.81L166.32 5.75L165.77 10.12L169.60 10.06L169.45 11.67L165.58 11.54L164.97 16.22L171.04 16.09L170.87 17.71ZM183.14 17.71L181.19 17.71L182.92 4.27L184.89 4.27L184.10 10.27L189.60 10.27L190.37 4.27L192.35 4.27L190.61 17.71L188.64 17.71L189.41 11.72L183.92 11.72L183.14 17.71ZM196.70 17.71L194.58 17.71L201.13 4.27L203.39 4.27L205.82 17.71L203.85 17.71L203.32 14.39L198.20 14.39L196.70 17.71ZM201.59 6.89L198.86 12.93L203.09 12.93L202.13 6.89L202.03 5.88L201.59 6.89ZM211.82 17.71L209.99 17.71L211.72 4.27L213.68 4.27L217.41 13.21L218.00 15.11L218.15 12.91L219.20 4.27L221.07 4.27L219.34 17.71L217.49 17.71L213.65 8.60L213.12 6.51L212.92 9.09L211.82 17.71ZM228.74 17.86L228.74 17.86Q228.20 17.84 227.79 17.81Q227.38 17.78 226.95 17.74Q226.52 17.71 225.91 17.71L225.91 17.71L224.96 17.71L226.69 4.27L227.65 4.27Q227.80 4.27 228.07 4.25Q228.35 4.24 228.69 4.22Q229.02 4.19 229.37 4.17Q229.73 4.15 230.04 4.14Q230.35 4.12 230.54 4.12L230.54 4.12Q233.18 4.12 234.41 5.62Q235.63 7.11 235.63 9.78L235.63 9.78Q235.63 11.47 235.14 12.94Q234.66 14.42 233.75 15.53Q232.85 16.65 231.58 17.27Q230.31 17.88 228.74 17.86ZM229.08 16.38L229.08 16.38Q230.57 16.34 231.59 15.39L231.59 15.39Q232.61 14.45 233.10 12.97Q233.60 11.49 233.60 9.85L233.60 9.85Q233.60 8.24 233.24 7.29L233.24 7.29Q232.87 6.37 232.09 5.97Q231.32 5.56 230.00 5.56L230.00 5.56Q229.67 5.56 229.20 5.62Q228.73 5.67 228.47 5.73L228.47 5.73L227.13 16.13Q227.50 16.26 228.04 16.33Q228.57 16.39 229.08 16.38ZM243.87 17.71L241.99 17.71L242.67 12.53L239.47 4.27L241.55 4.27L243.58 10.11L243.86 10.85L244.21 10.11L247.64 4.27L249.78 4.27L244.55 12.53L243.87 17.71ZM259.03 17.73L257.44 17.87L256.09 8.41L255.81 5.43L255.28 8.49L253.17 17.71L251.20 17.71L254.60 4.27L257.20 4.27L258.49 13.58L258.61 15.14L259.04 13.58L262.69 4.27L265.55 4.27L265.24 17.71L263.25 17.71L263.75 8.58L263.97 5.43L262.86 8.23L259.03 17.73ZM270.82 17.71L268.70 17.71L275.26 4.27L277.52 4.27L279.95 17.71L277.97 17.71L277.44 14.39L272.32 14.39L270.82 17.71ZM275.72 6.89L272.98 12.93L277.21 12.93L276.26 6.89L276.16 5.88L275.72 6.89ZM285.95 17.71L284.11 17.71L285.84 4.27L287.80 4.27L291.54 13.21L292.12 15.11L292.28 12.91L293.32 4.27L295.19 4.27L293.46 17.71L291.62 17.71L287.78 8.60L287.24 6.51L287.05 9.09L285.95 17.71ZM307.39 17.86L307.39 17.86Q306.97 17.86 306.49 17.78Q306.00 17.71 305.53 17.60Q305.06 17.48 304.69 17.33Q304.32 17.19 304.14 17.04L304.14 17.04L304.71 15.45Q304.90 15.66 305.38 15.86Q305.87 16.06 306.43 16.18Q307.00 16.31 307.44 16.31L307.44 16.31Q308.21 16.31 308.80 16.10Q309.39 15.89 309.73 15.45Q310.07 15.02 310.07 14.36L310.07 14.36Q310.07 13.67 309.61 13.01Q309.16 12.34 308.20 11.71L308.20 11.71Q307.38 11.14 306.77 10.55Q306.17 9.96 305.84 9.27Q305.51 8.58 305.51 7.71L305.51 7.71Q305.51 6.55 306.07 5.75Q306.62 4.95 307.57 4.54Q308.52 4.12 309.70 4.12L309.70 4.12Q310.79 4.12 311.56 4.34Q312.33 4.56 312.74 4.88L312.74 4.88L312.12 6.38Q311.76 6.01 311.08 5.82Q310.40 5.63 309.79 5.63L309.79 5.63Q309.16 5.63 308.64 5.80Q308.12 5.97 307.80 6.35Q307.49 6.72 307.46 7.34L307.46 7.34Q307.45 7.83 307.73 8.37Q308.02 8.90 308.48 9.39Q308.93 9.88 309.45 10.24L309.45 10.24Q310.28 10.81 310.87 11.37Q311.46 11.93 311.78 12.56Q312.10 13.20 312.10 14.02L312.10 14.02Q312.10 15.32 311.48 16.17Q310.85 17.02 309.78 17.44Q308.72 17.86 307.39 17.86ZM320.98 17.86L320.98 17.86Q319.51 17.86 318.53 17.09Q317.55 16.33 317.06 15.05Q316.57 13.77 316.57 12.22L316.57 12.22Q316.57 10.60 317.00 9.14Q317.44 7.69 318.26 6.55Q319.09 5.42 320.25 4.77Q321.41 4.12 322.85 4.12L322.85 4.12Q323.96 4.12 324.79 4.57Q325.61 5.01 326.16 5.80Q326.70 6.58 326.97 7.60Q327.24 8.61 327.24 9.76L327.24 9.76Q327.24 11.39 326.81 12.85Q326.39 14.31 325.57 15.44Q324.76 16.57 323.60 17.21Q322.43 17.86 320.98 17.86ZM321.25 16.36L321.25 16.36Q322.21 16.36 322.96 15.79Q323.70 15.22 324.21 14.27Q324.71 13.33 324.97 12.19Q325.22 11.04 325.21 9.90L325.21 9.90Q325.19 8.49 324.91 7.54Q324.64 6.60 324.06 6.12Q323.49 5.65 322.56 5.65L322.56 5.65Q321.61 5.65 320.86 6.22Q320.12 6.80 319.61 7.74Q319.10 8.69 318.85 9.82Q318.59 10.95 318.60 12.08L318.60 12.08Q318.65 14.30 319.28 15.33Q319.92 16.36 321.25 16.36ZM338.21 17.71L331.36 17.71L333.09 4.27L335.06 4.27L333.53 16.09L338.44 16.05L338.21 17.71ZM347.01 17.86L347.01 17.86Q345.01 17.86 343.97 16.80Q342.93 15.75 342.93 13.87L342.93 13.87Q342.93 13.66 342.96 13.36Q342.99 13.05 343.05 12.48L343.05 12.48L344.10 4.27L346.07 4.27L345.05 12.17Q345.00 12.65 344.97 13.05Q344.94 13.46 344.94 13.78L344.94 13.78Q344.94 15.04 345.55 15.66Q346.15 16.27 347.30 16.27L347.30 16.27Q348.27 16.27 348.93 15.81Q349.58 15.35 349.97 14.41Q350.37 13.48 350.56 12.07L350.56 12.07L351.56 4.27L353.48 4.27L352.46 12.25Q352.32 13.26 352.09 14.08Q351.86 14.90 351.51 15.51L351.51 15.51Q350.83 16.74 349.71 17.30Q348.60 17.86 347.01 17.86ZM361.54 17.71L359.57 17.71L361.11 5.72L357.45 5.81L357.69 4.27L366.88 4.27L366.68 5.81L363.08 5.72L361.54 17.71ZM371.78 17.71L369.81 17.71L371.55 4.27L373.52 4.27L371.78 17.71ZM381.90 17.86L381.90 17.86Q380.43 17.86 379.45 17.09Q378.47 16.33 377.98 15.05Q377.49 13.77 377.49 12.22L377.49 12.22Q377.49 10.60 377.92 9.14Q378.36 7.69 379.18 6.55Q380.01 5.42 381.17 4.77Q382.33 4.12 383.77 4.12L383.77 4.12Q384.88 4.12 385.71 4.57Q386.53 5.01 387.08 5.80Q387.62 6.58 387.89 7.60Q388.16 8.61 388.16 9.76L388.16 9.76Q388.16 11.39 387.73 12.85Q387.31 14.31 386.49 15.44Q385.68 16.57 384.52 17.21Q383.36 17.86 381.90 17.86ZM382.17 16.36L382.17 16.36Q383.13 16.36 383.88 15.79Q384.62 15.22 385.13 14.27Q385.63 13.33 385.89 12.19Q386.15 11.04 386.13 9.90L386.13 9.90Q386.11 8.49 385.83 7.54Q385.56 6.60 384.98 6.12Q384.41 5.65 383.48 5.65L383.48 5.65Q382.53 5.65 381.78 6.22Q381.04 6.80 380.53 7.74Q380.03 8.69 379.77 9.82Q379.51 10.95 379.52 12.08L379.52 12.08Q379.57 14.30 380.21 15.33Q380.84 16.36 382.17 16.36ZM394.12 17.71L392.28 17.71L394.01 4.27L395.97 4.27L399.71 13.21L400.29 15.11L400.45 12.91L401.49 4.27L403.36 4.27L401.63 17.71L399.79 17.71L395.95 8.60L395.42 6.51L395.22 9.09L394.12 17.71Z" transform="translate(0, 0)"></path></g></svg></g><g transform="rotate(0 0 0)"><svg viewBoxSize="575" data-root-id="9527348386468" xmlns="http://www.w3.org/2000/svg" y="380.4139985351562" viewBox="2.9000000953674316 10.079999923706055 421.08001708984375 33.56999969482422" x="76.95998992919922" height="33.56999969482422" width="421.08001708984375" fontUrl="https://fonts.gstatic.com/s/merriweathersans/v26/2-cM9IRs1JiJN1FRAMjTN5zd9vgsFHXwWDvLBsPDdpWMaq1NyusCzRRXnaur.ttf" zoom="1" editorType="buyer" data-layer-role="brandName" style="position: absolute; top: 380.414px; width: 421.08px; height: 33.57px; left: 76.96px;"><g data-horizontal-grow="center" zoom="1" root="[object Object]" style="fill: rgb(44, 39, 41); fill-opacity: 1;"><path d="M14.48 43.30L6.73 43.30L10.65 16.10L2.90 16.32L3.87 10.43L26.80 10.43L25.92 16.32L18.35 16.10L14.48 43.30ZM40.83 43.65L40.83 43.65Q37.05 43.65 34.40 42.00Q31.75 40.35 30.35 37.47Q28.95 34.58 28.95 30.89L28.95 30.89Q28.95 26.69 30.06 22.92Q31.17 19.16 33.27 16.27Q35.38 13.38 38.39 11.73Q41.40 10.08 45.19 10.08L45.19 10.08Q48.00 10.08 50.18 11.04Q52.36 12.01 53.84 13.76Q55.33 15.51 56.09 17.86Q56.85 20.22 56.85 22.97L56.85 22.97Q56.85 27.15 55.76 30.89Q54.67 34.63 52.60 37.50Q50.53 40.37 47.56 42.01Q44.59 43.65 40.83 43.65ZM41.40 37.93L41.40 37.93Q43.30 37.93 44.73 36.54Q46.16 35.16 47.11 32.92Q48.07 30.69 48.54 28.12Q49.02 25.54 49.02 23.19L49.02 23.19Q49.02 20.33 48.37 18.72Q47.72 17.12 46.65 16.46Q45.58 15.80 44.35 15.80L44.35 15.80Q42.50 15.80 41.10 17.20Q39.69 18.61 38.72 20.87Q37.75 23.12 37.27 25.66Q36.78 28.20 36.78 30.49L36.78 30.49Q36.78 34.34 38.19 36.13Q39.60 37.93 41.40 37.93ZM74.45 43.30L66.70 43.30L70.62 16.10L62.88 16.32L63.84 10.43L86.77 10.43L85.89 16.32L78.32 16.10L74.45 43.30ZM91.78 43.30L83.42 43.30L99.31 10.43L108.99 10.43L113.87 43.30L106.22 43.30L105.56 37.14L94.34 37.14L91.78 43.30ZM102.34 17.47L96.40 31.99L104.94 31.99L103.31 17.47L103.18 14.92L102.34 17.47ZM137.37 43.30L119.15 43.30L123.86 10.43L131.47 10.43L127.60 37.36L138.29 37.09L137.37 43.30ZM151.45 43.65L151.45 43.65Q150.55 43.65 149.29 43.47Q148.04 43.30 146.76 43.00Q145.49 42.70 144.45 42.33Q143.42 41.95 142.96 41.58L142.96 41.58L145.51 35.38Q146.23 35.93 147.31 36.43Q148.39 36.94 149.58 37.26Q150.77 37.58 151.80 37.58L151.80 37.58Q153.36 37.58 154.33 37.16Q155.30 36.74 155.75 35.97Q156.20 35.20 156.20 34.14L156.20 34.14Q156.20 32.65 155.19 31.56Q154.18 30.47 152.15 28.95L152.15 28.95Q150.57 27.74 149.32 26.33Q148.08 24.93 147.37 23.32Q146.65 21.71 146.65 19.89L146.65 19.89Q146.65 16.74 148.16 14.55Q149.67 12.36 152.26 11.22Q154.86 10.08 158.14 10.08L158.14 10.08Q160.69 10.08 162.81 10.65Q164.93 11.22 165.88 11.92L165.88 11.92L163.46 17.95Q162.71 17.18 161.11 16.62Q159.50 16.06 157.92 16.06L157.92 16.06Q156.60 16.06 155.70 16.47Q154.81 16.87 154.36 17.56Q153.91 18.24 153.91 19.10L153.91 19.10Q153.91 20.09 154.47 20.96Q155.03 21.82 155.96 22.67Q156.88 23.52 158.00 24.42L158.00 24.42Q159.79 25.83 161.14 27.23Q162.49 28.62 163.24 30.14Q163.99 31.66 163.99 33.44L163.99 33.44Q163.99 36.94 162.34 39.19Q160.69 41.45 157.85 42.55Q155.01 43.65 151.45 43.65ZM177.58 43.30L169.97 43.30L174.68 10.43L178.02 10.43Q178.22 10.43 179.12 10.37Q180.03 10.32 181.20 10.25Q182.38 10.19 183.45 10.13Q184.51 10.08 185.06 10.08L185.06 10.08Q190.72 10.08 193.68 12.47Q196.64 14.87 196.64 19.54L196.64 19.54Q196.64 23.34 195.01 26.27L195.01 26.27Q193.36 29.30 190.16 31.06Q186.96 32.82 182.56 32.82L182.56 32.82Q181.87 32.82 180.77 32.80Q179.67 32.78 179.08 32.78L179.08 32.78L177.58 43.30ZM182.69 27.15L182.69 27.15Q185.92 27.15 187.43 25.23Q188.94 23.32 189.16 19.67L189.16 19.67Q189.16 17.51 187.90 16.43Q186.65 15.36 183.70 15.36L183.70 15.36Q183.28 15.36 182.73 15.41Q182.18 15.47 181.54 15.58L181.54 15.58L179.92 26.88Q180.31 26.97 181.10 27.06Q181.90 27.15 182.69 27.15ZM221.76 43.30L200.51 43.30L205.22 10.43L224.84 10.43L224.05 16.32L211.99 16.28L210.94 23.54L219.96 23.41L219.16 29.35L210.14 29.17L208.96 37.49L222.55 37.27L221.76 43.30ZM240.90 43.65L240.90 43.65Q236.68 43.65 234.08 41.71L234.08 41.71Q231.48 39.75 230.38 36.67Q229.28 33.59 229.28 29.88L229.28 29.88Q229.28 24.53 231.53 19.98L231.53 19.98Q233.75 15.42 237.72 12.75Q241.69 10.08 246.71 10.08L246.71 10.08Q247.87 10.08 248.95 10.20Q250.03 10.32 251.29 10.65Q252.56 10.98 254.28 11.57L254.28 11.57L252.08 18.79Q251.13 17.89 249.58 17.19Q248.03 16.50 245.92 16.50L245.92 16.50Q242.86 16.50 240.90 18.39L240.90 18.39Q238.90 20.31 237.96 23.32Q237.03 26.33 237.03 29.88L237.03 29.88Q237.03 32.49 237.63 34.18Q238.24 35.86 239.54 36.67Q240.83 37.49 242.92 37.49L242.92 37.49Q244.22 37.49 245.50 37.19Q246.77 36.89 247.83 36.45Q248.89 36.01 249.52 35.55L249.52 35.55L250.54 40.88Q250.03 41.29 248.92 41.78Q247.81 42.26 246.41 42.69Q245.01 43.12 243.56 43.38Q242.11 43.65 240.90 43.65ZM265.45 43.30L257.84 43.30L262.55 10.43L270.16 10.43L265.45 43.30ZM279.27 43.30L270.91 43.30L286.79 10.43L296.47 10.43L301.36 43.30L293.70 43.30L293.04 37.14L281.82 37.14L279.27 43.30ZM289.83 17.47L283.89 31.99L292.42 31.99L290.80 17.47L290.66 14.92L289.83 17.47ZM324.85 43.30L306.64 43.30L311.34 10.43L318.96 10.43L315.08 37.36L325.78 37.09L324.85 43.30ZM340.25 43.30L332.64 43.30L337.35 10.43L344.96 10.43L340.25 43.30ZM356.75 43.65L356.75 43.65Q355.85 43.65 354.60 43.47Q353.34 43.30 352.07 43.00Q350.79 42.70 349.76 42.33Q348.72 41.95 348.26 41.58L348.26 41.58L350.81 35.38Q351.54 35.93 352.62 36.43Q353.69 36.94 354.88 37.26Q356.07 37.58 357.10 37.58L357.10 37.58Q358.67 37.58 359.63 37.16Q360.60 36.74 361.05 35.97Q361.50 35.20 361.50 34.14L361.50 34.14Q361.50 32.65 360.49 31.56Q359.48 30.47 357.46 28.95L357.46 28.95Q355.87 27.74 354.63 26.33Q353.39 24.93 352.67 23.32Q351.96 21.71 351.96 19.89L351.96 19.89Q351.96 16.74 353.46 14.55Q354.97 12.36 357.57 11.22Q360.16 10.08 363.44 10.08L363.44 10.08Q365.99 10.08 368.11 10.65Q370.24 11.22 371.18 11.92L371.18 11.92L368.76 17.95Q368.02 17.18 366.41 16.62Q364.80 16.06 363.22 16.06L363.22 16.06Q361.90 16.06 361.01 16.47Q360.12 16.87 359.67 17.56Q359.22 18.24 359.22 19.10L359.22 19.10Q359.22 20.09 359.78 20.96Q360.34 21.82 361.26 22.67Q362.19 23.52 363.31 24.42L363.31 24.42Q365.09 25.83 366.44 27.23Q367.80 28.62 368.54 30.14Q369.29 31.66 369.29 33.44L369.29 33.44Q369.29 36.94 367.64 39.19Q365.99 41.45 363.15 42.55Q360.32 43.65 356.75 43.65ZM388.21 43.30L380.47 43.30L384.38 16.10L376.64 16.32L377.61 10.43L400.53 10.43L399.65 16.32L392.08 16.10L388.21 43.30ZM409.55 43.65L409.55 43.65Q408.65 43.65 407.40 43.47Q406.14 43.30 404.87 43.00Q403.59 42.70 402.56 42.33Q401.52 41.95 401.06 41.58L401.06 41.58L403.61 35.38Q404.34 35.93 405.42 36.43Q406.49 36.94 407.68 37.26Q408.87 37.58 409.90 37.58L409.90 37.58Q411.47 37.58 412.43 37.16Q413.40 36.74 413.85 35.97Q414.30 35.20 414.30 34.14L414.30 34.14Q414.30 32.65 413.29 31.56Q412.28 30.47 410.26 28.95L410.26 28.95Q408.67 27.74 407.43 26.33Q406.19 24.93 405.47 23.32Q404.76 21.71 404.76 19.89L404.76 19.89Q404.76 16.74 406.26 14.55Q407.77 12.36 410.37 11.22Q412.96 10.08 416.24 10.08L416.24 10.08Q418.79 10.08 420.91 10.65Q423.04 11.22 423.98 11.92L423.98 11.92L421.56 17.95Q420.82 17.18 419.21 16.62Q417.60 16.06 416.02 16.06L416.02 16.06Q414.70 16.06 413.81 16.47Q412.92 16.87 412.47 17.56Q412.02 18.24 412.02 19.10L412.02 19.10Q412.02 20.09 412.58 20.96Q413.14 21.82 414.06 22.67Q414.99 23.52 416.11 24.42L416.11 24.42Q417.89 25.83 419.24 27.23Q420.60 28.62 421.34 30.14Q422.09 31.66 422.09 33.44L422.09 33.44Q422.09 36.94 420.44 39.19Q418.79 41.45 415.95 42.55Q413.12 43.65 409.55 43.65Z" transform="translate(0, 0)"></path></g></svg></g></svg>