<svg viewBox="0 0 575 575" class="roots-wrapper"><g transform="rotate(0 0 0)"><svg viewBoxSize="575" data-root-id="3431357583497" xmlns="http://www.w3.org/2000/svg" xmlns:xlink="http://www.w3.org/1999/xlink" version="1.1" id="Layer_1" x="196.00098474121094" y="185.99000549316406" viewBox="276.2149658203125 469.7804260253906 1447.57421875 1058.7196044921875" xml:space="preserve" height="133.83959444329085" width="182.9972686767578" preserveAspectRatio="xMinYMin" zoom="1" editorType="buyer" data-layer-role="icon" style="position: absolute; height: 133.84px; width: 182.997px; top: 185.99px; left: 196.001px;"><rect id="XMLID_321_" x="636.9" y="544.9" transform="matrix(0.4071 0.9134 -0.9134 0.4071 1258.7003 -34.6806)" width="38.3" height="814.6" name="Layer %{number}" zoom="1" data-layer-id="0911343683561" style="fill: rgb(144, 121, 79); fill-opacity: 1;"></rect><polygon id="XMLID_319_" points="756,1502.8 717.7,1502.8 717.7,1096.8 1457.5,1096.8 1457.5,1500.7 1419.2,1500.7 1419.2,1135     756,1135   " name="Layer %{number}" zoom="1" data-layer-id="1595839583595" style="fill: rgb(144, 121, 79); fill-opacity: 1;"></polygon><polygon id="XMLID_317_" points="930.3,1509.2 892,1509.2 892,1228.6 596.5,1228.6 596.5,1504.9 558.3,1504.9 558.3,1190.3     930.3,1190.3   " name="Layer %{number}" zoom="1" data-layer-id="4071461783622" style="fill: rgb(144, 121, 79); fill-opacity: 1;"></polygon><path id="XMLID_315_" d="M1028.1,1502.8" name="Layer %{number}" zoom="1" data-layer-id="3602265583651" style="fill: rgb(144, 121, 79); fill-opacity: 1;"></path><rect id="XMLID_313_" x="1008.9" y="539.8" width="38.3" height="958.7" name="Layer %{number}" zoom="1" data-layer-id="5640593783682" style="fill: rgb(144, 121, 79); fill-opacity: 1;"></rect><rect id="XMLID_311_" x="870.9" y="679" transform="matrix(0.8818 0.4717 -0.4717 0.8818 485.3157 -539.7653)" width="896.8" height="38.3" name="Layer %{number}" zoom="1" data-layer-id="4176900483716" style="fill: rgb(144, 121, 79); fill-opacity: 1;"></rect><polygon id="XMLID_309_" points="1591.8,1528.5 418.4,1528.5 418.4,1041.7 456.6,1041.7 456.6,1490.2 1553.5,1490.2 1553.5,831.2     1591.8,831.2   " name="Layer %{number}" zoom="1" data-layer-id="4419749383759" style="fill: rgb(144, 121, 79); fill-opacity: 1;"></polygon></svg></g><g transform="rotate(0 0 0)"><svg viewBoxSize="575" data-root-id="4715139783786" xmlns="http://www.w3.org/2000/svg" y="377.99000549316406" viewBox="0.8700000047683716 5.159999847412109 328.57000732421875 11.020000457763672" x="123.21498107910156" height="11.020000457763672" width="328.57000732421875" fontUrl="https://fonts.gstatic.com/s/opensans/v40/memSYaGs126MiZpBA-UvWbX2vVnXBbObj2OVZyOOSr4dVJWUgsg-1y4nY1M2xLER.ttf" zoom="1" editorType="buyer" data-layer-role="slogan" style="position: absolute; top: 377.99px; width: 328.57px; height: 11.02px; left: 123.215px;"><g data-horizontal-grow="center" zoom="1" root="[object Object]" style="fill: rgb(144, 121, 79); fill-opacity: 1;"><path d="M5.90 7.06L5.90 7.06Q5.24 7.06 4.74 7.31Q4.24 7.57 3.90 8.04Q3.56 8.52 3.38 9.19Q3.21 9.87 3.21 10.71L3.21 10.71Q3.21 11.84 3.49 12.65Q3.77 13.45 4.37 13.87Q4.96 14.29 5.90 14.29L5.90 14.29Q6.55 14.29 7.20 14.14Q7.86 14.00 8.63 13.73L8.63 13.73L8.63 15.63Q7.92 15.92 7.23 16.05Q6.54 16.18 5.68 16.18L5.68 16.18Q4.03 16.18 2.96 15.49Q1.90 14.81 1.38 13.58Q0.87 12.34 0.87 10.69L0.87 10.69Q0.87 9.48 1.20 8.47Q1.53 7.46 2.17 6.72Q2.81 5.98 3.74 5.57Q4.68 5.17 5.90 5.17L5.90 5.17Q6.69 5.17 7.50 5.37Q8.30 5.57 9.03 5.93L9.03 5.93L8.30 7.77Q7.70 7.49 7.09 7.27Q6.48 7.06 5.90 7.06ZM23.63 10.66L23.63 10.66Q23.63 11.90 23.32 12.92Q23.01 13.93 22.38 14.66Q21.76 15.40 20.80 15.79Q19.84 16.18 18.53 16.18L18.53 16.18Q17.22 16.18 16.26 15.79Q15.30 15.40 14.67 14.66Q14.04 13.93 13.74 12.91Q13.43 11.89 13.43 10.65L13.43 10.65Q13.43 8.99 13.98 7.75Q14.52 6.52 15.66 5.84Q16.79 5.16 18.54 5.16L18.54 5.16Q20.29 5.16 21.41 5.84Q22.53 6.52 23.08 7.76Q23.63 8.99 23.63 10.66ZM15.81 10.66L15.81 10.66Q15.81 11.78 16.09 12.59Q16.37 13.40 16.97 13.84Q17.58 14.27 18.53 14.27L18.53 14.27Q19.49 14.27 20.09 13.84Q20.70 13.40 20.97 12.59Q21.24 11.78 21.24 10.66L21.24 10.66Q21.24 8.98 20.61 8.01Q19.98 7.05 18.54 7.05L18.54 7.05Q17.58 7.05 16.98 7.48Q16.37 7.92 16.09 8.73Q15.81 9.54 15.81 10.66ZM35.46 16.03L33.38 16.03L30.80 7.63L30.73 7.63Q30.75 7.93 30.78 8.54Q30.81 9.14 30.84 9.82Q30.87 10.50 30.87 11.05L30.87 11.05L30.87 16.03L28.84 16.03L28.84 5.32L31.94 5.32L34.47 13.51L34.51 13.51L37.20 5.32L40.29 5.32L40.29 16.03L38.18 16.03L38.18 10.96Q38.18 10.46 38.19 9.80Q38.21 9.14 38.24 8.54Q38.27 7.95 38.29 7.65L38.29 7.65L38.22 7.65L35.46 16.03ZM45.99 5.32L49.41 5.32Q51.48 5.32 52.43 6.21Q53.38 7.10 53.38 8.66L53.38 8.66Q53.38 9.37 53.17 10.01Q52.96 10.65 52.48 11.15Q52.00 11.65 51.20 11.93Q50.40 12.22 49.23 12.22L49.23 12.22L48.26 12.22L48.26 16.03L45.99 16.03L45.99 5.32ZM49.29 7.19L49.29 7.19L48.26 7.19L48.26 10.36L49.00 10.36Q49.64 10.36 50.11 10.20Q50.58 10.03 50.84 9.67Q51.09 9.31 51.09 8.75L51.09 8.75Q51.09 7.95 50.65 7.57Q50.21 7.19 49.29 7.19ZM65.02 16.03L58.41 16.03L58.41 5.32L60.68 5.32L60.68 14.16L65.02 14.16L65.02 16.03ZM76.05 14.16L76.05 16.03L69.88 16.03L69.88 5.32L76.05 5.32L76.05 7.19L72.15 7.19L72.15 9.54L75.78 9.54L75.78 11.40L72.15 11.40L72.15 14.16L76.05 14.16ZM85.41 7.21L85.41 16.03L83.14 16.03L83.14 7.21L80.23 7.21L80.23 5.32L88.32 5.32L88.32 7.21L85.41 7.21ZM99.13 14.16L99.13 16.03L92.97 16.03L92.97 5.32L99.13 5.32L99.13 7.19L95.24 7.19L95.24 9.54L98.86 9.54L98.86 11.40L95.24 11.40L95.24 14.16L99.13 14.16ZM120.04 5.32L120.04 16.03L117.78 16.03L117.78 11.41L113.54 11.41L113.54 16.03L111.27 16.03L111.27 5.32L113.54 5.32L113.54 9.52L117.78 9.52L117.78 5.32L120.04 5.32ZM134.74 16.03L132.30 16.03L131.52 13.48L127.62 13.48L126.84 16.03L124.39 16.03L128.17 5.28L130.95 5.28L134.74 16.03ZM128.19 11.58L130.98 11.58L130.20 9.09Q130.13 8.84 130.01 8.45Q129.89 8.06 129.77 7.65Q129.65 7.24 129.57 6.94L129.57 6.94Q129.50 7.24 129.37 7.69Q129.24 8.13 129.13 8.53Q129.01 8.92 128.96 9.09L128.96 9.09L128.19 11.58ZM148.59 5.32L148.59 16.03L145.71 16.03L141.05 7.93L140.98 7.93Q141.01 8.44 141.03 8.95Q141.05 9.46 141.08 9.97Q141.10 10.48 141.12 10.99L141.12 10.99L141.12 16.03L139.09 16.03L139.09 5.32L141.96 5.32L146.61 13.34L146.66 13.34Q146.64 12.85 146.62 12.36Q146.60 11.87 146.58 11.37Q146.56 10.88 146.55 10.39L146.55 10.39L146.55 5.32L148.59 5.32ZM163.17 10.58L163.17 10.58Q163.17 12.39 162.48 13.60Q161.79 14.81 160.48 15.42Q159.16 16.03 157.32 16.03L157.32 16.03L154.29 16.03L154.29 5.32L157.65 5.32Q159.33 5.32 160.57 5.92Q161.81 6.52 162.49 7.69Q163.17 8.85 163.17 10.58ZM160.81 10.63L160.81 10.63Q160.81 9.45 160.46 8.68Q160.12 7.92 159.44 7.55Q158.76 7.19 157.77 7.19L157.77 7.19L156.56 7.19L156.56 14.16L157.53 14.16Q159.19 14.16 160.00 13.27Q160.81 12.39 160.81 10.63ZM169.50 5.32L171.72 9.73L173.96 5.32L176.40 5.32L172.85 11.87L172.85 16.03L170.59 16.03L170.59 11.94L167.04 5.32L169.50 5.32ZM187.36 16.03L185.28 16.03L182.71 7.63L182.64 7.63Q182.65 7.93 182.69 8.54Q182.72 9.14 182.75 9.82Q182.78 10.50 182.78 11.05L182.78 11.05L182.78 16.03L180.75 16.03L180.75 5.32L183.84 5.32L186.38 13.51L186.42 13.51L189.11 5.32L192.20 5.32L192.20 16.03L190.08 16.03L190.08 10.96Q190.08 10.46 190.10 9.80Q190.12 9.14 190.15 8.54Q190.18 7.95 190.19 7.65L190.19 7.65L190.13 7.65L187.36 16.03ZM206.89 16.03L204.45 16.03L203.67 13.48L199.77 13.48L198.99 16.03L196.55 16.03L200.32 5.28L203.10 5.28L206.89 16.03ZM200.34 11.58L203.13 11.58L202.35 9.09Q202.28 8.84 202.16 8.45Q202.04 8.06 201.92 7.65Q201.80 7.24 201.72 6.94L201.72 6.94Q201.65 7.24 201.52 7.69Q201.39 8.13 201.28 8.53Q201.16 8.92 201.11 9.09L201.11 9.09L200.34 11.58ZM220.74 5.32L220.74 16.03L217.86 16.03L213.20 7.93L213.13 7.93Q213.16 8.44 213.18 8.95Q213.21 9.46 213.23 9.97Q213.25 10.48 213.27 10.99L213.27 10.99L213.27 16.03L211.24 16.03L211.24 5.32L214.11 5.32L218.76 13.34L218.81 13.34Q218.79 12.85 218.77 12.36Q218.75 11.87 218.73 11.37Q218.71 10.88 218.70 10.39L218.70 10.39L218.70 5.32L220.74 5.32ZM239.65 13.06L239.65 13.06Q239.65 14.01 239.19 14.71Q238.73 15.42 237.85 15.80Q236.97 16.18 235.71 16.18L235.71 16.18Q235.15 16.18 234.62 16.11Q234.09 16.03 233.60 15.89Q233.11 15.75 232.67 15.53L232.67 15.53L232.67 13.43Q233.44 13.76 234.26 14.03Q235.08 14.30 235.88 14.30L235.88 14.30Q236.44 14.30 236.78 14.16Q237.12 14.01 237.27 13.75Q237.43 13.50 237.43 13.17L237.43 13.17Q237.43 12.77 237.16 12.48Q236.89 12.19 236.41 11.95Q235.94 11.70 235.35 11.41L235.35 11.41Q234.97 11.24 234.53 10.98Q234.10 10.73 233.70 10.36Q233.30 10.00 233.05 9.47Q232.80 8.95 232.80 8.22L232.80 8.22Q232.80 7.26 233.24 6.58Q233.68 5.90 234.49 5.53Q235.31 5.17 236.42 5.17L236.42 5.17Q237.26 5.17 238.02 5.36Q238.78 5.56 239.60 5.93L239.60 5.93L238.87 7.69Q238.13 7.39 237.54 7.23Q236.96 7.06 236.35 7.06L236.35 7.06Q235.93 7.06 235.63 7.20Q235.33 7.33 235.17 7.58Q235.02 7.82 235.02 8.14L235.02 8.14Q235.02 8.53 235.24 8.79Q235.46 9.05 235.92 9.29Q236.37 9.53 237.04 9.85L237.04 9.85Q237.86 10.24 238.44 10.66Q239.02 11.08 239.34 11.65Q239.65 12.22 239.65 13.06ZM254.31 10.66L254.31 10.66Q254.31 11.90 254.01 12.92Q253.70 13.93 253.07 14.66Q252.45 15.40 251.49 15.79Q250.53 16.18 249.22 16.18L249.22 16.18Q247.91 16.18 246.95 15.79Q245.99 15.40 245.36 14.66Q244.73 13.93 244.43 12.91Q244.12 11.89 244.12 10.65L244.12 10.65Q244.12 8.99 244.66 7.75Q245.21 6.52 246.35 5.84Q247.48 5.16 249.23 5.16L249.23 5.16Q250.97 5.16 252.10 5.84Q253.22 6.52 253.77 7.76Q254.31 8.99 254.31 10.66ZM246.50 10.66L246.50 10.66Q246.50 11.78 246.78 12.59Q247.06 13.40 247.66 13.84Q248.26 14.27 249.22 14.27L249.22 14.27Q250.18 14.27 250.78 13.84Q251.38 13.40 251.66 12.59Q251.93 11.78 251.93 10.66L251.93 10.66Q251.93 8.98 251.30 8.01Q250.67 7.05 249.23 7.05L249.23 7.05Q248.27 7.05 247.67 7.48Q247.06 7.92 246.78 8.73Q246.50 9.54 246.50 10.66ZM266.15 16.03L259.53 16.03L259.53 5.32L261.80 5.32L261.80 14.16L266.15 14.16L266.15 16.03ZM277.46 5.32L279.72 5.32L279.72 12.25Q279.72 13.36 279.24 14.25Q278.75 15.14 277.76 15.66Q276.78 16.18 275.29 16.18L275.29 16.18Q273.16 16.18 272.05 15.10Q270.93 14.01 270.93 12.22L270.93 12.22L270.93 5.32L273.20 5.32L273.20 11.88Q273.20 13.21 273.74 13.74Q274.28 14.27 275.34 14.27L275.34 14.27Q276.09 14.27 276.56 14.02Q277.02 13.76 277.24 13.23Q277.46 12.69 277.46 11.87L277.46 11.87L277.46 5.32ZM289.48 7.21L289.48 16.03L287.21 16.03L287.21 7.21L284.30 7.21L284.30 5.32L292.38 5.32L292.38 7.21L289.48 7.21ZM299.30 16.03L297.03 16.03L297.03 5.32L299.30 5.32L299.30 16.03ZM314.72 10.66L314.72 10.66Q314.72 11.90 314.41 12.92Q314.10 13.93 313.48 14.66Q312.85 15.40 311.89 15.79Q310.93 16.18 309.62 16.18L309.62 16.18Q308.31 16.18 307.35 15.79Q306.39 15.40 305.76 14.66Q305.14 13.93 304.83 12.91Q304.52 11.89 304.52 10.65L304.52 10.65Q304.52 8.99 305.07 7.75Q305.61 6.52 306.75 5.84Q307.88 5.16 309.63 5.16L309.63 5.16Q311.38 5.16 312.50 5.84Q313.63 6.52 314.17 7.76Q314.72 8.99 314.72 10.66ZM306.90 10.66L306.90 10.66Q306.90 11.78 307.18 12.59Q307.47 13.40 308.07 13.84Q308.67 14.27 309.62 14.27L309.62 14.27Q310.59 14.27 311.19 13.84Q311.79 13.40 312.06 12.59Q312.34 11.78 312.34 10.66L312.34 10.66Q312.34 8.98 311.71 8.01Q311.08 7.05 309.63 7.05L309.63 7.05Q308.67 7.05 308.07 7.48Q307.47 7.92 307.18 8.73Q306.90 9.54 306.90 10.66ZM329.44 5.32L329.44 16.03L326.55 16.03L321.89 7.93L321.83 7.93Q321.86 8.44 321.88 8.95Q321.90 9.46 321.92 9.97Q321.94 10.48 321.97 10.99L321.97 10.99L321.97 16.03L319.94 16.03L319.94 5.32L322.80 5.32L327.45 13.34L327.50 13.34Q327.49 12.85 327.47 12.36Q327.44 11.87 327.43 11.37Q327.41 10.88 327.39 10.39L327.39 10.39L327.39 5.32L329.44 5.32Z" transform="translate(0, 0)"></path></g></svg></g><g transform="rotate(0 0 0)"><svg viewBoxSize="575" data-root-id="3919735783867" xmlns="http://www.w3.org/2000/svg" y="334.99000549316406" viewBox="0.8400000333786011 14.4399995803833 383.1700134277344 30.860000610351562" x="95.91497802734375" height="30.860000610351562" width="383.1700134277344" fontUrl="https://fonts.gstatic.com/s/opensans/v40/memSYaGs126MiZpBA-UvWbX2vVnXBbObj2OVZyOOSr4dVJWUgsg-1y4nY1M2xLER.ttf" zoom="1" editorType="buyer" data-layer-role="brandName" style="position: absolute; top: 334.99px; width: 383.17px; height: 30.86px; left: 95.915px;"><g data-horizontal-grow="center" zoom="1" root="[object Object]" style="fill: rgb(144, 121, 79); fill-opacity: 1;"><path d="M15.34 20.20L15.34 44.89L8.98 44.89L8.98 20.20L0.84 20.20L0.84 14.91L23.48 14.91L23.48 20.20L15.34 20.20ZM55.31 29.86L55.31 29.86Q55.31 33.33 54.45 36.17Q53.59 39.01 51.83 41.06Q50.08 43.11 47.39 44.20Q44.71 45.30 41.04 45.30L41.04 45.30Q37.37 45.30 34.68 44.20Q31.99 43.11 30.24 41.06Q28.49 39.01 27.62 36.16Q26.76 33.30 26.76 29.82L26.76 29.82Q26.76 25.16 28.29 21.71Q29.82 18.25 33.00 16.34Q36.18 14.44 41.08 14.44L41.08 14.44Q45.96 14.44 49.11 16.34Q52.25 18.25 53.78 21.72Q55.31 25.18 55.31 29.86ZM33.43 29.86L33.43 29.86Q33.43 33.00 34.22 35.26Q35.01 37.53 36.69 38.75Q38.37 39.97 41.04 39.97L41.04 39.97Q43.74 39.97 45.42 38.75Q47.11 37.53 47.88 35.26Q48.64 33.00 48.64 29.86L48.64 29.86Q48.64 25.14 46.88 22.44Q45.12 19.73 41.08 19.73L41.08 19.73Q38.39 19.73 36.70 20.95Q35.01 22.17 34.22 24.44Q33.43 26.70 33.43 29.86ZM73.09 20.20L73.09 44.89L66.73 44.89L66.73 20.20L58.59 20.20L58.59 14.91L81.23 14.91L81.23 20.20L73.09 20.20ZM111.05 44.89L104.20 44.89L102.03 37.75L91.10 37.75L88.92 44.89L82.07 44.89L92.65 14.79L100.43 14.79L111.05 44.89ZM92.70 32.42L100.51 32.42L98.33 25.45Q98.13 24.75 97.79 23.66Q97.45 22.56 97.11 21.42Q96.78 20.28 96.57 19.44L96.57 19.44Q96.37 20.28 96.01 21.52Q95.65 22.76 95.32 23.87Q94.99 24.98 94.85 25.45L94.85 25.45L92.70 32.42ZM133.34 44.89L114.82 44.89L114.82 14.91L121.18 14.91L121.18 39.64L133.34 39.64L133.34 44.89ZM156.25 36.57L156.25 36.57Q156.25 39.23 154.96 41.20Q153.67 43.17 151.19 44.24Q148.72 45.30 145.20 45.30L145.20 45.30Q143.64 45.30 142.15 45.10Q140.66 44.89 139.30 44.49Q137.94 44.09 136.71 43.50L136.71 43.50L136.71 37.59Q138.84 38.53 141.13 39.29Q143.43 40.05 145.69 40.05L145.69 40.05Q147.25 40.05 148.20 39.64Q149.15 39.23 149.58 38.51Q150.01 37.80 150.01 36.87L150.01 36.87Q150.01 35.75 149.26 34.95Q148.50 34.15 147.17 33.45Q145.85 32.75 144.19 31.95L144.19 31.95Q143.14 31.46 141.91 30.75Q140.68 30.04 139.58 29.02Q138.47 27.99 137.76 26.53Q137.05 25.06 137.05 23.01L137.05 23.01Q137.05 20.32 138.28 18.42Q139.51 16.51 141.80 15.49Q144.09 14.48 147.21 14.48L147.21 14.48Q149.54 14.48 151.67 15.02Q153.79 15.57 156.11 16.59L156.11 16.59L154.05 21.53Q151.98 20.69 150.34 20.23Q148.70 19.77 147 19.77L147 19.77Q145.81 19.77 144.97 20.15Q144.13 20.53 143.70 21.22Q143.27 21.90 143.27 22.80L143.27 22.80Q143.27 23.87 143.89 24.60Q144.52 25.33 145.78 26.00Q147.04 26.68 148.93 27.58L148.93 27.58Q151.22 28.67 152.85 29.85Q154.49 31.03 155.37 32.62Q156.25 34.21 156.25 36.57ZM161.68 14.91L171.26 14.91Q177.06 14.91 179.73 17.40Q182.40 19.89 182.40 24.26L182.40 24.26Q182.40 26.23 181.80 28.02Q181.21 29.82 179.86 31.21Q178.52 32.61 176.29 33.42Q174.05 34.23 170.77 34.23L170.77 34.23L168.04 34.23L168.04 44.89L161.68 44.89L161.68 14.91ZM170.93 20.12L170.93 20.12L168.04 20.12L168.04 29.02L170.13 29.02Q171.92 29.02 173.23 28.55Q174.54 28.08 175.26 27.07Q175.98 26.07 175.98 24.49L175.98 24.49Q175.98 22.27 174.75 21.19Q173.52 20.12 170.93 20.12ZM205.32 39.64L205.32 44.89L188.06 44.89L188.06 14.91L205.32 14.91L205.32 20.12L194.41 20.12L194.41 26.70L204.57 26.70L204.57 31.91L194.41 31.91L194.41 39.64L205.32 39.64ZM224.31 19.77L224.31 19.77Q222.49 19.77 221.08 20.48Q219.68 21.18 218.73 22.52Q217.77 23.85 217.28 25.74Q216.79 27.62 216.79 29.98L216.79 29.98Q216.79 33.16 217.58 35.41Q218.37 37.65 220.03 38.83Q221.69 40.01 224.31 40.01L224.31 40.01Q226.14 40.01 227.98 39.60Q229.81 39.19 231.96 38.43L231.96 38.43L231.96 43.76Q229.97 44.58 228.05 44.94Q226.12 45.30 223.72 45.30L223.72 45.30Q219.08 45.30 216.10 43.38Q213.12 41.47 211.68 38.01Q210.25 34.56 210.25 29.94L210.25 29.94Q210.25 26.54 211.17 23.71Q212.09 20.88 213.88 18.81Q215.66 16.73 218.29 15.61Q220.91 14.48 224.31 14.48L224.31 14.48Q226.55 14.48 228.80 15.04Q231.04 15.61 233.09 16.59L233.09 16.59L231.04 21.76Q229.36 20.96 227.66 20.36Q225.96 19.77 224.31 19.77ZM244.70 44.89L238.34 44.89L238.34 14.91L244.70 14.91L244.70 44.89ZM277.45 44.89L270.60 44.89L268.43 37.75L257.50 37.75L255.32 44.89L248.47 44.89L259.05 14.79L266.83 14.79L277.45 44.89ZM259.10 32.42L266.91 32.42L264.74 25.45Q264.53 24.75 264.19 23.66Q263.85 22.56 263.52 21.42Q263.18 20.28 262.97 19.44L262.97 19.44Q262.77 20.28 262.41 21.52Q262.05 22.76 261.72 23.87Q261.39 24.98 261.25 25.45L261.25 25.45L259.10 32.42ZM299.74 44.89L281.22 44.89L281.22 14.91L287.58 14.91L287.58 39.64L299.74 39.64L299.74 44.89ZM311.31 44.89L304.95 44.89L304.95 14.91L311.31 14.91L311.31 44.89ZM336.55 36.57L336.55 36.57Q336.55 39.23 335.26 41.20Q333.97 43.17 331.50 44.24Q329.03 45.30 325.50 45.30L325.50 45.30Q323.94 45.30 322.45 45.10Q320.97 44.89 319.60 44.49Q318.24 44.09 317.01 43.50L317.01 43.50L317.01 37.59Q319.14 38.53 321.44 39.29Q323.74 40.05 325.99 40.05L325.99 40.05Q327.55 40.05 328.50 39.64Q329.46 39.23 329.89 38.51Q330.32 37.80 330.32 36.87L330.32 36.87Q330.32 35.75 329.56 34.95Q328.80 34.15 327.48 33.45Q326.16 32.75 324.50 31.95L324.50 31.95Q323.45 31.46 322.22 30.75Q320.99 30.04 319.88 29.02Q318.77 27.99 318.07 26.53Q317.36 25.06 317.36 23.01L317.36 23.01Q317.36 20.32 318.59 18.42Q319.82 16.51 322.11 15.49Q324.39 14.48 327.51 14.48L327.51 14.48Q329.85 14.48 331.97 15.02Q334.09 15.57 336.41 16.59L336.41 16.59L334.36 21.53Q332.29 20.69 330.65 20.23Q329.01 19.77 327.30 19.77L327.30 19.77Q326.12 19.77 325.27 20.15Q324.43 20.53 324.00 21.22Q323.57 21.90 323.57 22.80L323.57 22.80Q323.57 23.87 324.20 24.60Q324.82 25.33 326.08 26.00Q327.35 26.68 329.23 27.58L329.23 27.58Q331.53 28.67 333.16 29.85Q334.79 31.03 335.67 32.62Q336.55 34.21 336.55 36.57ZM353.55 20.20L353.55 44.89L347.20 44.89L347.20 20.20L339.06 20.20L339.06 14.91L361.70 14.91L361.70 20.20L353.55 20.20ZM384.01 36.57L384.01 36.57Q384.01 39.23 382.72 41.20Q381.42 43.17 378.95 44.24Q376.48 45.30 372.96 45.30L372.96 45.30Q371.40 45.30 369.91 45.10Q368.42 44.89 367.06 44.49Q365.70 44.09 364.46 43.50L364.46 43.50L364.46 37.59Q366.60 38.53 368.89 39.29Q371.19 40.05 373.45 40.05L373.45 40.05Q375.01 40.05 375.96 39.64Q376.91 39.23 377.34 38.51Q377.77 37.80 377.77 36.87L377.77 36.87Q377.77 35.75 377.02 34.95Q376.26 34.15 374.93 33.45Q373.61 32.75 371.95 31.95L371.95 31.95Q370.90 31.46 369.67 30.75Q368.44 30.04 367.34 29.02Q366.23 27.99 365.52 26.53Q364.81 25.06 364.81 23.01L364.81 23.01Q364.81 20.32 366.04 18.42Q367.27 16.51 369.56 15.49Q371.85 14.48 374.96 14.48L374.96 14.48Q377.30 14.48 379.43 15.02Q381.55 15.57 383.87 16.59L383.87 16.59L381.81 21.53Q379.74 20.69 378.10 20.23Q376.46 19.77 374.76 19.77L374.76 19.77Q373.57 19.77 372.73 20.15Q371.89 20.53 371.46 21.22Q371.03 21.90 371.03 22.80L371.03 22.80Q371.03 23.87 371.65 24.60Q372.28 25.33 373.54 26.00Q374.80 26.68 376.69 27.58L376.69 27.58Q378.98 28.67 380.61 29.85Q382.25 31.03 383.13 32.62Q384.01 34.21 384.01 36.57Z" transform="translate(0, 0)"></path></g></svg></g></svg>