<svg viewBox="0 0 575 575" class="roots-wrapper"><g transform="rotate(0 0 0)"><svg viewBoxSize="575" data-root-id="3226005199249" xmlns="http://www.w3.org/2000/svg" xmlns:xlink="http://www.w3.org/1999/xlink" xmlnsSerif="http://www.serif.com/" viewBox="-0.00000762939453125 0 161.791015625 211.71600341796875" version="1.1" xml:space="preserve" height="313.3836212158203" width="239.4844011299357" y="130.8081983642578" x="167.7580047683716" preserveAspectRatio="xMinYMin" zoom="1" editorType="buyer" data-layer-role="icon" style="fill-rule: evenodd; clip-rule: evenodd; stroke-linejoin: round; stroke-miterlimit: 2; position: absolute; height: 313.384px; width: 239.484px; top: 130.808px; left: 167.758px;"><path d="M48.537,195.537l0,-68.738c-9.421,-3.334 -16.179,-12.327 -16.179,-22.886c0,-9.432 5.393,-17.615 13.26,-21.63l-0,23.364l11.009,6.356l11.009,-6.356l-0,-23.364c7.867,4.015 13.259,12.198 13.259,21.63c0,10.559 -6.757,19.552 -16.179,22.886l0,84.917l-64.716,-0l0,-80.896l16.179,0l0,64.717l32.358,-0Zm48.537,9.151l-0.081,0l0,-65.58l-3.166,-0.198c0.008,-0.05 0.012,-0.101 0.012,-0.152c-0,-1.116 -1.813,-2.022 -4.045,-2.022c-2.233,0 -4.045,0.906 -4.045,2.022c0,0.051 0.004,0.102 0.011,0.152l-7.294,-0l0,-16.179l7.294,-0c0.156,1.045 1.903,1.871 4.034,1.871c2.13,-0 3.878,-0.826 4.033,-1.871l16.997,-0l0.147,0c24.833,0.097 24.122,24.268 24.122,24.268c0,4.133 -2.451,1.07 -3.234,-2.173c-1.298,-5.38 -4.334,-7.926 -14.561,-8.899c-1.35,-0.128 -2.702,1.474 -4.045,2.699l0,56.911l32.359,-0l-0,-64.717l16.179,0l-0,80.896l-64.717,-0l0,-7.028Z" name="Layer %{number}" zoom="1" data-layer-id="7100845999386" style="fill: rgb(205, 204, 217); fill-opacity: 0.14;"></path><path d="M80.895,0l80.896,80.895l-1.388,1.388l1.388,0l-0,32.358l-16.179,0l-0,-27.044l-64.717,-64.716l-64.716,64.716l0,27.044l-16.179,0l-0,-32.358l1.388,0l-1.388,-1.388l80.895,-80.895Z" name="Layer %{number}" zoom="1" data-layer-id="1129299899456" style="fill: rgb(205, 204, 217); fill-opacity: 0.14;"></path><linearGradient id="_Linear1" x1="0" y1="0" x2="1" y2="0" gradientUnits="userSpaceOnUse" gradientTransform="matrix(-8.08953,137.522,-137.522,-8.08953,76.8505,98.4623)" name="Layer %{number}" zoom="1" data-layer-id="5905121799524"><stop offset="0" style="stop-color: rgb(174, 174, 174); stop-opacity: 1;"></stop><stop offset="1" style="stop-color: rgb(114, 114, 114); stop-opacity: 1;"></stop></linearGradient><linearGradient id="_Linear2" x1="0" y1="0" x2="1" y2="0" gradientUnits="userSpaceOnUse" gradientTransform="matrix(7.76277e-15,126.776,-126.776,7.76277e-15,84.9401,4.04477)" name="Layer %{number}" zoom="1" data-layer-id="3629254899595"><stop offset="0" style="stop-color: rgb(237, 199, 19); stop-opacity: 1;"></stop><stop offset="1" style="stop-color: rgb(154, 127, 0); stop-opacity: 1;"></stop></linearGradient></svg></g><g transform="rotate(0 287.4999998855591 336.32519817352295)"><svg viewBoxSize="575" data-root-id="9691131499663" xmlns="http://www.w3.org/2000/svg" y="327.0001983642578" viewBox="1.0099999904632568 5.920000076293945 562.2999877929688 18.649999618530273" x="6.3500059890747025" height="18.649999618530273" width="562.2999877929688" fontUrl="https://fonts.gstatic.com/s/firasanscondensed/v10/wEOsEADFm8hSaQTFG18FErVhsC9x-tarWQXOiMN-cxZblY4.ttf" zoom="1" editorType="buyer" data-layer-role="slogan" style="position: absolute; top: 327px; width: 562.3px; height: 18.65px; left: 6.35001px; transform: rotate(0deg);"><g data-horizontal-grow="center" zoom="1" root="[object Object]" style="fill: rgb(242, 106, 75); fill-opacity: 1;"><path d="M8.12 5.92Q9.59 5.92 10.72 6.39Q11.84 6.85 12.93 7.78L12.93 7.78L11.27 9.72Q9.83 8.51 8.30 8.51L8.30 8.51Q6.54 8.51 5.53 10.08Q4.53 11.66 4.53 15.21L4.53 15.21Q4.53 18.67 5.53 20.27Q6.54 21.88 8.33 21.88L8.33 21.88Q9.26 21.88 9.96 21.53Q10.65 21.18 11.51 20.51L11.51 20.51L13.11 22.42Q12.21 23.35 10.96 23.96Q9.72 24.57 8.17 24.57L8.17 24.57Q6.03 24.57 4.41 23.52Q2.79 22.47 1.90 20.36Q1.01 18.26 1.01 15.21L1.01 15.21Q1.01 12.21 1.94 10.11Q2.87 8.02 4.47 6.97Q6.08 5.92 8.12 5.92L8.12 5.92ZM30.02 5.92Q33.38 5.92 35.27 8.29Q37.16 10.65 37.16 15.23L37.16 15.23Q37.16 19.76 35.27 22.16Q33.38 24.57 30.02 24.57L30.02 24.57Q26.69 24.57 24.80 22.19Q22.91 19.81 22.91 15.26L22.91 15.26Q22.91 10.76 24.80 8.34Q26.69 5.92 30.02 5.92L30.02 5.92ZM30.02 8.48Q28.24 8.48 27.33 10.06Q26.43 11.64 26.43 15.26L26.43 15.26Q26.43 18.85 27.35 20.43Q28.26 22.01 30.02 22.01L30.02 22.01Q31.86 22.01 32.75 20.44Q33.64 18.88 33.64 15.23L33.64 15.23Q33.64 11.64 32.75 10.06Q31.86 8.48 30.02 8.48L30.02 8.48ZM62.86 6.31L64.10 24.18L60.90 24.18L60.51 16.65Q60.30 12.31 60.30 10.47L60.30 10.47L60.33 9.39L57.51 22.24L54.38 22.24L51.41 9.36Q51.43 10.16 51.43 11.77L51.43 11.77Q51.43 14.48 51.33 16.76L51.33 16.76L50.97 24.18L47.79 24.18L49.03 6.31L53.30 6.31L56.01 18.88L58.54 6.31L62.86 6.31ZM80.16 6.31Q83.50 6.31 85.27 7.74Q87.04 9.18 87.04 12.00L87.04 12.00Q87.04 14.95 85.27 16.43Q83.50 17.92 80.40 17.92L80.40 17.92L78.90 17.92L78.90 24.18L75.53 24.18L75.53 6.31L80.16 6.31ZM80.19 15.41Q81.92 15.41 82.75 14.65Q83.58 13.89 83.58 12.00L83.58 12.00Q83.58 10.32 82.75 9.54Q81.92 8.77 80.19 8.77L80.19 8.77L78.90 8.77L78.90 15.41L80.19 15.41ZM97.88 6.31L101.24 6.31L101.24 21.44L107.60 21.44L107.24 24.18L97.88 24.18L97.88 6.31ZM118.20 6.31L127.74 6.31L127.38 8.79L121.56 8.79L121.56 13.86L126.66 13.86L126.66 16.32L121.56 16.32L121.56 21.67L127.79 21.67L127.79 24.18L118.20 24.18L118.20 6.31ZM137.49 6.31L149.59 6.31L149.23 8.95L145.12 8.95L145.12 24.18L141.78 24.18L141.78 8.95L137.49 8.95L137.49 6.31ZM159.99 6.31L169.53 6.31L169.17 8.79L163.35 8.79L163.35 13.86L168.44 13.86L168.44 16.32L163.35 16.32L163.35 21.67L169.58 21.67L169.58 24.18L159.99 24.18L159.99 6.31ZM207.18 24.18L203.82 24.18L203.82 16.16L198.44 16.16L198.44 24.18L195.08 24.18L195.08 6.31L198.44 6.31L198.44 13.50L203.82 13.50L203.82 6.31L207.18 6.31L207.18 24.18ZM231.41 24.18L227.95 24.18L226.96 20.01L221.79 20.01L220.81 24.18L217.42 24.18L222.39 6.31L226.47 6.31L231.41 24.18ZM224.38 8.87L222.36 17.48L226.39 17.48L224.38 8.87ZM253.73 6.31L253.73 24.18L249.43 24.18L244.21 9.62L244.29 10.32Q244.65 13.94 244.65 16.76L244.65 16.76L244.65 24.18L241.65 24.18L241.65 6.31L245.89 6.31L251.17 20.87Q251.01 19.86 250.87 18.17Q250.73 16.47 250.73 14.79L250.73 14.79L250.73 6.31L253.73 6.31ZM269.99 6.31Q272.42 6.31 274.22 7.01Q276.02 7.71 277.14 9.66Q278.27 11.61 278.27 15.15L278.27 15.15Q278.27 20.17 276.06 22.17Q273.85 24.18 270.38 24.18L270.38 24.18L265.83 24.18L265.83 6.31L269.99 6.31ZM270.54 8.82L269.19 8.82L269.19 21.67L270.61 21.67Q272.60 21.67 273.70 20.27Q274.80 18.88 274.80 15.15L274.80 15.15Q274.80 12.57 274.25 11.17Q273.69 9.77 272.77 9.30Q271.85 8.82 270.54 8.82L270.54 8.82ZM297.95 6.31L301.41 6.31L296.24 17.40L296.24 24.18L292.88 24.18L292.88 17.43L287.73 6.31L291.33 6.31L294.64 14.66L297.95 6.31ZM326.05 6.31L327.30 24.18L324.09 24.18L323.70 16.65Q323.49 12.31 323.49 10.47L323.49 10.47L323.52 9.39L320.70 22.24L317.57 22.24L314.60 9.36Q314.62 10.16 314.62 11.77L314.62 11.77Q314.62 14.48 314.52 16.76L314.52 16.76L314.16 24.18L310.98 24.18L312.22 6.31L316.49 6.31L319.20 18.88L321.74 6.31L326.05 6.31ZM350.85 24.18L347.39 24.18L346.41 20.01L341.23 20.01L340.25 24.18L336.86 24.18L341.83 6.31L345.91 6.31L350.85 24.18ZM343.82 8.87L341.80 17.48L345.84 17.48L343.82 8.87ZM373.17 6.31L373.17 24.18L368.88 24.18L363.65 9.62L363.73 10.32Q364.09 13.94 364.09 16.76L364.09 16.76L364.09 24.18L361.09 24.18L361.09 6.31L365.33 6.31L370.61 20.87Q370.45 19.86 370.31 18.17Q370.17 16.47 370.17 14.79L370.17 14.79L370.17 6.31L373.17 6.31ZM404.33 5.92Q406.04 5.92 407.32 6.46Q408.60 7.01 409.68 8.12L409.68 8.12L408.08 9.96Q407.23 9.21 406.37 8.84Q405.52 8.48 404.54 8.48L404.54 8.48Q403.45 8.48 402.79 9.05Q402.13 9.62 402.13 10.63L402.13 10.63Q402.13 11.30 402.40 11.77Q402.67 12.23 403.37 12.63Q404.07 13.03 405.39 13.50L405.39 13.50Q407.79 14.38 408.97 15.59Q410.15 16.81 410.15 19.08L410.15 19.08Q410.15 20.66 409.40 21.90Q408.65 23.14 407.24 23.85Q405.83 24.57 403.94 24.57L403.94 24.57Q400.40 24.57 398.02 22.14L398.02 22.14L399.73 20.25Q400.71 21.10 401.68 21.54Q402.65 21.98 403.81 21.98L403.81 21.98Q405.13 21.98 405.89 21.26Q406.66 20.53 406.66 19.26L406.66 19.26Q406.66 18.13 406.01 17.47Q405.36 16.81 403.55 16.19L403.55 16.19Q400.97 15.28 399.83 14.04Q398.69 12.80 398.69 10.86L398.69 10.86Q398.69 9.44 399.42 8.31Q400.14 7.19 401.43 6.56Q402.73 5.92 404.33 5.92L404.33 5.92ZM427.50 5.92Q430.86 5.92 432.75 8.29Q434.64 10.65 434.64 15.23L434.64 15.23Q434.64 19.76 432.75 22.16Q430.86 24.57 427.50 24.57L427.50 24.57Q424.16 24.57 422.28 22.19Q420.39 19.81 420.39 15.26L420.39 15.26Q420.39 10.76 422.28 8.34Q424.16 5.92 427.50 5.92L427.50 5.92ZM427.50 8.48Q425.71 8.48 424.81 10.06Q423.90 11.64 423.90 15.26L423.90 15.26Q423.90 18.85 424.82 20.43Q425.74 22.01 427.50 22.01L427.50 22.01Q429.33 22.01 430.23 20.44Q431.12 18.88 431.12 15.23L431.12 15.23Q431.12 11.64 430.23 10.06Q429.33 8.48 427.50 8.48L427.50 8.48ZM445.94 6.31L449.30 6.31L449.30 21.44L455.66 21.44L455.30 24.18L445.94 24.18L445.94 6.31ZM478.21 6.31L478.21 18.80Q478.21 20.45 477.51 21.76Q476.81 23.07 475.44 23.82Q474.07 24.57 472.11 24.57L472.11 24.57Q469.13 24.57 467.57 22.99Q466.00 21.41 466.00 18.80L466.00 18.80L466.00 6.31L469.36 6.31L469.36 18.64Q469.36 20.33 470.02 21.14Q470.68 21.95 472.11 21.95L472.11 21.95Q473.50 21.95 474.17 21.13Q474.85 20.30 474.85 18.64L474.85 18.64L474.85 6.31L478.21 6.31ZM488.50 6.31L500.60 6.31L500.24 8.95L496.13 8.95L496.13 24.18L492.79 24.18L492.79 8.95L488.50 8.95L488.50 6.31ZM511.00 6.31L514.36 6.31L514.36 24.18L511.00 24.18L511.00 6.31ZM532.80 5.92Q536.16 5.92 538.05 8.29Q539.93 10.65 539.93 15.23L539.93 15.23Q539.93 19.76 538.05 22.16Q536.16 24.57 532.80 24.57L532.80 24.57Q529.46 24.57 527.57 22.19Q525.68 19.81 525.68 15.26L525.68 15.26Q525.68 10.76 527.57 8.34Q529.46 5.92 532.80 5.92L532.80 5.92ZM532.80 8.48Q531.01 8.48 530.11 10.06Q529.20 11.64 529.20 15.26L529.20 15.26Q529.20 18.85 530.12 20.43Q531.04 22.01 532.80 22.01L532.80 22.01Q534.63 22.01 535.52 20.44Q536.42 18.88 536.42 15.23L536.42 15.23Q536.42 11.64 535.52 10.06Q534.63 8.48 532.80 8.48L532.80 8.48ZM563.31 6.31L563.31 24.18L559.02 24.18L553.79 9.62L553.87 10.32Q554.23 13.94 554.23 16.76L554.23 16.76L554.23 24.18L551.23 24.18L551.23 6.31L555.47 6.31L560.75 20.87Q560.59 19.86 560.45 18.17Q560.31 16.47 560.31 14.79L560.31 14.79L560.31 6.31L563.31 6.31Z" transform="translate(0, 0)"></path></g></svg></g><g transform="rotate(0 287.49998999999997 298.56)"><svg viewBoxSize="575" data-root-id="1621986499872" xmlns="http://www.w3.org/2000/svg" y="261.5701983642578" viewBox="1.6600000858306885 17.260000228881836 560.5400390625 73.97999572753906" x="7.2299895095825235" height="73.97999572753906" width="560.5400390625" fontUrl="https://fonts.gstatic.com/s/poppins/v21/pxiByp8kv8JHgFVrLCz7V1tvFP-KUEg.ttf" zoom="1" editorType="buyer" data-layer-role="brandName" style="position: absolute; top: 261.57px; width: 560.54px; height: 73.98px; left: 7.22999px; transform: rotate(0deg);"><g data-horizontal-grow="center" zoom="1" root="[object Object]" style="fill: rgb(255, 255, 255); fill-opacity: 1;"><path d="M1.66 24.13L39.31 24.13L39.31 33.63L26.41 33.63L26.41 72.80L14.56 72.80L14.56 33.63L1.66 33.63L1.66 24.13ZM62.88 73.35Q57.20 73.35 52.66 70.93Q48.12 68.50 45.52 63.99Q42.92 59.49 42.92 53.45L42.92 53.45Q42.92 47.49 45.55 42.95Q48.18 38.41 52.76 35.98Q57.34 33.56 63.02 33.56L63.02 33.56Q68.71 33.56 73.28 35.98Q77.86 38.41 80.49 42.95Q83.13 47.49 83.13 53.45L83.13 53.45Q83.13 59.42 80.46 63.96Q77.79 68.50 73.18 70.93Q68.57 73.35 62.88 73.35L62.88 73.35ZM62.88 63.09Q66.28 63.09 68.67 60.59Q71.06 58.10 71.06 53.45L71.06 53.45Q71.06 48.81 68.74 46.31Q66.42 43.82 63.02 43.82L63.02 43.82Q59.55 43.82 57.27 46.28Q54.98 48.74 54.98 53.45L54.98 53.45Q54.98 58.10 57.23 60.59Q59.49 63.09 62.88 63.09L62.88 63.09ZM106.77 62.74L111.00 62.74L111.00 72.80L104.97 72.80Q98.52 72.80 94.91 69.64Q91.31 66.49 91.31 59.35L91.31 59.35L91.31 43.96L86.59 43.96L86.59 34.11L91.31 34.11L91.31 24.68L103.16 24.68L103.16 34.11L110.93 34.11L110.93 43.96L103.16 43.96L103.16 59.49Q103.16 61.22 104.00 61.98Q104.83 62.74 106.77 62.74L106.77 62.74ZM115.23 53.38Q115.23 47.42 117.48 42.92Q119.73 38.41 123.62 35.98Q127.50 33.56 132.28 33.56L132.28 33.56Q136.37 33.56 139.46 35.22Q142.54 36.88 144.21 39.59L144.21 39.59L144.21 34.11L156.06 34.11L156.06 72.80L144.21 72.80L144.21 67.32Q142.47 70.02 139.39 71.69Q136.30 73.35 132.21 73.35L132.21 73.35Q127.50 73.35 123.62 70.89Q119.73 68.43 117.48 63.89Q115.23 59.35 115.23 53.38L115.23 53.38ZM144.21 53.45Q144.21 49.02 141.75 46.45Q139.29 43.89 135.75 43.89L135.75 43.89Q132.21 43.89 129.75 46.42Q127.29 48.95 127.29 53.38L127.29 53.38Q127.29 57.82 129.75 60.42Q132.21 63.02 135.75 63.02L135.75 63.02Q139.29 63.02 141.75 60.46Q144.21 57.89 144.21 53.45L144.21 53.45ZM164.66 21.49L176.52 21.49L176.52 72.80L164.66 72.80L164.66 21.49ZM200.85 73.35Q195.79 73.35 191.84 71.62Q187.89 69.89 185.60 66.87Q183.31 63.85 183.03 60.11L183.03 60.11L194.75 60.11Q194.96 62.12 196.62 63.37Q198.29 64.62 200.71 64.62L200.71 64.62Q202.93 64.62 204.14 63.75Q205.36 62.88 205.36 61.50L205.36 61.50Q205.36 59.83 203.62 59.04Q201.89 58.24 198.01 57.27L198.01 57.27Q193.85 56.30 191.08 55.22Q188.30 54.15 186.29 51.82Q184.28 49.50 184.28 45.55L184.28 45.55Q184.28 42.22 186.12 39.48Q187.96 36.75 191.53 35.15Q195.10 33.56 200.02 33.56L200.02 33.56Q207.30 33.56 211.49 37.16Q215.69 40.77 216.31 46.73L216.31 46.73L205.36 46.73Q205.08 44.72 203.59 43.54Q202.10 42.36 199.67 42.36L199.67 42.36Q197.59 42.36 196.48 43.16Q195.37 43.96 195.37 45.34L195.37 45.34Q195.37 47.01 197.14 47.84Q198.91 48.67 202.65 49.50L202.65 49.50Q206.95 50.61 209.66 51.69Q212.36 52.76 214.40 55.15Q216.45 57.54 216.52 61.57L216.52 61.57Q216.52 64.96 214.61 67.63Q212.71 70.30 209.14 71.83Q205.57 73.35 200.85 73.35L200.85 73.35ZM235.65 39.59Q237.39 36.88 240.44 35.22Q243.49 33.56 247.58 33.56L247.58 33.56Q252.36 33.56 256.25 35.98Q260.13 38.41 262.38 42.92Q264.63 47.42 264.63 53.38L264.63 53.38Q264.63 59.35 262.38 63.89Q260.13 68.43 256.25 70.89Q252.36 73.35 247.58 73.35L247.58 73.35Q243.56 73.35 240.47 71.69Q237.39 70.02 235.65 67.39L235.65 67.39L235.65 91.24L223.80 91.24L223.80 34.11L235.65 34.11L235.65 39.59ZM252.57 53.38Q252.57 48.95 250.11 46.42Q247.65 43.89 244.04 43.89L244.04 43.89Q240.51 43.89 238.05 46.45Q235.59 49.02 235.59 53.45L235.59 53.45Q235.59 57.89 238.05 60.46Q240.51 63.02 244.04 63.02L244.04 63.02Q247.58 63.02 250.08 60.42Q252.57 57.82 252.57 53.38L252.57 53.38ZM307.34 52.83Q307.34 54.49 307.13 56.30L307.13 56.30L280.30 56.30Q280.58 59.90 282.63 61.81Q284.67 63.71 287.65 63.71L287.65 63.71Q292.09 63.71 293.82 59.97L293.82 59.97L306.44 59.97Q305.47 63.78 302.94 66.83Q300.41 69.89 296.60 71.62Q292.78 73.35 288.07 73.35L288.07 73.35Q282.38 73.35 277.95 70.93Q273.51 68.50 271.01 63.99Q268.52 59.49 268.52 53.45L268.52 53.45Q268.52 47.42 270.98 42.92Q273.44 38.41 277.88 35.98Q282.31 33.56 288.07 33.56L288.07 33.56Q293.68 33.56 298.05 35.91Q302.42 38.27 304.88 42.64Q307.34 47.01 307.34 52.83L307.34 52.83ZM280.37 49.71L295.21 49.71Q295.21 46.66 293.13 44.86Q291.05 43.05 287.93 43.05L287.93 43.05Q284.95 43.05 282.90 44.79Q280.86 46.52 280.37 49.71L280.37 49.71ZM311.23 53.45Q311.23 47.42 313.69 42.92Q316.15 38.41 320.55 35.98Q324.95 33.56 330.64 33.56L330.64 33.56Q337.92 33.56 342.81 37.37Q347.69 41.18 349.22 48.12L349.22 48.12L336.60 48.12Q335.01 43.68 330.43 43.68L330.43 43.68Q327.17 43.68 325.23 46.21Q323.29 48.74 323.29 53.45L323.29 53.45Q323.29 58.17 325.23 60.70Q327.17 63.23 330.43 63.23L330.43 63.23Q335.01 63.23 336.60 58.79L336.60 58.79L349.22 58.79Q347.69 65.59 342.77 69.47Q337.85 73.35 330.64 73.35L330.64 73.35Q324.95 73.35 320.55 70.93Q316.15 68.50 313.69 63.99Q311.23 59.49 311.23 53.45L311.23 53.45ZM361.49 30.09Q358.37 30.09 356.39 28.25Q354.42 26.41 354.42 23.71L354.42 23.71Q354.42 20.94 356.39 19.10Q358.37 17.26 361.49 17.26L361.49 17.26Q364.54 17.26 366.52 19.10Q368.49 20.94 368.49 23.71L368.49 23.71Q368.49 26.41 366.52 28.25Q364.54 30.09 361.49 30.09L361.49 30.09ZM355.53 34.11L367.38 34.11L367.38 72.80L355.53 72.80L355.53 34.11ZM373.62 53.38Q373.62 47.42 375.88 42.92Q378.13 38.41 382.01 35.98Q385.89 33.56 390.68 33.56L390.68 33.56Q394.77 33.56 397.85 35.22Q400.94 36.88 402.60 39.59L402.60 39.59L402.60 34.11L414.46 34.11L414.46 72.80L402.60 72.80L402.60 67.32Q400.87 70.02 397.78 71.69Q394.70 73.35 390.61 73.35L390.61 73.35Q385.89 73.35 382.01 70.89Q378.13 68.43 375.88 63.89Q373.62 59.35 373.62 53.38L373.62 53.38ZM402.60 53.45Q402.60 49.02 400.14 46.45Q397.68 43.89 394.14 43.89L394.14 43.89Q390.61 43.89 388.15 46.42Q385.69 48.95 385.69 53.38L385.69 53.38Q385.69 57.82 388.15 60.42Q390.61 63.02 394.14 63.02L394.14 63.02Q397.68 63.02 400.14 60.46Q402.60 57.89 402.60 53.45L402.60 53.45ZM423.06 21.49L434.91 21.49L434.91 72.80L423.06 72.80L423.06 21.49ZM449.47 30.09Q446.35 30.09 444.37 28.25Q442.40 26.41 442.40 23.71L442.40 23.71Q442.40 20.94 444.37 19.10Q446.35 17.26 449.47 17.26L449.47 17.26Q452.52 17.26 454.50 19.10Q456.47 20.94 456.47 23.71L456.47 23.71Q456.47 26.41 454.50 28.25Q452.52 30.09 449.47 30.09L449.47 30.09ZM443.51 34.11L455.36 34.11L455.36 72.80L443.51 72.80L443.51 34.11ZM479.70 73.35Q474.64 73.35 470.69 71.62Q466.73 69.89 464.45 66.87Q462.16 63.85 461.88 60.11L461.88 60.11L473.60 60.11Q473.81 62.12 475.47 63.37Q477.13 64.62 479.56 64.62L479.56 64.62Q481.78 64.62 482.99 63.75Q484.20 62.88 484.20 61.50L484.20 61.50Q484.20 59.83 482.47 59.04Q480.74 58.24 476.86 57.27L476.86 57.27Q472.70 56.30 469.92 55.22Q467.15 54.15 465.14 51.82Q463.13 49.50 463.13 45.55L463.13 45.55Q463.13 42.22 464.97 39.48Q466.80 36.75 470.37 35.15Q473.94 33.56 478.87 33.56L478.87 33.56Q486.15 33.56 490.34 37.16Q494.54 40.77 495.16 46.73L495.16 46.73L484.20 46.73Q483.93 44.72 482.44 43.54Q480.95 42.36 478.52 42.36L478.52 42.36Q476.44 42.36 475.33 43.16Q474.22 43.96 474.22 45.34L474.22 45.34Q474.22 47.01 475.99 47.84Q477.76 48.67 481.50 49.50L481.50 49.50Q485.80 50.61 488.50 51.69Q491.21 52.76 493.25 55.15Q495.30 57.54 495.37 61.57L495.37 61.57Q495.37 64.96 493.46 67.63Q491.55 70.30 487.98 71.83Q484.41 73.35 479.70 73.35L479.70 73.35ZM519.98 62.74L524.21 62.74L524.21 72.80L518.18 72.80Q511.73 72.80 508.12 69.64Q504.52 66.49 504.52 59.35L504.52 59.35L504.52 43.96L499.80 43.96L499.80 34.11L504.52 34.11L504.52 24.68L516.37 24.68L516.37 34.11L524.14 34.11L524.14 43.96L516.37 43.96L516.37 59.49Q516.37 61.22 517.21 61.98Q518.04 62.74 519.98 62.74L519.98 62.74ZM546.53 73.35Q541.47 73.35 537.52 71.62Q533.57 69.89 531.28 66.87Q528.99 63.85 528.72 60.11L528.72 60.11L540.43 60.11Q540.64 62.12 542.30 63.37Q543.97 64.62 546.39 64.62L546.39 64.62Q548.61 64.62 549.83 63.75Q551.04 62.88 551.04 61.50L551.04 61.50Q551.04 59.83 549.31 59.04Q547.57 58.24 543.69 57.27L543.69 57.27Q539.53 56.30 536.76 55.22Q533.98 54.15 531.97 51.82Q529.96 49.50 529.96 45.55L529.96 45.55Q529.96 42.22 531.80 39.48Q533.64 36.75 537.21 35.15Q540.78 33.56 545.70 33.56L545.70 33.56Q552.98 33.56 557.18 37.16Q561.37 40.77 561.99 46.73L561.99 46.73L551.04 46.73Q550.76 44.72 549.27 43.54Q547.78 42.36 545.35 42.36L545.35 42.36Q543.27 42.36 542.17 43.16Q541.06 43.96 541.06 45.34L541.06 45.34Q541.06 47.01 542.82 47.84Q544.59 48.67 548.34 49.50L548.34 49.50Q552.63 50.61 555.34 51.69Q558.04 52.76 560.09 55.15Q562.13 57.54 562.20 61.57L562.20 61.57Q562.20 64.96 560.30 67.63Q558.39 70.30 554.82 71.83Q551.25 73.35 546.53 73.35L546.53 73.35Z" transform="translate(0, 0)"></path></g></svg></g></svg>