<svg viewBox="0 0 575 575" class="roots-wrapper"><g transform="rotate(0 0 0)"><svg viewBoxSize="575" data-root-id="3083354666464" xmlns="http://www.w3.org/2000/svg" xmlns:xlink="http://www.w3.org/1999/xlink" version="1.1" id="Layer_1" x="192.50398474121093" y="152.25" viewBox="462.70001220703125 471.1000061035156 1074.7000732421875 1057.800048828125" xml:space="preserve" height="187.00401386981102" width="189.99169921875" preserveAspectRatio="xMinYMin" zoom="1" editorType="buyer" data-layer-role="icon" style="position: absolute; height: 187.004px; width: 189.992px; top: 152.25px; left: 192.504px;"><rect id="XMLID_2591_" x="462.7" y="1513.6" width="1074.6" height="15.3" name="Layer %{number}" zoom="1" data-layer-id="9019016666508" style="fill: rgb(234, 189, 35); fill-opacity: 1;"></rect><path id="XMLID_2584_" d="M883.1,1438v15.3h143.8V1438H883.1z M882.4,471.1v135.5H745.2V471.1h-84.6v982.2h628.3V471.1H882.4z     M675.9,1438V486.3h54v135.5h167.8V486.3h375.9V1438H675.9z M883.1,1438v15.3h143.8V1438H883.1z" name="Layer %{number}" zoom="1" data-layer-id="8099046366528" style="fill: rgb(234, 189, 35); fill-opacity: 1;"></path><rect id="XMLID_1671_" x="675.1" y="1445.6" width="15.3" height="75.7" name="Layer %{number}" zoom="1" data-layer-id="2456467866546" style="fill: rgb(234, 189, 35); fill-opacity: 1;"></rect><rect id="XMLID_1669_" x="1259.1" y="1445.6" width="15.3" height="75.7" name="Layer %{number}" zoom="1" data-layer-id="1306485366565" style="fill: rgb(234, 189, 35); fill-opacity: 1;"></rect><polygon id="XMLID_1666_" points="478,1528.9 478,1513.7 478,554.2 660.6,691 675.9,702.5 883.1,857.8 883.1,1438 883.1,1453.3     883.1,1513.7 883.1,1521.3 898.4,1521.3 898.4,1513.7 898.4,1453.3 898.4,1438 898.4,850.1 675.9,683.4 660.6,671.9 462.7,523.6     462.7,1513.7 462.7,1528.9   " name="Layer %{number}" zoom="1" data-layer-id="4149026966587" style="fill: rgb(234, 189, 35); fill-opacity: 1;"></polygon><path id="XMLID_1661_" d="M1288.9,921.8l-9-6.8l-6.3,4.8l-246.7,188.9v420.2h510.5v-420.3L1288.9,921.8z M1042.2,1513.6v-397.4    l231.4-177.1l6.4-4.9l8.9,6.7l233.1,175.3v397.3H1042.2z" name="Layer %{number}" zoom="1" data-layer-id="8999317166607" style="fill: rgb(234, 189, 35); fill-opacity: 1;"></path></svg></g><g transform="rotate(0 0 0)"><svg viewBoxSize="575" data-root-id="1335910366625" xmlns="http://www.w3.org/2000/svg" y="411.25" viewBox="4.190000057220459 3.9800000190734863 342.4100036621094 11.5" x="108.79997985839844" height="11.5" width="342.4100036621094" fontUrl="https://fonts.gstatic.com/s/lato/v24/S6u9w4BMUTPHh6UVew-FGC_p9dw.ttf" zoom="1" editorType="buyer" data-layer-role="slogan" style="position: absolute; top: 411.25px; width: 342.41px; height: 11.5px; left: 108.8px;"><g data-horizontal-grow="center" zoom="1" root="[object Object]" style="fill: rgb(0, 0, 0);"><path d="M14.47 4.11L10.38 10.98L10.38 15.35L8.29 15.35L8.29 10.98L4.19 4.11L6.03 4.11Q6.31 4.11 6.47 4.24Q6.63 4.37 6.73 4.57L6.73 4.57L8.80 8.33Q8.97 8.66 9.11 8.96Q9.24 9.26 9.35 9.55L9.35 9.55Q9.45 9.25 9.58 8.96Q9.71 8.66 9.88 8.33L9.88 8.33L11.93 4.57Q12.02 4.40 12.19 4.25Q12.36 4.11 12.62 4.11L12.62 4.11L14.47 4.11ZM26.97 9.73L26.97 9.73Q26.97 10.97 26.56 12.02Q26.15 13.07 25.40 13.84Q24.65 14.61 23.60 15.04Q22.55 15.48 21.28 15.48L21.28 15.48Q20.00 15.48 18.95 15.04Q17.89 14.61 17.14 13.84Q16.39 13.07 15.98 12.02Q15.57 10.97 15.57 9.73L15.57 9.73Q15.57 8.49 15.98 7.44Q16.39 6.38 17.14 5.61Q17.89 4.85 18.95 4.41Q20.00 3.98 21.28 3.98L21.28 3.98Q22.55 3.98 23.60 4.42Q24.65 4.85 25.40 5.62Q26.15 6.38 26.56 7.44Q26.97 8.49 26.97 9.73ZM24.82 9.73L24.82 9.73Q24.82 8.80 24.58 8.07Q24.33 7.33 23.88 6.82Q23.42 6.31 22.76 6.03Q22.10 5.76 21.28 5.76L21.28 5.76Q20.45 5.76 19.79 6.03Q19.13 6.31 18.67 6.82Q18.21 7.33 17.96 8.07Q17.71 8.80 17.71 9.73L17.71 9.73Q17.71 10.65 17.96 11.39Q18.21 12.12 18.67 12.63Q19.13 13.14 19.79 13.42Q20.45 13.69 21.28 13.69L21.28 13.69Q22.10 13.69 22.76 13.42Q23.42 13.14 23.88 12.63Q24.33 12.12 24.58 11.39Q24.82 10.65 24.82 9.73ZM34.39 13.66L34.39 13.66Q35.00 13.66 35.47 13.46Q35.95 13.26 36.28 12.89Q36.61 12.53 36.79 12.01Q36.96 11.49 36.96 10.84L36.96 10.84L36.96 4.11L39.06 4.11L39.06 10.84Q39.06 11.84 38.73 12.70Q38.41 13.55 37.80 14.17Q37.20 14.78 36.33 15.13Q35.47 15.48 34.39 15.48L34.39 15.48Q33.31 15.48 32.45 15.13Q31.58 14.78 30.98 14.17Q30.38 13.55 30.05 12.70Q29.73 11.84 29.73 10.84L29.73 10.84L29.73 4.11L31.82 4.11L31.82 10.83Q31.82 11.48 32.00 12.00Q32.17 12.52 32.50 12.89Q32.83 13.26 33.31 13.46Q33.78 13.66 34.39 13.66ZM45.49 10.96L44.59 10.96L44.59 15.35L42.50 15.35L42.50 4.11L45.93 4.11Q47.08 4.11 47.90 4.34Q48.72 4.58 49.25 5.01Q49.77 5.44 50.02 6.03Q50.26 6.63 50.26 7.34L50.26 7.34Q50.26 7.91 50.10 8.41Q49.93 8.92 49.61 9.33Q49.30 9.74 48.84 10.06Q48.37 10.37 47.78 10.55L47.78 10.55Q48.18 10.78 48.47 11.20L48.47 11.20L51.28 15.35L49.40 15.35Q49.13 15.35 48.94 15.24Q48.75 15.13 48.61 14.93L48.61 14.93L46.25 11.33Q46.12 11.13 45.96 11.04Q45.80 10.96 45.49 10.96L45.49 10.96ZM44.59 5.72L44.59 9.46L45.90 9.46Q46.49 9.46 46.93 9.31Q47.37 9.16 47.65 8.90Q47.94 8.64 48.08 8.28Q48.22 7.92 48.22 7.50L48.22 7.50Q48.22 6.64 47.65 6.18Q47.09 5.72 45.93 5.72L45.93 5.72L44.59 5.72ZM65.84 12.70L65.84 12.70Q66.01 12.70 66.14 12.83L66.14 12.83L66.96 13.73Q66.28 14.57 65.28 15.03Q64.28 15.48 62.88 15.48L62.88 15.48Q61.63 15.48 60.63 15.05Q59.63 14.62 58.92 13.86Q58.21 13.10 57.83 12.04Q57.46 10.98 57.46 9.73L57.46 9.73Q57.46 8.46 57.88 7.41Q58.30 6.35 59.06 5.59Q59.82 4.83 60.88 4.41Q61.94 3.98 63.23 3.98L63.23 3.98Q64.48 3.98 65.42 4.38Q66.35 4.78 67.02 5.44L67.02 5.44L66.32 6.42Q66.26 6.51 66.16 6.58Q66.07 6.65 65.89 6.65L65.89 6.65Q65.72 6.65 65.53 6.51Q65.34 6.37 65.05 6.21Q64.77 6.04 64.33 5.90Q63.89 5.76 63.21 5.76L63.21 5.76Q62.42 5.76 61.75 6.04Q61.09 6.31 60.61 6.83Q60.13 7.34 59.86 8.08Q59.60 8.81 59.60 9.73L59.60 9.73Q59.60 10.68 59.86 11.42Q60.13 12.16 60.59 12.66Q61.05 13.17 61.67 13.43Q62.29 13.70 63.01 13.70L63.01 13.70Q63.44 13.70 63.78 13.66Q64.13 13.61 64.42 13.51Q64.71 13.41 64.97 13.25Q65.23 13.09 65.49 12.86L65.49 12.86Q65.57 12.79 65.65 12.74Q65.74 12.70 65.84 12.70ZM80.57 9.73L80.57 9.73Q80.57 10.97 80.16 12.02Q79.75 13.07 79.00 13.84Q78.25 14.61 77.20 15.04Q76.15 15.48 74.88 15.48L74.88 15.48Q73.60 15.48 72.55 15.04Q71.49 14.61 70.74 13.84Q69.99 13.07 69.58 12.02Q69.17 10.97 69.17 9.73L69.17 9.73Q69.17 8.49 69.58 7.44Q69.99 6.38 70.74 5.61Q71.49 4.85 72.55 4.41Q73.60 3.98 74.88 3.98L74.88 3.98Q76.15 3.98 77.20 4.42Q78.25 4.85 79.00 5.62Q79.75 6.38 80.16 7.44Q80.57 8.49 80.57 9.73ZM78.42 9.73L78.42 9.73Q78.42 8.80 78.18 8.07Q77.93 7.33 77.47 6.82Q77.02 6.31 76.36 6.03Q75.70 5.76 74.88 5.76L74.88 5.76Q74.05 5.76 73.39 6.03Q72.73 6.31 72.27 6.82Q71.81 7.33 71.56 8.07Q71.31 8.80 71.31 9.73L71.31 9.73Q71.31 10.65 71.56 11.39Q71.81 12.12 72.27 12.63Q72.73 13.14 73.39 13.42Q74.05 13.69 74.88 13.69L74.88 13.69Q75.70 13.69 76.36 13.42Q77.02 13.14 77.47 12.63Q77.93 12.12 78.18 11.39Q78.42 10.65 78.42 9.73ZM89.11 10.69L89.11 10.69Q89.24 10.93 89.35 11.20Q89.47 11.47 89.58 11.74L89.58 11.74Q89.68 11.46 89.80 11.19Q89.92 10.92 90.05 10.67L90.05 10.67L93.38 4.44Q93.44 4.32 93.51 4.25Q93.57 4.18 93.65 4.15Q93.74 4.12 93.84 4.11Q93.94 4.11 94.08 4.11L94.08 4.11L95.66 4.11L95.66 15.35L93.81 15.35L93.81 8.09Q93.81 7.89 93.83 7.64Q93.84 7.40 93.86 7.15L93.86 7.15L90.46 13.53Q90.35 13.75 90.16 13.87Q89.97 13.99 89.72 13.99L89.72 13.99L89.44 13.99Q89.19 13.99 89.00 13.87Q88.81 13.75 88.70 13.53L88.70 13.53L85.25 7.13Q85.28 7.39 85.29 7.63Q85.31 7.88 85.31 8.09L85.31 8.09L85.31 15.35L83.46 15.35L83.46 4.11L85.04 4.11Q85.18 4.11 85.28 4.11Q85.38 4.12 85.47 4.15Q85.55 4.18 85.62 4.25Q85.69 4.32 85.75 4.44L85.75 4.44L89.11 10.69ZM102.91 11.39L101.33 11.39L101.33 15.35L99.24 15.35L99.24 4.11L102.91 4.11Q104.03 4.11 104.86 4.37Q105.68 4.64 106.22 5.11Q106.75 5.58 107.01 6.24Q107.27 6.91 107.27 7.69L107.27 7.69Q107.27 8.51 107.00 9.19Q106.72 9.87 106.18 10.36Q105.64 10.85 104.82 11.12Q104.00 11.39 102.91 11.39L102.91 11.39ZM101.33 5.72L101.33 9.76L102.91 9.76Q103.48 9.76 103.91 9.62Q104.34 9.47 104.62 9.20Q104.90 8.94 105.04 8.55Q105.18 8.17 105.18 7.69L105.18 7.69Q105.18 7.24 105.04 6.87Q104.90 6.51 104.62 6.25Q104.34 6.00 103.91 5.86Q103.48 5.72 102.91 5.72L102.91 5.72L101.33 5.72ZM112.23 4.11L112.23 13.63L116.73 13.63L116.73 15.35L110.14 15.35L110.14 4.11L112.23 4.11ZM119.42 4.11L126.52 4.11L126.52 5.77L121.53 5.77L121.53 8.89L125.46 8.89L125.46 10.50L121.53 10.50L121.53 13.68L126.52 13.68L126.52 15.35L119.42 15.35L119.42 4.11ZM128.62 4.11L137.50 4.11L137.50 5.82L134.11 5.82L134.11 15.35L132.02 15.35L132.02 5.82L128.62 5.82L128.62 4.11ZM140.07 4.11L147.16 4.11L147.16 5.77L142.18 5.77L142.18 8.89L146.11 8.89L146.11 10.50L142.18 10.50L142.18 13.68L147.16 13.68L147.16 15.35L140.07 15.35L140.07 4.11ZM163.95 4.11L163.95 15.35L161.85 15.35L161.85 10.44L156.57 10.44L156.57 15.35L154.47 15.35L154.47 4.11L156.57 4.11L156.57 8.94L161.85 8.94L161.85 4.11L163.95 4.11ZM172.94 4.11L177.35 15.35L175.74 15.35Q175.46 15.35 175.29 15.22Q175.11 15.08 175.04 14.88L175.04 14.88L174.20 12.58L169.54 12.58L168.70 14.88Q168.64 15.06 168.45 15.20Q168.27 15.35 168.01 15.35L168.01 15.35L166.38 15.35L170.80 4.11L172.94 4.11ZM171.44 7.38L170.08 11.11L173.66 11.11L172.29 7.36Q172.20 7.12 172.09 6.78Q171.97 6.44 171.86 6.04L171.86 6.04Q171.76 6.44 171.65 6.78Q171.55 7.12 171.44 7.38L171.44 7.38ZM180.85 4.11L180.85 4.11Q180.99 4.11 181.09 4.12Q181.18 4.13 181.25 4.16Q181.33 4.20 181.40 4.27Q181.47 4.33 181.55 4.44L181.55 4.44L187.46 11.96Q187.43 11.69 187.41 11.43Q187.40 11.17 187.40 10.94L187.40 10.94L187.40 4.11L189.25 4.11L189.25 15.35L188.16 15.35Q187.92 15.35 187.75 15.27Q187.59 15.20 187.43 14.99L187.43 14.99L181.55 7.50Q181.58 7.75 181.59 8.00Q181.60 8.24 181.60 8.45L181.60 8.45L181.60 15.35L179.76 15.35L179.76 4.11L180.85 4.11ZM202.75 9.73L202.75 9.73Q202.75 10.97 202.33 12.00Q201.92 13.03 201.18 13.78Q200.43 14.53 199.38 14.94Q198.33 15.35 197.05 15.35L197.05 15.35L192.76 15.35L192.76 4.11L197.05 4.11Q198.33 4.11 199.38 4.52Q200.43 4.94 201.18 5.68Q201.92 6.42 202.33 7.46Q202.75 8.49 202.75 9.73ZM200.61 9.73L200.61 9.73Q200.61 8.80 200.36 8.07Q200.11 7.33 199.65 6.82Q199.19 6.31 198.54 6.04Q197.88 5.77 197.05 5.77L197.05 5.77L194.87 5.77L194.87 13.69L197.05 13.69Q197.88 13.69 198.54 13.42Q199.19 13.14 199.65 12.63Q200.11 12.12 200.36 11.39Q200.61 10.65 200.61 9.73ZM214.10 4.11L210.01 10.98L210.01 15.35L207.92 15.35L207.92 10.98L203.82 4.11L205.66 4.11Q205.94 4.11 206.09 4.24Q206.25 4.37 206.36 4.57L206.36 4.57L208.42 8.33Q208.60 8.66 208.73 8.96Q208.87 9.26 208.98 9.55L208.98 9.55Q209.08 9.25 209.21 8.96Q209.33 8.66 209.51 8.33L209.51 8.33L211.56 4.57Q211.64 4.40 211.81 4.25Q211.99 4.11 212.25 4.11L212.25 4.11L214.10 4.11ZM222.08 10.69L222.08 10.69Q222.21 10.93 222.33 11.20Q222.44 11.47 222.55 11.74L222.55 11.74Q222.66 11.46 222.77 11.19Q222.89 10.92 223.02 10.67L223.02 10.67L226.35 4.44Q226.41 4.32 226.48 4.25Q226.54 4.18 226.63 4.15Q226.71 4.12 226.81 4.11Q226.91 4.11 227.05 4.11L227.05 4.11L228.63 4.11L228.63 15.35L226.79 15.35L226.79 8.09Q226.79 7.89 226.80 7.64Q226.81 7.40 226.83 7.15L226.83 7.15L223.43 13.53Q223.32 13.75 223.13 13.87Q222.94 13.99 222.69 13.99L222.69 13.99L222.41 13.99Q222.16 13.99 221.97 13.87Q221.78 13.75 221.67 13.53L221.67 13.53L218.22 7.13Q218.25 7.39 218.27 7.63Q218.28 7.88 218.28 8.09L218.28 8.09L218.28 15.35L216.43 15.35L216.43 4.11L218.01 4.11Q218.15 4.11 218.25 4.11Q218.36 4.12 218.44 4.15Q218.52 4.18 218.59 4.25Q218.66 4.32 218.72 4.44L218.72 4.44L222.08 10.69ZM237.61 4.11L242.03 15.35L240.41 15.35Q240.14 15.35 239.96 15.22Q239.79 15.08 239.71 14.88L239.71 14.88L238.87 12.58L234.21 12.58L233.37 14.88Q233.31 15.06 233.13 15.20Q232.94 15.35 232.68 15.35L232.68 15.35L231.05 15.35L235.47 4.11L237.61 4.11ZM236.12 7.38L234.75 11.11L238.33 11.11L236.97 7.36Q236.87 7.12 236.76 6.78Q236.65 6.44 236.54 6.04L236.54 6.04Q236.43 6.44 236.32 6.78Q236.22 7.12 236.12 7.38L236.12 7.38ZM245.53 4.11L245.53 4.11Q245.67 4.11 245.76 4.12Q245.85 4.13 245.93 4.16Q246.00 4.20 246.07 4.27Q246.14 4.33 246.23 4.44L246.23 4.44L252.13 11.96Q252.10 11.69 252.09 11.43Q252.08 11.17 252.08 10.94L252.08 10.94L252.08 4.11L253.92 4.11L253.92 15.35L252.84 15.35Q252.59 15.35 252.43 15.27Q252.26 15.20 252.11 14.99L252.11 14.99L246.23 7.50Q246.25 7.75 246.26 8.00Q246.27 8.24 246.27 8.45L246.27 8.45L246.27 15.35L244.43 15.35L244.43 4.11L245.53 4.11ZM268.22 5.16L267.71 6.15Q267.62 6.32 267.51 6.39Q267.40 6.46 267.24 6.46L267.24 6.46Q267.09 6.46 266.89 6.34Q266.70 6.22 266.43 6.07Q266.17 5.93 265.81 5.81Q265.46 5.68 264.98 5.68L264.98 5.68Q264.54 5.68 264.22 5.79Q263.90 5.89 263.68 6.08Q263.45 6.27 263.35 6.53Q263.24 6.79 263.24 7.10L263.24 7.10Q263.24 7.50 263.46 7.76Q263.68 8.03 264.04 8.21Q264.41 8.40 264.88 8.55Q265.34 8.69 265.83 8.86Q266.32 9.03 266.78 9.25Q267.25 9.47 267.61 9.81Q267.98 10.15 268.20 10.64Q268.42 11.13 268.42 11.83L268.42 11.83Q268.42 12.59 268.16 13.26Q267.90 13.92 267.40 14.41Q266.90 14.91 266.18 15.19Q265.45 15.48 264.52 15.48L264.52 15.48Q263.98 15.48 263.46 15.37Q262.94 15.27 262.46 15.07Q261.98 14.88 261.57 14.61Q261.15 14.33 260.83 14.00L260.83 14.00L261.43 13.00Q261.52 12.89 261.64 12.81Q261.76 12.74 261.91 12.74L261.91 12.74Q262.10 12.74 262.33 12.90Q262.55 13.06 262.86 13.25Q263.17 13.45 263.58 13.61Q264.00 13.77 264.58 13.77L264.58 13.77Q265.48 13.77 265.97 13.34Q266.46 12.92 266.46 12.12L266.46 12.12Q266.46 11.68 266.23 11.40Q266.01 11.12 265.65 10.93Q265.28 10.74 264.81 10.61Q264.35 10.48 263.87 10.32Q263.38 10.16 262.92 9.95Q262.45 9.73 262.09 9.38Q261.72 9.03 261.50 8.50Q261.28 7.98 261.28 7.21L261.28 7.21Q261.28 6.59 261.52 6.01Q261.77 5.43 262.24 4.98Q262.71 4.53 263.39 4.25Q264.08 3.98 264.95 3.98L264.95 3.98Q265.95 3.98 266.79 4.29Q267.63 4.60 268.22 5.16L268.22 5.16ZM282.06 9.73L282.06 9.73Q282.06 10.97 281.64 12.02Q281.23 13.07 280.49 13.84Q279.74 14.61 278.69 15.04Q277.64 15.48 276.36 15.48L276.36 15.48Q275.09 15.48 274.03 15.04Q272.98 14.61 272.23 13.84Q271.48 13.07 271.07 12.02Q270.66 10.97 270.66 9.73L270.66 9.73Q270.66 8.49 271.07 7.44Q271.48 6.38 272.23 5.61Q272.98 4.85 274.03 4.41Q275.09 3.98 276.36 3.98L276.36 3.98Q277.64 3.98 278.69 4.42Q279.74 4.85 280.49 5.62Q281.23 6.38 281.64 7.44Q282.06 8.49 282.06 9.73ZM279.91 9.73L279.91 9.73Q279.91 8.80 279.67 8.07Q279.42 7.33 278.96 6.82Q278.50 6.31 277.85 6.03Q277.19 5.76 276.36 5.76L276.36 5.76Q275.54 5.76 274.88 6.03Q274.22 6.31 273.75 6.82Q273.29 7.33 273.04 8.07Q272.79 8.80 272.79 9.73L272.79 9.73Q272.79 10.65 273.04 11.39Q273.29 12.12 273.75 12.63Q274.22 13.14 274.88 13.42Q275.54 13.69 276.36 13.69L276.36 13.69Q277.19 13.69 277.85 13.42Q278.50 13.14 278.96 12.63Q279.42 12.12 279.67 11.39Q279.91 10.65 279.91 9.73ZM287.04 4.11L287.04 13.63L291.54 13.63L291.54 15.35L284.95 15.35L284.95 4.11L287.04 4.11ZM298.76 13.66L298.76 13.66Q299.37 13.66 299.85 13.46Q300.32 13.26 300.66 12.89Q300.99 12.53 301.16 12.01Q301.34 11.49 301.34 10.84L301.34 10.84L301.34 4.11L303.43 4.11L303.43 10.84Q303.43 11.84 303.11 12.70Q302.78 13.55 302.18 14.17Q301.57 14.78 300.71 15.13Q299.84 15.48 298.76 15.48L298.76 15.48Q297.68 15.48 296.82 15.13Q295.95 14.78 295.35 14.17Q294.75 13.55 294.43 12.70Q294.10 11.84 294.10 10.84L294.10 10.84L294.10 4.11L296.20 4.11L296.20 10.83Q296.20 11.48 296.37 12.00Q296.55 12.52 296.87 12.89Q297.20 13.26 297.68 13.46Q298.15 13.66 298.76 13.66ZM305.85 4.11L314.73 4.11L314.73 5.82L311.34 5.82L311.34 15.35L309.25 15.35L309.25 5.82L305.85 5.82L305.85 4.11ZM319.66 4.11L319.66 15.35L317.56 15.35L317.56 4.11L319.66 4.11ZM334.22 9.73L334.22 9.73Q334.22 10.97 333.80 12.02Q333.39 13.07 332.65 13.84Q331.90 14.61 330.85 15.04Q329.80 15.48 328.52 15.48L328.52 15.48Q327.25 15.48 326.19 15.04Q325.14 14.61 324.39 13.84Q323.64 13.07 323.23 12.02Q322.82 10.97 322.82 9.73L322.82 9.73Q322.82 8.49 323.23 7.44Q323.64 6.38 324.39 5.61Q325.14 4.85 326.19 4.41Q327.25 3.98 328.52 3.98L328.52 3.98Q329.80 3.98 330.85 4.42Q331.90 4.85 332.65 5.62Q333.39 6.38 333.80 7.44Q334.22 8.49 334.22 9.73ZM332.07 9.73L332.07 9.73Q332.07 8.80 331.83 8.07Q331.58 7.33 331.12 6.82Q330.66 6.31 330.01 6.03Q329.35 5.76 328.52 5.76L328.52 5.76Q327.70 5.76 327.04 6.03Q326.38 6.31 325.91 6.82Q325.45 7.33 325.20 8.07Q324.95 8.80 324.95 9.73L324.95 9.73Q324.95 10.65 325.20 11.39Q325.45 12.12 325.91 12.63Q326.38 13.14 327.04 13.42Q327.70 13.69 328.52 13.69L328.52 13.69Q329.35 13.69 330.01 13.42Q330.66 13.14 331.12 12.63Q331.58 12.12 331.83 11.39Q332.07 10.65 332.07 9.73ZM338.21 4.11L338.21 4.11Q338.35 4.11 338.44 4.12Q338.53 4.13 338.61 4.16Q338.68 4.20 338.75 4.27Q338.82 4.33 338.91 4.44L338.91 4.44L344.81 11.96Q344.78 11.69 344.77 11.43Q344.75 11.17 344.75 10.94L344.75 10.94L344.75 4.11L346.60 4.11L346.60 15.35L345.52 15.35Q345.27 15.35 345.10 15.27Q344.94 15.20 344.79 14.99L344.79 14.99L338.91 7.50Q338.93 7.75 338.94 8.00Q338.95 8.24 338.95 8.45L338.95 8.45L338.95 15.35L337.11 15.35L337.11 4.11L338.21 4.11Z" transform="translate(0, 0)"></path></g></svg></g><g transform="rotate(0 0 0)"><svg viewBoxSize="575" data-root-id="4576046466684" xmlns="http://www.w3.org/2000/svg" y="362.25" viewBox="0.8500000238418579 11.279999732971191 467.2799987792969 36.20000076293945" x="53.85998474121094" height="36.20000076293945" width="467.2799987792969" fontUrl="https://fonts.gstatic.com/s/raleway/v34/1Ptxg8zYS_SKggPN4iEgvnHyvveLxVvoooCPNLA3JC9c.ttf" zoom="1" editorType="buyer" data-layer-role="brandName" style="position: absolute; top: 362.25px; width: 467.28px; height: 36.2px; left: 53.86px;"><g data-horizontal-grow="center" zoom="1" root="[object Object]" style="fill: rgb(0, 0, 0);"><path d="M29.93 11.53L29.93 15.54L17.65 15.54L17.65 47.13L13.14 47.13L13.14 15.54L0.85 15.54L0.85 11.53L29.93 11.53ZM49.49 47.38L49.49 47.38Q45.73 47.38 42.67 45.88Q39.61 44.38 37.38 41.79Q35.15 39.21 33.95 35.98Q32.74 32.74 32.74 29.33L32.74 29.33Q32.74 25.77 34.02 22.54Q35.30 19.30 37.58 16.77Q39.86 14.24 42.92 12.76Q45.98 11.28 49.59 11.28L49.59 11.28Q53.35 11.28 56.41 12.84Q59.47 14.39 61.67 17.00Q63.88 19.61 65.08 22.81Q66.29 26.02 66.29 29.38L66.29 29.38Q66.29 32.94 65.03 36.18Q63.78 39.41 61.50 41.94Q59.22 44.48 56.16 45.93Q53.10 47.38 49.49 47.38ZM37.31 29.33L37.31 29.33Q37.31 32.04 38.18 34.57Q39.06 37.11 40.67 39.06Q42.27 41.02 44.53 42.17Q46.78 43.32 49.54 43.32L49.54 43.32Q52.40 43.32 54.65 42.12Q56.91 40.92 58.49 38.91Q60.07 36.90 60.90 34.40Q61.73 31.89 61.73 29.33L61.73 29.33Q61.73 26.63 60.85 24.12Q59.97 21.61 58.34 19.63Q56.71 17.65 54.48 16.52Q52.25 15.39 49.54 15.39L49.54 15.39Q46.68 15.39 44.43 16.57Q42.17 17.75 40.59 19.76Q39.01 21.76 38.16 24.24Q37.31 26.73 37.31 29.33ZM98.23 11.53L98.23 15.54L85.94 15.54L85.94 47.13L81.43 47.13L81.43 15.54L69.15 15.54L69.15 11.53L98.23 11.53ZM99.58 47.13L114.17 11.53L117.98 11.53L132.53 47.13L127.71 47.13L123.50 36.70L108.56 36.70L104.40 47.13L99.58 47.13ZM109.46 33.19L122.50 33.19L116.08 16.75L109.46 33.19ZM161.66 47.13L137.29 47.13L137.29 11.53L141.80 11.53L141.80 43.12L161.66 43.12L161.66 47.13ZM189.59 15.34L187.48 19.00Q186.88 18.30 185.88 17.65Q184.87 17.00 183.62 16.47Q182.37 15.95 180.89 15.62Q179.41 15.29 177.80 15.29L177.80 15.29Q173.69 15.29 171.74 16.85Q169.78 18.40 169.78 21.11L169.78 21.11Q169.78 23.02 170.78 24.12Q171.79 25.22 173.87 25.92Q175.95 26.63 179.16 27.38L179.16 27.38Q182.87 28.18 185.58 29.33Q188.28 30.49 189.74 32.42Q191.19 34.35 191.19 37.56L191.19 37.56Q191.19 40.11 190.21 41.99Q189.24 43.87 187.48 45.10Q185.73 46.33 183.37 46.91Q181.01 47.48 178.26 47.48L178.26 47.48Q175.55 47.48 172.97 46.91Q170.38 46.33 168.08 45.23Q165.77 44.13 163.76 42.47L163.76 42.47L165.92 38.66Q166.72 39.51 168.00 40.34Q169.28 41.17 170.91 41.87Q172.54 42.57 174.44 43.00Q176.35 43.42 178.36 43.42L178.36 43.42Q182.17 43.42 184.27 42.04Q186.38 40.67 186.38 38.01L186.38 38.01Q186.38 36.00 185.20 34.80Q184.02 33.60 181.72 32.79Q179.41 31.99 176.10 31.19L176.10 31.19Q172.49 30.29 170.03 29.21Q167.58 28.13 166.35 26.37Q165.12 24.62 165.12 21.81L165.12 21.81Q165.12 18.40 166.77 16.05Q168.43 13.69 171.34 12.49Q174.24 11.28 177.90 11.28L177.90 11.28Q180.31 11.28 182.39 11.78Q184.47 12.28 186.28 13.19Q188.08 14.09 189.59 15.34L189.59 15.34ZM201.62 47.13L197.11 47.13L197.11 11.53L211.95 11.53Q214.31 11.53 216.26 12.51Q218.22 13.49 219.67 15.12Q221.13 16.75 221.93 18.78Q222.73 20.81 222.73 22.91L222.73 22.91Q222.73 25.82 221.43 28.46Q220.12 31.09 217.77 32.72Q215.41 34.35 212.25 34.35L212.25 34.35L201.62 34.35L201.62 47.13ZM201.62 15.54L201.62 30.34L212.00 30.34Q213.86 30.34 215.24 29.33Q216.61 28.33 217.39 26.63Q218.17 24.92 218.17 22.91L218.17 22.91Q218.17 20.81 217.27 19.13Q216.36 17.45 214.91 16.50Q213.46 15.54 211.70 15.54L211.70 15.54L201.62 15.54ZM232.86 43.12L252.52 43.12L252.52 47.13L228.35 47.13L228.35 11.53L252.06 11.53L252.06 15.54L232.86 15.54L232.86 27.08L249.56 27.08L249.56 30.84L232.86 30.84L232.86 43.12ZM256.38 29.08L256.38 29.08Q256.38 25.82 257.51 22.69Q258.63 19.56 260.81 16.97Q263.00 14.39 266.15 12.86Q269.31 11.33 273.33 11.33L273.33 11.33Q278.09 11.33 281.50 13.51Q284.91 15.69 286.56 19.10L286.56 19.10L283.00 21.41Q281.95 19.15 280.32 17.83Q278.69 16.50 276.81 15.95Q274.93 15.39 273.12 15.39L273.12 15.39Q270.17 15.39 267.88 16.60Q265.60 17.80 264.05 19.81Q262.49 21.81 261.72 24.29Q260.94 26.78 260.94 29.28L260.94 29.28Q260.94 32.04 261.87 34.60Q262.80 37.16 264.45 39.11Q266.10 41.07 268.36 42.22Q270.62 43.37 273.27 43.37L273.27 43.37Q275.13 43.37 277.09 42.72Q279.04 42.07 280.75 40.69Q282.45 39.31 283.45 37.11L283.45 37.11L287.21 39.16Q286.11 41.82 283.80 43.67Q281.50 45.53 278.67 46.48Q275.83 47.43 273.07 47.43L273.07 47.43Q269.41 47.43 266.36 45.86Q263.30 44.28 261.07 41.64Q258.83 39.01 257.61 35.73Q256.38 32.44 256.38 29.08ZM297.39 47.13L292.88 47.13L292.88 11.53L297.39 11.53L297.39 47.13ZM302.16 47.13L316.75 11.53L320.56 11.53L335.10 47.13L330.29 47.13L326.07 36.70L311.13 36.70L306.97 47.13L302.16 47.13ZM312.03 33.19L325.07 33.19L318.65 16.75L312.03 33.19ZM364.23 47.13L339.86 47.13L339.86 11.53L344.38 11.53L344.38 43.12L364.23 43.12L364.23 47.13ZM373.66 47.13L369.15 47.13L369.15 11.53L373.66 11.53L373.66 47.13ZM405.20 15.34L403.09 19.00Q402.49 18.30 401.49 17.65Q400.49 17.00 399.23 16.47Q397.98 15.95 396.50 15.62Q395.02 15.29 393.42 15.29L393.42 15.29Q389.30 15.29 387.35 16.85Q385.39 18.40 385.39 21.11L385.39 21.11Q385.39 23.02 386.40 24.12Q387.40 25.22 389.48 25.92Q391.56 26.63 394.77 27.38L394.77 27.38Q398.48 28.18 401.19 29.33Q403.90 30.49 405.35 32.42Q406.80 34.35 406.80 37.56L406.80 37.56Q406.80 40.11 405.83 41.99Q404.85 43.87 403.09 45.10Q401.34 46.33 398.98 46.91Q396.62 47.48 393.87 47.48L393.87 47.48Q391.16 47.48 388.58 46.91Q385.99 46.33 383.69 45.23Q381.38 44.13 379.38 42.47L379.38 42.47L381.53 38.66Q382.33 39.51 383.61 40.34Q384.89 41.17 386.52 41.87Q388.15 42.57 390.06 43.00Q391.96 43.42 393.97 43.42L393.97 43.42Q397.78 43.42 399.88 42.04Q401.99 40.67 401.99 38.01L401.99 38.01Q401.99 36.00 400.81 34.80Q399.63 33.60 397.33 32.79Q395.02 31.99 391.71 31.19L391.71 31.19Q388.10 30.29 385.64 29.21Q383.19 28.13 381.96 26.37Q380.73 24.62 380.73 21.81L380.73 21.81Q380.73 18.40 382.38 16.05Q384.04 13.69 386.95 12.49Q389.86 11.28 393.52 11.28L393.52 11.28Q395.92 11.28 398.00 11.78Q400.08 12.28 401.89 13.19Q403.69 14.09 405.20 15.34L405.20 15.34ZM438.39 11.53L438.39 15.54L426.11 15.54L426.11 47.13L421.60 47.13L421.60 15.54L409.31 15.54L409.31 11.53L438.39 11.53ZM466.52 15.34L464.42 19.00Q463.82 18.30 462.81 17.65Q461.81 17.00 460.56 16.47Q459.30 15.95 457.82 15.62Q456.34 15.29 454.74 15.29L454.74 15.29Q450.63 15.29 448.67 16.85Q446.72 18.40 446.72 21.11L446.72 21.11Q446.72 23.02 447.72 24.12Q448.72 25.22 450.80 25.92Q452.88 26.63 456.09 27.38L456.09 27.38Q459.80 28.18 462.51 29.33Q465.22 30.49 466.67 32.42Q468.13 34.35 468.13 37.56L468.13 37.56Q468.13 40.11 467.15 41.99Q466.17 43.87 464.42 45.10Q462.66 46.33 460.31 46.91Q457.95 47.48 455.19 47.48L455.19 47.48Q452.48 47.48 449.90 46.91Q447.32 46.33 445.01 45.23Q442.71 44.13 440.70 42.47L440.70 42.47L442.86 38.66Q443.66 39.51 444.94 40.34Q446.22 41.17 447.84 41.87Q449.47 42.57 451.38 43.00Q453.29 43.42 455.29 43.42L455.29 43.42Q459.10 43.42 461.21 42.04Q463.31 40.67 463.31 38.01L463.31 38.01Q463.31 36.00 462.14 34.80Q460.96 33.60 458.65 32.79Q456.34 31.99 453.03 31.19L453.03 31.19Q449.42 30.29 446.97 29.21Q444.51 28.13 443.28 26.37Q442.05 24.62 442.05 21.81L442.05 21.81Q442.05 18.40 443.71 16.05Q445.36 13.69 448.27 12.49Q451.18 11.28 454.84 11.28L454.84 11.28Q457.25 11.28 459.33 11.78Q461.41 12.28 463.21 13.19Q465.02 14.09 466.52 15.34L466.52 15.34Z" transform="translate(0, 0)"></path></g></svg></g></svg>