<svg viewBox="0 0 819.239990234375 819.239990234375" class="roots-wrapper"><g transform="rotate(0 0 0)"><svg viewBoxSize="819.239990234375" data-root-id="4350749840251" xmlns="http://www.w3.org/2000/svg" xmlns:xlink="http://www.w3.org/1999/xlink" version="1.1" id="Layer_1" x="219.63999511718748" y="317.1549987792969" viewBox="125 360.29998779296875 950 279.4000244140625" xml:space="preserve" height="111.74767973172874" width="379.9580993652344" preserveAspectRatio="xMinYMin" zoom="0.7" editorType="buyer" data-layer-role="icon" style="position: absolute; height: 111.748px; width: 379.958px; top: 317.155px; left: 219.64px;"><polygon class="st0" points="125,629.6 125,639.7 440.4,639.7 440.4,474 563.8,379.2 567.8,376.1 585.4,389.6 586.3,388.9    586.6,388.6 595,381.9 567.8,360.3 562.9,364.1 560.4,366.1 427.9,467.9 427.9,629.6  " name="Layer %{number}" zoom="0.7" data-layer-id="1012477540252" style="fill: rgb(179, 173, 173); fill-opacity: 1;"></polygon><rect x="607" y="494.4" class="st0" width="25.1" height="25.1" name="Layer %{number}" zoom="0.7" data-layer-id="2074566640252" style="fill: rgb(179, 173, 173); fill-opacity: 1;"></rect><rect x="567.9" y="494.4" class="st0" width="25.1" height="25.1" name="Layer %{number}" zoom="0.7" data-layer-id="6458642140252" style="fill: rgb(179, 173, 173); fill-opacity: 1;"></rect><polygon class="st1" points="472.2,487.5 472.2,639.7 727.8,639.7 727.8,487.5 722.4,483.2 615,397.8 605,405.7 632.9,428    709.9,489.4 715.3,493.7 715.3,629.6 484.7,629.6 484.7,493.7 594.3,406.3 596,404.9 600,401.7 600.5,401.4 632.2,376.1    636.2,379.2 759.6,474 759.6,639.7 1075,639.7 1075,629.6 772.1,629.6 772.1,467.9 639.6,366.1 637.1,364.1 632.2,360.3 604,382.7    600,385.9 590.5,393.4 590,393.8 586,397  " name="Layer %{number}" zoom="0.7" data-layer-id="6448458440252" style="fill: rgb(227, 0, 4); fill-opacity: 1;"></polygon><path class="st0" d="M607,530.8v25.1h25.1v-25.1H607z" name="Layer %{number}" zoom="0.7" data-layer-id="9069511440252" style="fill: rgb(179, 173, 173); fill-opacity: 1;"></path><rect x="607" y="530.8" class="st0" width="25.1" height="25.1" name="Layer %{number}" zoom="0.7" data-layer-id="4947108440252" style="fill: rgb(179, 173, 173); fill-opacity: 1;"></rect><rect x="567.9" y="530.8" class="st0" width="25.1" height="25.1" name="Layer %{number}" zoom="0.7" data-layer-id="6645930540252" style="fill: rgb(179, 173, 173); fill-opacity: 1;"></rect></svg></g><g transform="rotate(0 0 0)"><svg viewBoxSize="819.239990234375" data-root-id="1815949940252" xmlns="http://www.w3.org/2000/svg" y="482.1549987792969" viewBox="13.359999656677246 7.340000152587891 769.239990234375 19.93000030517578" x="24.999999389648437" height="19.93000030517578" width="769.239990234375" fontUrl="https://fonts.gstatic.com/s/montserrat/v26/JTUHjIg1_i6t8kCHKm4532VJOt5-QNFgpCtr6Ew-Y3tcoqK5.ttf" zoom="0.7" editorType="buyer" data-layer-role="slogan" style="position: absolute; top: 482.155px; width: 769.24px; height: 19.93px; left: 25px;"><g data-horizontal-grow="center" zoom="0.7" root="[object Object]" style="fill: rgb(179, 173, 173); fill-opacity: 1;"><path d="M23.25 27.10L21.20 27.10L21.20 19.82L21.68 21.11L13.36 7.50L15.58 7.50L22.88 19.46L21.71 19.46L29.02 7.50L31.09 7.50L22.77 21.11L23.25 19.82L23.25 27.10ZM48.88 27.27L48.88 27.27Q46.66 27.27 44.77 26.53Q42.88 25.79 41.50 24.43Q40.11 23.07 39.34 21.27Q38.57 19.46 38.57 17.30L38.57 17.30Q38.57 15.15 39.34 13.34Q40.11 11.54 41.50 10.18Q42.88 8.82 44.76 8.08Q46.64 7.34 48.88 7.34L48.88 7.34Q51.09 7.34 52.96 8.08Q54.84 8.82 56.23 10.16Q57.61 11.51 58.38 13.33Q59.15 15.15 59.15 17.30L59.15 17.30Q59.15 19.46 58.38 21.28Q57.61 23.10 56.23 24.44Q54.84 25.79 52.96 26.53Q51.09 27.27 48.88 27.27ZM48.88 25.42L48.88 25.42Q50.64 25.42 52.14 24.82Q53.64 24.22 54.74 23.11Q55.85 22.01 56.46 20.54Q57.08 19.07 57.08 17.30L57.08 17.30Q57.08 15.54 56.46 14.07Q55.85 12.60 54.74 11.49Q53.64 10.39 52.14 9.79Q50.64 9.18 48.88 9.18L48.88 9.18Q47.11 9.18 45.60 9.79Q44.09 10.39 42.98 11.49Q41.88 12.60 41.25 14.07Q40.62 15.54 40.62 17.30L40.62 17.30Q40.62 19.04 41.25 20.52Q41.88 22.01 42.98 23.11Q44.09 24.22 45.60 24.82Q47.11 25.42 48.88 25.42ZM77.70 27.27L77.70 27.27Q73.94 27.27 71.79 25.12Q69.63 22.96 69.63 18.73L69.63 18.73L69.63 7.50L71.70 7.50L71.70 18.65Q71.70 22.12 73.27 23.77Q74.84 25.42 77.70 25.42L77.70 25.42Q80.58 25.42 82.15 23.77Q83.72 22.12 83.72 18.65L83.72 18.65L83.72 7.50L85.73 7.50L85.73 18.73Q85.73 22.96 83.59 25.12Q81.45 27.27 77.70 27.27ZM100.05 27.10L97.98 27.10L97.98 7.50L105.31 7.50Q107.80 7.50 109.60 8.30Q111.39 9.10 112.35 10.60Q113.32 12.10 113.32 14.22L113.32 14.22Q113.32 16.30 112.35 17.79Q111.39 19.29 109.60 20.09Q107.80 20.89 105.31 20.89L105.31 20.89L99.12 20.89L100.05 19.94L100.05 27.10ZM113.63 27.10L111.36 27.10L106.32 19.99L108.56 19.99L113.63 27.10ZM100.05 8.32L100.05 20.10L99.12 19.12L105.26 19.12Q108.20 19.12 109.72 17.84Q111.25 16.55 111.25 14.22L111.25 14.22Q111.25 11.87 109.72 10.58Q108.20 9.30 105.26 9.30L105.26 9.30L99.12 9.30L100.05 8.32ZM146.07 27.27L146.07 27.27Q143.86 27.27 141.98 26.53Q140.10 25.79 138.73 24.44Q137.36 23.10 136.59 21.28Q135.82 19.46 135.82 17.30L135.82 17.30Q135.82 15.15 136.59 13.33Q137.36 11.51 138.75 10.16Q140.13 8.82 142.01 8.08Q143.88 7.34 146.10 7.34L146.10 7.34Q148.22 7.34 150.10 8.05Q151.98 8.76 153.26 10.19L153.26 10.19L151.95 11.51Q150.74 10.28 149.29 9.73Q147.83 9.18 146.15 9.18L146.15 9.18Q144.39 9.18 142.88 9.79Q141.36 10.39 140.24 11.49Q139.12 12.60 138.49 14.07Q137.86 15.54 137.86 17.30L137.86 17.30Q137.86 19.07 138.49 20.54Q139.12 22.01 140.24 23.11Q141.36 24.22 142.88 24.82Q144.39 25.42 146.15 25.42L146.15 25.42Q147.83 25.42 149.29 24.86Q150.74 24.30 151.95 23.07L151.95 23.07L153.26 24.39Q151.98 25.82 150.10 26.54Q148.22 27.27 146.07 27.27ZM172.26 27.27L172.26 27.27Q170.04 27.27 168.15 26.53Q166.26 25.79 164.88 24.43Q163.49 23.07 162.72 21.27Q161.95 19.46 161.95 17.30L161.95 17.30Q161.95 15.15 162.72 13.34Q163.49 11.54 164.88 10.18Q166.26 8.82 168.14 8.08Q170.02 7.34 172.26 7.34L172.26 7.34Q174.47 7.34 176.34 8.08Q178.22 8.82 179.61 10.16Q180.99 11.51 181.76 13.33Q182.53 15.15 182.53 17.30L182.53 17.30Q182.53 19.46 181.76 21.28Q180.99 23.10 179.61 24.44Q178.22 25.79 176.34 26.53Q174.47 27.27 172.26 27.27ZM172.26 25.42L172.26 25.42Q174.02 25.42 175.52 24.82Q177.02 24.22 178.12 23.11Q179.23 22.01 179.84 20.54Q180.46 19.07 180.46 17.30L180.46 17.30Q180.46 15.54 179.84 14.07Q179.23 12.60 178.12 11.49Q177.02 10.39 175.52 9.79Q174.02 9.18 172.26 9.18L172.26 9.18Q170.49 9.18 168.98 9.79Q167.47 10.39 166.36 11.49Q165.26 12.60 164.63 14.07Q164.00 15.54 164.00 17.30L164.00 17.30Q164.00 19.04 164.63 20.52Q165.26 22.01 166.36 23.11Q167.47 24.22 168.98 24.82Q170.49 25.42 172.26 25.42ZM195.17 27.10L193.18 27.10L193.18 7.50L194.89 7.50L203.85 22.79L202.95 22.79L211.83 7.50L213.54 7.50L213.54 27.10L211.55 27.10L211.55 10.61L212.02 10.61L203.85 24.61L202.87 24.61L194.64 10.61L195.17 10.61L195.17 27.10ZM227.99 27.10L225.92 27.10L225.92 7.50L233.26 7.50Q235.75 7.50 237.54 8.30Q239.33 9.10 240.30 10.60Q241.26 12.10 241.26 14.22L241.26 14.22Q241.26 16.30 240.30 17.79Q239.33 19.29 237.54 20.10Q235.75 20.92 233.26 20.92L233.26 20.92L227.07 20.92L227.99 19.94L227.99 27.10ZM227.99 8.32L227.99 20.10L227.07 19.10L233.20 19.10Q236.14 19.10 237.67 17.82Q239.19 16.55 239.19 14.22L239.19 14.22Q239.19 11.87 237.67 10.58Q236.14 9.30 233.20 9.30L233.20 9.30L227.07 9.30L227.99 8.32ZM265.07 27.10L252.02 27.10L252.02 7.50L254.10 7.50L254.10 25.31L265.07 25.31L265.07 27.10ZM276.36 18.03L276.36 16.27L286.72 16.27L286.72 18.03L276.36 18.03ZM276.59 9.30L276.59 25.31L288.38 25.31L288.38 27.10L274.52 27.10L274.52 7.50L287.96 7.50L287.96 9.30L276.59 9.30ZM305.13 27.10L303.06 27.10L303.06 9.30L296.17 9.30L296.17 7.50L312.02 7.50L312.02 9.30L305.13 9.30L305.13 27.10ZM323.17 18.03L323.17 16.27L333.53 16.27L333.53 18.03L323.17 18.03ZM323.39 9.30L323.39 25.31L335.18 25.31L335.18 27.10L321.32 27.10L321.32 7.50L334.76 7.50L334.76 9.30L323.39 9.30ZM373.72 27.10L373.72 7.50L375.77 7.50L375.77 27.10L373.72 27.10ZM361.46 7.50L361.46 27.10L359.39 27.10L359.39 7.50L361.46 7.50ZM373.92 16.24L373.92 18.06L361.24 18.06L361.24 16.24L373.92 16.24ZM387.17 27.10L385.02 27.10L393.98 7.50L396.02 7.50L404.98 27.10L402.80 27.10L394.56 8.71L395.40 8.71L387.17 27.10ZM401.17 21.87L388.54 21.87L389.16 20.19L400.56 20.19L401.17 21.87ZM416.30 27.10L414.23 27.10L414.23 7.50L415.94 7.50L429.46 24.53L428.56 24.53L428.56 7.50L430.61 7.50L430.61 27.10L428.90 27.10L415.40 10.08L416.30 10.08L416.30 27.10ZM450.97 27.10L442.99 27.10L442.99 7.50L450.97 7.50Q454.11 7.50 456.47 8.75Q458.84 10.00 460.16 12.21Q461.47 14.42 461.47 17.30L461.47 17.30Q461.47 20.19 460.16 22.40Q458.84 24.61 456.47 25.86Q454.11 27.10 450.97 27.10L450.97 27.10ZM445.06 9.30L445.06 25.31L450.86 25.31Q453.46 25.31 455.38 24.29Q457.30 23.27 458.36 21.46Q459.43 19.66 459.43 17.30L459.43 17.30Q459.43 14.92 458.36 13.13Q457.30 11.34 455.38 10.32Q453.46 9.30 450.86 9.30L450.86 9.30L445.06 9.30ZM478.84 27.10L476.80 27.10L476.80 19.82L477.27 21.11L468.96 7.50L471.17 7.50L478.48 19.46L477.30 19.46L484.61 7.50L486.68 7.50L478.36 21.11L478.84 19.82L478.84 27.10ZM497.89 27.10L495.90 27.10L495.90 7.50L497.61 7.50L506.57 22.79L505.67 22.79L514.55 7.50L516.26 7.50L516.26 27.10L514.27 27.10L514.27 10.61L514.74 10.61L506.57 24.61L505.59 24.61L497.36 10.61L497.89 10.61L497.89 27.10ZM527.66 27.10L525.50 27.10L534.46 7.50L536.51 7.50L545.47 27.10L543.28 27.10L535.05 8.71L535.89 8.71L527.66 27.10ZM541.66 21.87L529.03 21.87L529.65 20.19L541.04 20.19L541.66 21.87ZM556.79 27.10L554.72 27.10L554.72 7.50L556.42 7.50L569.95 24.53L569.05 24.53L569.05 7.50L571.10 7.50L571.10 27.10L569.39 27.10L555.89 10.08L556.79 10.08L556.79 27.10ZM602.22 27.27L602.22 27.27Q600.04 27.27 598.03 26.56Q596.03 25.84 594.94 24.72L594.94 24.72L595.75 23.13Q596.79 24.14 598.54 24.82Q600.29 25.51 602.22 25.51L602.22 25.51Q604.07 25.51 605.23 25.05Q606.39 24.58 606.94 23.80Q607.48 23.02 607.48 22.06L607.48 22.06Q607.48 20.92 606.83 20.22Q606.17 19.52 605.10 19.11Q604.04 18.70 602.75 18.40Q601.46 18.09 600.18 17.74Q598.89 17.39 597.81 16.80Q596.73 16.21 596.07 15.25Q595.42 14.28 595.42 12.71L595.42 12.71Q595.42 11.26 596.19 10.04Q596.96 8.82 598.55 8.08Q600.15 7.34 602.64 7.34L602.64 7.34Q604.29 7.34 605.92 7.80Q607.54 8.26 608.72 9.07L608.72 9.07L608.02 10.72Q606.76 9.88 605.34 9.49Q603.93 9.10 602.61 9.10L602.61 9.10Q600.85 9.10 599.70 9.58Q598.55 10.05 598.01 10.85Q597.46 11.65 597.46 12.66L597.46 12.66Q597.46 13.80 598.12 14.50Q598.78 15.20 599.85 15.60Q600.93 15.99 602.22 16.30Q603.51 16.60 604.78 16.97Q606.06 17.33 607.13 17.91Q608.21 18.48 608.87 19.43Q609.53 20.38 609.53 21.92L609.53 21.92Q609.53 23.35 608.74 24.57Q607.96 25.79 606.35 26.53Q604.74 27.27 602.22 27.27ZM628.60 27.27L628.60 27.27Q626.39 27.27 624.50 26.53Q622.61 25.79 621.23 24.43Q619.84 23.07 619.07 21.27Q618.30 19.46 618.30 17.30L618.30 17.30Q618.30 15.15 619.07 13.34Q619.84 11.54 621.23 10.18Q622.61 8.82 624.49 8.08Q626.36 7.34 628.60 7.34L628.60 7.34Q630.82 7.34 632.69 8.08Q634.57 8.82 635.95 10.16Q637.34 11.51 638.11 13.33Q638.88 15.15 638.88 17.30L638.88 17.30Q638.88 19.46 638.11 21.28Q637.34 23.10 635.95 24.44Q634.57 25.79 632.69 26.53Q630.82 27.27 628.60 27.27ZM628.60 25.42L628.60 25.42Q630.37 25.42 631.87 24.82Q633.36 24.22 634.47 23.11Q635.58 22.01 636.19 20.54Q636.81 19.07 636.81 17.30L636.81 17.30Q636.81 15.54 636.19 14.07Q635.58 12.60 634.47 11.49Q633.36 10.39 631.87 9.79Q630.37 9.18 628.60 9.18L628.60 9.18Q626.84 9.18 625.33 9.79Q623.82 10.39 622.71 11.49Q621.60 12.60 620.97 14.07Q620.34 15.54 620.34 17.30L620.34 17.30Q620.34 19.04 620.97 20.52Q621.60 22.01 622.71 23.11Q623.82 24.22 625.33 24.82Q626.84 25.42 628.60 25.42ZM662.58 27.10L649.53 27.10L649.53 7.50L651.60 7.50L651.60 25.31L662.58 25.31L662.58 27.10ZM679.92 27.27L679.92 27.27Q676.16 27.27 674.01 25.12Q671.85 22.96 671.85 18.73L671.85 18.73L671.85 7.50L673.92 7.50L673.92 18.65Q673.92 22.12 675.49 23.77Q677.06 25.42 679.92 25.42L679.92 25.42Q682.80 25.42 684.37 23.77Q685.94 22.12 685.94 18.65L685.94 18.65L685.94 7.50L687.95 7.50L687.95 18.73Q687.95 22.96 685.81 25.12Q683.67 27.27 679.92 27.27ZM706.08 27.10L704.00 27.10L704.00 9.30L697.12 9.30L697.12 7.50L712.96 7.50L712.96 9.30L706.08 9.30L706.08 27.10ZM724.34 27.10L722.27 27.10L722.27 7.50L724.34 7.50L724.34 27.10ZM745.29 27.27L745.29 27.27Q743.08 27.27 741.19 26.53Q739.30 25.79 737.91 24.43Q736.53 23.07 735.76 21.27Q734.99 19.46 734.99 17.30L734.99 17.30Q734.99 15.15 735.76 13.34Q736.53 11.54 737.91 10.18Q739.30 8.82 741.18 8.08Q743.05 7.34 745.29 7.34L745.29 7.34Q747.50 7.34 749.38 8.08Q751.26 8.82 752.64 10.16Q754.03 11.51 754.80 13.33Q755.57 15.15 755.57 17.30L755.57 17.30Q755.57 19.46 754.80 21.28Q754.03 23.10 752.64 24.44Q751.26 25.79 749.38 26.53Q747.50 27.27 745.29 27.27ZM745.29 25.42L745.29 25.42Q747.06 25.42 748.55 24.82Q750.05 24.22 751.16 23.11Q752.26 22.01 752.88 20.54Q753.50 19.07 753.50 17.30L753.50 17.30Q753.50 15.54 752.88 14.07Q752.26 12.60 751.16 11.49Q750.05 10.39 748.55 9.79Q747.06 9.18 745.29 9.18L745.29 9.18Q743.53 9.18 742.02 9.79Q740.50 10.39 739.40 11.49Q738.29 12.60 737.66 14.07Q737.03 15.54 737.03 17.30L737.03 17.30Q737.03 19.04 737.66 20.52Q738.29 22.01 739.40 23.11Q740.50 24.22 742.02 24.82Q743.53 25.42 745.29 25.42ZM768.29 27.10L766.22 27.10L766.22 7.50L767.92 7.50L781.45 24.53L780.55 24.53L780.55 7.50L782.60 7.50L782.60 27.10L780.89 27.10L767.39 10.08L768.29 10.08L768.29 27.10Z" transform="translate(0, 0)"></path></g></svg></g><g transform="rotate(0 0 0)"><svg viewBoxSize="819.239990234375" data-root-id="8030906340252" xmlns="http://www.w3.org/2000/svg" y="437.1549987792969" viewBox="0.2199999988079071 14.149999618530273 522.550048828125 38.44999694824219" x="148.34490966796875" height="38.44999694824219" width="522.550048828125" fontUrl="https://fonts.gstatic.com/s/montserrat/v26/JTUHjIg1_i6t8kCHKm4532VJOt5-QNFgpCtr6Ew-Y3tcoqK5.ttf" zoom="0.7" editorType="buyer" data-layer-role="brandName" style="position: absolute; top: 437.155px; width: 522.55px; height: 38.45px; left: 148.345px;"><g data-horizontal-grow="center" zoom="0.7" root="[object Object]" style="fill: rgb(227, 0, 4); fill-opacity: 1;"><path d="M17.50 52.27L13.50 52.27L13.50 17.93L0.22 17.93L0.22 14.47L30.78 14.47L30.78 17.93L17.50 17.93L17.50 52.27ZM53.68 52.60L53.68 52.60Q49.41 52.60 45.77 51.16Q42.12 49.73 39.45 47.11Q36.77 44.50 35.29 41.01Q33.80 37.53 33.80 33.37L33.80 33.37Q33.80 29.21 35.29 25.73Q36.77 22.25 39.45 19.63Q42.12 17.01 45.74 15.58Q49.36 14.15 53.68 14.15L53.68 14.15Q57.94 14.15 61.56 15.58Q65.18 17.01 67.85 19.60Q70.52 22.19 72.01 25.70Q73.49 29.21 73.49 33.37L73.49 33.37Q73.49 37.53 72.01 41.04Q70.52 44.55 67.85 47.14Q65.18 49.73 61.56 51.16Q57.94 52.60 53.68 52.60ZM53.68 49.03L53.68 49.03Q57.08 49.03 59.97 47.87Q62.86 46.71 64.99 44.58Q67.12 42.44 68.31 39.61Q69.50 36.77 69.50 33.37L69.50 33.37Q69.50 29.97 68.31 27.13Q67.12 24.30 64.99 22.17Q62.86 20.03 59.97 18.87Q57.08 17.71 53.68 17.71L53.68 17.71Q50.27 17.71 47.36 18.87Q44.44 20.03 42.31 22.17Q40.18 24.30 38.96 27.13Q37.75 29.97 37.75 33.37L37.75 33.37Q37.75 36.72 38.96 39.58Q40.18 42.44 42.31 44.58Q44.44 46.71 47.36 47.87Q50.27 49.03 53.68 49.03ZM93.80 52.27L89.80 52.27L89.80 17.93L76.52 17.93L76.52 14.47L107.08 14.47L107.08 17.93L93.80 17.93L93.80 52.27ZM111.56 52.27L107.41 52.27L124.69 14.47L128.63 14.47L145.91 52.27L141.70 52.27L125.82 16.79L127.44 16.79L111.56 52.27ZM138.56 42.17L114.21 42.17L115.40 38.93L137.38 38.93L138.56 42.17ZM177.34 52.27L152.17 52.27L152.17 14.47L156.17 14.47L156.17 48.82L177.34 48.82L177.34 52.27ZM194.40 52.60L194.40 52.60Q190.19 52.60 186.33 51.22Q182.47 49.84 180.36 47.68L180.36 47.68L181.93 44.60Q183.92 46.55 187.30 47.87Q190.67 49.19 194.40 49.19L194.40 49.19Q197.96 49.19 200.21 48.30Q202.45 47.41 203.50 45.90Q204.55 44.39 204.55 42.55L204.55 42.55Q204.55 40.34 203.28 38.99Q202.01 37.64 199.96 36.85Q197.91 36.07 195.43 35.48Q192.94 34.88 190.46 34.21Q187.97 33.53 185.90 32.40Q183.82 31.27 182.55 29.40Q181.28 27.54 181.28 24.52L181.28 24.52Q181.28 21.71 182.76 19.36Q184.25 17.01 187.33 15.58Q190.40 14.15 195.21 14.15L195.21 14.15Q198.40 14.15 201.53 15.04Q204.66 15.93 206.93 17.50L206.93 17.50L205.58 20.68Q203.15 19.06 200.42 18.31Q197.69 17.55 195.16 17.55L195.16 17.55Q191.75 17.55 189.54 18.47Q187.33 19.39 186.27 20.92Q185.22 22.46 185.22 24.41L185.22 24.41Q185.22 26.62 186.49 27.97Q187.76 29.32 189.84 30.08Q191.92 30.83 194.40 31.43Q196.88 32.02 199.34 32.72Q201.80 33.43 203.88 34.53Q205.96 35.64 207.22 37.48Q208.49 39.31 208.49 42.28L208.49 42.28Q208.49 45.04 206.98 47.38Q205.47 49.73 202.37 51.16Q199.26 52.60 194.40 52.60ZM221.18 52.27L217.19 52.27L217.19 14.47L231.34 14.47Q236.14 14.47 239.60 16.01Q243.05 17.55 244.92 20.44Q246.78 23.33 246.78 27.43L246.78 27.43Q246.78 31.43 244.92 34.32Q243.05 37.21 239.60 38.77Q236.14 40.34 231.34 40.34L231.34 40.34L219.40 40.34L221.18 38.45L221.18 52.27ZM221.18 16.04L221.18 38.77L219.40 36.83L231.23 36.83Q236.90 36.83 239.84 34.37Q242.78 31.91 242.78 27.43L242.78 27.43Q242.78 22.90 239.84 20.41Q236.90 17.93 231.23 17.93L231.23 17.93L219.40 17.93L221.18 16.04ZM259.52 34.78L259.52 31.37L279.50 31.37L279.50 34.78L259.52 34.78ZM259.96 17.93L259.96 48.82L282.69 48.82L282.69 52.27L255.96 52.27L255.96 14.47L281.88 14.47L281.88 17.93L259.96 17.93ZM308.50 52.60L308.50 52.60Q304.24 52.60 300.62 51.16Q297 49.73 294.35 47.14Q291.71 44.55 290.22 41.04Q288.74 37.53 288.74 33.37L288.74 33.37Q288.74 29.21 290.22 25.70Q291.71 22.19 294.38 19.60Q297.05 17.01 300.67 15.58Q304.29 14.15 308.56 14.15L308.56 14.15Q312.66 14.15 316.28 15.52Q319.90 16.90 322.38 19.66L322.38 19.66L319.84 22.19Q317.52 19.82 314.71 18.77Q311.90 17.71 308.66 17.71L308.66 17.71Q305.26 17.71 302.35 18.87Q299.43 20.03 297.27 22.17Q295.11 24.30 293.89 27.13Q292.68 29.97 292.68 33.37L292.68 33.37Q292.68 36.77 293.89 39.61Q295.11 42.44 297.27 44.58Q299.43 46.71 302.35 47.87Q305.26 49.03 308.66 49.03L308.66 49.03Q311.90 49.03 314.71 47.95Q317.52 46.87 319.84 44.50L319.84 44.50L322.38 47.03Q319.90 49.79 316.28 51.19Q312.66 52.60 308.50 52.60ZM334.91 52.27L330.91 52.27L330.91 14.47L334.91 14.47L334.91 52.27ZM345.33 52.27L341.17 52.27L358.45 14.47L362.39 14.47L379.67 52.27L375.46 52.27L359.59 16.79L361.21 16.79L345.33 52.27ZM372.33 42.17L347.98 42.17L349.16 38.93L371.14 38.93L372.33 42.17ZM411.10 52.27L385.94 52.27L385.94 14.47L389.93 14.47L389.93 48.82L411.10 48.82L411.10 52.27ZM421.74 52.27L417.74 52.27L417.74 14.47L421.74 14.47L421.74 52.27ZM444.47 52.60L444.47 52.60Q440.26 52.60 436.40 51.22Q432.54 49.84 430.43 47.68L430.43 47.68L432 44.60Q434.00 46.55 437.37 47.87Q440.75 49.19 444.47 49.19L444.47 49.19Q448.04 49.19 450.28 48.30Q452.52 47.41 453.57 45.90Q454.63 44.39 454.63 42.55L454.63 42.55Q454.63 40.34 453.36 38.99Q452.09 37.64 450.04 36.85Q447.98 36.07 445.50 35.48Q443.02 34.88 440.53 34.21Q438.05 33.53 435.97 32.40Q433.89 31.27 432.62 29.40Q431.35 27.54 431.35 24.52L431.35 24.52Q431.35 21.71 432.84 19.36Q434.32 17.01 437.40 15.58Q440.48 14.15 445.28 14.15L445.28 14.15Q448.47 14.15 451.60 15.04Q454.73 15.93 457.00 17.50L457.00 17.50L455.65 20.68Q453.22 19.06 450.50 18.31Q447.77 17.55 445.23 17.55L445.23 17.55Q441.83 17.55 439.61 18.47Q437.40 19.39 436.35 20.92Q435.29 22.46 435.29 24.41L435.29 24.41Q435.29 26.62 436.56 27.97Q437.83 29.32 439.91 30.08Q441.99 30.83 444.47 31.43Q446.96 32.02 449.42 32.72Q451.87 33.43 453.95 34.53Q456.03 35.64 457.30 37.48Q458.57 39.31 458.57 42.28L458.57 42.28Q458.57 45.04 457.06 47.38Q455.54 49.73 452.44 51.16Q449.33 52.60 444.47 52.60ZM478.60 52.27L474.61 52.27L474.61 17.93L461.32 17.93L461.32 14.47L491.89 14.47L491.89 17.93L478.60 17.93L478.60 52.27ZM508.68 52.60L508.68 52.60Q504.47 52.60 500.61 51.22Q496.75 49.84 494.64 47.68L494.64 47.68L496.21 44.60Q498.20 46.55 501.58 47.87Q504.95 49.19 508.68 49.19L508.68 49.19Q512.24 49.19 514.49 48.30Q516.73 47.41 517.78 45.90Q518.83 44.39 518.83 42.55L518.83 42.55Q518.83 40.34 517.56 38.99Q516.29 37.64 514.24 36.85Q512.19 36.07 509.71 35.48Q507.22 34.88 504.74 34.21Q502.25 33.53 500.17 32.40Q498.10 31.27 496.83 29.40Q495.56 27.54 495.56 24.52L495.56 24.52Q495.56 21.71 497.04 19.36Q498.53 17.01 501.61 15.58Q504.68 14.15 509.49 14.15L509.49 14.15Q512.68 14.15 515.81 15.04Q518.94 15.93 521.21 17.50L521.21 17.50L519.86 20.68Q517.43 19.06 514.70 18.31Q511.97 17.55 509.44 17.55L509.44 17.55Q506.03 17.55 503.82 18.47Q501.61 19.39 500.55 20.92Q499.50 22.46 499.50 24.41L499.50 24.41Q499.50 26.62 500.77 27.97Q502.04 29.32 504.12 30.08Q506.20 30.83 508.68 31.43Q511.16 32.02 513.62 32.72Q516.08 33.43 518.16 34.53Q520.24 35.64 521.50 37.48Q522.77 39.31 522.77 42.28L522.77 42.28Q522.77 45.04 521.26 47.38Q519.75 49.73 516.64 51.16Q513.54 52.60 508.68 52.60Z" transform="translate(0, 0)"></path></g></svg></g></svg>