<svg viewBox="0 0 575 575" class="roots-wrapper"><g transform="rotate(180 117.22594833374023 287.49999237060547)"><svg viewBoxSize="575" data-root-id="6380421447162" xmlns="http://www.w3.org/2000/svg" viewBox="0.15612800419330597 0 206.8438720703125 204.875" fill="none" height="208.00110396951345" width="210" y="183.49944038584874" x="12.225948333740234" preserveAspectRatio="xMinYMin" zoom="1" editorType="buyer" data-layer-role="icon" style="position: absolute; height: 208.001px; width: 210px; top: 183.499px; left: 12.2259px; transform: rotate(180deg);"><path fill-rule="evenodd" clip-rule="evenodd" d="M0.156128 0H108.408V36.4792L207 36.5785V204.875L104.408 166.815V135.16H108.408V164.032L203 199.125V40.5744L108.408 40.4792V64.6033H104.408V40.4751L40.7498 40.411L0.156128 0ZM104.408 36.4751V4H9.84386L42.4031 36.4127L104.408 36.4751Z" fill="url(#paint0_linear_24837_1868)" name="Layer %{number}" zoom="1" data-layer-id="8917642247162" style="fill: rgb(0, 0, 0); fill-opacity: 1;"></path><linearGradient id="paint0_linear_24837_1868" x1="5" y1="-107.043" x2="205" y2="223.277" gradientUnits="userSpaceOnUse" name="Layer %{number}" zoom="1" data-layer-id="4214297847162"><stop stop-color="#E7D7BC"></stop><stop offset="1" stop-color="#9B7E62"></stop></linearGradient></svg></g><g transform="rotate(0 0 0)"><svg viewBoxSize="575" data-root-id="2266136647162" xmlns="http://www.w3.org/2000/svg" y="327.99962615966797" viewBox="8.399999618530273 -0.05000000447034836 430.83001708984375 13.190000534057617" x="131.94400009155274" height="13.190000534057617" width="430.83001708984375" fontUrl="https://fonts.gstatic.com/s/josefinsans/v32/Qw3PZQNVED7rKGKxtqIqX5E-AVSJrOCfjY46_DjQXMFrLgTsQV0.ttf" zoom="1" editorType="buyer" data-layer-role="slogan" style="position: absolute; top: 328px; width: 430.83px; height: 13.19px; left: 131.944px;"><g data-horizontal-grow="left" zoom="1" root="[object Object]" style="fill: rgb(0, 0, 0); fill-opacity: 0.7;"><path d="M12.95 12.75L12.95 8.65L8.40 0.46L10.42 0.46L14.08 7.24L13.57 7.28L17.19 0.46L19.19 0.46L14.60 8.65L14.60 12.75L12.95 12.75ZM22.24 6.61L22.24 6.61Q22.24 5.34 22.72 4.21Q23.21 3.08 24.07 2.20Q24.94 1.33 26.07 0.82Q27.20 0.32 28.51 0.32L28.51 0.32Q29.80 0.32 30.93 0.82Q32.06 1.33 32.94 2.20Q33.81 3.08 34.31 4.21Q34.80 5.34 34.80 6.61L34.80 6.61Q34.80 7.92 34.31 9.06Q33.81 10.20 32.95 11.06Q32.08 11.92 30.94 12.40Q29.80 12.89 28.51 12.89L28.51 12.89Q27.20 12.89 26.07 12.41Q24.94 11.93 24.07 11.08Q23.21 10.23 22.72 9.10Q22.24 7.96 22.24 6.61ZM23.94 6.63L23.94 6.63Q23.94 7.60 24.29 8.44Q24.65 9.28 25.28 9.93Q25.91 10.57 26.74 10.94Q27.57 11.31 28.54 11.31L28.54 11.31Q29.50 11.31 30.33 10.94Q31.16 10.57 31.77 9.93Q32.39 9.28 32.74 8.44Q33.10 7.60 33.10 6.61L33.10 6.61Q33.10 5.64 32.74 4.79Q32.39 3.93 31.76 3.28Q31.13 2.64 30.29 2.27Q29.46 1.90 28.51 1.90L28.51 1.90Q27.54 1.90 26.71 2.28Q25.87 2.65 25.25 3.30Q24.62 3.94 24.28 4.80Q23.94 5.66 23.94 6.63ZM41.60 0.46L41.60 8.40Q41.60 9.23 42.00 9.89Q42.40 10.54 43.06 10.91Q43.72 11.29 44.56 11.29L44.56 11.29Q45.42 11.29 46.10 10.91Q46.78 10.54 47.18 9.89Q47.57 9.23 47.57 8.40L47.57 8.40L47.57 0.46L49.18 0.46L49.18 8.45Q49.18 9.79 48.56 10.80Q47.94 11.80 46.89 12.34Q45.85 12.89 44.56 12.89L44.56 12.89L44.56 12.89Q43.27 12.89 42.23 12.34Q41.19 11.80 40.58 10.80Q39.97 9.79 39.97 8.45L39.97 8.45L39.97 0.46L41.60 0.46ZM55.10 0.46L58.36 0.46Q59.30 0.46 60.09 0.71Q60.88 0.95 61.46 1.44Q62.05 1.92 62.38 2.63Q62.71 3.33 62.71 4.27L62.71 4.27Q62.71 5.00 62.50 5.70Q62.29 6.39 61.80 6.96Q61.30 7.53 60.51 7.88Q59.72 8.23 58.56 8.23L58.56 8.23L56.75 8.23L56.75 12.75L55.10 12.75L55.10 0.46ZM56.75 6.65L58.53 6.65Q59.26 6.65 59.75 6.43Q60.23 6.21 60.50 5.86Q60.77 5.51 60.89 5.10Q61.01 4.69 61.01 4.34L61.01 4.34Q61.01 3.96 60.89 3.56Q60.76 3.16 60.48 2.82Q60.20 2.48 59.75 2.26Q59.30 2.04 58.65 2.04L58.65 2.04L56.75 2.04L56.75 6.65ZM58.60 7.63L60.55 7.58L63.77 12.75L61.86 12.75L58.60 7.63ZM85.10 10.37L85.80 11.83Q85.49 12.04 84.97 12.29Q84.44 12.55 83.73 12.72Q83.03 12.89 82.19 12.89L82.19 12.89Q80.77 12.87 79.62 12.38Q78.47 11.88 77.67 11.03Q76.87 10.18 76.44 9.07Q76.01 7.96 76.01 6.70L76.01 6.70Q76.01 5.32 76.46 4.16Q76.91 2.99 77.72 2.13Q78.54 1.28 79.65 0.80Q80.77 0.32 82.09 0.32L82.09 0.32Q83.20 0.32 84.10 0.62Q85.00 0.92 85.65 1.33L85.65 1.33L84.98 2.86Q84.47 2.52 83.75 2.21Q83.03 1.90 82.14 1.90L82.14 1.90Q81.24 1.90 80.44 2.26Q79.64 2.62 79.03 3.26Q78.42 3.91 78.07 4.77Q77.72 5.63 77.72 6.61L77.72 6.61Q77.72 7.62 78.04 8.47Q78.35 9.33 78.94 9.96Q79.53 10.59 80.36 10.95Q81.19 11.31 82.23 11.31L82.23 11.31Q83.16 11.31 83.89 11.02Q84.63 10.73 85.10 10.37L85.10 10.37ZM90.35 6.61L90.35 6.61Q90.35 5.34 90.84 4.21Q91.32 3.08 92.19 2.20Q93.06 1.33 94.19 0.82Q95.32 0.32 96.63 0.32L96.63 0.32Q97.92 0.32 99.05 0.82Q100.18 1.33 101.06 2.20Q101.93 3.08 102.42 4.21Q102.92 5.34 102.92 6.61L102.92 6.61Q102.92 7.92 102.42 9.06Q101.93 10.20 101.06 11.06Q100.20 11.92 99.06 12.40Q97.92 12.89 96.63 12.89L96.63 12.89Q95.32 12.89 94.19 12.41Q93.06 11.93 92.19 11.08Q91.32 10.23 90.84 9.10Q90.35 7.96 90.35 6.61ZM92.05 6.63L92.05 6.63Q92.05 7.60 92.41 8.44Q92.77 9.28 93.40 9.93Q94.03 10.57 94.86 10.94Q95.69 11.31 96.66 11.31L96.66 11.31Q97.61 11.31 98.45 10.94Q99.28 10.57 99.89 9.93Q100.50 9.28 100.86 8.44Q101.22 7.60 101.22 6.61L101.22 6.61Q101.22 5.64 100.86 4.79Q100.50 3.93 99.87 3.28Q99.25 2.64 98.41 2.27Q97.58 1.90 96.63 1.90L96.63 1.90Q95.66 1.90 94.83 2.28Q93.99 2.65 93.36 3.30Q92.73 3.94 92.39 4.80Q92.05 5.66 92.05 6.63ZM109.84 12.75L108.24 12.75L108.24 0.07L108.26 0.07L114.70 9.21L114.00 9.08L120.43 0.07L120.46 0.07L120.46 12.75L118.83 12.75L118.83 3.81L118.93 4.64L114.29 11.20L114.26 11.20L109.55 4.64L109.84 3.88L109.84 12.75ZM126.55 0.46L129.83 0.46Q131.17 0.46 132.12 0.91Q133.08 1.36 133.59 2.21Q134.11 3.06 134.11 4.27L134.11 4.27Q134.11 5.00 133.89 5.70Q133.67 6.41 133.19 6.98Q132.70 7.55 131.92 7.89Q131.14 8.23 130.02 8.23L130.02 8.23L128.20 8.23L128.20 12.75L126.55 12.75L126.55 0.46ZM128.20 6.65L130.00 6.65Q130.73 6.65 131.21 6.41Q131.68 6.17 131.95 5.81Q132.23 5.44 132.34 5.03Q132.46 4.62 132.46 4.30L132.46 4.30Q132.46 3.93 132.34 3.53Q132.23 3.13 131.95 2.80Q131.66 2.47 131.21 2.25Q130.76 2.04 130.10 2.04L130.10 2.04L128.20 2.04L128.20 6.65ZM139.21 12.75L139.21 0.46L140.86 0.46L140.86 11.17L147.10 11.17L147.10 12.75L139.21 12.75ZM152.34 12.75L152.34 0.46L160.33 0.46L160.33 2.04L153.99 2.04L153.99 5.78L159.65 5.78L159.65 7.36L153.99 7.36L153.99 11.17L160.57 11.17L160.57 12.75L152.34 12.75ZM165.07 2.04L165.07 0.46L173.23 0.46L173.23 2.04L169.93 2.04L169.93 12.75L168.28 12.75L168.28 2.04L165.07 2.04ZM178.40 12.75L178.40 0.46L186.39 0.46L186.39 2.04L180.05 2.04L180.05 5.78L185.71 5.78L185.71 7.36L180.05 7.36L180.05 11.17L186.63 11.17L186.63 12.75L178.40 12.75ZM208.05 0.46L209.68 0.46L209.68 12.75L208.05 12.75L208.05 7.36L201.60 7.36L201.60 12.75L199.95 12.75L199.95 0.46L201.60 0.46L201.60 5.80L208.05 5.80L208.05 0.46ZM216.16 12.75L214.54 12.75L219.91-0.05L220.01-0.05L225.37 12.75L223.48 12.75L219.47 2.53L220.64 1.77L216.16 12.75ZM217.21 9.52L217.69 8.09L222.26 8.09L222.80 9.52L217.21 9.52ZM240.92 13.14L240.87 13.14L231.37 3.50L231.85 3.62L231.88 12.75L230.23 12.75L230.23 0.09L230.32 0.09L239.72 9.76L239.33 9.67L239.29 0.46L240.92 0.46L240.92 13.14ZM250.95 12.75L247.01 12.75L247.01 0.46L250.36 0.46Q252.18 0.46 253.46 1.02Q254.75 1.58 255.53 2.50Q256.31 3.42 256.67 4.53Q257.04 5.64 257.04 6.75L257.04 6.75Q257.04 8.14 256.56 9.25Q256.07 10.35 255.22 11.14Q254.37 11.92 253.27 12.33Q252.18 12.75 250.95 12.75L250.95 12.75ZM248.66 2.04L248.66 11.17L250.63 11.17Q251.65 11.17 252.51 10.86Q253.37 10.56 254.01 9.98Q254.64 9.40 255.00 8.56Q255.36 7.72 255.36 6.65L255.36 6.65Q255.36 5.51 254.98 4.65Q254.61 3.79 253.96 3.21Q253.32 2.64 252.50 2.34Q251.69 2.04 250.78 2.04L250.78 2.04L248.66 2.04ZM265.08 12.75L265.08 8.65L260.53 0.46L262.55 0.46L266.20 7.24L265.69 7.28L269.31 0.46L271.32 0.46L266.73 8.65L266.73 12.75L265.08 12.75ZM277.71 12.75L276.11 12.75L276.11 0.07L276.13 0.07L282.57 9.21L281.88 9.08L288.30 0.07L288.34 0.07L288.34 12.75L286.71 12.75L286.71 3.81L286.81 4.64L282.17 11.20L282.13 11.20L277.42 4.64L277.71 3.88L277.71 12.75ZM294.81 12.75L293.20 12.75L298.57-0.05L298.67-0.05L304.03 12.75L302.14 12.75L298.13 2.53L299.30 1.77L294.81 12.75ZM295.87 9.52L296.34 8.09L300.92 8.09L301.46 9.52L295.87 9.52ZM319.58 13.14L319.53 13.14L310.03 3.50L310.51 3.62L310.54 12.75L308.89 12.75L308.89 0.09L308.98 0.09L318.38 9.76L317.99 9.67L317.95 0.46L319.58 0.46L319.58 13.14ZM340.58 1.38L339.95 2.65Q339.32 2.33 338.57 2.09Q337.82 1.85 337.11 1.85L337.11 1.85Q336.12 1.85 335.54 2.31Q334.95 2.77 334.95 3.54L334.95 3.54Q334.95 4.11 335.33 4.51Q335.70 4.91 336.31 5.20Q336.92 5.49 337.59 5.75L337.59 5.75Q338.16 5.97 338.73 6.24Q339.29 6.51 339.74 6.92Q340.19 7.33 340.45 7.92Q340.71 8.52 340.71 9.40L340.71 9.40Q340.71 10.37 340.23 11.17Q339.75 11.97 338.84 12.43Q337.94 12.89 336.70 12.89L336.70 12.89Q335.89 12.89 335.15 12.70Q334.41 12.51 333.78 12.21Q333.15 11.92 332.66 11.59L332.66 11.59L333.39 10.30Q333.80 10.59 334.32 10.85Q334.85 11.12 335.43 11.28Q336.01 11.44 336.55 11.44L336.55 11.44Q337.13 11.44 337.70 11.23Q338.27 11.02 338.64 10.57Q339.01 10.13 339.01 9.40L339.01 9.40Q339.01 8.77 338.68 8.36Q338.35 7.94 337.81 7.64Q337.26 7.34 336.65 7.11L336.65 7.11Q336.07 6.89 335.48 6.62Q334.88 6.36 334.37 5.98Q333.86 5.59 333.56 5.03Q333.25 4.47 333.25 3.67L333.25 3.67Q333.25 2.70 333.72 1.98Q334.19 1.26 335.00 0.84Q335.82 0.43 336.87 0.39L336.87 0.39Q338.06 0.39 338.97 0.68Q339.88 0.97 340.58 1.38L340.58 1.38ZM345.27 6.61L345.27 6.61Q345.27 5.34 345.75 4.21Q346.24 3.08 347.11 2.20Q347.97 1.33 349.10 0.82Q350.23 0.32 351.54 0.32L351.54 0.32Q352.84 0.32 353.97 0.82Q355.10 1.33 355.97 2.20Q356.85 3.08 357.34 4.21Q357.83 5.34 357.83 6.61L357.83 6.61Q357.83 7.92 357.34 9.06Q356.85 10.20 355.98 11.06Q355.11 11.92 353.97 12.40Q352.84 12.89 351.54 12.89L351.54 12.89Q350.23 12.89 349.10 12.41Q347.97 11.93 347.11 11.08Q346.24 10.23 345.75 9.10Q345.27 7.96 345.27 6.61ZM346.97 6.63L346.97 6.63Q346.97 7.60 347.33 8.44Q347.68 9.28 348.31 9.93Q348.94 10.57 349.78 10.94Q350.61 11.31 351.58 11.31L351.58 11.31Q352.53 11.31 353.36 10.94Q354.20 10.57 354.81 9.93Q355.42 9.28 355.78 8.44Q356.13 7.60 356.13 6.61L356.13 6.61Q356.13 5.64 355.78 4.79Q355.42 3.93 354.79 3.28Q354.16 2.64 353.33 2.27Q352.50 1.90 351.54 1.90L351.54 1.90Q350.57 1.90 349.74 2.28Q348.91 2.65 348.28 3.30Q347.65 3.94 347.31 4.80Q346.97 5.66 346.97 6.63ZM363.15 12.75L363.15 0.46L364.80 0.46L364.80 11.17L371.04 11.17L371.04 12.75L363.15 12.75ZM377.76 0.46L377.76 8.40Q377.76 9.23 378.16 9.89Q378.56 10.54 379.22 10.91Q379.88 11.29 380.72 11.29L380.72 11.29Q381.58 11.29 382.26 10.91Q382.94 10.54 383.33 9.89Q383.72 9.23 383.72 8.40L383.72 8.40L383.72 0.46L385.34 0.46L385.34 8.45Q385.34 9.79 384.72 10.80Q384.10 11.80 383.05 12.34Q382.01 12.89 380.72 12.89L380.72 12.89L380.72 12.89Q379.42 12.89 378.39 12.34Q377.35 11.80 376.74 10.80Q376.13 9.79 376.13 8.45L376.13 8.45L376.13 0.46L377.76 0.46ZM390.35 2.04L390.35 0.46L398.51 0.46L398.51 2.04L395.22 2.04L395.22 12.75L393.57 12.75L393.57 2.04L390.35 2.04ZM403.68 12.75L403.68 0.46L405.33 0.46L405.33 12.75L403.68 12.75ZM410.65 6.61L410.65 6.61Q410.65 5.34 411.14 4.21Q411.62 3.08 412.49 2.20Q413.36 1.33 414.49 0.82Q415.62 0.32 416.93 0.32L416.93 0.32Q418.22 0.32 419.35 0.82Q420.48 1.33 421.35 2.20Q422.23 3.08 422.72 4.21Q423.22 5.34 423.22 6.61L423.22 6.61Q423.22 7.92 422.72 9.06Q422.23 10.20 421.36 11.06Q420.50 11.92 419.36 12.40Q418.22 12.89 416.93 12.89L416.93 12.89Q415.62 12.89 414.49 12.41Q413.36 11.93 412.49 11.08Q411.62 10.23 411.14 9.10Q410.65 7.96 410.65 6.61ZM412.35 6.63L412.35 6.63Q412.35 7.60 412.71 8.44Q413.07 9.28 413.70 9.93Q414.32 10.57 415.16 10.94Q415.99 11.31 416.96 11.31L416.96 11.31Q417.91 11.31 418.74 10.94Q419.58 10.57 420.19 9.93Q420.80 9.28 421.16 8.44Q421.52 7.60 421.52 6.61L421.52 6.61Q421.52 5.64 421.16 4.79Q420.80 3.93 420.17 3.28Q419.54 2.64 418.71 2.27Q417.88 1.90 416.93 1.90L416.93 1.90Q415.96 1.90 415.12 2.28Q414.29 2.65 413.66 3.30Q413.03 3.94 412.69 4.80Q412.35 5.66 412.35 6.63ZM439.23 13.14L439.18 13.14L429.68 3.50L430.15 3.62L430.19 12.75L428.54 12.75L428.54 0.09L428.62 0.09L438.02 9.76L437.63 9.67L437.60 0.46L439.23 0.46L439.23 13.14Z" transform="translate(0, 0)"></path></g></svg></g><g transform="rotate(0 0 0)"><svg viewBoxSize="575" data-root-id="6807473147162" xmlns="http://www.w3.org/2000/svg" y="269.15462615966794" viewBox="0.4099999964237213 15.710000038146973 419.8800048828125 45.38999938964844" x="55.08895492553711" height="45.38999938964844" width="419.8800048828125" fontUrl="https://fonts.gstatic.com/s/fahkwang/v16/Noa26Uj3zpmBOgbNpOJ7m5lRFipxkwjx.ttf" zoom="1" editorType="buyer" data-layer-role="brandName" style="position: absolute; top: 269.155px; width: 419.88px; height: 45.39px; left: 55.089px;"><g data-horizontal-grow="left" zoom="1" root="[object Object]" style="fill: rgb(0, 0, 0);"><path d="M15.40 51.41L15.40 18.41L0.41 18.41L0.41 15.71L36.77 15.71L36.77 18.41L21.83 18.41L21.83 51.41L15.40 51.41ZM51.46 51.92Q46.97 51.92 43.63 50.31Q40.29 48.70 38.48 45.77Q36.67 42.84 36.67 38.91L36.67 38.91Q36.67 34.99 38.48 32.05Q40.29 29.12 43.63 27.51Q46.97 25.91 51.46 25.91L51.46 25.91Q55.95 25.91 59.31 27.51Q62.68 29.12 64.52 32.05Q66.35 34.99 66.35 38.91L66.35 38.91Q66.35 42.84 64.52 45.77Q62.68 48.70 59.31 50.31Q55.95 51.92 51.46 51.92L51.46 51.92ZM51.46 49.62Q55.69 49.62 58.17 46.77Q60.64 43.91 60.64 38.91L60.64 38.91Q60.64 33.91 58.17 31.06Q55.69 28.20 51.46 28.20L51.46 28.20Q47.23 28.20 44.78 31.06Q42.33 33.91 42.33 38.91L42.33 38.91Q42.33 43.91 44.78 46.77Q47.23 49.62 51.46 49.62L51.46 49.62ZM80.84 51.92Q73.85 51.92 73.85 44.42L73.85 44.42L73.85 28.71L69.36 28.71L70.18 26.42L73.95 26.42L75.74 19.38L79.51 19.38L79.51 26.42L86.45 26.42L85.73 28.71L79.51 28.71L79.51 45.08Q79.51 49.57 82.93 49.57L82.93 49.57Q84.81 49.57 86.55 48.60L86.55 48.60L86.55 50.95Q84.41 51.92 80.84 51.92L80.84 51.92ZM100.98 51.92Q95.83 51.92 93.20 49.93Q90.58 47.94 90.58 44.27L90.58 44.27Q90.58 40.34 93.71 38.28Q96.85 36.21 102.87 36.21L102.87 36.21L110.06 36.21L110.06 34.42Q110.06 31.42 108.27 29.81Q106.49 28.20 103.12 28.20L103.12 28.20Q99.91 28.20 97.97 29.73Q96.03 31.26 95.68 34.12L95.68 34.12L91.39 34.12Q91.90 30.14 95.06 28.02Q98.23 25.91 103.53 25.91L103.53 25.91Q109.45 25.91 112.56 28.25Q115.67 30.60 115.67 34.99L115.67 34.99L115.67 43.15Q115.67 47.63 116.43 51.41L116.43 51.41L111.18 51.41Q110.62 49.16 110.47 47.33L110.47 47.33Q108.94 49.67 106.49 50.80Q104.04 51.92 100.98 51.92L100.98 51.92ZM102.26 49.73Q105.67 49.73 107.87 47.58Q110.06 45.44 110.06 42.23L110.06 42.23L110.06 38.45L104.45 38.45Q96.19 38.45 96.19 44.22L96.19 44.22Q96.19 46.97 97.74 48.35Q99.30 49.73 102.26 49.73L102.26 49.73ZM124.39 51.41L124.39 16.57L130.05 16.57L130.05 51.41L124.39 51.41ZM149.94 51.92Q144.59 51.92 141.35 49.90Q138.11 47.89 137.39 44.17L137.39 44.17L141.83 44.17Q142.24 46.77 144.36 48.20Q146.47 49.62 150.09 49.62L150.09 49.62Q153.46 49.62 155.42 48.30Q157.39 46.97 157.39 44.68L157.39 44.68Q157.39 42.89 155.60 41.79Q153.82 40.70 149.94 40.09L149.94 40.09Q143.51 39.07 140.81 37.43Q138.11 35.80 138.11 32.84L138.11 32.84Q138.11 29.63 141.17 27.77Q144.23 25.91 149.94 25.91L149.94 25.91Q155.45 25.91 158.79 27.87Q162.13 29.84 162.69 33.51L162.69 33.51L158.20 33.51Q157.74 31.01 155.68 29.61Q153.61 28.20 150.40 28.20L150.40 28.20Q147.34 28.20 145.55 29.25Q143.77 30.29 143.77 32.13L143.77 32.13Q143.77 33.25 144.38 33.94Q144.99 34.63 146.63 35.16Q148.26 35.70 151.52 36.26L151.52 36.26Q157.54 37.28 160.29 39.17Q163.05 41.05 163.05 44.22L163.05 44.22Q163.05 47.94 159.66 49.93Q156.26 51.92 149.94 51.92L149.94 51.92ZM169.12 61.10L169.12 26.42L174.73 26.42L174.73 30.80Q176.15 28.51 178.73 27.21Q181.31 25.91 184.52 25.91L184.52 25.91Q190.59 25.91 194.03 29.35Q197.47 32.79 197.47 38.76L197.47 38.76Q197.47 44.88 194.00 48.40Q190.54 51.92 184.57 51.92L184.57 51.92Q181.20 51.92 178.68 50.59Q176.15 49.27 174.73 46.77L174.73 46.77L174.73 61.10L169.12 61.10ZM183.24 49.73Q187.12 49.73 189.47 46.69Q191.81 43.66 191.81 38.66L191.81 38.66Q191.81 33.71 189.54 30.91Q187.27 28.10 183.40 28.10L183.40 28.10Q180.85 28.10 178.86 29.45Q176.87 30.80 175.80 33.28Q174.73 35.75 174.73 38.96L174.73 38.96Q174.73 43.91 177.00 46.82Q179.27 49.73 183.24 49.73L183.24 49.73ZM217.06 49.62Q220.52 49.62 222.74 47.99Q224.96 46.36 225.57 43.40L225.57 43.40L229.96 43.40Q229.04 47.43 225.47 49.67Q221.90 51.92 216.65 51.92L216.65 51.92Q212.31 51.92 209.10 50.34Q205.89 48.76 204.15 45.85Q202.42 42.94 202.42 39.02L202.42 39.02Q202.42 35.04 204.15 32.08Q205.89 29.12 209.07 27.51Q212.26 25.91 216.55 25.91L216.55 25.91Q223.07 25.91 226.64 29.27Q230.21 32.64 230.32 38.86L230.32 38.86L208.03 38.86L208.03 39.12Q208.03 44.06 210.35 46.84Q212.67 49.62 217.06 49.62L217.06 49.62ZM216.70 28.20Q213.13 28.20 210.94 30.40Q208.74 32.59 208.18 36.57L208.18 36.57L224.91 36.57Q224.40 32.49 222.31 30.34Q220.22 28.20 216.70 28.20L216.70 28.20ZM249.85 51.92Q242.96 51.92 239.09 48.48Q235.21 45.03 235.21 38.91L235.21 38.91Q235.21 32.79 239.09 29.35Q242.96 25.91 249.80 25.91L249.80 25.91Q255.41 25.91 258.93 28.15Q262.45 30.40 263.21 34.42L263.21 34.42L258.77 34.42Q258.11 31.47 255.82 29.84Q253.52 28.20 250.16 28.20L250.16 28.20Q245.77 28.20 243.30 31.03Q240.82 33.86 240.82 38.91L240.82 38.91Q240.82 43.96 243.30 46.79Q245.77 49.62 250.16 49.62L250.16 49.62Q253.47 49.62 255.79 47.97Q258.11 46.31 258.77 43.40L258.77 43.40L263.21 43.40Q262.50 47.43 258.95 49.67Q255.41 51.92 249.85 51.92L249.85 51.92ZM273.11 23.51Q271.37 23.51 270.27 22.52Q269.18 21.52 269.18 19.94L269.18 19.94Q269.18 18.36 270.27 17.37Q271.37 16.37 273.11 16.37L273.11 16.37Q274.84 16.37 275.94 17.37Q277.03 18.36 277.03 19.94L277.03 19.94Q277.03 21.52 275.94 22.52Q274.84 23.51 273.11 23.51L273.11 23.51ZM270.30 51.41L270.30 26.42L275.91 26.42L275.91 51.41L270.30 51.41ZM293.76 51.92Q288.61 51.92 285.98 49.93Q283.36 47.94 283.36 44.27L283.36 44.27Q283.36 40.34 286.49 38.28Q289.63 36.21 295.65 36.21L295.65 36.21L302.84 36.21L302.84 34.42Q302.84 31.42 301.05 29.81Q299.27 28.20 295.90 28.20L295.90 28.20Q292.69 28.20 290.75 29.73Q288.81 31.26 288.46 34.12L288.46 34.12L284.17 34.12Q284.68 30.14 287.84 28.02Q291.01 25.91 296.31 25.91L296.31 25.91Q302.23 25.91 305.34 28.25Q308.45 30.60 308.45 34.99L308.45 34.99L308.45 43.15Q308.45 47.63 309.21 51.41L309.21 51.41L303.96 51.41Q303.40 49.16 303.25 47.33L303.25 47.33Q301.72 49.67 299.27 50.80Q296.82 51.92 293.76 51.92L293.76 51.92ZM295.04 49.73Q298.45 49.73 300.65 47.58Q302.84 45.44 302.84 42.23L302.84 42.23L302.84 38.45L297.23 38.45Q288.97 38.45 288.97 44.22L288.97 44.22Q288.97 46.97 290.52 48.35Q292.08 49.73 295.04 49.73L295.04 49.73ZM317.17 51.41L317.17 16.57L322.83 16.57L322.83 51.41L317.17 51.41ZM335.02 23.51Q333.29 23.51 332.19 22.52Q331.09 21.52 331.09 19.94L331.09 19.94Q331.09 18.36 332.19 17.37Q333.29 16.37 335.02 16.37L335.02 16.37Q336.75 16.37 337.85 17.37Q338.95 18.36 338.95 19.94L338.95 19.94Q338.95 21.52 337.85 22.52Q336.75 23.51 335.02 23.51L335.02 23.51ZM332.21 51.41L332.21 26.42L337.82 26.42L337.82 51.41L332.21 51.41ZM357.51 51.92Q352.16 51.92 348.92 49.90Q345.68 47.89 344.96 44.17L344.96 44.17L349.40 44.17Q349.81 46.77 351.93 48.20Q354.04 49.62 357.66 49.62L357.66 49.62Q361.03 49.62 362.99 48.30Q364.96 46.97 364.96 44.68L364.96 44.68Q364.96 42.89 363.17 41.79Q361.39 40.70 357.51 40.09L357.51 40.09Q351.08 39.07 348.38 37.43Q345.68 35.80 345.68 32.84L345.68 32.84Q345.68 29.63 348.74 27.77Q351.80 25.91 357.51 25.91L357.51 25.91Q363.02 25.91 366.36 27.87Q369.70 29.84 370.26 33.51L370.26 33.51L365.77 33.51Q365.31 31.01 363.25 29.61Q361.18 28.20 357.97 28.20L357.97 28.20Q354.91 28.20 353.12 29.25Q351.34 30.29 351.34 32.13L351.34 32.13Q351.34 33.25 351.95 33.94Q352.56 34.63 354.20 35.16Q355.83 35.70 359.09 36.26L359.09 36.26Q365.11 37.28 367.86 39.17Q370.62 41.05 370.62 44.22L370.62 44.22Q370.62 47.94 367.23 49.93Q363.83 51.92 357.51 51.92L357.51 51.92ZM385.20 51.92Q378.22 51.92 378.22 44.42L378.22 44.42L378.22 28.71L373.73 28.71L374.54 26.42L378.32 26.42L380.10 19.38L383.88 19.38L383.88 26.42L390.81 26.42L390.10 28.71L383.88 28.71L383.88 45.08Q383.88 49.57 387.29 49.57L387.29 49.57Q389.18 49.57 390.92 48.60L390.92 48.60L390.92 50.95Q388.77 51.92 385.20 51.92L385.20 51.92ZM407.18 51.92Q401.83 51.92 398.59 49.90Q395.35 47.89 394.64 44.17L394.64 44.17L399.08 44.17Q399.48 46.77 401.60 48.20Q403.72 49.62 407.34 49.62L407.34 49.62Q410.70 49.62 412.67 48.30Q414.63 46.97 414.63 44.68L414.63 44.68Q414.63 42.89 412.85 41.79Q411.06 40.70 407.18 40.09L407.18 40.09Q400.76 39.07 398.06 37.43Q395.35 35.80 395.35 32.84L395.35 32.84Q395.35 29.63 398.41 27.77Q401.47 25.91 407.18 25.91L407.18 25.91Q412.69 25.91 416.03 27.87Q419.37 29.84 419.93 33.51L419.93 33.51L415.45 33.51Q414.99 31.01 412.92 29.61Q410.86 28.20 407.64 28.20L407.64 28.20Q404.58 28.20 402.80 29.25Q401.01 30.29 401.01 32.13L401.01 32.13Q401.01 33.25 401.63 33.94Q402.24 34.63 403.87 35.16Q405.50 35.70 408.77 36.26L408.77 36.26Q414.78 37.28 417.54 39.17Q420.29 41.05 420.29 44.22L420.29 44.22Q420.29 47.94 416.90 49.93Q413.51 51.92 407.18 51.92L407.18 51.92Z" transform="translate(0, 0)"></path></g></svg></g></svg>