<svg viewBox="0 0 575 575" class="roots-wrapper"><g transform="rotate(0 0 0)"><svg viewBoxSize="575" data-root-id="6159828743232" xmlns="http://www.w3.org/2000/svg" viewBox="0 0 114.96800231933594 82.87000274658203" fill="none" height="129.746337890625" width="180" y="222.6271636352539" x="11.02001953125" preserveAspectRatio="xMinYMin" zoom="1" editorType="buyer" data-layer-role="icon" style="position: absolute; height: 129.746px; width: 180px; top: 222.627px; left: 11.02px;"><path fill-rule="evenodd" clip-rule="evenodd" d="M33.5977 0H32.0977V1.5V81.37V82.87H33.5977H113.468H114.968V81.37V67.76H111.968V79.87H35.0977V3H111.968V15.12H114.968V1.5V0H113.468H33.5977ZM21.3984 1.5V81.37H24.3984V1.5H21.3984ZM10.6992 73.0216V9.85156H13.6992V73.0216H10.6992ZM0 18.2109V64.6709H3V18.2109H0Z" fill="url(#paint0_linear_28402_2290)" name="Layer %{number}" zoom="1" data-layer-id="7783410343236" style="fill: url(&quot;#paint0_linear_28402_2290&quot;);"></path><linearGradient id="paint0_linear_28402_2290" x1="14.6111" y1="82.87" x2="73.3547" y2="-20.2966" gradientUnits="userSpaceOnUse" name="Layer %{number}" zoom="1" data-layer-id="0513889743238"><stop stop-color="#9B6D48"></stop><stop offset="1" stop-color="#E8E4B5"></stop></linearGradient></svg></g><g transform="rotate(0 0 0)"><svg viewBoxSize="575" data-root-id="1074403943244" xmlns="http://www.w3.org/2000/svg" y="330.5911636352539" viewBox="7.070000171661377 -0.04000000283122063 348.9599914550781 10.09000015258789" x="215.02001953125" height="10.09000015258789" width="348.9599914550781" fontUrl="https://fonts.gstatic.com/s/josefinsans/v32/Qw3PZQNVED7rKGKxtqIqX5E-AVSJrOCfjY46_DjQXMFrLgTsQV0.ttf" zoom="1" editorType="buyer" data-layer-role="slogan" style="position: absolute; top: 330.591px; width: 348.96px; height: 10.09px; left: 215.02px;"><g data-horizontal-grow="left" zoom="1" root="[object Object]" style="fill: rgb(0, 0, 0); fill-opacity: 0.7;"><path d="M10.56 9.75L10.56 6.62L7.07 0.35L8.62 0.35L11.41 5.54L11.02 5.56L13.79 0.35L15.33 0.35L11.82 6.62L11.82 9.75L10.56 9.75ZM18.30 5.06L18.30 5.06Q18.30 4.08 18.67 3.22Q19.05 2.35 19.71 1.68Q20.37 1.01 21.24 0.63Q22.10 0.25 23.10 0.25L23.10 0.25Q24.09 0.25 24.95 0.63Q25.82 1.01 26.49 1.68Q27.16 2.35 27.53 3.22Q27.91 4.08 27.91 5.06L27.91 5.06Q27.91 6.06 27.53 6.93Q27.16 7.80 26.49 8.46Q25.83 9.11 24.96 9.48Q24.09 9.85 23.10 9.85L23.10 9.85Q22.10 9.85 21.24 9.49Q20.37 9.13 19.71 8.48Q19.05 7.83 18.67 6.96Q18.30 6.08 18.30 5.06ZM19.60 5.07L19.60 5.07Q19.60 5.81 19.88 6.45Q20.15 7.10 20.63 7.59Q21.11 8.09 21.75 8.37Q22.39 8.64 23.13 8.64L23.13 8.64Q23.86 8.64 24.49 8.37Q25.13 8.09 25.60 7.59Q26.07 7.10 26.34 6.45Q26.61 5.81 26.61 5.06L26.61 5.06Q26.61 4.32 26.34 3.66Q26.07 3.00 25.58 2.51Q25.10 2.01 24.47 1.74Q23.83 1.46 23.10 1.46L23.10 1.46Q22.36 1.46 21.72 1.74Q21.09 2.03 20.61 2.52Q20.12 3.02 19.86 3.67Q19.60 4.33 19.60 5.07ZM33.76 0.35L33.76 6.42Q33.76 7.06 34.07 7.56Q34.37 8.06 34.88 8.35Q35.39 8.63 36.02 8.63L36.02 8.63Q36.69 8.63 37.21 8.35Q37.73 8.06 38.03 7.56Q38.32 7.06 38.32 6.42L38.32 6.42L38.32 0.35L39.56 0.35L39.56 6.46Q39.56 7.49 39.08 8.25Q38.61 9.02 37.81 9.44Q37.01 9.85 36.02 9.85L36.02 9.85L36.02 9.85Q35.04 9.85 34.24 9.44Q33.45 9.02 32.98 8.25Q32.51 7.49 32.51 6.46L32.51 6.46L32.51 0.35L33.76 0.35ZM44.73 0.35L47.23 0.35Q47.94 0.35 48.55 0.54Q49.15 0.73 49.60 1.10Q50.05 1.47 50.30 2.01Q50.56 2.55 50.56 3.26L50.56 3.26Q50.56 3.82 50.39 4.35Q50.23 4.89 49.86 5.32Q49.48 5.76 48.87 6.03Q48.27 6.29 47.39 6.29L47.39 6.29L45.99 6.29L45.99 9.75L44.73 9.75L44.73 0.35ZM45.99 5.08L47.36 5.08Q47.92 5.08 48.29 4.91Q48.66 4.74 48.87 4.48Q49.08 4.21 49.17 3.90Q49.26 3.59 49.26 3.31L49.26 3.31Q49.26 3.03 49.16 2.72Q49.06 2.42 48.85 2.16Q48.63 1.90 48.29 1.73Q47.94 1.56 47.45 1.56L47.45 1.56L45.99 1.56L45.99 5.08ZM47.41 5.84L48.91 5.80L51.36 9.75L49.91 9.75L47.41 5.84ZM68.98 7.93L69.51 9.05Q69.28 9.20 68.87 9.40Q68.47 9.59 67.93 9.72Q67.39 9.85 66.76 9.85L66.76 9.85Q65.66 9.84 64.79 9.46Q63.91 9.09 63.30 8.44Q62.69 7.79 62.35 6.94Q62.02 6.08 62.02 5.12L62.02 5.12Q62.02 4.07 62.37 3.18Q62.71 2.29 63.34 1.63Q63.96 0.97 64.81 0.61Q65.66 0.25 66.68 0.25L66.68 0.25Q67.52 0.25 68.21 0.47Q68.90 0.70 69.39 1.01L69.39 1.01L68.89 2.18Q68.50 1.92 67.94 1.69Q67.39 1.46 66.72 1.46L66.72 1.46Q66.03 1.46 65.42 1.73Q64.81 2.00 64.34 2.50Q63.87 2.99 63.60 3.65Q63.34 4.30 63.34 5.06L63.34 5.06Q63.34 5.82 63.58 6.48Q63.82 7.14 64.27 7.62Q64.71 8.10 65.35 8.37Q65.99 8.64 66.78 8.64L66.78 8.64Q67.50 8.64 68.06 8.42Q68.61 8.20 68.98 7.93L68.98 7.93ZM73.64 5.06L73.64 5.06Q73.64 4.08 74.02 3.22Q74.39 2.35 75.05 1.68Q75.71 1.01 76.58 0.63Q77.44 0.25 78.44 0.25L78.44 0.25Q79.43 0.25 80.29 0.63Q81.16 1.01 81.83 1.68Q82.50 2.35 82.88 3.22Q83.25 4.08 83.25 5.06L83.25 5.06Q83.25 6.06 82.88 6.93Q82.50 7.80 81.84 8.46Q81.17 9.11 80.30 9.48Q79.43 9.85 78.44 9.85L78.44 9.85Q77.44 9.85 76.58 9.49Q75.71 9.13 75.05 8.48Q74.39 7.83 74.02 6.96Q73.64 6.08 73.64 5.06ZM74.94 5.07L74.94 5.07Q74.94 5.81 75.22 6.45Q75.49 7.10 75.97 7.59Q76.45 8.09 77.09 8.37Q77.73 8.64 78.47 8.64L78.47 8.64Q79.20 8.64 79.83 8.37Q80.47 8.09 80.94 7.59Q81.41 7.10 81.68 6.45Q81.95 5.81 81.95 5.06L81.95 5.06Q81.95 4.32 81.68 3.66Q81.41 3.00 80.92 2.51Q80.44 2.01 79.81 1.74Q79.17 1.46 78.44 1.46L78.44 1.46Q77.70 1.46 77.06 1.74Q76.43 2.03 75.95 2.52Q75.47 3.02 75.20 3.67Q74.94 4.33 74.94 5.07ZM89.19 9.75L87.97 9.75L87.97 0.05L87.98 0.05L92.91 7.05L92.38 6.94L97.29 0.05L97.32 0.05L97.32 9.75L96.07 9.75L96.07 2.91L96.15 3.55L92.60 8.57L92.57 8.57L88.97 3.55L89.19 2.96L89.19 9.75ZM102.62 0.35L105.13 0.35Q106.16 0.35 106.89 0.70Q107.61 1.04 108.01 1.69Q108.41 2.34 108.41 3.26L108.41 3.26Q108.41 3.82 108.24 4.36Q108.07 4.90 107.70 5.34Q107.33 5.77 106.73 6.03Q106.13 6.29 105.27 6.29L105.27 6.29L103.88 6.29L103.88 9.75L102.62 9.75L102.62 0.35ZM103.88 5.08L105.26 5.08Q105.82 5.08 106.18 4.90Q106.55 4.72 106.76 4.44Q106.96 4.16 107.05 3.85Q107.15 3.54 107.15 3.29L107.15 3.29Q107.15 3.00 107.05 2.70Q106.96 2.39 106.75 2.14Q106.53 1.88 106.19 1.72Q105.85 1.56 105.34 1.56L105.34 1.56L103.88 1.56L103.88 5.08ZM112.96 9.75L112.96 0.35L114.22 0.35L114.22 8.54L118.99 8.54L118.99 9.75L112.96 9.75ZM123.64 9.75L123.64 0.35L129.75 0.35L129.75 1.56L124.90 1.56L124.90 4.42L129.23 4.42L129.23 5.63L124.90 5.63L124.90 8.54L129.93 8.54L129.93 9.75L123.64 9.75ZM134.03 1.56L134.03 0.35L140.27 0.35L140.27 1.56L137.75 1.56L137.75 9.75L136.49 9.75L136.49 1.56L134.03 1.56ZM144.87 9.75L144.87 0.35L150.98 0.35L150.98 1.56L146.13 1.56L146.13 4.42L150.46 4.42L150.46 5.63L146.13 5.63L146.13 8.54L151.16 8.54L151.16 9.75L144.87 9.75ZM168.84 0.35L170.09 0.35L170.09 9.75L168.84 9.75L168.84 5.63L163.92 5.63L163.92 9.75L162.66 9.75L162.66 0.35L163.92 0.35L163.92 4.43L168.84 4.43L168.84 0.35ZM175.69 9.75L174.46 9.75L178.57-0.04L178.65-0.04L182.74 9.75L181.30 9.75L178.23 1.94L179.13 1.35L175.69 9.75ZM176.50 7.28L176.86 6.19L180.36 6.19L180.78 7.28L176.50 7.28ZM195.29 10.05L195.25 10.05L187.98 2.68L188.34 2.77L188.37 9.75L187.11 9.75L187.11 0.06L187.17 0.06L194.36 7.46L194.06 7.40L194.04 0.35L195.29 0.35L195.29 10.05ZM203.61 9.75L200.59 9.75L200.59 0.35L203.15 0.35Q204.54 0.35 205.52 0.78Q206.50 1.21 207.10 1.91Q207.70 2.61 207.98 3.46Q208.26 4.32 208.26 5.16L208.26 5.16Q208.26 6.23 207.89 7.07Q207.52 7.92 206.87 8.52Q206.22 9.11 205.38 9.43Q204.54 9.75 203.61 9.75L203.61 9.75ZM201.85 1.56L201.85 8.54L203.36 8.54Q204.14 8.54 204.80 8.31Q205.45 8.07 205.94 7.63Q206.43 7.19 206.70 6.55Q206.97 5.90 206.97 5.08L206.97 5.08Q206.97 4.21 206.69 3.56Q206.40 2.90 205.91 2.46Q205.41 2.01 204.79 1.79Q204.16 1.56 203.48 1.56L203.48 1.56L201.85 1.56ZM215.06 9.75L215.06 6.62L211.57 0.35L213.12 0.35L215.92 5.54L215.53 5.56L218.30 0.35L219.83 0.35L216.32 6.62L216.32 9.75L215.06 9.75ZM225.37 9.75L224.15 9.75L224.15 0.05L224.16 0.05L229.09 7.05L228.55 6.94L233.47 0.05L233.49 0.05L233.49 9.75L232.24 9.75L232.24 2.91L232.32 3.55L228.77 8.57L228.75 8.57L225.15 3.55L225.37 2.96L225.37 9.75ZM239.10 9.75L237.86 9.75L241.97-0.04L242.05-0.04L246.14 9.75L244.70 9.75L241.63 1.94L242.53 1.35L239.10 9.75ZM239.90 7.28L240.27 6.19L243.76 6.19L244.18 7.28L239.90 7.28ZM258.69 10.05L258.65 10.05L251.38 2.68L251.74 2.77L251.77 9.75L250.51 9.75L250.51 0.06L250.57 0.06L257.76 7.46L257.46 7.40L257.44 0.35L258.69 0.35L258.69 10.05ZM276.04 1.05L275.56 2.03Q275.08 1.78 274.51 1.60Q273.94 1.42 273.39 1.42L273.39 1.42Q272.64 1.42 272.19 1.77Q271.74 2.12 271.74 2.70L271.74 2.70Q271.74 3.15 272.02 3.45Q272.31 3.76 272.78 3.98Q273.25 4.20 273.75 4.39L273.75 4.39Q274.20 4.56 274.62 4.77Q275.05 4.98 275.40 5.29Q275.74 5.60 275.94 6.06Q276.15 6.51 276.15 7.19L276.15 7.19Q276.15 7.93 275.78 8.54Q275.40 9.15 274.72 9.50Q274.03 9.85 273.08 9.85L273.08 9.85Q272.45 9.85 271.89 9.71Q271.32 9.57 270.84 9.34Q270.36 9.11 269.98 8.87L269.98 8.87L270.54 7.88Q270.85 8.10 271.26 8.30Q271.66 8.50 272.10 8.63Q272.54 8.75 272.96 8.75L272.96 8.75Q273.40 8.75 273.84 8.59Q274.27 8.42 274.56 8.09Q274.85 7.75 274.85 7.19L274.85 7.19Q274.85 6.71 274.59 6.39Q274.34 6.07 273.92 5.84Q273.51 5.62 273.04 5.43L273.04 5.43Q272.60 5.26 272.14 5.06Q271.69 4.86 271.30 4.57Q270.91 4.28 270.67 3.85Q270.44 3.42 270.44 2.81L270.44 2.81Q270.44 2.07 270.80 1.51Q271.15 0.96 271.78 0.64Q272.40 0.32 273.21 0.30L273.21 0.30Q274.12 0.30 274.81 0.52Q275.51 0.74 276.04 1.05L276.04 1.05ZM280.28 5.06L280.28 5.06Q280.28 4.08 280.65 3.22Q281.02 2.35 281.68 1.68Q282.35 1.01 283.21 0.63Q284.08 0.25 285.08 0.25L285.08 0.25Q286.06 0.25 286.93 0.63Q287.79 1.01 288.46 1.68Q289.13 2.35 289.51 3.22Q289.89 4.08 289.89 5.06L289.89 5.06Q289.89 6.06 289.51 6.93Q289.13 7.80 288.47 8.46Q287.81 9.11 286.94 9.48Q286.06 9.85 285.08 9.85L285.08 9.85Q284.08 9.85 283.21 9.49Q282.35 9.13 281.68 8.48Q281.02 7.83 280.65 6.96Q280.28 6.08 280.28 5.06ZM281.58 5.07L281.58 5.07Q281.58 5.81 281.85 6.45Q282.13 7.10 282.61 7.59Q283.09 8.09 283.72 8.37Q284.36 8.64 285.10 8.64L285.10 8.64Q285.83 8.64 286.47 8.37Q287.10 8.09 287.57 7.59Q288.04 7.10 288.31 6.45Q288.59 5.81 288.59 5.06L288.59 5.06Q288.59 4.32 288.31 3.66Q288.04 3.00 287.56 2.51Q287.08 2.01 286.44 1.74Q285.80 1.46 285.08 1.46L285.08 1.46Q284.34 1.46 283.70 1.74Q283.06 2.03 282.58 2.52Q282.10 3.02 281.84 3.67Q281.58 4.33 281.58 5.07ZM294.61 9.75L294.61 0.35L295.87 0.35L295.87 8.54L300.64 8.54L300.64 9.75L294.61 9.75ZM306.42 0.35L306.42 6.42Q306.42 7.06 306.73 7.56Q307.03 8.06 307.54 8.35Q308.05 8.63 308.69 8.63L308.69 8.63Q309.35 8.63 309.87 8.35Q310.39 8.06 310.69 7.56Q310.99 7.06 310.99 6.42L310.99 6.42L310.99 0.35L312.22 0.35L312.22 6.46Q312.22 7.49 311.75 8.25Q311.27 9.02 310.47 9.44Q309.67 9.85 308.69 9.85L308.69 9.85L308.69 9.85Q307.70 9.85 306.90 9.44Q306.11 9.02 305.64 8.25Q305.18 7.49 305.18 6.46L305.18 6.46L305.18 0.35L306.42 0.35ZM316.71 1.56L316.71 0.35L322.95 0.35L322.95 1.56L320.42 1.56L320.42 9.75L319.16 9.75L319.16 1.56L316.71 1.56ZM327.55 9.75L327.55 0.35L328.81 0.35L328.81 9.75L327.55 9.75ZM333.53 5.06L333.53 5.06Q333.53 4.08 333.90 3.22Q334.27 2.35 334.93 1.68Q335.60 1.01 336.46 0.63Q337.32 0.25 338.33 0.25L338.33 0.25Q339.31 0.25 340.18 0.63Q341.04 1.01 341.71 1.68Q342.38 2.35 342.76 3.22Q343.14 4.08 343.14 5.06L343.14 5.06Q343.14 6.06 342.76 6.93Q342.38 7.80 341.72 8.46Q341.06 9.11 340.18 9.48Q339.31 9.85 338.33 9.85L338.33 9.85Q337.32 9.85 336.46 9.49Q335.60 9.13 334.93 8.48Q334.27 7.83 333.90 6.96Q333.53 6.08 333.53 5.06ZM334.83 5.07L334.83 5.07Q334.83 5.81 335.10 6.45Q335.37 7.10 335.86 7.59Q336.34 8.09 336.97 8.37Q337.61 8.64 338.35 8.64L338.35 8.64Q339.08 8.64 339.72 8.37Q340.35 8.09 340.82 7.59Q341.29 7.10 341.56 6.45Q341.84 5.81 341.84 5.06L341.84 5.06Q341.84 4.32 341.56 3.66Q341.29 3.00 340.81 2.51Q340.33 2.01 339.69 1.74Q339.05 1.46 338.33 1.46L338.33 1.46Q337.58 1.46 336.95 1.74Q336.31 2.03 335.83 2.52Q335.35 3.02 335.09 3.67Q334.83 4.33 334.83 5.07ZM356.03 10.05L355.99 10.05L348.73 2.68L349.09 2.77L349.12 9.75L347.85 9.75L347.85 0.06L347.92 0.06L355.11 7.46L354.81 7.40L354.78 0.35L356.03 0.35L356.03 10.05Z" transform="translate(0, 0)"></path></g></svg></g><g transform="rotate(0 0 0)"><svg viewBoxSize="575" data-root-id="3081258343240" xmlns="http://www.w3.org/2000/svg" y="261.6611636352539" viewBox="2.9100000858306885 -1.3700000047683716 377.04998779296875 55.459999084472656" x="109.02001953125" height="55.459999084472656" width="377.04998779296875" fontUrl="https://fonts.gstatic.com/s/josefinsans/v32/Qw3PZQNVED7rKGKxtqIqX5E-AVSJrOCfjY46_DjQXMFrLgTsQV0.ttf" zoom="1" editorType="buyer" data-layer-role="brandName" style="position: absolute; top: 261.661px; width: 377.05px; height: 55.46px; left: 109.02px;"><g data-horizontal-grow="left" zoom="1" root="[object Object]" style="fill: rgb(0, 0, 0);"><path d="M2.91 6.84L2.91 1.54L30.27 1.54L30.27 6.84L19.21 6.84L19.21 42.75L13.68 42.75L13.68 6.84L2.91 6.84ZM29.58 30.72L29.58 30.72Q29.58 27.19 31.26 24.34Q32.95 21.49 35.91 19.84Q38.87 18.18 42.64 18.18L42.64 18.18Q46.51 18.18 49.42 19.84Q52.33 21.49 53.92 24.34Q55.52 27.19 55.52 30.72L55.52 30.72Q55.52 34.26 53.92 37.14Q52.33 40.01 49.39 41.67Q46.46 43.32 42.58 43.32L42.58 43.32Q38.82 43.32 35.88 41.75Q32.95 40.19 31.26 37.36Q29.58 34.54 29.58 30.72ZM34.88 30.78L34.88 30.78Q34.88 33.06 35.91 34.91Q36.94 36.77 38.67 37.85Q40.41 38.93 42.52 38.93L42.52 38.93Q44.75 38.93 46.48 37.85Q48.22 36.77 49.19 34.91Q50.16 33.06 50.16 30.78L50.16 30.78Q50.16 28.50 49.19 26.65Q48.22 24.79 46.48 23.68Q44.75 22.57 42.52 22.57L42.52 22.57Q40.36 22.57 38.62 23.71Q36.88 24.85 35.88 26.70Q34.88 28.56 34.88 30.78ZM64.98 19.27L64.98 8.78L70.28 8.78L70.28 19.27L76.78 19.27L76.78 23.43L70.28 23.43L70.28 42.75L64.98 42.75L64.98 23.43L60.65 23.43L60.65 19.27L64.98 19.27ZM92.97 43.32L92.97 43.32Q89.66 43.32 86.95 41.90Q84.25 40.47 82.68 37.71Q81.11 34.94 81.11 30.95L81.11 30.95Q81.11 27.02 82.76 24.14Q84.42 21.26 87.18 19.72Q89.95 18.18 93.25 18.18L93.25 18.18Q96.56 18.18 98.84 19.69Q101.12 21.20 102.32 23.26L102.32 23.26L101.97 24.17L102.49 19.15L107.39 19.15L107.39 42.75L102.09 42.75L102.09 36.59L102.66 37.96Q102.43 38.53 101.66 39.42Q100.89 40.30 99.61 41.21Q98.33 42.12 96.67 42.72Q95.02 43.32 92.97 43.32ZM94.39 38.93L94.39 38.93Q96.39 38.93 97.98 38.19Q99.58 37.45 100.63 36.11Q101.69 34.77 102.09 32.89L102.09 32.89L102.09 28.27Q101.63 26.56 100.49 25.28Q99.35 24.00 97.76 23.28Q96.16 22.57 94.22 22.57L94.22 22.57Q92.11 22.57 90.35 23.60Q88.58 24.62 87.52 26.45Q86.47 28.27 86.47 30.72L86.47 30.72Q86.47 33.00 87.55 34.88Q88.64 36.77 90.46 37.85Q92.28 38.93 94.39 38.93ZM116.57 42.75L116.57-1.37L121.87-1.37L121.87 42.75L116.57 42.75ZM137.66 43.21L137.66 43.21Q135.15 43.21 132.78 42.32Q130.42 41.44 128.88 39.67L128.88 39.67L131.10 36.59Q132.58 38.02 134.15 38.73Q135.72 39.44 137.26 39.44L137.26 39.44Q138.40 39.44 139.37 39.16Q140.33 38.87 140.93 38.22Q141.53 37.56 141.53 36.42L141.53 36.42Q141.53 35.17 140.70 34.43Q139.88 33.69 138.60 33.23Q137.31 32.77 135.89 32.38L135.89 32.38Q132.98 31.41 131.44 29.70Q129.90 27.99 129.90 25.54L129.90 25.54Q129.90 23.65 130.84 22.03Q131.78 20.41 133.64 19.38Q135.49 18.35 138.22 18.35L138.22 18.35Q140.68 18.35 142.61 18.95Q144.55 19.55 146.26 20.92L146.26 20.92L144.15 24.22Q143.13 23.14 141.70 22.63Q140.28 22.12 139.14 22.06L139.14 22.06Q138.17 22.00 137.28 22.34Q136.40 22.69 135.83 23.31Q135.26 23.94 135.26 24.79L135.26 24.79Q135.26 25.99 136.06 26.73Q136.86 27.47 138.14 27.90Q139.42 28.33 140.68 28.79L140.68 28.79Q142.44 29.30 143.81 30.15Q145.18 31.01 146.01 32.26Q146.83 33.52 146.83 35.40L146.83 35.40Q146.83 37.51 145.83 39.30Q144.84 41.10 142.81 42.15Q140.79 43.21 137.66 43.21ZM168.15 43.32L168.15 43.32Q165.47 43.32 162.99 42.07Q160.51 40.81 159.14 38.70L159.14 38.70L159.49 37.05L159.49 54.09L154.24 54.09L154.24 18.81L158.80 18.81L159.54 24.85L158.97 23.20Q160.68 21.03 163.31 19.61Q165.93 18.18 169.18 18.18L169.18 18.18Q172.48 18.18 175.13 19.78Q177.78 21.38 179.32 24.22Q180.86 27.07 180.86 30.89L180.86 30.89Q180.86 34.71 179.21 37.51Q177.56 40.30 174.68 41.81Q171.80 43.32 168.15 43.32ZM167.12 39.10L167.12 39.10Q169.40 39.10 171.31 38.05Q173.22 36.99 174.36 35.14Q175.50 33.29 175.50 30.95L175.50 30.95Q175.50 28.56 174.42 26.70Q173.34 24.85 171.54 23.77Q169.75 22.69 167.52 22.69L167.52 22.69Q165.47 22.69 163.82 23.48Q162.16 24.28 161.08 25.68Q160.00 27.07 159.54 28.90L159.54 28.90L159.54 32.83Q159.83 34.66 160.91 36.08Q161.99 37.51 163.62 38.30Q165.24 39.10 167.12 39.10ZM198.99 43.32L198.99 43.32Q194.94 43.32 192.03 41.70Q189.13 40.07 187.56 37.25Q185.99 34.43 185.99 30.78L185.99 30.78Q185.99 27.30 187.76 24.45Q189.52 21.60 192.49 19.89Q195.45 18.18 199.10 18.18L199.10 18.18Q203.77 18.18 206.85 20.92Q209.93 23.65 211.01 28.44L211.01 28.44L191.58 35.28L190.32 32.15L206.28 26.33L205.14 27.07Q204.46 25.19 202.86 23.80Q201.27 22.40 198.70 22.40L198.70 22.40Q196.54 22.40 194.83 23.46Q193.12 24.51 192.15 26.33Q191.18 28.16 191.18 30.49L191.18 30.49Q191.18 32.95 192.20 34.80Q193.23 36.65 195.03 37.71Q196.82 38.76 199.10 38.76L199.10 38.76Q200.64 38.76 202.09 38.19Q203.55 37.62 204.80 36.71L204.80 36.71L207.25 40.64Q205.48 41.84 203.29 42.58Q201.10 43.32 198.99 43.32ZM234.10 37.22L236.83 40.58Q235.24 41.84 233.02 42.58Q230.79 43.32 228.57 43.32L228.57 43.32Q224.69 43.32 221.79 41.78Q218.88 40.24 217.26 37.48Q215.63 34.71 215.63 30.95L215.63 30.95Q215.63 27.19 217.37 24.40Q219.11 21.60 221.93 20.09Q224.75 18.58 228.00 18.58L228.00 18.58Q230.85 18.58 233.10 19.38Q235.35 20.18 236.95 21.55L236.95 21.55L234.33 24.97Q233.30 24.17 231.82 23.54Q230.34 22.91 228.46 22.91L228.46 22.91Q226.40 22.91 224.67 23.97Q222.93 25.02 221.93 26.85Q220.93 28.67 220.93 30.95L220.93 30.95Q220.93 33.12 221.96 34.97Q222.98 36.82 224.81 37.88Q226.63 38.93 228.97 38.93L228.97 38.93Q230.51 38.93 231.79 38.48Q233.07 38.02 234.10 37.22L234.10 37.22ZM243.67 42.75L243.67 19.15L248.98 19.15L248.98 42.75L243.67 42.75ZM243.28 10.60L243.28 10.60Q243.28 9.35 244.27 8.49Q245.27 7.64 246.47 7.64L246.47 7.64Q247.66 7.64 248.61 8.49Q249.55 9.35 249.55 10.60L249.55 10.60Q249.55 11.91 248.61 12.74Q247.66 13.57 246.47 13.57L246.47 13.57Q245.27 13.57 244.27 12.71Q243.28 11.86 243.28 10.60ZM267.96 43.32L267.96 43.32Q264.65 43.32 261.94 41.90Q259.24 40.47 257.67 37.71Q256.10 34.94 256.10 30.95L256.10 30.95Q256.10 27.02 257.75 24.14Q259.41 21.26 262.17 19.72Q264.94 18.18 268.24 18.18L268.24 18.18Q271.55 18.18 273.83 19.69Q276.11 21.20 277.30 23.26L277.30 23.26L276.96 24.17L277.48 19.15L282.38 19.15L282.38 42.75L277.08 42.75L277.08 36.59L277.65 37.96Q277.42 38.53 276.65 39.42Q275.88 40.30 274.60 41.21Q273.31 42.12 271.66 42.72Q270.01 43.32 267.96 43.32ZM269.38 38.93L269.38 38.93Q271.38 38.93 272.97 38.19Q274.57 37.45 275.62 36.11Q276.68 34.77 277.08 32.89L277.08 32.89L277.08 28.27Q276.62 26.56 275.48 25.28Q274.34 24.00 272.74 23.28Q271.15 22.57 269.21 22.57L269.21 22.57Q267.10 22.57 265.33 23.60Q263.57 24.62 262.51 26.45Q261.46 28.27 261.46 30.72L261.46 30.72Q261.46 33.00 262.54 34.88Q263.63 36.77 265.45 37.85Q267.27 38.93 269.38 38.93ZM291.56 42.75L291.56-1.37L296.86-1.37L296.86 42.75L291.56 42.75ZM306.03 42.75L306.03 19.15L311.33 19.15L311.33 42.75L306.03 42.75ZM305.63 10.60L305.63 10.60Q305.63 9.35 306.63 8.49Q307.63 7.64 308.83 7.64L308.83 7.64Q310.02 7.64 310.96 8.49Q311.90 9.35 311.90 10.60L311.90 10.60Q311.90 11.91 310.96 12.74Q310.02 13.57 308.83 13.57L308.83 13.57Q307.63 13.57 306.63 12.71Q305.63 11.86 305.63 10.60ZM327.12 43.21L327.12 43.21Q324.62 43.21 322.25 42.32Q319.88 41.44 318.35 39.67L318.35 39.67L320.57 36.59Q322.05 38.02 323.62 38.73Q325.19 39.44 326.72 39.44L326.72 39.44Q327.86 39.44 328.83 39.16Q329.80 38.87 330.40 38.22Q331.00 37.56 331.00 36.42L331.00 36.42Q331.00 35.17 330.17 34.43Q329.35 33.69 328.06 33.23Q326.78 32.77 325.36 32.38L325.36 32.38Q322.45 31.41 320.91 29.70Q319.37 27.99 319.37 25.54L319.37 25.54Q319.37 23.65 320.31 22.03Q321.25 20.41 323.10 19.38Q324.96 18.35 327.69 18.35L327.69 18.35Q330.14 18.35 332.08 18.95Q334.02 19.55 335.73 20.92L335.73 20.92L333.62 24.22Q332.60 23.14 331.17 22.63Q329.75 22.12 328.61 22.06L328.61 22.06Q327.64 22.00 326.75 22.34Q325.87 22.69 325.30 23.31Q324.73 23.94 324.73 24.79L324.73 24.79Q324.73 25.99 325.53 26.73Q326.32 27.47 327.61 27.90Q328.89 28.33 330.14 28.79L330.14 28.79Q331.91 29.30 333.28 30.15Q334.65 31.01 335.47 32.26Q336.30 33.52 336.30 35.40L336.30 35.40Q336.30 37.51 335.30 39.30Q334.31 41.10 332.28 42.15Q330.26 43.21 327.12 43.21ZM345.99 19.27L345.99 8.78L351.29 8.78L351.29 19.27L357.79 19.27L357.79 23.43L351.29 23.43L351.29 42.75L345.99 42.75L345.99 23.43L341.66 23.43L341.66 19.27L345.99 19.27ZM370.79 43.21L370.79 43.21Q368.28 43.21 365.91 42.32Q363.55 41.44 362.01 39.67L362.01 39.67L364.23 36.59Q365.71 38.02 367.28 38.73Q368.85 39.44 370.39 39.44L370.39 39.44Q371.53 39.44 372.50 39.16Q373.46 38.87 374.06 38.22Q374.66 37.56 374.66 36.42L374.66 36.42Q374.66 35.17 373.83 34.43Q373.01 33.69 371.73 33.23Q370.44 32.77 369.02 32.38L369.02 32.38Q366.11 31.41 364.57 29.70Q363.03 27.99 363.03 25.54L363.03 25.54Q363.03 23.65 363.97 22.03Q364.91 20.41 366.77 19.38Q368.62 18.35 371.36 18.35L371.36 18.35Q373.81 18.35 375.74 18.95Q377.68 19.55 379.39 20.92L379.39 20.92L377.28 24.22Q376.26 23.14 374.83 22.63Q373.41 22.12 372.27 22.06L372.27 22.06Q371.30 22.00 370.41 22.34Q369.53 22.69 368.96 23.31Q368.39 23.94 368.39 24.79L368.39 24.79Q368.39 25.99 369.19 26.73Q369.99 27.47 371.27 27.90Q372.55 28.33 373.81 28.79L373.81 28.79Q375.57 29.30 376.94 30.15Q378.31 31.01 379.14 32.26Q379.96 33.52 379.96 35.40L379.96 35.40Q379.96 37.51 378.96 39.30Q377.97 41.10 375.94 42.15Q373.92 43.21 370.79 43.21Z" transform="translate(0, 0)"></path></g></svg></g></svg>