<svg viewBox="0 0 575 575" class="roots-wrapper"><g transform="rotate(0 0 0)"><svg viewBoxSize="575" data-root-id="5178155779171" xmlns="http://www.w3.org/2000/svg" xmlns:xlink="http://www.w3.org/1999/xlink" version="1.1" id="Layer_1" x="50.8900146484375" y="239.23000762939452" viewBox="276.2149658203125 469.7804260253906 1447.57421875 1058.7196044921875" xml:space="preserve" height="96.53825148091839" width="131.9955596923828" preserveAspectRatio="xMinYMin" zoom="1" editorType="buyer" data-layer-role="icon" style="position: absolute; height: 96.5383px; width: 131.996px; top: 239.23px; left: 50.89px;"><rect id="XMLID_321_" x="636.9" y="544.9" transform="matrix(0.4071 0.9134 -0.9134 0.4071 1258.7003 -34.6806)" width="38.3" height="814.6" name="Layer %{number}" zoom="1" data-layer-id="3291841379171" style="fill: rgb(180, 159, 94); fill-opacity: 1;"></rect><polygon id="XMLID_319_" points="756,1502.8 717.7,1502.8 717.7,1096.8 1457.5,1096.8 1457.5,1500.7 1419.2,1500.7 1419.2,1135     756,1135   " name="Layer %{number}" zoom="1" data-layer-id="7728116179171" style="fill: rgb(180, 159, 94); fill-opacity: 1;"></polygon><polygon id="XMLID_317_" points="930.3,1509.2 892,1509.2 892,1228.6 596.5,1228.6 596.5,1504.9 558.3,1504.9 558.3,1190.3     930.3,1190.3   " name="Layer %{number}" zoom="1" data-layer-id="1005756379171" style="fill: rgb(180, 159, 94); fill-opacity: 1;"></polygon><path id="XMLID_315_" d="M1028.1,1502.8" name="Layer %{number}" zoom="1" data-layer-id="3946676679171" style="fill: rgb(180, 159, 94); fill-opacity: 1;"></path><rect id="XMLID_313_" x="1008.9" y="539.8" width="38.3" height="958.7" name="Layer %{number}" zoom="1" data-layer-id="7563576679171" style="fill: rgb(180, 159, 94); fill-opacity: 1;"></rect><rect id="XMLID_311_" x="870.9" y="679" transform="matrix(0.8818 0.4717 -0.4717 0.8818 485.3157 -539.7653)" width="896.8" height="38.3" name="Layer %{number}" zoom="1" data-layer-id="8672828279171" style="fill: rgb(180, 159, 94); fill-opacity: 1;"></rect><polygon id="XMLID_309_" points="1591.8,1528.5 418.4,1528.5 418.4,1041.7 456.6,1041.7 456.6,1490.2 1553.5,1490.2 1553.5,831.2     1591.8,831.2   " name="Layer %{number}" zoom="1" data-layer-id="8106950179171" style="fill: rgb(180, 159, 94); fill-opacity: 1;"></polygon></svg></g><g transform="rotate(0 0 0)"><svg viewBoxSize="575" data-root-id="7299413479171" xmlns="http://www.w3.org/2000/svg" y="324.748" viewBox="0.8700000047683716 5.159999847412109 328.57000732421875 11.020000457763672" x="182.886" height="11.020000457763672" width="328.57000732421875" fontUrl="https://fonts.gstatic.com/s/opensans/v40/memSYaGs126MiZpBA-UvWbX2vVnXBbObj2OVZyOOSr4dVJWUgsg-1y4nY1M2xLER.ttf" zoom="1" editorType="buyer" data-layer-role="slogan" style="position: absolute; top: 324.748px; width: 328.57px; height: 11.02px; left: 182.886px;"><g data-horizontal-grow="left" zoom="1" root="[object Object]" style="fill: rgb(180, 159, 94); fill-opacity: 1;"><path d="M5.90 7.06L5.90 7.06Q5.24 7.06 4.74 7.31Q4.24 7.57 3.90 8.04Q3.56 8.52 3.38 9.19Q3.21 9.87 3.21 10.71L3.21 10.71Q3.21 11.84 3.49 12.65Q3.77 13.45 4.37 13.87Q4.96 14.29 5.90 14.29L5.90 14.29Q6.55 14.29 7.20 14.14Q7.86 14.00 8.63 13.73L8.63 13.73L8.63 15.63Q7.92 15.92 7.23 16.05Q6.54 16.18 5.68 16.18L5.68 16.18Q4.03 16.18 2.96 15.49Q1.90 14.81 1.38 13.58Q0.87 12.34 0.87 10.69L0.87 10.69Q0.87 9.48 1.20 8.47Q1.53 7.46 2.17 6.72Q2.81 5.98 3.74 5.57Q4.68 5.17 5.90 5.17L5.90 5.17Q6.69 5.17 7.50 5.37Q8.30 5.57 9.03 5.93L9.03 5.93L8.30 7.77Q7.70 7.49 7.09 7.27Q6.48 7.06 5.90 7.06ZM23.63 10.66L23.63 10.66Q23.63 11.90 23.32 12.92Q23.01 13.93 22.38 14.66Q21.76 15.40 20.80 15.79Q19.84 16.18 18.53 16.18L18.53 16.18Q17.22 16.18 16.26 15.79Q15.30 15.40 14.67 14.66Q14.04 13.93 13.74 12.91Q13.43 11.89 13.43 10.65L13.43 10.65Q13.43 8.99 13.98 7.75Q14.52 6.52 15.66 5.84Q16.79 5.16 18.54 5.16L18.54 5.16Q20.29 5.16 21.41 5.84Q22.53 6.52 23.08 7.76Q23.63 8.99 23.63 10.66ZM15.81 10.66L15.81 10.66Q15.81 11.78 16.09 12.59Q16.37 13.40 16.97 13.84Q17.58 14.27 18.53 14.27L18.53 14.27Q19.49 14.27 20.09 13.84Q20.70 13.40 20.97 12.59Q21.24 11.78 21.24 10.66L21.24 10.66Q21.24 8.98 20.61 8.01Q19.98 7.05 18.54 7.05L18.54 7.05Q17.58 7.05 16.98 7.48Q16.37 7.92 16.09 8.73Q15.81 9.54 15.81 10.66ZM35.46 16.03L33.38 16.03L30.80 7.63L30.73 7.63Q30.75 7.93 30.78 8.54Q30.81 9.14 30.84 9.82Q30.87 10.50 30.87 11.05L30.87 11.05L30.87 16.03L28.84 16.03L28.84 5.32L31.94 5.32L34.47 13.51L34.51 13.51L37.20 5.32L40.29 5.32L40.29 16.03L38.18 16.03L38.18 10.96Q38.18 10.46 38.19 9.80Q38.21 9.14 38.24 8.54Q38.27 7.95 38.29 7.65L38.29 7.65L38.22 7.65L35.46 16.03ZM45.99 5.32L49.41 5.32Q51.48 5.32 52.43 6.21Q53.38 7.10 53.38 8.66L53.38 8.66Q53.38 9.37 53.17 10.01Q52.96 10.65 52.48 11.15Q52.00 11.65 51.20 11.93Q50.40 12.22 49.23 12.22L49.23 12.22L48.26 12.22L48.26 16.03L45.99 16.03L45.99 5.32ZM49.29 7.19L49.29 7.19L48.26 7.19L48.26 10.36L49.00 10.36Q49.64 10.36 50.11 10.20Q50.58 10.03 50.84 9.67Q51.09 9.31 51.09 8.75L51.09 8.75Q51.09 7.95 50.65 7.57Q50.21 7.19 49.29 7.19ZM65.02 16.03L58.41 16.03L58.41 5.32L60.68 5.32L60.68 14.16L65.02 14.16L65.02 16.03ZM76.05 14.16L76.05 16.03L69.88 16.03L69.88 5.32L76.05 5.32L76.05 7.19L72.15 7.19L72.15 9.54L75.78 9.54L75.78 11.40L72.15 11.40L72.15 14.16L76.05 14.16ZM85.41 7.21L85.41 16.03L83.14 16.03L83.14 7.21L80.23 7.21L80.23 5.32L88.32 5.32L88.32 7.21L85.41 7.21ZM99.13 14.16L99.13 16.03L92.97 16.03L92.97 5.32L99.13 5.32L99.13 7.19L95.24 7.19L95.24 9.54L98.86 9.54L98.86 11.40L95.24 11.40L95.24 14.16L99.13 14.16ZM120.04 5.32L120.04 16.03L117.78 16.03L117.78 11.41L113.54 11.41L113.54 16.03L111.27 16.03L111.27 5.32L113.54 5.32L113.54 9.52L117.78 9.52L117.78 5.32L120.04 5.32ZM134.74 16.03L132.30 16.03L131.52 13.48L127.62 13.48L126.84 16.03L124.39 16.03L128.17 5.28L130.95 5.28L134.74 16.03ZM128.19 11.58L130.98 11.58L130.20 9.09Q130.13 8.84 130.01 8.45Q129.89 8.06 129.77 7.65Q129.65 7.24 129.57 6.94L129.57 6.94Q129.50 7.24 129.37 7.69Q129.24 8.13 129.13 8.53Q129.01 8.92 128.96 9.09L128.96 9.09L128.19 11.58ZM148.59 5.32L148.59 16.03L145.71 16.03L141.05 7.93L140.98 7.93Q141.01 8.44 141.03 8.95Q141.05 9.46 141.08 9.97Q141.10 10.48 141.12 10.99L141.12 10.99L141.12 16.03L139.09 16.03L139.09 5.32L141.96 5.32L146.61 13.34L146.66 13.34Q146.64 12.85 146.62 12.36Q146.60 11.87 146.58 11.37Q146.56 10.88 146.55 10.39L146.55 10.39L146.55 5.32L148.59 5.32ZM163.17 10.58L163.17 10.58Q163.17 12.39 162.48 13.60Q161.79 14.81 160.48 15.42Q159.16 16.03 157.32 16.03L157.32 16.03L154.29 16.03L154.29 5.32L157.65 5.32Q159.33 5.32 160.57 5.92Q161.81 6.52 162.49 7.69Q163.17 8.85 163.17 10.58ZM160.81 10.63L160.81 10.63Q160.81 9.45 160.46 8.68Q160.12 7.92 159.44 7.55Q158.76 7.19 157.77 7.19L157.77 7.19L156.56 7.19L156.56 14.16L157.53 14.16Q159.19 14.16 160.00 13.27Q160.81 12.39 160.81 10.63ZM169.50 5.32L171.72 9.73L173.96 5.32L176.40 5.32L172.85 11.87L172.85 16.03L170.59 16.03L170.59 11.94L167.04 5.32L169.50 5.32ZM187.36 16.03L185.28 16.03L182.71 7.63L182.64 7.63Q182.65 7.93 182.69 8.54Q182.72 9.14 182.75 9.82Q182.78 10.50 182.78 11.05L182.78 11.05L182.78 16.03L180.75 16.03L180.75 5.32L183.84 5.32L186.38 13.51L186.42 13.51L189.11 5.32L192.20 5.32L192.20 16.03L190.08 16.03L190.08 10.96Q190.08 10.46 190.10 9.80Q190.12 9.14 190.15 8.54Q190.18 7.95 190.19 7.65L190.19 7.65L190.13 7.65L187.36 16.03ZM206.89 16.03L204.45 16.03L203.67 13.48L199.77 13.48L198.99 16.03L196.55 16.03L200.32 5.28L203.10 5.28L206.89 16.03ZM200.34 11.58L203.13 11.58L202.35 9.09Q202.28 8.84 202.16 8.45Q202.04 8.06 201.92 7.65Q201.80 7.24 201.72 6.94L201.72 6.94Q201.65 7.24 201.52 7.69Q201.39 8.13 201.28 8.53Q201.16 8.92 201.11 9.09L201.11 9.09L200.34 11.58ZM220.74 5.32L220.74 16.03L217.86 16.03L213.20 7.93L213.13 7.93Q213.16 8.44 213.18 8.95Q213.21 9.46 213.23 9.97Q213.25 10.48 213.27 10.99L213.27 10.99L213.27 16.03L211.24 16.03L211.24 5.32L214.11 5.32L218.76 13.34L218.81 13.34Q218.79 12.85 218.77 12.36Q218.75 11.87 218.73 11.37Q218.71 10.88 218.70 10.39L218.70 10.39L218.70 5.32L220.74 5.32ZM239.65 13.06L239.65 13.06Q239.65 14.01 239.19 14.71Q238.73 15.42 237.85 15.80Q236.97 16.18 235.71 16.18L235.71 16.18Q235.15 16.18 234.62 16.11Q234.09 16.03 233.60 15.89Q233.11 15.75 232.67 15.53L232.67 15.53L232.67 13.43Q233.44 13.76 234.26 14.03Q235.08 14.30 235.88 14.30L235.88 14.30Q236.44 14.30 236.78 14.16Q237.12 14.01 237.27 13.75Q237.43 13.50 237.43 13.17L237.43 13.17Q237.43 12.77 237.16 12.48Q236.89 12.19 236.41 11.95Q235.94 11.70 235.35 11.41L235.35 11.41Q234.97 11.24 234.53 10.98Q234.10 10.73 233.70 10.36Q233.30 10.00 233.05 9.47Q232.80 8.95 232.80 8.22L232.80 8.22Q232.80 7.26 233.24 6.58Q233.68 5.90 234.49 5.53Q235.31 5.17 236.42 5.17L236.42 5.17Q237.26 5.17 238.02 5.36Q238.78 5.56 239.60 5.93L239.60 5.93L238.87 7.69Q238.13 7.39 237.54 7.23Q236.96 7.06 236.35 7.06L236.35 7.06Q235.93 7.06 235.63 7.20Q235.33 7.33 235.17 7.58Q235.02 7.82 235.02 8.14L235.02 8.14Q235.02 8.53 235.24 8.79Q235.46 9.05 235.92 9.29Q236.37 9.53 237.04 9.85L237.04 9.85Q237.86 10.24 238.44 10.66Q239.02 11.08 239.34 11.65Q239.65 12.22 239.65 13.06ZM254.31 10.66L254.31 10.66Q254.31 11.90 254.01 12.92Q253.70 13.93 253.07 14.66Q252.45 15.40 251.49 15.79Q250.53 16.18 249.22 16.18L249.22 16.18Q247.91 16.18 246.95 15.79Q245.99 15.40 245.36 14.66Q244.73 13.93 244.43 12.91Q244.12 11.89 244.12 10.65L244.12 10.65Q244.12 8.99 244.66 7.75Q245.21 6.52 246.35 5.84Q247.48 5.16 249.23 5.16L249.23 5.16Q250.97 5.16 252.10 5.84Q253.22 6.52 253.77 7.76Q254.31 8.99 254.31 10.66ZM246.50 10.66L246.50 10.66Q246.50 11.78 246.78 12.59Q247.06 13.40 247.66 13.84Q248.26 14.27 249.22 14.27L249.22 14.27Q250.18 14.27 250.78 13.84Q251.38 13.40 251.66 12.59Q251.93 11.78 251.93 10.66L251.93 10.66Q251.93 8.98 251.30 8.01Q250.67 7.05 249.23 7.05L249.23 7.05Q248.27 7.05 247.67 7.48Q247.06 7.92 246.78 8.73Q246.50 9.54 246.50 10.66ZM266.15 16.03L259.53 16.03L259.53 5.32L261.80 5.32L261.80 14.16L266.15 14.16L266.15 16.03ZM277.46 5.32L279.72 5.32L279.72 12.25Q279.72 13.36 279.24 14.25Q278.75 15.14 277.76 15.66Q276.78 16.18 275.29 16.18L275.29 16.18Q273.16 16.18 272.05 15.10Q270.93 14.01 270.93 12.22L270.93 12.22L270.93 5.32L273.20 5.32L273.20 11.88Q273.20 13.21 273.74 13.74Q274.28 14.27 275.34 14.27L275.34 14.27Q276.09 14.27 276.56 14.02Q277.02 13.76 277.24 13.23Q277.46 12.69 277.46 11.87L277.46 11.87L277.46 5.32ZM289.48 7.21L289.48 16.03L287.21 16.03L287.21 7.21L284.30 7.21L284.30 5.32L292.38 5.32L292.38 7.21L289.48 7.21ZM299.30 16.03L297.03 16.03L297.03 5.32L299.30 5.32L299.30 16.03ZM314.72 10.66L314.72 10.66Q314.72 11.90 314.41 12.92Q314.10 13.93 313.48 14.66Q312.85 15.40 311.89 15.79Q310.93 16.18 309.62 16.18L309.62 16.18Q308.31 16.18 307.35 15.79Q306.39 15.40 305.76 14.66Q305.14 13.93 304.83 12.91Q304.52 11.89 304.52 10.65L304.52 10.65Q304.52 8.99 305.07 7.75Q305.61 6.52 306.75 5.84Q307.88 5.16 309.63 5.16L309.63 5.16Q311.38 5.16 312.50 5.84Q313.63 6.52 314.17 7.76Q314.72 8.99 314.72 10.66ZM306.90 10.66L306.90 10.66Q306.90 11.78 307.18 12.59Q307.47 13.40 308.07 13.84Q308.67 14.27 309.62 14.27L309.62 14.27Q310.59 14.27 311.19 13.84Q311.79 13.40 312.06 12.59Q312.34 11.78 312.34 10.66L312.34 10.66Q312.34 8.98 311.71 8.01Q311.08 7.05 309.63 7.05L309.63 7.05Q308.67 7.05 308.07 7.48Q307.47 7.92 307.18 8.73Q306.90 9.54 306.90 10.66ZM329.44 5.32L329.44 16.03L326.55 16.03L321.89 7.93L321.83 7.93Q321.86 8.44 321.88 8.95Q321.90 9.46 321.92 9.97Q321.94 10.48 321.97 10.99L321.97 10.99L321.97 16.03L319.94 16.03L319.94 5.32L322.80 5.32L327.45 13.34L327.50 13.34Q327.49 12.85 327.47 12.36Q327.44 11.87 327.43 11.37Q327.41 10.88 327.39 10.39L327.39 10.39L327.39 5.32L329.44 5.32Z" transform="translate(0, 0)"></path></g></svg></g><g transform="rotate(0 0 0)"><svg viewBoxSize="575" data-root-id="8053203179171" xmlns="http://www.w3.org/2000/svg" y="287.5" viewBox="0.699999988079071 12.029999732971191 334.30999755859375 25.720001220703125" x="182.886" height="25.720001220703125" width="334.30999755859375" fontUrl="https://fonts.gstatic.com/s/opensans/v40/memSYaGs126MiZpBA-UvWbX2vVnXBbObj2OVZyOOSr4dVJWUgsg-1y4nY1M2xLER.ttf" zoom="1" editorType="buyer" data-layer-role="brandName" style="position: absolute; top: 287.5px; width: 334.31px; height: 25.72px; left: 182.886px;"><g data-horizontal-grow="center" zoom="1" root="[object Object]" style="fill: rgb(180, 159, 94); fill-opacity: 1;"><path d="M12.78 16.83L12.78 37.41L7.49 37.41L7.49 16.83L0.70 16.83L0.70 12.42L19.57 12.42L19.57 16.83L12.78 16.83ZM47.09 24.88L47.09 24.88Q47.09 27.77 46.37 30.14Q45.66 32.50 44.19 34.21Q42.73 35.92 40.49 36.84Q38.26 37.75 35.20 37.75L35.20 37.75Q32.14 37.75 29.90 36.84Q27.66 35.92 26.20 34.21Q24.74 32.50 24.02 30.13Q23.30 27.75 23.30 24.85L23.30 24.85Q23.30 20.97 24.58 18.09Q25.85 15.21 28.50 13.62Q31.15 12.03 35.23 12.03L35.23 12.03Q39.30 12.03 41.92 13.62Q44.54 15.21 45.82 18.10Q47.09 20.99 47.09 24.88ZM28.86 24.88L28.86 24.88Q28.86 27.50 29.51 29.39Q30.17 31.27 31.57 32.29Q32.98 33.31 35.20 33.31L35.20 33.31Q37.45 33.31 38.85 32.29Q40.26 31.27 40.90 29.39Q41.54 27.50 41.54 24.88L41.54 24.88Q41.54 20.95 40.07 18.70Q38.60 16.44 35.23 16.44L35.23 16.44Q32.99 16.44 31.58 17.46Q30.17 18.47 29.51 20.36Q28.86 22.25 28.86 24.88ZM62.91 16.83L62.91 37.41L57.61 37.41L57.61 16.83L50.83 16.83L50.83 12.42L69.69 12.42L69.69 16.83L62.91 16.83ZM95.54 37.41L89.83 37.41L88.02 31.46L78.91 31.46L77.10 37.41L71.39 37.41L80.21 12.32L86.69 12.32L95.54 37.41ZM80.25 27.02L86.76 27.02L84.95 21.21Q84.77 20.63 84.49 19.71Q84.21 18.80 83.93 17.85Q83.65 16.90 83.48 16.20L83.48 16.20Q83.31 16.90 83.01 17.94Q82.71 18.97 82.43 19.89Q82.16 20.82 82.04 21.21L82.04 21.21L80.25 27.02ZM115.12 37.41L99.69 37.41L99.69 12.42L104.98 12.42L104.98 33.03L115.12 33.03L115.12 37.41ZM135.21 30.47L135.21 30.47Q135.21 32.69 134.13 34.33Q133.05 35.97 130.99 36.86Q128.94 37.75 126.00 37.75L126.00 37.75Q124.70 37.75 123.46 37.58Q122.22 37.41 121.08 37.08Q119.95 36.74 118.92 36.25L118.92 36.25L118.92 31.33Q120.70 32.11 122.61 32.74Q124.53 33.38 126.41 33.38L126.41 33.38Q127.71 33.38 128.50 33.03Q129.29 32.69 129.65 32.09Q130.01 31.50 130.01 30.73L130.01 30.73Q130.01 29.79 129.38 29.12Q128.75 28.45 127.65 27.87Q126.54 27.29 125.16 26.63L125.16 26.63Q124.29 26.22 123.26 25.63Q122.24 25.04 121.31 24.18Q120.39 23.33 119.80 22.11Q119.21 20.88 119.21 19.17L119.21 19.17Q119.21 16.94 120.24 15.35Q121.26 13.76 123.17 12.91Q125.07 12.07 127.67 12.07L127.67 12.07Q129.62 12.07 131.39 12.52Q133.16 12.97 135.09 13.83L135.09 13.83L133.38 17.94Q131.65 17.24 130.29 16.86Q128.92 16.47 127.50 16.47L127.50 16.47Q126.51 16.47 125.81 16.79Q125.11 17.11 124.75 17.68Q124.39 18.25 124.39 19.00L124.39 19.00Q124.39 19.89 124.91 20.50Q125.43 21.11 126.48 21.67Q127.53 22.23 129.11 22.99L129.11 22.99Q131.02 23.89 132.38 24.87Q133.74 25.86 134.47 27.18Q135.21 28.51 135.21 30.47ZM140.74 12.42L148.72 12.42Q153.55 12.42 155.78 14.50Q158.00 16.58 158.00 20.22L158.00 20.22Q158.00 21.86 157.50 23.35Q157.01 24.85 155.89 26.01Q154.77 27.17 152.90 27.85Q151.04 28.52 148.31 28.52L148.31 28.52L146.03 28.52L146.03 37.41L140.74 37.41L140.74 12.42ZM148.44 16.77L148.44 16.77L146.03 16.77L146.03 24.18L147.78 24.18Q149.26 24.18 150.36 23.79Q151.45 23.40 152.05 22.56Q152.65 21.72 152.65 20.41L152.65 20.41Q152.65 18.56 151.62 17.66Q150.60 16.77 148.44 16.77ZM178.10 33.03L178.10 37.41L163.71 37.41L163.71 12.42L178.10 12.42L178.10 16.77L169.01 16.77L169.01 22.25L177.47 22.25L177.47 26.59L169.01 26.59L169.01 33.03L178.10 33.03ZM194.93 16.47L194.93 16.47Q193.41 16.47 192.24 17.06Q191.07 17.65 190.27 18.76Q189.48 19.88 189.07 21.45Q188.66 23.02 188.66 24.99L188.66 24.99Q188.66 27.63 189.31 29.51Q189.97 31.38 191.36 32.36Q192.74 33.34 194.93 33.34L194.93 33.34Q196.45 33.34 197.98 33.00Q199.51 32.66 201.30 32.03L201.30 32.03L201.30 36.47Q199.65 37.15 198.04 37.45Q196.43 37.75 194.43 37.75L194.43 37.75Q190.57 37.75 188.08 36.15Q185.60 34.56 184.40 31.68Q183.21 28.80 183.21 24.95L183.21 24.95Q183.21 22.11 183.97 19.76Q184.74 17.40 186.23 15.67Q187.72 13.95 189.90 13.01Q192.09 12.07 194.93 12.07L194.93 12.07Q196.79 12.07 198.66 12.54Q200.53 13.01 202.24 13.83L202.24 13.83L200.53 18.13Q199.13 17.47 197.71 16.97Q196.30 16.47 194.93 16.47ZM212.92 37.41L207.62 37.41L207.62 12.42L212.92 12.42L212.92 37.41ZM241.21 37.41L235.50 37.41L233.69 31.46L224.58 31.46L222.77 37.41L217.06 37.41L225.88 12.32L232.36 12.32L241.21 37.41ZM225.91 27.02L232.42 27.02L230.61 21.21Q230.44 20.63 230.16 19.71Q229.88 18.80 229.60 17.85Q229.31 16.90 229.14 16.20L229.14 16.20Q228.97 16.90 228.67 17.94Q228.37 18.97 228.10 19.89Q227.83 20.82 227.71 21.21L227.71 21.21L225.91 27.02ZM260.79 37.41L245.35 37.41L245.35 12.42L250.65 12.42L250.65 33.03L260.79 33.03L260.79 37.41ZM271.42 37.41L266.13 37.41L266.13 12.42L271.42 12.42L271.42 37.41ZM293.46 30.47L293.46 30.47Q293.46 32.69 292.38 34.33Q291.31 35.97 289.25 36.86Q287.19 37.75 284.25 37.75L284.25 37.75Q282.95 37.75 281.71 37.58Q280.47 37.41 279.34 37.08Q278.20 36.74 277.17 36.25L277.17 36.25L277.17 31.33Q278.95 32.11 280.87 32.74Q282.78 33.38 284.66 33.38L284.66 33.38Q285.96 33.38 286.75 33.03Q287.55 32.69 287.91 32.09Q288.27 31.50 288.27 30.73L288.27 30.73Q288.27 29.79 287.63 29.12Q287.00 28.45 285.90 27.87Q284.80 27.29 283.41 26.63L283.41 26.63Q282.54 26.22 281.52 25.63Q280.49 25.04 279.57 24.18Q278.64 23.33 278.05 22.11Q277.47 20.88 277.47 19.17L277.47 19.17Q277.47 16.94 278.49 15.35Q279.52 13.76 281.42 12.91Q283.33 12.07 285.92 12.07L285.92 12.07Q287.87 12.07 289.64 12.52Q291.41 12.97 293.34 13.83L293.34 13.83L291.63 17.94Q289.91 17.24 288.54 16.86Q287.17 16.47 285.75 16.47L285.75 16.47Q284.76 16.47 284.06 16.79Q283.36 17.11 283.00 17.68Q282.64 18.25 282.64 19.00L282.64 19.00Q282.64 19.89 283.16 20.50Q283.69 21.11 284.74 21.67Q285.79 22.23 287.36 22.99L287.36 22.99Q289.27 23.89 290.63 24.87Q291.99 25.86 292.73 27.18Q293.46 28.51 293.46 30.47ZM308.63 16.83L308.63 37.41L303.33 37.41L303.33 16.83L296.55 16.83L296.55 12.42L315.41 12.42L315.41 16.83L308.63 16.83ZM335.01 30.47L335.01 30.47Q335.01 32.69 333.93 34.33Q332.85 35.97 330.79 36.86Q328.74 37.75 325.80 37.75L325.80 37.75Q324.50 37.75 323.26 37.58Q322.02 37.41 320.88 37.08Q319.75 36.74 318.72 36.25L318.72 36.25L318.72 31.33Q320.50 32.11 322.41 32.74Q324.33 33.38 326.21 33.38L326.21 33.38Q327.50 33.38 328.30 33.03Q329.09 32.69 329.45 32.09Q329.81 31.50 329.81 30.73L329.81 30.73Q329.81 29.79 329.18 29.12Q328.55 28.45 327.45 27.87Q326.34 27.29 324.96 26.63L324.96 26.63Q324.09 26.22 323.06 25.63Q322.04 25.04 321.11 24.18Q320.19 23.33 319.60 22.11Q319.01 20.88 319.01 19.17L319.01 19.17Q319.01 16.94 320.04 15.35Q321.06 13.76 322.97 12.91Q324.87 12.07 327.47 12.07L327.47 12.07Q329.42 12.07 331.19 12.52Q332.96 12.97 334.89 13.83L334.89 13.83L333.18 17.94Q331.45 17.24 330.09 16.86Q328.72 16.47 327.30 16.47L327.30 16.47Q326.31 16.47 325.61 16.79Q324.91 17.11 324.55 17.68Q324.19 18.25 324.19 19.00L324.19 19.00Q324.19 19.89 324.71 20.50Q325.23 21.11 326.28 21.67Q327.33 22.23 328.91 22.99L328.91 22.99Q330.82 23.89 332.18 24.87Q333.54 25.86 334.27 27.18Q335.01 28.51 335.01 30.47Z" transform="translate(0, 0)"></path></g></svg></g></svg>