<?xml version="1.0" encoding="UTF-8" standalone="no"?>
<svg
   viewBox="0 0 330625 330625"
   class="roots-wrapper"
   version="1.1"
   id="svg10"
   width="330625"
   height="330625"
   xmlns="http://www.w3.org/2000/svg"
   xmlns:svg="http://www.w3.org/2000/svg">
  <defs
     id="defs10" />
  <g
     id="g6">
    <svg
       viewBoxSize="575"
       data-root-id="4657453986309"
       version="1.1"
       id="Layer_1"
       x="143.75"
       y="135.836"
       viewBox="316.36502 159.673 327.26999 241.99698"
       enable-background="new 0 0 960 560"
       xml:space="preserve"
       height="212.57812"
       width="287.5"
       preserveAspectRatio="xMinYMin"
       zoom="1"
       editorType="buyer"
       data-layer-role="icon"><path
         fill="#0050A8"
         d="m 419.31,241.491 h 55.973 l -11.472,48.462 c 19.539,4.5 41.419,7.386 64.659,8.247 l 13.317,-56.709 h 52.061 l 11.736,-45.434 h -174.54 z"
         name="Layer %{number}"
         zoom="1"
         data-layer-id="3807665686353"
         style="fill:#0050a8"
         id="path1" /><path
         fill="#2C2729"
         d="m 495.085,322.805 c -13.243,0 -26.146,-0.708 -38.567,-2.039 l -19.152,80.904 h 66.806 l 18.769,-79.921 c -9.078,0.692 -18.379,1.056 -27.856,1.056 z"
         name="Layer %{number}"
         zoom="1"
         data-layer-id="8349647486369"
         style="fill:#2c2729"
         id="path2" /><path
         fill="#161515"
         d="m 517.213,346.139 5.68,-24.184 c -23.301,-1.2 -45.122,-4.444 -64.456,-9.299 l -7.451,31.475 c 14.106,1.744 28.879,2.674 44.099,2.674 7.493,0 14.876,-0.23 22.128,-0.666 z"
         name="Layer %{number}"
         zoom="1"
         data-layer-id="5197699486388"
         style="fill:#161515"
         id="path3" /><path
         opacity="0.3"
         fill="#2C2729"
         enable-background="new    "
         d="m 528.471,298.2 4.662,-19.854 c -23.197,-0.584 -45.12,-3.185 -64.823,-7.397 l -4.499,19.005 c 19.54,4.499 41.419,7.385 64.66,8.246 z"
         name="Layer %{number}"
         zoom="1"
         data-layer-id="0776097386406"
         style="fill:#2c2729"
         id="path4" /><path
         fill="#2C2729"
         d="m 543.14,309.477 c -92.343,0 -167.197,-31.926 -167.197,-71.313 0,-39.384 74.854,-71.311 167.197,-71.311 9.369,0 18.563,0.334 27.503,0.966 -22.942,-5.224 -48.552,-8.146 -75.558,-8.146 -98.704,0 -178.72,38.981 -178.72,87.066 0,48.088 80.016,87.065 178.72,87.065 61.92,0 116.479,-15.342 148.55,-38.646 -27.976,8.99 -62.775,14.319 -100.495,14.319 z"
         name="Layer %{number}"
         zoom="1"
         data-layer-id="0300049486429"
         style="fill:#2c2729"
         id="path5" /><path
         fill="#444042"
         d="m 423.276,292.068 c -33.105,-14.119 -51.337,-33.263 -51.337,-53.902 0,-20.639 18.229,-39.782 51.337,-53.901 25.354,-10.815 57.265,-17.789 91.849,-20.238 0,0 -170.625,2.778 -170.625,77.076 0,79.836 192.579,97.362 272.956,64.874 -22.971,4.814 -48.188,7.314 -74.316,7.314 -45.212,-0.004 -87.782,-7.541 -119.864,-21.223 z"
         name="Layer %{number}"
         zoom="1"
         data-layer-id="4559926786450"
         style="fill:#444042"
         id="path6" /></svg>
  </g>
  <g
     id="g8">
    <svg
       viewBoxSize="575"
       data-root-id="9061485486526"
       y="425.414"
       viewBox="6.5 4.1199999 396.85999 13.750001"
       x="89.070015"
       height="13.750001"
       width="396.85999"
       fontUrl="https://fonts.gstatic.com/s/merriweathersans/v26/2-cM9IRs1JiJN1FRAMjTN5zd9vgsFHXwWDvLBsPDdpWMaq3NzesCzRRXnaur.ttf"
       zoom="1"
       editorType="buyer"
       data-layer-role="slogan"
       version="1.1"
       id="svg7">
      <g
         data-horizontal-grow="center"
         zoom="1"
         root="[object Object]"
         style="fill:#0050a8;fill-opacity:1"
         id="g7">
        <path
           d="M 10.9,17.71 H 9.02 L 9.69,12.53 6.5,4.27 h 2.08 l 2.02,5.84 0.28,0.74 0.35,-0.74 3.44,-5.84 h 2.13 l -5.23,8.26 z m 12.38,0.15 v 0 q -1.46,0 -2.44,-0.77 -0.99,-0.76 -1.48,-2.04 -0.49,-1.28 -0.49,-2.83 v 0 q 0,-1.62 0.44,-3.08 0.44,-1.45 1.26,-2.59 0.82,-1.13 1.98,-1.78 1.16,-0.65 2.61,-0.65 v 0 q 1.11,0 1.93,0.45 0.83,0.44 1.37,1.23 0.55,0.78 0.82,1.8 0.27,1.01 0.27,2.16 v 0 q 0,1.63 -0.43,3.09 -0.43,1.46 -1.24,2.59 -0.82,1.13 -1.98,1.77 -1.16,0.65 -2.62,0.65 z m 0.27,-1.5 v 0 q 0.97,0 1.71,-0.57 0.75,-0.57 1.25,-1.52 0.51,-0.94 0.76,-2.08 0.26,-1.15 0.24,-2.29 v 0 Q 27.5,8.49 27.22,7.54 26.95,6.6 26.37,6.12 25.79,5.65 24.87,5.65 v 0 q -0.96,0 -1.7,0.57 -0.74,0.58 -1.25,1.52 -0.51,0.95 -0.77,2.08 -0.25,1.13 -0.24,2.26 v 0 q 0.04,2.22 0.68,3.25 0.64,1.03 1.96,1.03 z m 14.34,1.5 v 0 q -2.01,0 -3.05,-1.06 -1.04,-1.05 -1.04,-2.93 v 0 q 0,-0.21 0.04,-0.51 0.03,-0.31 0.09,-0.88 v 0 l 1.04,-8.21 h 1.98 l -1.02,7.9 q -0.06,0.48 -0.08,0.88 -0.03,0.41 -0.03,0.73 v 0 q 0,1.26 0.6,1.88 0.61,0.61 1.76,0.61 v 0 q 0.97,0 1.62,-0.46 0.66,-0.46 1.05,-1.4 0.4,-0.93 0.59,-2.34 v 0 l 1,-7.8 h 1.92 l -1.02,7.98 q -0.14,1.01 -0.37,1.83 -0.24,0.82 -0.58,1.43 v 0 q -0.68,1.23 -1.8,1.79 -1.12,0.56 -2.7,0.56 z M 50.05,17.71 H 48.09 L 49.82,4.27 h 1.04 q 0.24,0 0.78,-0.04 0.53,-0.04 1.08,-0.07 0.55,-0.04 0.83,-0.04 v 0 q 2.08,0 3.15,0.84 1.08,0.84 1.08,2.44 v 0 q 0,1.59 -0.79,2.77 -0.79,1.17 -2.29,1.64 v 0 q 0.23,0.21 0.46,0.59 0.23,0.39 0.43,0.84 0.21,0.46 0.35,0.87 v 0 q 0.28,0.72 0.58,1.44 0.3,0.72 0.57,1.3 0.27,0.57 0.47,0.86 v 0 h -2.23 q -0.1,-0.16 -0.21,-0.42 -0.12,-0.26 -0.26,-0.6 -0.13,-0.35 -0.28,-0.76 -0.16,-0.42 -0.32,-0.9 v 0 Q 54.11,14.52 53.92,14.01 53.74,13.5 53.52,13.08 53.3,12.65 53.05,12.39 52.79,12.12 52.5,12.1 v 0 l -1.73,-0.01 z m 2.84,-7.16 v 0 q 0.97,0 1.6,-0.41 0.64,-0.4 0.94,-1.11 0.31,-0.71 0.28,-1.63 v 0 Q 55.7,6.51 55.1,6.05 54.5,5.59 53.33,5.59 v 0 q -0.23,0 -0.58,0.02 -0.34,0.02 -0.66,0.06 -0.31,0.03 -0.48,0.05 v 0 l -0.64,4.81 q 0.23,0.01 0.71,0.01 0.48,0.01 1.21,0.01 z m 19.24,7.31 v 0 q -1.63,0 -2.62,-0.84 v 0 q -1,-0.84 -1.44,-2.16 -0.43,-1.31 -0.43,-2.84 v 0 q 0,-2.29 0.84,-4.09 v 0 q 0.84,-1.8 2.3,-2.8 1.45,-1.01 3.25,-1.01 v 0 q 0.45,0 0.9,0.07 0.45,0.06 0.94,0.2 0.48,0.14 1.04,0.36 v 0 L 76.26,6.4 Q 75.79,6.14 75.32,5.95 74.85,5.77 73.93,5.77 v 0 q -1.52,0 -2.47,0.95 v 0 q -0.96,0.96 -1.39,2.37 -0.43,1.4 -0.43,2.83 v 0 q 0,1.22 0.3,2.21 0.3,0.99 0.93,1.57 0.64,0.58 1.64,0.58 v 0 q 0.56,0 1.18,-0.15 0.62,-0.15 1.14,-0.36 0.52,-0.22 0.77,-0.42 v 0 l 0.29,1.58 q -0.21,0.16 -0.56,0.32 -0.36,0.17 -0.85,0.3 -0.48,0.14 -1.08,0.22 -0.59,0.09 -1.27,0.09 z m 12.59,0 v 0 q -1.47,0 -2.45,-0.77 -0.98,-0.76 -1.47,-2.04 -0.49,-1.28 -0.49,-2.83 v 0 q 0,-1.62 0.43,-3.08 0.44,-1.45 1.26,-2.59 0.83,-1.13 1.99,-1.78 1.16,-0.65 2.6,-0.65 v 0 q 1.12,0 1.94,0.45 0.82,0.44 1.37,1.23 0.54,0.78 0.81,1.8 0.27,1.01 0.27,2.16 v 0 q 0,1.63 -0.43,3.09 -0.42,1.46 -1.24,2.59 -0.81,1.13 -1.97,1.77 -1.16,0.65 -2.62,0.65 z m 0.27,-1.5 v 0 q 0.96,0 1.71,-0.57 0.74,-0.57 1.25,-1.52 0.5,-0.94 0.76,-2.08 0.26,-1.15 0.24,-2.29 v 0 Q 88.93,8.49 88.65,7.54 88.38,6.6 87.8,6.12 87.23,5.65 86.3,5.65 v 0 q -0.95,0 -1.7,0.57 -0.74,0.58 -1.25,1.52 -0.5,0.95 -0.76,2.08 -0.26,1.13 -0.25,2.26 v 0 q 0.05,2.22 0.69,3.25 0.63,1.03 1.96,1.03 z m 17.15,1.37 -1.59,0.14 -1.35,-9.46 -0.28,-2.98 -0.53,3.06 -2.11,9.22 h -1.97 l 3.4,-13.44 h 2.6 l 1.29,9.31 0.12,1.56 0.43,-1.56 3.65,-9.31 h 2.86 l -0.31,13.44 h -1.99 l 0.51,-9.13 0.21,-3.15 -1.1,2.8 z m 13.29,-0.02 h -1.96 L 115.2,4.27 h 1.08 q 0.18,0 0.52,-0.03 0.34,-0.02 0.74,-0.05 0.41,-0.02 0.77,-0.05 0.37,-0.02 0.62,-0.02 v 0 q 2,0 3.06,0.89 1.06,0.89 1.06,2.7 v 0 q 0.01,1.62 -0.68,2.87 v 0 q -0.68,1.26 -1.92,1.93 -1.24,0.68 -2.86,0.68 v 0 q -0.54,0 -0.94,-0.03 -0.39,-0.02 -0.62,-0.06 v 0 z m 2.16,-6.05 v 0 q 1.75,0 2.6,-0.98 0.84,-0.98 0.89,-2.89 v 0 q 0.02,-1.12 -0.59,-1.67 -0.61,-0.56 -1.9,-0.56 v 0 q -0.33,0 -0.8,0.05 -0.47,0.05 -0.82,0.13 v 0 l -0.74,5.8 q 0.22,0.05 0.62,0.09 0.4,0.03 0.74,0.03 z m 15.79,6.05 h -6.85 l 1.73,-13.44 h 1.97 l -1.53,11.82 4.91,-0.04 z m 12.45,0 h -8.05 l 1.73,-13.44 h 6.95 l -0.1,1.54 -5.09,-0.06 -0.55,4.37 3.83,-0.06 -0.14,1.61 -3.87,-0.13 -0.62,4.68 6.07,-0.13 z m 8.88,0 h -1.97 l 1.54,-11.99 -3.66,0.09 0.24,-1.54 h 9.19 l -0.2,1.54 -3.6,-0.09 z m 16.16,0 h -8.04 l 1.73,-13.44 h 6.94 l -0.09,1.54 -5.09,-0.06 -0.55,4.37 3.83,-0.06 -0.15,1.61 -3.87,-0.13 -0.61,4.68 6.07,-0.13 z m 12.27,0 h -1.95 l 1.73,-13.44 h 1.97 l -0.79,6 h 5.5 l 0.77,-6 h 1.98 l -1.74,13.44 h -1.97 l 0.77,-5.99 h -5.49 z m 13.56,0 h -2.12 l 6.55,-13.44 h 2.26 l 2.43,13.44 h -1.97 l -0.53,-3.32 h -5.12 z m 4.89,-10.82 -2.73,6.04 h 4.23 l -0.96,-6.04 -0.1,-1.01 z m 10.23,10.82 h -1.83 l 1.73,-13.44 h 1.96 l 3.73,8.94 0.59,1.9 0.15,-2.2 1.05,-8.64 h 1.87 l -1.73,13.44 h -1.85 l -3.84,-9.11 -0.53,-2.09 -0.2,2.58 z m 16.92,0.15 v 0 q -0.54,-0.02 -0.95,-0.05 -0.41,-0.03 -0.84,-0.07 -0.43,-0.03 -1.04,-0.03 v 0 h -0.95 l 1.73,-13.44 h 0.96 q 0.15,0 0.42,-0.02 0.28,-0.01 0.62,-0.03 0.33,-0.03 0.68,-0.05 0.36,-0.02 0.67,-0.03 0.31,-0.02 0.5,-0.02 v 0 q 2.64,0 3.87,1.5 1.22,1.49 1.22,4.16 v 0 q 0,1.69 -0.49,3.16 -0.48,1.48 -1.39,2.59 -0.9,1.12 -2.17,1.74 -1.27,0.61 -2.84,0.59 z m 0.34,-1.48 v 0 q 1.49,-0.04 2.51,-0.99 v 0 q 1.02,-0.94 1.51,-2.42 0.5,-1.48 0.5,-3.12 v 0 q 0,-1.61 -0.36,-2.56 v 0 Q 232.87,6.37 232.09,5.97 231.32,5.56 230,5.56 v 0 q -0.33,0 -0.8,0.06 -0.47,0.05 -0.73,0.11 v 0 l -1.34,10.4 q 0.37,0.13 0.91,0.2 0.53,0.06 1.04,0.05 z m 14.79,1.33 h -1.88 l 0.68,-5.18 -3.2,-8.26 h 2.08 l 2.03,5.84 0.28,0.74 0.35,-0.74 3.43,-5.84 h 2.14 l -5.23,8.26 z m 15.16,0.02 -1.59,0.14 -1.35,-9.46 -0.28,-2.98 -0.53,3.06 -2.11,9.22 h -1.97 l 3.4,-13.44 h 2.6 l 1.29,9.31 0.12,1.56 0.43,-1.56 3.65,-9.31 h 2.86 l -0.31,13.44 h -1.99 l 0.5,-9.13 0.22,-3.15 -1.11,2.8 z m 11.79,-0.02 h -2.12 l 6.56,-13.44 h 2.26 l 2.43,13.44 h -1.98 l -0.53,-3.32 h -5.12 z m 4.9,-10.82 -2.74,6.04 h 4.23 l -0.95,-6.04 -0.1,-1.01 z m 10.23,10.82 h -1.84 l 1.73,-13.44 h 1.96 l 3.74,8.94 0.58,1.9 0.16,-2.2 1.04,-8.64 h 1.87 l -1.73,13.44 h -1.84 l -3.84,-9.11 -0.54,-2.09 -0.19,2.58 z m 21.44,0.15 v 0 q -0.42,0 -0.9,-0.08 -0.49,-0.07 -0.96,-0.18 -0.47,-0.12 -0.84,-0.27 -0.37,-0.14 -0.55,-0.29 v 0 l 0.57,-1.59 q 0.19,0.21 0.67,0.41 0.49,0.2 1.05,0.32 0.57,0.13 1.01,0.13 v 0 q 0.77,0 1.36,-0.21 0.59,-0.21 0.93,-0.65 0.34,-0.43 0.34,-1.09 v 0 q 0,-0.69 -0.46,-1.35 -0.45,-0.67 -1.41,-1.3 v 0 q -0.82,-0.57 -1.43,-1.16 -0.6,-0.59 -0.93,-1.28 -0.33,-0.69 -0.33,-1.56 v 0 q 0,-1.16 0.56,-1.96 0.55,-0.8 1.5,-1.21 0.95,-0.42 2.13,-0.42 v 0 q 1.09,0 1.86,0.22 0.77,0.22 1.18,0.54 v 0 l -0.62,1.5 Q 311.76,6.01 311.08,5.82 310.4,5.63 309.79,5.63 v 0 q -0.63,0 -1.15,0.17 -0.52,0.17 -0.84,0.55 -0.31,0.37 -0.34,0.99 v 0 q -0.01,0.49 0.27,1.03 0.29,0.53 0.75,1.02 0.45,0.49 0.97,0.85 v 0 q 0.83,0.57 1.42,1.13 0.59,0.56 0.91,1.19 0.32,0.64 0.32,1.46 v 0 q 0,1.3 -0.62,2.15 -0.63,0.85 -1.7,1.27 -1.06,0.42 -2.39,0.42 z m 13.59,0 v 0 q -1.47,0 -2.45,-0.77 -0.98,-0.76 -1.47,-2.04 -0.49,-1.28 -0.49,-2.83 v 0 q 0,-1.62 0.43,-3.08 0.44,-1.45 1.26,-2.59 0.83,-1.13 1.99,-1.78 1.16,-0.65 2.6,-0.65 v 0 q 1.11,0 1.94,0.45 0.82,0.44 1.37,1.23 0.54,0.78 0.81,1.8 0.27,1.01 0.27,2.16 v 0 q 0,1.63 -0.43,3.09 -0.42,1.46 -1.24,2.59 -0.81,1.13 -1.97,1.77 -1.17,0.65 -2.62,0.65 z m 0.27,-1.5 v 0 q 0.96,0 1.71,-0.57 0.74,-0.57 1.25,-1.52 0.5,-0.94 0.76,-2.08 0.25,-1.15 0.24,-2.29 v 0 q -0.02,-1.41 -0.3,-2.36 -0.27,-0.94 -0.85,-1.42 -0.57,-0.47 -1.5,-0.47 v 0 q -0.95,0 -1.7,0.57 -0.74,0.58 -1.25,1.52 -0.51,0.95 -0.76,2.08 -0.26,1.13 -0.25,2.26 v 0 q 0.05,2.22 0.68,3.25 0.64,1.03 1.97,1.03 z m 16.96,1.35 h -6.85 l 1.73,-13.44 h 1.97 l -1.53,11.82 4.91,-0.04 z m 8.8,0.15 v 0 q -2,0 -3.04,-1.06 -1.04,-1.05 -1.04,-2.93 v 0 q 0,-0.21 0.03,-0.51 0.03,-0.31 0.09,-0.88 v 0 l 1.05,-8.21 h 1.97 l -1.02,7.9 q -0.05,0.48 -0.08,0.88 -0.03,0.41 -0.03,0.73 v 0 q 0,1.26 0.61,1.88 0.6,0.61 1.75,0.61 v 0 q 0.97,0 1.63,-0.46 0.65,-0.46 1.04,-1.4 0.4,-0.93 0.59,-2.34 v 0 l 1,-7.8 h 1.92 l -1.02,7.98 q -0.14,1.01 -0.37,1.83 -0.23,0.82 -0.58,1.43 v 0 q -0.68,1.23 -1.8,1.79 -1.11,0.56 -2.7,0.56 z m 14.53,-0.15 h -1.97 l 1.54,-11.99 -3.66,0.09 0.24,-1.54 h 9.19 l -0.2,1.54 -3.6,-0.09 z m 10.24,0 h -1.97 l 1.74,-13.44 h 1.97 z m 10.12,0.15 v 0 q -1.47,0 -2.45,-0.77 -0.98,-0.76 -1.47,-2.04 -0.49,-1.28 -0.49,-2.83 v 0 q 0,-1.62 0.43,-3.08 0.44,-1.45 1.26,-2.59 0.83,-1.13 1.99,-1.78 1.16,-0.65 2.6,-0.65 v 0 q 1.11,0 1.94,0.45 0.82,0.44 1.37,1.23 0.54,0.78 0.81,1.8 0.27,1.01 0.27,2.16 v 0 q 0,1.63 -0.43,3.09 -0.42,1.46 -1.24,2.59 -0.81,1.13 -1.97,1.77 -1.16,0.65 -2.62,0.65 z m 0.27,-1.5 v 0 q 0.96,0 1.71,-0.57 0.74,-0.57 1.25,-1.52 0.5,-0.94 0.76,-2.08 0.26,-1.15 0.24,-2.29 v 0 q -0.02,-1.41 -0.3,-2.36 -0.27,-0.94 -0.85,-1.42 -0.57,-0.47 -1.5,-0.47 v 0 q -0.95,0 -1.7,0.57 -0.74,0.58 -1.25,1.52 -0.5,0.95 -0.76,2.08 -0.26,1.13 -0.25,2.26 v 0 q 0.05,2.22 0.69,3.25 0.63,1.03 1.96,1.03 z m 11.95,1.35 h -1.84 l 1.73,-13.44 h 1.96 l 3.74,8.94 0.58,1.9 0.16,-2.2 1.04,-8.64 h 1.87 l -1.73,13.44 h -1.84 l -3.84,-9.11 -0.53,-2.09 -0.2,2.58 z"
           id="path7" />
      </g>
    </svg>
  </g>
  <g
     id="g10">
    <svg
       viewBoxSize="575"
       data-root-id="9527348386468"
       y="380.414"
       viewBox="2.9000001 10.08 421.08002 33.57"
       x="76.959991"
       height="33.57"
       width="421.08002"
       fontUrl="https://fonts.gstatic.com/s/merriweathersans/v26/2-cM9IRs1JiJN1FRAMjTN5zd9vgsFHXwWDvLBsPDdpWMaq1NyusCzRRXnaur.ttf"
       zoom="1"
       editorType="buyer"
       data-layer-role="brandName"
       version="1.1"
       id="svg9">
      <g
         data-horizontal-grow="center"
         zoom="1"
         root="[object Object]"
         style="fill:#2c2729;fill-opacity:1"
         id="g9">
        <path
           d="M 14.48,43.3 H 6.73 L 10.65,16.1 2.9,16.32 3.87,10.43 H 26.8 l -0.88,5.89 -7.57,-0.22 z m 26.35,0.35 v 0 q -3.78,0 -6.43,-1.65 -2.65,-1.65 -4.05,-4.53 -1.4,-2.89 -1.4,-6.58 v 0 q 0,-4.2 1.11,-7.97 1.11,-3.76 3.21,-6.65 2.11,-2.89 5.12,-4.54 3.01,-1.65 6.8,-1.65 v 0 q 2.81,0 4.99,0.96 2.18,0.97 3.66,2.72 1.49,1.75 2.25,4.1 0.76,2.36 0.76,5.11 v 0 q 0,4.18 -1.09,7.92 -1.09,3.74 -3.16,6.61 -2.07,2.87 -5.04,4.51 -2.97,1.64 -6.73,1.64 z m 0.57,-5.72 v 0 q 1.9,0 3.33,-1.39 1.43,-1.38 2.38,-3.62 0.96,-2.23 1.43,-4.8 0.48,-2.58 0.48,-4.93 v 0 q 0,-2.86 -0.65,-4.47 -0.65,-1.6 -1.72,-2.26 -1.07,-0.66 -2.3,-0.66 v 0 q -1.85,0 -3.25,1.4 -1.41,1.41 -2.38,3.67 -0.97,2.25 -1.45,4.79 -0.49,2.54 -0.49,4.83 v 0 q 0,3.85 1.41,5.64 1.41,1.8 3.21,1.8 z M 74.45,43.3 H 66.7 l 3.92,-27.2 -7.74,0.22 0.96,-5.89 h 22.93 l -0.88,5.89 -7.57,-0.22 z m 17.33,0 H 83.42 L 99.31,10.43 h 9.68 l 4.88,32.87 h -7.65 l -0.66,-6.16 H 94.34 Z M 102.34,17.47 96.4,31.99 h 8.54 l -1.63,-14.52 -0.13,-2.55 z m 35.03,25.83 h -18.22 l 4.71,-32.87 h 7.61 l -3.87,26.93 10.69,-0.27 z m 14.08,0.35 v 0 q -0.9,0 -2.16,-0.18 -1.25,-0.17 -2.53,-0.47 -1.27,-0.3 -2.31,-0.67 -1.03,-0.38 -1.49,-0.75 v 0 l 2.55,-6.2 q 0.72,0.55 1.8,1.05 1.08,0.51 2.27,0.83 1.19,0.32 2.22,0.32 v 0 q 1.56,0 2.53,-0.42 0.97,-0.42 1.42,-1.19 0.45,-0.77 0.45,-1.83 v 0 q 0,-1.49 -1.01,-2.58 -1.01,-1.09 -3.04,-2.61 v 0 q -1.58,-1.21 -2.83,-2.62 -1.24,-1.4 -1.95,-3.01 -0.72,-1.61 -0.72,-3.43 v 0 q 0,-3.15 1.51,-5.34 1.51,-2.19 4.1,-3.33 2.6,-1.14 5.88,-1.14 v 0 q 2.55,0 4.67,0.57 2.12,0.57 3.07,1.27 v 0 l -2.42,6.03 q -0.75,-0.77 -2.35,-1.33 -1.61,-0.56 -3.19,-0.56 v 0 q -1.32,0 -2.22,0.41 -0.89,0.4 -1.34,1.09 -0.45,0.68 -0.45,1.54 v 0 q 0,0.99 0.56,1.86 0.56,0.86 1.49,1.71 0.92,0.85 2.04,1.75 v 0 q 1.79,1.41 3.14,2.81 1.35,1.39 2.1,2.91 0.75,1.52 0.75,3.3 v 0 q 0,3.5 -1.65,5.75 -1.65,2.26 -4.49,3.36 -2.84,1.1 -6.4,1.1 z m 26.13,-0.35 h -7.61 l 4.71,-32.87 h 3.34 q 0.2,0 1.1,-0.06 0.91,-0.05 2.08,-0.12 1.18,-0.06 2.25,-0.12 1.06,-0.05 1.61,-0.05 v 0 q 5.66,0 8.62,2.39 2.96,2.4 2.96,7.07 v 0 q 0,3.8 -1.63,6.73 v 0 q -1.65,3.03 -4.85,4.79 -3.2,1.76 -7.6,1.76 v 0 q -0.69,0 -1.79,-0.02 -1.1,-0.02 -1.69,-0.02 v 0 z m 5.11,-16.15 v 0 q 3.23,0 4.74,-1.92 1.51,-1.91 1.73,-5.56 v 0 q 0,-2.16 -1.26,-3.24 -1.25,-1.07 -4.2,-1.07 v 0 q -0.42,0 -0.97,0.05 -0.55,0.06 -1.19,0.17 v 0 l -1.62,11.3 q 0.39,0.09 1.18,0.18 0.8,0.09 1.59,0.09 z m 39.07,16.15 h -21.25 l 4.71,-32.87 h 19.62 l -0.79,5.89 -12.06,-0.04 -1.05,7.26 9.02,-0.13 -0.8,5.94 -9.02,-0.18 -1.18,8.32 13.59,-0.22 z m 19.14,0.35 v 0 q -4.22,0 -6.82,-1.94 v 0 q -2.6,-1.96 -3.7,-5.04 -1.1,-3.08 -1.1,-6.79 v 0 q 0,-5.35 2.25,-9.9 v 0 q 2.22,-4.56 6.19,-7.23 3.97,-2.67 8.99,-2.67 v 0 q 1.16,0 2.24,0.12 1.08,0.12 2.34,0.45 1.27,0.33 2.99,0.92 v 0 l -2.2,7.22 q -0.95,-0.9 -2.5,-1.6 -1.55,-0.69 -3.66,-0.69 v 0 q -3.06,0 -5.02,1.89 v 0 q -2,1.92 -2.94,4.93 -0.93,3.01 -0.93,6.56 v 0 q 0,2.61 0.6,4.3 0.61,1.68 1.91,2.49 1.29,0.82 3.38,0.82 v 0 q 1.3,0 2.58,-0.3 1.27,-0.3 2.33,-0.74 1.06,-0.44 1.69,-0.9 v 0 l 1.02,5.33 q -0.51,0.41 -1.62,0.9 -1.11,0.48 -2.51,0.91 -1.4,0.43 -2.85,0.69 -1.45,0.27 -2.66,0.27 z m 24.55,-0.35 h -7.61 l 4.71,-32.87 h 7.61 z m 13.82,0 h -8.36 l 15.88,-32.87 h 9.68 l 4.89,32.87 h -7.66 l -0.66,-6.16 h -11.22 z m 10.56,-25.83 -5.94,14.52 h 8.53 l -1.62,-14.52 -0.14,-2.55 z m 35.02,25.83 h -18.21 l 4.7,-32.87 h 7.62 l -3.88,26.93 10.7,-0.27 z m 15.4,0 h -7.61 l 4.71,-32.87 h 7.61 z m 16.5,0.35 v 0 q -0.9,0 -2.15,-0.18 -1.26,-0.17 -2.53,-0.47 -1.28,-0.3 -2.31,-0.67 -1.04,-0.38 -1.5,-0.75 v 0 l 2.55,-6.2 q 0.73,0.55 1.81,1.05 1.07,0.51 2.26,0.83 1.19,0.32 2.22,0.32 v 0 q 1.57,0 2.53,-0.42 0.97,-0.42 1.42,-1.19 0.45,-0.77 0.45,-1.83 v 0 q 0,-1.49 -1.01,-2.58 -1.01,-1.09 -3.03,-2.61 v 0 q -1.59,-1.21 -2.83,-2.62 -1.24,-1.4 -1.96,-3.01 -0.71,-1.61 -0.71,-3.43 v 0 q 0,-3.15 1.5,-5.34 1.51,-2.19 4.11,-3.33 2.59,-1.14 5.87,-1.14 v 0 q 2.55,0 4.67,0.57 2.13,0.57 3.07,1.27 v 0 l -2.42,6.03 q -0.74,-0.77 -2.35,-1.33 -1.61,-0.56 -3.19,-0.56 v 0 q -1.32,0 -2.21,0.41 -0.89,0.4 -1.34,1.09 -0.45,0.68 -0.45,1.54 v 0 q 0,0.99 0.56,1.86 0.56,0.86 1.48,1.71 0.93,0.85 2.05,1.75 v 0 q 1.78,1.41 3.13,2.81 1.36,1.39 2.1,2.91 0.75,1.52 0.75,3.3 v 0 q 0,3.5 -1.65,5.75 -1.65,2.26 -4.49,3.36 -2.83,1.1 -6.4,1.1 z m 31.46,-0.35 h -7.74 l 3.91,-27.2 -7.74,0.22 0.97,-5.89 h 22.92 l -0.88,5.89 -7.57,-0.22 z m 21.34,0.35 v 0 q -0.9,0 -2.15,-0.18 -1.26,-0.17 -2.53,-0.47 -1.28,-0.3 -2.31,-0.67 -1.04,-0.38 -1.5,-0.75 v 0 l 2.55,-6.2 q 0.73,0.55 1.81,1.05 1.07,0.51 2.26,0.83 1.19,0.32 2.22,0.32 v 0 q 1.57,0 2.53,-0.42 0.97,-0.42 1.42,-1.19 0.45,-0.77 0.45,-1.83 v 0 q 0,-1.49 -1.01,-2.58 -1.01,-1.09 -3.03,-2.61 v 0 q -1.59,-1.21 -2.83,-2.62 -1.24,-1.4 -1.96,-3.01 -0.71,-1.61 -0.71,-3.43 v 0 q 0,-3.15 1.5,-5.34 1.51,-2.19 4.11,-3.33 2.59,-1.14 5.87,-1.14 v 0 q 2.55,0 4.67,0.57 2.13,0.57 3.07,1.27 v 0 l -2.42,6.03 q -0.74,-0.77 -2.35,-1.33 -1.61,-0.56 -3.19,-0.56 v 0 q -1.32,0 -2.21,0.41 -0.89,0.4 -1.34,1.09 -0.45,0.68 -0.45,1.54 v 0 q 0,0.99 0.56,1.86 0.56,0.86 1.48,1.71 0.93,0.85 2.05,1.75 v 0 q 1.78,1.41 3.13,2.81 1.36,1.39 2.1,2.91 0.75,1.52 0.75,3.3 v 0 q 0,3.5 -1.65,5.75 -1.65,2.26 -4.49,3.36 -2.83,1.1 -6.4,1.1 z"
           id="path8" />
      </g>
    </svg>
  </g>
</svg>
