<svg viewBox="0 0 575 575" class="roots-wrapper"><g transform="rotate(0 0 0)"><svg viewBoxSize="575" data-root-id="2326705668111" xmlns="http://www.w3.org/2000/svg" xmlns:xlink="http://www.w3.org/1999/xlink" version="1.1" id="Layer_1" x="172.50600858306885" y="146.9949951171875" viewBox="235.89999389648438 395.5 1528.0999755859375 1209" xml:space="preserve" height="181.96180725097656" width="230.00001525878906" preserveAspectRatio="xMinYMin" zoom="1" editorType="buyer" data-layer-role="icon" style="position: absolute; height: 181.962px; width: 230px; top: 146.995px; left: 172.506px;"><path class="st0" d="M1586.8,933.1c-57.3,57.3-154.6,154.6-225.4,225.3v446.1H638.6v-495.1H413.2V933.1H815v495.1h370.1V933.1   H1586.8z" name="Layer %{number}" zoom="1" data-layer-id="9661712668144" style="fill: rgb(247, 64, 64);"></path><path class="st0" d="M235.9,748.2v184.9h176.3V571.9C343.4,640.7,304.8,679.4,235.9,748.2z" name="Layer %{number}" zoom="1" data-layer-id="3539105768163" style="fill: rgb(247, 64, 64);"></path><path class="st0" d="M413.2,571.8L413.2,571.8l1173.7,0.1V395.5H589.5C520.6,464.3,482,502.9,413.2,571.8z" name="Layer %{number}" zoom="1" data-layer-id="7303986968180" style="fill: rgb(247, 64, 64);"></path><path class="st0" d="M1587.7,571.9v361.2c68.9-68.9,107.5-107.5,176.3-176.3V571.9H1587.7z" name="Layer %{number}" zoom="1" data-layer-id="3531810268195" style="fill: rgb(247, 64, 64);"></path></svg></g><g transform="rotate(0 0 0)"><svg viewBoxSize="575" data-root-id="0500836368211" xmlns="http://www.w3.org/2000/svg" y="409.9949951171875" viewBox="9.079999923706055 6.900000095367432 557.9599609375 18.010000228881836" x="8.520019569396965" height="18.010000228881836" width="557.9599609375" fontUrl="https://fonts.gstatic.com/s/oxygen/v15/2sDcZG1Wl4LcnbuCJW8Db2-4C7wFZQ.ttf" zoom="1" editorType="buyer" data-layer-role="slogan" style="position: absolute; top: 409.995px; width: 557.96px; height: 18.01px; left: 8.52002px;"><g data-horizontal-grow="center" zoom="1" root="[object Object]" style="fill: rgb(247, 64, 64); fill-opacity: 1;"><path d="M16.43 24.64L14.90 24.64L14.90 17.74L9.08 7.21L10.71 7.21L15.76 16.41L20.98 7.21L22.63 7.21L16.43 17.70L16.43 24.64ZM35.41 23.68L35.41 23.68Q37.56 23.68 39.03 22.70Q40.50 21.71 41.19 20.00Q41.88 18.28 41.88 15.91L41.88 15.91Q41.88 12.21 40.24 10.18Q38.59 8.16 35.42 8.16L35.42 8.16Q32.22 8.16 30.55 10.18Q28.88 12.20 28.88 15.91L28.88 15.91Q28.88 19.51 30.54 21.60Q32.20 23.68 35.41 23.68ZM35.41 24.91L35.41 24.91Q33.41 24.91 31.85 24.25Q30.29 23.59 29.28 22.39Q28.28 21.19 27.76 19.55Q27.24 17.91 27.24 15.93L27.24 15.93Q27.24 11.78 29.38 9.34Q31.52 6.90 35.42 6.90L35.42 6.90Q39.25 6.90 41.40 9.36Q43.54 11.81 43.54 15.94L43.54 15.94Q43.54 17.87 43.01 19.51Q42.49 21.14 41.48 22.35Q40.48 23.55 38.92 24.23Q37.36 24.91 35.41 24.91ZM56.71 24.91L56.71 24.91Q55.03 24.91 53.78 24.46Q52.54 24 51.80 23.14Q51.07 22.29 50.71 21.16Q50.36 20.03 50.36 18.59L50.36 18.59L50.36 7.21L51.86 7.21L51.86 18.82Q51.86 21.32 53.09 22.52Q54.32 23.72 56.81 23.72L56.81 23.72Q61.68 23.72 61.68 18.81L61.68 18.81L61.68 7.21L63.18 7.21L63.18 18.61Q63.18 19.76 62.95 20.71Q62.73 21.66 62.23 22.44Q61.74 23.23 60.99 23.77Q60.24 24.32 59.16 24.62Q58.07 24.91 56.71 24.91ZM72.26 24.64L70.76 24.64L70.76 7.21L75.72 7.21Q76.67 7.21 77.37 7.24Q78.07 7.28 78.79 7.39Q79.52 7.51 80.03 7.71Q80.54 7.90 81.00 8.23Q81.47 8.55 81.75 9.02Q82.03 9.48 82.19 10.13Q82.35 10.77 82.35 11.59L82.35 11.59Q82.35 13.20 81.56 14.34Q80.78 15.49 79.16 15.90L79.16 15.90Q79.86 17.34 80.21 18.09L80.21 18.09L83.07 24.64L81.33 24.64L78.86 18.68Q78.62 18.09 77.76 16.15L77.76 16.15Q77.53 16.18 76.03 16.18L76.03 16.18L72.26 16.11L72.26 24.64ZM76.67 14.94L76.67 14.94Q79.01 14.94 79.93 14.13Q80.86 13.31 80.86 11.61L80.86 11.61Q80.86 10.09 80.02 9.28Q79.18 8.46 77.17 8.46L77.17 8.46L72.26 8.46L72.26 14.91Q75.01 14.94 76.67 14.94ZM106.40 24.91L106.40 24.91Q104.39 24.91 102.82 24.23Q101.25 23.54 100.26 22.32Q99.27 21.11 98.76 19.46Q98.25 17.82 98.25 15.87L98.25 15.87Q98.25 13.27 99.21 11.26Q100.16 9.25 102.06 8.07Q103.96 6.90 106.55 6.90L106.55 6.90Q109.40 6.90 111.40 8.10L111.40 8.10L110.69 9.26Q108.86 8.16 106.56 8.16L106.56 8.16Q104.96 8.16 103.68 8.76Q102.40 9.36 101.59 10.43Q100.77 11.50 100.34 12.90Q99.92 14.31 99.92 15.95L99.92 15.95Q99.92 17.55 100.31 18.92Q100.70 20.29 101.49 21.36Q102.28 22.43 103.60 23.04Q104.91 23.66 106.62 23.66L106.62 23.66Q108.46 23.66 110.72 22.64L110.72 22.64L111.03 23.85Q109.31 24.91 106.40 24.91ZM125.09 23.68L125.09 23.68Q127.25 23.68 128.72 22.70Q130.19 21.71 130.87 20.00Q131.56 18.28 131.56 15.91L131.56 15.91Q131.56 12.21 129.92 10.18Q128.28 8.16 125.10 8.16L125.10 8.16Q121.90 8.16 120.23 10.18Q118.56 12.20 118.56 15.91L118.56 15.91Q118.56 19.51 120.22 21.60Q121.88 23.68 125.09 23.68ZM125.09 24.91L125.09 24.91Q123.10 24.91 121.53 24.25Q119.97 23.59 118.97 22.39Q117.97 21.19 117.44 19.55Q116.92 17.91 116.92 15.93L116.92 15.93Q116.92 11.78 119.06 9.34Q121.20 6.90 125.10 6.90L125.10 6.90Q128.93 6.90 131.08 9.36Q133.22 11.81 133.22 15.94L133.22 15.94Q133.22 17.87 132.70 19.51Q132.17 21.14 131.17 22.35Q130.16 23.55 128.61 24.23Q127.05 24.91 125.09 24.91ZM141.83 24.64L140.34 24.64L140.34 7.21L142.45 7.21L148.91 21.94L155.19 7.21L157.21 7.21L157.21 24.64L155.73 24.64L155.73 12.91L155.81 8.95L155.37 10.36L149.64 23.65L148.00 23.65L142.20 10.32L141.75 8.92L141.83 12.97L141.83 24.64ZM166.59 24.64L165.08 24.64L165.08 7.21L170.41 7.21Q171.54 7.21 172.46 7.45Q173.39 7.69 174.13 8.19Q174.88 8.70 175.29 9.56Q175.70 10.42 175.70 11.57L175.70 11.57Q175.70 12.23 175.63 12.77Q175.57 13.30 175.39 13.86Q175.22 14.43 174.92 14.85Q174.62 15.27 174.13 15.66Q173.65 16.04 172.98 16.29Q172.32 16.54 171.40 16.68Q170.47 16.82 169.31 16.82L169.31 16.82Q168.07 16.82 166.59 16.66L166.59 16.66L166.59 24.64ZM169.46 15.52L169.46 15.52Q170.82 15.52 171.77 15.25Q172.72 14.98 173.19 14.64Q173.66 14.30 173.90 13.68Q174.15 13.05 174.18 12.68Q174.21 12.30 174.21 11.63L174.21 11.63Q174.21 11.58 174.21 11.55L174.21 11.55Q174.21 10.02 173.17 9.27Q172.12 8.52 170.47 8.52L170.47 8.52L166.59 8.52L166.59 15.38Q167.62 15.52 169.46 15.52ZM191.64 24.64L182.36 24.64L182.36 7.21L183.87 7.21L183.87 23.32L191.71 23.32L191.64 24.64ZM207.44 24.64L197.65 24.64L197.65 7.21L207.37 7.21L207.31 8.45L199.15 8.45L199.15 15.01L206.91 15.01L206.91 16.29L199.15 16.29L199.15 23.39L207.56 23.39L207.44 24.64ZM219.60 24.64L218.08 24.64L218.08 8.50L212.59 8.50L212.59 7.21L225.09 7.21L225.09 8.50L219.60 8.50L219.60 24.64ZM240.70 24.64L230.91 24.64L230.91 7.21L240.63 7.21L240.57 8.45L232.41 8.45L232.41 15.01L240.17 15.01L240.17 16.29L232.41 16.29L232.41 23.39L240.83 23.39L240.70 24.64ZM258.42 24.64L256.92 24.64L256.92 7.21L258.42 7.21L258.42 14.92L268.43 14.92L268.43 7.21L269.93 7.21L269.93 24.64L268.43 24.64L268.43 16.23L258.42 16.23L258.42 24.64ZM277.22 24.64L275.73 24.64L282.54 7.21L283.98 7.21L290.55 24.64L289.00 24.64L286.77 18.73L279.54 18.73L277.22 24.64ZM280.82 15.66L280.12 17.63L286.23 17.63Q283.60 10.05 283.24 8.72L283.24 8.72Q283.10 9.23 282.32 11.46Q281.53 13.69 280.82 15.66L280.82 15.66ZM297.79 24.64L296.35 24.64L296.35 7.21L298.09 7.21L307.69 21.91L308.31 22.77Q308.23 19.16 308.23 18.28L308.23 18.28L308.23 7.21L309.65 7.21L309.65 24.64L307.87 24.64L298.29 9.96L297.70 9.11Q297.79 11.74 297.79 13.65L297.79 13.65L297.79 24.64ZM319.01 8.45L319.01 23.39L322.44 23.39Q326.07 23.39 327.97 21.53Q329.88 19.68 329.88 16.00L329.88 16.00Q329.88 13.98 329.34 12.52Q328.81 11.05 327.78 10.17Q326.75 9.28 325.34 8.87Q323.94 8.45 322.10 8.45L322.10 8.45L319.01 8.45ZM322.60 24.64L317.51 24.64L317.51 7.21L322.24 7.21Q324.37 7.21 326.05 7.71Q327.73 8.21 328.98 9.25Q330.22 10.29 330.89 11.98Q331.55 13.68 331.55 15.94L331.55 15.94Q331.55 20.21 329.20 22.43Q326.84 24.64 322.60 24.64L322.60 24.64ZM343.42 24.64L341.88 24.64L341.88 17.74L336.07 7.21L337.70 7.21L342.75 16.41L347.96 7.21L349.61 7.21L343.42 17.70L343.42 24.64ZM356.89 24.64L355.41 24.64L355.41 7.21L357.52 7.21L363.97 21.94L370.25 7.21L372.28 7.21L372.28 24.64L370.79 24.64L370.79 12.91L370.88 8.95L370.44 10.36L364.71 23.65L363.07 23.65L357.27 10.32L356.81 8.92L356.89 12.97L356.89 24.64ZM379.57 24.64L378.08 24.64L384.89 7.21L386.33 7.21L392.90 24.64L391.35 24.64L389.12 18.73L381.89 18.73L379.57 24.64ZM383.17 15.66L382.47 17.63L388.58 17.63Q385.95 10.05 385.60 8.72L385.60 8.72Q385.46 9.23 384.67 11.46Q383.89 13.69 383.17 15.66L383.17 15.66ZM400.14 24.64L398.70 24.64L398.70 7.21L400.45 7.21L410.04 21.91L410.66 22.77Q410.58 19.16 410.58 18.28L410.58 18.28L410.58 7.21L412.00 7.21L412.00 24.64L410.22 24.64L400.65 9.96L400.05 9.11Q400.14 11.74 400.14 13.65L400.14 13.65L400.14 24.64ZM434.47 24.91L434.47 24.91Q432.26 24.91 430.56 24.45Q428.86 23.98 427.92 23.41L427.92 23.41L428.48 22.35Q430.95 23.68 434.60 23.68L434.60 23.68Q436.60 23.68 437.69 22.64Q438.77 21.60 438.77 19.70L438.77 19.70Q438.77 19.00 438.64 18.52Q438.51 18.04 438.16 17.60Q437.81 17.16 437.14 16.86Q436.46 16.56 435.42 16.35L435.42 16.35L432.61 15.79Q430.25 15.32 429.07 14.31Q427.90 13.30 427.90 11.44L427.90 11.44Q427.90 10.23 428.36 9.35Q428.83 8.46 429.72 7.93Q430.60 7.41 431.77 7.15Q432.94 6.90 434.42 6.90L434.42 6.90Q435.90 6.90 437.31 7.27Q438.72 7.63 439.63 8.09L439.63 8.09L439.24 9.23Q438.55 8.85 437.19 8.50Q435.84 8.16 434.39 8.16L434.39 8.16Q431.92 8.16 430.67 8.98Q429.43 9.81 429.43 11.59L429.43 11.59Q429.43 12.70 430.22 13.38Q431.00 14.05 432.54 14.38L432.54 14.38L435.68 15.02Q436.85 15.27 437.66 15.61Q438.48 15.95 439.11 16.49Q439.73 17.03 440.04 17.83Q440.34 18.63 440.34 19.73L440.34 19.73Q440.34 22.20 438.73 23.55Q437.12 24.91 434.47 24.91ZM454.52 23.68L454.52 23.68Q456.68 23.68 458.15 22.70Q459.62 21.71 460.31 20.00Q460.99 18.28 460.99 15.91L460.99 15.91Q460.99 12.21 459.35 10.18Q457.71 8.16 454.54 8.16L454.54 8.16Q451.34 8.16 449.67 10.18Q448.00 12.20 448.00 15.91L448.00 15.91Q448.00 19.51 449.65 21.60Q451.31 23.68 454.52 23.68ZM454.52 24.91L454.52 24.91Q452.53 24.91 450.97 24.25Q449.40 23.59 448.40 22.39Q447.40 21.19 446.88 19.55Q446.36 17.91 446.36 15.93L446.36 15.93Q446.36 11.78 448.49 9.34Q450.63 6.90 454.54 6.90L454.54 6.90Q458.37 6.90 460.51 9.36Q462.66 11.81 462.66 15.94L462.66 15.94Q462.66 17.87 462.13 19.51Q461.60 21.14 460.60 22.35Q459.60 23.55 458.04 24.23Q456.48 24.91 454.52 24.91ZM479.05 24.64L469.77 24.64L469.77 7.21L471.28 7.21L471.28 23.32L479.12 23.32L479.05 24.64ZM491.13 24.91L491.13 24.91Q489.44 24.91 488.20 24.46Q486.95 24 486.22 23.14Q485.48 22.29 485.13 21.16Q484.77 20.03 484.77 18.59L484.77 18.59L484.77 7.21L486.27 7.21L486.27 18.82Q486.27 21.32 487.50 22.52Q488.74 23.72 491.22 23.72L491.22 23.72Q496.09 23.72 496.09 18.81L496.09 18.81L496.09 7.21L497.59 7.21L497.59 18.61Q497.59 19.76 497.37 20.71Q497.14 21.66 496.65 22.44Q496.15 23.23 495.40 23.77Q494.65 24.32 493.57 24.62Q492.49 24.91 491.13 24.91ZM510.14 24.64L508.61 24.64L508.61 8.50L503.13 8.50L503.13 7.21L515.62 7.21L515.62 8.50L510.14 8.50L510.14 24.64ZM523.08 24.64L521.58 24.64L521.58 7.21L523.08 7.21L523.08 24.64ZM538.49 23.68L538.49 23.68Q540.64 23.68 542.12 22.70Q543.59 21.71 544.27 20.00Q544.96 18.28 544.96 15.91L544.96 15.91Q544.96 12.21 543.32 10.18Q541.68 8.16 538.50 8.16L538.50 8.16Q535.30 8.16 533.63 10.18Q531.96 12.20 531.96 15.91L531.96 15.91Q531.96 19.51 533.62 21.60Q535.28 23.68 538.49 23.68ZM538.49 24.91L538.49 24.91Q536.50 24.91 534.93 24.25Q533.37 23.59 532.37 22.39Q531.36 21.19 530.84 19.55Q530.32 17.91 530.32 15.93L530.32 15.93Q530.32 11.78 532.46 9.34Q534.60 6.90 538.50 6.90L538.50 6.90Q542.33 6.90 544.48 9.36Q546.62 11.81 546.62 15.94L546.62 15.94Q546.62 17.87 546.09 19.51Q545.57 21.14 544.56 22.35Q543.56 23.55 542.00 24.23Q540.45 24.91 538.49 24.91ZM555.18 24.64L553.74 24.64L553.74 7.21L555.48 7.21L565.08 21.91L565.70 22.77Q565.62 19.16 565.62 18.28L565.62 18.28L565.62 7.21L567.04 7.21L567.04 24.64L565.26 24.64L555.68 9.96L555.08 9.11Q555.18 11.74 555.18 13.65L555.18 13.65L555.18 24.64Z" transform="translate(0, 0)"></path></g></svg></g><g transform="rotate(0 0 0)"><svg viewBoxSize="575" data-root-id="6712889668258" xmlns="http://www.w3.org/2000/svg" y="358.9949951171875" viewBox="1.1399999856948853 9.680000305175781 487.91998291015625 33.790000915527344" x="43.5400207901001" height="33.790000915527344" width="487.91998291015625" fontUrl="https://fonts.gstatic.com/s/sora/v12/xMQOuFFYT72X5wkB_18qmnndmSdSnn-KIwNhBti0.ttf" zoom="1" editorType="buyer" data-layer-role="brandName" style="position: absolute; top: 358.995px; width: 487.92px; height: 33.79px; left: 43.54px;"><g data-horizontal-grow="center" zoom="1" root="[object Object]" style="fill: rgb(52, 34, 34);"><path d="M15.22 42.68L10.91 42.68L10.91 13.55L15.22 13.55L15.22 42.68ZM24.99 14.43L1.14 14.43L1.14 10.56L24.99 10.56L24.99 14.43ZM48.18 43.47L48.18 43.47Q43.87 43.47 40.74 41.93Q37.62 40.39 35.60 37.88Q33.57 35.38 32.58 32.52Q31.59 29.66 31.59 27.02L31.59 27.02L31.59 26.05Q31.59 23.19 32.60 20.28Q33.62 17.38 35.68 14.98Q37.75 12.58 40.85 11.13Q43.96 9.68 48.18 9.68L48.18 9.68Q52.40 9.68 55.51 11.13Q58.61 12.58 60.68 14.98Q62.74 17.38 63.76 20.28Q64.77 23.19 64.77 26.05L64.77 26.05L64.77 27.02Q64.77 29.66 63.78 32.52Q62.79 35.38 60.76 37.88Q58.74 40.39 55.62 41.93Q52.49 43.47 48.18 43.47ZM48.18 39.51L48.18 39.51Q51.00 39.51 53.26 38.46Q55.53 37.40 57.11 35.57Q58.70 33.75 59.53 31.44Q60.37 29.13 60.37 26.58L60.37 26.58Q60.37 23.89 59.53 21.56Q58.70 19.23 57.11 17.45Q55.53 15.66 53.26 14.65Q51.00 13.64 48.18 13.64L48.18 13.64Q45.36 13.64 43.10 14.65Q40.83 15.66 39.25 17.45Q37.66 19.23 36.83 21.56Q35.99 23.89 35.99 26.58L35.99 26.58Q35.99 29.13 36.83 31.44Q37.66 33.75 39.25 35.57Q40.83 37.40 43.10 38.46Q45.36 39.51 48.18 39.51ZM85.40 42.68L81.09 42.68L81.09 13.55L85.40 13.55L85.40 42.68ZM95.17 14.43L71.32 14.43L71.32 10.56L95.17 10.56L95.17 14.43ZM103.36 42.68L99.04 42.68L110.62 10.56L117.92 10.56L129.84 42.68L125.40 42.68L114.62 13.38L116.73 14.43L111.54 14.43L113.78 13.38L103.36 42.68ZM122.72 33.09L105.95 33.09L107.40 29.22L121.26 29.22L122.72 33.09ZM144.01 42.68L139.70 42.68L139.70 10.56L144.01 10.56L144.01 42.68ZM157.83 42.68L143.13 42.68L143.13 38.81L157.83 38.81L157.83 42.68ZM177.67 43.47L177.67 43.47Q173.67 43.47 170.85 42.15Q168.04 40.83 166.54 38.50Q165.04 36.17 165.04 33.22L165.04 33.22L169.36 33.22Q169.36 34.67 170.13 36.12Q170.90 37.58 172.72 38.54Q174.55 39.51 177.67 39.51L177.67 39.51Q180.58 39.51 182.42 38.65Q184.27 37.80 185.15 36.41Q186.03 35.02 186.03 33.40L186.03 33.40Q186.03 31.42 184.32 30.12Q182.60 28.82 179.30 28.51L179.30 28.51L175.74 28.20Q171.47 27.85 168.92 25.56Q166.36 23.28 166.36 19.54L166.36 19.54Q166.36 16.59 167.79 14.39Q169.22 12.19 171.78 10.93Q174.33 9.68 177.72 9.68L177.72 9.68Q181.06 9.68 183.61 10.91Q186.16 12.14 187.59 14.37Q189.02 16.59 189.02 19.67L189.02 19.67L184.71 19.67Q184.71 18.13 183.99 16.76Q183.26 15.40 181.72 14.52Q180.18 13.64 177.72 13.64L177.72 13.64Q175.34 13.64 173.78 14.48Q172.22 15.31 171.45 16.65Q170.68 18.00 170.68 19.54L170.68 19.54Q170.68 21.30 172.04 22.66Q173.40 24.02 176.09 24.24L176.09 24.24L179.65 24.55Q182.95 24.82 185.35 25.94Q187.75 27.06 189.05 28.93Q190.34 30.80 190.34 33.40L190.34 33.40Q190.34 36.34 188.76 38.63Q187.18 40.92 184.32 42.20Q181.46 43.47 177.67 43.47ZM211.33 31.50L204.95 31.50L204.95 27.72L212.12 27.72Q214.41 27.72 215.91 26.82Q217.40 25.92 218.17 24.38Q218.94 22.84 218.94 20.94L218.94 20.94Q218.94 19.01 218.17 17.47Q217.40 15.93 215.91 15.05Q214.41 14.17 212.12 14.17L212.12 14.17L204.95 14.17L204.95 10.38L211.33 10.38Q215.29 10.38 217.95 11.64Q220.62 12.89 221.98 15.18Q223.34 17.47 223.34 20.59L223.34 20.59L223.34 21.30Q223.34 24.38 221.98 26.69Q220.62 29.00 217.95 30.25Q215.29 31.50 211.33 31.50L211.33 31.50ZM205.83 42.68L201.52 42.68L201.52 10.38L205.83 10.38L205.83 42.68ZM237.95 42.68L233.64 42.68L233.64 10.56L237.95 10.56L237.95 42.68ZM252.65 42.68L237.07 42.68L237.07 38.81L252.65 38.81L252.65 42.68ZM251.28 28.29L237.07 28.29L237.07 24.42L251.28 24.42L251.28 28.29ZM252.21 14.43L237.07 14.43L237.07 10.56L252.21 10.56L252.21 14.43ZM277.68 43.47L277.68 43.47Q273.28 43.47 270.18 41.93Q267.08 40.39 265.19 37.93Q263.30 35.46 262.42 32.58Q261.54 29.70 261.54 27.02L261.54 27.02L261.54 26.05Q261.54 23.14 262.44 20.24Q263.34 17.34 265.23 14.96Q267.12 12.58 270.16 11.13Q273.20 9.68 277.42 9.68L277.42 9.68Q281.73 9.68 284.81 11.18Q287.89 12.67 289.70 15.36Q291.50 18.04 291.90 21.69L291.90 21.69L287.50 21.69Q287.14 18.96 285.74 17.18Q284.33 15.40 282.19 14.52Q280.06 13.64 277.42 13.64L277.42 13.64Q274.56 13.64 272.40 14.63Q270.25 15.62 268.82 17.40Q267.39 19.18 266.66 21.52Q265.94 23.85 265.94 26.58L265.94 26.58Q265.94 29.17 266.66 31.50Q267.39 33.84 268.86 35.64Q270.34 37.44 272.54 38.48Q274.74 39.51 277.68 39.51L277.68 39.51Q281.82 39.51 284.64 37.44Q287.45 35.38 288.07 31.46L288.07 31.46L292.47 31.46Q292.03 34.76 290.25 37.49Q288.46 40.22 285.32 41.84Q282.17 43.47 277.68 43.47ZM307.08 42.68L302.76 42.68L302.76 10.56L307.08 10.56L307.08 42.68ZM321.33 42.68L317.02 42.68L328.59 10.56L335.90 10.56L347.82 42.68L343.38 42.68L332.60 13.38L334.71 14.43L329.52 14.43L331.76 13.38L321.33 42.68ZM340.69 33.09L323.93 33.09L325.38 29.22L339.24 29.22L340.69 33.09ZM361.99 42.68L357.68 42.68L357.68 10.56L361.99 10.56L361.99 42.68ZM375.80 42.68L361.11 42.68L361.11 38.81L375.80 38.81L375.80 42.68ZM389.97 42.68L385.66 42.68L385.66 10.56L389.97 10.56L389.97 42.68ZM413.78 43.47L413.78 43.47Q409.77 43.47 406.96 42.15Q404.14 40.83 402.64 38.50Q401.15 36.17 401.15 33.22L401.15 33.22L405.46 33.22Q405.46 34.67 406.23 36.12Q407.00 37.58 408.83 38.54Q410.65 39.51 413.78 39.51L413.78 39.51Q416.68 39.51 418.53 38.65Q420.38 37.80 421.26 36.41Q422.14 35.02 422.14 33.40L422.14 33.40Q422.14 31.42 420.42 30.12Q418.70 28.82 415.40 28.51L415.40 28.51L411.84 28.20Q407.57 27.85 405.02 25.56Q402.47 23.28 402.47 19.54L402.47 19.54Q402.47 16.59 403.90 14.39Q405.33 12.19 407.88 10.93Q410.43 9.68 413.82 9.68L413.82 9.68Q417.16 9.68 419.72 10.91Q422.27 12.14 423.70 14.37Q425.13 16.59 425.13 19.67L425.13 19.67L420.82 19.67Q420.82 18.13 420.09 16.76Q419.36 15.40 417.82 14.52Q416.28 13.64 413.82 13.64L413.82 13.64Q411.44 13.64 409.88 14.48Q408.32 15.31 407.55 16.65Q406.78 18.00 406.78 19.54L406.78 19.54Q406.78 21.30 408.14 22.66Q409.51 24.02 412.19 24.24L412.19 24.24L415.76 24.55Q419.06 24.82 421.45 25.94Q423.85 27.06 425.15 28.93Q426.45 30.80 426.45 33.40L426.45 33.40Q426.45 36.34 424.86 38.63Q423.28 40.92 420.42 42.20Q417.56 43.47 413.78 43.47ZM447.39 42.68L443.08 42.68L443.08 13.55L447.39 13.55L447.39 42.68ZM457.16 14.43L433.31 14.43L433.31 10.56L457.16 10.56L457.16 14.43ZM476.39 43.47L476.39 43.47Q472.38 43.47 469.57 42.15Q466.75 40.83 465.26 38.50Q463.76 36.17 463.76 33.22L463.76 33.22L468.07 33.22Q468.07 34.67 468.84 36.12Q469.61 37.58 471.44 38.54Q473.26 39.51 476.39 39.51L476.39 39.51Q479.29 39.51 481.14 38.65Q482.99 37.80 483.87 36.41Q484.75 35.02 484.75 33.40L484.75 33.40Q484.75 31.42 483.03 30.12Q481.32 28.82 478.02 28.51L478.02 28.51L474.45 28.20Q470.18 27.85 467.63 25.56Q465.08 23.28 465.08 19.54L465.08 19.54Q465.08 16.59 466.51 14.39Q467.94 12.19 470.49 10.93Q473.04 9.68 476.43 9.68L476.43 9.68Q479.78 9.68 482.33 10.91Q484.88 12.14 486.31 14.37Q487.74 16.59 487.74 19.67L487.74 19.67L483.43 19.67Q483.43 18.13 482.70 16.76Q481.98 15.40 480.44 14.52Q478.90 13.64 476.43 13.64L476.43 13.64Q474.06 13.64 472.49 14.48Q470.93 15.31 470.16 16.65Q469.39 18.00 469.39 19.54L469.39 19.54Q469.39 21.30 470.76 22.66Q472.12 24.02 474.80 24.24L474.80 24.24L478.37 24.55Q481.67 24.82 484.07 25.94Q486.46 27.06 487.76 28.93Q489.06 30.80 489.06 33.40L489.06 33.40Q489.06 36.34 487.48 38.63Q485.89 40.92 483.03 42.20Q480.17 43.47 476.39 43.47Z" transform="translate(0, 0)"></path></g></svg></g></svg>