<svg viewBox="0 0 575 575" class="roots-wrapper"><g transform="rotate(0 0 0)"><svg viewBoxSize="575" data-root-id="5905440749108" xmlns="http://www.w3.org/2000/svg" xmlns:xlink="http://www.w3.org/1999/xlink" version="1.1" id="Layer_1" x="84.68499755859375" y="230.00289916992188" viewBox="122.00997924804688 215.88571166992188 350.8000183105469 411.6542663574219" xml:space="preserve" height="115" width="97.99478912353516" preserveAspectRatio="xMinYMin" zoom="1" editorType="buyer" data-layer-role="icon" style="position: absolute; height: 115px; width: 97.9948px; top: 230.003px; left: 84.685px;"><path class="st0" d="M297.4,353.18c54.65,0,98.96,44.31,98.96,98.96c0,54.66-44.31,98.96-98.96,98.96   c-54.65,0-98.96-44.31-98.96-98.96C198.44,397.49,242.75,353.18,297.4,353.18L297.4,353.18z M465,422.4l-41.04-10.07   c-2.26-7.19-5.14-14.18-8.63-20.97l20.97-34.94c2.47-4.11,1.85-9.25-1.44-12.54l-29.19-29.19c-3.29-3.29-8.43-3.91-12.54-1.44   l-34.94,20.97c-6.78-3.49-13.77-6.37-20.97-8.63l-9.87-41.04c-1.23-4.52-5.34-7.81-10.07-7.81h-41.11c-4.73,0-8.84,3.29-10.07,7.81   l-9.87,41.04c-7.19,2.26-14.18,5.14-20.97,8.63l-34.94-20.97c-4.11-2.47-9.25-1.85-12.54,1.44l-29.19,29.19   c-3.29,3.29-3.91,8.43-1.44,12.54l20.97,34.94c-3.49,6.78-6.37,13.77-8.63,20.97l-39.67,10.07c-4.52,1.03-7.81,5.14-7.81,9.87   v41.11c0,4.73,3.29,8.84,7.81,9.87l39.67,10.07c2.26,7.19,5.14,14.18,8.63,20.97l-20.97,34.94c-2.47,4.11-1.85,9.25,1.44,12.54   l29.19,29.19c3.29,3.29,8.43,3.91,12.54,1.44l34.94-20.97c6.78,3.49,13.77,6.37,20.97,8.63l9.87,39.67   c1.23,4.52,5.34,7.81,10.07,7.81h41.11c4.73,0,8.84-3.29,10.07-7.81l9.87-39.67c7.19-2.26,14.18-5.14,20.97-8.63l34.94,20.97   c4.11,2.47,9.25,1.85,12.54-1.44l29.19-29.19c3.29-3.29,3.91-8.43,1.44-12.54l-20.97-34.94c3.49-6.78,6.37-13.77,8.63-20.97   L465,483.25c4.52-1.03,7.81-5.14,7.81-9.87v-41.11C472.81,427.54,469.52,423.43,465,422.4L465,422.4z" name="Layer %{number}" zoom="1" data-layer-id="7124558149125" style="fill: rgb(11, 5, 12);"></path><path class="st1" d="M263.27,283.56c-0.51-0.2-1.01-0.42-1.51-0.66c-5.17,3.32-7.65,10.31-4.52,15.85l5,8.85   c2.72,4.82,2.22,10.63-0.86,14.86l75.51,118.92l-40.58,25.77l-75.4-118.74c-5.16,1.23-10.77-0.61-14.14-5.06l-6.08-8   c-5.14-6.77-15.15-7.49-21.21-1.53l-33.16,32.64c-7.62,7.5-20.33,0.38-18.05-9.91l0.02-0.08c0.24-1.08,0.29-1.14,0.62-1.9   l17.44-40.62c8.69-20.24,23.29-37.39,41.88-49.2c9.09-5.77,18.18-11.54,27.27-17.31c5.04-3.2,11.61-2.74,16.17,1.09   c0.51,0.43,1.23,0.47,1.79,0.12l4.67-2.96c-0.06-6.4,2.58-12.56,7.37-16.91c0.95-0.86,1.98-1.65,3.09-2.35l13.29-8.44   c3.03-1.92,6.69-2.56,10.2-1.78c3.43,0.77,6.42,2.83,8.35,5.76c0.04,0.06,0.08,0.13,0.13,0.19l20.55,32.36   c0.28,0.44,0.54,0.9,0.76,1.36c2.94,6.08,0.91,13.6-4.93,17.31l-13.29,8.44C277.41,285.59,269.85,286.15,263.27,283.56   L263.27,283.56z M407.63,575.75l-23.26,14.77c-4.25,2.7-9.38,3.59-14.29,2.5c-4.91-1.1-9.17-4.09-11.87-8.34l-59.41-93.55   c-5.58-8.79-2.95-20.57,5.84-26.16l23.26-14.77c8.79-5.58,20.57-2.95,26.16,5.84l59.41,93.55c2.7,4.25,3.59,9.38,2.5,14.29   C414.87,568.8,411.88,573.05,407.63,575.75L407.63,575.75z" name="Layer %{number}" zoom="1" data-layer-id="6059828449133" style="fill-rule: evenodd; clip-rule: evenodd; fill: rgb(255, 255, 255);"></path><polygon points="217.89,328.28 244.56,311.34 325.53,438.85 298.86,455.78 217.89,328.28  " name="Layer %{number}" zoom="1" data-layer-id="0753343349142"></polygon><path d="M403.21,568.8l-23.26,14.77c-2.5,1.59-5.4,2.01-8.08,1.41c-2.68-0.6-5.12-2.22-6.71-4.71l-59.41-93.55   c-3.17-4.99-1.69-11.61,3.3-14.79l23.26-14.77c4.99-3.17,11.62-1.69,14.79,3.3l59.41,93.55c1.59,2.5,2.01,5.4,1.41,8.08   C407.33,564.76,405.71,567.21,403.21,568.8L403.21,568.8z" name="Layer %{number}" zoom="1" data-layer-id="3646434349154"></path><path d="M253.01,233.39c-5.29,3.36-7.97,9.92-5.99,16.43l-9.14,5.8c-3.71,2.36-8.36,1.88-11.51-0.76   c-1.83-1.54-4.44-1.73-6.46-0.45c-5.74,3.65-16.73,10.62-27.27,17.31c-17.2,10.92-30.69,26.77-38.73,45.49l-17.44,40.61   c-0.06,0.15-0.11,0.3-0.15,0.44l-0.02,0.08c-0.48,2.28,2.41,4.04,4.23,2.25l33.16-32.64c9.63-9.47,25.38-8.34,33.55,2.42l6.08,8   c1.73,2.28,4.92,2.85,7.34,1.32l32.57-20.68c2.47-1.57,3.28-4.81,1.84-7.36l-5-8.85c-4.87-9.51-1.7-21.17,7.33-26.9l4.41-2.8l0,0   c5.04,4.56,12.12,4.92,17.41,1.56l13.29-8.44c2.47-1.57,3.19-4.83,1.63-7.3l-20.55-32.36c-1.57-2.47-4.83-3.19-7.3-1.63   L253.01,233.39L253.01,233.39z" name="Layer %{number}" zoom="1" data-layer-id="0565292249162"></path><path d="M266.31,224.95l-13.29,8.44c-5.29,3.36-7.97,9.92-5.99,16.43l0,0l14.79,23.3l0,0l0,0c5.04,4.56,12.12,4.92,17.41,1.56   l13.29-8.44c2.47-1.57,3.19-4.83,1.63-7.3l-20.55-32.36c-0.78-1.23-1.99-2.03-3.31-2.33C268.97,223.96,267.54,224.17,266.31,224.95   L266.31,224.95z" name="Layer %{number}" zoom="1" data-layer-id="5838426549172"></path><path d="M254.42,261.47l7.4,11.65l0,0l0,0c5.04,4.56,12.12,4.92,17.41,1.56l13.29-8.44c2.47-1.57,3.19-4.83,1.63-7.3l-10.27-16.18   L254.42,261.47L254.42,261.47z" name="Layer %{number}" zoom="1" data-layer-id="9831436949181"></path><path class="st2" d="M309.05,416.34c21.6,0,39.1,21.55,39.1,48.13c0,26.58-17.51,48.13-39.1,48.13c-21.6,0-39.1-21.55-39.1-48.13   C269.94,437.88,287.45,416.34,309.05,416.34L309.05,416.34z" name="Layer %{number}" zoom="1" data-layer-id="3850327749191" style="fill-rule: evenodd; clip-rule: evenodd;"></path><path class="st1" d="M338.43,515.72c0.22,0.8,0.44,1.61,0.65,2.41c0.71,2.72,1.37,5.46,1.84,8.23l0.83,4.93l-2.69,4.21   c-2.14,3.36-4.99,6.55-7.85,9.32c-6.3,6.11-13.84,10.92-22.24,13.54c-7.54,2.36-14.9,3.07-22.71,3.71   c-1.05,0.09-2.68,0.18-4.01,0.4c-0.68,1.03-1.33,2.1-1.99,3.09c-2.06,3.07-4.25,6.03-6.77,8.74c-7.53,8.1-16.97,12.88-28.17,12.77   c-10.2-0.09-20.91-4.79-29.52-10.02c-10.18-6.18-19.54-14.3-27.21-23.4c-4.93-5.85-9.26-12.26-12.62-19.15   c-6.09-12.48-8.71-26.24-2.65-39.3c3.98-8.58,10.06-13.86,17.04-19.88c5.67-4.89,11.36-9.75,17.09-14.56l1-0.84l0.66-0.36   c0.09-1.17,0.19-2.34,0.3-3.51c1.02-11.39,2.6-22.72,4.02-34.07c1.52-12.19,9.22-23.42,17.4-32.23   c7.73-8.32,18.68-17.52,28.9-22.49c12.1-5.89,26.68-4.25,37.44,3.37c1.19-0.85,2.42-1.65,3.65-2.47c4.31-2.88,8.74-5.59,13.25-8.14   c15.27-8.64,32.36-6.42,42.3,8.84c2.42,3.71,3.83,7.65,4.26,11.67c3.78,0.01,7.5,0.89,10.85,3.07c5.4,3.5,10.37,9.31,13.25,15.05   c3.41,6.8,4.23,14.14,2.06,20.85c0.73,0.53,1.45,1.1,2.15,1.69c3.76,3.16,6.12,8.2,7.48,12.84c1.54,5.24,0.98,10.95-1.16,15.97   c6.45,5.01,10.01,12.49,8.76,21.85c-0.73,5.5-3.16,11.01-6.33,15.54l-0.93,1.32l-1.22,1.06c-4.13,3.57-8.52,6.83-12.88,10.12   c-11.17,8.42-29.05,20.24-43.58,16.01C338.88,515.87,338.66,515.8,338.43,515.72L338.43,515.72z" name="Layer %{number}" zoom="1" data-layer-id="4900218449200" style="fill-rule: evenodd; clip-rule: evenodd; fill: rgb(255, 255, 255);"></path><path class="st2" d="M383.14,452.87c8.11,2.68,14.02,8.39,12.75,17.92c-0.56,4.17-2.5,8.47-4.91,11.9l-0.34,0.48l-0.45,0.39   c-3.93,3.39-8.31,6.65-12.45,9.78c-8.64,6.52-25.2,17.91-36.32,14.68c-3.11-0.9-5.81-2.72-7.78-5.29   c-2.69-3.51-3.67-7.96-3.04-12.31c0.25-1.75,0.75-3.42,1.46-4.99c-5.35,0.94-11.3,0.51-15.3-3.53c-1.11-1.12-1.97-2.44-2.57-3.89   c-1.66-4-2.19-8.18-0.62-12.3c0.18-0.47,0.38-0.93,0.61-1.38c-4.47,0.61-8.99,0.06-12.82-2.26c0.09,1.59,0.12,3.19,0.08,4.8   l2.64,3.08c1.63,1.9,3.24,4.13,4.74,6.14c3.32,4.45,6.52,9.02,9.47,13.71c2.57,4.09,5.1,8.47,6.97,12.94   c2.36,5.66,4.32,11.54,5.87,17.47c0.64,2.44,1.27,5.02,1.69,7.52l0.3,1.8l-0.98,1.54c-1.74,2.72-4.35,5.61-6.64,7.84   c-5.37,5.21-11.79,9.35-18.96,11.59c-7.05,2.2-13.66,2.76-20.94,3.37c-1.56,0.13-7.56,0.54-8.61,1.86   c-1.27,1.59-2.41,3.56-3.56,5.26c-1.81,2.71-3.74,5.32-5.96,7.71c-5.94,6.38-13.18,10.23-22.06,10.15   c-8.59-0.08-18.1-4.44-25.32-8.83c-9.38-5.69-18.12-13.28-25.18-21.67c-4.49-5.33-8.46-11.18-11.52-17.45   c-4.96-10.17-7.54-21.53-2.58-32.22c3.39-7.31,9.01-11.99,14.95-17.11c5.64-4.86,11.31-9.7,17.01-14.49l0.37-0.31l3.89-2.11   c0.17-2.63,0.38-5.25,0.62-7.86c1.02-11.32,2.58-22.52,3.99-33.78c1.29-10.31,8.36-20.21,15.26-27.65   c6.89-7.42,17.3-16.23,26.47-20.69c11.27-5.48,25.28-2.44,33.58,6.66l3.57-2.88c1.47-1.19,3.33-2.38,4.9-3.43   c4.14-2.77,8.41-5.37,12.74-7.82c11.46-6.49,23.79-5.41,31.34,6.17c3.95,6.06,3.76,12.11,1.38,17.64c1.21-0.49,2.44-0.92,3.68-1.28   c4.06-1.17,8.76-1.61,12.48,0.8c4.16,2.69,8.16,7.43,10.37,11.84c3.57,7.11,3.36,14.67-1.92,20.75c3.31,0.69,6.12,2.43,8.2,4.4   c2.59,1.93,4.07,6.11,4.88,8.85c1.54,5.25-0.34,11.4-4,15.36l-0.33,0.36l-0.4,0.28C383.59,452.55,383.36,452.71,383.14,452.87   L383.14,452.87z" name="Layer %{number}" zoom="1" data-layer-id="1585171349209" style="fill-rule: evenodd; clip-rule: evenodd;"></path><path class="st3" d="M216.58,470.29c0,0-1.24,12.67,3.71,29.06c4.95,16.38,22.41,24.27,22.41,24.27s-16.38-12.36-20.09-30.14   c-3.71-17.77,1.39-51.31,3.71-69.86c2.32-18.55,27.67-39.1,39.1-44.67c11.44-5.56,24.34-0.31,30.06,8.19   c5.72,8.5,13.1,23.92,16.46,28.13c3.36,4.21,8.69,11.24,4.98,15.34c-3.71,4.1-12.21,5.49-22.26-0.15   c-10.05-5.64-13.99-7.57-17-11.98c-3.01-4.41-4.79-7.03-4.79-7.03s-1.62,5.56,4.64,12.29c6.26,6.72,18.01,21.1,19.09,38.41   c1.08,17.31-6.96,38.56-12.21,46.14c0,0,10.82-8.81,13.45-19.94c2.63-11.13,2.63-15.3,2.63-15.3s14.99,18.55,20.4,31.53   c5.41,12.98,7.26,23.96,7.26,23.96s-8.19,12.83-23.03,17.47c-14.84,4.64-27.67,1.55-31.84,6.8c-4.17,5.25-11.28,21.48-27.82,21.33   c-16.54-0.15-45.6-20.25-57.81-45.29c-12.21-25.04,1.7-35.47,11.21-43.66c9.51-8.19,16.96-14.45,16.96-14.45L216.58,470.29   L216.58,470.29z" name="Layer %{number}" zoom="1" data-layer-id="0220106149217" style="fill-rule: evenodd; clip-rule: evenodd; fill: rgb(255, 207, 0);"></path><path class="st3" d="M299.08,385.7c0,0,12.83,22.95,15.92,26.51c3.09,3.55,3.09,3.55,3.09,3.55s15.53-11.05,21.56-17.08   c6.03-6.03,11.36-14.3,5.87-22.72c-5.49-8.42-14.53-10.59-25.04-4.64c-10.51,5.95-17,10.82-17,10.82L299.08,385.7L299.08,385.7z" name="Layer %{number}" zoom="1" data-layer-id="9900201449226" style="fill-rule: evenodd; clip-rule: evenodd; fill: rgb(255, 207, 0);"></path><path class="st3" d="M320.41,418.93l26.66-20.79c0,0,11.9-7.19,17.39-3.63c5.49,3.55,16.23,16.15,7.03,25.97   c-9.2,9.81-38.56,29.37-46.68,34.78c-8.11,5.41-17.85,6.34-23.18,1.08c-5.33-5.26-5.33-12.83-4.1-16.54   c1.24-3.71,1.24-3.79,1.24-3.79s9.43,2.94,16,0.15c6.57-2.78,7.26-8.96,7.26-8.96S322.72,421.72,320.41,418.93L320.41,418.93z" name="Layer %{number}" zoom="1" data-layer-id="4030894349237" style="fill-rule: evenodd; clip-rule: evenodd; fill: rgb(255, 207, 0);"></path><path class="st3" d="M370.79,427.67c0,0-39.72,26.12-45.52,31.14c-5.8,5.02-10.12,9.2-6.72,17.39c3.4,8.19,18.32,6.18,33.93-6.1   c15.61-12.29,28.59-21.56,28.59-21.56s4.64-5.02,2.94-10.82c-1.7-5.8-3.32-6.49-3.32-6.49S376.74,426.74,370.79,427.67   L370.79,427.67z" name="Layer %{number}" zoom="1" data-layer-id="1033773849245" style="fill-rule: evenodd; clip-rule: evenodd; fill: rgb(255, 207, 0);"></path><path class="st3" d="M379.06,456.65c0,0-29.52,17-38.33,24.88c-8.81,7.88-6.49,19.47,2.01,21.95c8.5,2.47,23.34-7.26,32.15-13.91   s12.21-9.58,12.21-9.58S400.7,461.59,379.06,456.65L379.06,456.65z" name="Layer %{number}" zoom="1" data-layer-id="3571448349253" style="fill-rule: evenodd; clip-rule: evenodd; fill: rgb(255, 207, 0);"></path></svg></g><g transform="rotate(0 0 0)"><svg viewBoxSize="575" data-root-id="0868311249289" xmlns="http://www.w3.org/2000/svg" x="197.18499755859375" y="302.5028991699219" viewBox="4.519999980926514 -0.25 293.1300048828125 18.760000228881836" height="18.760000228881836" width="293.1300048828125" fontUrl="https://fonts.gstatic.com/s/gothica1/v13/CSR44z5ZnPydRjlCCwlCzOEKSPl6tOU9Eg.ttf" zoom="1" editorType="buyer" data-layer-role="slogan" style="position: absolute; top: 302.503px; left: 197.185px; width: 293.13px; height: 18.76px;"><g data-horizontal-grow="left" data-vertical-center="false" zoom="1" root="[object Object]" style="fill: rgb(0, 0, 0);"><path d="M8.33 13.99L4.52 4.01L7.24 4.01L8.91 9.11Q9 9.39 9.54 11.43L9.54 11.43L9.62 11.43Q9.97 10.04 10.23 9.11L10.23 9.11L11.74 4.01L14.47 4.01L10.21 15.61Q9.62 17.21 8.67 17.86Q7.72 18.51 6.29 18.51L6.29 18.51L5.57 18.51L5.57 16.40L5.89 16.40Q6.71 16.40 7.22 16.08Q7.72 15.77 8.02 14.96L8.02 14.96L8.33 13.99ZM17.28 9.19L17.28 9.19Q17.28 10.95 17.96 11.74Q18.63 12.53 19.51 12.53L19.51 12.53Q20.37 12.53 21.07 11.73Q21.76 10.93 21.76 9.19L21.76 9.19Q21.76 7.44 21.08 6.64Q20.39 5.84 19.51 5.84L19.51 5.84Q18.63 5.84 17.96 6.63Q17.28 7.42 17.28 9.19ZM14.70 9.19L14.70 9.19Q14.70 6.89 15.91 5.29Q17.12 3.69 19.51 3.69L19.51 3.69Q21.13 3.69 22.25 4.50Q23.38 5.31 23.85 6.51Q24.33 7.72 24.33 9.19L24.33 9.19Q24.33 9.90 24.21 10.59Q24.08 11.29 23.74 12.04Q23.40 12.80 22.88 13.37Q22.36 13.94 21.49 14.31Q20.62 14.68 19.51 14.68L19.51 14.68Q18.42 14.68 17.56 14.33Q16.70 13.97 16.17 13.42Q15.64 12.87 15.30 12.12Q14.96 11.37 14.83 10.66Q14.70 9.95 14.70 9.19ZM25.93 10.56L25.93 10.56L25.93 4.01L28.46 4.01L28.46 10.28Q28.46 12.53 29.99 12.53L29.99 12.53Q30.92 12.53 31.45 11.72Q31.97 10.90 31.97 9.77L31.97 9.77L31.97 4.01L34.47 4.01L34.47 14.36L32.06 14.36L32.06 13.29L32.03 13.29Q31.75 13.83 31.07 14.26Q30.39 14.68 29.44 14.68L29.44 14.68Q28.85 14.68 28.29 14.50Q27.74 14.33 27.18 13.91Q26.61 13.50 26.27 12.64Q25.93 11.78 25.93 10.56ZM39.30 14.36L36.79 14.36L36.79 4.01L39.20 4.01L39.20 4.99Q39.52 4.46 40.14 4.08Q40.76 3.69 41.59 3.69L41.59 3.69Q42.40 3.69 42.91 3.88L42.91 3.88L42.91 6.19Q42.29 5.99 41.61 5.99L41.61 5.99Q40.48 5.99 39.89 6.87Q39.30 7.75 39.30 9.23L39.30 9.23L39.30 14.36ZM47.87 9.19L47.87 9.19Q47.87 6.66 49.22 5.18Q50.57 3.69 52.70 3.69L52.70 3.69Q54.30 3.69 55.37 4.67Q56.44 5.64 56.71 6.87L56.71 6.87L54.58 7.45Q54.39 6.80 53.91 6.32Q53.44 5.84 52.73 5.84L52.73 5.84Q51.63 5.84 51.04 6.79Q50.45 7.75 50.45 9.19L50.45 9.19Q50.45 10.79 51.10 11.66Q51.75 12.53 52.73 12.53L52.73 12.53Q53.51 12.53 54.07 12.00Q54.63 11.46 54.83 10.78L54.83 10.78L56.95 11.37Q56.64 12.67 55.46 13.68Q54.28 14.68 52.70 14.68L52.70 14.68Q50.55 14.68 49.21 13.18Q47.87 11.69 47.87 9.19ZM60.45 9.19L60.45 9.19Q60.45 10.95 61.13 11.74Q61.80 12.53 62.68 12.53L62.68 12.53Q63.54 12.53 64.24 11.73Q64.93 10.93 64.93 9.19L64.93 9.19Q64.93 7.44 64.25 6.64Q63.56 5.84 62.68 5.84L62.68 5.84Q61.80 5.84 61.13 6.63Q60.45 7.42 60.45 9.19ZM57.87 9.19L57.87 9.19Q57.87 6.89 59.08 5.29Q60.29 3.69 62.68 3.69L62.68 3.69Q64.30 3.69 65.43 4.50Q66.55 5.31 67.03 6.51Q67.50 7.72 67.50 9.19L67.50 9.19Q67.50 9.90 67.38 10.59Q67.25 11.29 66.91 12.04Q66.57 12.80 66.05 13.37Q65.53 13.94 64.66 14.31Q63.79 14.68 62.68 14.68L62.68 14.68Q61.59 14.68 60.73 14.33Q59.87 13.97 59.34 13.42Q58.82 12.87 58.47 12.12Q58.13 11.37 58.00 10.66Q57.87 9.95 57.87 9.19ZM71.75 14.36L69.24 14.36L69.24 4.01L71.67 4.01L71.67 5.10Q71.95 4.62 72.62 4.16Q73.30 3.69 74.23 3.69L74.23 3.69Q75.90 3.69 76.71 5.38L76.71 5.38Q76.90 5.04 77.19 4.72Q77.48 4.39 78.20 4.04Q78.91 3.69 79.77 3.69L79.77 3.69Q83.00 3.69 83.00 7.72L83.00 7.72L83.00 14.36L80.47 14.36L80.47 7.77Q80.47 6.80 80.19 6.32Q79.91 5.84 79.22 5.84L79.22 5.84Q78.38 5.84 77.86 6.55Q77.34 7.26 77.34 8.26L77.34 8.26L77.34 14.36L74.87 14.36L74.87 7.70Q74.87 5.84 73.62 5.84L73.62 5.84Q72.70 5.84 72.23 6.50Q71.75 7.15 71.75 8.24L71.75 8.24L71.75 14.36ZM87.73 9.18L87.73 9.18Q87.73 10.72 88.30 11.63Q88.88 12.53 89.91 12.53L89.91 12.53Q90.90 12.53 91.49 11.66Q92.09 10.79 92.09 9.18L92.09 9.18Q92.09 7.63 91.51 6.73Q90.93 5.84 89.91 5.84L89.91 5.84Q88.88 5.84 88.30 6.76Q87.73 7.68 87.73 9.18ZM87.77 18.51L85.27 18.51L85.27 4.01L87.68 4.01L87.68 5.17Q88.65 3.69 90.26 3.69L90.26 3.69Q92.16 3.69 93.42 5.17Q94.68 6.64 94.68 9.18L94.68 9.18Q94.68 10.62 94.27 11.72Q93.87 12.81 93.20 13.44Q92.53 14.06 91.78 14.37Q91.04 14.68 90.26 14.68L90.26 14.68Q89.31 14.68 88.69 14.26Q88.07 13.85 87.77 13.32L87.77 13.32L87.77 18.51ZM99.11 14.36L96.59 14.36L96.59-0.25L99.11-0.25L99.11 14.36ZM101.02 9.14L101.02 9.14Q101.02 6.63 102.40 5.16Q103.78 3.69 105.87 3.69L105.87 3.69Q107.91 3.69 109.27 5.19Q110.64 6.68 110.64 9.09L110.64 9.09Q110.64 9.74 110.60 10.05L110.60 10.05L103.57 10.05Q103.57 11.13 104.23 11.90Q104.89 12.67 106.03 12.67L106.03 12.67Q106.84 12.67 107.46 12.26Q108.09 11.85 108.40 11.21L108.40 11.21L110.50 11.95Q110.00 13.11 108.83 13.90Q107.67 14.68 105.96 14.68L105.96 14.68Q103.78 14.68 102.40 13.17Q101.02 11.67 101.02 9.14ZM103.59 8.31L103.59 8.31L108.09 8.31Q108.09 7.22 107.50 6.45Q106.91 5.68 105.87 5.68L105.87 5.68Q104.82 5.68 104.21 6.46Q103.61 7.24 103.59 8.31ZM113.03 6.13L111.48 6.13L111.48 4.01L113.03 4.01L113.03 1.00L115.52 1.00L115.52 4.01L117.77 4.01L117.77 6.13L115.52 6.13L115.52 10.95Q115.52 12.22 116.63 12.22L116.63 12.22L117.79 12.22L117.79 14.36L116.31 14.36Q114.80 14.36 113.92 13.59Q113.03 12.81 113.03 11.11L113.03 11.11L113.03 6.13ZM118.92 9.14L118.92 9.14Q118.92 6.63 120.30 5.16Q121.68 3.69 123.77 3.69L123.77 3.69Q125.81 3.69 127.17 5.19Q128.53 6.68 128.53 9.09L128.53 9.09Q128.53 9.74 128.50 10.05L128.50 10.05L121.46 10.05Q121.46 11.13 122.12 11.90Q122.78 12.67 123.93 12.67L123.93 12.67Q124.73 12.67 125.36 12.26Q125.98 11.85 126.30 11.21L126.30 11.21L128.39 11.95Q127.90 13.11 126.73 13.90Q125.56 14.68 123.86 14.68L123.86 14.68Q121.68 14.68 120.30 13.17Q118.92 11.67 118.92 9.14ZM121.48 8.31L121.48 8.31L125.98 8.31Q125.98 7.22 125.39 6.45Q124.80 5.68 123.77 5.68L123.77 5.68Q122.71 5.68 122.11 6.46Q121.50 7.24 121.48 8.31ZM137.21 14.36L134.74 14.36L134.74-0.25L137.21-0.25L137.21 4.87L137.27 4.87Q137.69 4.34 138.37 4.02Q139.04 3.69 139.80 3.69L139.80 3.69Q141.28 3.69 142.28 4.65Q143.28 5.61 143.28 7.72L143.28 7.72L143.28 14.36L140.78 14.36L140.78 8.00Q140.78 5.84 139.32 5.84L139.32 5.84Q138.41 5.84 137.81 6.62Q137.21 7.40 137.21 8.49L137.21 8.49L137.21 14.36ZM147.43 11.37L147.43 11.37Q147.43 11.88 147.82 12.23Q148.22 12.59 148.89 12.59L148.89 12.59Q149.89 12.59 150.59 11.92Q151.29 11.25 151.29 10.16L151.29 10.16L151.29 9.35Q150.59 9.53 149.50 9.69L149.50 9.69Q147.43 10.02 147.43 11.37ZM144.86 11.58L144.86 11.58Q144.86 10.16 145.94 9.25Q147.02 8.33 149.17 8.02L149.17 8.02Q150.86 7.73 151.29 7.61L151.29 7.61L151.29 7.07Q151.29 6.38 150.80 6.02Q150.31 5.66 149.50 5.66L149.50 5.66Q147.88 5.66 146.65 7.00L146.65 7.00L145.14 5.70Q146.83 3.69 149.48 3.69L149.48 3.69Q151.82 3.69 152.82 4.81Q153.81 5.92 153.81 7.98L153.81 7.98L153.81 14.36L151.37 14.36L151.37 13.18Q151.03 13.80 150.27 14.24Q149.50 14.68 148.52 14.68L148.52 14.68Q146.83 14.68 145.85 13.82Q144.86 12.96 144.86 11.58ZM158.48 14.36L155.97 14.36L155.97 4.01L158.40 4.01L158.40 5.15Q158.66 4.62 159.35 4.16Q160.05 3.69 161.16 3.69L161.16 3.69Q164.55 3.69 164.55 7.72L164.55 7.72L164.55 14.36L162.05 14.36L162.05 8.02Q162.05 6.82 161.68 6.33Q161.31 5.84 160.59 5.84L160.59 5.84Q159.68 5.84 159.08 6.57Q158.48 7.31 158.48 8.42L158.48 8.42L158.48 14.36ZM166.17 9.18L166.17 9.18Q166.17 6.61 167.41 5.15Q168.64 3.69 170.60 3.69L170.60 3.69Q171.42 3.69 172.06 4.07Q172.71 4.45 173.06 4.96L173.06 4.96L173.06-0.25L175.57-0.25L175.57 14.36L173.13 14.36L173.13 13.18Q172.79 13.80 172.10 14.24Q171.40 14.68 170.58 14.68L170.58 14.68Q169.75 14.68 169.00 14.37Q168.24 14.06 167.59 13.44Q166.94 12.81 166.55 11.72Q166.17 10.62 166.17 9.18ZM168.75 9.18L168.75 9.18Q168.75 10.79 169.34 11.66Q169.93 12.53 170.95 12.53L170.95 12.53Q171.91 12.53 172.50 11.64Q173.09 10.74 173.09 9.18L173.09 9.18Q173.09 7.68 172.53 6.76Q171.97 5.84 170.95 5.84L170.95 5.84Q169.88 5.84 169.31 6.75Q168.75 7.66 168.75 9.18ZM180.76 13.99L176.94 4.01L179.67 4.01L181.34 9.11Q181.42 9.39 181.97 11.43L181.97 11.43L182.04 11.43Q182.39 10.04 182.65 9.11L182.65 9.11L184.17 4.01L186.89 4.01L182.64 15.61Q182.04 17.21 181.09 17.86Q180.14 18.51 178.72 18.51L178.72 18.51L178.00 18.51L178.00 16.40L178.31 16.40Q179.14 16.40 179.64 16.08Q180.14 15.77 180.44 14.96L180.44 14.96L180.76 13.99ZM190.69 14.36L188.17 14.36L188.17 4.01L190.60 4.01L190.60 5.10Q190.88 4.62 191.56 4.16Q192.23 3.69 193.17 3.69L193.17 3.69Q194.84 3.69 195.64 5.38L195.64 5.38Q195.84 5.04 196.13 4.72Q196.42 4.39 197.13 4.04Q197.84 3.69 198.70 3.69L198.70 3.69Q201.94 3.69 201.94 7.72L201.94 7.72L201.94 14.36L199.41 14.36L199.41 7.77Q199.41 6.80 199.13 6.32Q198.84 5.84 198.16 5.84L198.16 5.84Q197.31 5.84 196.80 6.55Q196.28 7.26 196.28 8.26L196.28 8.26L196.28 14.36L193.80 14.36L193.80 7.70Q193.80 5.84 192.55 5.84L192.55 5.84Q191.64 5.84 191.16 6.50Q190.69 7.15 190.69 8.24L190.69 8.24L190.69 14.36ZM206.07 11.37L206.07 11.37Q206.07 11.88 206.46 12.23Q206.86 12.59 207.53 12.59L207.53 12.59Q208.53 12.59 209.23 11.92Q209.94 11.25 209.94 10.16L209.94 10.16L209.94 9.35Q209.23 9.53 208.14 9.69L208.14 9.69Q206.07 10.02 206.07 11.37ZM203.50 11.58L203.50 11.58Q203.50 10.16 204.58 9.25Q205.66 8.33 207.81 8.02L207.81 8.02Q209.50 7.73 209.94 7.61L209.94 7.61L209.94 7.07Q209.94 6.38 209.44 6.02Q208.95 5.66 208.14 5.66L208.14 5.66Q206.53 5.66 205.29 7.00L205.29 7.00L203.78 5.70Q205.47 3.69 208.13 3.69L208.13 3.69Q210.46 3.69 211.46 4.81Q212.45 5.92 212.45 7.98L212.45 7.98L212.45 14.36L210.01 14.36L210.01 13.18Q209.67 13.80 208.91 14.24Q208.14 14.68 207.16 14.68L207.16 14.68Q205.47 14.68 204.49 13.82Q203.50 12.96 203.50 11.58ZM217.13 14.36L214.61 14.36L214.61 4.01L217.04 4.01L217.04 5.15Q217.30 4.62 218.00 4.16Q218.69 3.69 219.80 3.69L219.80 3.69Q223.19 3.69 223.19 7.72L223.19 7.72L223.19 14.36L220.69 14.36L220.69 8.02Q220.69 6.82 220.32 6.33Q219.96 5.84 219.23 5.84L219.23 5.84Q218.32 5.84 217.72 6.57Q217.13 7.31 217.13 8.42L217.13 8.42L217.13 14.36ZM229.01 12.16L229.01 12.16L230.78 11.11Q231.84 12.66 233.51 12.66L233.51 12.66Q234.26 12.66 234.69 12.35Q235.13 12.04 235.13 11.55L235.13 11.55Q235.13 11.39 235.08 11.26Q235.04 11.13 234.93 11.00Q234.83 10.88 234.74 10.79Q234.65 10.71 234.45 10.60Q234.25 10.49 234.12 10.43Q234 10.37 233.74 10.27Q233.47 10.18 233.33 10.13Q233.19 10.09 232.88 9.99Q232.56 9.90 232.42 9.84L232.42 9.84Q231.08 9.40 230.27 8.72Q229.46 8.03 229.46 6.73L229.46 6.73Q229.46 5.34 230.66 4.52Q231.86 3.69 233.53 3.69L233.53 3.69Q234.83 3.69 235.97 4.36Q237.11 5.03 237.67 6.10L237.67 6.10L236.02 7.10Q234.93 5.71 233.54 5.71L233.54 5.71Q232.82 5.71 232.43 6.00Q232.03 6.29 232.03 6.77L232.03 6.77Q232.03 6.93 232.08 7.07Q232.12 7.21 232.22 7.33Q232.33 7.45 232.43 7.55Q232.52 7.65 232.71 7.75Q232.89 7.86 233.02 7.92Q233.16 7.98 233.40 8.07Q233.65 8.16 233.79 8.20Q233.93 8.24 234.21 8.34Q234.49 8.44 234.62 8.47L234.62 8.47Q237.69 9.49 237.69 11.57L237.69 11.57Q237.69 12.87 236.62 13.77Q235.55 14.68 233.58 14.68L233.58 14.68Q232.05 14.68 230.84 13.99Q229.64 13.31 229.01 12.16ZM241.37 9.19L241.37 9.19Q241.37 10.95 242.04 11.74Q242.72 12.53 243.60 12.53L243.60 12.53Q244.46 12.53 245.15 11.73Q245.85 10.93 245.85 9.19L245.85 9.19Q245.85 7.44 245.16 6.64Q244.48 5.84 243.60 5.84L243.60 5.84Q242.72 5.84 242.04 6.63Q241.37 7.42 241.37 9.19ZM238.78 9.19L238.78 9.19Q238.78 6.89 239.99 5.29Q241.21 3.69 243.60 3.69L243.60 3.69Q245.21 3.69 246.34 4.50Q247.46 5.31 247.94 6.51Q248.41 7.72 248.41 9.19L248.41 9.19Q248.41 9.90 248.29 10.59Q248.17 11.29 247.83 12.04Q247.48 12.80 246.96 13.37Q246.45 13.94 245.58 14.31Q244.71 14.68 243.60 14.68L243.60 14.68Q242.51 14.68 241.65 14.33Q240.79 13.97 240.26 13.42Q239.73 12.87 239.39 12.12Q239.04 11.37 238.91 10.66Q238.78 9.95 238.78 9.19ZM252.84 14.36L250.33 14.36L250.33-0.25L252.84-0.25L252.84 14.36ZM255.18 10.56L255.18 10.56L255.18 4.01L257.71 4.01L257.71 10.28Q257.71 12.53 259.24 12.53L259.24 12.53Q260.17 12.53 260.70 11.72Q261.23 10.90 261.23 9.77L261.23 9.77L261.23 4.01L263.72 4.01L263.72 14.36L261.32 14.36L261.32 13.29L261.28 13.29Q261 13.83 260.32 14.26Q259.65 14.68 258.70 14.68L258.70 14.68Q258.10 14.68 257.55 14.50Q256.99 14.33 256.43 13.91Q255.87 13.50 255.52 12.64Q255.18 11.78 255.18 10.56ZM266.68 6.13L265.13 6.13L265.13 4.01L266.68 4.01L266.68 1.00L269.17 1.00L269.17 4.01L271.42 4.01L271.42 6.13L269.17 6.13L269.17 10.95Q269.17 12.22 270.28 12.22L270.28 12.22L271.44 12.22L271.44 14.36L269.96 14.36Q268.45 14.36 267.57 13.59Q266.68 12.81 266.68 11.11L266.68 11.11L266.68 6.13ZM275.84 2.69L273.23 2.69L273.23 0.02L275.84 0.02L275.84 2.69ZM275.78 14.36L273.30 14.36L273.30 4.01L275.78 4.01L275.78 14.36ZM280.28 9.19L280.28 9.19Q280.28 10.95 280.96 11.74Q281.64 12.53 282.52 12.53L282.52 12.53Q283.38 12.53 284.07 11.73Q284.77 10.93 284.77 9.19L284.77 9.19Q284.77 7.44 284.08 6.64Q283.39 5.84 282.52 5.84L282.52 5.84Q281.64 5.84 280.96 6.63Q280.28 7.42 280.28 9.19ZM277.70 9.19L277.70 9.19Q277.70 6.89 278.91 5.29Q280.13 3.69 282.52 3.69L282.52 3.69Q284.13 3.69 285.26 4.50Q286.38 5.31 286.86 6.51Q287.33 7.72 287.33 9.19L287.33 9.19Q287.33 9.90 287.21 10.59Q287.09 11.29 286.74 12.04Q286.40 12.80 285.88 13.37Q285.36 13.94 284.49 14.31Q283.62 14.68 282.52 14.68L282.52 14.68Q281.43 14.68 280.56 14.33Q279.70 13.97 279.18 13.42Q278.65 12.87 278.31 12.12Q277.96 11.37 277.83 10.66Q277.70 9.95 277.70 9.19ZM291.59 14.36L289.07 14.36L289.07 4.01L291.50 4.01L291.50 5.15Q291.76 4.62 292.46 4.16Q293.15 3.69 294.26 3.69L294.26 3.69Q297.65 3.69 297.65 7.72L297.65 7.72L297.65 14.36L295.15 14.36L295.15 8.02Q295.15 6.82 294.79 6.33Q294.42 5.84 293.70 5.84L293.70 5.84Q292.78 5.84 292.18 6.57Q291.59 7.31 291.59 8.42L291.59 8.42L291.59 14.36Z" transform="translate(0, 0)"></path></g></svg></g><g transform="rotate(0 0 0)"><svg viewBoxSize="575" data-root-id="9140650149262" xmlns="http://www.w3.org/2000/svg" x="197.18499755859375" y="262.5028991699219" viewBox="0.7199999690055847 17.639999389648438 238 42.119998931884766" height="42.119998931884766" width="238" fontUrl="https://fonts.gstatic.com/s/sairacondensed/v11/EJROQgErUN8XuHNEtX81i9TmEkrfpeFE-IyCrw.ttf" zoom="1" editorType="buyer" data-layer-role="brandName" style="position: absolute; top: 262.503px; left: 197.185px; width: 238px; height: 42.12px;"><g data-horizontal-grow="left" data-vertical-center="false" zoom="1" root="[object Object]" style="fill: rgb(0, 0, 0);"><path d="M10.98 51.07L7.60 51.07L7.60 23.17L0.72 23.17L0.72 20.11L17.86 20.11L17.86 23.17L10.98 23.17L10.98 51.07ZM27.13 51.43Q23.49 51.43 21.89 50.49Q20.29 49.54 19.82 47.20Q19.35 44.86 19.35 39.60L19.35 39.60Q19.35 34.33 19.82 31.99Q20.29 29.65 21.89 28.71Q23.49 27.76 27.13 27.76L27.13 27.76Q30.78 27.76 32.38 28.71Q33.97 29.65 34.42 31.99Q34.88 34.33 34.88 39.60L34.88 39.60Q34.88 44.86 34.42 47.20Q33.97 49.54 32.38 50.49Q30.78 51.43 27.13 51.43L27.13 51.43ZM27.13 48.69Q29.38 48.69 30.31 48.06Q31.23 47.43 31.45 45.72Q31.68 44.01 31.68 39.60L31.68 39.60Q31.68 35.19 31.45 33.48Q31.23 31.77 30.31 31.14Q29.38 30.51 27.13 30.51L27.13 30.51Q24.84 30.51 23.94 31.14Q23.04 31.77 22.79 33.50Q22.54 35.23 22.54 39.60L22.54 39.60Q22.54 43.96 22.79 45.70Q23.04 47.43 23.94 48.06Q24.84 48.69 27.13 48.69L27.13 48.69ZM44.19 51.07L40.99 51.07L40.99 30.87L37.66 30.87L37.66 28.12L40.99 28.12L40.99 21.46L44.19 21.46L44.19 28.12L48.15 28.12L48.15 30.87L44.19 30.87L44.19 51.07ZM56.07 51.43Q52.92 51.43 51.52 49.99Q50.13 48.55 50.13 44.77L50.13 44.77Q50.13 42.16 50.65 40.70Q51.16 39.24 52.40 38.61Q53.64 37.98 55.89 37.98L55.89 37.98Q57.19 37.98 61.83 38.20L61.83 38.20L61.83 36.58Q61.83 33.75 61.45 32.51Q61.06 31.27 60.05 30.89Q59.04 30.51 56.70 30.51L56.70 30.51Q55.66 30.51 54.02 30.67Q52.38 30.82 51.25 31.00L51.25 31.00L51.25 28.39Q54.18 27.76 57.60 27.76L57.60 27.76Q60.75 27.76 62.30 28.53Q63.85 29.29 64.44 31.14Q65.02 32.98 65.02 36.54L65.02 36.54L65.02 51.07L62.19 51.07L62.01 47.92L61.78 47.92Q61.11 50.04 59.60 50.74Q58.09 51.43 56.07 51.43L56.07 51.43ZM57.10 48.69Q58.68 48.69 59.67 48.31Q60.66 47.92 61.15 46.66L61.15 46.66Q61.83 44.86 61.83 41.85L61.83 41.85L61.83 40.36L56.70 40.36Q55.26 40.36 54.56 40.66Q53.86 40.95 53.57 41.83Q53.28 42.70 53.28 44.55L53.28 44.55Q53.28 46.30 53.57 47.16Q53.86 48.01 54.67 48.35Q55.48 48.69 57.10 48.69L57.10 48.69ZM73.75 51.07L70.56 51.07L70.56 17.64L73.75 17.64L73.75 51.07ZM84.96 51.43Q83.43 51.43 81.67 51.28Q79.92 51.12 78.79 50.89L78.79 50.89L78.79 48.24Q81.67 48.73 84.73 48.73L84.73 48.73Q86.44 48.73 87.30 48.28Q88.15 47.83 88.42 47.02Q88.69 46.21 88.69 44.82L88.69 44.82Q88.69 43.15 88.51 42.46Q88.33 41.76 87.91 41.51Q87.48 41.26 86.44 41.13L86.44 41.13L81.94 40.45Q79.78 40.14 79.02 38.81Q78.25 37.48 78.25 34.47L78.25 34.47Q78.25 31.77 79.11 30.31Q79.96 28.84 81.47 28.30Q82.98 27.76 85.36 27.76L85.36 27.76Q86.76 27.76 88.33 27.94Q89.91 28.12 90.85 28.39L90.85 28.39L90.85 31.00Q89.82 30.78 88.31 30.62Q86.80 30.46 85.36 30.46L85.36 30.46Q83.25 30.46 82.30 31.23Q81.36 31.99 81.36 34.24L81.36 34.24Q81.36 35.73 81.54 36.43Q81.72 37.13 82.15 37.39Q82.57 37.66 83.56 37.80L83.56 37.80L87.93 38.38Q89.37 38.56 90.20 39.13Q91.03 39.69 91.44 40.99Q91.84 42.30 91.84 44.73L91.84 44.73Q91.84 48.51 90.22 49.97Q88.60 51.43 84.96 51.43L84.96 51.43ZM96.34 59.76L96.34 28.12L99.13 28.12L99.31 31.32L99.58 31.32Q100.21 29.25 101.63 28.51Q103.05 27.76 105.07 27.76L105.07 27.76Q107.73 27.76 109.12 28.75Q110.52 29.74 111.08 32.24Q111.64 34.74 111.64 39.55L111.64 39.55Q111.64 44.41 111.10 46.91Q110.56 49.41 109.17 50.42Q107.77 51.43 105.12 51.43L105.12 51.43Q103.00 51.43 101.70 50.71Q100.39 49.99 99.76 48.28L99.76 48.28L99.54 48.28L99.54 59.76L96.34 59.76ZM103.95 48.55Q106.06 48.55 106.94 47.97Q107.82 47.38 108.13 45.58Q108.45 43.78 108.45 39.60L108.45 39.60Q108.45 35.41 108.13 33.61Q107.82 31.81 106.94 31.23Q106.06 30.64 103.95 30.64L103.95 30.64Q102.24 30.64 101.29 31.32Q100.35 31.99 99.94 33.57L99.94 33.57Q99.67 34.65 99.61 36.04Q99.54 37.44 99.54 39.60L99.54 39.60Q99.54 43.78 99.90 45.22L99.90 45.22Q100.30 47.07 101.25 47.81Q102.19 48.55 103.95 48.55L103.95 48.55ZM130.86 39.60L130.86 40.63L119.07 40.63Q119.07 44.28 119.41 45.88Q119.74 47.47 120.85 48.08Q121.95 48.69 124.56 48.69L124.56 48.69Q127.53 48.69 130.23 48.19L130.23 48.19L130.23 50.80Q129.19 51.07 127.39 51.25Q125.59 51.43 123.93 51.43L123.93 51.43Q120.28 51.43 118.62 50.38Q116.95 49.32 116.41 46.93Q115.87 44.55 115.87 39.64L115.87 39.64Q115.87 34.74 116.32 32.38Q116.77 30.01 118.42 28.89Q120.06 27.76 123.70 27.76L123.70 27.76Q127.12 27.76 128.61 28.84Q130.09 29.92 130.48 32.22Q130.86 34.52 130.86 39.60L130.86 39.60ZM123.66 30.46Q121.54 30.46 120.60 31.00Q119.65 31.54 119.36 33.10Q119.07 34.65 119.07 38.25L119.07 38.25L127.80 38.25L127.80 37.71Q127.80 34.42 127.44 32.92Q127.08 31.41 126.25 30.94Q125.41 30.46 123.66 30.46L123.66 30.46ZM147.28 50.85Q146.38 51.12 145.06 51.28Q143.73 51.43 142.47 51.43L142.47 51.43Q139.14 51.43 137.59 50.26Q136.03 49.09 135.58 46.71Q135.13 44.32 135.13 39.60L135.13 39.60Q135.13 34.88 135.70 32.42Q136.26 29.97 137.79 28.87Q139.32 27.76 142.38 27.76L142.38 27.76Q143.64 27.76 144.99 27.92Q146.34 28.08 147.15 28.35L147.15 28.35L147.15 30.96Q145.21 30.51 143.10 30.51L143.10 30.51Q140.94 30.51 139.97 31.21Q139.00 31.90 138.67 33.73Q138.33 35.55 138.33 39.55L138.33 39.55Q138.33 43.65 138.67 45.49Q139.00 47.34 139.99 48.01Q140.98 48.69 143.14 48.69L143.14 48.69Q145.44 48.69 147.28 48.19L147.28 48.19L147.28 50.85ZM154.93 21.37L151.56 21.37L151.56 17.64L154.93 17.64L154.93 21.37ZM154.84 51.07L151.65 51.07L151.65 28.12L154.84 28.12L154.84 51.07ZM165.10 51.43Q161.95 51.43 160.56 49.99Q159.16 48.55 159.16 44.77L159.16 44.77Q159.16 42.16 159.68 40.70Q160.20 39.24 161.44 38.61Q162.67 37.98 164.92 37.98L164.92 37.98Q166.23 37.98 170.86 38.20L170.86 38.20L170.86 36.58Q170.86 33.75 170.48 32.51Q170.10 31.27 169.09 30.89Q168.07 30.51 165.73 30.51L165.73 30.51Q164.70 30.51 163.06 30.67Q161.41 30.82 160.29 31.00L160.29 31.00L160.29 28.39Q163.21 27.76 166.63 27.76L166.63 27.76Q169.78 27.76 171.34 28.53Q172.89 29.29 173.47 31.14Q174.06 32.98 174.06 36.54L174.06 36.54L174.06 51.07L171.22 51.07L171.04 47.92L170.82 47.92Q170.14 50.04 168.64 50.74Q167.13 51.43 165.10 51.43L165.10 51.43ZM166.14 48.69Q167.71 48.69 168.70 48.31Q169.69 47.92 170.19 46.66L170.19 46.66Q170.86 44.86 170.86 41.85L170.86 41.85L170.86 40.36L165.73 40.36Q164.29 40.36 163.60 40.66Q162.90 40.95 162.61 41.83Q162.31 42.70 162.31 44.55L162.31 44.55Q162.31 46.30 162.61 47.16Q162.90 48.01 163.71 48.35Q164.52 48.69 166.14 48.69L166.14 48.69ZM182.79 51.07L179.59 51.07L179.59 17.64L182.79 17.64L182.79 51.07ZM191.70 21.37L188.32 21.37L188.32 17.64L191.70 17.64L191.70 21.37ZM191.61 51.07L188.41 51.07L188.41 28.12L191.61 28.12L191.61 51.07ZM202.81 51.43Q201.28 51.43 199.53 51.28Q197.77 51.12 196.65 50.89L196.65 50.89L196.65 48.24Q199.53 48.73 202.59 48.73L202.59 48.73Q204.30 48.73 205.15 48.28Q206.01 47.83 206.28 47.02Q206.55 46.21 206.55 44.82L206.55 44.82Q206.55 43.15 206.37 42.46Q206.19 41.76 205.76 41.51Q205.33 41.26 204.30 41.13L204.30 41.13L199.80 40.45Q197.64 40.14 196.87 38.81Q196.11 37.48 196.11 34.47L196.11 34.47Q196.11 31.77 196.96 30.31Q197.82 28.84 199.33 28.30Q200.83 27.76 203.22 27.76L203.22 27.76Q204.61 27.76 206.19 27.94Q207.76 28.12 208.71 28.39L208.71 28.39L208.71 31.00Q207.67 30.78 206.17 30.62Q204.66 30.46 203.22 30.46L203.22 30.46Q201.10 30.46 200.16 31.23Q199.21 31.99 199.21 34.24L199.21 34.24Q199.21 35.73 199.39 36.43Q199.57 37.13 200.00 37.39Q200.43 37.66 201.42 37.80L201.42 37.80L205.78 38.38Q207.22 38.56 208.06 39.13Q208.89 39.69 209.29 40.99Q209.70 42.30 209.70 44.73L209.70 44.73Q209.70 48.51 208.08 49.97Q206.46 51.43 202.81 51.43L202.81 51.43ZM218.56 51.07L215.37 51.07L215.37 30.87L212.04 30.87L212.04 28.12L215.37 28.12L215.37 21.46L218.56 21.46L218.56 28.12L222.52 28.12L222.52 30.87L218.56 30.87L218.56 51.07ZM231.84 51.43Q230.31 51.43 228.55 51.28Q226.80 51.12 225.67 50.89L225.67 50.89L225.67 48.24Q228.55 48.73 231.61 48.73L231.61 48.73Q233.32 48.73 234.18 48.28Q235.03 47.83 235.30 47.02Q235.57 46.21 235.57 44.82L235.57 44.82Q235.57 43.15 235.39 42.46Q235.21 41.76 234.79 41.51Q234.36 41.26 233.32 41.13L233.32 41.13L228.82 40.45Q226.66 40.14 225.90 38.81Q225.13 37.48 225.13 34.47L225.13 34.47Q225.13 31.77 225.99 30.31Q226.84 28.84 228.35 28.30Q229.86 27.76 232.24 27.76L232.24 27.76Q233.64 27.76 235.21 27.94Q236.79 28.12 237.73 28.39L237.73 28.39L237.73 31.00Q236.70 30.78 235.19 30.62Q233.68 30.46 232.24 30.46L232.24 30.46Q230.13 30.46 229.18 31.23Q228.24 31.99 228.24 34.24L228.24 34.24Q228.24 35.73 228.42 36.43Q228.60 37.13 229.03 37.39Q229.45 37.66 230.44 37.80L230.44 37.80L234.81 38.38Q236.25 38.56 237.08 39.13Q237.91 39.69 238.32 40.99Q238.72 42.30 238.72 44.73L238.72 44.73Q238.72 48.51 237.10 49.97Q235.48 51.43 231.84 51.43L231.84 51.43Z" transform="translate(0, 0)"></path></g></svg></g></svg>