<svg viewBox="0 0 575 575" class="roots-wrapper"><g transform="rotate(0 0 0)"><svg viewBoxSize="575" data-root-id="7252763241220" xmlns="http://www.w3.org/2000/svg" xmlns:xlink="http://www.w3.org/1999/xlink" xmlnsSerif="http://www.serif.com/" viewBox="-0.00000762939453125 0 161.791015625 211.71600341796875" version="1.1" xml:space="preserve" height="131.97789001464844" width="100.85601100351722" y="182.00999450683594" x="237.07198474121094" preserveAspectRatio="xMinYMin" zoom="1" editorType="buyer" data-layer-role="icon" style="fill-rule: evenodd; clip-rule: evenodd; stroke-linejoin: round; stroke-miterlimit: 2; position: absolute; height: 131.978px; width: 100.856px; top: 182.01px; left: 237.072px;"><path d="M48.537,195.537l0,-68.738c-9.421,-3.334 -16.179,-12.327 -16.179,-22.886c0,-9.432 5.393,-17.615 13.26,-21.63l-0,23.364l11.009,6.356l11.009,-6.356l-0,-23.364c7.867,4.015 13.259,12.198 13.259,21.63c0,10.559 -6.757,19.552 -16.179,22.886l0,84.917l-64.716,-0l0,-80.896l16.179,0l0,64.717l32.358,-0Zm48.537,9.151l-0.081,0l0,-65.58l-3.166,-0.198c0.008,-0.05 0.012,-0.101 0.012,-0.152c-0,-1.116 -1.813,-2.022 -4.045,-2.022c-2.233,0 -4.045,0.906 -4.045,2.022c0,0.051 0.004,0.102 0.011,0.152l-7.294,-0l0,-16.179l7.294,-0c0.156,1.045 1.903,1.871 4.034,1.871c2.13,-0 3.878,-0.826 4.033,-1.871l16.997,-0l0.147,0c24.833,0.097 24.122,24.268 24.122,24.268c0,4.133 -2.451,1.07 -3.234,-2.173c-1.298,-5.38 -4.334,-7.926 -14.561,-8.899c-1.35,-0.128 -2.702,1.474 -4.045,2.699l0,56.911l32.359,-0l-0,-64.717l16.179,0l-0,80.896l-64.717,-0l0,-7.028Z" name="Layer %{number}" zoom="1" data-layer-id="9612994641232" style="fill: url(&quot;#_Linear1&quot;);"></path><path d="M80.895,0l80.896,80.895l-1.388,1.388l1.388,0l-0,32.358l-16.179,0l-0,-27.044l-64.717,-64.716l-64.716,64.716l0,27.044l-16.179,0l-0,-32.358l1.388,0l-1.388,-1.388l80.895,-80.895Z" name="Layer %{number}" zoom="1" data-layer-id="2876719341237" style="fill: url(&quot;#_Linear2&quot;);"></path><linearGradient id="_Linear1" x1="0" y1="0" x2="1" y2="0" gradientUnits="userSpaceOnUse" gradientTransform="matrix(-8.08953,137.522,-137.522,-8.08953,76.8505,98.4623)" name="Layer %{number}" zoom="1" data-layer-id="5294941741242"><stop offset="0" style="stop-color: rgb(174, 174, 174); stop-opacity: 1;"></stop><stop offset="1" style="stop-color: rgb(114, 114, 114); stop-opacity: 1;"></stop></linearGradient><linearGradient id="_Linear2" x1="0" y1="0" x2="1" y2="0" gradientUnits="userSpaceOnUse" gradientTransform="matrix(7.76277e-15,126.776,-126.776,7.76277e-15,84.9401,4.04477)" name="Layer %{number}" zoom="1" data-layer-id="0849192641247"><stop offset="0" style="stop-color: rgb(237, 199, 19); stop-opacity: 1;"></stop><stop offset="1" style="stop-color: rgb(154, 127, 0); stop-opacity: 1;"></stop></linearGradient></svg></g><g transform="rotate(0 0 0)"><svg viewBoxSize="575" data-root-id="0102818741271" xmlns="http://www.w3.org/2000/svg" y="380.00999450683594" viewBox="9.859999656677246 4.119999885559082 467.1800231933594 12.980000495910645" x="53.90997314453125" height="12.980000495910645" width="467.1800231933594" fontUrl="https://fonts.gstatic.com/s/firasanscondensed/v10/wEOsEADFm8hSaQTFG18FErVhsC9x-tarWQXOiMN-cxZblY4.ttf" zoom="1" editorType="buyer" data-layer-role="slogan" style="position: absolute; top: 380.01px; width: 467.18px; height: 12.98px; left: 53.91px;"><g data-horizontal-grow="center" zoom="1" root="[object Object]" style="fill: rgb(156, 156, 156); fill-opacity: 1;"><path d="M16.97 4.39L19.39 4.39L15.79 12.11L15.79 16.83L13.45 16.83L13.45 12.13L9.86 4.39L12.37 4.39L14.67 10.21L16.97 4.39ZM30.92 4.12Q33.26 4.12 34.58 5.77Q35.89 7.42 35.89 10.60L35.89 10.60Q35.89 13.75 34.58 15.43Q33.26 17.10 30.92 17.10L30.92 17.10Q28.60 17.10 27.29 15.44Q25.97 13.79 25.97 10.62L25.97 10.62Q25.97 7.49 27.29 5.80Q28.60 4.12 30.92 4.12L30.92 4.12ZM30.92 5.90Q29.68 5.90 29.05 7.00Q28.42 8.10 28.42 10.62L28.42 10.62Q28.42 13.12 29.06 14.22Q29.70 15.32 30.92 15.32L30.92 15.32Q32.20 15.32 32.82 14.23Q33.44 13.14 33.44 10.60L33.44 10.60Q33.44 8.10 32.82 7.00Q32.20 5.90 30.92 5.90L30.92 5.90ZM52.07 4.39L52.07 13.09Q52.07 14.24 51.59 15.15Q51.10 16.06 50.15 16.58Q49.19 17.10 47.83 17.10L47.83 17.10Q45.76 17.10 44.67 16.00Q43.58 14.90 43.58 13.09L43.58 13.09L43.58 4.39L45.92 4.39L45.92 12.98Q45.92 14.15 46.38 14.72Q46.84 15.28 47.83 15.28L47.83 15.28Q48.80 15.28 49.27 14.71Q49.73 14.13 49.73 12.98L49.73 12.98L49.73 4.39L52.07 4.39ZM66.38 16.83L63.94 11.83L62.66 11.83L62.66 16.83L60.32 16.83L60.32 4.39L63.59 4.39Q68.29 4.39 68.29 8.05L68.29 8.05Q68.29 9.23 67.73 10.09Q67.18 10.94 66.06 11.39L66.06 11.39L68.96 16.83L66.38 16.83ZM62.66 10.15L63.72 10.15Q64.84 10.15 65.36 9.65Q65.88 9.14 65.88 8.05L65.88 8.05Q65.88 7.04 65.33 6.57Q64.78 6.10 63.58 6.10L63.58 6.10L62.66 6.10L62.66 10.15ZM90.58 4.12Q91.60 4.12 92.38 4.45Q93.17 4.77 93.92 5.42L93.92 5.42L92.77 6.77Q91.76 5.92 90.70 5.92L90.70 5.92Q89.48 5.92 88.78 7.02Q88.07 8.12 88.07 10.58L88.07 10.58Q88.07 13.00 88.78 14.11Q89.48 15.23 90.72 15.23L90.72 15.23Q91.37 15.23 91.85 14.99Q92.34 14.74 92.93 14.27L92.93 14.27L94.05 15.61Q93.42 16.25 92.56 16.68Q91.69 17.10 90.61 17.10L90.61 17.10Q89.12 17.10 87.99 16.37Q86.87 15.64 86.25 14.18Q85.63 12.71 85.63 10.58L85.63 10.58Q85.63 8.50 86.27 7.04Q86.92 5.58 88.04 4.85Q89.15 4.12 90.58 4.12L90.58 4.12ZM105.82 4.12Q108.16 4.12 109.48 5.77Q110.79 7.42 110.79 10.60L110.79 10.60Q110.79 13.75 109.48 15.43Q108.16 17.10 105.82 17.10L105.82 17.10Q103.50 17.10 102.19 15.44Q100.87 13.79 100.87 10.62L100.87 10.62Q100.87 7.49 102.19 5.80Q103.50 4.12 105.82 4.12L105.82 4.12ZM105.82 5.90Q104.58 5.90 103.95 7.00Q103.32 8.10 103.32 10.62L103.32 10.62Q103.32 13.12 103.96 14.22Q104.60 15.32 105.82 15.32L105.82 15.32Q107.10 15.32 107.72 14.23Q108.34 13.14 108.34 10.60L108.34 10.60Q108.34 8.10 107.72 7.00Q107.10 5.90 105.82 5.90L105.82 5.90ZM128.68 4.39L129.55 16.83L127.31 16.83L127.04 11.59Q126.90 8.57 126.90 7.29L126.90 7.29L126.92 6.53L124.96 15.48L122.78 15.48L120.71 6.52Q120.73 7.07 120.73 8.19L120.73 8.19Q120.73 10.08 120.65 11.66L120.65 11.66L120.40 16.83L118.19 16.83L119.05 4.39L122.02 4.39L123.91 13.14L125.68 4.39L128.68 4.39ZM140.72 4.39Q143.05 4.39 144.28 5.39Q145.51 6.39 145.51 8.35L145.51 8.35Q145.51 10.40 144.28 11.44Q143.05 12.47 140.89 12.47L140.89 12.47L139.84 12.47L139.84 16.83L137.50 16.83L137.50 4.39L140.72 4.39ZM140.74 10.73Q141.95 10.73 142.52 10.20Q143.10 9.67 143.10 8.35L143.10 8.35Q143.10 7.18 142.52 6.64Q141.95 6.10 140.74 6.10L140.74 6.10L139.84 6.10L139.84 10.73L140.74 10.73ZM153.05 4.39L155.39 4.39L155.39 14.92L159.82 14.92L159.57 16.83L153.05 16.83L153.05 4.39ZM167.20 4.39L173.84 4.39L173.59 6.12L169.54 6.12L169.54 9.65L173.09 9.65L173.09 11.36L169.54 11.36L169.54 15.08L173.88 15.08L173.88 16.83L167.20 16.83L167.20 4.39ZM180.63 4.39L189.05 4.39L188.80 6.23L185.94 6.23L185.94 16.83L183.62 16.83L183.62 6.23L180.63 6.23L180.63 4.39ZM196.29 4.39L202.93 4.39L202.68 6.12L198.63 6.12L198.63 9.65L202.18 9.65L202.18 11.36L198.63 11.36L198.63 15.08L202.97 15.08L202.97 16.83L196.29 16.83L196.29 4.39ZM229.14 16.83L226.80 16.83L226.80 11.25L223.06 11.25L223.06 16.83L220.72 16.83L220.72 4.39L223.06 4.39L223.06 9.40L226.80 9.40L226.80 4.39L229.14 4.39L229.14 16.83ZM246.01 16.83L243.59 16.83L242.91 13.93L239.31 13.93L238.63 16.83L236.27 16.83L239.72 4.39L242.57 4.39L246.01 16.83ZM241.11 6.17L239.71 12.17L242.51 12.17L241.11 6.17ZM261.54 4.39L261.54 16.83L258.55 16.83L254.92 6.70L254.97 7.18Q255.22 9.70 255.22 11.66L255.22 11.66L255.22 16.83L253.13 16.83L253.13 4.39L256.09 4.39L259.76 14.53Q259.65 13.82 259.55 12.65Q259.45 11.47 259.45 10.30L259.45 10.30L259.45 4.39L261.54 4.39ZM272.86 4.39Q274.55 4.39 275.81 4.88Q277.06 5.36 277.84 6.72Q278.62 8.08 278.62 10.55L278.62 10.55Q278.62 14.04 277.08 15.44Q275.54 16.83 273.13 16.83L273.13 16.83L269.96 16.83L269.96 4.39L272.86 4.39ZM273.24 6.14L272.30 6.14L272.30 15.08L273.29 15.08Q274.68 15.08 275.44 14.11Q276.21 13.14 276.21 10.55L276.21 10.55Q276.21 8.75 275.82 7.78Q275.44 6.80 274.80 6.47Q274.16 6.14 273.24 6.14L273.24 6.14ZM292.32 4.39L294.73 4.39L291.13 12.11L291.13 16.83L288.79 16.83L288.79 12.13L285.21 4.39L287.71 4.39L290.02 10.21L292.32 4.39ZM311.89 4.39L312.75 16.83L310.52 16.83L310.25 11.59Q310.10 8.57 310.10 7.29L310.10 7.29L310.12 6.53L308.16 15.48L305.98 15.48L303.91 6.52Q303.93 7.07 303.93 8.19L303.93 8.19Q303.93 10.08 303.86 11.66L303.86 11.66L303.61 16.83L301.39 16.83L302.26 4.39L305.23 4.39L307.12 13.14L308.88 4.39L311.89 4.39ZM329.15 16.83L326.74 16.83L326.05 13.93L322.45 13.93L321.77 16.83L319.41 16.83L322.87 4.39L325.71 4.39L329.15 16.83ZM324.25 6.17L322.85 12.17L325.66 12.17L324.25 6.17ZM344.68 4.39L344.68 16.83L341.69 16.83L338.06 6.70L338.11 7.18Q338.36 9.70 338.36 11.66L338.36 11.66L338.36 16.83L336.28 16.83L336.28 4.39L339.23 4.39L342.90 14.53Q342.79 13.82 342.69 12.65Q342.59 11.47 342.59 10.30L342.59 10.30L342.59 4.39L344.68 4.39ZM366.37 4.12Q367.56 4.12 368.45 4.50Q369.34 4.88 370.10 5.65L370.10 5.65L368.98 6.93Q368.39 6.41 367.79 6.16Q367.20 5.90 366.52 5.90L366.52 5.90Q365.76 5.90 365.30 6.30Q364.84 6.70 364.84 7.40L364.84 7.40Q364.84 7.87 365.03 8.19Q365.22 8.51 365.71 8.79Q366.19 9.07 367.11 9.40L367.11 9.40Q368.78 10.01 369.60 10.85Q370.42 11.70 370.42 13.28L370.42 13.28Q370.42 14.38 369.90 15.25Q369.38 16.11 368.40 16.61Q367.42 17.10 366.10 17.10L366.10 17.10Q363.64 17.10 361.98 15.41L361.98 15.41L363.17 14.09Q363.85 14.69 364.53 14.99Q365.20 15.30 366.01 15.30L366.01 15.30Q366.93 15.30 367.46 14.80Q367.99 14.29 367.99 13.41L367.99 13.41Q367.99 12.62 367.54 12.16Q367.09 11.70 365.83 11.27L365.83 11.27Q364.03 10.64 363.24 9.77Q362.45 8.91 362.45 7.56L362.45 7.56Q362.45 6.57 362.95 5.79Q363.46 5.00 364.36 4.56Q365.26 4.12 366.37 4.12L366.37 4.12ZM382.50 4.12Q384.84 4.12 386.15 5.77Q387.47 7.42 387.47 10.60L387.47 10.60Q387.47 13.75 386.15 15.43Q384.84 17.10 382.50 17.10L382.50 17.10Q380.18 17.10 378.86 15.44Q377.55 13.79 377.55 10.62L377.55 10.62Q377.55 7.49 378.86 5.80Q380.18 4.12 382.50 4.12L382.50 4.12ZM382.50 5.90Q381.26 5.90 380.63 7.00Q380.00 8.10 380.00 10.62L380.00 10.62Q380.00 13.12 380.64 14.22Q381.28 15.32 382.50 15.32L382.50 15.32Q383.78 15.32 384.40 14.23Q385.02 13.14 385.02 10.60L385.02 10.60Q385.02 8.10 384.40 7.00Q383.78 5.90 382.50 5.90L382.50 5.90ZM395.33 4.39L397.67 4.39L397.67 14.92L402.10 14.92L401.85 16.83L395.33 16.83L395.33 4.39ZM417.80 4.39L417.80 13.09Q417.80 14.24 417.31 15.15Q416.83 16.06 415.87 16.58Q414.92 17.10 413.55 17.10L413.55 17.10Q411.48 17.10 410.39 16.00Q409.30 14.90 409.30 13.09L409.30 13.09L409.30 4.39L411.64 4.39L411.64 12.98Q411.64 14.15 412.10 14.72Q412.56 15.28 413.55 15.28L413.55 15.28Q414.52 15.28 414.99 14.71Q415.46 14.13 415.46 12.98L415.46 12.98L415.46 4.39L417.80 4.39ZM424.96 4.39L433.39 4.39L433.13 6.23L430.27 6.23L430.27 16.83L427.95 16.83L427.95 6.23L424.96 6.23L424.96 4.39ZM440.62 4.39L442.96 4.39L442.96 16.83L440.62 16.83L440.62 4.39ZM455.80 4.12Q458.14 4.12 459.45 5.77Q460.76 7.42 460.76 10.60L460.76 10.60Q460.76 13.75 459.45 15.43Q458.14 17.10 455.80 17.10L455.80 17.10Q453.47 17.10 452.16 15.44Q450.85 13.79 450.85 10.62L450.85 10.62Q450.85 7.49 452.16 5.80Q453.47 4.12 455.80 4.12L455.80 4.12ZM455.80 5.90Q454.55 5.90 453.92 7.00Q453.29 8.10 453.29 10.62L453.29 10.62Q453.29 13.12 453.93 14.22Q454.57 15.32 455.80 15.32L455.80 15.32Q457.07 15.32 457.69 14.23Q458.32 13.14 458.32 10.60L458.32 10.60Q458.32 8.10 457.69 7.00Q457.07 5.90 455.80 5.90L455.80 5.90ZM477.04 4.39L477.04 16.83L474.05 16.83L470.41 6.70L470.47 7.18Q470.72 9.70 470.72 11.66L470.72 11.66L470.72 16.83L468.63 16.83L468.63 4.39L471.58 4.39L475.25 14.53Q475.15 13.82 475.05 12.65Q474.95 11.47 474.95 10.30L474.95 10.30L474.95 4.39L477.04 4.39Z" transform="translate(0, 0)"></path></g></svg></g><g transform="rotate(0 0 0)"><svg viewBoxSize="575" data-root-id="3087830241252" xmlns="http://www.w3.org/2000/svg" y="333.00999450683594" viewBox="1.1200000047683716 11.600000381469727 376.77001953125 49.730003356933594" x="99.11497436523439" height="49.730003356933594" width="376.77001953125" fontUrl="https://fonts.gstatic.com/s/poppins/v21/pxiByp8kv8JHgFVrLCz7V1tvFP-KUEg.ttf" zoom="1" editorType="buyer" data-layer-role="brandName" style="position: absolute; top: 333.01px; width: 376.77px; height: 49.73px; left: 99.115px;"><g data-horizontal-grow="center" zoom="1" root="[object Object]" style="fill: rgb(166, 141, 38); fill-opacity: 1;"><path d="M1.12 16.22L26.42 16.22L26.42 22.60L17.76 22.60L17.76 48.93L9.79 48.93L9.79 22.60L1.12 22.60L1.12 16.22ZM42.27 49.30Q38.45 49.30 35.39 47.67Q32.34 46.04 30.59 43.01Q28.85 39.98 28.85 35.93L28.85 35.93Q28.85 31.92 30.62 28.87Q32.39 25.82 35.46 24.19Q38.54 22.56 42.36 22.56L42.36 22.56Q46.18 22.56 49.26 24.19Q52.33 25.82 54.10 28.87Q55.88 31.92 55.88 35.93L55.88 35.93Q55.88 39.94 54.08 42.99Q52.29 46.04 49.19 47.67Q46.09 49.30 42.27 49.30L42.27 49.30ZM42.27 42.41Q44.55 42.41 46.16 40.73Q47.77 39.05 47.77 35.93L47.77 35.93Q47.77 32.81 46.21 31.13Q44.64 29.45 42.36 29.45L42.36 29.45Q40.03 29.45 38.49 31.11Q36.95 32.76 36.95 35.93L36.95 35.93Q36.95 39.05 38.47 40.73Q39.98 42.41 42.27 42.41L42.27 42.41ZM71.77 42.17L74.61 42.17L74.61 48.93L70.55 48.93Q66.22 48.93 63.80 46.81Q61.37 44.69 61.37 39.89L61.37 39.89L61.37 29.55L58.21 29.55L58.21 22.93L61.37 22.93L61.37 16.59L69.34 16.59L69.34 22.93L74.56 22.93L74.56 29.55L69.34 29.55L69.34 39.98Q69.34 41.15 69.90 41.66Q70.46 42.17 71.77 42.17L71.77 42.17ZM77.45 35.88Q77.45 31.88 78.97 28.85Q80.48 25.82 83.09 24.19Q85.70 22.56 88.92 22.56L88.92 22.56Q91.66 22.56 93.74 23.67Q95.81 24.79 96.93 26.61L96.93 26.61L96.93 22.93L104.90 22.93L104.90 48.93L96.93 48.93L96.93 45.25Q95.77 47.07 93.69 48.19Q91.62 49.30 88.87 49.30L88.87 49.30Q85.70 49.30 83.09 47.65Q80.48 46.00 78.97 42.94Q77.45 39.89 77.45 35.88L77.45 35.88ZM96.93 35.93Q96.93 32.95 95.28 31.22Q93.62 29.50 91.25 29.50L91.25 29.50Q88.87 29.50 87.21 31.20Q85.56 32.90 85.56 35.88L85.56 35.88Q85.56 38.87 87.21 40.61Q88.87 42.36 91.25 42.36L91.25 42.36Q93.62 42.36 95.28 40.64Q96.93 38.91 96.93 35.93L96.93 35.93ZM110.68 14.45L118.65 14.45L118.65 48.93L110.68 48.93L110.68 14.45ZM135.00 49.30Q131.60 49.30 128.95 48.14Q126.29 46.97 124.75 44.95Q123.21 42.92 123.03 40.40L123.03 40.40L130.90 40.40Q131.04 41.75 132.16 42.59Q133.28 43.43 134.91 43.43L134.91 43.43Q136.40 43.43 137.22 42.85Q138.03 42.27 138.03 41.34L138.03 41.34Q138.03 40.22 136.87 39.68Q135.70 39.15 133.09 38.49L133.09 38.49Q130.30 37.84 128.43 37.12Q126.57 36.40 125.22 34.83Q123.87 33.27 123.87 30.62L123.87 30.62Q123.87 28.38 125.10 26.54Q126.34 24.70 128.74 23.63Q131.14 22.56 134.45 22.56L134.45 22.56Q139.34 22.56 142.16 24.98Q144.98 27.40 145.40 31.41L145.40 31.41L138.03 31.41Q137.85 30.06 136.85 29.27Q135.84 28.47 134.21 28.47L134.21 28.47Q132.81 28.47 132.07 29.01Q131.32 29.55 131.32 30.48L131.32 30.48Q131.32 31.60 132.51 32.15Q133.70 32.71 136.22 33.27L136.22 33.27Q139.11 34.02 140.92 34.74Q142.74 35.46 144.11 37.07Q145.49 38.68 145.54 41.38L145.54 41.38Q145.54 43.67 144.25 45.46Q142.97 47.25 140.57 48.28Q138.17 49.30 135.00 49.30L135.00 49.30ZM158.40 26.61Q159.56 24.79 161.61 23.67Q163.66 22.56 166.41 22.56L166.41 22.56Q169.63 22.56 172.24 24.19Q174.85 25.82 176.36 28.85Q177.88 31.88 177.88 35.88L177.88 35.88Q177.88 39.89 176.36 42.94Q174.85 46.00 172.24 47.65Q169.63 49.30 166.41 49.30L166.41 49.30Q163.71 49.30 161.64 48.19Q159.56 47.07 158.40 45.30L158.40 45.30L158.40 61.33L150.43 61.33L150.43 22.93L158.40 22.93L158.40 26.61ZM169.77 35.88Q169.77 32.90 168.11 31.20Q166.46 29.50 164.04 29.50L164.04 29.50Q161.66 29.50 160.01 31.22Q158.35 32.95 158.35 35.93L158.35 35.93Q158.35 38.91 160.01 40.64Q161.66 42.36 164.04 42.36L164.04 42.36Q166.41 42.36 168.09 40.61Q169.77 38.87 169.77 35.88L169.77 35.88ZM206.58 35.51Q206.58 36.63 206.44 37.84L206.44 37.84L188.41 37.84Q188.60 40.26 189.97 41.55Q191.35 42.83 193.35 42.83L193.35 42.83Q196.33 42.83 197.50 40.31L197.50 40.31L205.98 40.31Q205.33 42.87 203.62 44.92Q201.92 46.97 199.36 48.14Q196.80 49.30 193.63 49.30L193.63 49.30Q189.81 49.30 186.83 47.67Q183.84 46.04 182.16 43.01Q180.49 39.98 180.49 35.93L180.49 35.93Q180.49 31.88 182.14 28.85Q183.80 25.82 186.78 24.19Q189.76 22.56 193.63 22.56L193.63 22.56Q197.40 22.56 200.34 24.14Q203.28 25.72 204.93 28.66Q206.58 31.60 206.58 35.51L206.58 35.51ZM188.46 33.41L198.43 33.41Q198.43 31.36 197.03 30.15Q195.63 28.94 193.54 28.94L193.54 28.94Q191.53 28.94 190.16 30.10Q188.78 31.27 188.46 33.41L188.46 33.41ZM209.19 35.93Q209.19 31.88 210.85 28.85Q212.50 25.82 215.46 24.19Q218.42 22.56 222.24 22.56L222.24 22.56Q227.14 22.56 230.42 25.12Q233.71 27.68 234.73 32.34L234.73 32.34L226.25 32.34Q225.18 29.36 222.10 29.36L222.10 29.36Q219.91 29.36 218.61 31.06Q217.30 32.76 217.30 35.93L217.30 35.93Q217.30 39.10 218.61 40.80Q219.91 42.50 222.10 42.50L222.10 42.50Q225.18 42.50 226.25 39.52L226.25 39.52L234.73 39.52Q233.71 44.08 230.40 46.69Q227.09 49.30 222.24 49.30L222.24 49.30Q218.42 49.30 215.46 47.67Q212.50 46.04 210.85 43.01Q209.19 39.98 209.19 35.93L209.19 35.93ZM242.98 20.23Q240.88 20.23 239.55 18.99Q238.23 17.76 238.23 15.94L238.23 15.94Q238.23 14.07 239.55 12.84Q240.88 11.60 242.98 11.60L242.98 11.60Q245.03 11.60 246.36 12.84Q247.69 14.07 247.69 15.94L247.69 15.94Q247.69 17.76 246.36 18.99Q245.03 20.23 242.98 20.23L242.98 20.23ZM238.97 22.93L246.94 22.93L246.94 48.93L238.97 48.93L238.97 22.93ZM251.14 35.88Q251.14 31.88 252.65 28.85Q254.16 25.82 256.77 24.19Q259.38 22.56 262.60 22.56L262.60 22.56Q265.35 22.56 267.42 23.67Q269.50 24.79 270.61 26.61L270.61 26.61L270.61 22.93L278.58 22.93L278.58 48.93L270.61 48.93L270.61 45.25Q269.45 47.07 267.38 48.19Q265.30 49.30 262.55 49.30L262.55 49.30Q259.38 49.30 256.77 47.65Q254.16 46.00 252.65 42.94Q251.14 39.89 251.14 35.88L251.14 35.88ZM270.61 35.93Q270.61 32.95 268.96 31.22Q267.31 29.50 264.93 29.50L264.93 29.50Q262.55 29.50 260.90 31.20Q259.24 32.90 259.24 35.88L259.24 35.88Q259.24 38.87 260.90 40.61Q262.55 42.36 264.93 42.36L264.93 42.36Q267.31 42.36 268.96 40.64Q270.61 38.91 270.61 35.93L270.61 35.93ZM284.36 14.45L292.33 14.45L292.33 48.93L284.36 48.93L284.36 14.45ZM302.12 20.23Q300.02 20.23 298.69 18.99Q297.36 17.76 297.36 15.94L297.36 15.94Q297.36 14.07 298.69 12.84Q300.02 11.60 302.12 11.60L302.12 11.60Q304.17 11.60 305.50 12.84Q306.82 14.07 306.82 15.94L306.82 15.94Q306.82 17.76 305.50 18.99Q304.17 20.23 302.12 20.23L302.12 20.23ZM298.11 22.93L306.08 22.93L306.08 48.93L298.11 48.93L298.11 22.93ZM322.44 49.30Q319.03 49.30 316.38 48.14Q313.72 46.97 312.18 44.95Q310.65 42.92 310.46 40.40L310.46 40.40L318.33 40.40Q318.47 41.75 319.59 42.59Q320.71 43.43 322.34 43.43L322.34 43.43Q323.83 43.43 324.65 42.85Q325.46 42.27 325.46 41.34L325.46 41.34Q325.46 40.22 324.30 39.68Q323.13 39.15 320.52 38.49L320.52 38.49Q317.73 37.84 315.86 37.12Q314.00 36.40 312.65 34.83Q311.30 33.27 311.30 30.62L311.30 30.62Q311.30 28.38 312.53 26.54Q313.77 24.70 316.17 23.63Q318.57 22.56 321.88 22.56L321.88 22.56Q326.77 22.56 329.59 24.98Q332.41 27.40 332.83 31.41L332.83 31.41L325.46 31.41Q325.28 30.06 324.28 29.27Q323.27 28.47 321.64 28.47L321.64 28.47Q320.24 28.47 319.50 29.01Q318.75 29.55 318.75 30.48L318.75 30.48Q318.75 31.60 319.94 32.15Q321.13 32.71 323.65 33.27L323.65 33.27Q326.54 34.02 328.35 34.74Q330.17 35.46 331.55 37.07Q332.92 38.68 332.97 41.38L332.97 41.38Q332.97 43.67 331.69 45.46Q330.40 47.25 328.00 48.28Q325.60 49.30 322.44 49.30L322.44 49.30ZM349.51 42.17L352.35 42.17L352.35 48.93L348.30 48.93Q343.97 48.93 341.54 46.81Q339.12 44.69 339.12 39.89L339.12 39.89L339.12 29.55L335.95 29.55L335.95 22.93L339.12 22.93L339.12 16.59L347.09 16.59L347.09 22.93L352.31 22.93L352.31 29.55L347.09 29.55L347.09 39.98Q347.09 41.15 347.65 41.66Q348.21 42.17 349.51 42.17L349.51 42.17ZM367.36 49.30Q363.96 49.30 361.30 48.14Q358.64 46.97 357.11 44.95Q355.57 42.92 355.38 40.40L355.38 40.40L363.26 40.40Q363.40 41.75 364.52 42.59Q365.63 43.43 367.27 43.43L367.27 43.43Q368.76 43.43 369.57 42.85Q370.39 42.27 370.39 41.34L370.39 41.34Q370.39 40.22 369.22 39.68Q368.06 39.15 365.45 38.49L365.45 38.49Q362.65 37.84 360.79 37.12Q358.92 36.40 357.57 34.83Q356.22 33.27 356.22 30.62L356.22 30.62Q356.22 28.38 357.46 26.54Q358.69 24.70 361.09 23.63Q363.49 22.56 366.80 22.56L366.80 22.56Q371.69 22.56 374.51 24.98Q377.33 27.40 377.75 31.41L377.75 31.41L370.39 31.41Q370.20 30.06 369.20 29.27Q368.20 28.47 366.57 28.47L366.57 28.47Q365.17 28.47 364.42 29.01Q363.68 29.55 363.68 30.48L363.68 30.48Q363.68 31.60 364.87 32.15Q366.05 32.71 368.57 33.27L368.57 33.27Q371.46 34.02 373.28 34.74Q375.09 35.46 376.47 37.07Q377.84 38.68 377.89 41.38L377.89 41.38Q377.89 43.67 376.61 45.46Q375.33 47.25 372.93 48.28Q370.53 49.30 367.36 49.30L367.36 49.30Z" transform="translate(0, 0)"></path></g></svg></g></svg>