<svg viewBox="0 0 575 575" class="roots-wrapper"><g transform="rotate(0 0 0)"><svg viewBoxSize="575" data-root-id="0167908602051" xmlns="http://www.w3.org/2000/svg" viewBox="0 0 114.96800231933594 82.87000274658203" fill="none" height="129.746337890625" width="180" y="222.6271636352539" x="3.8599853515625" preserveAspectRatio="xMinYMin" zoom="1" editorType="buyer" data-layer-role="icon" style="position: absolute; height: 129.746px; width: 180px; top: 222.627px; left: 3.85999px;"><path fill-rule="evenodd" clip-rule="evenodd" d="M33.5977 0H32.0977V1.5V81.37V82.87H33.5977H113.468H114.968V81.37V67.76H111.968V79.87H35.0977V3H111.968V15.12H114.968V1.5V0H113.468H33.5977ZM21.3984 1.5V81.37H24.3984V1.5H21.3984ZM10.6992 73.0216V9.85156H13.6992V73.0216H10.6992ZM0 18.2109V64.6709H3V18.2109H0Z" fill="url(#paint0_linear_28402_2290)" name="Layer %{number}" zoom="1" data-layer-id="2466465802051" style="fill: rgb(73, 162, 233); fill-opacity: 1;"></path><linearGradient id="paint0_linear_28402_2290" x1="14.6111" y1="82.87" x2="73.3547" y2="-20.2966" gradientUnits="userSpaceOnUse" name="Layer %{number}" zoom="1" data-layer-id="6190118702051"><stop stop-color="#9B6D48"></stop><stop offset="1" stop-color="#E8E4B5"></stop></linearGradient></svg></g><g transform="rotate(0 0 0)"><svg viewBoxSize="575" data-root-id="5383380602051" xmlns="http://www.w3.org/2000/svg" y="330.5911636352539" viewBox="7.070000171661377 -0.04000000283122063 348.9599914550781 10.09000015258789" x="207.8599853515625" height="10.09000015258789" width="348.9599914550781" fontUrl="https://fonts.gstatic.com/s/josefinsans/v32/Qw3PZQNVED7rKGKxtqIqX5E-AVSJrOCfjY46_DjQXMFrLgTsQV0.ttf" zoom="1" editorType="buyer" data-layer-role="slogan" style="position: absolute; top: 330.591px; width: 348.96px; height: 10.09px; left: 207.86px;"><g data-horizontal-grow="left" zoom="1" root="[object Object]" style="fill: rgb(255, 255, 255); fill-opacity: 0.7;"><path d="M10.56 9.75L10.56 6.62L7.07 0.35L8.62 0.35L11.41 5.54L11.02 5.56L13.79 0.35L15.33 0.35L11.82 6.62L11.82 9.75L10.56 9.75ZM18.30 5.06L18.30 5.06Q18.30 4.08 18.67 3.22Q19.05 2.35 19.71 1.68Q20.37 1.01 21.24 0.63Q22.10 0.25 23.10 0.25L23.10 0.25Q24.09 0.25 24.95 0.63Q25.82 1.01 26.49 1.68Q27.16 2.35 27.53 3.22Q27.91 4.08 27.91 5.06L27.91 5.06Q27.91 6.06 27.53 6.93Q27.16 7.80 26.49 8.46Q25.83 9.11 24.96 9.48Q24.09 9.85 23.10 9.85L23.10 9.85Q22.10 9.85 21.24 9.49Q20.37 9.13 19.71 8.48Q19.05 7.83 18.67 6.96Q18.30 6.08 18.30 5.06ZM19.60 5.07L19.60 5.07Q19.60 5.81 19.88 6.45Q20.15 7.10 20.63 7.59Q21.11 8.09 21.75 8.37Q22.39 8.64 23.13 8.64L23.13 8.64Q23.86 8.64 24.49 8.37Q25.13 8.09 25.60 7.59Q26.07 7.10 26.34 6.45Q26.61 5.81 26.61 5.06L26.61 5.06Q26.61 4.32 26.34 3.66Q26.07 3.00 25.58 2.51Q25.10 2.01 24.47 1.74Q23.83 1.46 23.10 1.46L23.10 1.46Q22.36 1.46 21.72 1.74Q21.09 2.03 20.61 2.52Q20.12 3.02 19.86 3.67Q19.60 4.33 19.60 5.07ZM33.76 0.35L33.76 6.42Q33.76 7.06 34.07 7.56Q34.37 8.06 34.88 8.35Q35.39 8.63 36.02 8.63L36.02 8.63Q36.69 8.63 37.21 8.35Q37.73 8.06 38.03 7.56Q38.32 7.06 38.32 6.42L38.32 6.42L38.32 0.35L39.56 0.35L39.56 6.46Q39.56 7.49 39.08 8.25Q38.61 9.02 37.81 9.44Q37.01 9.85 36.02 9.85L36.02 9.85L36.02 9.85Q35.04 9.85 34.24 9.44Q33.45 9.02 32.98 8.25Q32.51 7.49 32.51 6.46L32.51 6.46L32.51 0.35L33.76 0.35ZM44.73 0.35L47.23 0.35Q47.94 0.35 48.55 0.54Q49.15 0.73 49.60 1.10Q50.05 1.47 50.30 2.01Q50.56 2.55 50.56 3.26L50.56 3.26Q50.56 3.82 50.39 4.35Q50.23 4.89 49.86 5.32Q49.48 5.76 48.87 6.03Q48.27 6.29 47.39 6.29L47.39 6.29L45.99 6.29L45.99 9.75L44.73 9.75L44.73 0.35ZM45.99 5.08L47.36 5.08Q47.92 5.08 48.29 4.91Q48.66 4.74 48.87 4.48Q49.08 4.21 49.17 3.90Q49.26 3.59 49.26 3.31L49.26 3.31Q49.26 3.03 49.16 2.72Q49.06 2.42 48.85 2.16Q48.63 1.90 48.29 1.73Q47.94 1.56 47.45 1.56L47.45 1.56L45.99 1.56L45.99 5.08ZM47.41 5.84L48.91 5.80L51.36 9.75L49.91 9.75L47.41 5.84ZM68.98 7.93L69.51 9.05Q69.28 9.20 68.87 9.40Q68.47 9.59 67.93 9.72Q67.39 9.85 66.76 9.85L66.76 9.85Q65.66 9.84 64.79 9.46Q63.91 9.09 63.30 8.44Q62.69 7.79 62.35 6.94Q62.02 6.08 62.02 5.12L62.02 5.12Q62.02 4.07 62.37 3.18Q62.71 2.29 63.34 1.63Q63.96 0.97 64.81 0.61Q65.66 0.25 66.68 0.25L66.68 0.25Q67.52 0.25 68.21 0.47Q68.90 0.70 69.39 1.01L69.39 1.01L68.89 2.18Q68.50 1.92 67.94 1.69Q67.39 1.46 66.72 1.46L66.72 1.46Q66.03 1.46 65.42 1.73Q64.81 2.00 64.34 2.50Q63.87 2.99 63.60 3.65Q63.34 4.30 63.34 5.06L63.34 5.06Q63.34 5.82 63.58 6.48Q63.82 7.14 64.27 7.62Q64.71 8.10 65.35 8.37Q65.99 8.64 66.78 8.64L66.78 8.64Q67.50 8.64 68.06 8.42Q68.61 8.20 68.98 7.93L68.98 7.93ZM73.64 5.06L73.64 5.06Q73.64 4.08 74.02 3.22Q74.39 2.35 75.05 1.68Q75.71 1.01 76.58 0.63Q77.44 0.25 78.44 0.25L78.44 0.25Q79.43 0.25 80.29 0.63Q81.16 1.01 81.83 1.68Q82.50 2.35 82.88 3.22Q83.25 4.08 83.25 5.06L83.25 5.06Q83.25 6.06 82.88 6.93Q82.50 7.80 81.84 8.46Q81.17 9.11 80.30 9.48Q79.43 9.85 78.44 9.85L78.44 9.85Q77.44 9.85 76.58 9.49Q75.71 9.13 75.05 8.48Q74.39 7.83 74.02 6.96Q73.64 6.08 73.64 5.06ZM74.94 5.07L74.94 5.07Q74.94 5.81 75.22 6.45Q75.49 7.10 75.97 7.59Q76.45 8.09 77.09 8.37Q77.73 8.64 78.47 8.64L78.47 8.64Q79.20 8.64 79.83 8.37Q80.47 8.09 80.94 7.59Q81.41 7.10 81.68 6.45Q81.95 5.81 81.95 5.06L81.95 5.06Q81.95 4.32 81.68 3.66Q81.41 3.00 80.92 2.51Q80.44 2.01 79.81 1.74Q79.17 1.46 78.44 1.46L78.44 1.46Q77.70 1.46 77.06 1.74Q76.43 2.03 75.95 2.52Q75.47 3.02 75.20 3.67Q74.94 4.33 74.94 5.07ZM89.19 9.75L87.97 9.75L87.97 0.05L87.98 0.05L92.91 7.05L92.38 6.94L97.29 0.05L97.32 0.05L97.32 9.75L96.07 9.75L96.07 2.91L96.15 3.55L92.60 8.57L92.57 8.57L88.97 3.55L89.19 2.96L89.19 9.75ZM102.62 0.35L105.13 0.35Q106.16 0.35 106.89 0.70Q107.61 1.04 108.01 1.69Q108.41 2.34 108.41 3.26L108.41 3.26Q108.41 3.82 108.24 4.36Q108.07 4.90 107.70 5.34Q107.33 5.77 106.73 6.03Q106.13 6.29 105.27 6.29L105.27 6.29L103.88 6.29L103.88 9.75L102.62 9.75L102.62 0.35ZM103.88 5.08L105.26 5.08Q105.82 5.08 106.18 4.90Q106.55 4.72 106.76 4.44Q106.96 4.16 107.05 3.85Q107.15 3.54 107.15 3.29L107.15 3.29Q107.15 3.00 107.05 2.70Q106.96 2.39 106.75 2.14Q106.53 1.88 106.19 1.72Q105.85 1.56 105.34 1.56L105.34 1.56L103.88 1.56L103.88 5.08ZM112.96 9.75L112.96 0.35L114.22 0.35L114.22 8.54L118.99 8.54L118.99 9.75L112.96 9.75ZM123.64 9.75L123.64 0.35L129.75 0.35L129.75 1.56L124.90 1.56L124.90 4.42L129.23 4.42L129.23 5.63L124.90 5.63L124.90 8.54L129.93 8.54L129.93 9.75L123.64 9.75ZM134.03 1.56L134.03 0.35L140.27 0.35L140.27 1.56L137.75 1.56L137.75 9.75L136.49 9.75L136.49 1.56L134.03 1.56ZM144.87 9.75L144.87 0.35L150.98 0.35L150.98 1.56L146.13 1.56L146.13 4.42L150.46 4.42L150.46 5.63L146.13 5.63L146.13 8.54L151.16 8.54L151.16 9.75L144.87 9.75ZM168.84 0.35L170.09 0.35L170.09 9.75L168.84 9.75L168.84 5.63L163.92 5.63L163.92 9.75L162.66 9.75L162.66 0.35L163.92 0.35L163.92 4.43L168.84 4.43L168.84 0.35ZM175.69 9.75L174.46 9.75L178.57-0.04L178.65-0.04L182.74 9.75L181.30 9.75L178.23 1.94L179.13 1.35L175.69 9.75ZM176.50 7.28L176.86 6.19L180.36 6.19L180.78 7.28L176.50 7.28ZM195.29 10.05L195.25 10.05L187.98 2.68L188.34 2.77L188.37 9.75L187.11 9.75L187.11 0.06L187.17 0.06L194.36 7.46L194.06 7.40L194.04 0.35L195.29 0.35L195.29 10.05ZM203.61 9.75L200.59 9.75L200.59 0.35L203.15 0.35Q204.54 0.35 205.52 0.78Q206.50 1.21 207.10 1.91Q207.70 2.61 207.98 3.46Q208.26 4.32 208.26 5.16L208.26 5.16Q208.26 6.23 207.89 7.07Q207.52 7.92 206.87 8.52Q206.22 9.11 205.38 9.43Q204.54 9.75 203.61 9.75L203.61 9.75ZM201.85 1.56L201.85 8.54L203.36 8.54Q204.14 8.54 204.80 8.31Q205.45 8.07 205.94 7.63Q206.43 7.19 206.70 6.55Q206.97 5.90 206.97 5.08L206.97 5.08Q206.97 4.21 206.69 3.56Q206.40 2.90 205.91 2.46Q205.41 2.01 204.79 1.79Q204.16 1.56 203.48 1.56L203.48 1.56L201.85 1.56ZM215.06 9.75L215.06 6.62L211.57 0.35L213.12 0.35L215.92 5.54L215.53 5.56L218.30 0.35L219.83 0.35L216.32 6.62L216.32 9.75L215.06 9.75ZM225.37 9.75L224.15 9.75L224.15 0.05L224.16 0.05L229.09 7.05L228.55 6.94L233.47 0.05L233.49 0.05L233.49 9.75L232.24 9.75L232.24 2.91L232.32 3.55L228.77 8.57L228.75 8.57L225.15 3.55L225.37 2.96L225.37 9.75ZM239.10 9.75L237.86 9.75L241.97-0.04L242.05-0.04L246.14 9.75L244.70 9.75L241.63 1.94L242.53 1.35L239.10 9.75ZM239.90 7.28L240.27 6.19L243.76 6.19L244.18 7.28L239.90 7.28ZM258.69 10.05L258.65 10.05L251.38 2.68L251.74 2.77L251.77 9.75L250.51 9.75L250.51 0.06L250.57 0.06L257.76 7.46L257.46 7.40L257.44 0.35L258.69 0.35L258.69 10.05ZM276.04 1.05L275.56 2.03Q275.08 1.78 274.51 1.60Q273.94 1.42 273.39 1.42L273.39 1.42Q272.64 1.42 272.19 1.77Q271.74 2.12 271.74 2.70L271.74 2.70Q271.74 3.15 272.02 3.45Q272.31 3.76 272.78 3.98Q273.25 4.20 273.75 4.39L273.75 4.39Q274.20 4.56 274.62 4.77Q275.05 4.98 275.40 5.29Q275.74 5.60 275.94 6.06Q276.15 6.51 276.15 7.19L276.15 7.19Q276.15 7.93 275.78 8.54Q275.40 9.15 274.72 9.50Q274.03 9.85 273.08 9.85L273.08 9.85Q272.45 9.85 271.89 9.71Q271.32 9.57 270.84 9.34Q270.36 9.11 269.98 8.87L269.98 8.87L270.54 7.88Q270.85 8.10 271.26 8.30Q271.66 8.50 272.10 8.63Q272.54 8.75 272.96 8.75L272.96 8.75Q273.40 8.75 273.84 8.59Q274.27 8.42 274.56 8.09Q274.85 7.75 274.85 7.19L274.85 7.19Q274.85 6.71 274.59 6.39Q274.34 6.07 273.92 5.84Q273.51 5.62 273.04 5.43L273.04 5.43Q272.60 5.26 272.14 5.06Q271.69 4.86 271.30 4.57Q270.91 4.28 270.67 3.85Q270.44 3.42 270.44 2.81L270.44 2.81Q270.44 2.07 270.80 1.51Q271.15 0.96 271.78 0.64Q272.40 0.32 273.21 0.30L273.21 0.30Q274.12 0.30 274.81 0.52Q275.51 0.74 276.04 1.05L276.04 1.05ZM280.28 5.06L280.28 5.06Q280.28 4.08 280.65 3.22Q281.02 2.35 281.68 1.68Q282.35 1.01 283.21 0.63Q284.08 0.25 285.08 0.25L285.08 0.25Q286.06 0.25 286.93 0.63Q287.79 1.01 288.46 1.68Q289.13 2.35 289.51 3.22Q289.89 4.08 289.89 5.06L289.89 5.06Q289.89 6.06 289.51 6.93Q289.13 7.80 288.47 8.46Q287.81 9.11 286.94 9.48Q286.06 9.85 285.08 9.85L285.08 9.85Q284.08 9.85 283.21 9.49Q282.35 9.13 281.68 8.48Q281.02 7.83 280.65 6.96Q280.28 6.08 280.28 5.06ZM281.58 5.07L281.58 5.07Q281.58 5.81 281.85 6.45Q282.13 7.10 282.61 7.59Q283.09 8.09 283.72 8.37Q284.36 8.64 285.10 8.64L285.10 8.64Q285.83 8.64 286.47 8.37Q287.10 8.09 287.57 7.59Q288.04 7.10 288.31 6.45Q288.59 5.81 288.59 5.06L288.59 5.06Q288.59 4.32 288.31 3.66Q288.04 3.00 287.56 2.51Q287.08 2.01 286.44 1.74Q285.80 1.46 285.08 1.46L285.08 1.46Q284.34 1.46 283.70 1.74Q283.06 2.03 282.58 2.52Q282.10 3.02 281.84 3.67Q281.58 4.33 281.58 5.07ZM294.61 9.75L294.61 0.35L295.87 0.35L295.87 8.54L300.64 8.54L300.64 9.75L294.61 9.75ZM306.42 0.35L306.42 6.42Q306.42 7.06 306.73 7.56Q307.03 8.06 307.54 8.35Q308.05 8.63 308.69 8.63L308.69 8.63Q309.35 8.63 309.87 8.35Q310.39 8.06 310.69 7.56Q310.99 7.06 310.99 6.42L310.99 6.42L310.99 0.35L312.22 0.35L312.22 6.46Q312.22 7.49 311.75 8.25Q311.27 9.02 310.47 9.44Q309.67 9.85 308.69 9.85L308.69 9.85L308.69 9.85Q307.70 9.85 306.90 9.44Q306.11 9.02 305.64 8.25Q305.18 7.49 305.18 6.46L305.18 6.46L305.18 0.35L306.42 0.35ZM316.71 1.56L316.71 0.35L322.95 0.35L322.95 1.56L320.42 1.56L320.42 9.75L319.16 9.75L319.16 1.56L316.71 1.56ZM327.55 9.75L327.55 0.35L328.81 0.35L328.81 9.75L327.55 9.75ZM333.53 5.06L333.53 5.06Q333.53 4.08 333.90 3.22Q334.27 2.35 334.93 1.68Q335.60 1.01 336.46 0.63Q337.32 0.25 338.33 0.25L338.33 0.25Q339.31 0.25 340.18 0.63Q341.04 1.01 341.71 1.68Q342.38 2.35 342.76 3.22Q343.14 4.08 343.14 5.06L343.14 5.06Q343.14 6.06 342.76 6.93Q342.38 7.80 341.72 8.46Q341.06 9.11 340.18 9.48Q339.31 9.85 338.33 9.85L338.33 9.85Q337.32 9.85 336.46 9.49Q335.60 9.13 334.93 8.48Q334.27 7.83 333.90 6.96Q333.53 6.08 333.53 5.06ZM334.83 5.07L334.83 5.07Q334.83 5.81 335.10 6.45Q335.37 7.10 335.86 7.59Q336.34 8.09 336.97 8.37Q337.61 8.64 338.35 8.64L338.35 8.64Q339.08 8.64 339.72 8.37Q340.35 8.09 340.82 7.59Q341.29 7.10 341.56 6.45Q341.84 5.81 341.84 5.06L341.84 5.06Q341.84 4.32 341.56 3.66Q341.29 3.00 340.81 2.51Q340.33 2.01 339.69 1.74Q339.05 1.46 338.33 1.46L338.33 1.46Q337.58 1.46 336.95 1.74Q336.31 2.03 335.83 2.52Q335.35 3.02 335.09 3.67Q334.83 4.33 334.83 5.07ZM356.03 10.05L355.99 10.05L348.73 2.68L349.09 2.77L349.12 9.75L347.85 9.75L347.85 0.06L347.92 0.06L355.11 7.46L354.81 7.40L354.78 0.35L356.03 0.35L356.03 10.05Z" transform="translate(0, 0)"></path></g></svg></g><g transform="rotate(0 0 0)"><svg viewBoxSize="575" data-root-id="3224343602051" xmlns="http://www.w3.org/2000/svg" y="265.6611636352539" viewBox="0.46000000834465027 17.559999465942383 469.2799987792969 50.730003356933594" x="101.8599853515625" height="50.730003356933594" width="469.2799987792969" fontUrl="https://fonts.gstatic.com/s/fahkwang/v16/Noa26Uj3zpmBOgbNpOJ7m5lRFipxkwjx.ttf" zoom="1" editorType="buyer" data-layer-role="brandName" style="position: absolute; top: 265.661px; width: 469.28px; height: 50.73px; left: 101.86px;"><g data-horizontal-grow="left" zoom="1" root="[object Object]" style="fill: rgb(255, 255, 255); fill-opacity: 1;"><path d="M17.21 57.46L17.21 20.58L0.46 20.58L0.46 17.56L41.10 17.56L41.10 20.58L24.40 20.58L24.40 57.46L17.21 57.46ZM57.51 58.03Q52.50 58.03 48.76 56.23Q45.03 54.44 43.01 51.16Q40.98 47.88 40.98 43.49L40.98 43.49Q40.98 39.10 43.01 35.82Q45.03 32.55 48.76 30.75Q52.50 28.96 57.51 28.96L57.51 28.96Q62.53 28.96 66.29 30.75Q70.05 32.55 72.10 35.82Q74.16 39.10 74.16 43.49L74.16 43.49Q74.16 47.88 72.10 51.16Q70.05 54.44 66.29 56.23Q62.53 58.03 57.51 58.03L57.51 58.03ZM57.51 55.46Q62.24 55.46 65.01 52.27Q67.77 49.08 67.77 43.49L67.77 43.49Q67.77 37.91 65.01 34.71Q62.24 31.52 57.51 31.52L57.51 31.52Q52.78 31.52 50.05 34.71Q47.31 37.91 47.31 43.49L47.31 43.49Q47.31 49.08 50.05 52.27Q52.78 55.46 57.51 55.46L57.51 55.46ZM90.34 58.03Q82.54 58.03 82.54 49.65L82.54 49.65L82.54 32.09L77.52 32.09L78.43 29.53L82.65 29.53L84.64 21.66L88.86 21.66L88.86 29.53L96.62 29.53L95.82 32.09L88.86 32.09L88.86 50.39Q88.86 55.40 92.68 55.40L92.68 55.40Q94.79 55.40 96.73 54.32L96.73 54.32L96.73 56.94Q94.34 58.03 90.34 58.03L90.34 58.03ZM112.86 58.03Q107.10 58.03 104.17 55.80Q101.23 53.58 101.23 49.48L101.23 49.48Q101.23 45.09 104.74 42.78Q108.24 40.47 114.97 40.47L114.97 40.47L123.01 40.47L123.01 38.48Q123.01 35.11 121.01 33.32Q119.02 31.52 115.25 31.52L115.25 31.52Q111.66 31.52 109.50 33.23Q107.33 34.94 106.93 38.13L106.93 38.13L102.14 38.13Q102.71 33.69 106.25 31.32Q109.78 28.96 115.71 28.96L115.71 28.96Q122.32 28.96 125.80 31.58Q129.28 34.20 129.28 39.10L129.28 39.10L129.28 48.22Q129.28 53.24 130.13 57.46L130.13 57.46L124.26 57.46Q123.63 54.95 123.46 52.90L123.46 52.90Q121.75 55.52 119.02 56.77Q116.28 58.03 112.86 58.03L112.86 58.03ZM114.29 55.58Q118.10 55.58 120.56 53.18Q123.01 50.79 123.01 47.20L123.01 47.20L123.01 42.98L116.74 42.98Q107.50 42.98 107.50 49.42L107.50 49.42Q107.50 52.50 109.24 54.04Q110.98 55.58 114.29 55.58L114.29 55.58ZM139.02 57.46L139.02 18.52L145.35 18.52L145.35 57.46L139.02 57.46ZM167.58 58.03Q161.60 58.03 157.98 55.77Q154.36 53.52 153.56 49.36L153.56 49.36L158.52 49.36Q158.97 52.27 161.34 53.87Q163.70 55.46 167.75 55.46L167.75 55.46Q171.51 55.46 173.71 53.98Q175.90 52.50 175.90 49.93L175.90 49.93Q175.90 47.94 173.91 46.71Q171.91 45.49 167.58 44.80L167.58 44.80Q160.40 43.66 157.38 41.84Q154.36 40.01 154.36 36.71L154.36 36.71Q154.36 33.12 157.78 31.04Q161.20 28.96 167.58 28.96L167.58 28.96Q173.74 28.96 177.47 31.15Q181.20 33.34 181.83 37.45L181.83 37.45L176.81 37.45Q176.30 34.66 173.99 33.09Q171.68 31.52 168.09 31.52L168.09 31.52Q164.67 31.52 162.68 32.69Q160.68 33.86 160.68 35.91L160.68 35.91Q160.68 37.16 161.37 37.93Q162.05 38.70 163.88 39.30Q165.70 39.90 169.35 40.53L169.35 40.53Q176.07 41.67 179.15 43.78Q182.23 45.89 182.23 49.42L182.23 49.42Q182.23 53.58 178.44 55.80Q174.65 58.03 167.58 58.03L167.58 58.03ZM189.01 68.29L189.01 29.53L195.28 29.53L195.28 34.43Q196.88 31.86 199.76 30.41Q202.64 28.96 206.23 28.96L206.23 28.96Q213.01 28.96 216.86 32.80Q220.70 36.65 220.70 43.32L220.70 43.32Q220.70 50.16 216.83 54.09Q212.95 58.03 206.28 58.03L206.28 58.03Q202.52 58.03 199.70 56.54Q196.88 55.06 195.28 52.27L195.28 52.27L195.28 68.29L189.01 68.29ZM204.80 55.58Q209.13 55.58 211.76 52.18Q214.38 48.79 214.38 43.21L214.38 43.21Q214.38 37.68 211.84 34.54Q209.30 31.41 204.97 31.41L204.97 31.41Q202.12 31.41 199.90 32.92Q197.68 34.43 196.48 37.19Q195.28 39.96 195.28 43.55L195.28 43.55Q195.28 49.08 197.82 52.33Q200.36 55.58 204.80 55.58L204.80 55.58ZM242.59 55.46Q246.47 55.46 248.95 53.64Q251.43 51.81 252.11 48.51L252.11 48.51L257.01 48.51Q255.99 53.01 252.00 55.52Q248.01 58.03 242.14 58.03L242.14 58.03Q237.29 58.03 233.70 56.26Q230.11 54.49 228.17 51.24Q226.23 47.99 226.23 43.61L226.23 43.61Q226.23 39.16 228.17 35.85Q230.11 32.55 233.67 30.75Q237.23 28.96 242.02 28.96L242.02 28.96Q249.32 28.96 253.31 32.72Q257.30 36.48 257.41 43.43L257.41 43.43L232.50 43.43L232.50 43.72Q232.50 49.25 235.10 52.35Q237.69 55.46 242.59 55.46L242.59 55.46ZM242.19 31.52Q238.20 31.52 235.75 33.97Q233.30 36.42 232.67 40.87L232.67 40.87L251.37 40.87Q250.80 36.31 248.46 33.92Q246.13 31.52 242.19 31.52L242.19 31.52ZM279.24 58.03Q271.55 58.03 267.22 54.18Q262.88 50.33 262.88 43.49L262.88 43.49Q262.88 36.65 267.22 32.80Q271.55 28.96 279.19 28.96L279.19 28.96Q285.46 28.96 289.39 31.46Q293.32 33.97 294.18 38.48L294.18 38.48L289.22 38.48Q288.48 35.17 285.91 33.34Q283.35 31.52 279.59 31.52L279.59 31.52Q274.68 31.52 271.92 34.68Q269.15 37.85 269.15 43.49L269.15 43.49Q269.15 49.13 271.92 52.30Q274.68 55.46 279.59 55.46L279.59 55.46Q283.29 55.46 285.88 53.61Q288.48 51.76 289.22 48.51L289.22 48.51L294.18 48.51Q293.38 53.01 289.42 55.52Q285.46 58.03 279.24 58.03L279.24 58.03ZM305.24 26.28Q303.30 26.28 302.07 25.17Q300.85 24.05 300.85 22.29L300.85 22.29Q300.85 20.52 302.07 19.41Q303.30 18.30 305.24 18.30L305.24 18.30Q307.17 18.30 308.40 19.41Q309.62 20.52 309.62 22.29L309.62 22.29Q309.62 24.05 308.40 25.17Q307.17 26.28 305.24 26.28L305.24 26.28ZM302.10 57.46L302.10 29.53L308.37 29.53L308.37 57.46L302.10 57.46ZM328.32 58.03Q322.56 58.03 319.63 55.80Q316.69 53.58 316.69 49.48L316.69 49.48Q316.69 45.09 320.20 42.78Q323.70 40.47 330.43 40.47L330.43 40.47L338.47 40.47L338.47 38.48Q338.47 35.11 336.47 33.32Q334.48 31.52 330.71 31.52L330.71 31.52Q327.12 31.52 324.96 33.23Q322.79 34.94 322.39 38.13L322.39 38.13L317.60 38.13Q318.17 33.69 321.71 31.32Q325.24 28.96 331.17 28.96L331.17 28.96Q337.78 28.96 341.26 31.58Q344.74 34.20 344.74 39.10L344.74 39.10L344.74 48.22Q344.74 53.24 345.59 57.46L345.59 57.46L339.72 57.46Q339.09 54.95 338.92 52.90L338.92 52.90Q337.21 55.52 334.48 56.77Q331.74 58.03 328.32 58.03L328.32 58.03ZM329.75 55.58Q333.56 55.58 336.02 53.18Q338.47 50.79 338.47 47.20L338.47 47.20L338.47 42.98L332.20 42.98Q322.96 42.98 322.96 49.42L322.96 49.42Q322.96 52.50 324.70 54.04Q326.44 55.58 329.75 55.58L329.75 55.58ZM354.48 57.46L354.48 18.52L360.81 18.52L360.81 57.46L354.48 57.46ZM374.43 26.28Q372.50 26.28 371.27 25.17Q370.04 24.05 370.04 22.29L370.04 22.29Q370.04 20.52 371.27 19.41Q372.50 18.30 374.43 18.30L374.43 18.30Q376.37 18.30 377.60 19.41Q378.82 20.52 378.82 22.29L378.82 22.29Q378.82 24.05 377.60 25.17Q376.37 26.28 374.43 26.28L374.43 26.28ZM371.30 57.46L371.30 29.53L377.57 29.53L377.57 57.46L371.30 57.46ZM399.57 58.03Q393.59 58.03 389.97 55.77Q386.35 53.52 385.55 49.36L385.55 49.36L390.51 49.36Q390.96 52.27 393.33 53.87Q395.69 55.46 399.74 55.46L399.74 55.46Q403.50 55.46 405.70 53.98Q407.89 52.50 407.89 49.93L407.89 49.93Q407.89 47.94 405.90 46.71Q403.90 45.49 399.57 44.80L399.57 44.80Q392.39 43.66 389.37 41.84Q386.35 40.01 386.35 36.71L386.35 36.71Q386.35 33.12 389.77 31.04Q393.19 28.96 399.57 28.96L399.57 28.96Q405.73 28.96 409.46 31.15Q413.19 33.34 413.82 37.45L413.82 37.45L408.80 37.45Q408.29 34.66 405.98 33.09Q403.67 31.52 400.08 31.52L400.08 31.52Q396.66 31.52 394.67 32.69Q392.67 33.86 392.67 35.91L392.67 35.91Q392.67 37.16 393.36 37.93Q394.04 38.70 395.87 39.30Q397.69 39.90 401.34 40.53L401.34 40.53Q408.06 41.67 411.14 43.78Q414.22 45.89 414.22 49.42L414.22 49.42Q414.22 53.58 410.43 55.80Q406.64 58.03 399.57 58.03L399.57 58.03ZM430.52 58.03Q422.71 58.03 422.71 49.65L422.71 49.65L422.71 32.09L417.70 32.09L418.61 29.53L422.83 29.53L424.82 21.66L429.04 21.66L429.04 29.53L436.79 29.53L435.99 32.09L429.04 32.09L429.04 50.39Q429.04 55.40 432.86 55.40L432.86 55.40Q434.97 55.40 436.91 54.32L436.91 54.32L436.91 56.94Q434.51 58.03 430.52 58.03L430.52 58.03ZM455.09 58.03Q449.10 58.03 445.48 55.77Q441.86 53.52 441.07 49.36L441.07 49.36L446.03 49.36Q446.48 52.27 448.85 53.87Q451.21 55.46 455.26 55.46L455.26 55.46Q459.02 55.46 461.22 53.98Q463.41 52.50 463.41 49.93L463.41 49.93Q463.41 47.94 461.42 46.71Q459.42 45.49 455.09 44.80L455.09 44.80Q447.91 43.66 444.89 41.84Q441.86 40.01 441.86 36.71L441.86 36.71Q441.86 33.12 445.28 31.04Q448.70 28.96 455.09 28.96L455.09 28.96Q461.24 28.96 464.98 31.15Q468.71 33.34 469.34 37.45L469.34 37.45L464.32 37.45Q463.81 34.66 461.50 33.09Q459.19 31.52 455.60 31.52L455.60 31.52Q452.18 31.52 450.19 32.69Q448.19 33.86 448.19 35.91L448.19 35.91Q448.19 37.16 448.88 37.93Q449.56 38.70 451.38 39.30Q453.21 39.90 456.86 40.53L456.86 40.53Q463.58 41.67 466.66 43.78Q469.74 45.89 469.74 49.42L469.74 49.42Q469.74 53.58 465.95 55.80Q462.16 58.03 455.09 58.03L455.09 58.03Z" transform="translate(0, 0)"></path></g></svg></g></svg>