<svg viewBox="0 0 575 575" class="roots-wrapper"><g transform="rotate(0 0 0)"><svg viewBoxSize="575" data-root-id="4934020999173" xmlns="http://www.w3.org/2000/svg" xmlns:xlink="http://www.w3.org/1999/xlink" version="1.1" x="101.19900952148438" y="241.65764141845702" viewBox="76.59999084472656 68.99998474121094 231.99998474121094 247.09999084472656" xml:space="preserve" height="91.68472333670074" width="86.08197021484375" preserveAspectRatio="xMinYMin" zoom="1" editorType="buyer" data-layer-role="icon" style="position: absolute; height: 91.6847px; width: 86.082px; top: 241.658px; left: 101.199px;"><g id="Page_background" name="Layer %{number}" zoom="1" data-layer-id="4815252799221"></g><radialGradient id="SVGID_1_" cx="190.87" cy="17.29" r="265.858" gradientUnits="userSpaceOnUse" name="Layer %{number}" zoom="1" data-layer-id="2036738999244"><stop offset="0" style="stop-color: rgb(237, 194, 102);"></stop><stop offset="6.000000e-02" style="stop-color: rgb(227, 194, 125);"></stop><stop offset="0.22" style="stop-color: rgb(255, 255, 207);"></stop><stop offset="0.41" style="stop-color: rgb(255, 222, 120);"></stop><stop offset="0.58" style="stop-color: rgb(204, 161, 69);"></stop><stop offset="0.77" style="stop-color: rgb(107, 56, 0);"></stop><stop offset="1" style="stop-color: rgb(214, 171, 79);"></stop></radialGradient><path id="Layer_1" class="st0" d="M163.6,282.1V169.6c0-6,4.9-10.9,10.9-10.9s10.9,4.9,10.9,10.9v112.5c0,6.7,5.5,12.2,12.2,12.2   c6.7,0,12.2-5.5,12.2-12.2V148.9c0-6.7-5.5-12.1-12.2-12.1h-87.1c-18.7,0-33.9-15.2-33.9-33.9c0-18.7,15.2-33.9,33.9-33.9h164.2   c18.7,0,33.9,15.2,33.9,33.9c0,6-4.9,10.9-10.9,10.9s-10.9-4.9-10.9-10.9c0-6.7-5.4-12.2-12.2-12.2H110.4   c-6.7,0-12.2,5.5-12.2,12.2c0,6.7,5.4,12.2,12.2,12.2h87.1c18.7,0,33.9,15.2,33.9,33.9v133.2c0,18.7-15.2,33.9-33.9,33.9   S163.6,300.9,163.6,282.1z" name="Layer %{number}" zoom="1" data-layer-id="0136817799265" style="fill-rule: evenodd; clip-rule: evenodd; fill: url(&quot;#SVGID_1_&quot;);"></path><g id="Guides" name="Layer %{number}" zoom="1" data-layer-id="3575022299284"></g></svg></g><g transform="rotate(0 0 0)"><svg viewBoxSize="575" data-root-id="4214160599363" xmlns="http://www.w3.org/2000/svg" y="306.48464141845704" viewBox="5.519999980926514 3.9100000858306885 296.52001953125 17.270000457763672" x="177.28100952148438" height="17.270000457763672" width="296.52001953125" fontUrl="https://fonts.gstatic.com/s/inter/v18/UcCO3FwrK3iLTeHuS_nVMrMxCp50SjIw2boKoduKmMEVuLyfMZhrib2Bg-4.ttf" zoom="1" editorType="buyer" data-layer-role="slogan" style="position: absolute; top: 306.485px; width: 296.52px; height: 17.27px; left: 177.281px;"><g data-horizontal-grow="left" zoom="1" root="[object Object]" style="fill: rgb(183, 139, 71); fill-opacity: 1;"><path d="M12.01 17.44L10.34 17.44L10.34 12.08L5.52 4.34L7.45 4.34L10.05 8.57Q10.49 9.28 10.82 9.93Q11.16 10.57 11.52 11.56L11.52 11.56L10.85 11.56Q11.21 10.56 11.56 9.90Q11.90 9.25 12.31 8.57L12.31 8.57L14.90 4.34L16.82 4.34L12.01 12.08L12.01 17.44ZM22.67 17.65L22.67 17.65Q21.33 17.65 20.32 17.02Q19.32 16.38 18.76 15.24Q18.19 14.10 18.19 12.59L18.19 12.59Q18.19 11.05 18.76 9.90Q19.32 8.75 20.32 8.12Q21.33 7.49 22.67 7.49L22.67 7.49Q24.01 7.49 25.02 8.12Q26.03 8.75 26.60 9.90Q27.16 11.05 27.16 12.59L27.16 12.59Q27.16 14.10 26.60 15.24Q26.03 16.38 25.02 17.02Q24.01 17.65 22.67 17.65ZM22.67 16.23L22.67 16.23Q23.66 16.23 24.30 15.72Q24.94 15.21 25.25 14.38Q25.56 13.55 25.56 12.59L25.56 12.59Q25.56 11.61 25.25 10.77Q24.94 9.93 24.30 9.42Q23.66 8.90 22.67 8.90L22.67 8.90Q21.68 8.90 21.05 9.42Q20.42 9.93 20.11 10.77Q19.80 11.60 19.80 12.59L19.80 12.59Q19.80 13.55 20.11 14.38Q20.42 15.21 21.05 15.72Q21.68 16.23 22.67 16.23ZM32.79 17.56L32.79 17.56Q31.80 17.56 31.05 17.15Q30.30 16.74 29.88 15.92Q29.46 15.09 29.46 13.85L29.46 13.85L29.46 7.61L31.04 7.61L31.04 13.72Q31.04 14.85 31.64 15.50Q32.24 16.14 33.27 16.14L33.27 16.14Q33.97 16.14 34.53 15.83Q35.09 15.52 35.41 14.93Q35.74 14.33 35.74 13.50L35.74 13.50L35.74 7.61L37.33 7.61L37.33 17.44L35.80 17.44L35.80 15.06L36.01 15.06Q35.55 16.44 34.71 17.00Q33.87 17.56 32.79 17.56ZM41.69 17.44L40.10 17.44L40.10 7.61L41.63 7.61L41.63 9.12L41.74 9.12Q42.01 8.38 42.71 7.92Q43.41 7.47 44.29 7.47L44.29 7.47Q44.46 7.47 44.71 7.48Q44.95 7.49 45.09 7.50L45.09 7.50L45.09 9.09Q45.02 9.07 44.74 9.04Q44.46 9 44.14 9L44.14 9Q43.44 9 42.88 9.29Q42.32 9.59 42.00 10.10Q41.69 10.62 41.69 11.29L41.69 11.29L41.69 17.44ZM57.44 17.61L57.44 17.61Q55.76 17.61 54.44 16.80Q53.13 15.99 52.38 14.48Q51.63 12.97 51.63 10.90L51.63 10.90Q51.63 8.82 52.38 7.31Q53.13 5.80 54.44 4.98Q55.76 4.17 57.44 4.17L57.44 4.17Q58.43 4.17 59.31 4.46Q60.20 4.75 60.90 5.30Q61.60 5.86 62.07 6.66Q62.54 7.45 62.72 8.46L62.72 8.46L61.05 8.46Q60.91 7.79 60.57 7.28Q60.23 6.77 59.74 6.42Q59.26 6.06 58.67 5.89Q58.08 5.71 57.44 5.71L57.44 5.71Q56.26 5.71 55.31 6.31Q54.36 6.91 53.81 8.06Q53.25 9.22 53.25 10.90L53.25 10.90Q53.25 12.57 53.81 13.72Q54.37 14.88 55.32 15.47Q56.27 16.07 57.44 16.07L57.44 16.07Q58.08 16.07 58.67 15.89Q59.26 15.71 59.74 15.36Q60.23 15.01 60.57 14.50Q60.91 13.98 61.05 13.32L61.05 13.32L62.72 13.32Q62.55 14.32 62.08 15.11Q61.61 15.90 60.91 16.46Q60.21 17.02 59.32 17.32Q58.44 17.61 57.44 17.61ZM69.09 17.65L69.09 17.65Q67.75 17.65 66.75 17.02Q65.74 16.38 65.18 15.24Q64.62 14.10 64.62 12.59L64.62 12.59Q64.62 11.05 65.18 9.90Q65.74 8.75 66.75 8.12Q67.75 7.49 69.09 7.49L69.09 7.49Q70.44 7.49 71.45 8.12Q72.46 8.75 73.02 9.90Q73.58 11.05 73.58 12.59L73.58 12.59Q73.58 14.10 73.02 15.24Q72.46 16.38 71.45 17.02Q70.44 17.65 69.09 17.65ZM69.09 16.23L69.09 16.23Q70.08 16.23 70.73 15.72Q71.37 15.21 71.67 14.38Q71.98 13.55 71.98 12.59L71.98 12.59Q71.98 11.61 71.67 10.77Q71.37 9.93 70.73 9.42Q70.08 8.90 69.09 8.90L69.09 8.90Q68.11 8.90 67.47 9.42Q66.84 9.93 66.53 10.77Q66.23 11.60 66.23 12.59L66.23 12.59Q66.23 13.55 66.53 14.38Q66.84 15.21 67.47 15.72Q68.11 16.23 69.09 16.23ZM77.47 17.44L75.88 17.44L75.88 7.61L77.42 7.61L77.43 9.81L77.31 9.81Q77.51 9.01 77.95 8.49Q78.38 7.96 78.97 7.70Q79.55 7.44 80.18 7.44L80.18 7.44Q81.25 7.44 81.92 8.09Q82.58 8.75 82.78 9.83L82.78 9.83L82.56 9.83Q82.74 9.09 83.21 8.55Q83.67 8.02 84.34 7.73Q85.00 7.44 85.78 7.44L85.78 7.44Q86.63 7.44 87.34 7.80Q88.04 8.17 88.46 8.92Q88.88 9.67 88.88 10.81L88.88 10.81L88.88 17.44L87.29 17.44L87.29 10.85Q87.29 9.79 86.70 9.33Q86.10 8.88 85.31 8.88L85.31 8.88Q84.65 8.88 84.17 9.15Q83.69 9.43 83.43 9.91Q83.17 10.40 83.17 11.02L83.17 11.02L83.17 17.44L81.59 17.44L81.59 10.70Q81.59 9.88 81.04 9.38Q80.50 8.88 79.66 8.88L79.66 8.88Q79.09 8.88 78.59 9.15Q78.08 9.41 77.77 9.94Q77.47 10.47 77.47 11.25L77.47 11.25L77.47 17.44ZM93.23 21.11L91.65 21.11L91.65 7.61L93.18 7.61L93.18 9.18L93.36 9.18Q93.52 8.92 93.82 8.52Q94.12 8.12 94.68 7.80Q95.25 7.49 96.21 7.49L96.21 7.49Q97.44 7.49 98.37 8.10Q99.31 8.72 99.84 9.86Q100.37 11.00 100.37 12.55L100.37 12.55Q100.37 14.12 99.84 15.26Q99.32 16.40 98.38 17.02Q97.44 17.65 96.21 17.65L96.21 17.65Q95.28 17.65 94.71 17.33Q94.14 17.01 93.83 16.60Q93.52 16.19 93.36 15.92L93.36 15.92L93.23 15.92L93.23 21.11ZM95.98 16.23L95.98 16.23Q96.90 16.23 97.52 15.74Q98.14 15.24 98.45 14.40Q98.76 13.56 98.76 12.53L98.76 12.53Q98.76 11.51 98.46 10.69Q98.15 9.87 97.53 9.39Q96.91 8.90 95.98 8.90L95.98 8.90Q95.07 8.90 94.46 9.36Q93.84 9.82 93.53 10.63Q93.22 11.44 93.22 12.53L93.22 12.53Q93.22 13.62 93.53 14.46Q93.85 15.29 94.47 15.76Q95.09 16.23 95.98 16.23ZM102.67 4.34L104.26 4.34L104.26 17.44L102.67 17.44L102.67 4.34ZM111.16 17.65L111.16 17.65Q109.74 17.65 108.71 17.02Q107.67 16.38 107.12 15.25Q106.56 14.12 106.56 12.60L106.56 12.60Q106.56 11.09 107.10 9.94Q107.65 8.79 108.65 8.14Q109.64 7.49 110.98 7.49L110.98 7.49Q111.76 7.49 112.52 7.75Q113.28 8.01 113.90 8.58Q114.52 9.16 114.89 10.10Q115.26 11.04 115.26 12.40L115.26 12.40L115.26 13.06L107.63 13.06L107.63 11.72L114.41 11.72L113.67 12.22Q113.67 11.25 113.37 10.50Q113.06 9.75 112.46 9.32Q111.87 8.89 110.98 8.89L110.98 8.89Q110.09 8.89 109.46 9.33Q108.83 9.76 108.49 10.46Q108.16 11.16 108.16 11.96L108.16 11.96L108.16 12.85Q108.16 13.94 108.54 14.70Q108.91 15.46 109.60 15.85Q110.28 16.24 111.17 16.24L111.17 16.24Q111.75 16.24 112.23 16.08Q112.70 15.91 113.04 15.57Q113.39 15.23 113.57 14.73L113.57 14.73L115.10 15.15Q114.87 15.89 114.33 16.45Q113.78 17.02 112.98 17.33Q112.17 17.65 111.16 17.65ZM116.31 7.61L121.39 7.61L121.39 8.96L116.31 8.96L116.31 7.61ZM117.79 15.01L117.79 5.27L119.37 5.27L119.37 14.89Q119.37 15.55 119.64 15.85Q119.91 16.15 120.53 16.15L120.53 16.15Q120.68 16.15 120.92 16.12Q121.15 16.08 121.34 16.05L121.34 16.05L121.67 17.38Q121.42 17.47 121.11 17.52Q120.80 17.56 120.49 17.56L120.49 17.56Q119.21 17.56 118.50 16.89Q117.79 16.22 117.79 15.01L117.79 15.01ZM127.55 17.65L127.55 17.65Q126.12 17.65 125.09 17.02Q124.06 16.38 123.50 15.25Q122.94 14.12 122.94 12.60L122.94 12.60Q122.94 11.09 123.49 9.94Q124.03 8.79 125.03 8.14Q126.03 7.49 127.36 7.49L127.36 7.49Q128.14 7.49 128.90 7.75Q129.67 8.01 130.28 8.58Q130.90 9.16 131.27 10.10Q131.64 11.04 131.64 12.40L131.64 12.40L131.64 13.06L124.01 13.06L124.01 11.72L130.79 11.72L130.05 12.22Q130.05 11.25 129.75 10.50Q129.45 9.75 128.85 9.32Q128.25 8.89 127.36 8.89L127.36 8.89Q126.47 8.89 125.84 9.33Q125.21 9.76 124.88 10.46Q124.54 11.16 124.54 11.96L124.54 11.96L124.54 12.85Q124.54 13.94 124.92 14.70Q125.30 15.46 125.98 15.85Q126.66 16.24 127.56 16.24L127.56 16.24Q128.14 16.24 128.61 16.08Q129.08 15.91 129.43 15.57Q129.77 15.23 129.96 14.73L129.96 14.73L131.48 15.15Q131.26 15.89 130.71 16.45Q130.17 17.02 129.36 17.33Q128.56 17.65 127.55 17.65ZM140.84 17.44L139.17 17.44L139.17 4.34L140.84 4.34L140.84 10.00L147.71 10.00L147.71 4.34L149.38 4.34L149.38 17.44L147.71 17.44L147.71 11.48L140.84 11.48L140.84 17.44ZM155.10 17.67L155.10 17.67Q154.17 17.67 153.41 17.31Q152.65 16.96 152.20 16.29Q151.75 15.61 151.75 14.64L151.75 14.64Q151.75 13.80 152.09 13.27Q152.42 12.74 152.98 12.44Q153.54 12.14 154.21 11.99Q154.89 11.84 155.58 11.75L155.58 11.75Q156.45 11.64 157.01 11.58Q157.56 11.51 157.83 11.36Q158.10 11.21 158.10 10.85L158.10 10.85L158.10 10.80Q158.10 10.19 157.87 9.76Q157.64 9.33 157.18 9.11Q156.73 8.88 156.04 8.88L156.04 8.88Q155.34 8.88 154.84 9.10Q154.34 9.32 154.02 9.65Q153.71 9.98 153.55 10.32L153.55 10.32L152.03 9.82Q152.41 8.92 153.05 8.42Q153.69 7.91 154.47 7.70Q155.24 7.49 156.00 7.49L156.00 7.49Q156.49 7.49 157.12 7.61Q157.75 7.73 158.33 8.08Q158.92 8.43 159.30 9.12Q159.68 9.81 159.68 10.96L159.68 10.96L159.68 17.44L158.12 17.44L158.12 16.10L158.02 16.10Q157.85 16.44 157.48 16.81Q157.11 17.17 156.52 17.42Q155.94 17.67 155.10 17.67ZM155.37 16.27L155.37 16.27Q156.25 16.27 156.86 15.93Q157.46 15.58 157.78 15.03Q158.10 14.48 158.10 13.89L158.10 13.89L158.10 12.52Q158.00 12.64 157.68 12.73Q157.35 12.82 156.93 12.89Q156.52 12.96 156.12 13.01Q155.73 13.06 155.50 13.09L155.50 13.09Q154.93 13.16 154.44 13.33Q153.94 13.50 153.64 13.83Q153.34 14.16 153.34 14.72L153.34 14.72Q153.34 15.23 153.61 15.57Q153.87 15.92 154.33 16.09Q154.78 16.27 155.37 16.27ZM164.04 11.55L164.04 11.55L164.04 17.44L162.46 17.44L162.46 7.61L163.98 7.61L163.99 9.99L163.77 9.99Q164.21 8.63 165.05 8.06Q165.88 7.49 166.99 7.49L166.99 7.49Q167.99 7.49 168.73 7.90Q169.48 8.31 169.90 9.13Q170.31 9.95 170.31 11.20L170.31 11.20L170.31 17.44L168.73 17.44L168.73 11.33Q168.73 10.20 168.14 9.55Q167.55 8.91 166.52 8.91L166.52 8.91Q165.81 8.91 165.25 9.22Q164.69 9.53 164.36 10.12Q164.04 10.71 164.04 11.55ZM176.77 17.65L176.77 17.65Q175.55 17.65 174.61 17.02Q173.67 16.40 173.14 15.26Q172.62 14.12 172.62 12.55L172.62 12.55Q172.62 11.00 173.15 9.86Q173.68 8.72 174.62 8.10Q175.56 7.49 176.78 7.49L176.78 7.49Q177.74 7.49 178.30 7.80Q178.87 8.12 179.17 8.52Q179.47 8.92 179.63 9.18L179.63 9.18L179.75 9.18L179.75 4.34L181.34 4.34L181.34 17.44L179.81 17.44L179.81 15.92L179.63 15.92Q179.47 16.19 179.16 16.60Q178.85 17.01 178.28 17.33Q177.71 17.65 176.77 17.65ZM177.01 16.23L177.01 16.23Q177.91 16.23 178.52 15.76Q179.14 15.29 179.46 14.46Q179.77 13.62 179.77 12.53L179.77 12.53Q179.77 11.44 179.46 10.63Q179.15 9.82 178.53 9.36Q177.92 8.90 177.01 8.90L177.01 8.90Q176.08 8.90 175.46 9.39Q174.84 9.87 174.53 10.69Q174.23 11.51 174.23 12.53L174.23 12.53Q174.23 13.56 174.54 14.40Q174.85 15.24 175.47 15.74Q176.10 16.23 177.01 16.23ZM183.96 21.00L183.96 21.00L184.36 19.63L184.53 19.67Q185.01 19.79 185.41 19.74Q185.80 19.68 186.12 19.34Q186.43 19.01 186.67 18.31L186.67 18.31L186.95 17.49L183.20 7.61L184.93 7.61L187.02 13.44Q187.36 14.35 187.58 15.25Q187.81 16.15 188.07 16.99L188.07 16.99L187.49 16.99Q187.74 16.15 187.98 15.24Q188.21 14.34 188.53 13.44L188.53 13.44L190.64 7.61L192.37 7.61L188.05 18.91Q187.75 19.69 187.33 20.19Q186.92 20.70 186.36 20.94Q185.81 21.18 185.12 21.18L185.12 21.18Q184.69 21.18 184.39 21.12Q184.08 21.06 183.96 21.00ZM195.81 17.44L194.23 17.44L194.23 7.61L195.77 7.61L195.78 9.81L195.65 9.81Q195.86 9.01 196.29 8.49Q196.73 7.96 197.31 7.70Q197.89 7.44 198.53 7.44L198.53 7.44Q199.60 7.44 200.26 8.09Q200.93 8.75 201.12 9.83L201.12 9.83L200.91 9.83Q201.08 9.09 201.55 8.55Q202.02 8.02 202.68 7.73Q203.34 7.44 204.13 7.44L204.13 7.44Q204.98 7.44 205.68 7.80Q206.38 8.17 206.80 8.92Q207.22 9.67 207.22 10.81L207.22 10.81L207.22 17.44L205.64 17.44L205.64 10.85Q205.64 9.79 205.04 9.33Q204.44 8.88 203.65 8.88L203.65 8.88Q202.99 8.88 202.51 9.15Q202.03 9.43 201.77 9.91Q201.52 10.40 201.52 11.02L201.52 11.02L201.52 17.44L199.93 17.44L199.93 10.70Q199.93 9.88 199.39 9.38Q198.84 8.88 198.01 8.88L198.01 8.88Q197.44 8.88 196.93 9.15Q196.43 9.41 196.12 9.94Q195.81 10.47 195.81 11.25L195.81 11.25L195.81 17.44ZM212.75 17.67L212.75 17.67Q211.82 17.67 211.06 17.31Q210.30 16.96 209.85 16.29Q209.40 15.61 209.40 14.64L209.40 14.64Q209.40 13.80 209.73 13.27Q210.07 12.74 210.63 12.44Q211.18 12.14 211.86 11.99Q212.54 11.84 213.22 11.75L213.22 11.75Q214.10 11.64 214.66 11.58Q215.21 11.51 215.48 11.36Q215.75 11.21 215.75 10.85L215.75 10.85L215.75 10.80Q215.75 10.19 215.52 9.76Q215.29 9.33 214.83 9.11Q214.37 8.88 213.69 8.88L213.69 8.88Q212.99 8.88 212.48 9.10Q211.98 9.32 211.67 9.65Q211.36 9.98 211.20 10.32L211.20 10.32L209.68 9.82Q210.06 8.92 210.70 8.42Q211.34 7.91 212.12 7.70Q212.89 7.49 213.64 7.49L213.64 7.49Q214.14 7.49 214.77 7.61Q215.39 7.73 215.98 8.08Q216.56 8.43 216.94 9.12Q217.33 9.81 217.33 10.96L217.33 10.96L217.33 17.44L215.77 17.44L215.77 16.10L215.67 16.10Q215.50 16.44 215.13 16.81Q214.76 17.17 214.17 17.42Q213.58 17.67 212.75 17.67ZM213.02 16.27L213.02 16.27Q213.90 16.27 214.51 15.93Q215.11 15.58 215.43 15.03Q215.75 14.48 215.75 13.89L215.75 13.89L215.75 12.52Q215.65 12.64 215.32 12.73Q215.00 12.82 214.58 12.89Q214.16 12.96 213.77 13.01Q213.38 13.06 213.15 13.09L213.15 13.09Q212.58 13.16 212.08 13.33Q211.59 13.50 211.29 13.83Q210.99 14.16 210.99 14.72L210.99 14.72Q210.99 15.23 211.25 15.57Q211.52 15.92 211.97 16.09Q212.43 16.27 213.02 16.27ZM221.69 11.55L221.69 11.55L221.69 17.44L220.10 17.44L220.10 7.61L221.63 7.61L221.63 9.99L221.41 9.99Q221.86 8.63 222.69 8.06Q223.52 7.49 224.64 7.49L224.64 7.49Q225.63 7.49 226.38 7.90Q227.13 8.31 227.54 9.13Q227.96 9.95 227.96 11.20L227.96 11.20L227.96 17.44L226.38 17.44L226.38 11.33Q226.38 10.20 225.79 9.55Q225.19 8.91 224.17 8.91L224.17 8.91Q223.46 8.91 222.90 9.22Q222.34 9.53 222.01 10.12Q221.69 10.71 221.69 11.55ZM240.19 17.67L240.19 17.67Q238.77 17.67 237.73 17.21Q236.69 16.75 236.10 15.93Q235.51 15.11 235.43 14.01L235.43 14.01L237.15 14.01Q237.22 14.75 237.65 15.23Q238.08 15.71 238.75 15.94Q239.42 16.17 240.19 16.17L240.19 16.17Q241.08 16.17 241.78 15.88Q242.49 15.59 242.90 15.06Q243.32 14.54 243.32 13.84L243.32 13.84Q243.32 13.21 242.96 12.81Q242.60 12.42 242.02 12.16Q241.43 11.91 240.72 11.72L240.72 11.72L239.14 11.27Q237.56 10.82 236.68 9.98Q235.80 9.15 235.80 7.85L235.80 7.85Q235.80 6.74 236.40 5.91Q237.00 5.08 238.02 4.62Q239.04 4.17 240.30 4.17L240.30 4.17Q241.59 4.17 242.59 4.62Q243.58 5.08 244.16 5.87Q244.73 6.65 244.77 7.65L244.77 7.65L243.13 7.65Q243.02 6.69 242.22 6.17Q241.42 5.64 240.25 5.64L240.25 5.64Q239.41 5.64 238.77 5.92Q238.13 6.20 237.78 6.68Q237.43 7.15 237.43 7.77L237.43 7.77Q237.43 8.46 237.85 8.87Q238.28 9.29 238.86 9.52Q239.45 9.76 239.92 9.89L239.92 9.89L241.23 10.25Q241.76 10.39 242.40 10.63Q243.04 10.88 243.62 11.29Q244.20 11.70 244.57 12.33Q244.94 12.96 244.94 13.87L244.94 13.87Q244.94 14.94 244.38 15.80Q243.83 16.66 242.76 17.17Q241.70 17.67 240.19 17.67ZM251.35 17.65L251.35 17.65Q250.01 17.65 249.01 17.02Q248.00 16.38 247.44 15.24Q246.88 14.10 246.88 12.59L246.88 12.59Q246.88 11.05 247.44 9.90Q248.00 8.75 249.01 8.12Q250.01 7.49 251.35 7.49L251.35 7.49Q252.69 7.49 253.71 8.12Q254.72 8.75 255.28 9.90Q255.84 11.05 255.84 12.59L255.84 12.59Q255.84 14.10 255.28 15.24Q254.72 16.38 253.71 17.02Q252.69 17.65 251.35 17.65ZM251.35 16.23L251.35 16.23Q252.34 16.23 252.98 15.72Q253.63 15.21 253.93 14.38Q254.24 13.55 254.24 12.59L254.24 12.59Q254.24 11.61 253.93 10.77Q253.63 9.93 252.98 9.42Q252.34 8.90 251.35 8.90L251.35 8.90Q250.37 8.90 249.73 9.42Q249.10 9.93 248.79 10.77Q248.48 11.60 248.48 12.59L248.48 12.59Q248.48 13.55 248.79 14.38Q249.10 15.21 249.73 15.72Q250.37 16.23 251.35 16.23ZM258.14 4.34L259.73 4.34L259.73 17.44L258.14 17.44L258.14 4.34ZM265.83 17.56L265.83 17.56Q264.84 17.56 264.09 17.15Q263.34 16.74 262.92 15.92Q262.50 15.09 262.50 13.85L262.50 13.85L262.50 7.61L264.08 7.61L264.08 13.72Q264.08 14.85 264.68 15.50Q265.28 16.14 266.31 16.14L266.31 16.14Q267.01 16.14 267.57 15.83Q268.13 15.52 268.45 14.93Q268.78 14.33 268.78 13.50L268.78 13.50L268.78 7.61L270.37 7.61L270.37 17.44L268.84 17.44L268.84 15.06L269.05 15.06Q268.59 16.44 267.75 17.00Q266.92 17.56 265.83 17.56ZM271.93 7.61L277.01 7.61L277.01 8.96L271.93 8.96L271.93 7.61ZM273.41 15.01L273.41 5.27L274.99 5.27L274.99 14.89Q274.99 15.55 275.26 15.85Q275.53 16.15 276.15 16.15L276.15 16.15Q276.30 16.15 276.53 16.12Q276.77 16.08 276.96 16.05L276.96 16.05L277.29 17.38Q277.04 17.47 276.73 17.52Q276.42 17.56 276.11 17.56L276.11 17.56Q274.83 17.56 274.12 16.89Q273.41 16.22 273.41 15.01L273.41 15.01ZM280.62 17.44L279.04 17.44L279.04 7.61L280.62 7.61L280.62 17.44ZM279.83 6.00L279.83 6.00Q279.39 6.00 279.06 5.70Q278.74 5.39 278.74 4.96L278.74 4.96Q278.74 4.52 279.06 4.21Q279.39 3.91 279.83 3.91L279.83 3.91Q280.29 3.91 280.62 4.21Q280.94 4.52 280.94 4.96L280.94 4.96Q280.94 5.39 280.62 5.70Q280.29 6.00 279.83 6.00ZM287.39 17.65L287.39 17.65Q286.06 17.65 285.05 17.02Q284.04 16.38 283.48 15.24Q282.92 14.10 282.92 12.59L282.92 12.59Q282.92 11.05 283.48 9.90Q284.04 8.75 285.05 8.12Q286.06 7.49 287.39 7.49L287.39 7.49Q288.74 7.49 289.75 8.12Q290.76 8.75 291.32 9.90Q291.88 11.05 291.88 12.59L291.88 12.59Q291.88 14.10 291.32 15.24Q290.76 16.38 289.75 17.02Q288.74 17.65 287.39 17.65ZM287.39 16.23L287.39 16.23Q288.39 16.23 289.03 15.72Q289.67 15.21 289.98 14.38Q290.29 13.55 290.29 12.59L290.29 12.59Q290.29 11.61 289.98 10.77Q289.67 9.93 289.03 9.42Q288.39 8.90 287.39 8.90L287.39 8.90Q286.41 8.90 285.78 9.42Q285.14 9.93 284.84 10.77Q284.53 11.60 284.53 12.59L284.53 12.59Q284.53 13.55 284.84 14.38Q285.14 15.21 285.78 15.72Q286.41 16.23 287.39 16.23ZM295.77 11.55L295.77 11.55L295.77 17.44L294.19 17.44L294.19 7.61L295.71 7.61L295.72 9.99L295.50 9.99Q295.95 8.63 296.78 8.06Q297.61 7.49 298.72 7.49L298.72 7.49Q299.72 7.49 300.46 7.90Q301.21 8.31 301.63 9.13Q302.04 9.95 302.04 11.20L302.04 11.20L302.04 17.44L300.46 17.44L300.46 11.33Q300.46 10.20 299.87 9.55Q299.28 8.91 298.25 8.91L298.25 8.91Q297.54 8.91 296.98 9.22Q296.42 9.53 296.09 10.12Q295.77 10.71 295.77 11.55Z" transform="translate(0, 0)"></path></g></svg></g><g transform="rotate(0 0 0)"><svg viewBoxSize="575" data-root-id="4802241699306" xmlns="http://www.w3.org/2000/svg" y="275.514641418457" viewBox="1.090000033378601 9.25 244.1300048828125 32.66999816894531" x="177.28100952148438" height="32.66999816894531" width="244.1300048828125" fontUrl="https://fonts.gstatic.com/s/poppins/v21/pxiEyp8kv8JHgFVrFJDUc1NECPY.ttf" zoom="1" editorType="buyer" data-layer-role="brandName" style="position: absolute; top: 275.515px; width: 244.13px; height: 32.67px; left: 177.281px;"><g data-horizontal-grow="left" zoom="1" root="[object Object]" style="fill: rgb(255, 255, 255); fill-opacity: 1;"><path d="M1.09 11.30L16.19 11.30L16.19 13.66L10.11 13.66L10.11 33.60L7.20 33.60L7.20 13.66L1.09 13.66L1.09 11.30ZM27.42 33.89Q24.96 33.89 22.96 32.77Q20.96 31.65 19.82 29.58Q18.69 27.52 18.69 24.80L18.69 24.80Q18.69 22.11 19.86 20.05Q21.02 17.98 23.04 16.88Q25.06 15.78 27.55 15.78L27.55 15.78Q30.05 15.78 32.06 16.88Q34.08 17.98 35.25 20.03Q36.42 22.08 36.42 24.80L36.42 24.80Q36.42 27.52 35.22 29.58Q34.02 31.65 31.97 32.77Q29.92 33.89 27.42 33.89L27.42 33.89ZM27.42 31.33Q28.99 31.33 30.37 30.59Q31.74 29.86 32.59 28.38Q33.44 26.91 33.44 24.80L33.44 24.80Q33.44 22.69 32.61 21.22Q31.78 19.74 30.43 19.02Q29.09 18.30 27.52 18.30L27.52 18.30Q25.92 18.30 24.59 19.02Q23.26 19.74 22.46 21.22Q21.66 22.69 21.66 24.80L21.66 24.80Q21.66 26.94 22.45 28.42Q23.23 29.89 24.54 30.61Q25.86 31.33 27.42 31.33L27.42 31.33ZM48.38 18.46L43.81 18.46L43.81 28.80Q43.81 30.08 44.35 30.61Q44.90 31.14 46.24 31.14L46.24 31.14L48.38 31.14L48.38 33.60L45.76 33.60Q43.33 33.60 42.11 32.48Q40.90 31.36 40.90 28.80L40.90 28.80L40.90 18.46L38.62 18.46L38.62 16.06L40.90 16.06L40.90 11.65L43.81 11.65L43.81 16.06L48.38 16.06L48.38 18.46ZM50.82 24.77Q50.82 22.08 51.90 20.05Q52.99 18.02 54.90 16.90Q56.80 15.78 59.14 15.78L59.14 15.78Q61.44 15.78 63.14 16.77Q64.83 17.76 65.66 19.26L65.66 19.26L65.66 16.06L68.61 16.06L68.61 33.60L65.66 33.60L65.66 30.34Q64.80 31.87 63.09 32.88Q61.38 33.89 59.10 33.89L59.10 33.89Q56.77 33.89 54.88 32.74Q52.99 31.58 51.90 29.50Q50.82 27.42 50.82 24.77L50.82 24.77ZM65.66 24.80Q65.66 22.82 64.86 21.34Q64.06 19.87 62.70 19.09Q61.34 18.30 59.71 18.30L59.71 18.30Q58.08 18.30 56.74 19.07Q55.39 19.84 54.59 21.31Q53.79 22.78 53.79 24.77L53.79 24.77Q53.79 26.78 54.59 28.27Q55.39 29.76 56.74 30.54Q58.08 31.33 59.71 31.33L59.71 31.33Q61.34 31.33 62.70 30.54Q64.06 29.76 64.86 28.27Q65.66 26.78 65.66 24.80L65.66 24.80ZM73.54 9.92L76.45 9.92L76.45 33.60L73.54 33.60L73.54 9.92ZM87.62 33.89Q85.60 33.89 84 33.20Q82.40 32.51 81.47 31.28Q80.54 30.05 80.45 28.45L80.45 28.45L83.46 28.45Q83.58 29.76 84.69 30.59Q85.79 31.42 87.58 31.42L87.58 31.42Q89.25 31.42 90.21 30.69Q91.17 29.95 91.17 28.83L91.17 28.83Q91.17 27.68 90.14 27.12Q89.12 26.56 86.98 26.02L86.98 26.02Q85.02 25.50 83.79 24.98Q82.56 24.45 81.68 23.41Q80.80 22.37 80.80 20.67L80.80 20.67Q80.80 19.33 81.60 18.21Q82.40 17.09 83.87 16.43Q85.34 15.78 87.23 15.78L87.23 15.78Q90.14 15.78 91.94 17.25Q93.73 18.72 93.86 21.28L93.86 21.28L90.94 21.28Q90.85 19.90 89.84 19.07Q88.83 18.24 87.14 18.24L87.14 18.24Q85.57 18.24 84.64 18.91Q83.71 19.58 83.71 20.67L83.71 20.67Q83.71 21.54 84.27 22.10Q84.83 22.66 85.68 22.99Q86.53 23.33 88.03 23.74L88.03 23.74Q89.92 24.26 91.10 24.75Q92.29 25.25 93.14 26.24Q93.98 27.23 94.02 28.83L94.02 28.83Q94.02 30.27 93.22 31.42Q92.42 32.58 90.96 33.23Q89.50 33.89 87.62 33.89L87.62 33.89ZM101.02 19.30Q101.89 17.79 103.60 16.78Q105.31 15.78 107.58 15.78L107.58 15.78Q109.92 15.78 111.82 16.90Q113.73 18.02 114.82 20.05Q115.90 22.08 115.90 24.77L115.90 24.77Q115.90 27.42 114.82 29.50Q113.73 31.58 111.82 32.74Q109.92 33.89 107.58 33.89L107.58 33.89Q105.34 33.89 103.63 32.88Q101.92 31.87 101.02 30.37L101.02 30.37L101.02 41.92L98.11 41.92L98.11 16.06L101.02 16.06L101.02 19.30ZM112.93 24.77Q112.93 22.78 112.13 21.31Q111.33 19.84 109.97 19.07Q108.61 18.30 106.98 18.30L106.98 18.30Q105.38 18.30 104.02 19.09Q102.66 19.87 101.84 21.36Q101.02 22.85 101.02 24.80L101.02 24.80Q101.02 26.78 101.84 28.27Q102.66 29.76 104.02 30.54Q105.38 31.33 106.98 31.33L106.98 31.33Q108.61 31.33 109.97 30.54Q111.33 29.76 112.13 28.27Q112.93 26.78 112.93 24.77L112.93 24.77ZM135.74 24.16Q135.74 24.99 135.65 25.92L135.65 25.92L121.63 25.92Q121.79 28.51 123.41 29.97Q125.02 31.42 127.33 31.42L127.33 31.42Q129.22 31.42 130.48 30.54Q131.74 29.66 132.26 28.19L132.26 28.19L135.39 28.19Q134.69 30.72 132.58 32.30Q130.46 33.89 127.33 33.89L127.33 33.89Q124.83 33.89 122.86 32.77Q120.90 31.65 119.78 29.58Q118.66 27.52 118.66 24.80L118.66 24.80Q118.66 22.08 119.74 20.03Q120.83 17.98 122.80 16.88Q124.77 15.78 127.33 15.78L127.33 15.78Q129.82 15.78 131.74 16.86Q133.66 17.95 134.70 19.86Q135.74 21.76 135.74 24.16L135.74 24.16ZM132.74 23.55Q132.74 21.89 132 20.69Q131.26 19.49 130 18.86Q128.74 18.24 127.20 18.24L127.20 18.24Q124.99 18.24 123.44 19.65Q121.89 21.06 121.66 23.55L121.66 23.55L132.74 23.55ZM138.50 24.80Q138.50 22.08 139.58 20.05Q140.67 18.02 142.61 16.90Q144.54 15.78 147.04 15.78L147.04 15.78Q150.27 15.78 152.37 17.34Q154.46 18.91 155.14 21.70L155.14 21.70L152 21.70Q151.55 20.10 150.26 19.17Q148.96 18.24 147.04 18.24L147.04 18.24Q144.54 18.24 143.01 19.95Q141.47 21.66 141.47 24.80L141.47 24.80Q141.47 27.97 143.01 29.70Q144.54 31.42 147.04 31.42L147.04 31.42Q148.96 31.42 150.24 30.53Q151.52 29.63 152 27.97L152 27.97L155.14 27.97Q154.43 30.66 152.32 32.27Q150.21 33.89 147.04 33.89L147.04 33.89Q144.54 33.89 142.61 32.77Q140.67 31.65 139.58 29.60Q138.50 27.55 138.50 24.80L138.50 24.80ZM160.51 13.22Q159.68 13.22 159.10 12.64Q158.53 12.06 158.53 11.23L158.53 11.23Q158.53 10.40 159.10 9.82Q159.68 9.25 160.51 9.25L160.51 9.25Q161.31 9.25 161.87 9.82Q162.43 10.40 162.43 11.23L162.43 11.23Q162.43 12.06 161.87 12.64Q161.31 13.22 160.51 13.22L160.51 13.22ZM159.01 16.06L161.92 16.06L161.92 33.60L159.01 33.60L159.01 16.06ZM165.79 24.77Q165.79 22.08 166.88 20.05Q167.97 18.02 169.87 16.90Q171.78 15.78 174.11 15.78L174.11 15.78Q176.42 15.78 178.11 16.77Q179.81 17.76 180.64 19.26L180.64 19.26L180.64 16.06L183.58 16.06L183.58 33.60L180.64 33.60L180.64 30.34Q179.78 31.87 178.06 32.88Q176.35 33.89 174.08 33.89L174.08 33.89Q171.74 33.89 169.86 32.74Q167.97 31.58 166.88 29.50Q165.79 27.42 165.79 24.77L165.79 24.77ZM180.64 24.80Q180.64 22.82 179.84 21.34Q179.04 19.87 177.68 19.09Q176.32 18.30 174.69 18.30L174.69 18.30Q173.06 18.30 171.71 19.07Q170.37 19.84 169.57 21.31Q168.77 22.78 168.77 24.77L168.77 24.77Q168.77 26.78 169.57 28.27Q170.37 29.76 171.71 30.54Q173.06 31.33 174.69 31.33L174.69 31.33Q176.32 31.33 177.68 30.54Q179.04 29.76 179.84 28.27Q180.64 26.78 180.64 24.80L180.64 24.80ZM188.51 9.92L191.42 9.92L191.42 33.60L188.51 33.60L188.51 9.92ZM197.89 13.22Q197.06 13.22 196.48 12.64Q195.90 12.06 195.90 11.23L195.90 11.23Q195.90 10.40 196.48 9.82Q197.06 9.25 197.89 9.25L197.89 9.25Q198.69 9.25 199.25 9.82Q199.81 10.40 199.81 11.23L199.81 11.23Q199.81 12.06 199.25 12.64Q198.69 13.22 197.89 13.22L197.89 13.22ZM196.38 16.06L199.30 16.06L199.30 33.60L196.38 33.60L196.38 16.06ZM210.46 33.89Q208.45 33.89 206.85 33.20Q205.25 32.51 204.32 31.28Q203.39 30.05 203.30 28.45L203.30 28.45L206.30 28.45Q206.43 29.76 207.54 30.59Q208.64 31.42 210.43 31.42L210.43 31.42Q212.10 31.42 213.06 30.69Q214.02 29.95 214.02 28.83L214.02 28.83Q214.02 27.68 212.99 27.12Q211.97 26.56 209.82 26.02L209.82 26.02Q207.87 25.50 206.64 24.98Q205.41 24.45 204.53 23.41Q203.65 22.37 203.65 20.67L203.65 20.67Q203.65 19.33 204.45 18.21Q205.25 17.09 206.72 16.43Q208.19 15.78 210.08 15.78L210.08 15.78Q212.99 15.78 214.78 17.25Q216.58 18.72 216.70 21.28L216.70 21.28L213.79 21.28Q213.70 19.90 212.69 19.07Q211.68 18.24 209.98 18.24L209.98 18.24Q208.42 18.24 207.49 18.91Q206.56 19.58 206.56 20.67L206.56 20.67Q206.56 21.54 207.12 22.10Q207.68 22.66 208.53 22.99Q209.38 23.33 210.88 23.74L210.88 23.74Q212.77 24.26 213.95 24.75Q215.14 25.25 215.98 26.24Q216.83 27.23 216.86 28.83L216.86 28.83Q216.86 30.27 216.06 31.42Q215.26 32.58 213.81 33.23Q212.35 33.89 210.46 33.89L210.46 33.89ZM229.09 18.46L224.51 18.46L224.51 28.80Q224.51 30.08 225.06 30.61Q225.60 31.14 226.94 31.14L226.94 31.14L229.09 31.14L229.09 33.60L226.46 33.60Q224.03 33.60 222.82 32.48Q221.60 31.36 221.60 28.80L221.60 28.80L221.60 18.46L219.33 18.46L219.33 16.06L221.60 16.06L221.60 11.65L224.51 11.65L224.51 16.06L229.09 16.06L229.09 18.46ZM238.82 33.89Q236.80 33.89 235.20 33.20Q233.60 32.51 232.67 31.28Q231.74 30.05 231.65 28.45L231.65 28.45L234.66 28.45Q234.78 29.76 235.89 30.59Q236.99 31.42 238.78 31.42L238.78 31.42Q240.45 31.42 241.41 30.69Q242.37 29.95 242.37 28.83L242.37 28.83Q242.37 27.68 241.34 27.12Q240.32 26.56 238.18 26.02L238.18 26.02Q236.22 25.50 234.99 24.98Q233.76 24.45 232.88 23.41Q232.00 22.37 232.00 20.67L232.00 20.67Q232.00 19.33 232.80 18.21Q233.60 17.09 235.07 16.43Q236.54 15.78 238.43 15.78L238.43 15.78Q241.34 15.78 243.14 17.25Q244.93 18.72 245.06 21.28L245.06 21.28L242.14 21.28Q242.05 19.90 241.04 19.07Q240.03 18.24 238.34 18.24L238.34 18.24Q236.77 18.24 235.84 18.91Q234.91 19.58 234.91 20.67L234.91 20.67Q234.91 21.54 235.47 22.10Q236.03 22.66 236.88 22.99Q237.73 23.33 239.23 23.74L239.23 23.74Q241.12 24.26 242.30 24.75Q243.49 25.25 244.34 26.24Q245.18 27.23 245.22 28.83L245.22 28.83Q245.22 30.27 244.42 31.42Q243.62 32.58 242.16 33.23Q240.70 33.89 238.82 33.89L238.82 33.89Z" transform="translate(0, 0)"></path></g></svg></g></svg>