<svg viewBox="0 0 575 575" class="roots-wrapper"><g transform="rotate(0 0 0)"><svg viewBoxSize="575" data-root-id="6559378426172" xmlns="http://www.w3.org/2000/svg" viewBox="0 0 114 114" fill="none" height="130" width="130" y="221" x="30.07000732421875" preserveAspectRatio="xMinYMin" zoom="1" editorType="buyer" data-layer-role="icon" style="position: absolute; height: 130px; width: 130px; top: 221px; left: 30.07px;"><path fill-rule="evenodd" clip-rule="evenodd" d="M4 110V0H0V114H114V110H4ZM114 0H18V96H22V4H114V0Z" fill="url(#paint0_linear_28086_7004)" name="Layer %{number}" zoom="1" data-layer-id="1244224526192" style="fill: rgb(230, 87, 73); fill-opacity: 1;"></path><linearGradient id="paint0_linear_28086_7004" x1="14.4882" y1="114" x2="71.0906" y2="23.8591" gradientUnits="userSpaceOnUse" name="Layer %{number}" zoom="1" data-layer-id="3846007526200"><stop stop-color="#9B6D48"></stop><stop offset="1" stop-color="#E8E4B5"></stop></linearGradient></svg></g><g transform="rotate(0 0 0)"><svg viewBoxSize="575" data-root-id="6837730426207" xmlns="http://www.w3.org/2000/svg" y="341.58" viewBox="0.940000057220459 -0.05000000447034836 361.8599853515625 12.420000076293945" x="183.07000732421875" height="12.420000076293945" width="361.8599853515625" fontUrl="https://fonts.gstatic.com/s/josefinsans/v32/Qw3PZQNVED7rKGKxtqIqX5E-AVSJrOCfjY46_DjQXMFrLgTsQV0.ttf" zoom="1" editorType="buyer" data-layer-role="slogan" style="position: absolute; top: 341.58px; width: 361.86px; height: 12.42px; left: 183.07px;"><g data-horizontal-grow="left" zoom="1" root="[object Object]" style="fill: rgb(230, 87, 73); fill-opacity: 1;"><path d="M9.50 9.76L10.16 11.14Q9.87 11.33 9.38 11.57Q8.88 11.81 8.22 11.97Q7.55 12.13 6.77 12.13L6.77 12.13Q5.42 12.11 4.34 11.65Q3.26 11.18 2.51 10.38Q1.76 9.58 1.35 8.54Q0.94 7.49 0.94 6.30L0.94 6.30Q0.94 5.01 1.37 3.91Q1.79 2.82 2.56 2.01Q3.33 1.20 4.38 0.75Q5.42 0.30 6.67 0.30L6.67 0.30Q7.71 0.30 8.56 0.58Q9.41 0.86 10.02 1.25L10.02 1.25L9.39 2.69Q8.91 2.37 8.23 2.08Q7.55 1.79 6.72 1.79L6.72 1.79Q5.87 1.79 5.12 2.13Q4.37 2.46 3.79 3.07Q3.22 3.68 2.89 4.49Q2.56 5.30 2.56 6.22L2.56 6.22Q2.56 7.17 2.86 7.98Q3.15 8.78 3.70 9.38Q4.26 9.97 5.04 10.30Q5.82 10.64 6.80 10.64L6.80 10.64Q7.68 10.64 8.37 10.37Q9.06 10.10 9.50 9.76L9.50 9.76ZM15.25 6.22L15.25 6.22Q15.25 5.02 15.70 3.96Q16.16 2.90 16.98 2.07Q17.79 1.25 18.86 0.78Q19.92 0.30 21.15 0.30L21.15 0.30Q22.37 0.30 23.43 0.78Q24.50 1.25 25.32 2.07Q26.14 2.90 26.61 3.96Q27.07 5.02 27.07 6.22L27.07 6.22Q27.07 7.46 26.61 8.53Q26.14 9.60 25.33 10.41Q24.51 11.22 23.44 11.67Q22.37 12.13 21.15 12.13L21.15 12.13Q19.92 12.13 18.86 11.68Q17.79 11.23 16.98 10.43Q16.16 9.63 15.70 8.56Q15.25 7.49 15.25 6.22ZM16.85 6.24L16.85 6.24Q16.85 7.15 17.18 7.94Q17.52 8.74 18.11 9.34Q18.70 9.95 19.49 10.30Q20.27 10.64 21.18 10.64L21.18 10.64Q22.08 10.64 22.86 10.30Q23.65 9.95 24.22 9.34Q24.80 8.74 25.14 7.94Q25.47 7.15 25.47 6.22L25.47 6.22Q25.47 5.31 25.14 4.50Q24.80 3.70 24.21 3.09Q23.62 2.48 22.83 2.14Q22.05 1.79 21.15 1.79L21.15 1.79Q20.24 1.79 19.46 2.14Q18.67 2.50 18.08 3.10Q17.49 3.71 17.17 4.52Q16.85 5.33 16.85 6.24ZM34.38 12L32.88 12L32.88 0.06L32.90 0.06L38.96 8.67L38.30 8.54L44.35 0.06L44.38 0.06L44.38 12L42.85 12L42.85 3.58L42.94 4.37L38.58 10.54L38.54 10.54L34.11 4.37L34.38 3.65L34.38 12ZM50.91 0.43L54.00 0.43Q55.26 0.43 56.16 0.86Q57.06 1.28 57.54 2.08Q58.03 2.88 58.03 4.02L58.03 4.02Q58.03 4.70 57.82 5.37Q57.62 6.03 57.16 6.57Q56.70 7.10 55.97 7.42Q55.23 7.74 54.18 7.74L54.18 7.74L52.46 7.74L52.46 12L50.91 12L50.91 0.43ZM52.46 6.26L54.16 6.26Q54.85 6.26 55.30 6.03Q55.74 5.81 56.00 5.46Q56.26 5.12 56.37 4.74Q56.48 4.35 56.48 4.05L56.48 4.05Q56.48 3.70 56.37 3.32Q56.26 2.94 55.99 2.63Q55.73 2.32 55.30 2.12Q54.88 1.92 54.26 1.92L54.26 1.92L52.46 1.92L52.46 6.26ZM63.63 12L63.63 0.43L65.18 0.43L65.18 10.51L71.06 10.51L71.06 12L63.63 12ZM76.78 12L76.78 0.43L84.30 0.43L84.30 1.92L78.34 1.92L78.34 5.44L83.66 5.44L83.66 6.93L78.34 6.93L78.34 10.51L84.53 10.51L84.53 12L76.78 12ZM89.57 1.92L89.57 0.43L97.25 0.43L97.25 1.92L94.14 1.92L94.14 12L92.59 12L92.59 1.92L89.57 1.92ZM102.91 12L102.91 0.43L110.43 0.43L110.43 1.92L104.46 1.92L104.46 5.44L109.79 5.44L109.79 6.93L104.46 6.93L104.46 10.51L110.66 10.51L110.66 12L102.91 12ZM132.42 0.43L133.95 0.43L133.95 12L132.42 12L132.42 6.93L126.35 6.93L126.35 12L124.80 12L124.80 0.43L126.35 0.43L126.35 5.46L132.42 5.46L132.42 0.43ZM140.85 12L139.33 12L144.38-0.05L144.48-0.05L149.52 12L147.74 12L143.97 2.38L145.07 1.66L140.85 12ZM141.84 8.96L142.29 7.62L146.59 7.62L147.10 8.96L141.84 8.96ZM164.96 12.37L164.91 12.37L155.97 3.30L156.42 3.41L156.45 12L154.90 12L154.90 0.08L154.98 0.08L163.82 9.18L163.46 9.10L163.42 0.43L164.96 0.43L164.96 12.37ZM175.20 12L171.49 12L171.49 0.43L174.64 0.43Q176.35 0.43 177.56 0.96Q178.77 1.49 179.50 2.35Q180.24 3.22 180.58 4.26Q180.93 5.31 180.93 6.35L180.93 6.35Q180.93 7.66 180.47 8.70Q180.02 9.74 179.22 10.48Q178.42 11.22 177.38 11.61Q176.35 12 175.20 12L175.20 12ZM173.04 1.92L173.04 10.51L174.90 10.51Q175.86 10.51 176.66 10.22Q177.47 9.94 178.07 9.39Q178.67 8.85 179.01 8.06Q179.34 7.26 179.34 6.26L179.34 6.26Q179.34 5.18 178.99 4.38Q178.64 3.57 178.03 3.02Q177.42 2.48 176.66 2.20Q175.89 1.92 175.04 1.92L175.04 1.92L173.04 1.92ZM189.30 12L189.30 8.14L185.01 0.43L186.91 0.43L190.35 6.82L189.87 6.85L193.28 0.43L195.17 0.43L190.85 8.14L190.85 12L189.30 12ZM201.98 12L200.48 12L200.48 0.06L200.50 0.06L206.56 8.67L205.90 8.54L211.95 0.06L211.98 0.06L211.98 12L210.45 12L210.45 3.58L210.54 4.37L206.18 10.54L206.14 10.54L201.71 4.37L201.98 3.65L201.98 12ZM218.88 12L217.36 12L222.42-0.05L222.51-0.05L227.55 12L225.78 12L222.00 2.38L223.10 1.66L218.88 12ZM219.87 8.96L220.32 7.62L224.62 7.62L225.14 8.96L219.87 8.96ZM242.99 12.37L242.94 12.37L234.00 3.30L234.45 3.41L234.48 12L232.93 12L232.93 0.08L233.01 0.08L241.86 9.18L241.49 9.10L241.46 0.43L242.99 0.43L242.99 12.37ZM264.35 1.30L263.76 2.50Q263.17 2.19 262.46 1.97Q261.76 1.74 261.09 1.74L261.09 1.74Q260.16 1.74 259.61 2.18Q259.06 2.61 259.06 3.33L259.06 3.33Q259.06 3.87 259.41 4.25Q259.76 4.62 260.34 4.90Q260.91 5.17 261.54 5.41L261.54 5.41Q262.08 5.62 262.61 5.87Q263.14 6.13 263.56 6.51Q263.98 6.90 264.23 7.46Q264.48 8.02 264.48 8.85L264.48 8.85Q264.48 9.76 264.02 10.51Q263.57 11.26 262.72 11.70Q261.87 12.13 260.70 12.13L260.70 12.13Q259.94 12.13 259.24 11.95Q258.54 11.78 257.95 11.50Q257.36 11.22 256.90 10.91L256.90 10.91L257.58 9.70Q257.97 9.97 258.46 10.22Q258.96 10.46 259.50 10.62Q260.05 10.77 260.56 10.77L260.56 10.77Q261.10 10.77 261.64 10.57Q262.18 10.37 262.53 9.95Q262.88 9.54 262.88 8.85L262.88 8.85Q262.88 8.26 262.57 7.86Q262.26 7.47 261.74 7.19Q261.23 6.91 260.66 6.69L260.66 6.69Q260.11 6.48 259.55 6.23Q258.99 5.98 258.51 5.62Q258.03 5.26 257.74 4.74Q257.46 4.21 257.46 3.46L257.46 3.46Q257.46 2.54 257.90 1.86Q258.34 1.18 259.10 0.79Q259.87 0.40 260.86 0.37L260.86 0.37Q261.98 0.37 262.84 0.64Q263.70 0.91 264.35 1.30L264.35 1.30ZM269.57 6.22L269.57 6.22Q269.57 5.02 270.02 3.96Q270.48 2.90 271.30 2.07Q272.11 1.25 273.18 0.78Q274.24 0.30 275.47 0.30L275.47 0.30Q276.69 0.30 277.75 0.78Q278.82 1.25 279.64 2.07Q280.46 2.90 280.93 3.96Q281.39 5.02 281.39 6.22L281.39 6.22Q281.39 7.46 280.93 8.53Q280.46 9.60 279.65 10.41Q278.83 11.22 277.76 11.67Q276.69 12.13 275.47 12.13L275.47 12.13Q274.24 12.13 273.18 11.68Q272.11 11.23 271.30 10.43Q270.48 9.63 270.02 8.56Q269.57 7.49 269.57 6.22ZM271.17 6.24L271.17 6.24Q271.17 7.15 271.50 7.94Q271.84 8.74 272.43 9.34Q273.02 9.95 273.81 10.30Q274.59 10.64 275.50 10.64L275.50 10.64Q276.40 10.64 277.18 10.30Q277.97 9.95 278.54 9.34Q279.12 8.74 279.46 7.94Q279.79 7.15 279.79 6.22L279.79 6.22Q279.79 5.31 279.46 4.50Q279.12 3.70 278.53 3.09Q277.94 2.48 277.15 2.14Q276.37 1.79 275.47 1.79L275.47 1.79Q274.56 1.79 273.78 2.14Q272.99 2.50 272.40 3.10Q271.81 3.71 271.49 4.52Q271.17 5.33 271.17 6.24ZM287.20 12L287.20 0.43L288.75 0.43L288.75 10.51L294.62 10.51L294.62 12L287.20 12ZM301.74 0.43L301.74 7.90Q301.74 8.69 302.12 9.30Q302.50 9.92 303.12 10.27Q303.74 10.62 304.53 10.62L304.53 10.62Q305.34 10.62 305.98 10.27Q306.62 9.92 306.99 9.30Q307.36 8.69 307.36 7.90L307.36 7.90L307.36 0.43L308.88 0.43L308.88 7.95Q308.88 9.22 308.30 10.16Q307.71 11.10 306.73 11.62Q305.74 12.13 304.53 12.13L304.53 12.13L304.53 12.13Q303.31 12.13 302.34 11.62Q301.36 11.10 300.78 10.16Q300.21 9.22 300.21 7.95L300.21 7.95L300.21 0.43L301.74 0.43ZM314.40 1.92L314.40 0.43L322.08 0.43L322.08 1.92L318.98 1.92L318.98 12L317.42 12L317.42 1.92L314.40 1.92ZM327.74 12L327.74 0.43L329.30 0.43L329.30 12L327.74 12ZM335.10 6.22L335.10 6.22Q335.10 5.02 335.56 3.96Q336.02 2.90 336.83 2.07Q337.65 1.25 338.71 0.78Q339.78 0.30 341.01 0.30L341.01 0.30Q342.22 0.30 343.29 0.78Q344.35 1.25 345.18 2.07Q346.00 2.90 346.46 3.96Q346.93 5.02 346.93 6.22L346.93 6.22Q346.93 7.46 346.46 8.53Q346.00 9.60 345.18 10.41Q344.37 11.22 343.30 11.67Q342.22 12.13 341.01 12.13L341.01 12.13Q339.78 12.13 338.71 11.68Q337.65 11.23 336.83 10.43Q336.02 9.63 335.56 8.56Q335.10 7.49 335.10 6.22ZM336.70 6.24L336.70 6.24Q336.70 7.15 337.04 7.94Q337.38 8.74 337.97 9.34Q338.56 9.95 339.34 10.30Q340.13 10.64 341.04 10.64L341.04 10.64Q341.94 10.64 342.72 10.30Q343.50 9.95 344.08 9.34Q344.66 8.74 344.99 7.94Q345.33 7.15 345.33 6.22L345.33 6.22Q345.33 5.31 344.99 4.50Q344.66 3.70 344.06 3.09Q343.47 2.48 342.69 2.14Q341.90 1.79 341.01 1.79L341.01 1.79Q340.10 1.79 339.31 2.14Q338.53 2.50 337.94 3.10Q337.34 3.71 337.02 4.52Q336.70 5.33 336.70 6.24ZM362.80 12.37L362.75 12.37L353.81 3.30L354.26 3.41L354.29 12L352.74 12L352.74 0.08L352.82 0.08L361.66 9.18L361.30 9.10L361.26 0.43L362.80 0.43L362.80 12.37Z" transform="translate(0, 0)"></path></g></svg></g><g transform="rotate(0 0 0)"><svg viewBoxSize="575" data-root-id="1568472126226" xmlns="http://www.w3.org/2000/svg" y="262.775" viewBox="0.3400000035762787 16.530000686645508 377.739990234375 57" x="97.965" height="57" width="377.739990234375" fontUrl="https://fonts.gstatic.com/s/jost/v15/92zPtBhPNqw79Ij1E865zBUv7mx9IgVGPokMmuHL.ttf" zoom="1" editorType="buyer" data-layer-role="brandName" style="position: absolute; top: 262.775px; width: 377.74px; height: 57px; left: 97.965px;"><g data-horizontal-grow="left" zoom="1" root="[object Object]" style="fill: rgb(0, 0, 0);"><path d="M0.34 21.09L0.34 28.44L11.06 28.44L11.06 60.99L19.21 60.99L19.21 28.44L29.98 28.44L29.98 21.09L0.34 21.09ZM26.45 47.88L26.45 47.88Q26.45 51.93 28.36 55.03Q30.27 58.14 33.54 59.85Q36.82 61.56 40.98 61.56L40.98 61.56Q45.14 61.56 48.42 59.85Q51.70 58.14 53.61 55.03Q55.52 51.93 55.52 47.88L55.52 47.88Q55.52 43.78 53.61 40.70Q51.70 37.62 48.42 35.91Q45.14 34.20 40.98 34.20L40.98 34.20Q36.82 34.20 33.54 35.91Q30.27 37.62 28.36 40.70Q26.45 43.78 26.45 47.88ZM33.97 47.88L33.97 47.88Q33.97 45.66 34.91 43.95Q35.85 42.24 37.45 41.33Q39.05 40.41 40.98 40.41L40.98 40.41Q42.92 40.41 44.52 41.33Q46.11 42.24 47.05 43.95Q47.99 45.66 47.99 47.88L47.99 47.88Q47.99 50.10 47.05 51.78Q46.11 53.47 44.52 54.41Q42.92 55.35 40.98 55.35L40.98 55.35Q39.05 55.35 37.45 54.41Q35.85 53.47 34.91 51.78Q33.97 50.10 33.97 47.88ZM73.87 34.77L57.68 34.77L57.68 40.98L73.87 40.98L73.87 34.77ZM69.31 25.65L62.19 25.65L62.19 60.99L69.31 60.99L69.31 25.65ZM83.05 52.84L83.05 52.84Q83.05 51.70 83.56 50.93Q84.08 50.16 85.16 49.73Q86.24 49.30 87.95 49.30L87.95 49.30Q90.06 49.30 91.97 49.88Q93.88 50.45 95.42 51.59L95.42 51.59L95.42 48.16Q94.85 47.48 93.54 46.74Q92.23 46.00 90.32 45.49Q88.41 44.97 85.90 44.97L85.90 44.97Q81.00 44.97 78.32 47.20Q75.64 49.42 75.64 53.24L75.64 53.24Q75.64 55.92 76.92 57.77Q78.20 59.62 80.31 60.59Q82.42 61.56 84.87 61.56L84.87 61.56Q87.27 61.56 89.46 60.71Q91.66 59.85 93.05 58.14Q94.45 56.43 94.45 53.92L94.45 53.92L93.54 50.50Q93.54 52.38 92.68 53.72Q91.83 55.06 90.46 55.77Q89.09 56.49 87.38 56.49L87.38 56.49Q86.18 56.49 85.19 56.06Q84.19 55.63 83.62 54.81Q83.05 53.98 83.05 52.84ZM77.46 37.16L80.20 42.18Q80.77 41.78 81.97 41.21Q83.16 40.64 84.82 40.24Q86.47 39.84 88.29 39.84L88.29 39.84Q89.49 39.84 90.46 40.07Q91.43 40.30 92.14 40.81Q92.85 41.33 93.19 42.09Q93.54 42.86 93.54 43.95L93.54 43.95L93.54 60.99L100.66 60.99L100.66 42.41Q100.66 39.73 99.18 37.88Q97.70 36.02 95.08 35.05Q92.45 34.09 89.09 34.09L89.09 34.09Q85.44 34.09 82.48 35.08Q79.52 36.08 77.46 37.16L77.46 37.16ZM114.91 16.53L107.50 16.53L107.50 60.99L114.91 60.99L114.91 16.53ZM123.52 51.93L123.52 51.93L119.93 56.54Q121.41 57.97 123.26 59.19Q125.12 60.42 127.42 61.16Q129.73 61.90 132.53 61.90L132.53 61.90Q137.03 61.90 139.59 59.71Q142.16 57.51 142.16 53.58L142.16 53.58Q142.16 51.19 141.07 49.70Q139.99 48.22 138.20 47.22Q136.40 46.23 134.29 45.43L134.29 45.43Q132.58 44.69 131.24 44.17Q129.90 43.66 129.19 43.01Q128.48 42.35 128.48 41.50L128.48 41.50Q128.48 40.53 129.19 40.04Q129.90 39.56 131.16 39.56L131.16 39.56Q133.04 39.56 135.00 40.53Q136.97 41.50 138.40 43.03L138.40 43.03L141.65 38.48Q140.39 37.22 138.74 36.28Q137.09 35.34 135.15 34.77Q133.21 34.20 130.99 34.20L130.99 34.20Q128.36 34.20 126.23 35.03Q124.09 35.85 122.84 37.48Q121.58 39.10 121.58 41.44L121.58 41.44Q121.58 43.89 122.69 45.46Q123.80 47.03 125.51 47.97Q127.22 48.91 129.05 49.59L129.05 49.59Q130.99 50.22 132.24 50.79Q133.49 51.36 134.15 52.07Q134.81 52.78 134.81 53.81L134.81 53.81Q134.81 54.95 134.01 55.60Q133.21 56.26 131.73 56.26L131.73 56.26Q130.59 56.26 129.30 55.80Q128.02 55.35 126.60 54.41Q125.17 53.47 123.52 51.93ZM147.06 73.53L154.47 73.53L154.47 34.77L147.06 34.77L147.06 73.53ZM176.02 47.88L176.02 47.88Q176.02 43.38 174.25 40.27Q172.48 37.16 169.60 35.57Q166.72 33.97 163.42 33.97L163.42 33.97Q160.06 33.97 157.58 35.68Q155.10 37.39 153.76 40.50Q152.42 43.61 152.42 47.88L152.42 47.88Q152.42 52.10 153.76 55.23Q155.10 58.37 157.58 60.08Q160.06 61.79 163.42 61.79L163.42 61.79Q166.72 61.79 169.60 60.19Q172.48 58.60 174.25 55.46Q176.02 52.33 176.02 47.88ZM168.38 47.88L168.38 47.88Q168.38 50.22 167.41 51.87Q166.44 53.52 164.82 54.38Q163.19 55.23 161.25 55.23L161.25 55.23Q159.60 55.23 158.03 54.41Q156.47 53.58 155.47 51.93Q154.47 50.27 154.47 47.88L154.47 47.88Q154.47 45.49 155.47 43.83Q156.47 42.18 158.03 41.35Q159.60 40.53 161.25 40.53L161.25 40.53Q163.19 40.53 164.82 41.38Q166.44 42.24 167.41 43.89Q168.38 45.54 168.38 47.88ZM193.91 61.56L193.91 61.56Q198.64 61.56 202.04 59.71Q205.43 57.86 207.48 54.15L207.48 54.15L201.04 52.16Q199.90 54.04 198.16 54.98Q196.42 55.92 193.97 55.92L193.97 55.92Q191.81 55.92 190.27 54.95Q188.73 53.98 187.96 52.16Q187.19 50.33 187.19 47.71L187.19 47.71Q187.25 44.97 188.01 43.12Q188.78 41.27 190.24 40.33Q191.69 39.39 193.86 39.39L193.86 39.39Q195.62 39.39 196.94 40.19Q198.25 40.98 198.96 42.35Q199.67 43.72 199.67 45.66L199.67 45.66Q199.67 46.06 199.47 46.65Q199.27 47.25 199.04 47.59L199.04 47.59L201.04 44.97L184.00 44.97L184.00 49.53L207.48 49.53Q207.54 49.19 207.57 48.62Q207.59 48.05 207.59 47.54L207.59 47.54Q207.59 43.32 206.00 40.33Q204.40 37.34 201.35 35.77Q198.30 34.20 193.97 34.20L193.97 34.20Q189.64 34.20 186.45 35.88Q183.25 37.56 181.52 40.61Q179.78 43.66 179.78 47.88L179.78 47.88Q179.78 52.04 181.52 55.09Q183.25 58.14 186.45 59.85Q189.64 61.56 193.91 61.56ZM218.77 47.88L218.77 47.88Q218.77 45.66 219.79 43.95Q220.82 42.24 222.56 41.24Q224.29 40.24 226.40 40.24L226.40 40.24Q228.00 40.24 229.60 40.76Q231.19 41.27 232.53 42.21Q233.87 43.15 234.55 44.40L234.55 44.40L234.55 36.82Q233.19 35.63 230.99 34.91Q228.80 34.20 225.89 34.20L225.89 34.20Q221.73 34.20 218.40 35.91Q215.06 37.62 213.15 40.70Q211.24 43.78 211.24 47.88L211.24 47.88Q211.24 51.93 213.15 55.03Q215.06 58.14 218.40 59.85Q221.73 61.56 225.89 61.56L225.89 61.56Q228.80 61.56 230.99 60.85Q233.19 60.14 234.55 58.88L234.55 58.88L234.55 51.30Q233.87 52.55 232.59 53.49Q231.31 54.44 229.71 54.98Q228.11 55.52 226.40 55.52L226.40 55.52Q224.29 55.52 222.56 54.55Q220.82 53.58 219.79 51.87Q218.77 50.16 218.77 47.88ZM240.71 24.62L240.71 24.62Q240.71 26.39 242.02 27.59Q243.33 28.79 245.16 28.79L245.16 28.79Q246.98 28.79 248.26 27.59Q249.55 26.39 249.55 24.62L249.55 24.62Q249.55 22.80 248.26 21.63Q246.98 20.46 245.16 20.46L245.16 20.46Q243.33 20.46 242.02 21.63Q240.71 22.80 240.71 24.62ZM248.69 34.77L241.51 34.77L241.51 60.99L248.69 60.99L248.69 34.77ZM261.74 52.84L261.74 52.84Q261.74 51.70 262.26 50.93Q262.77 50.16 263.85 49.73Q264.94 49.30 266.65 49.30L266.65 49.30Q268.75 49.30 270.66 49.88Q272.57 50.45 274.11 51.59L274.11 51.59L274.11 48.16Q273.54 47.48 272.23 46.74Q270.92 46.00 269.01 45.49Q267.10 44.97 264.59 44.97L264.59 44.97Q259.69 44.97 257.01 47.20Q254.33 49.42 254.33 53.24L254.33 53.24Q254.33 55.92 255.62 57.77Q256.90 59.62 259.01 60.59Q261.12 61.56 263.57 61.56L263.57 61.56Q265.96 61.56 268.16 60.71Q270.35 59.85 271.75 58.14Q273.14 56.43 273.14 53.92L273.14 53.92L272.23 50.50Q272.23 52.38 271.38 53.72Q270.52 55.06 269.15 55.77Q267.79 56.49 266.08 56.49L266.08 56.49Q264.88 56.49 263.88 56.06Q262.88 55.63 262.31 54.81Q261.74 53.98 261.74 52.84ZM256.16 37.16L258.89 42.18Q259.46 41.78 260.66 41.21Q261.86 40.64 263.51 40.24Q265.16 39.84 266.99 39.84L266.99 39.84Q268.19 39.84 269.15 40.07Q270.12 40.30 270.84 40.81Q271.55 41.33 271.89 42.09Q272.23 42.86 272.23 43.95L272.23 43.95L272.23 60.99L279.36 60.99L279.36 42.41Q279.36 39.73 277.88 37.88Q276.39 36.02 273.77 35.05Q271.15 34.09 267.79 34.09L267.79 34.09Q264.14 34.09 261.17 35.08Q258.21 36.08 256.16 37.16L256.16 37.16ZM293.61 16.53L286.20 16.53L286.20 60.99L293.61 60.99L293.61 16.53ZM300.56 24.62L300.56 24.62Q300.56 26.39 301.87 27.59Q303.18 28.79 305.01 28.79L305.01 28.79Q306.83 28.79 308.11 27.59Q309.40 26.39 309.40 24.62L309.40 24.62Q309.40 22.80 308.11 21.63Q306.83 20.46 305.01 20.46L305.01 20.46Q303.18 20.46 301.87 21.63Q300.56 22.80 300.56 24.62ZM308.54 34.77L301.36 34.77L301.36 60.99L308.54 60.99L308.54 34.77ZM317.66 51.93L317.66 51.93L314.07 56.54Q315.55 57.97 317.40 59.19Q319.26 60.42 321.57 61.16Q323.87 61.90 326.67 61.90L326.67 61.90Q331.17 61.90 333.74 59.71Q336.30 57.51 336.30 53.58L336.30 53.58Q336.30 51.19 335.22 49.70Q334.13 48.22 332.34 47.22Q330.54 46.23 328.43 45.43L328.43 45.43Q326.72 44.69 325.38 44.17Q324.05 43.66 323.33 43.01Q322.62 42.35 322.62 41.50L322.62 41.50Q322.62 40.53 323.33 40.04Q324.05 39.56 325.30 39.56L325.30 39.56Q327.18 39.56 329.15 40.53Q331.11 41.50 332.54 43.03L332.54 43.03L335.79 38.48Q334.53 37.22 332.88 36.28Q331.23 35.34 329.29 34.77Q327.35 34.20 325.13 34.20L325.13 34.20Q322.51 34.20 320.37 35.03Q318.23 35.85 316.98 37.48Q315.72 39.10 315.72 41.44L315.72 41.44Q315.72 43.89 316.83 45.46Q317.95 47.03 319.66 47.97Q321.37 48.91 323.19 49.59L323.19 49.59Q325.13 50.22 326.38 50.79Q327.64 51.36 328.29 52.07Q328.95 52.78 328.95 53.81L328.95 53.81Q328.95 54.95 328.15 55.60Q327.35 56.26 325.87 56.26L325.87 56.26Q324.73 56.26 323.45 55.80Q322.16 55.35 320.74 54.41Q319.31 53.47 317.66 51.93ZM354.20 34.77L338.01 34.77L338.01 40.98L354.20 40.98L354.20 34.77ZM349.64 25.65L342.51 25.65L342.51 60.99L349.64 60.99L349.64 25.65ZM359.44 51.93L359.44 51.93L355.85 56.54Q357.33 57.97 359.19 59.19Q361.04 60.42 363.35 61.16Q365.66 61.90 368.45 61.90L368.45 61.90Q372.95 61.90 375.52 59.71Q378.08 57.51 378.08 53.58L378.08 53.58Q378.08 51.19 377.00 49.70Q375.92 48.22 374.12 47.22Q372.32 46.23 370.22 45.43L370.22 45.43Q368.50 44.69 367.17 44.17Q365.83 43.66 365.11 43.01Q364.40 42.35 364.40 41.50L364.40 41.50Q364.40 40.53 365.11 40.04Q365.83 39.56 367.08 39.56L367.08 39.56Q368.96 39.56 370.93 40.53Q372.89 41.50 374.32 43.03L374.32 43.03L377.57 38.48Q376.31 37.22 374.66 36.28Q373.01 35.34 371.07 34.77Q369.13 34.20 366.91 34.20L366.91 34.20Q364.29 34.20 362.15 35.03Q360.01 35.85 358.76 37.48Q357.50 39.10 357.50 41.44L357.50 41.44Q357.50 43.89 358.62 45.46Q359.73 47.03 361.44 47.97Q363.15 48.91 364.97 49.59L364.97 49.59Q366.91 50.22 368.16 50.79Q369.42 51.36 370.07 52.07Q370.73 52.78 370.73 53.81L370.73 53.81Q370.73 54.95 369.93 55.60Q369.13 56.26 367.65 56.26L367.65 56.26Q366.51 56.26 365.23 55.80Q363.94 55.35 362.52 54.41Q361.10 53.47 359.44 51.93Z" transform="translate(0, 0)"></path></g></svg></g></svg>