<svg viewBox="0 0 575 575" class="roots-wrapper"><g transform="rotate(0 0 0)"><svg viewBoxSize="575" data-root-id="2228302128614" xmlns="http://www.w3.org/2000/svg" xmlns:xlink="http://www.w3.org/1999/xlink" version="1.1" id="Layer_1" x="225.00000762939453" y="229.02749420166015" viewBox="180.2999725341797 57.20000457763672 432.4000244140625 216.59994506835938" xml:space="preserve" height="62.615396353093765" width="125" preserveAspectRatio="xMinYMin" zoom="1" editorType="buyer" data-layer-role="icon" style="position: absolute; height: 62.6154px; width: 125px; top: 229.027px; left: 225px;"><linearGradient id="SVGID_1_" gradientUnits="userSpaceOnUse" x1="538.4" y1="214.595" x2="325.639" y2="214.595" name="Layer %{number}" zoom="1" data-layer-id="3233633428614"><stop offset="0" style="stop-color: rgb(181, 33, 186);"></stop><stop offset="0.5" style="stop-color: rgb(0, 171, 255);"></stop><stop offset="1" style="stop-color: rgb(41, 0, 117);"></stop></linearGradient><path class="st0" d="M412.4,230c-2.3-21.9-6.9-42.3-20.8-42.3h-56c-14.1,0-1.5-30.8-13-30.8c-12.8,0-36.7,30.8-63.4,30.8  c-11.2,0-5.4-18.4-10.4-18.4c-5.5,0-18.2,18.4-30.8,18.4h-36.9c-0.4,0-0.8-0.3-0.8-0.8c0-0.4,0.3-0.8,0.8-0.8h36.9  c11.8,0,24.2-18.4,30.8-18.4c7.7,0,0.6,18.4,10.4,18.4c26,0,49.8-30.7,63.4-30.7c13.4,0,0.8,30.7,13,30.7h56  c15.6,0,20.1,22.6,22.3,43.7c2,18.9,2.4,42.4,7.2,42.4c5.6,0,10.2-20.3,16.4-42.5c6-21.2,13.7-43.6,26.8-43.6h24.3  c6.9,0,12.7,13.1,17.6,25c6,14.4,10,24.1,13.3,24.2c3.7,0,5.3-10.9,7.9-23.9c2.4-12,5.8-25.3,14.8-25.3h69.6c0.4,0,0.8,0.4,0.8,0.8  c0,0.4-0.3,0.8-0.8,0.8h-69.6c-7.5,0-10.8,11.4-13.3,24c-1.8,8.8-3.5,25.2-9.4,25.2c-5-0.1-9.8-13.3-14.7-25.1  c-5.2-12.6-10.6-24.1-16.2-24.1h-24.3c-11.7,0-19.1,20.6-25.3,42.5c-3,10.7-5.7,21.5-8.5,29.6c-2.6,7.8-5.5,14-9.5,14  C414.8,273.8,415.2,256.6,412.4,230z" name="Layer %{number}" zoom="1" data-layer-id="3861503828614" style="fill-rule: evenodd; clip-rule: evenodd; fill: url(&quot;#SVGID_1_&quot;);"></path><linearGradient id="SVGID_2_" gradientUnits="userSpaceOnUse" x1="538.4" y1="212.08" x2="325.639" y2="212.08" name="Layer %{number}" zoom="1" data-layer-id="3906882528614"><stop offset="0" style="stop-color: rgb(181, 33, 186);"></stop><stop offset="0.5" style="stop-color: rgb(0, 171, 255);"></stop><stop offset="1" style="stop-color: rgb(41, 0, 117);"></stop></linearGradient><path class="st1" d="M409.9,226.1c-2.8-19.9-7.6-38.5-20.9-38.5h-54c-13.5,0-2.8-27.9-13.8-27.9c-12.9,0-36,27.9-61.6,27.9  c-10.8,0-5.9-16.8-11.2-16.8c-5.9,0-18.4,16.8-30.7,16.8h-36.4c-0.4,0-0.8-0.3-0.8-0.8c0-0.4,0.3-0.8,0.8-0.8h36.4  c11.6,0,23.9-16.8,30.7-16.8c7.6,0,1.7,16.8,11.2,16.8c25,0,47.9-27.9,61.6-27.9c12.9,0,2.1,27.9,13.8,27.9h54  c14.9,0,19.7,20.6,22.4,39.8c1.4,9.9,2.3,19.5,3.6,26.9c1.3,7.7,3,11.6,5.2,11.6c5.9,0,10.9-18.4,17.5-38.6  c6.3-19.3,14.3-39.7,27.2-39.7h23.5c6.7,0,12.4,11.9,17.4,22.8c5.8,12.7,9.8,21.9,13.6,22c3.9,0,5.8-9.9,8.8-21.7  c2.7-10.9,6.5-23,15.4-23h68.1c0.4,0,0.8,0.4,0.8,0.8c0,0.4-0.3,0.8-0.8,0.8h-68.1c-7.4,0-11,10.3-13.9,21.8  c-2.2,8.6-4.4,23-10.3,22.9c-5.2-0.1-10.1-12.1-15-22.8c-5.3-11.5-10.6-21.9-16-21.9h-23.5c-11.5,0-19.2,18.7-25.8,38.6  c-5.1,15.5-11,39.7-19,39.6C413.8,265.9,413.5,251.6,409.9,226.1z" name="Layer %{number}" zoom="1" data-layer-id="5196052228614" style="fill-rule: evenodd; clip-rule: evenodd; fill: url(&quot;#SVGID_2_&quot;);"></path><linearGradient id="SVGID_3_" gradientUnits="userSpaceOnUse" x1="538.4" y1="209.565" x2="325.639" y2="209.565" name="Layer %{number}" zoom="1" data-layer-id="9755445928614"><stop offset="0" style="stop-color: rgb(181, 33, 186);"></stop><stop offset="0.5" style="stop-color: rgb(0, 171, 255);"></stop><stop offset="1" style="stop-color: rgb(41, 0, 117);"></stop></linearGradient><path class="st2" d="M411.8,246.5c-1.6-6.6-2.8-15.5-4.5-24.3c-3.4-17.9-8.4-34.6-21-34.6h-52c-13,0-4-25.2-14.7-25.2  c-13.1,0-35.3,25.2-59.8,25.2c-10.4,0-6.6-15.1-12-15.1c-6.3,0-18.6,15.1-30.7,15.1h-35.9c-0.4,0-0.8-0.3-0.8-0.8  c0-0.4,0.3-0.8,0.8-0.8h35.9c11.4,0,23.5-15.1,30.7-15.1c7.5,0,2.8,15.1,12,15.1c23.9,0,46-25.1,59.8-25.1  c12.4,0,3.4,25.1,14.7,25.1h52c14.1,0,19.3,18.5,22.5,35.8c1.7,8.9,2.9,17.6,4.4,24.2c1.7,6.9,3.5,10.4,5.9,10.4  c6.2,0,11.6-16.6,18.6-34.7c6.7-17.4,14.9-35.7,27.6-35.7h22.8c6.5,0,12.2,10.8,17.2,20.5c5.7,11.1,9.9,19.7,14,19.8  c4.1,0,6.4-8.9,9.7-19.6c3.1-9.8,7.2-20.7,16-20.7h66.7c0.4,0,0.8,0.4,0.8,0.8c0,0.4-0.3,0.8-0.8,0.8h-66.7  c-7.4,0-11.2,9.3-14.5,19.6c-2.6,8.1-5.3,20.7-11.2,20.6c-5.3-0.1-10.4-10.9-15.3-20.6c-5.3-10.3-10.5-19.7-15.9-19.7h-22.8  c-11.4,0-19.3,16.9-26.2,34.8c-5.7,14.8-11.9,35.7-20,35.7C415.4,258.1,413.4,252.9,411.8,246.5z" name="Layer %{number}" zoom="1" data-layer-id="3503589728614" style="fill-rule: evenodd; clip-rule: evenodd; fill: url(&quot;#SVGID_3_&quot;);"></path><linearGradient id="SVGID_4_" gradientUnits="userSpaceOnUse" x1="538.4" y1="207.05" x2="325.639" y2="207.05" name="Layer %{number}" zoom="1" data-layer-id="7275758928614"><stop offset="0" style="stop-color: rgb(181, 33, 186);"></stop><stop offset="0.5" style="stop-color: rgb(0, 171, 255);"></stop><stop offset="1" style="stop-color: rgb(41, 0, 117);"></stop></linearGradient><path class="st3" d="M410.2,240c-1.9-5.9-3.5-13.8-5.4-21.6c-3.9-15.9-9.2-30.7-21.1-30.7h-50c-12.4,0-5.3-22.4-15.6-22.4  c-13.2,0-34.6,22.4-58,22.4c-10,0-7.3-13.4-12.9-13.4c-6.7,0-18.7,13.4-30.6,13.4h-35.4c-0.4,0-0.8-0.3-0.8-0.8  c0-0.4,0.3-0.8,0.8-0.8h35.4c11.3,0,23.1-13.4,30.6-13.4c7.1,0,4,13.4,12.9,13.4c22.9,0,44.1-22.4,58-22.4c12,0,4.8,22.4,15.6,22.4  h50c13.4,0,18.9,16.5,22.6,31.9c1.9,7.9,3.5,15.6,5.3,21.5c1.9,6,4,9.3,6.6,9.3c6.5,0,12.3-14.7,19.6-30.8c7-15.4,15.5-31.8,28-31.8  H488c6.3,0,12,9.6,17,18.3c5.6,9.7,10.1,17.5,14.3,17.5c4.3,0,6.9-8,10.7-17.4c3.5-8.8,8-18.4,16.5-18.4h65.2c0.4,0,0.8,0.4,0.8,0.8  c0,0.4-0.3,0.8-0.8,0.8h-65.2c-7.3,0-11.4,8.3-15.1,17.4c-3,7.6-6.2,18.4-12.1,18.3c-5.4,0-10.6-9.7-15.6-18.3  c-5.3-9.2-10.5-17.5-15.7-17.5h-22.1c-11.3,0-19.4,15-26.6,30.9c-6.3,13.8-12.9,31.8-21,31.8C414.4,250.3,412,245.7,410.2,240z" name="Layer %{number}" zoom="1" data-layer-id="0110102528615" style="fill-rule: evenodd; clip-rule: evenodd; fill: url(&quot;#SVGID_4_&quot;);"></path><linearGradient id="SVGID_5_" gradientUnits="userSpaceOnUse" x1="538.4" y1="204.535" x2="325.639" y2="204.535" name="Layer %{number}" zoom="1" data-layer-id="8996390528615"><stop offset="0" style="stop-color: rgb(181, 33, 186);"></stop><stop offset="0.5" style="stop-color: rgb(0, 171, 255);"></stop><stop offset="1" style="stop-color: rgb(41, 0, 117);"></stop></linearGradient><path class="st4" d="M408.6,233.4c-2.2-5.2-4.1-12.1-6.3-18.9c-4.4-13.9-10-26.8-21.3-26.8h-48c-11.8,0-6.5-19.6-16.5-19.6  c-13.4,0-33.9,19.6-56.2,19.6c-9.5,0-8-11.7-13.7-11.7c-7.1,0-18.9,11.7-30.6,11.7h-34.9c-0.4,0-0.8-0.3-0.8-0.8  c0-0.4,0.3-0.8,0.8-0.8h34.9c11.1,0,22.7-11.7,30.6-11.7c7.1,0,5.1,11.7,13.7,11.7c21.8,0,42.2-19.6,56.2-19.6  c11.4,0,6,19.6,16.5,19.6h48c12.6,0,18.4,14.4,22.7,27.9c2.2,6.9,4,13.7,6.2,18.8c2.2,5.2,4.5,8.1,7.4,8.1c6.8,0,13-12.9,20.7-27  c7.4-13.5,16.1-27.8,28.4-27.8h21.4c6.1,0,11.7,8.4,16.8,16c5.4,8.1,10.2,15.3,14.7,15.3c9.5,0.1,12.5-31.3,28.7-31.3h63.8  c0.4,0,0.8,0.4,0.8,0.8c0,0.4-0.3,0.8-0.8,0.8H548c-15,0-17.8,31.4-28.7,31.3c-5.5,0-10.9-8.4-15.9-16c-5.4-8-10.5-15.3-15.5-15.3  h-21.4c-11.2,0-19.5,13.1-27,27c-6.8,12.4-13.8,27.8-22,27.8C413.4,242.5,410.8,238.5,408.6,233.4z" name="Layer %{number}" zoom="1" data-layer-id="9510531428615" style="fill-rule: evenodd; clip-rule: evenodd; fill: url(&quot;#SVGID_5_&quot;);"></path><linearGradient id="SVGID_6_" gradientUnits="userSpaceOnUse" x1="538.4" y1="202.015" x2="325.639" y2="202.015" name="Layer %{number}" zoom="1" data-layer-id="0113597428615"><stop offset="0" style="stop-color: rgb(181, 33, 186);"></stop><stop offset="0.5" style="stop-color: rgb(0, 171, 255);"></stop><stop offset="1" style="stop-color: rgb(41, 0, 117);"></stop></linearGradient><path class="st5" d="M399.9,210.7c-5-11.9-10.7-23-21.4-23h-46.1c-11.2,0-7.8-16.8-17.4-16.8c-13.5,0-33.2,16.8-54.4,16.8  c-9.1,0-8.7-10.1-14.5-10.1c-7.6,0-19.1,10.1-30.5,10.1h-34.3c-0.4,0-0.8-0.3-0.8-0.8c0-0.4,0.3-0.8,0.8-0.8h34.3  c10.9,0,22.4-10.1,30.5-10.1c7,0,6.2,10.1,14.5,10.1c20.8,0,40.4-16.8,54.4-16.8c10.9,0,7.4,16.8,17.4,16.8h46.1  c11.9,0,18,12.4,22.8,24c5.5,13.3,9,23,15.2,23c7.1,0,13.7-11.1,21.8-23.1c7.8-11.6,16.8-23.8,28.8-23.8h20.6  c11.3,0,21.8,26.8,31.6,26.8c9.9,0.1,14.2-26.8,30.2-26.8h62.3c0.4,0,0.8,0.4,0.8,0.8c0,0.4-0.3,0.8-0.8,0.8h-62.3  c-14.8,0-19.1,26.9-30.2,26.8c-10.9-0.1-21.3-26.8-31.6-26.8H467c-11.1,0-19.6,11.3-27.5,23.1c-7.3,10.9-14.8,23.8-23,23.8  C408.6,234.6,404.6,222,399.9,210.7z" name="Layer %{number}" zoom="1" data-layer-id="8447110528615" style="fill-rule: evenodd; clip-rule: evenodd; fill: url(&quot;#SVGID_6_&quot;);"></path><linearGradient id="SVGID_7_" gradientUnits="userSpaceOnUse" x1="538.4" y1="199.505" x2="325.639" y2="199.505" name="Layer %{number}" zoom="1" data-layer-id="3397472528615"><stop offset="0" style="stop-color: rgb(181, 33, 186);"></stop><stop offset="0.5" style="stop-color: rgb(0, 171, 255);"></stop><stop offset="1" style="stop-color: rgb(41, 0, 117);"></stop></linearGradient><path class="st6" d="M375.8,187.7h-44.1c-10.6,0-9-14-18.2-14c-13.7,0-32.5,14-52.6,14c-8.7,0-9.4-8.4-15.3-8.4  c-8,0-19.2,8.4-30.5,8.4h-33.8c-0.4,0-0.8-0.3-0.8-0.8c0-0.4,0.3-0.8,0.8-0.8h33.8c10.8,0,22-8.4,30.5-8.4c6.9,0,7.3,8.4,15.3,8.4  c19.7,0,38.5-14,52.6-14c10.3,0,8.6,14,18.2,14h44.1c21.6,0,25.8,39.1,39.7,39.1c15.4,0,28.8-39.1,52-39.1h19.9  c10.9,0,21.5,22.3,31.7,22.4c10.2,0.1,16-22.4,31.7-22.4h60.8c0.4,0,0.8,0.4,0.8,0.8c0,0.4-0.3,0.8-0.8,0.8h-60.8  c-14.7,0-20.5,22.4-31.7,22.4c-11.2-0.1-21.7-22.4-31.7-22.4h-19.9c-22.3,0-35.5,39.2-52,39.1C399.9,226.8,396.5,187.7,375.8,187.7z  " name="Layer %{number}" zoom="1" data-layer-id="4347889328615" style="fill-rule: evenodd; clip-rule: evenodd; fill: url(&quot;#SVGID_7_&quot;);"></path><linearGradient id="SVGID_8_" gradientUnits="userSpaceOnUse" x1="538.4" y1="196.985" x2="325.639" y2="196.985" name="Layer %{number}" zoom="1" data-layer-id="5506178528615"><stop offset="0" style="stop-color: rgb(181, 33, 186);"></stop><stop offset="0.5" style="stop-color: rgb(0, 171, 255);"></stop><stop offset="1" style="stop-color: rgb(41, 0, 117);"></stop></linearGradient><path class="st7" d="M373.1,187.7H331c-10,0-10.3-11.2-19.1-11.2c-13.9,0-31.8,11.2-50.9,11.2c-8.2,0-10.1-6.7-16.1-6.7  c-8.4,0-19.4,6.7-30.4,6.7h-33.3c-0.4,0-0.8-0.3-0.8-0.8c0-0.4,0.3-0.8,0.8-0.8h33.3c10.6,0,21.6-6.7,30.4-6.7  c6.8,0,8.4,6.7,16.1,6.7c18.7,0,36.6-11.2,50.9-11.2c9.7,0,10,11.2,19.1,11.2h42.1c20.2,0,26.7,31.3,41.4,31.3  c16,0,30.6-31.3,53.5-31.3h19.2c10.5,0,21.3,17.9,31.9,17.9c10.6,0,17.9-17.9,33.2-17.9h59.4c0.4,0,0.8,0.4,0.8,0.8  c0,0.4-0.3,0.8-0.8,0.8h-59.4c-14.5,0-22,17.9-33.3,17.9c-11.5,0-22.1-17.9-31.9-17.9H468c-22,0-36.6,31.3-53.5,31.3  C398.5,219,392.6,187.7,373.1,187.7z" name="Layer %{number}" zoom="1" data-layer-id="6890959228615" style="fill-rule: evenodd; clip-rule: evenodd; fill: url(&quot;#SVGID_8_&quot;);"></path><linearGradient id="SVGID_9_" gradientUnits="userSpaceOnUse" x1="538.4" y1="194.47" x2="325.639" y2="194.47" name="Layer %{number}" zoom="1" data-layer-id="2868959928615"><stop offset="0" style="stop-color: rgb(181, 33, 186);"></stop><stop offset="0.5" style="stop-color: rgb(0, 171, 255);"></stop><stop offset="1" style="stop-color: rgb(41, 0, 117);"></stop></linearGradient><path class="st8" d="M370.5,187.7h-40.1c-9.4,0-11.5-8.4-20-8.4c-14,0-31.1,8.4-49.1,8.4c-7.8,0-10.8-5-16.9-5c-8.8,0-19.6,5-30.4,5  h-32.8c-0.4,0-0.8-0.3-0.8-0.8c0-0.4,0.3-0.8,0.8-0.8h32.8c10.5,0,21.3-5,30.4-5c6.7,0,9.6,5,16.9,5c17.6,0,34.7-8.4,49.1-8.4  c9.2,0,11.3,8.4,20,8.4h40.1c18.7,0,27.6,23.5,43.1,23.5c16.6,0,32.5-23.5,54.9-23.5H487c10.1,0,21,13.4,32,13.4  c10.9,0,19.7-13.4,34.8-13.4h57.9c0.4,0,0.8,0.4,0.8,0.8c0,0.4-0.3,0.8-0.8,0.8h-57.9c-14.4,0-23.3,13.4-34.8,13.4  c-11.8,0-22.4-13.4-32-13.4h-18.5c-21.7,0-37.7,23.5-54.9,23.5C397.2,211.2,388.6,187.7,370.5,187.7z" name="Layer %{number}" zoom="1" data-layer-id="3247447628615" style="fill-rule: evenodd; clip-rule: evenodd; fill: url(&quot;#SVGID_9_&quot;);"></path><linearGradient id="SVGID_10_" gradientUnits="userSpaceOnUse" x1="538.4" y1="191.96" x2="325.639" y2="191.96" name="Layer %{number}" zoom="1" data-layer-id="3442435228615"><stop offset="0" style="stop-color: rgb(181, 33, 186);"></stop><stop offset="0.5" style="stop-color: rgb(0, 171, 255);"></stop><stop offset="1" style="stop-color: rgb(41, 0, 117);"></stop></linearGradient><path class="st9" d="M367.9,187.7h-38.1c-8.8,0-12.6-5.6-20.9-5.6c-14.2,0-30.5,5.6-47.3,5.6c-7.3,0-11.5-3.4-17.7-3.4  c-9.2,0-19.8,3.4-30.3,3.4h-32.3c-0.4,0-0.8-0.3-0.8-0.8c0-0.4,0.3-0.8,0.8-0.8h32.3c10.4,0,20.9-3.3,30.3-3.3  c6.6,0,10.7,3.3,17.7,3.3c16.6,0,32.9-5.6,47.3-5.6c8.6,0,12.5,5.6,20.9,5.6h38.1c17.3,0,28.6,15.7,44.9,15.7  c17.2,0,34.4-15.7,56.4-15.7h17.8c9.7,0,20.6,8.9,32.1,9c11.3,0,21.5-9,36.3-9h56.5c0.4,0,0.8,0.4,0.8,0.8c0,0.4-0.3,0.8-0.8,0.8  h-56.5c-14.3,0-24.7,9-36.3,8.9c-12,0-22.8-8.9-32.1-8.9h-17.8c-21.5,0-38.8,15.7-56.4,15.7C395.8,203.3,384.7,187.7,367.9,187.7z" name="Layer %{number}" zoom="1" data-layer-id="9281327928615" style="fill-rule: evenodd; clip-rule: evenodd; fill: url(&quot;#SVGID_10_&quot;);"></path><linearGradient id="SVGID_11_" gradientUnits="userSpaceOnUse" x1="538.4" y1="189.44" x2="325.639" y2="189.44" name="Layer %{number}" zoom="1" data-layer-id="2768690628615"><stop offset="0" style="stop-color: rgb(181, 33, 186);"></stop><stop offset="0.5" style="stop-color: rgb(0, 171, 255);"></stop><stop offset="1" style="stop-color: rgb(41, 0, 117);"></stop></linearGradient><path class="st10" d="M365.2,187.7H329c-8.1,0-13.8-2.8-21.7-2.8c-14.4,0-29.8,2.8-45.5,2.8c-6.9,0-12.2-1.7-18.6-1.7  c-9.7,0-20,1.7-30.3,1.7h-31.8c-0.4,0-0.8-0.3-0.8-0.8c0-0.4,0.3-0.8,0.8-0.8H213c10.2,0,20.5-1.7,30.3-1.7c6.5,0,11.8,1.7,18.6,1.7  c15.6,0,31-2.8,45.5-2.8c8.1,0,13.8,2.8,21.7,2.8h36.2c15.8,0,29.6,7.8,46.6,7.8c17.8,0,36.3-7.8,57.8-7.8h17  c9.3,0,20.3,4.5,32.3,4.5c11.6,0,23.4-4.5,37.8-4.5h55c0.4,0,0.8,0.4,0.8,0.8c0,0.4-0.3,0.8-0.8,0.8h-55c-14.2,0-26,4.5-37.8,4.5  c-12.3,0-23.2-4.5-32.3-4.5h-17c-21.2,0-39.9,7.8-57.8,7.8C394.5,195.5,380.8,187.7,365.2,187.7z" name="Layer %{number}" zoom="1" data-layer-id="0640267128615" style="fill-rule: evenodd; clip-rule: evenodd; fill: url(&quot;#SVGID_11_&quot;);"></path><linearGradient id="SVGID_12_" gradientUnits="userSpaceOnUse" x1="538.4" y1="122.56" x2="325.639" y2="122.56" name="Layer %{number}" zoom="1" data-layer-id="6227428928615"><stop offset="0" style="stop-color: rgb(181, 33, 186);"></stop><stop offset="0.5" style="stop-color: rgb(0, 171, 255);"></stop><stop offset="1" style="stop-color: rgb(41, 0, 117);"></stop></linearGradient><path class="st11" d="M180.5,187.1c0-0.4,0.3-0.8,0.8-0.8h114.5c31.3,0,50.2-31.7,63.6-64.1c13.6-32.8,21-65,31-65  c3.9,0,5.8,9.3,7.3,20.8c1.5,12.1,2.7,28.3,4.1,44.4c3.1,33.3,7.5,63.9,18.5,63.9h31.5c8.4,0,13.9-18.9,18.3-39.4  c5.9-27.5,7.8-40.6,12.5-40.6c6.5,0,6.3,14,8.9,40.7c2,20.3,6.1,39.3,19.3,39.3h100.9c0.4,0,0.8,0.4,0.8,0.8c0,0.4-0.3,0.8-0.8,0.8  H510.8c-15,0-18.9-21-20.8-40.7c-1-10.1-1.5-20-2.5-27.5c-1.1-7.9-2.6-11.8-4.9-11.8c-1.4,0-3.2,4-5.1,11.9  c-1.8,7.5-3.7,17.4-5.8,27.5c-4.2,19.5-9.8,40.6-19.8,40.6h-31.5c-12.9,0-17.1-33.6-20.1-65.3c-1.5-16.2-2.6-32.3-4.1-44.4  c-1.6-12.7-3.6-19.5-5.8-19.5c-8.4,0-15.9,31.1-29.6,64.1c-13.3,32.2-32.5,65-65,65H181.3C180.8,187.9,180.5,187.6,180.5,187.1z" name="Layer %{number}" zoom="1" data-layer-id="9106404728615" style="fill-rule: evenodd; clip-rule: evenodd; fill: url(&quot;#SVGID_12_&quot;);"></path><linearGradient id="SVGID_13_" gradientUnits="userSpaceOnUse" x1="538.4" y1="128.43" x2="325.639" y2="128.43" name="Layer %{number}" zoom="1" data-layer-id="0069334428615"><stop offset="0" style="stop-color: rgb(181, 33, 186);"></stop><stop offset="0.5" style="stop-color: rgb(0, 171, 255);"></stop><stop offset="1" style="stop-color: rgb(41, 0, 117);"></stop></linearGradient><path class="st12" d="M180.5,187.1c0-0.4,0.3-0.8,0.8-0.8h111.5c29.9,0,48.5-28.8,62.1-58.3c13.9-29.9,22-59.2,32.6-59.2  c4.2,0,6.6,8.4,8.4,19c2,11,3.6,25.8,5.5,40.4c4,30.3,9.2,58,20.3,58H452c8.2,0,13.8-17.2,18.4-35.8c2.3-9.1,4.3-18.2,6.3-25  c1.9-6.5,4.1-11.9,7.1-11.9c6.4,0,6.8,11.4,10.5,37c2.6,18.5,7.1,35.7,19.9,35.7h97.5c0.4,0,0.8,0.4,0.8,0.8c0,0.4-0.3,0.8-0.8,0.8  h-97.5c-14.5,0-18.9-19.1-21.4-37c-1.3-9.1-2.1-18.1-3.4-24.9c-1.4-7.1-3.1-10.7-5.5-10.7c-1.6,0-3.5,3.6-5.7,10.8  c-2,6.8-4,15.8-6.3,24.9c-4.5,17.7-10.2,36.9-19.9,36.9h-30.3c-12.9,0-18-30.6-21.8-59.4c-2-14.7-3.6-29.3-5.5-40.3  c-2.1-11.5-4.4-17.7-6.9-17.7c-9.1,0-17.3,28.3-31.2,58.3c-13.6,29.3-32.5,59.1-63.5,59.1H181.3  C180.8,187.9,180.5,187.6,180.5,187.1z" name="Layer %{number}" zoom="1" data-layer-id="7126581928615" style="fill-rule: evenodd; clip-rule: evenodd; fill: url(&quot;#SVGID_13_&quot;);"></path><linearGradient id="SVGID_14_" gradientUnits="userSpaceOnUse" x1="538.4" y1="134.3" x2="325.639" y2="134.3" name="Layer %{number}" zoom="1" data-layer-id="9711410728615"><stop offset="0" style="stop-color: rgb(181, 33, 186);"></stop><stop offset="0.5" style="stop-color: rgb(0, 171, 255);"></stop><stop offset="1" style="stop-color: rgb(41, 0, 117);"></stop></linearGradient><path class="st13" d="M180.5,187.1c0-0.4,0.3-0.8,0.8-0.8h108.4c28.5,0,46.8-25.9,60.6-52.4c14.2-27.2,23.1-53.3,34.2-53.3  c4.4,0,7.3,7.5,9.6,17.1c2.4,9.9,4.5,23.2,6.9,36.4c4.9,27.2,10.8,52.2,22.1,52.2h29.1c8,0,13.6-15.4,18.6-32.1  c3.8-12.7,8.3-33.3,14.5-33.3c4,0,6.1,4.9,7.6,10.8c1.6,6.2,2.8,14.4,4.4,22.5c3.3,16.6,8.1,32.1,20.5,32.1h94  c0.4,0,0.8,0.4,0.8,0.8c0,0.4-0.3,0.8-0.8,0.8h-94c-13.9,0-18.9-17.2-22-33.3c-1.6-8.2-2.8-16.3-4.4-22.4c-1.6-6.3-3.6-9.7-6.1-9.7  c-4.1,0-8,15.2-13,32.2c-4.7,16-10.6,33.3-20,33.3H423c-13,0-18.9-27.5-23.6-53.5c-2.4-13.2-4.5-26.4-6.9-36.3  c-2.5-10.3-5.2-15.9-8.1-15.9c-19.8,0-36.5,105.7-94.8,105.7H181.3C180.8,187.9,180.5,187.6,180.5,187.1z" name="Layer %{number}" zoom="1" data-layer-id="0624099628615" style="fill-rule: evenodd; clip-rule: evenodd; fill: url(&quot;#SVGID_14_&quot;);"></path><linearGradient id="SVGID_15_" gradientUnits="userSpaceOnUse" x1="538.4" y1="140.17" x2="325.639" y2="140.17" name="Layer %{number}" zoom="1" data-layer-id="9872096428615"><stop offset="0" style="stop-color: rgb(181, 33, 186);"></stop><stop offset="0.5" style="stop-color: rgb(0, 171, 255);"></stop><stop offset="1" style="stop-color: rgb(41, 0, 117);"></stop></linearGradient><path class="st14" d="M180.5,187.1c0-0.4,0.3-0.8,0.8-0.8h105.3c27.1,0,45.1-23.1,59.2-46.6c14.7-24.5,24.2-47.3,35.7-47.3  c9.3,0,14.4,28.5,19,47.6c5.9,24.1,12.4,46.4,23.9,46.4h27.8c7.8,0,13.5-13.7,18.7-28.6c4.3-12.3,9.1-29.6,15.5-29.6  c4,0,6.4,4.3,8.2,9.6c1.9,5.5,3.5,12.8,5.4,20c3.9,14.7,9.1,28.5,21.2,28.5h90.5c0.4,0,0.8,0.4,0.8,0.8c0,0.4-0.3,0.8-0.8,0.8h-90.5  c-13.5,0-18.9-15.3-22.7-29.6c-1.9-7.3-3.4-14.5-5.3-19.9c-1.9-5.6-4-8.6-6.8-8.6c-4.5,0-8.8,13.5-14.1,28.6  c-5,14.2-11,29.6-20.2,29.6h-27.8c-13,0-19.8-24.5-25.3-47.5C392.7,114,388.3,94,381.5,94c-21.1,0-39.5,93.9-94.9,93.9H181.3  C180.8,187.9,180.5,187.6,180.5,187.1z" name="Layer %{number}" zoom="1" data-layer-id="4313628228615" style="fill-rule: evenodd; clip-rule: evenodd; fill: url(&quot;#SVGID_15_&quot;);"></path><linearGradient id="SVGID_16_" gradientUnits="userSpaceOnUse" x1="538.4" y1="146.04" x2="325.639" y2="146.04" name="Layer %{number}" zoom="1" data-layer-id="8586382628615"><stop offset="0" style="stop-color: rgb(181, 33, 186);"></stop><stop offset="0.5" style="stop-color: rgb(0, 171, 255);"></stop><stop offset="1" style="stop-color: rgb(41, 0, 117);"></stop></linearGradient><path class="st15" d="M180.5,187.1c0-0.4,0.3-0.8,0.8-0.8h102.3c25.7,0,43.4-20.2,57.7-40.8c15.4-22.1,25.3-41.4,37.3-41.4  c9.7,0,15.9,23.8,21.6,41.6c6.7,20.9,14.1,40.6,25.6,40.6h26.6c7.6,0,13.4-12,18.9-25c4.8-11.3,10-25.9,16.5-25.9  c7.7,0,10.9,13.7,15.1,25.9c4.5,12.9,10.1,24.9,21.8,24.9h87c0.4,0,0.8,0.4,0.8,0.8c0,0.4-0.3,0.8-0.8,0.8h-87  c-12.9,0-18.9-13.4-23.3-25.9c-5.7-16.2-8.1-24.9-13.7-24.9c-4.9,0-9.5,11.8-15.1,25c-5.3,12.4-11.5,25.9-20.3,25.9h-26.6  c-13,0-20.6-21.4-27.1-41.6c-7.1-22.3-12.5-40.6-20.1-40.6c-22.4,0-42.5,82.2-95,82.2H181.3C180.8,187.9,180.5,187.6,180.5,187.1z" name="Layer %{number}" zoom="1" data-layer-id="9332876728615" style="fill-rule: evenodd; clip-rule: evenodd; fill: url(&quot;#SVGID_16_&quot;);"></path><linearGradient id="SVGID_17_" gradientUnits="userSpaceOnUse" x1="538.4" y1="151.91" x2="325.639" y2="151.91" name="Layer %{number}" zoom="1" data-layer-id="3034260528615"><stop offset="0" style="stop-color: rgb(181, 33, 186);"></stop><stop offset="0.5" style="stop-color: rgb(0, 171, 255);"></stop><stop offset="1" style="stop-color: rgb(41, 0, 117);"></stop></linearGradient><path class="st16" d="M180.5,187.1c0-0.4,0.3-0.8,0.8-0.8h99.2c48.9,0,69.9-70.4,95.1-70.4c9.9,0,16.8,18.5,24.1,35.7  c7.6,17.9,15.7,34.8,27.4,34.8h25.3c7.4,0,13.3-10.3,19.1-21.4c5.2-10,10.9-22.2,17.5-22.2c15.2,0,15.8,43.6,39.1,43.6h83.6  c0.4,0,0.8,0.4,0.8,0.8c0,0.4-0.3,0.8-0.8,0.8h-83.6c-24.2,0-25.8-43.6-39.1-43.6c-5.4,0-10.3,10.1-16.1,21.4  c-5.5,10.7-11.9,22.2-20.5,22.2h-25.3c-13,0-21.4-18.3-28.8-35.7c-7.9-18.7-14.1-34.8-22.7-34.8c-23.8,0-45.5,70.4-95.1,70.4h-99.2  C180.8,187.9,180.5,187.6,180.5,187.1z" name="Layer %{number}" zoom="1" data-layer-id="6587357928615" style="fill-rule: evenodd; clip-rule: evenodd; fill: url(&quot;#SVGID_17_&quot;);"></path><linearGradient id="SVGID_18_" gradientUnits="userSpaceOnUse" x1="538.4" y1="157.78" x2="325.639" y2="157.78" name="Layer %{number}" zoom="1" data-layer-id="8080864328615"><stop offset="0" style="stop-color: rgb(181, 33, 186);"></stop><stop offset="0.5" style="stop-color: rgb(0, 171, 255);"></stop><stop offset="1" style="stop-color: rgb(41, 0, 117);"></stop></linearGradient><path class="st17" d="M180.5,187.1c0-0.4,0.3-0.8,0.8-0.8h96.2c46,0,68.9-58.7,95.2-58.7c10.4,0,18.4,15.3,26.6,29.7  c8.5,14.9,17.3,29,29.2,29h24.1c7.2,0,13.3-8.6,19.3-17.8c5.8-8.8,11.6-18.5,18.5-18.5c15.2,0,18.8,36.3,41.3,36.3h80.1  c0.4,0,0.8,0.4,0.8,0.8c0,0.4-0.3,0.8-0.8,0.8h-80.1c-23.3,0-27.4-36.3-41.3-36.3c-5.8,0-11.1,8.5-17.2,17.8  c-5.8,8.9-12.3,18.5-20.6,18.5h-24.1c-13,0-22.3-15.2-30.5-29.7c-8.6-15-16-29-25.3-29c-25.1,0-48.6,58.7-95.2,58.7h-96.2  C180.8,187.9,180.5,187.6,180.5,187.1z" name="Layer %{number}" zoom="1" data-layer-id="9320069128615" style="fill-rule: evenodd; clip-rule: evenodd; fill: url(&quot;#SVGID_18_&quot;);"></path><linearGradient id="SVGID_19_" gradientUnits="userSpaceOnUse" x1="538.4" y1="163.65" x2="325.639" y2="163.65" name="Layer %{number}" zoom="1" data-layer-id="6759532428615"><stop offset="0" style="stop-color: rgb(181, 33, 186);"></stop><stop offset="0.5" style="stop-color: rgb(0, 171, 255);"></stop><stop offset="1" style="stop-color: rgb(41, 0, 117);"></stop></linearGradient><path class="st18" d="M180.5,187.1c0-0.4,0.3-0.8,0.8-0.8h93.1c43.2,0,68-47,95.3-47c21.5,0,35.5,47,60.1,47h22.8  c14.5,0,25.1-29.1,39-29.1c15.5,0,21.9,29.1,43.5,29.1h76.6c0.4,0,0.8,0.4,0.8,0.8c0,0.4-0.3,0.8-0.8,0.8h-76.6  c-22.3,0-29.1-29.1-43.5-29.1c-12.8,0-23.6,29.1-39,29.1h-22.8c-25.6,0-39.8-47-60.1-47c-26.5,0-51.6,47-95.3,47h-93.1  C180.8,187.9,180.5,187.6,180.5,187.1z" name="Layer %{number}" zoom="1" data-layer-id="2551317528615" style="fill-rule: evenodd; clip-rule: evenodd; fill: url(&quot;#SVGID_19_&quot;);"></path><linearGradient id="SVGID_20_" gradientUnits="userSpaceOnUse" x1="538.4" y1="169.52" x2="325.639" y2="169.52" name="Layer %{number}" zoom="1" data-layer-id="6729485328615"><stop offset="0" style="stop-color: rgb(181, 33, 186);"></stop><stop offset="0.5" style="stop-color: rgb(0, 171, 255);"></stop><stop offset="1" style="stop-color: rgb(41, 0, 117);"></stop></linearGradient><path class="st19" d="M180.5,187.1c0-0.4,0.3-0.8,0.8-0.8h90c40.4,0,67-35.2,95.5-35.2c22.6,0,39.5,35.2,64.5,35.2h21.6  c14,0,25.8-21.8,40.1-21.8c15.7,0,24.9,21.8,45.6,21.8h73.2c0.4,0,0.8,0.4,0.8,0.8c0,0.4-0.3,0.8-0.8,0.8h-73.2  c-21.3,0-30.7-21.8-45.6-21.8c-13.5,0-25.3,21.8-40.1,21.8h-21.6c-25.7,0-42.7-35.2-64.5-35.2c-27.8,0-54.7,35.2-95.5,35.2h-90  C180.8,187.9,180.5,187.6,180.5,187.1z" name="Layer %{number}" zoom="1" data-layer-id="5094748628615" style="fill-rule: evenodd; clip-rule: evenodd; fill: url(&quot;#SVGID_20_&quot;);"></path><linearGradient id="SVGID_21_" gradientUnits="userSpaceOnUse" x1="538.4" y1="175.39" x2="325.639" y2="175.39" name="Layer %{number}" zoom="1" data-layer-id="3438822128615"><stop offset="0" style="stop-color: rgb(181, 33, 186);"></stop><stop offset="0.5" style="stop-color: rgb(0, 171, 255);"></stop><stop offset="1" style="stop-color: rgb(41, 0, 117);"></stop></linearGradient><path class="st20" d="M180.5,187.1c0-0.4,0.3-0.8,0.8-0.8h87c37.5,0,65.9-23.5,95.6-23.5c23.6,0,43.5,23.5,68.8,23.5h20.4  c13.6,0,26.5-14.5,41.3-14.5c15.9,0,27.9,14.5,47.8,14.5h69.7c0.4,0,0.8,0.4,0.8,0.8c0,0.4-0.3,0.8-0.8,0.8H542  c-20.3,0-32.4-14.5-47.8-14.5c-14.4,0-27.2,14.5-41.3,14.5h-20.4c-25.7,0-45.6-23.5-68.8-23.5c-29.2,0-57.7,23.5-95.6,23.5h-87  C180.8,187.9,180.5,187.6,180.5,187.1z" name="Layer %{number}" zoom="1" data-layer-id="5305578628615" style="fill-rule: evenodd; clip-rule: evenodd; fill: url(&quot;#SVGID_21_&quot;);"></path><linearGradient id="SVGID_22_" gradientUnits="userSpaceOnUse" x1="538.4" y1="181.26" x2="325.639" y2="181.26" name="Layer %{number}" zoom="1" data-layer-id="4247434928615"><stop offset="0" style="stop-color: rgb(181, 33, 186);"></stop><stop offset="0.5" style="stop-color: rgb(0, 171, 255);"></stop><stop offset="1" style="stop-color: rgb(41, 0, 117);"></stop></linearGradient><path class="st21" d="M180.5,187.1c0-0.4,0.3-0.8,0.8-0.8h83.9c34.7,0,64.9-11.7,95.7-11.7c24.7,0,47.6,11.7,73.1,11.7H453  c13.3,0,27.1-7.3,42.5-7.3c16.1,0,30.9,7.3,50,7.3h66.2c0.4,0,0.8,0.4,0.8,0.8c0,0.4-0.3,0.8-0.8,0.8h-66.2c-19.3,0-34.1-7.3-50-7.3  c-15.2,0-28.9,7.3-42.5,7.3h-19.1c-25.8,0-48.6-11.7-73.1-11.7c-30.6,0-60.8,11.7-95.7,11.7h-83.9  C180.8,187.9,180.5,187.6,180.5,187.1z" name="Layer %{number}" zoom="1" data-layer-id="4190864928615" style="fill-rule: evenodd; clip-rule: evenodd; fill: url(&quot;#SVGID_22_&quot;);"></path><linearGradient id="SVGID_23_" gradientUnits="userSpaceOnUse" x1="538.4" y1="187.13" x2="325.639" y2="187.13" name="Layer %{number}" zoom="1" data-layer-id="8032341728615"><stop offset="0" style="stop-color: rgb(181, 33, 186);"></stop><stop offset="0.5" style="stop-color: rgb(0, 171, 255);"></stop><stop offset="1" style="stop-color: rgb(41, 0, 117);"></stop></linearGradient><path class="st22" d="M180.5,187.1c0-0.4,0.3-0.8,0.8-0.8h430.5c0.4,0,0.8,0.4,0.8,0.8c0,0.4-0.3,0.8-0.8,0.8H181.3  C180.8,187.9,180.5,187.6,180.5,187.1z" name="Layer %{number}" zoom="1" data-layer-id="0835447328615" style="fill-rule: evenodd; clip-rule: evenodd; fill: url(&quot;#SVGID_23_&quot;);"></path></svg></g><g transform="rotate(0 0 0)"><svg viewBoxSize="575" data-root-id="6440074628615" xmlns="http://www.w3.org/2000/svg" y="331.58249420166015" viewBox="4.599999904632568 3.259999990463257 247.09999084472656 14.389999389648438" x="163.95001144409179" height="14.389999389648438" width="247.09999084472656" fontUrl="https://fonts.gstatic.com/s/inter/v18/UcCO3FwrK3iLTeHuS_nVMrMxCp50SjIw2boKoduKmMEVuLyfMZhrib2Bg-4.ttf" zoom="1" editorType="buyer" data-layer-role="slogan" style="position: absolute; top: 331.582px; width: 247.1px; height: 14.39px; left: 163.95px;"><g data-horizontal-grow="center" zoom="1" root="[object Object]" style="fill: rgb(255, 255, 255); fill-opacity: 1;"><path d="M10.00 14.53L8.61 14.53L8.61 10.06L4.60 3.62L6.21 3.62L8.37 7.14Q8.74 7.73 9.02 8.27Q9.30 8.81 9.60 9.63L9.60 9.63L9.05 9.63Q9.35 8.80 9.63 8.25Q9.92 7.71 10.26 7.14L10.26 7.14L12.41 3.62L14.02 3.62L10.00 10.06L10.00 14.53ZM18.89 14.71L18.89 14.71Q17.78 14.71 16.94 14.18Q16.10 13.65 15.63 12.70Q15.16 11.75 15.16 10.49L15.16 10.49Q15.16 9.21 15.63 8.25Q16.10 7.29 16.94 6.77Q17.78 6.24 18.89 6.24L18.89 6.24Q20.01 6.24 20.85 6.77Q21.69 7.29 22.16 8.25Q22.63 9.21 22.63 10.49L22.63 10.49Q22.63 11.75 22.16 12.70Q21.69 13.65 20.85 14.18Q20.01 14.71 18.89 14.71ZM18.89 13.53L18.89 13.53Q19.72 13.53 20.25 13.10Q20.79 12.68 21.04 11.99Q21.30 11.29 21.30 10.49L21.30 10.49Q21.30 9.68 21.04 8.98Q20.79 8.28 20.25 7.85Q19.72 7.42 18.89 7.42L18.89 7.42Q18.07 7.42 17.54 7.85Q17.01 8.28 16.76 8.97Q16.50 9.67 16.50 10.49L16.50 10.49Q16.50 11.29 16.76 11.99Q17.01 12.68 17.54 13.10Q18.07 13.53 18.89 13.53ZM27.33 14.63L27.33 14.63Q26.50 14.63 25.87 14.29Q25.25 13.95 24.90 13.26Q24.55 12.58 24.55 11.54L24.55 11.54L24.55 6.34L25.87 6.34L25.87 11.43Q25.87 12.38 26.37 12.91Q26.87 13.45 27.72 13.45L27.72 13.45Q28.31 13.45 28.77 13.19Q29.24 12.93 29.51 12.44Q29.78 11.95 29.78 11.25L29.78 11.25L29.78 6.34L31.11 6.34L31.11 14.53L29.83 14.53L29.83 12.55L30.01 12.55Q29.63 13.70 28.93 14.17Q28.23 14.63 27.33 14.63ZM34.74 14.53L33.42 14.53L33.42 6.34L34.69 6.34L34.69 7.60L34.78 7.60Q35.01 6.98 35.59 6.60Q36.17 6.23 36.91 6.23L36.91 6.23Q37.05 6.23 37.25 6.23Q37.46 6.24 37.57 6.25L37.57 6.25L37.57 7.57Q37.51 7.56 37.28 7.53Q37.05 7.50 36.78 7.50L36.78 7.50Q36.20 7.50 35.73 7.75Q35.27 7.99 35.00 8.42Q34.74 8.85 34.74 9.40L34.74 9.40L34.74 14.53ZM47.86 14.68L47.86 14.68Q46.46 14.68 45.37 14.00Q44.27 13.32 43.65 12.07Q43.02 10.81 43.02 9.08L43.02 9.08Q43.02 7.35 43.65 6.09Q44.27 4.83 45.37 4.15Q46.46 3.47 47.86 3.47L47.86 3.47Q48.69 3.47 49.43 3.71Q50.16 3.96 50.75 4.42Q51.34 4.89 51.73 5.55Q52.12 6.21 52.27 7.05L52.27 7.05L50.87 7.05Q50.76 6.49 50.47 6.06Q50.19 5.64 49.79 5.35Q49.38 5.05 48.89 4.91Q48.40 4.76 47.86 4.76L47.86 4.76Q46.88 4.76 46.09 5.26Q45.30 5.76 44.84 6.72Q44.38 7.68 44.38 9.08L44.38 9.08Q44.38 10.47 44.84 11.44Q45.31 12.40 46.10 12.89Q46.89 13.39 47.86 13.39L47.86 13.39Q48.40 13.39 48.89 13.24Q49.38 13.09 49.79 12.80Q50.19 12.51 50.47 12.08Q50.76 11.65 50.87 11.10L50.87 11.10L52.27 11.10Q52.13 11.93 51.73 12.59Q51.34 13.25 50.76 13.72Q50.17 14.19 49.43 14.43Q48.70 14.68 47.86 14.68ZM57.58 14.71L57.58 14.71Q56.46 14.71 55.62 14.18Q54.79 13.65 54.32 12.70Q53.85 11.75 53.85 10.49L53.85 10.49Q53.85 9.21 54.32 8.25Q54.79 7.29 55.62 6.77Q56.46 6.24 57.58 6.24L57.58 6.24Q58.70 6.24 59.54 6.77Q60.38 7.29 60.85 8.25Q61.32 9.21 61.32 10.49L61.32 10.49Q61.32 11.75 60.85 12.70Q60.38 13.65 59.54 14.18Q58.70 14.71 57.58 14.71ZM57.58 13.53L57.58 13.53Q58.40 13.53 58.94 13.10Q59.47 12.68 59.73 11.99Q59.99 11.29 59.99 10.49L59.99 10.49Q59.99 9.68 59.73 8.98Q59.47 8.28 58.94 7.85Q58.40 7.42 57.58 7.42L57.58 7.42Q56.76 7.42 56.23 7.85Q55.70 8.28 55.44 8.97Q55.19 9.67 55.19 10.49L55.19 10.49Q55.19 11.29 55.44 11.99Q55.70 12.68 56.23 13.10Q56.76 13.53 57.58 13.53ZM64.56 14.53L63.24 14.53L63.24 6.34L64.52 6.34L64.53 8.17L64.42 8.17Q64.59 7.51 64.95 7.07Q65.32 6.64 65.80 6.42Q66.29 6.20 66.82 6.20L66.82 6.20Q67.71 6.20 68.27 6.75Q68.82 7.29 68.98 8.19L68.98 8.19L68.80 8.19Q68.95 7.57 69.34 7.13Q69.73 6.68 70.28 6.44Q70.83 6.20 71.48 6.20L71.48 6.20Q72.19 6.20 72.78 6.50Q73.37 6.81 73.71 7.43Q74.06 8.06 74.06 9.01L74.06 9.01L74.06 14.53L72.74 14.53L72.74 9.05Q72.74 8.16 72.25 7.78Q71.75 7.40 71.09 7.40L71.09 7.40Q70.54 7.40 70.14 7.63Q69.74 7.86 69.53 8.26Q69.31 8.66 69.31 9.18L69.31 9.18L69.31 14.53L67.99 14.53L67.99 8.91Q67.99 8.23 67.54 7.81Q67.08 7.40 66.39 7.40L66.39 7.40Q65.91 7.40 65.49 7.62Q65.07 7.84 64.81 8.28Q64.56 8.72 64.56 9.38L64.56 9.38L64.56 14.53ZM77.70 17.59L76.38 17.59L76.38 6.34L77.65 6.34L77.65 7.65L77.80 7.65Q77.94 7.43 78.19 7.10Q78.44 6.77 78.90 6.50Q79.37 6.24 80.17 6.24L80.17 6.24Q81.20 6.24 81.98 6.75Q82.76 7.27 83.20 8.21Q83.64 9.16 83.64 10.46L83.64 10.46Q83.64 11.76 83.20 12.71Q82.76 13.67 81.98 14.19Q81.20 14.71 80.18 14.71L80.18 14.71Q79.40 14.71 78.93 14.44Q78.45 14.17 78.19 13.83Q77.94 13.49 77.80 13.26L77.80 13.26L77.70 13.26L77.70 17.59ZM79.98 13.53L79.98 13.53Q80.75 13.53 81.27 13.11Q81.78 12.70 82.04 12.00Q82.30 11.30 82.30 10.44L82.30 10.44Q82.30 9.59 82.05 8.91Q81.79 8.23 81.27 7.82Q80.76 7.42 79.98 7.42L79.98 7.42Q79.23 7.42 78.71 7.80Q78.20 8.18 77.94 8.86Q77.68 9.54 77.68 10.44L77.68 10.44Q77.68 11.35 77.94 12.05Q78.21 12.74 78.72 13.14Q79.24 13.53 79.98 13.53ZM85.56 3.62L86.88 3.62L86.88 14.53L85.56 14.53L85.56 3.62ZM92.64 14.71L92.64 14.71Q91.45 14.71 90.59 14.18Q89.73 13.65 89.26 12.71Q88.80 11.76 88.80 10.50L88.80 10.50Q88.80 9.24 89.25 8.28Q89.71 7.32 90.54 6.78Q91.37 6.24 92.48 6.24L92.48 6.24Q93.13 6.24 93.77 6.46Q94.40 6.67 94.92 7.15Q95.43 7.63 95.74 8.42Q96.05 9.20 96.05 10.33L96.05 10.33L96.05 10.88L89.69 10.88L89.69 9.77L95.34 9.77L94.72 10.18Q94.72 9.38 94.47 8.75Q94.22 8.12 93.72 7.77Q93.22 7.41 92.48 7.41L92.48 7.41Q91.74 7.41 91.22 7.77Q90.69 8.14 90.41 8.72Q90.13 9.30 90.13 9.97L90.13 9.97L90.13 10.71Q90.13 11.62 90.45 12.25Q90.76 12.88 91.33 13.21Q91.90 13.54 92.64 13.54L92.64 13.54Q93.13 13.54 93.52 13.40Q93.92 13.26 94.20 12.97Q94.49 12.69 94.64 12.28L94.64 12.28L95.92 12.63Q95.73 13.24 95.27 13.71Q94.82 14.18 94.15 14.44Q93.48 14.71 92.64 14.71ZM96.93 6.34L101.16 6.34L101.16 7.47L96.93 7.47L96.93 6.34ZM98.16 12.51L98.16 4.39L99.48 4.39L99.48 12.41Q99.48 12.96 99.70 13.21Q99.92 13.46 100.44 13.46L100.44 13.46Q100.57 13.46 100.76 13.43Q100.96 13.40 101.12 13.37L101.12 13.37L101.39 14.49Q101.18 14.56 100.92 14.60Q100.66 14.63 100.41 14.63L100.41 14.63Q99.35 14.63 98.75 14.07Q98.16 13.51 98.16 12.51L98.16 12.51ZM106.29 14.71L106.29 14.71Q105.10 14.71 104.24 14.18Q103.38 13.65 102.92 12.71Q102.45 11.76 102.45 10.50L102.45 10.50Q102.45 9.24 102.91 8.28Q103.36 7.32 104.19 6.78Q105.02 6.24 106.14 6.24L106.14 6.24Q106.79 6.24 107.42 6.46Q108.05 6.67 108.57 7.15Q109.09 7.63 109.39 8.42Q109.70 9.20 109.70 10.33L109.70 10.33L109.70 10.88L103.34 10.88L103.34 9.77L108.99 9.77L108.38 10.18Q108.38 9.38 108.12 8.75Q107.87 8.12 107.37 7.77Q106.88 7.41 106.14 7.41L106.14 7.41Q105.40 7.41 104.87 7.77Q104.34 8.14 104.06 8.72Q103.78 9.30 103.78 9.97L103.78 9.97L103.78 10.71Q103.78 11.62 104.10 12.25Q104.41 12.88 104.98 13.21Q105.55 13.54 106.30 13.54L106.30 13.54Q106.78 13.54 107.18 13.40Q107.57 13.26 107.86 12.97Q108.14 12.69 108.30 12.28L108.30 12.28L109.57 12.63Q109.38 13.24 108.93 13.71Q108.47 14.18 107.80 14.44Q107.13 14.71 106.29 14.71ZM117.36 14.53L115.97 14.53L115.97 3.62L117.36 3.62L117.36 8.33L123.09 8.33L123.09 3.62L124.48 3.62L124.48 14.53L123.09 14.53L123.09 9.57L117.36 9.57L117.36 14.53ZM129.25 14.72L129.25 14.72Q128.47 14.72 127.84 14.43Q127.21 14.14 126.83 13.57Q126.46 13.01 126.46 12.20L126.46 12.20Q126.46 11.50 126.74 11.06Q127.02 10.62 127.48 10.37Q127.95 10.11 128.51 9.99Q129.07 9.87 129.65 9.79L129.65 9.79Q130.38 9.70 130.84 9.65Q131.30 9.59 131.52 9.47Q131.75 9.35 131.75 9.05L131.75 9.05L131.75 9.00Q131.75 8.49 131.56 8.13Q131.37 7.78 130.99 7.59Q130.61 7.40 130.03 7.40L130.03 7.40Q129.45 7.40 129.03 7.58Q128.61 7.76 128.35 8.04Q128.09 8.31 127.96 8.60L127.96 8.60L126.69 8.18Q127.01 7.43 127.54 7.01Q128.08 6.59 128.72 6.42Q129.37 6.24 130.00 6.24L130.00 6.24Q130.41 6.24 130.93 6.34Q131.46 6.44 131.94 6.73Q132.43 7.02 132.75 7.60Q133.07 8.17 133.07 9.13L133.07 9.13L133.07 14.53L131.77 14.53L131.77 13.42L131.68 13.42Q131.54 13.70 131.24 14.01Q130.93 14.31 130.44 14.52Q129.95 14.72 129.25 14.72ZM129.48 13.56L129.48 13.56Q130.21 13.56 130.72 13.27Q131.22 12.99 131.48 12.53Q131.75 12.07 131.75 11.57L131.75 11.57L131.75 10.44Q131.67 10.53 131.40 10.61Q131.13 10.69 130.78 10.74Q130.43 10.80 130.10 10.84Q129.78 10.88 129.59 10.91L129.59 10.91Q129.11 10.96 128.70 11.11Q128.28 11.25 128.03 11.52Q127.79 11.80 127.79 12.27L127.79 12.27Q127.79 12.69 128.01 12.98Q128.23 13.26 128.61 13.41Q128.99 13.56 129.48 13.56ZM136.70 9.62L136.70 9.62L136.70 14.53L135.38 14.53L135.38 6.34L136.65 6.34L136.66 8.33L136.47 8.33Q136.85 7.19 137.54 6.72Q138.23 6.24 139.16 6.24L139.16 6.24Q139.99 6.24 140.61 6.58Q141.23 6.92 141.58 7.61Q141.93 8.29 141.93 9.33L141.93 9.33L141.93 14.53L140.61 14.53L140.61 9.44Q140.61 8.50 140.12 7.96Q139.62 7.43 138.76 7.43L138.76 7.43Q138.18 7.43 137.71 7.68Q137.24 7.94 136.97 8.43Q136.70 8.92 136.70 9.62ZM147.31 14.71L147.31 14.71Q146.29 14.71 145.51 14.19Q144.73 13.67 144.29 12.71Q143.85 11.76 143.85 10.46L143.85 10.46Q143.85 9.16 144.29 8.21Q144.73 7.27 145.52 6.75Q146.30 6.24 147.32 6.24L147.32 6.24Q148.12 6.24 148.59 6.50Q149.06 6.77 149.31 7.10Q149.56 7.43 149.69 7.65L149.69 7.65L149.79 7.65L149.79 3.62L151.11 3.62L151.11 14.53L149.84 14.53L149.84 13.26L149.69 13.26Q149.56 13.49 149.30 13.83Q149.04 14.17 148.57 14.44Q148.10 14.71 147.31 14.71ZM147.51 13.53L147.51 13.53Q148.26 13.53 148.77 13.14Q149.28 12.74 149.55 12.05Q149.81 11.35 149.81 10.44L149.81 10.44Q149.81 9.54 149.55 8.86Q149.29 8.18 148.78 7.80Q148.26 7.42 147.51 7.42L147.51 7.42Q146.73 7.42 146.22 7.82Q145.70 8.23 145.44 8.91Q145.19 9.59 145.19 10.44L145.19 10.44Q145.19 11.30 145.45 12.00Q145.71 12.70 146.23 13.11Q146.75 13.53 147.51 13.53ZM153.30 17.50L153.30 17.50L153.63 16.35L153.77 16.39Q154.17 16.49 154.50 16.45Q154.83 16.40 155.10 16.12Q155.36 15.84 155.56 15.26L155.56 15.26L155.79 14.58L152.67 6.34L154.11 6.34L155.85 11.20Q156.13 11.96 156.32 12.71Q156.51 13.45 156.72 14.16L156.72 14.16L156.24 14.16Q156.45 13.45 156.65 12.70Q156.84 11.95 157.11 11.20L157.11 11.20L158.87 6.34L160.31 6.34L156.71 15.75Q156.46 16.41 156.11 16.83Q155.76 17.25 155.30 17.45Q154.84 17.65 154.26 17.65L154.26 17.65Q153.91 17.65 153.65 17.60Q153.40 17.55 153.30 17.50ZM163.18 14.53L161.86 14.53L161.86 6.34L163.14 6.34L163.15 8.17L163.04 8.17Q163.21 7.51 163.58 7.07Q163.94 6.64 164.43 6.42Q164.91 6.20 165.44 6.20L165.44 6.20Q166.33 6.20 166.89 6.75Q167.44 7.29 167.60 8.19L167.60 8.19L167.42 8.19Q167.57 7.57 167.96 7.13Q168.35 6.68 168.90 6.44Q169.45 6.20 170.10 6.20L170.10 6.20Q170.82 6.20 171.40 6.50Q171.99 6.81 172.34 7.43Q172.68 8.06 172.68 9.01L172.68 9.01L172.68 14.53L171.36 14.53L171.36 9.05Q171.36 8.16 170.87 7.78Q170.37 7.40 169.71 7.40L169.71 7.40Q169.16 7.40 168.76 7.63Q168.36 7.86 168.15 8.26Q167.93 8.66 167.93 9.18L167.93 9.18L167.93 14.53L166.61 14.53L166.61 8.91Q166.61 8.23 166.16 7.81Q165.70 7.40 165.01 7.40L165.01 7.40Q164.53 7.40 164.11 7.62Q163.69 7.84 163.43 8.28Q163.18 8.72 163.18 9.38L163.18 9.38L163.18 14.53ZM177.29 14.72L177.29 14.72Q176.51 14.72 175.88 14.43Q175.25 14.14 174.87 13.57Q174.50 13.01 174.50 12.20L174.50 12.20Q174.50 11.50 174.78 11.06Q175.06 10.62 175.52 10.37Q175.99 10.11 176.55 9.99Q177.11 9.87 177.69 9.79L177.69 9.79Q178.42 9.70 178.88 9.65Q179.34 9.59 179.56 9.47Q179.79 9.35 179.79 9.05L179.79 9.05L179.79 9.00Q179.79 8.49 179.60 8.13Q179.41 7.78 179.03 7.59Q178.65 7.40 178.07 7.40L178.07 7.40Q177.49 7.40 177.07 7.58Q176.65 7.76 176.39 8.04Q176.13 8.31 176.00 8.60L176.00 8.60L174.73 8.18Q175.05 7.43 175.58 7.01Q176.12 6.59 176.76 6.42Q177.41 6.24 178.04 6.24L178.04 6.24Q178.45 6.24 178.97 6.34Q179.49 6.44 179.98 6.73Q180.47 7.02 180.79 7.60Q181.11 8.17 181.11 9.13L181.11 9.13L181.11 14.53L179.81 14.53L179.81 13.42L179.72 13.42Q179.58 13.70 179.27 14.01Q178.97 14.31 178.48 14.52Q177.99 14.72 177.29 14.72ZM177.52 13.56L177.52 13.56Q178.25 13.56 178.75 13.27Q179.26 12.99 179.52 12.53Q179.79 12.07 179.79 11.57L179.79 11.57L179.79 10.44Q179.71 10.53 179.44 10.61Q179.17 10.69 178.82 10.74Q178.47 10.80 178.14 10.84Q177.82 10.88 177.63 10.91L177.63 10.91Q177.15 10.96 176.74 11.11Q176.32 11.25 176.07 11.52Q175.83 11.80 175.83 12.27L175.83 12.27Q175.83 12.69 176.04 12.98Q176.26 13.26 176.65 13.41Q177.03 13.56 177.52 13.56ZM184.74 9.62L184.74 9.62L184.74 14.53L183.42 14.53L183.42 6.34L184.69 6.34L184.69 8.33L184.51 8.33Q184.89 7.19 185.58 6.72Q186.27 6.24 187.20 6.24L187.20 6.24Q188.03 6.24 188.65 6.58Q189.27 6.92 189.62 7.61Q189.97 8.29 189.97 9.33L189.97 9.33L189.97 14.53L188.65 14.53L188.65 9.44Q188.65 8.50 188.16 7.96Q187.66 7.43 186.80 7.43L186.80 7.43Q186.22 7.43 185.75 7.68Q185.28 7.94 185.01 8.43Q184.74 8.92 184.74 9.62ZM200.16 14.72L200.16 14.72Q198.98 14.72 198.11 14.34Q197.24 13.96 196.75 13.28Q196.26 12.59 196.19 11.67L196.19 11.67L197.62 11.67Q197.68 12.29 198.04 12.69Q198.40 13.09 198.96 13.28Q199.52 13.48 200.16 13.48L200.16 13.48Q200.90 13.48 201.49 13.23Q202.08 12.99 202.42 12.55Q202.76 12.11 202.76 11.54L202.76 11.54Q202.76 11.01 202.47 10.68Q202.17 10.35 201.68 10.14Q201.19 9.92 200.60 9.76L200.60 9.76L199.28 9.39Q197.97 9.02 197.23 8.32Q196.50 7.62 196.50 6.54L196.50 6.54Q196.50 5.62 197.00 4.93Q197.50 4.23 198.35 3.85Q199.20 3.47 200.25 3.47L200.25 3.47Q201.33 3.47 202.16 3.85Q202.98 4.23 203.46 4.89Q203.94 5.54 203.97 6.37L203.97 6.37L202.61 6.37Q202.51 5.57 201.85 5.14Q201.18 4.70 200.21 4.70L200.21 4.70Q199.50 4.70 198.97 4.93Q198.44 5.16 198.15 5.56Q197.86 5.96 197.86 6.47L197.86 6.47Q197.86 7.05 198.21 7.39Q198.57 7.74 199.05 7.94Q199.54 8.13 199.94 8.24L199.94 8.24L201.03 8.54Q201.47 8.66 202.00 8.86Q202.53 9.07 203.01 9.41Q203.50 9.75 203.81 10.27Q204.12 10.80 204.12 11.56L204.12 11.56Q204.12 12.45 203.65 13.17Q203.19 13.89 202.30 14.30Q201.42 14.72 200.16 14.72ZM209.46 14.71L209.46 14.71Q208.34 14.71 207.51 14.18Q206.67 13.65 206.20 12.70Q205.73 11.75 205.73 10.49L205.73 10.49Q205.73 9.21 206.20 8.25Q206.67 7.29 207.51 6.77Q208.34 6.24 209.46 6.24L209.46 6.24Q210.58 6.24 211.42 6.77Q212.26 7.29 212.73 8.25Q213.20 9.21 213.20 10.49L213.20 10.49Q213.20 11.75 212.73 12.70Q212.26 13.65 211.42 14.18Q210.58 14.71 209.46 14.71ZM209.46 13.53L209.46 13.53Q210.29 13.53 210.82 13.10Q211.35 12.68 211.61 11.99Q211.87 11.29 211.87 10.49L211.87 10.49Q211.87 9.68 211.61 8.98Q211.35 8.28 210.82 7.85Q210.29 7.42 209.46 7.42L209.46 7.42Q208.64 7.42 208.11 7.85Q207.58 8.28 207.33 8.97Q207.07 9.67 207.07 10.49L207.07 10.49Q207.07 11.29 207.33 11.99Q207.58 12.68 208.11 13.10Q208.64 13.53 209.46 13.53ZM215.12 3.62L216.44 3.62L216.44 14.53L215.12 14.53L215.12 3.62ZM221.53 14.63L221.53 14.63Q220.70 14.63 220.07 14.29Q219.45 13.95 219.10 13.26Q218.75 12.58 218.75 11.54L218.75 11.54L218.75 6.34L220.07 6.34L220.07 11.43Q220.07 12.38 220.57 12.91Q221.07 13.45 221.92 13.45L221.92 13.45Q222.51 13.45 222.97 13.19Q223.44 12.93 223.71 12.44Q223.98 11.95 223.98 11.25L223.98 11.25L223.98 6.34L225.31 6.34L225.31 14.53L224.03 14.53L224.03 12.55L224.21 12.55Q223.83 13.70 223.13 14.17Q222.43 14.63 221.53 14.63ZM226.61 6.34L230.84 6.34L230.84 7.47L226.61 7.47L226.61 6.34ZM227.84 12.51L227.84 4.39L229.16 4.39L229.16 12.41Q229.16 12.96 229.38 13.21Q229.61 13.46 230.13 13.46L230.13 13.46Q230.25 13.46 230.45 13.43Q230.64 13.40 230.80 13.37L230.80 13.37L231.07 14.49Q230.87 14.56 230.61 14.60Q230.35 14.63 230.09 14.63L230.09 14.63Q229.03 14.63 228.44 14.07Q227.84 13.51 227.84 12.51L227.84 12.51ZM233.85 14.53L232.53 14.53L232.53 6.34L233.85 6.34L233.85 14.53ZM233.20 5.00L233.20 5.00Q232.82 5.00 232.55 4.75Q232.28 4.49 232.28 4.13L232.28 4.13Q232.28 3.76 232.55 3.51Q232.82 3.26 233.20 3.26L233.20 3.26Q233.58 3.26 233.85 3.51Q234.12 3.76 234.12 4.13L234.12 4.13Q234.12 4.49 233.85 4.75Q233.58 5.00 233.20 5.00ZM239.49 14.71L239.49 14.71Q238.38 14.71 237.54 14.18Q236.70 13.65 236.24 12.70Q235.77 11.75 235.77 10.49L235.77 10.49Q235.77 9.21 236.24 8.25Q236.70 7.29 237.54 6.77Q238.38 6.24 239.49 6.24L239.49 6.24Q240.62 6.24 241.46 6.77Q242.30 7.29 242.77 8.25Q243.24 9.21 243.24 10.49L243.24 10.49Q243.24 11.75 242.77 12.70Q242.30 13.65 241.46 14.18Q240.62 14.71 239.49 14.71ZM239.49 13.53L239.49 13.53Q240.32 13.53 240.86 13.10Q241.39 12.68 241.65 11.99Q241.90 11.29 241.90 10.49L241.90 10.49Q241.90 9.68 241.65 8.98Q241.39 8.28 240.86 7.85Q240.32 7.42 239.49 7.42L239.49 7.42Q238.67 7.42 238.15 7.85Q237.62 8.28 237.36 8.97Q237.11 9.67 237.11 10.49L237.11 10.49Q237.11 11.29 237.36 11.99Q237.62 12.68 238.15 13.10Q238.67 13.53 239.49 13.53ZM246.47 9.62L246.47 9.62L246.47 14.53L245.16 14.53L245.16 6.34L246.42 6.34L246.43 8.33L246.25 8.33Q246.62 7.19 247.31 6.72Q248.01 6.24 248.94 6.24L248.94 6.24Q249.76 6.24 250.39 6.58Q251.01 6.92 251.36 7.61Q251.70 8.29 251.70 9.33L251.70 9.33L251.70 14.53L250.39 14.53L250.39 9.44Q250.39 8.50 249.89 7.96Q249.40 7.43 248.54 7.43L248.54 7.43Q247.95 7.43 247.49 7.68Q247.02 7.94 246.75 8.43Q246.47 8.92 246.47 9.62Z" transform="translate(0, 0)"></path></g></svg></g><g transform="rotate(0 0 0)"><svg viewBoxSize="575" data-root-id="3788507328615" xmlns="http://www.w3.org/2000/svg" y="301.64249420166016" viewBox="1.090000033378601 9.25 244.1300048828125 32.66999816894531" x="165.4350015258789" height="32.66999816894531" width="244.1300048828125" fontUrl="https://fonts.gstatic.com/s/poppins/v21/pxiEyp8kv8JHgFVrFJDUc1NECPY.ttf" zoom="1" editorType="buyer" data-layer-role="brandName" style="position: absolute; top: 301.642px; width: 244.13px; height: 32.67px; left: 165.435px;"><g data-horizontal-grow="center" zoom="1" root="[object Object]" style="fill: rgb(255, 255, 255); fill-opacity: 1;"><path d="M1.09 11.30L16.19 11.30L16.19 13.66L10.11 13.66L10.11 33.60L7.20 33.60L7.20 13.66L1.09 13.66L1.09 11.30ZM27.42 33.89Q24.96 33.89 22.96 32.77Q20.96 31.65 19.82 29.58Q18.69 27.52 18.69 24.80L18.69 24.80Q18.69 22.11 19.86 20.05Q21.02 17.98 23.04 16.88Q25.06 15.78 27.55 15.78L27.55 15.78Q30.05 15.78 32.06 16.88Q34.08 17.98 35.25 20.03Q36.42 22.08 36.42 24.80L36.42 24.80Q36.42 27.52 35.22 29.58Q34.02 31.65 31.97 32.77Q29.92 33.89 27.42 33.89L27.42 33.89ZM27.42 31.33Q28.99 31.33 30.37 30.59Q31.74 29.86 32.59 28.38Q33.44 26.91 33.44 24.80L33.44 24.80Q33.44 22.69 32.61 21.22Q31.78 19.74 30.43 19.02Q29.09 18.30 27.52 18.30L27.52 18.30Q25.92 18.30 24.59 19.02Q23.26 19.74 22.46 21.22Q21.66 22.69 21.66 24.80L21.66 24.80Q21.66 26.94 22.45 28.42Q23.23 29.89 24.54 30.61Q25.86 31.33 27.42 31.33L27.42 31.33ZM48.38 18.46L43.81 18.46L43.81 28.80Q43.81 30.08 44.35 30.61Q44.90 31.14 46.24 31.14L46.24 31.14L48.38 31.14L48.38 33.60L45.76 33.60Q43.33 33.60 42.11 32.48Q40.90 31.36 40.90 28.80L40.90 28.80L40.90 18.46L38.62 18.46L38.62 16.06L40.90 16.06L40.90 11.65L43.81 11.65L43.81 16.06L48.38 16.06L48.38 18.46ZM50.82 24.77Q50.82 22.08 51.90 20.05Q52.99 18.02 54.90 16.90Q56.80 15.78 59.14 15.78L59.14 15.78Q61.44 15.78 63.14 16.77Q64.83 17.76 65.66 19.26L65.66 19.26L65.66 16.06L68.61 16.06L68.61 33.60L65.66 33.60L65.66 30.34Q64.80 31.87 63.09 32.88Q61.38 33.89 59.10 33.89L59.10 33.89Q56.77 33.89 54.88 32.74Q52.99 31.58 51.90 29.50Q50.82 27.42 50.82 24.77L50.82 24.77ZM65.66 24.80Q65.66 22.82 64.86 21.34Q64.06 19.87 62.70 19.09Q61.34 18.30 59.71 18.30L59.71 18.30Q58.08 18.30 56.74 19.07Q55.39 19.84 54.59 21.31Q53.79 22.78 53.79 24.77L53.79 24.77Q53.79 26.78 54.59 28.27Q55.39 29.76 56.74 30.54Q58.08 31.33 59.71 31.33L59.71 31.33Q61.34 31.33 62.70 30.54Q64.06 29.76 64.86 28.27Q65.66 26.78 65.66 24.80L65.66 24.80ZM73.54 9.92L76.45 9.92L76.45 33.60L73.54 33.60L73.54 9.92ZM87.62 33.89Q85.60 33.89 84 33.20Q82.40 32.51 81.47 31.28Q80.54 30.05 80.45 28.45L80.45 28.45L83.46 28.45Q83.58 29.76 84.69 30.59Q85.79 31.42 87.58 31.42L87.58 31.42Q89.25 31.42 90.21 30.69Q91.17 29.95 91.17 28.83L91.17 28.83Q91.17 27.68 90.14 27.12Q89.12 26.56 86.98 26.02L86.98 26.02Q85.02 25.50 83.79 24.98Q82.56 24.45 81.68 23.41Q80.80 22.37 80.80 20.67L80.80 20.67Q80.80 19.33 81.60 18.21Q82.40 17.09 83.87 16.43Q85.34 15.78 87.23 15.78L87.23 15.78Q90.14 15.78 91.94 17.25Q93.73 18.72 93.86 21.28L93.86 21.28L90.94 21.28Q90.85 19.90 89.84 19.07Q88.83 18.24 87.14 18.24L87.14 18.24Q85.57 18.24 84.64 18.91Q83.71 19.58 83.71 20.67L83.71 20.67Q83.71 21.54 84.27 22.10Q84.83 22.66 85.68 22.99Q86.53 23.33 88.03 23.74L88.03 23.74Q89.92 24.26 91.10 24.75Q92.29 25.25 93.14 26.24Q93.98 27.23 94.02 28.83L94.02 28.83Q94.02 30.27 93.22 31.42Q92.42 32.58 90.96 33.23Q89.50 33.89 87.62 33.89L87.62 33.89ZM101.02 19.30Q101.89 17.79 103.60 16.78Q105.31 15.78 107.58 15.78L107.58 15.78Q109.92 15.78 111.82 16.90Q113.73 18.02 114.82 20.05Q115.90 22.08 115.90 24.77L115.90 24.77Q115.90 27.42 114.82 29.50Q113.73 31.58 111.82 32.74Q109.92 33.89 107.58 33.89L107.58 33.89Q105.34 33.89 103.63 32.88Q101.92 31.87 101.02 30.37L101.02 30.37L101.02 41.92L98.11 41.92L98.11 16.06L101.02 16.06L101.02 19.30ZM112.93 24.77Q112.93 22.78 112.13 21.31Q111.33 19.84 109.97 19.07Q108.61 18.30 106.98 18.30L106.98 18.30Q105.38 18.30 104.02 19.09Q102.66 19.87 101.84 21.36Q101.02 22.85 101.02 24.80L101.02 24.80Q101.02 26.78 101.84 28.27Q102.66 29.76 104.02 30.54Q105.38 31.33 106.98 31.33L106.98 31.33Q108.61 31.33 109.97 30.54Q111.33 29.76 112.13 28.27Q112.93 26.78 112.93 24.77L112.93 24.77ZM135.74 24.16Q135.74 24.99 135.65 25.92L135.65 25.92L121.63 25.92Q121.79 28.51 123.41 29.97Q125.02 31.42 127.33 31.42L127.33 31.42Q129.22 31.42 130.48 30.54Q131.74 29.66 132.26 28.19L132.26 28.19L135.39 28.19Q134.69 30.72 132.58 32.30Q130.46 33.89 127.33 33.89L127.33 33.89Q124.83 33.89 122.86 32.77Q120.90 31.65 119.78 29.58Q118.66 27.52 118.66 24.80L118.66 24.80Q118.66 22.08 119.74 20.03Q120.83 17.98 122.80 16.88Q124.77 15.78 127.33 15.78L127.33 15.78Q129.82 15.78 131.74 16.86Q133.66 17.95 134.70 19.86Q135.74 21.76 135.74 24.16L135.74 24.16ZM132.74 23.55Q132.74 21.89 132 20.69Q131.26 19.49 130 18.86Q128.74 18.24 127.20 18.24L127.20 18.24Q124.99 18.24 123.44 19.65Q121.89 21.06 121.66 23.55L121.66 23.55L132.74 23.55ZM138.50 24.80Q138.50 22.08 139.58 20.05Q140.67 18.02 142.61 16.90Q144.54 15.78 147.04 15.78L147.04 15.78Q150.27 15.78 152.37 17.34Q154.46 18.91 155.14 21.70L155.14 21.70L152 21.70Q151.55 20.10 150.26 19.17Q148.96 18.24 147.04 18.24L147.04 18.24Q144.54 18.24 143.01 19.95Q141.47 21.66 141.47 24.80L141.47 24.80Q141.47 27.97 143.01 29.70Q144.54 31.42 147.04 31.42L147.04 31.42Q148.96 31.42 150.24 30.53Q151.52 29.63 152 27.97L152 27.97L155.14 27.97Q154.43 30.66 152.32 32.27Q150.21 33.89 147.04 33.89L147.04 33.89Q144.54 33.89 142.61 32.77Q140.67 31.65 139.58 29.60Q138.50 27.55 138.50 24.80L138.50 24.80ZM160.51 13.22Q159.68 13.22 159.10 12.64Q158.53 12.06 158.53 11.23L158.53 11.23Q158.53 10.40 159.10 9.82Q159.68 9.25 160.51 9.25L160.51 9.25Q161.31 9.25 161.87 9.82Q162.43 10.40 162.43 11.23L162.43 11.23Q162.43 12.06 161.87 12.64Q161.31 13.22 160.51 13.22L160.51 13.22ZM159.01 16.06L161.92 16.06L161.92 33.60L159.01 33.60L159.01 16.06ZM165.79 24.77Q165.79 22.08 166.88 20.05Q167.97 18.02 169.87 16.90Q171.78 15.78 174.11 15.78L174.11 15.78Q176.42 15.78 178.11 16.77Q179.81 17.76 180.64 19.26L180.64 19.26L180.64 16.06L183.58 16.06L183.58 33.60L180.64 33.60L180.64 30.34Q179.78 31.87 178.06 32.88Q176.35 33.89 174.08 33.89L174.08 33.89Q171.74 33.89 169.86 32.74Q167.97 31.58 166.88 29.50Q165.79 27.42 165.79 24.77L165.79 24.77ZM180.64 24.80Q180.64 22.82 179.84 21.34Q179.04 19.87 177.68 19.09Q176.32 18.30 174.69 18.30L174.69 18.30Q173.06 18.30 171.71 19.07Q170.37 19.84 169.57 21.31Q168.77 22.78 168.77 24.77L168.77 24.77Q168.77 26.78 169.57 28.27Q170.37 29.76 171.71 30.54Q173.06 31.33 174.69 31.33L174.69 31.33Q176.32 31.33 177.68 30.54Q179.04 29.76 179.84 28.27Q180.64 26.78 180.64 24.80L180.64 24.80ZM188.51 9.92L191.42 9.92L191.42 33.60L188.51 33.60L188.51 9.92ZM197.89 13.22Q197.06 13.22 196.48 12.64Q195.90 12.06 195.90 11.23L195.90 11.23Q195.90 10.40 196.48 9.82Q197.06 9.25 197.89 9.25L197.89 9.25Q198.69 9.25 199.25 9.82Q199.81 10.40 199.81 11.23L199.81 11.23Q199.81 12.06 199.25 12.64Q198.69 13.22 197.89 13.22L197.89 13.22ZM196.38 16.06L199.30 16.06L199.30 33.60L196.38 33.60L196.38 16.06ZM210.46 33.89Q208.45 33.89 206.85 33.20Q205.25 32.51 204.32 31.28Q203.39 30.05 203.30 28.45L203.30 28.45L206.30 28.45Q206.43 29.76 207.54 30.59Q208.64 31.42 210.43 31.42L210.43 31.42Q212.10 31.42 213.06 30.69Q214.02 29.95 214.02 28.83L214.02 28.83Q214.02 27.68 212.99 27.12Q211.97 26.56 209.82 26.02L209.82 26.02Q207.87 25.50 206.64 24.98Q205.41 24.45 204.53 23.41Q203.65 22.37 203.65 20.67L203.65 20.67Q203.65 19.33 204.45 18.21Q205.25 17.09 206.72 16.43Q208.19 15.78 210.08 15.78L210.08 15.78Q212.99 15.78 214.78 17.25Q216.58 18.72 216.70 21.28L216.70 21.28L213.79 21.28Q213.70 19.90 212.69 19.07Q211.68 18.24 209.98 18.24L209.98 18.24Q208.42 18.24 207.49 18.91Q206.56 19.58 206.56 20.67L206.56 20.67Q206.56 21.54 207.12 22.10Q207.68 22.66 208.53 22.99Q209.38 23.33 210.88 23.74L210.88 23.74Q212.77 24.26 213.95 24.75Q215.14 25.25 215.98 26.24Q216.83 27.23 216.86 28.83L216.86 28.83Q216.86 30.27 216.06 31.42Q215.26 32.58 213.81 33.23Q212.35 33.89 210.46 33.89L210.46 33.89ZM229.09 18.46L224.51 18.46L224.51 28.80Q224.51 30.08 225.06 30.61Q225.60 31.14 226.94 31.14L226.94 31.14L229.09 31.14L229.09 33.60L226.46 33.60Q224.03 33.60 222.82 32.48Q221.60 31.36 221.60 28.80L221.60 28.80L221.60 18.46L219.33 18.46L219.33 16.06L221.60 16.06L221.60 11.65L224.51 11.65L224.51 16.06L229.09 16.06L229.09 18.46ZM238.82 33.89Q236.80 33.89 235.20 33.20Q233.60 32.51 232.67 31.28Q231.74 30.05 231.65 28.45L231.65 28.45L234.66 28.45Q234.78 29.76 235.89 30.59Q236.99 31.42 238.78 31.42L238.78 31.42Q240.45 31.42 241.41 30.69Q242.37 29.95 242.37 28.83L242.37 28.83Q242.37 27.68 241.34 27.12Q240.32 26.56 238.18 26.02L238.18 26.02Q236.22 25.50 234.99 24.98Q233.76 24.45 232.88 23.41Q232.00 22.37 232.00 20.67L232.00 20.67Q232.00 19.33 232.80 18.21Q233.60 17.09 235.07 16.43Q236.54 15.78 238.43 15.78L238.43 15.78Q241.34 15.78 243.14 17.25Q244.93 18.72 245.06 21.28L245.06 21.28L242.14 21.28Q242.05 19.90 241.04 19.07Q240.03 18.24 238.34 18.24L238.34 18.24Q236.77 18.24 235.84 18.91Q234.91 19.58 234.91 20.67L234.91 20.67Q234.91 21.54 235.47 22.10Q236.03 22.66 236.88 22.99Q237.73 23.33 239.23 23.74L239.23 23.74Q241.12 24.26 242.30 24.75Q243.49 25.25 244.34 26.24Q245.18 27.23 245.22 28.83L245.22 28.83Q245.22 30.27 244.42 31.42Q243.62 32.58 242.16 33.23Q240.70 33.89 238.82 33.89L238.82 33.89Z" transform="translate(0, 0)"></path></g></svg></g></svg>