<svg viewBox="0 0 575 575" class="roots-wrapper"><g transform="rotate(0 0 0)"><svg viewBoxSize="575" data-root-id="2365652265401" xmlns="http://www.w3.org/2000/svg" xmlns:xlink="http://www.w3.org/1999/xlink" version="1.1" id="Layer_1" x="54.01747131347656" y="230.906244140625" viewBox="462.70001220703125 471.1000061035156 1074.7000732421875 1057.800048828125" xml:space="preserve" height="113.1875" width="115" preserveAspectRatio="xMinYMin" zoom="1" editorType="buyer" data-layer-role="icon" style="position: absolute; height: 113.188px; width: 115px; top: 230.906px; left: 54.0175px;"><rect id="XMLID_2591_" x="462.7" y="1513.6" width="1074.6" height="15.3" name="Layer %{number}" zoom="1" data-layer-id="1742834265478" style="fill: rgb(234, 189, 35); fill-opacity: 1;"></rect><path id="XMLID_2584_" d="M883.1,1438v15.3h143.8V1438H883.1z M882.4,471.1v135.5H745.2V471.1h-84.6v982.2h628.3V471.1H882.4z     M675.9,1438V486.3h54v135.5h167.8V486.3h375.9V1438H675.9z M883.1,1438v15.3h143.8V1438H883.1z" name="Layer %{number}" zoom="1" data-layer-id="8207782165517" style="fill: rgb(234, 189, 35); fill-opacity: 1;"></path><rect id="XMLID_1671_" x="675.1" y="1445.6" width="15.3" height="75.7" name="Layer %{number}" zoom="1" data-layer-id="3005299265559" style="fill: rgb(234, 189, 35); fill-opacity: 1;"></rect><rect id="XMLID_1669_" x="1259.1" y="1445.6" width="15.3" height="75.7" name="Layer %{number}" zoom="1" data-layer-id="4358789865603" style="fill: rgb(234, 189, 35); fill-opacity: 1;"></rect><polygon id="XMLID_1666_" points="478,1528.9 478,1513.7 478,554.2 660.6,691 675.9,702.5 883.1,857.8 883.1,1438 883.1,1453.3     883.1,1513.7 883.1,1521.3 898.4,1521.3 898.4,1513.7 898.4,1453.3 898.4,1438 898.4,850.1 675.9,683.4 660.6,671.9 462.7,523.6     462.7,1513.7 462.7,1528.9   " name="Layer %{number}" zoom="1" data-layer-id="6324417665646" style="fill: rgb(234, 189, 35); fill-opacity: 1;"></polygon><path id="XMLID_1661_" d="M1288.9,921.8l-9-6.8l-6.3,4.8l-246.7,188.9v420.2h510.5v-420.3L1288.9,921.8z M1042.2,1513.6v-397.4    l231.4-177.1l6.4-4.9l8.9,6.7l233.1,175.3v397.3H1042.2z" name="Layer %{number}" zoom="1" data-layer-id="8926376465685" style="fill: rgb(234, 189, 35); fill-opacity: 1;"></path></svg></g><g transform="rotate(0 0 0)"><svg viewBoxSize="575" data-root-id="3430298465722" xmlns="http://www.w3.org/2000/svg" x="185.4924774169922" y="333.11426544189453" viewBox="4.230000019073486 3.740000009536743 319.3199768066406 10.430000305175781" height="10.430000305175781" width="319.3199768066406" fontUrl="https://fonts.gstatic.com/s/lato/v24/S6uyw4BMUTPHvxk6XweuBCY.ttf" zoom="1" editorType="buyer" data-layer-role="slogan" style="position: absolute; top: 333.114px; left: 185.492px; width: 319.32px; height: 10.43px;"><g data-horizontal-grow="left" data-vertical-center="false" zoom="1" root="[object Object]" style="fill: rgb(255, 255, 255); fill-opacity: 1;"><path d="M13.08 3.85L9.33 9.99L9.33 14.04L7.96 14.04L7.96 9.99L4.23 3.85L5.44 3.85Q5.62 3.85 5.73 3.94Q5.83 4.03 5.91 4.17L5.91 4.17L8.25 8.13Q8.39 8.38 8.48 8.60Q8.58 8.82 8.66 9.04L8.66 9.04Q8.74 8.82 8.83 8.59Q8.92 8.37 9.06 8.13L9.06 8.13L11.39 4.17Q11.45 4.06 11.56 3.95Q11.68 3.85 11.85 3.85L11.85 3.85L13.08 3.85ZM24.68 8.95L24.68 8.95Q24.68 10.10 24.32 11.05Q23.96 12.01 23.29 12.70Q22.63 13.39 21.70 13.77Q20.77 14.15 19.65 14.15L19.65 14.15Q18.53 14.15 17.60 13.77Q16.68 13.39 16.02 12.70Q15.35 12.01 14.99 11.05Q14.63 10.10 14.63 8.95L14.63 8.95Q14.63 7.80 14.99 6.85Q15.35 5.89 16.02 5.20Q16.68 4.50 17.60 4.12Q18.53 3.74 19.65 3.74L19.65 3.74Q20.77 3.74 21.70 4.12Q22.63 4.50 23.29 5.20Q23.96 5.89 24.32 6.85Q24.68 7.80 24.68 8.95ZM23.27 8.95L23.27 8.95Q23.27 8.01 23.01 7.26Q22.75 6.52 22.28 6.00Q21.81 5.49 21.14 5.21Q20.48 4.93 19.65 4.93L19.65 4.93Q18.83 4.93 18.16 5.21Q17.50 5.49 17.02 6.00Q16.55 6.52 16.29 7.26Q16.04 8.01 16.04 8.95L16.04 8.95Q16.04 9.89 16.29 10.63Q16.55 11.38 17.02 11.89Q17.50 12.41 18.16 12.68Q18.83 12.96 19.65 12.96L19.65 12.96Q20.48 12.96 21.14 12.68Q21.81 12.41 22.28 11.89Q22.75 11.38 23.01 10.63Q23.27 9.89 23.27 8.95ZM31.95 12.95L31.95 12.95Q32.59 12.95 33.08 12.74Q33.58 12.52 33.93 12.14Q34.27 11.75 34.45 11.22Q34.63 10.69 34.63 10.05L34.63 10.05L34.63 3.85L36.01 3.85L36.01 10.05Q36.01 10.93 35.73 11.68Q35.45 12.44 34.92 12.99Q34.40 13.54 33.65 13.85Q32.89 14.17 31.95 14.17L31.95 14.17Q31.01 14.17 30.26 13.85Q29.50 13.54 28.98 12.99Q28.45 12.44 28.17 11.68Q27.89 10.93 27.89 10.05L27.89 10.05L27.89 3.85L29.26 3.85L29.26 10.04Q29.26 10.68 29.44 11.21Q29.63 11.75 29.97 12.13Q30.32 12.51 30.82 12.73Q31.32 12.95 31.95 12.95ZM42.36 9.79L41.32 9.79L41.32 14.04L39.94 14.04L39.94 3.85L42.82 3.85Q43.79 3.85 44.50 4.04Q45.20 4.24 45.66 4.61Q46.12 4.98 46.34 5.50Q46.56 6.03 46.56 6.67L46.56 6.67Q46.56 7.21 46.39 7.68Q46.22 8.15 45.89 8.53Q45.57 8.90 45.10 9.16Q44.64 9.43 44.05 9.56L44.05 9.56Q44.30 9.71 44.50 10.00L44.50 10.00L47.48 14.04L46.25 14.04Q45.88 14.04 45.70 13.75L45.70 13.75L43.05 10.11Q42.93 9.94 42.79 9.86Q42.65 9.79 42.36 9.79L42.36 9.79ZM41.32 4.94L41.32 8.79L42.76 8.79Q43.36 8.79 43.82 8.64Q44.28 8.49 44.59 8.23Q44.90 7.96 45.06 7.59Q45.21 7.22 45.21 6.77L45.21 6.77Q45.21 5.86 44.61 5.40Q44.01 4.94 42.82 4.94L42.82 4.94L41.32 4.94ZM61.74 11.94L61.74 11.94Q61.86 11.94 61.95 12.03L61.95 12.03L62.49 12.62Q61.86 13.35 60.97 13.75Q60.08 14.16 58.82 14.16L58.82 14.16Q57.71 14.16 56.82 13.78Q55.92 13.40 55.29 12.71Q54.66 12.02 54.31 11.06Q53.96 10.10 53.96 8.95L53.96 8.95Q53.96 7.80 54.33 6.84Q54.71 5.88 55.38 5.19Q56.06 4.50 57.00 4.12Q57.94 3.74 59.08 3.74L59.08 3.74Q60.20 3.74 61.02 4.08Q61.83 4.43 62.47 5.03L62.47 5.03L62.02 5.66Q61.97 5.73 61.91 5.78Q61.84 5.83 61.72 5.83L61.72 5.83Q61.63 5.83 61.52 5.76Q61.42 5.69 61.28 5.59Q61.14 5.49 60.94 5.38Q60.75 5.26 60.49 5.17Q60.23 5.07 59.88 5.00Q59.53 4.93 59.07 4.93L59.07 4.93Q58.26 4.93 57.58 5.21Q56.90 5.49 56.41 6.01Q55.91 6.53 55.64 7.28Q55.37 8.03 55.37 8.95L55.37 8.95Q55.37 9.90 55.64 10.65Q55.91 11.40 56.39 11.91Q56.86 12.43 57.51 12.70Q58.16 12.97 58.90 12.97L58.90 12.97Q59.36 12.97 59.72 12.92Q60.08 12.86 60.39 12.75Q60.70 12.64 60.97 12.46Q61.24 12.29 61.51 12.05L61.51 12.05Q61.63 11.94 61.74 11.94ZM75.20 8.95L75.20 8.95Q75.20 10.10 74.83 11.05Q74.47 12.01 73.81 12.70Q73.15 13.39 72.22 13.77Q71.29 14.15 70.17 14.15L70.17 14.15Q69.04 14.15 68.12 13.77Q67.19 13.39 66.53 12.70Q65.87 12.01 65.51 11.05Q65.14 10.10 65.14 8.95L65.14 8.95Q65.14 7.80 65.51 6.85Q65.87 5.89 66.53 5.20Q67.19 4.50 68.12 4.12Q69.04 3.74 70.17 3.74L70.17 3.74Q71.29 3.74 72.22 4.12Q73.15 4.50 73.81 5.20Q74.47 5.89 74.83 6.85Q75.20 7.80 75.20 8.95ZM73.78 8.95L73.78 8.95Q73.78 8.01 73.52 7.26Q73.27 6.52 72.80 6.00Q72.33 5.49 71.66 5.21Q70.99 4.93 70.17 4.93L70.17 4.93Q69.35 4.93 68.68 5.21Q68.01 5.49 67.54 6.00Q67.06 6.52 66.81 7.26Q66.55 8.01 66.55 8.95L66.55 8.95Q66.55 9.89 66.81 10.63Q67.06 11.38 67.54 11.89Q68.01 12.41 68.68 12.68Q69.35 12.96 70.17 12.96L70.17 12.96Q70.99 12.96 71.66 12.68Q72.33 12.41 72.80 11.89Q73.27 11.38 73.52 10.63Q73.78 9.89 73.78 8.95ZM83.52 10.36L83.52 10.36Q83.62 10.53 83.69 10.72Q83.77 10.91 83.84 11.10L83.84 11.10Q83.91 10.90 83.99 10.72Q84.07 10.54 84.17 10.35L84.17 10.35L87.62 4.08Q87.71 3.92 87.81 3.88Q87.91 3.85 88.09 3.85L88.09 3.85L89.11 3.85L89.11 14.04L87.90 14.04L87.90 6.55Q87.90 6.40 87.91 6.23Q87.92 6.06 87.93 5.88L87.93 5.88L84.44 12.26Q84.26 12.58 83.94 12.58L83.94 12.58L83.74 12.58Q83.42 12.58 83.24 12.26L83.24 12.26L79.67 5.86Q79.69 6.05 79.70 6.23Q79.71 6.40 79.71 6.55L79.71 6.55L79.71 14.04L78.50 14.04L78.50 3.85L79.52 3.85Q79.71 3.85 79.81 3.88Q79.91 3.92 80.00 4.08L80.00 4.08L83.52 10.36ZM96.17 10.23L94.53 10.23L94.53 14.04L93.16 14.04L93.16 3.85L96.17 3.85Q97.14 3.85 97.85 4.07Q98.57 4.30 99.04 4.71Q99.51 5.12 99.74 5.71Q99.97 6.29 99.97 7.01L99.97 7.01Q99.97 7.72 99.72 8.31Q99.47 8.90 98.99 9.33Q98.51 9.75 97.80 9.99Q97.09 10.23 96.17 10.23L96.17 10.23ZM94.53 4.94L94.53 9.14L96.17 9.14Q96.76 9.14 97.21 8.98Q97.66 8.82 97.97 8.54Q98.28 8.26 98.43 7.87Q98.59 7.48 98.59 7.01L98.59 7.01Q98.59 6.03 97.99 5.49Q97.39 4.94 96.17 4.94L96.17 4.94L94.53 4.94ZM104.52 3.85L104.52 12.88L108.93 12.88L108.93 14.04L103.13 14.04L103.13 3.85L104.52 3.85ZM111.87 3.85L118.15 3.85L118.15 4.97L113.26 4.97L113.26 8.36L117.22 8.36L117.22 9.44L113.26 9.44L113.26 12.92L118.15 12.92L118.15 14.04L111.87 14.04L111.87 3.85ZM120.52 3.85L128.51 3.85L128.51 5.01L125.21 5.01L125.21 14.04L123.83 14.04L123.83 5.01L120.52 5.01L120.52 3.85ZM131.38 3.85L137.66 3.85L137.66 4.97L132.77 4.97L132.77 8.36L136.73 8.36L136.73 9.44L132.77 9.44L132.77 12.92L137.66 12.92L137.66 14.04L131.38 14.04L131.38 3.85ZM153.51 3.85L153.51 14.04L152.12 14.04L152.12 9.41L146.63 9.41L146.63 14.04L145.24 14.04L145.24 3.85L146.63 3.85L146.63 8.40L152.12 8.40L152.12 3.85L153.51 3.85ZM161.73 3.85L165.81 14.04L164.74 14.04Q164.56 14.04 164.44 13.95Q164.33 13.86 164.27 13.72L164.27 13.72L163.32 11.26L158.74 11.26L157.79 13.72Q157.74 13.85 157.62 13.94Q157.50 14.04 157.32 14.04L157.32 14.04L156.25 14.04L160.33 3.85L161.73 3.85ZM160.73 6.12L159.13 10.26L162.93 10.26L161.33 6.11Q161.18 5.73 161.03 5.15L161.03 5.15Q160.95 5.44 160.87 5.69Q160.80 5.93 160.73 6.12L160.73 6.12ZM169.23 3.85L169.23 3.85Q169.42 3.85 169.50 3.90Q169.59 3.94 169.71 4.08L169.71 4.08L175.61 11.77Q175.59 11.58 175.58 11.41Q175.58 11.23 175.58 11.07L175.58 11.07L175.58 3.85L176.79 3.85L176.79 14.04L176.09 14.04Q175.93 14.04 175.82 13.99Q175.71 13.93 175.60 13.80L175.60 13.80L169.70 6.12Q169.71 6.30 169.72 6.47Q169.73 6.64 169.73 6.78L169.73 6.78L169.73 14.04L168.52 14.04L168.52 3.85L169.23 3.85ZM189.54 8.95L189.54 8.95Q189.54 10.10 189.17 11.03Q188.81 11.97 188.15 12.64Q187.49 13.31 186.56 13.68Q185.64 14.04 184.51 14.04L184.51 14.04L180.70 14.04L180.70 3.85L184.51 3.85Q185.64 3.85 186.56 4.22Q187.49 4.58 188.15 5.25Q188.81 5.93 189.17 6.87Q189.54 7.80 189.54 8.95ZM188.12 8.95L188.12 8.95Q188.12 8.01 187.86 7.27Q187.61 6.53 187.14 6.02Q186.67 5.51 186.00 5.24Q185.33 4.97 184.51 4.97L184.51 4.97L182.09 4.97L182.09 12.93L184.51 12.93Q185.33 12.93 186.00 12.66Q186.67 12.39 187.14 11.88Q187.61 11.37 187.86 10.63Q188.12 9.89 188.12 8.95ZM199.94 3.85L196.20 9.99L196.20 14.04L194.82 14.04L194.82 9.99L191.09 3.85L192.30 3.85Q192.48 3.85 192.59 3.94Q192.70 4.03 192.77 4.17L192.77 4.17L195.11 8.13Q195.25 8.38 195.35 8.60Q195.44 8.82 195.52 9.04L195.52 9.04Q195.60 8.82 195.69 8.59Q195.78 8.37 195.93 8.13L195.93 8.13L198.25 4.17Q198.32 4.06 198.43 3.95Q198.54 3.85 198.71 3.85L198.71 3.85L199.94 3.85ZM207.66 10.36L207.66 10.36Q207.76 10.53 207.83 10.72Q207.91 10.91 207.98 11.10L207.98 11.10Q208.05 10.90 208.13 10.72Q208.21 10.54 208.30 10.35L208.30 10.35L211.76 4.08Q211.85 3.92 211.95 3.88Q212.05 3.85 212.23 3.85L212.23 3.85L213.25 3.85L213.25 14.04L212.04 14.04L212.04 6.55Q212.04 6.40 212.05 6.23Q212.05 6.06 212.07 5.88L212.07 5.88L208.58 12.26Q208.40 12.58 208.08 12.58L208.08 12.58L207.88 12.58Q207.56 12.58 207.38 12.26L207.38 12.26L203.81 5.86Q203.83 6.05 203.84 6.23Q203.85 6.40 203.85 6.55L203.85 6.55L203.85 14.04L202.64 14.04L202.64 3.85L203.66 3.85Q203.84 3.85 203.94 3.88Q204.04 3.92 204.14 4.08L204.14 4.08L207.66 10.36ZM221.47 3.85L225.54 14.04L224.48 14.04Q224.29 14.04 224.18 13.95Q224.06 13.86 224.01 13.72L224.01 13.72L223.05 11.26L218.48 11.26L217.53 13.72Q217.48 13.85 217.35 13.94Q217.23 14.04 217.06 14.04L217.06 14.04L215.99 14.04L220.07 3.85L221.47 3.85ZM220.46 6.12L218.86 10.26L222.67 10.26L221.07 6.11Q220.91 5.73 220.76 5.15L220.76 5.15Q220.68 5.44 220.61 5.69Q220.53 5.93 220.46 6.12L220.46 6.12ZM228.97 3.85L228.97 3.85Q229.15 3.85 229.24 3.90Q229.33 3.94 229.44 4.08L229.44 4.08L235.35 11.77Q235.33 11.58 235.32 11.41Q235.31 11.23 235.31 11.07L235.31 11.07L235.31 3.85L236.52 3.85L236.52 14.04L235.82 14.04Q235.66 14.04 235.55 13.99Q235.44 13.93 235.33 13.80L235.33 13.80L229.44 6.12Q229.45 6.30 229.46 6.47Q229.46 6.64 229.46 6.78L229.46 6.78L229.46 14.04L228.25 14.04L228.25 3.85L228.97 3.85ZM250.16 4.79L249.83 5.44Q249.76 5.55 249.69 5.60Q249.62 5.66 249.51 5.66L249.51 5.66Q249.39 5.66 249.23 5.54Q249.06 5.41 248.82 5.27Q248.57 5.12 248.23 5.00Q247.88 4.88 247.39 4.88L247.39 4.88Q246.93 4.88 246.57 5.01Q246.22 5.13 245.98 5.34Q245.74 5.56 245.62 5.84Q245.50 6.13 245.50 6.47L245.50 6.47Q245.50 6.89 245.71 7.18Q245.92 7.46 246.27 7.66Q246.61 7.85 247.05 8.00Q247.49 8.15 247.94 8.30Q248.40 8.46 248.84 8.66Q249.28 8.85 249.62 9.15Q249.97 9.45 250.18 9.88Q250.39 10.32 250.39 10.95L250.39 10.95Q250.39 11.62 250.16 12.21Q249.93 12.79 249.50 13.23Q249.06 13.66 248.42 13.91Q247.78 14.16 246.97 14.16L246.97 14.16Q245.98 14.16 245.17 13.80Q244.35 13.44 243.78 12.83L243.78 12.83L244.18 12.17Q244.23 12.10 244.32 12.04Q244.40 11.99 244.50 11.99L244.50 11.99Q244.65 11.99 244.84 12.15Q245.03 12.31 245.32 12.50Q245.61 12.69 246.02 12.85Q246.43 13.01 247.02 13.01L247.02 13.01Q247.51 13.01 247.89 12.88Q248.28 12.74 248.54 12.50Q248.81 12.25 248.95 11.91Q249.09 11.57 249.09 11.15L249.09 11.15Q249.09 10.69 248.88 10.39Q248.67 10.10 248.33 9.90Q247.99 9.70 247.55 9.56Q247.12 9.42 246.66 9.27Q246.20 9.13 245.76 8.94Q245.32 8.74 244.98 8.44Q244.64 8.13 244.43 7.67Q244.22 7.21 244.22 6.54L244.22 6.54Q244.22 6.00 244.43 5.49Q244.64 4.99 245.04 4.60Q245.44 4.20 246.02 3.97Q246.61 3.74 247.37 3.74L247.37 3.74Q248.23 3.74 248.93 4.01Q249.63 4.28 250.16 4.79L250.16 4.79ZM263.04 8.95L263.04 8.95Q263.04 10.10 262.68 11.05Q262.31 12.01 261.65 12.70Q260.99 13.39 260.06 13.77Q259.13 14.15 258.01 14.15L258.01 14.15Q256.88 14.15 255.96 13.77Q255.03 13.39 254.37 12.70Q253.71 12.01 253.35 11.05Q252.99 10.10 252.99 8.95L252.99 8.95Q252.99 7.80 253.35 6.85Q253.71 5.89 254.37 5.20Q255.03 4.50 255.96 4.12Q256.88 3.74 258.01 3.74L258.01 3.74Q259.13 3.74 260.06 4.12Q260.99 4.50 261.65 5.20Q262.31 5.89 262.68 6.85Q263.04 7.80 263.04 8.95ZM261.62 8.95L261.62 8.95Q261.62 8.01 261.37 7.26Q261.11 6.52 260.64 6.00Q260.17 5.49 259.50 5.21Q258.83 4.93 258.01 4.93L258.01 4.93Q257.19 4.93 256.52 5.21Q255.85 5.49 255.38 6.00Q254.91 6.52 254.65 7.26Q254.39 8.01 254.39 8.95L254.39 8.95Q254.39 9.89 254.65 10.63Q254.91 11.38 255.38 11.89Q255.85 12.41 256.52 12.68Q257.19 12.96 258.01 12.96L258.01 12.96Q258.83 12.96 259.50 12.68Q260.17 12.41 260.64 11.89Q261.11 11.38 261.37 10.63Q261.62 9.89 261.62 8.95ZM267.73 3.85L267.73 12.88L272.14 12.88L272.14 14.04L266.35 14.04L266.35 3.85L267.73 3.85ZM279.05 12.95L279.05 12.95Q279.68 12.95 280.18 12.74Q280.68 12.52 281.02 12.14Q281.37 11.75 281.55 11.22Q281.73 10.69 281.73 10.05L281.73 10.05L281.73 3.85L283.10 3.85L283.10 10.05Q283.10 10.93 282.82 11.68Q282.54 12.44 282.02 12.99Q281.49 13.54 280.74 13.85Q279.99 14.17 279.05 14.17L279.05 14.17Q278.11 14.17 277.35 13.85Q276.60 13.54 276.07 12.99Q275.55 12.44 275.26 11.68Q274.98 10.93 274.98 10.05L274.98 10.05L274.98 3.85L276.36 3.85L276.36 10.04Q276.36 10.68 276.54 11.21Q276.72 11.75 277.06 12.13Q277.41 12.51 277.91 12.73Q278.41 12.95 279.05 12.95ZM285.86 3.85L293.84 3.85L293.84 5.01L290.54 5.01L290.54 14.04L289.16 14.04L289.16 5.01L285.86 5.01L285.86 3.85ZM298.35 3.85L298.35 14.04L296.97 14.04L296.97 3.85L298.35 3.85ZM311.97 8.95L311.97 8.95Q311.97 10.10 311.61 11.05Q311.25 12.01 310.59 12.70Q309.92 13.39 309.00 13.77Q308.07 14.15 306.94 14.15L306.94 14.15Q305.82 14.15 304.89 13.77Q303.97 13.39 303.31 12.70Q302.65 12.01 302.28 11.05Q301.92 10.10 301.92 8.95L301.92 8.95Q301.92 7.80 302.28 6.85Q302.65 5.89 303.31 5.20Q303.97 4.50 304.89 4.12Q305.82 3.74 306.94 3.74L306.94 3.74Q308.07 3.74 309.00 4.12Q309.92 4.50 310.59 5.20Q311.25 5.89 311.61 6.85Q311.97 7.80 311.97 8.95ZM310.56 8.95L310.56 8.95Q310.56 8.01 310.30 7.26Q310.05 6.52 309.58 6.00Q309.11 5.49 308.44 5.21Q307.77 4.93 306.94 4.93L306.94 4.93Q306.12 4.93 305.46 5.21Q304.79 5.49 304.31 6.00Q303.84 6.52 303.59 7.26Q303.33 8.01 303.33 8.95L303.33 8.95Q303.33 9.89 303.59 10.63Q303.84 11.38 304.31 11.89Q304.79 12.41 305.46 12.68Q306.12 12.96 306.94 12.96L306.94 12.96Q307.77 12.96 308.44 12.68Q309.11 12.41 309.58 11.89Q310.05 11.38 310.30 10.63Q310.56 9.89 310.56 8.95ZM315.99 3.85L315.99 3.85Q316.18 3.85 316.27 3.90Q316.36 3.94 316.47 4.08L316.47 4.08L322.37 11.77Q322.35 11.58 322.35 11.41Q322.34 11.23 322.34 11.07L322.34 11.07L322.34 3.85L323.55 3.85L323.55 14.04L322.85 14.04Q322.69 14.04 322.58 13.99Q322.47 13.93 322.36 13.80L322.36 13.80L316.46 6.12Q316.48 6.30 316.48 6.47Q316.49 6.64 316.49 6.78L316.49 6.78L316.49 14.04L315.28 14.04L315.28 3.85L315.99 3.85Z" transform="translate(0, 0)"></path></g></svg></g><g transform="rotate(0 0 0)"><svg viewBoxSize="575" data-root-id="5036368565853" xmlns="http://www.w3.org/2000/svg" x="185.49247131347656" y="298.500244140625" viewBox="0.6100000143051147 8.100000381469727 335.4900207519531 25.989999771118164" height="25.989999771118164" width="335.4900207519531" fontUrl="https://fonts.gstatic.com/s/raleway/v34/1Ptxg8zYS_SKggPN4iEgvnHyvveLxVvoooCPNLA3JC9c.ttf" zoom="1" editorType="buyer" data-layer-role="brandName" style="position: absolute; top: 298.5px; left: 185.492px; width: 335.49px; height: 25.99px;"><g data-horizontal-grow="left" data-vertical-center="false" zoom="1" root="[object Object]" style="fill: rgb(255, 255, 255); fill-opacity: 1;"><path d="M21.49 8.28L21.49 11.16L12.67 11.16L12.67 33.84L9.43 33.84L9.43 11.16L0.61 11.16L0.61 8.28L21.49 8.28ZM35.53 34.02L35.53 34.02Q32.83 34.02 30.64 32.94Q28.44 31.86 26.84 30.01Q25.24 28.15 24.37 25.83Q23.51 23.51 23.51 21.06L23.51 21.06Q23.51 18.50 24.43 16.18Q25.34 13.86 26.98 12.04Q28.62 10.22 30.82 9.16Q33.01 8.10 35.60 8.10L35.60 8.10Q38.30 8.10 40.50 9.22Q42.70 10.33 44.28 12.20Q45.86 14.08 46.73 16.38Q47.59 18.68 47.59 21.10L47.59 21.10Q47.59 23.65 46.69 25.97Q45.79 28.30 44.15 30.11Q42.52 31.93 40.32 32.98Q38.12 34.02 35.53 34.02ZM26.78 21.06L26.78 21.06Q26.78 23.00 27.41 24.82Q28.04 26.64 29.20 28.04Q30.35 29.45 31.97 30.28Q33.59 31.10 35.57 31.10L35.57 31.10Q37.62 31.10 39.24 30.24Q40.86 29.38 41.99 27.94Q43.13 26.50 43.72 24.70Q44.32 22.90 44.32 21.06L44.32 21.06Q44.32 19.12 43.69 17.32Q43.06 15.52 41.89 14.09Q40.72 12.67 39.11 11.86Q37.51 11.05 35.57 11.05L35.57 11.05Q33.52 11.05 31.90 11.90Q30.28 12.74 29.14 14.18Q28.01 15.62 27.40 17.41Q26.78 19.19 26.78 21.06ZM70.52 8.28L70.52 11.16L61.70 11.16L61.70 33.84L58.46 33.84L58.46 11.16L49.64 11.16L49.64 8.28L70.52 8.28ZM71.50 33.84L81.97 8.28L84.71 8.28L95.15 33.84L91.69 33.84L88.67 26.35L77.94 26.35L74.95 33.84L71.50 33.84ZM78.59 23.83L87.95 23.83L83.34 12.02L78.59 23.83ZM116.06 33.84L98.57 33.84L98.57 8.28L101.81 8.28L101.81 30.96L116.06 30.96L116.06 33.84ZM136.12 11.02L134.60 13.64Q134.17 13.14 133.45 12.67Q132.73 12.20 131.83 11.83Q130.93 11.45 129.87 11.21Q128.81 10.98 127.66 10.98L127.66 10.98Q124.70 10.98 123.30 12.10Q121.90 13.21 121.90 15.16L121.90 15.16Q121.90 16.52 122.62 17.32Q123.34 18.11 124.83 18.61Q126.32 19.12 128.63 19.66L128.63 19.66Q131.29 20.23 133.24 21.06Q135.18 21.89 136.22 23.27Q137.27 24.66 137.27 26.96L137.27 26.96Q137.27 28.80 136.57 30.15Q135.86 31.50 134.60 32.38Q133.34 33.26 131.65 33.68Q129.96 34.09 127.98 34.09L127.98 34.09Q126.04 34.09 124.18 33.68Q122.33 33.26 120.67 32.47Q119.02 31.68 117.58 30.49L117.58 30.49L119.12 27.76Q119.70 28.37 120.62 28.96Q121.54 29.56 122.71 30.06Q123.88 30.56 125.24 30.87Q126.61 31.18 128.05 31.18L128.05 31.18Q130.79 31.18 132.30 30.19Q133.81 29.20 133.81 27.29L133.81 27.29Q133.81 25.85 132.97 24.98Q132.12 24.12 130.46 23.54Q128.81 22.97 126.43 22.39L126.43 22.39Q123.84 21.74 122.08 20.97Q120.31 20.20 119.43 18.94Q118.55 17.68 118.55 15.66L118.55 15.66Q118.55 13.21 119.74 11.52Q120.92 9.83 123.01 8.96Q125.10 8.10 127.73 8.10L127.73 8.10Q129.46 8.10 130.95 8.46Q132.44 8.82 133.74 9.47Q135.04 10.12 136.12 11.02L136.12 11.02ZM144.76 33.84L141.52 33.84L141.52 8.28L152.17 8.28Q153.86 8.28 155.27 8.98Q156.67 9.68 157.72 10.85Q158.76 12.02 159.34 13.48Q159.91 14.94 159.91 16.45L159.91 16.45Q159.91 18.54 158.98 20.43Q158.04 22.32 156.35 23.49Q154.66 24.66 152.39 24.66L152.39 24.66L144.76 24.66L144.76 33.84ZM144.76 11.16L144.76 21.78L152.21 21.78Q153.54 21.78 154.53 21.06Q155.52 20.34 156.08 19.12Q156.64 17.89 156.64 16.45L156.64 16.45Q156.64 14.94 155.99 13.73Q155.34 12.53 154.30 11.84Q153.25 11.16 151.99 11.16L151.99 11.16L144.76 11.16ZM167.18 30.96L181.30 30.96L181.30 33.84L163.94 33.84L163.94 8.28L180.97 8.28L180.97 11.16L167.18 11.16L167.18 19.44L179.17 19.44L179.17 22.14L167.18 22.14L167.18 30.96ZM184.07 20.88L184.07 20.88Q184.07 18.54 184.88 16.29Q185.69 14.04 187.25 12.19Q188.82 10.33 191.09 9.23Q193.36 8.14 196.24 8.14L196.24 8.14Q199.66 8.14 202.10 9.70Q204.55 11.27 205.74 13.72L205.74 13.72L203.18 15.37Q202.43 13.75 201.26 12.80Q200.09 11.84 198.74 11.45Q197.39 11.05 196.09 11.05L196.09 11.05Q193.97 11.05 192.33 11.92Q190.69 12.78 189.58 14.22Q188.46 15.66 187.90 17.44Q187.34 19.22 187.34 21.02L187.34 21.02Q187.34 23.00 188.01 24.84Q188.68 26.68 189.86 28.08Q191.05 29.48 192.67 30.31Q194.29 31.14 196.20 31.14L196.20 31.14Q197.53 31.14 198.94 30.67Q200.34 30.20 201.56 29.21Q202.79 28.22 203.51 26.64L203.51 26.64L206.21 28.12Q205.42 30.02 203.76 31.36Q202.10 32.69 200.07 33.37Q198.04 34.06 196.06 34.06L196.06 34.06Q193.43 34.06 191.23 32.92Q189.04 31.79 187.43 29.90Q185.83 28.01 184.95 25.65Q184.07 23.29 184.07 20.88ZM213.52 33.84L210.28 33.84L210.28 8.28L213.52 8.28L213.52 33.84ZM216.94 33.84L227.41 8.28L230.15 8.28L240.59 33.84L237.13 33.84L234.11 26.35L223.38 26.35L220.39 33.84L216.94 33.84ZM224.03 23.83L233.39 23.83L228.78 12.02L224.03 23.83ZM261.50 33.84L244.01 33.84L244.01 8.28L247.25 8.28L247.25 30.96L261.50 30.96L261.50 33.84ZM268.27 33.84L265.03 33.84L265.03 8.28L268.27 8.28L268.27 33.84ZM290.92 11.02L289.40 13.64Q288.97 13.14 288.25 12.67Q287.53 12.20 286.63 11.83Q285.73 11.45 284.67 11.21Q283.61 10.98 282.46 10.98L282.46 10.98Q279.50 10.98 278.10 12.10Q276.70 13.21 276.70 15.16L276.70 15.16Q276.70 16.52 277.42 17.32Q278.14 18.11 279.63 18.61Q281.12 19.12 283.43 19.66L283.43 19.66Q286.09 20.23 288.04 21.06Q289.98 21.89 291.02 23.27Q292.07 24.66 292.07 26.96L292.07 26.96Q292.07 28.80 291.37 30.15Q290.66 31.50 289.40 32.38Q288.14 33.26 286.45 33.68Q284.76 34.09 282.78 34.09L282.78 34.09Q280.84 34.09 278.98 33.68Q277.13 33.26 275.47 32.47Q273.82 31.68 272.38 30.49L272.38 30.49L273.92 27.76Q274.50 28.37 275.42 28.96Q276.34 29.56 277.51 30.06Q278.68 30.56 280.04 30.87Q281.41 31.18 282.85 31.18L282.85 31.18Q285.59 31.18 287.10 30.19Q288.61 29.20 288.61 27.29L288.61 27.29Q288.61 25.85 287.77 24.98Q286.92 24.12 285.26 23.54Q283.61 22.97 281.23 22.39L281.23 22.39Q278.64 21.74 276.88 20.97Q275.11 20.20 274.23 18.94Q273.35 17.68 273.35 15.66L273.35 15.66Q273.35 13.21 274.54 11.52Q275.72 9.83 277.81 8.96Q279.90 8.10 282.53 8.10L282.53 8.10Q284.26 8.10 285.75 8.46Q287.24 8.82 288.54 9.47Q289.84 10.12 290.92 11.02L290.92 11.02ZM314.75 8.28L314.75 11.16L305.93 11.16L305.93 33.84L302.69 33.84L302.69 11.16L293.87 11.16L293.87 8.28L314.75 8.28ZM334.94 11.02L333.43 13.64Q333 13.14 332.28 12.67Q331.56 12.20 330.66 11.83Q329.76 11.45 328.70 11.21Q327.64 10.98 326.48 10.98L326.48 10.98Q323.53 10.98 322.13 12.10Q320.72 13.21 320.72 15.16L320.72 15.16Q320.72 16.52 321.44 17.32Q322.16 18.11 323.66 18.61Q325.15 19.12 327.46 19.66L327.46 19.66Q330.12 20.23 332.06 21.06Q334.01 21.89 335.05 23.27Q336.10 24.66 336.10 26.96L336.10 26.96Q336.10 28.80 335.39 30.15Q334.69 31.50 333.43 32.38Q332.17 33.26 330.48 33.68Q328.79 34.09 326.81 34.09L326.81 34.09Q324.86 34.09 323.01 33.68Q321.16 33.26 319.50 32.47Q317.84 31.68 316.40 30.49L316.40 30.49L317.95 27.76Q318.53 28.37 319.45 28.96Q320.36 29.56 321.53 30.06Q322.70 30.56 324.07 30.87Q325.44 31.18 326.88 31.18L326.88 31.18Q329.62 31.18 331.13 30.19Q332.64 29.20 332.64 27.29L332.64 27.29Q332.64 25.85 331.79 24.98Q330.95 24.12 329.29 23.54Q327.64 22.97 325.26 22.39L325.26 22.39Q322.67 21.74 320.90 20.97Q319.14 20.20 318.26 18.94Q317.38 17.68 317.38 15.66L317.38 15.66Q317.38 13.21 318.56 11.52Q319.75 9.83 321.84 8.96Q323.93 8.10 326.56 8.10L326.56 8.10Q328.28 8.10 329.78 8.46Q331.27 8.82 332.57 9.47Q333.86 10.12 334.94 11.02L334.94 11.02Z" transform="translate(0, 0)"></path></g></svg></g></svg>